<svg id="Warstwa_1" data-name="Warstwa 1" xmlns="http://www.w3.org/2000/svg" viewBox="0 0 100 100"><defs><style>.cls-1{fill:#fff;}</style></defs><title>alarm-icon</title><path class="cls-1" d="M50,30.12A14.68,14.68,0,0,0,35.34,44.78a.75.75,0,0,0,1.5,0A13.18,13.18,0,0,1,50,31.62a.75.75,0,0,0,0-1.5Z"/><path class="cls-1" d="M50,17.71a.75.75,0,0,0,.75-.75V10a.75.75,0,0,0-1.5,0v7A.75.75,0,0,0,50,17.71Z"/><path class="cls-1" d="M77.83,49h7a.75.75,0,1,0,0-1.5h-7a.75.75,0,0,0,0,1.5Z"/><path class="cls-1" d="M15.22,49h7a.75.75,0,0,0,0-1.5h-7a.75.75,0,0,0,0,1.5Z"/><path class="cls-1" d="M69.68,25.86a.75.75,0,0,0,.53-.22l4.92-4.92a.75.75,0,0,0-1.06-1.06l-4.92,4.92a.75.75,0,0,0,.53,1.28Z"/><path class="cls-1" d="M27.33,28.1A.75.75,0,1,0,28.39,27l-4.92-4.92a.75.75,0,1,0-1.06,1.06Z"/><path class="cls-1" d="M83.78,75.34H78.58V66.65a1.75,1.75,0,0,0-1.75-1.75H71.62V44.78a21.62,21.62,0,0,0-43.24,0V64.9H23.17a1.75,1.75,0,0,0-1.75,1.75v8.68H16.22a1.75,1.75,0,0,0-1.75,1.75V90a.75.75,0,0,0,.75.75H84.78a.75.75,0,0,0,.75-.75V77.09A1.75,1.75,0,0,0,83.78,75.34ZM29.88,44.78a20.12,20.12,0,0,1,40.24,0V64.9H29.88Zm-7,21.87a.25.25,0,0,1,.25-.25H76.83a.25.25,0,0,1,.25.25v8.68H22.92ZM84,89.25H16V77.09a.25.25,0,0,1,.25-.25H83.78a.25.25,0,0,1,.25.25Z"/></svg>