<svg id="Warstwa_1" data-name="Warstwa 1" xmlns="http://www.w3.org/2000/svg" xmlns:xlink="http://www.w3.org/1999/xlink" viewBox="0 0 373 82"><defs><style>.cls-1{fill:url(#Gradient_bez_nazwy_10);}.cls-2{fill:#2aafd8;}.cls-3{fill:#fff;}.cls-4{opacity:0.7;}.cls-5{fill:#63a8de;}.cls-6{fill:none;}</style><linearGradient id="Gradient_bez_nazwy_10" x1="0.57" y1="41" x2="372.43" y2="41" gradientUnits="userSpaceOnUse"><stop offset="0" stop-color="#3396e5"/><stop offset="0.24" stop-color="#3d9ce8"/><stop offset="0.65" stop-color="#58adf0"/><stop offset="1" stop-color="#75bff9"/></linearGradient></defs><title>btn_samsung_tv_on</title><g id="tv_On" data-name="tv On"><path class="cls-1" d="M10.54,81.43a10,10,0,0,1-10-10v-61a10,10,0,0,1,10-9.95H362.46a10,10,0,0,1,10,10v61a10,10,0,0,1-10,10Z"/><path class="cls-2" d="M362.46,1.14a9.4,9.4,0,0,1,9.39,9.38v61a9.4,9.4,0,0,1-9.39,9.38H10.54a9.4,9.4,0,0,1-9.39-9.38v-61a9.4,9.4,0,0,1,9.39-9.38H362.46m0-1.14H10.54A10.53,10.53,0,0,0,0,10.52v61A10.53,10.53,0,0,0,10.54,82H362.46A10.53,10.53,0,0,0,373,71.48v-61A10.53,10.53,0,0,0,362.46,0Z"/><path class="cls-3" d="M87.25,34.19a1.61,1.61,0,0,0-.61-1.34,7.57,7.57,0,0,0-2.21-1,10.39,10.39,0,0,1-2.53-1.06,3.36,3.36,0,0,1-1.8-2.94,3.23,3.23,0,0,1,1.3-2.62,5.31,5.31,0,0,1,3.37-1,5.68,5.68,0,0,1,2.45.51,3.91,3.91,0,0,1,1.69,1.44,3.67,3.67,0,0,1,.61,2.07H87.25a2.06,2.06,0,0,0-.65-1.61,2.67,2.67,0,0,0-1.85-.58,2.77,2.77,0,0,0-1.74.47,1.61,1.61,0,0,0-.62,1.34,1.42,1.42,0,0,0,.67,1.2,7.4,7.4,0,0,0,2.21.94,10.31,10.31,0,0,1,2.46,1A4,4,0,0,1,89.1,32.4a3.49,3.49,0,0,1,.43,1.77,3.13,3.13,0,0,1-1.26,2.61,5.45,5.45,0,0,1-3.42,1,6.5,6.5,0,0,1-2.63-.53,4.34,4.34,0,0,1-1.86-1.45,3.67,3.67,0,0,1-.66-2.17H82a2.1,2.1,0,0,0,.75,1.73,3.23,3.23,0,0,0,2.12.62,2.75,2.75,0,0,0,1.79-.49A1.52,1.52,0,0,0,87.25,34.19Z"/><path class="cls-3" d="M97.17,37.57a3.61,3.61,0,0,1-.25-.91,3.7,3.7,0,0,1-5,.25A2.68,2.68,0,0,1,91,34.84a2.77,2.77,0,0,1,1.16-2.4,5.6,5.6,0,0,1,3.32-.83h1.35V31a1.74,1.74,0,0,0-.43-1.22,1.68,1.68,0,0,0-1.29-.45,1.94,1.94,0,0,0-1.23.37,1.16,1.16,0,0,0-.48.95h-2.2a2.42,2.42,0,0,1,.54-1.5A3.54,3.54,0,0,1,93.21,28a5.17,5.17,0,0,1,2.05-.39,4.06,4.06,0,0,1,2.73.86A3,3,0,0,1,99,30.91v4.4a5.15,5.15,0,0,0,.37,2.11v.15ZM94.76,36A2.49,2.49,0,0,0,96,35.68a2.22,2.22,0,0,0,.87-.85V33H95.66a3.26,3.26,0,0,0-1.83.42,1.37,1.37,0,0,0-.62,1.2,1.29,1.29,0,0,0,.42,1A1.64,1.64,0,0,0,94.76,36Z"/><path class="cls-3" d="M103.41,27.81l.06,1a3.53,3.53,0,0,1,2.82-1.2A2.72,2.72,0,0,1,109,29.12a3.48,3.48,0,0,1,3-1.49,3,3,0,0,1,2.41.89,3.9,3.9,0,0,1,.81,2.63v6.42H113V31.22a1.88,1.88,0,0,0-.41-1.36,1.77,1.77,0,0,0-1.34-.44,1.89,1.89,0,0,0-1.23.4,2.12,2.12,0,0,0-.66,1.06v6.69h-2.2V31.15a1.57,1.57,0,0,0-1.76-1.73,1.92,1.92,0,0,0-1.87,1.08v7.07h-2.2V27.81Z"/><path class="cls-3" d="M122.94,34.92a1,1,0,0,0-.49-.9,5.29,5.29,0,0,0-1.6-.54,7.94,7.94,0,0,1-1.87-.59,2.5,2.5,0,0,1-1.65-2.3,2.58,2.58,0,0,1,1.07-2.11,4.18,4.18,0,0,1,2.71-.85,4.42,4.42,0,0,1,2.83.86A2.76,2.76,0,0,1,125,30.74h-2.19a1.36,1.36,0,0,0-.47-1,1.82,1.82,0,0,0-1.25-.42,2,2,0,0,0-1.18.33,1.08,1.08,0,0,0-.46.9.9.9,0,0,0,.43.78,5.62,5.62,0,0,0,1.72.57,8,8,0,0,1,2,.67,2.92,2.92,0,0,1,1.09.94,2.42,2.42,0,0,1,.36,1.34,2.53,2.53,0,0,1-1.1,2.13,4.62,4.62,0,0,1-2.86.82,5.1,5.1,0,0,1-2.15-.43,3.61,3.61,0,0,1-1.46-1.19,2.82,2.82,0,0,1-.52-1.64h2.13a1.56,1.56,0,0,0,.59,1.2,2.27,2.27,0,0,0,1.43.42,2.22,2.22,0,0,0,1.32-.33A1,1,0,0,0,122.94,34.92Z"/><path class="cls-3" d="M132.93,36.61a3.39,3.39,0,0,1-2.74,1.14,3,3,0,0,1-2.41-.93,3.92,3.92,0,0,1-.82-2.69V27.81h2.2v6.3c0,1.23.51,1.85,1.54,1.85a2.17,2.17,0,0,0,2.16-1.14v-7h2.2v9.76H133Z"/><path class="cls-3" d="M139.34,27.81l.06,1.13a3.49,3.49,0,0,1,2.85-1.31q3,0,3.11,3.49v6.45h-2.2V31.25a2,2,0,0,0-.4-1.38,1.7,1.7,0,0,0-1.32-.45,2.13,2.13,0,0,0-2,1.2v7h-2.19V27.81Z"/><path class="cls-3" d="M147.21,32.62A5.75,5.75,0,0,1,148.28,29a3.44,3.44,0,0,1,2.84-1.35,3.19,3.19,0,0,1,2.63,1.16l.1-1h2v9.46a4,4,0,0,1-1.19,3,4.58,4.58,0,0,1-3.24,1.11,5.21,5.21,0,0,1-2.1-.44,3.82,3.82,0,0,1-1.56-1.17l1-1.32a3.16,3.16,0,0,0,2.5,1.2,2.43,2.43,0,0,0,1.72-.59,2.23,2.23,0,0,0,.64-1.74V36.7a3.26,3.26,0,0,1-2.53,1,3.42,3.42,0,0,1-2.81-1.36A5.87,5.87,0,0,1,147.21,32.62Zm2.19.19a3.91,3.91,0,0,0,.6,2.31,1.94,1.94,0,0,0,1.67.84,2.11,2.11,0,0,0,2-1.13v-4.3a2.1,2.1,0,0,0-2-1.11,1.94,1.94,0,0,0-1.68.86A4.4,4.4,0,0,0,149.4,32.81Z"/><path class="cls-3" d="M171.88,26.27h-4.1v11.3h-2.27V26.27h-4.07V24.43h10.44Z"/><path class="cls-3" d="M178.39,34.71l3.34-10.28h2.52l-4.74,13.14H177.3l-4.72-13.14h2.5Z"/><g class="cls-4"><path class="cls-3" d="M88.64,52.89a6.62,6.62,0,0,1-.56,2.83,4.24,4.24,0,0,1-1.59,1.87,4.49,4.49,0,0,1-2.4.65,4.45,4.45,0,0,1-2.38-.65,4.33,4.33,0,0,1-1.62-1.86A6.6,6.6,0,0,1,79.51,53v-.62a6.7,6.7,0,0,1,.57-2.84,4.26,4.26,0,0,1,1.61-1.88A4.37,4.37,0,0,1,84.08,47a4.42,4.42,0,0,1,2.38.64,4.2,4.2,0,0,1,1.61,1.86,6.5,6.5,0,0,1,.57,2.81Zm-1.91-.58a4.8,4.8,0,0,0-.69-2.8,2.45,2.45,0,0,0-3.9,0,4.68,4.68,0,0,0-.71,2.74v.64a4.76,4.76,0,0,0,.7,2.79,2.46,2.46,0,0,0,3.92,0,4.93,4.93,0,0,0,.68-2.82Z"/><path class="cls-3" d="M92.07,49.93l.06.94a2.93,2.93,0,0,1,2.38-1.09c1.7,0,2.57,1,2.6,2.92v5.39H95.27V52.8a1.65,1.65,0,0,0-.34-1.15,1.4,1.4,0,0,0-1.09-.37,1.76,1.76,0,0,0-1.66,1v5.81H90.34V49.93Z"/></g><ellipse class="cls-5" cx="329.9" cy="41.05" rx="23.58" ry="23.54"/><path class="cls-6" d="M332.91,41.63h-6V33.34a8.29,8.29,0,1,0,6,0v8.29Z"/><path class="cls-3" d="M332.91,31.53v1.81a8.3,8.3,0,1,1-6,0V31.53a10,10,0,1,0,6,0Z"/><rect class="cls-3" x="328.9" y="31.07" width="2" height="8.56"/><path class="cls-3" d="M55,28.35H25.23a1.43,1.43,0,0,0-1.43,1.43V46a1.43,1.43,0,0,0,1.43,1.42H39.38v1.05L29.05,51.17a.72.72,0,0,0,.18,1.41.57.57,0,0,0,.18,0l10.68-2.8,10.69,2.8a.57.57,0,0,0,.18,0,.72.72,0,0,0,.69-.54.71.71,0,0,0-.51-.87L40.81,48.46V47.41H55A1.43,1.43,0,0,0,56.39,46V29.78A1.43,1.43,0,0,0,55,28.35ZM55,46H25.23V29.78H55Z"/></g></svg>