<svg id="Warstwa_1" data-name="Warstwa 1" xmlns="http://www.w3.org/2000/svg" xmlns:xlink="http://www.w3.org/1999/xlink" viewBox="0 0 373 82"><defs><style>.cls-1{fill:url(#Gradient_bez_nazwy_10);}.cls-2{fill:#2aafd8;}.cls-3{fill:#fff;}.cls-4{opacity:0.7;}.cls-5{fill:#63a8de;}.cls-6{fill:#5898c4;}</style><linearGradient id="Gradient_bez_nazwy_10" x1="0.57" y1="40.89" x2="372.43" y2="40.89" gradientUnits="userSpaceOnUse"><stop offset="0" stop-color="#3396e5"/><stop offset="0.24" stop-color="#3d9ce8"/><stop offset="0.65" stop-color="#58adf0"/><stop offset="1" stop-color="#75bff9"/></linearGradient></defs><title>btn_wall_plug_on</title><g id="Audio_On" data-name="Audio On"><path class="cls-1" d="M10.54,81.32a10,10,0,0,1-10-9.95v-61a10,10,0,0,1,10-9.95H362.46a10,10,0,0,1,10,10v61a10,10,0,0,1-10,9.95Z"/><path class="cls-2" d="M362.46,1a9.4,9.4,0,0,1,9.39,9.38v61a9.4,9.4,0,0,1-9.39,9.38H10.54a9.4,9.4,0,0,1-9.39-9.38v-61A9.4,9.4,0,0,1,10.54,1H362.46m0-1.14H10.54A10.53,10.53,0,0,0,0,10.41v61A10.53,10.53,0,0,0,10.54,81.89H362.46A10.53,10.53,0,0,0,373,71.37v-61A10.53,10.53,0,0,0,362.46-.11Z"/><path class="cls-3" d="M88,31.89h-5.3v5.57H80.37V24.32h8.36v1.84H82.65v3.91H88Z"/><path class="cls-3" d="M93,37.46H90.67V24.32H93Z"/><path class="cls-3" d="M95.76,37.46V24.32h4.51a5.49,5.49,0,0,1,3.4.9,3.13,3.13,0,0,1,1.17,2.66,2.79,2.79,0,0,1-.49,1.62,3.13,3.13,0,0,1-1.43,1.12,2.92,2.92,0,0,1,1.65,1.09,3.15,3.15,0,0,1,.58,1.92A3.49,3.49,0,0,1,104,36.47a5.21,5.21,0,0,1-3.41,1Zm2.29-7.61h2.24a2.61,2.61,0,0,0,1.67-.48,1.94,1.94,0,0,0,0-2.77,2.78,2.78,0,0,0-1.73-.44H98.05Zm0,1.68v4.11h2.54a2.47,2.47,0,0,0,1.68-.53,2.1,2.1,0,0,0-1.49-3.58Z"/><path class="cls-3" d="M114.81,34.4h-5.1l-1.07,3.06h-2.37l5-13.14h2.05l5,13.14h-2.38Zm-4.46-1.84h3.82l-1.91-5.45Z"/><path class="cls-3" d="M124.6,32.41h-2.55v5.05h-2.29V24.32h4.63a5.41,5.41,0,0,1,3.52,1,3.64,3.64,0,0,1,1.24,3,3.69,3.69,0,0,1-.64,2.2,4.05,4.05,0,0,1-1.78,1.37l3,5.47v.12h-2.45Zm-2.55-1.84h2.35a2.63,2.63,0,0,0,1.81-.59,2,2,0,0,0,.65-1.59,2.15,2.15,0,0,0-.6-1.63,2.58,2.58,0,0,0-1.8-.6h-2.41Z"/><path class="cls-3" d="M141.82,31.23a8,8,0,0,1-.67,3.39,5,5,0,0,1-1.91,2.24,5.62,5.62,0,0,1-5.71,0,5.14,5.14,0,0,1-1.94-2.22,8,8,0,0,1-.69-3.33v-.74a8.09,8.09,0,0,1,.68-3.4,5.15,5.15,0,0,1,1.93-2.25,5.25,5.25,0,0,1,2.85-.78,5.34,5.34,0,0,1,2.85.77,5.1,5.1,0,0,1,1.92,2.22,7.77,7.77,0,0,1,.69,3.37Zm-2.29-.68a5.76,5.76,0,0,0-.82-3.35A2.73,2.73,0,0,0,136.36,26,2.69,2.69,0,0,0,134,27.2a5.57,5.57,0,0,0-.85,3.28v.75a5.72,5.72,0,0,0,.84,3.35,2.73,2.73,0,0,0,2.35,1.18,2.7,2.7,0,0,0,2.34-1.15,5.88,5.88,0,0,0,.81-3.38Z"/><path class="cls-3" d="M159,34.21l2-9.89h2.27l-3,13.14H158.1l-2.5-9.59L153,37.46h-2.2l-3-13.14h2.27l2,9.87,2.51-9.87h1.92Z"/><path class="cls-3" d="M170.33,37.46a3.61,3.61,0,0,1-.25-.91,3.41,3.41,0,0,1-2.57,1.09,3.44,3.44,0,0,1-2.4-.84,2.68,2.68,0,0,1-.93-2.07,2.77,2.77,0,0,1,1.16-2.4,5.6,5.6,0,0,1,3.32-.83H170v-.64a1.53,1.53,0,0,0-1.72-1.67,1.94,1.94,0,0,0-1.23.37,1.16,1.16,0,0,0-.48,1h-2.19a2.41,2.41,0,0,1,.53-1.5,3.54,3.54,0,0,1,1.45-1.1,5.17,5.17,0,0,1,2-.39,4.09,4.09,0,0,1,2.74.86,3.07,3.07,0,0,1,1.05,2.42v4.4a5,5,0,0,0,.37,2.11v.15Zm-2.41-1.58a2.55,2.55,0,0,0,1.23-.31,2.2,2.2,0,0,0,.86-.85V32.88h-1.19a3.26,3.26,0,0,0-1.83.42,1.37,1.37,0,0,0-.62,1.2,1.27,1.27,0,0,0,.43,1A1.61,1.61,0,0,0,167.92,35.88Z"/><path class="cls-3" d="M176.84,37.46h-2.19V23.6h2.19Z"/><path class="cls-3" d="M181.57,37.46h-2.2V23.6h2.2Z"/><path class="cls-3" d="M186.46,32.59v4.87h-2.29V24.32h5a5.11,5.11,0,0,1,3.5,1.15,3.84,3.84,0,0,1,1.3,3,3.7,3.7,0,0,1-1.27,3,5.33,5.33,0,0,1-3.56,1.08Zm0-1.84h2.75a2.68,2.68,0,0,0,1.86-.58,2.08,2.08,0,0,0,.64-1.65,2.24,2.24,0,0,0-.65-1.7,2.52,2.52,0,0,0-1.79-.66h-2.81Z"/><path class="cls-3" d="M198.13,37.46h-2.19V23.6h2.19Z"/><path class="cls-3" d="M206.45,36.5a3.4,3.4,0,0,1-2.75,1.14,3,3,0,0,1-2.41-.93,4,4,0,0,1-.82-2.69V27.7h2.2V34c0,1.23.52,1.85,1.55,1.85a2.19,2.19,0,0,0,2.16-1.14v-7h2.19v9.76H206.5Z"/><path class="cls-3" d="M210.43,32.51a5.69,5.69,0,0,1,1.07-3.64,3.44,3.44,0,0,1,2.84-1.35A3.2,3.2,0,0,1,217,28.68l.1-1h2v9.46a3.92,3.92,0,0,1-1.2,3,4.54,4.54,0,0,1-3.23,1.11,5.35,5.35,0,0,1-2.1-.44A3.82,3.82,0,0,1,211,39.69l1-1.32a3.16,3.16,0,0,0,2.5,1.2,2.43,2.43,0,0,0,1.72-.59,2.26,2.26,0,0,0,.64-1.74v-.66a3.24,3.24,0,0,1-2.54,1.06,3.41,3.41,0,0,1-2.8-1.36A5.87,5.87,0,0,1,210.43,32.51Zm2.19.19a3.91,3.91,0,0,0,.6,2.31,1.92,1.92,0,0,0,1.66.84,2.12,2.12,0,0,0,2-1.13v-4.3a2.1,2.1,0,0,0-2-1.11,1.94,1.94,0,0,0-1.68.86A4.4,4.4,0,0,0,212.62,32.7Z"/><path class="cls-3" d="M233.5,34.4h-5.1l-1.07,3.06H225l5-13.14h2l5,13.14h-2.39ZM229,32.56h3.82L231,27.11Z"/><path class="cls-3" d="M244.07,36.5a3.41,3.41,0,0,1-2.75,1.14,3,3,0,0,1-2.41-.93,3.92,3.92,0,0,1-.82-2.69V27.7h2.2V34c0,1.23.51,1.85,1.54,1.85A2.17,2.17,0,0,0,244,34.71v-7h2.2v9.76h-2.07Z"/><path class="cls-3" d="M248,32.51a5.82,5.82,0,0,1,1-3.63,3.34,3.34,0,0,1,2.81-1.36,3.2,3.2,0,0,1,2.51,1.08v-5h2.2V37.46h-2l-.11-1a3.25,3.25,0,0,1-2.63,1.19,3.34,3.34,0,0,1-2.78-1.38A6,6,0,0,1,248,32.51Zm2.19.19a4.08,4.08,0,0,0,.58,2.32,1.84,1.84,0,0,0,1.63.83,2.08,2.08,0,0,0,2-1.2V30.49a2,2,0,0,0-1.95-1.18,1.88,1.88,0,0,0-1.65.85A4.56,4.56,0,0,0,250.21,32.7Z"/><path class="cls-3" d="M258.88,25.16a1.2,1.2,0,0,1,.32-.84,1.23,1.23,0,0,1,.92-.33,1.22,1.22,0,0,1,.92.33,1.17,1.17,0,0,1,.33.84A1.13,1.13,0,0,1,261,26a1.22,1.22,0,0,1-.92.33,1.23,1.23,0,0,1-.92-.33A1.16,1.16,0,0,1,258.88,25.16Zm2.34,12.3H259V27.7h2.2Z"/><path class="cls-3" d="M263.2,32.49a5.76,5.76,0,0,1,.57-2.59,4.08,4.08,0,0,1,1.6-1.76,4.4,4.4,0,0,1,2.36-.62A4.29,4.29,0,0,1,271,28.79a5,5,0,0,1,1.33,3.37v.52a5.82,5.82,0,0,1-.56,2.58A4.12,4.12,0,0,1,270.14,37a4.57,4.57,0,0,1-2.39.62,4.24,4.24,0,0,1-3.31-1.38,5.24,5.24,0,0,1-1.24-3.66Zm2.19.19A3.91,3.91,0,0,0,266,35a2.17,2.17,0,0,0,3.46,0,4.26,4.26,0,0,0,.62-2.53,3.92,3.92,0,0,0-.63-2.35,2.07,2.07,0,0,0-1.74-.86,2,2,0,0,0-1.7.85A4.21,4.21,0,0,0,265.39,32.68Z"/><g class="cls-4"><path class="cls-3" d="M88.64,52.77a6.64,6.64,0,0,1-.56,2.84,4.24,4.24,0,0,1-1.59,1.87,4.49,4.49,0,0,1-2.4.65,4.45,4.45,0,0,1-2.38-.65,4.33,4.33,0,0,1-1.62-1.86,6.6,6.6,0,0,1-.58-2.78v-.62a6.7,6.7,0,0,1,.57-2.84,4.26,4.26,0,0,1,1.61-1.88,4.37,4.37,0,0,1,2.39-.65,4.42,4.42,0,0,1,2.38.64,4.2,4.2,0,0,1,1.61,1.86,6.5,6.5,0,0,1,.57,2.81Zm-1.91-.57A4.8,4.8,0,0,0,86,49.4a2.45,2.45,0,0,0-3.9,0,4.68,4.68,0,0,0-.71,2.74v.63a4.77,4.77,0,0,0,.7,2.8,2.46,2.46,0,0,0,3.92,0,5,5,0,0,0,.68-2.83Z"/><path class="cls-3" d="M92.07,49.82l.06.94a2.93,2.93,0,0,1,2.38-1.09c1.7,0,2.57,1,2.6,2.92V58H95.27V52.69a1.65,1.65,0,0,0-.34-1.15,1.4,1.4,0,0,0-1.09-.37,1.76,1.76,0,0,0-1.66,1V58H90.34V49.82Z"/></g><rect class="cls-5" x="306.46" y="30.92" width="39.74" height="18.97" rx="9.45" transform="translate(652.66 80.82) rotate(180)"/><ellipse class="cls-3" cx="341.48" cy="40.34" rx="10.72" ry="10.7"/><path class="cls-6" d="M341.48,51.61a11.27,11.27,0,1,1,11.29-11.27A11.3,11.3,0,0,1,341.48,51.61Zm0-21.4a10.13,10.13,0,1,0,10.15,10.13A10.15,10.15,0,0,0,341.48,30.21Z"/><path class="cls-3" d="M52.52,30.28a1.42,1.42,0,0,0-1.19-.64H30.74a1.41,1.41,0,0,0-1,.39,8.39,8.39,0,0,0-4.1,4.4A19.6,19.6,0,0,0,24,42.58a19.56,19.56,0,0,0,1.66,8.15,8.45,8.45,0,0,0,4.1,4.41,1.41,1.41,0,0,0,1,.39H51.33a1.44,1.44,0,0,0,1.19-.64c3.11-1.69,5.23-6.59,5.23-12.31S55.63,32,52.52,30.28ZM51.33,53.87v.23H30.74V54c-3-.83-5.3-5.61-5.3-11.39s2.3-10.55,5.3-11.39v-.12H51.33v.23c2.85,1.06,5,5.71,5,11.28S54.18,52.8,51.33,53.87Z"/><rect class="cls-3" x="33.77" y="35.95" width="2.21" height="7.34" rx="0.71"/><rect class="cls-3" x="45.62" y="35.95" width="2.21" height="7.34" rx="0.71"/><path class="cls-3" d="M40.72,45.14c-1.91,0-3.36.91-3.36,2.11v3a.71.71,0,0,0,.71.71h5.31a.71.71,0,0,0,.71-.71v-3C44.09,46.05,42.64,45.14,40.72,45.14Zm1.94,2.4v2H38.79v-2a.76.76,0,0,0,0-.3c0-.17.69-.69,1.93-.69s1.94.52,1.94.69h0A.66.66,0,0,0,42.66,47.54Z"/></g></svg>