<svg id="Warstwa_1" data-name="Warstwa 1" xmlns="http://www.w3.org/2000/svg" xmlns:xlink="http://www.w3.org/1999/xlink" viewBox="0 0 373 82"><defs><style>.cls-1{fill:url(#Gradient_bez_nazwy_8);}.cls-2{fill:#ebeced;}.cls-3{fill:#1f1f1f;}.cls-4{fill:#069364;}.cls-5{fill:#d0d2d4;}.cls-6{fill:#fff;}.cls-7{fill:#ccc;}.cls-8{fill:#676767;}</style><linearGradient id="Gradient_bez_nazwy_8" x1="0.57" y1="41" x2="372.43" y2="41" gradientUnits="userSpaceOnUse"><stop offset="0" stop-color="#eff2f1"/><stop offset="1" stop-color="#eff1f3"/></linearGradient></defs><title>btn_light</title><g id="LED_On" data-name="LED On"><path class="cls-1" d="M10.54,81.43a10,10,0,0,1-10-10v-61a10,10,0,0,1,10-9.95H362.46a10,10,0,0,1,10,10v61a10,10,0,0,1-10,10Z"/><path class="cls-2" d="M362.46,1.14a9.4,9.4,0,0,1,9.39,9.38v61a9.4,9.4,0,0,1-9.39,9.38H10.54a9.4,9.4,0,0,1-9.39-9.38v-61a9.4,9.4,0,0,1,9.39-9.38H362.46m0-1.14H10.54A10.53,10.53,0,0,0,0,10.52v61A10.53,10.53,0,0,0,10.54,82H362.46A10.53,10.53,0,0,0,373,71.48v-61A10.53,10.53,0,0,0,362.46,0Z"/><path class="cls-3" d="M88,32.06h-5.3v5.58H80.37V24.48h8.36v1.84H82.65v3.92H88Z"/><path class="cls-3" d="M93,37.64H90.67V24.48H93Z"/><path class="cls-3" d="M95.76,37.64V24.48h4.51a5.56,5.56,0,0,1,3.4.89A3.16,3.16,0,0,1,104.84,28a2.82,2.82,0,0,1-.49,1.63,3.2,3.2,0,0,1-1.43,1.12,2.92,2.92,0,0,1,1.65,1.09,3.15,3.15,0,0,1,.58,1.92A3.5,3.5,0,0,1,104,36.65a5.21,5.21,0,0,1-3.41,1ZM98.05,30h2.24a2.61,2.61,0,0,0,1.67-.48,1.66,1.66,0,0,0,.6-1.37,1.68,1.68,0,0,0-.56-1.41,2.78,2.78,0,0,0-1.73-.44H98.05Zm0,1.68v4.12h2.54a2.42,2.42,0,0,0,1.68-.54,2.1,2.1,0,0,0-1.49-3.58Z"/><path class="cls-3" d="M114.81,34.58h-5.1l-1.07,3.06h-2.37l5-13.16h2.05l5,13.16h-2.38Zm-4.46-1.85h3.82l-1.91-5.46Z"/><path class="cls-3" d="M124.6,32.58h-2.55v5.06h-2.29V24.48h4.63a5.41,5.41,0,0,1,3.52,1,3.64,3.64,0,0,1,1.24,3,3.73,3.73,0,0,1-.64,2.21A4.05,4.05,0,0,1,126.73,32l3,5.49v.11h-2.45Zm-2.55-1.84h2.35a2.63,2.63,0,0,0,1.81-.59,2,2,0,0,0,.65-1.59,2.18,2.18,0,0,0-.6-1.64,2.58,2.58,0,0,0-1.8-.6h-2.41Z"/><path class="cls-3" d="M141.82,31.4a8,8,0,0,1-.67,3.4A5,5,0,0,1,139.24,37a5.62,5.62,0,0,1-5.71,0,5.11,5.11,0,0,1-1.94-2.23,7.92,7.92,0,0,1-.69-3.33v-.74a8.06,8.06,0,0,1,.68-3.4,5.12,5.12,0,0,1,1.93-2.26,5.25,5.25,0,0,1,2.85-.78,5.34,5.34,0,0,1,2.85.77,5.07,5.07,0,0,1,1.92,2.23,7.74,7.74,0,0,1,.69,3.37Zm-2.29-.68a5.79,5.79,0,0,0-.82-3.36,2.73,2.73,0,0,0-2.35-1.16A2.69,2.69,0,0,0,134,27.36a5.59,5.59,0,0,0-.85,3.28v.76a5.75,5.75,0,0,0,.84,3.36,2.73,2.73,0,0,0,2.35,1.18,2.7,2.7,0,0,0,2.34-1.15,5.91,5.91,0,0,0,.81-3.39Z"/><path class="cls-3" d="M150.83,37.64h-2.19V23.76h2.19Z"/><path class="cls-3" d="M153.23,25.32a1.17,1.17,0,0,1,.32-.84,1.22,1.22,0,0,1,.92-.33,1.23,1.23,0,0,1,.92.33,1.22,1.22,0,0,1,0,1.67,1.23,1.23,0,0,1-.92.33,1.22,1.22,0,0,1-.92-.33A1.16,1.16,0,0,1,153.23,25.32Zm2.33,12.32h-2.19V27.86h2.19Z"/><path class="cls-3" d="M157.57,32.68A5.75,5.75,0,0,1,158.64,29a3.42,3.42,0,0,1,2.84-1.36,3.2,3.2,0,0,1,2.63,1.17l.1-1h2v9.48a4,4,0,0,1-1.19,3,4.58,4.58,0,0,1-3.24,1.11,5.38,5.38,0,0,1-2.1-.44,3.82,3.82,0,0,1-1.56-1.17l1-1.32a3.16,3.16,0,0,0,2.5,1.2,2.43,2.43,0,0,0,1.72-.59,2.26,2.26,0,0,0,.64-1.74v-.66a3.26,3.26,0,0,1-2.53,1,3.43,3.43,0,0,1-2.81-1.36A5.89,5.89,0,0,1,157.57,32.68Zm2.19.19a4,4,0,0,0,.6,2.32A1.94,1.94,0,0,0,162,36a2.12,2.12,0,0,0,2-1.14v-4.3a2.1,2.1,0,0,0-2-1.11,1.94,1.94,0,0,0-1.68.86A4.4,4.4,0,0,0,159.76,32.87Z"/><path class="cls-3" d="M170.61,28.93a3.46,3.46,0,0,1,2.73-1.25q3.12,0,3.17,3.57v6.39h-2.2V31.33a1.9,1.9,0,0,0-.44-1.43,1.78,1.78,0,0,0-1.28-.42,2.14,2.14,0,0,0-2,1.17v7h-2.19V23.76h2.19Z"/><path class="cls-3" d="M181.48,25.48v2.38h1.73v1.63h-1.73V35a1.21,1.21,0,0,0,.22.81,1.05,1.05,0,0,0,.79.25,3.37,3.37,0,0,0,.77-.09v1.7a5.73,5.73,0,0,1-1.44.2c-1.69,0-2.54-.93-2.54-2.79V29.49h-1.61V27.86h1.61V25.48Z"/><path class="cls-3" d="M195,35a1,1,0,0,0-.49-.89,4.78,4.78,0,0,0-1.6-.54A8.4,8.4,0,0,1,191,33a2.5,2.5,0,0,1-1.65-2.31,2.61,2.61,0,0,1,1.07-2.11,4.18,4.18,0,0,1,2.71-.85,4.4,4.4,0,0,1,2.84.87,2.76,2.76,0,0,1,1.08,2.25h-2.2a1.36,1.36,0,0,0-.47-1.05,1.8,1.8,0,0,0-1.25-.42,2,2,0,0,0-1.18.33,1.05,1.05,0,0,0-.45.89.9.9,0,0,0,.42.79,5.72,5.72,0,0,0,1.72.57,8.27,8.27,0,0,1,2,.67,2.94,2.94,0,0,1,1.09,1,2.39,2.39,0,0,1,.36,1.34A2.53,2.53,0,0,1,196,37a4.6,4.6,0,0,1-2.86.82,5,5,0,0,1-2.14-.43,3.57,3.57,0,0,1-1.47-1.19,2.85,2.85,0,0,1-.52-1.64h2.13a1.56,1.56,0,0,0,.59,1.2,2.28,2.28,0,0,0,1.44.42,2.26,2.26,0,0,0,1.32-.33A1,1,0,0,0,195,35Z"/><path class="cls-3" d="M207.64,34.61l1.56-6.75h2.14l-2.67,9.78h-1.8l-2.1-6.71-2.06,6.71H200.9l-2.68-9.78h2.15L202,34.54l2-6.68h1.66Z"/><path class="cls-3" d="M212.81,25.32a1.14,1.14,0,0,1,.33-.84,1.19,1.19,0,0,1,.91-.33,1.22,1.22,0,0,1,.92.33,1.22,1.22,0,0,1,0,1.67,1.22,1.22,0,0,1-.92.33,1.19,1.19,0,0,1-.91-.33A1.13,1.13,0,0,1,212.81,25.32Zm2.34,12.32H213V27.86h2.2Z"/><path class="cls-3" d="M220.29,25.48v2.38H222v1.63h-1.73V35a1.21,1.21,0,0,0,.22.81,1.05,1.05,0,0,0,.79.25,3.37,3.37,0,0,0,.77-.09v1.7a5.73,5.73,0,0,1-1.44.2c-1.69,0-2.54-.93-2.54-2.79V29.49h-1.61V27.86h1.61V25.48Z"/><path class="cls-3" d="M227.71,36.07a2,2,0,0,0,1.37-.48,1.66,1.66,0,0,0,.58-1.18h2.07a3.35,3.35,0,0,1-.57,1.7,3.76,3.76,0,0,1-1.45,1.25,4.26,4.26,0,0,1-2,.46,4.14,4.14,0,0,1-3.25-1.33,5.22,5.22,0,0,1-1.21-3.67V32.6a5.18,5.18,0,0,1,1.2-3.58,4.14,4.14,0,0,1,3.25-1.34,4,4,0,0,1,2.84,1,3.64,3.64,0,0,1,1.16,2.67h-2.07a2,2,0,0,0-.58-1.38,1.82,1.82,0,0,0-1.37-.55,1.91,1.91,0,0,0-1.64.78,3.91,3.91,0,0,0-.59,2.34v.35a4,4,0,0,0,.57,2.38A2,2,0,0,0,227.71,36.07Z"/><path class="cls-3" d="M235.55,28.93a3.44,3.44,0,0,1,2.72-1.25c2.09,0,3.14,1.19,3.17,3.57v6.39h-2.19V31.33a1.94,1.94,0,0,0-.44-1.43,1.79,1.79,0,0,0-1.29-.42,2.11,2.11,0,0,0-2,1.17v7h-2.2V23.76h2.2Z"/><path class="cls-4" d="M46.2,34a22.39,22.39,0,0,1-1.36-2,1.83,1.83,0,0,0-.24-.31V27.23a.71.71,0,0,0-.72-.71H35.16a.71.71,0,0,0-.71.71v4.3a1.35,1.35,0,0,0-.36.39c-.4.66-.89,1.32-1.4,2-1.45,2-3,4-3,6.6a9.72,9.72,0,0,0,19.44,0C49.17,38,47.59,35.87,46.2,34ZM35.88,28h7.29v3H35.88Zm3.57,20.72a8.21,8.21,0,0,1-8.29-8.14c0-2.89,2.57-5.29,4.15-7.87h8.28c1.29,2.29,4.15,5,4.15,7.87A8.21,8.21,0,0,1,39.45,48.67Z"/><path class="cls-4" d="M27.44,40.81a.71.71,0,0,0-.71-.71h-4a.72.72,0,1,0,0,1.43h4A.71.71,0,0,0,27.44,40.81Z"/><path class="cls-4" d="M56.18,40.1h-4a.72.72,0,0,0,0,1.43h4a.72.72,0,0,0,0-1.43Z"/><path class="cls-4" d="M49,49.3a.71.71,0,0,0-1,1l2.83,2.83a.71.71,0,1,0,1-1Z"/><path class="cls-4" d="M30,49.3l-2.83,2.83a.72.72,0,0,0,.51,1.22.7.7,0,0,0,.5-.21L31,50.31a.71.71,0,0,0-1-1Z"/><path class="cls-4" d="M39.45,52.82a.71.71,0,0,0-.71.71v4a.72.72,0,0,0,1.43,0v-4A.71.71,0,0,0,39.45,52.82Z"/><rect class="cls-5" x="313.04" y="31.09" width="39.74" height="19.01" rx="9.45"/><circle class="cls-6" cx="317.75" cy="40.53" r="10.72"/><path class="cls-7" d="M306.46,40.53a11.3,11.3,0,1,1,11.29,11.29A11.31,11.31,0,0,1,306.46,40.53Zm1.15,0a10.15,10.15,0,1,0,10.14-10.15A10.15,10.15,0,0,0,307.61,40.53Z"/><path class="cls-8" d="M88.86,52.85a6.68,6.68,0,0,1-.55,2.81,4.23,4.23,0,0,1-1.58,1.85,4.63,4.63,0,0,1-4.73,0,4.18,4.18,0,0,1-1.6-1.84,6.36,6.36,0,0,1-.57-2.76v-.62a6.59,6.59,0,0,1,.56-2.81A4.29,4.29,0,0,1,82,47.62,4.38,4.38,0,0,1,84.34,47a4.33,4.33,0,0,1,2.36.64,4.11,4.11,0,0,1,1.59,1.84,6.44,6.44,0,0,1,.57,2.79ZM87,52.28a4.7,4.7,0,0,0-.69-2.77,2.22,2.22,0,0,0-1.94-1,2.26,2.26,0,0,0-1.92,1,4.69,4.69,0,0,0-.7,2.72v.63a4.67,4.67,0,0,0,.7,2.77,2.42,2.42,0,0,0,3.87,0,4.84,4.84,0,0,0,.68-2.8Z"/><path class="cls-8" d="M91.21,58V51.26H90V49.92h1.23v-.74A2.78,2.78,0,0,1,92,47.1a2.87,2.87,0,0,1,2.09-.74,4.23,4.23,0,0,1,1,.14l0,1.42a3.47,3.47,0,0,0-.69-.06A1.17,1.17,0,0,0,93,49.2v.72h1.64v1.34H93V58Z"/><path class="cls-8" d="M96.64,58V51.26H95.41V49.92h1.23v-.74a2.78,2.78,0,0,1,.75-2.08,2.87,2.87,0,0,1,2.09-.74,4.23,4.23,0,0,1,1,.14l0,1.42a3.65,3.65,0,0,0-.7-.06,1.17,1.17,0,0,0-1.3,1.34v.72h1.64v1.34H98.46V58Z"/></g></svg>