<svg id="Warstwa_1" data-name="Warstwa 1" xmlns="http://www.w3.org/2000/svg" xmlns:xlink="http://www.w3.org/1999/xlink" viewBox="0 0 373 82"><defs><style>.cls-1{fill:url(#Gradient_bez_nazwy_10);}.cls-2{fill:#2aafd8;}.cls-3{fill:#fff;}.cls-4{opacity:0.7;}.cls-5{fill:#63a8de;}.cls-6{fill:#5898c4;}</style><linearGradient id="Gradient_bez_nazwy_10" x1="0.57" y1="41" x2="372.43" y2="41" gradientUnits="userSpaceOnUse"><stop offset="0" stop-color="#3396e5"/><stop offset="0.24" stop-color="#3d9ce8"/><stop offset="0.65" stop-color="#58adf0"/><stop offset="1" stop-color="#75bff9"/></linearGradient></defs><title>btn_light_on</title><g id="LED_On" data-name="LED On"><path class="cls-1" d="M10.54,81.43a10,10,0,0,1-10-10v-61a10,10,0,0,1,10-9.95H362.46a10,10,0,0,1,10,10v61a10,10,0,0,1-10,10Z"/><path class="cls-2" d="M362.46,1.14a9.4,9.4,0,0,1,9.39,9.38v61a9.4,9.4,0,0,1-9.39,9.38H10.54a9.4,9.4,0,0,1-9.39-9.38v-61a9.4,9.4,0,0,1,9.39-9.38H362.46m0-1.14H10.54A10.53,10.53,0,0,0,0,10.52v61A10.53,10.53,0,0,0,10.54,82H362.46A10.53,10.53,0,0,0,373,71.48v-61A10.53,10.53,0,0,0,362.46,0Z"/><path class="cls-3" d="M88,32h-5.3v5.57H80.37V24.43h8.36v1.84H82.65v3.91H88Z"/><path class="cls-3" d="M93,37.57H90.67V24.43H93Z"/><path class="cls-3" d="M95.76,37.57V24.43h4.51a5.49,5.49,0,0,1,3.4.9A3.13,3.13,0,0,1,104.84,28a2.79,2.79,0,0,1-.49,1.62,3.13,3.13,0,0,1-1.43,1.12,2.92,2.92,0,0,1,1.65,1.09,3.15,3.15,0,0,1,.58,1.92A3.49,3.49,0,0,1,104,36.58a5.21,5.21,0,0,1-3.41,1ZM98.05,30h2.24a2.61,2.61,0,0,0,1.67-.48,1.94,1.94,0,0,0,0-2.77,2.78,2.78,0,0,0-1.73-.44H98.05Zm0,1.68v4.11h2.54a2.47,2.47,0,0,0,1.68-.53,2.1,2.1,0,0,0-1.49-3.58Z"/><path class="cls-3" d="M114.81,34.51h-5.1l-1.07,3.06h-2.37l5-13.14h2.05l5,13.14h-2.38Zm-4.46-1.84h3.82l-1.91-5.45Z"/><path class="cls-3" d="M124.6,32.52h-2.55v5h-2.29V24.43h4.63a5.41,5.41,0,0,1,3.52,1,3.64,3.64,0,0,1,1.24,3,3.69,3.69,0,0,1-.64,2.2A4.05,4.05,0,0,1,126.73,32l3,5.47v.12h-2.45Zm-2.55-1.84h2.35a2.63,2.63,0,0,0,1.81-.59,2,2,0,0,0,.65-1.59,2.15,2.15,0,0,0-.6-1.63,2.58,2.58,0,0,0-1.8-.6h-2.41Z"/><path class="cls-3" d="M141.82,31.34a8,8,0,0,1-.67,3.39A5,5,0,0,1,139.24,37a5.62,5.62,0,0,1-5.71,0,5.14,5.14,0,0,1-1.94-2.22,8,8,0,0,1-.69-3.33v-.74a8.09,8.09,0,0,1,.68-3.4A5.15,5.15,0,0,1,133.51,25a5.25,5.25,0,0,1,2.85-.78,5.34,5.34,0,0,1,2.85.77,5.1,5.1,0,0,1,1.92,2.22,7.77,7.77,0,0,1,.69,3.37Zm-2.29-.68a5.76,5.76,0,0,0-.82-3.35,2.73,2.73,0,0,0-2.35-1.16A2.69,2.69,0,0,0,134,27.31a5.57,5.57,0,0,0-.85,3.28v.75a5.72,5.72,0,0,0,.84,3.35,2.73,2.73,0,0,0,2.35,1.18,2.7,2.7,0,0,0,2.34-1.15,5.88,5.88,0,0,0,.81-3.38Z"/><path class="cls-3" d="M150.83,37.57h-2.19V23.71h2.19Z"/><path class="cls-3" d="M153.23,25.27a1.2,1.2,0,0,1,.32-.84,1.22,1.22,0,0,1,.92-.33,1.23,1.23,0,0,1,.92.33,1.17,1.17,0,0,1,.33.84,1.13,1.13,0,0,1-.33.83,1.23,1.23,0,0,1-.92.33,1.22,1.22,0,0,1-.92-.33A1.16,1.16,0,0,1,153.23,25.27Zm2.33,12.3h-2.19V27.81h2.19Z"/><path class="cls-3" d="M157.57,32.62A5.75,5.75,0,0,1,158.64,29a3.44,3.44,0,0,1,2.84-1.35,3.19,3.19,0,0,1,2.63,1.16l.1-1h2v9.46a4,4,0,0,1-1.19,3,4.58,4.58,0,0,1-3.24,1.11,5.21,5.21,0,0,1-2.1-.44,3.82,3.82,0,0,1-1.56-1.17l1-1.32a3.16,3.16,0,0,0,2.5,1.2,2.43,2.43,0,0,0,1.72-.59,2.23,2.23,0,0,0,.64-1.74V36.7a3.26,3.26,0,0,1-2.53,1,3.43,3.43,0,0,1-2.81-1.36A5.87,5.87,0,0,1,157.57,32.62Zm2.19.19a3.91,3.91,0,0,0,.6,2.31A1.94,1.94,0,0,0,162,36a2.11,2.11,0,0,0,2-1.13v-4.3a2.1,2.1,0,0,0-2-1.11,1.94,1.94,0,0,0-1.68.86A4.4,4.4,0,0,0,159.76,32.81Z"/><path class="cls-3" d="M170.61,28.87a3.45,3.45,0,0,1,2.73-1.24c2.08,0,3.14,1.18,3.17,3.56v6.38h-2.2v-6.3a1.9,1.9,0,0,0-.44-1.43,1.78,1.78,0,0,0-1.28-.42,2.13,2.13,0,0,0-2,1.18v7h-2.19V23.71h2.19Z"/><path class="cls-3" d="M181.48,25.43v2.38h1.73v1.62h-1.73v5.45a1.21,1.21,0,0,0,.22.81,1.05,1.05,0,0,0,.79.25,3.37,3.37,0,0,0,.77-.09v1.69a5.34,5.34,0,0,1-1.44.21c-1.69,0-2.54-.93-2.54-2.79V29.43h-1.61V27.81h1.61V25.43Z"/><path class="cls-3" d="M195,34.92a1,1,0,0,0-.49-.9,5.29,5.29,0,0,0-1.6-.54,7.94,7.94,0,0,1-1.87-.59,2.5,2.5,0,0,1-1.65-2.3,2.58,2.58,0,0,1,1.07-2.11,4.18,4.18,0,0,1,2.71-.85,4.45,4.45,0,0,1,2.84.86,2.76,2.76,0,0,1,1.08,2.25h-2.2a1.36,1.36,0,0,0-.47-1,1.8,1.8,0,0,0-1.25-.42,2,2,0,0,0-1.18.33,1.07,1.07,0,0,0-.45.9.89.89,0,0,0,.42.78,5.72,5.72,0,0,0,1.72.57,7.87,7.87,0,0,1,2,.67,2.92,2.92,0,0,1,1.09.94,2.42,2.42,0,0,1,.36,1.34,2.53,2.53,0,0,1-1.1,2.13,4.6,4.6,0,0,1-2.86.82,5,5,0,0,1-2.14-.43,3.57,3.57,0,0,1-1.47-1.19,2.82,2.82,0,0,1-.52-1.64h2.13a1.56,1.56,0,0,0,.59,1.2,2.28,2.28,0,0,0,1.44.42,2.26,2.26,0,0,0,1.32-.33A1,1,0,0,0,195,34.92Z"/><path class="cls-3" d="M207.64,34.55l1.56-6.74h2.14l-2.67,9.76h-1.8l-2.1-6.7-2.06,6.7H200.9l-2.68-9.76h2.15L202,34.48l2-6.67h1.66Z"/><path class="cls-3" d="M212.81,25.27a1.17,1.17,0,0,1,.33-.84,1.19,1.19,0,0,1,.91-.33,1.22,1.22,0,0,1,.92.33,1.17,1.17,0,0,1,.33.84,1.13,1.13,0,0,1-.33.83,1.22,1.22,0,0,1-.92.33,1.19,1.19,0,0,1-.91-.33A1.13,1.13,0,0,1,212.81,25.27Zm2.34,12.3H213V27.81h2.2Z"/><path class="cls-3" d="M220.29,25.43v2.38H222v1.62h-1.73v5.45a1.21,1.21,0,0,0,.22.81,1.05,1.05,0,0,0,.79.25,3.37,3.37,0,0,0,.77-.09v1.69a5.34,5.34,0,0,1-1.44.21c-1.69,0-2.54-.93-2.54-2.79V29.43h-1.61V27.81h1.61V25.43Z"/><path class="cls-3" d="M227.71,36a2,2,0,0,0,1.37-.48,1.66,1.66,0,0,0,.58-1.18h2.07a3.32,3.32,0,0,1-.57,1.7,3.76,3.76,0,0,1-1.45,1.25,4.26,4.26,0,0,1-2,.46,4.14,4.14,0,0,1-3.25-1.33,5.2,5.2,0,0,1-1.21-3.66v-.22a5.14,5.14,0,0,1,1.2-3.57,4.1,4.1,0,0,1,3.25-1.34,4,4,0,0,1,2.84,1,3.64,3.64,0,0,1,1.16,2.67h-2.07a2,2,0,0,0-.58-1.38,1.85,1.85,0,0,0-1.37-.54,1.9,1.9,0,0,0-1.64.77,3.91,3.91,0,0,0-.59,2.34v.35a4,4,0,0,0,.57,2.37A2,2,0,0,0,227.71,36Z"/><path class="cls-3" d="M235.55,28.87a3.43,3.43,0,0,1,2.72-1.24c2.09,0,3.14,1.18,3.17,3.56v6.38h-2.19v-6.3a1.94,1.94,0,0,0-.44-1.43,1.79,1.79,0,0,0-1.29-.42,2.1,2.1,0,0,0-2,1.18v7h-2.2V23.71h2.2Z"/><g class="cls-4"><path class="cls-3" d="M88.64,52.89a6.62,6.62,0,0,1-.56,2.83,4.24,4.24,0,0,1-1.59,1.87,4.49,4.49,0,0,1-2.4.65,4.45,4.45,0,0,1-2.38-.65,4.33,4.33,0,0,1-1.62-1.86A6.6,6.6,0,0,1,79.51,53v-.62a6.7,6.7,0,0,1,.57-2.84,4.26,4.26,0,0,1,1.61-1.88A4.37,4.37,0,0,1,84.08,47a4.42,4.42,0,0,1,2.38.64,4.2,4.2,0,0,1,1.61,1.86,6.5,6.5,0,0,1,.57,2.81Zm-1.91-.58a4.8,4.8,0,0,0-.69-2.8,2.45,2.45,0,0,0-3.9,0,4.68,4.68,0,0,0-.71,2.74v.64a4.76,4.76,0,0,0,.7,2.79,2.46,2.46,0,0,0,3.92,0,4.93,4.93,0,0,0,.68-2.82Z"/><path class="cls-3" d="M92.07,49.93l.06.94a2.93,2.93,0,0,1,2.38-1.09c1.7,0,2.57,1,2.6,2.92v5.39H95.27V52.8a1.65,1.65,0,0,0-.34-1.15,1.4,1.4,0,0,0-1.09-.37,1.76,1.76,0,0,0-1.66,1v5.81H90.34V49.93Z"/></g><path class="cls-3" d="M46.2,33.9a21,21,0,0,1-1.36-2,1.5,1.5,0,0,0-.24-.31V27.18a.71.71,0,0,0-.72-.71H35.16a.71.71,0,0,0-.71.71v4.28a1.54,1.54,0,0,0-.36.4c-.4.66-.89,1.31-1.4,2-1.45,2-3,4-3,6.58a9.72,9.72,0,0,0,19.44,0C49.17,38,47.59,35.8,46.2,33.9Zm-10.32-6h7.29v3H35.88Zm3.57,20.69a8.21,8.21,0,0,1-8.29-8.13c0-2.88,2.57-5.28,4.15-7.85h8.28c1.29,2.28,4.15,5,4.15,7.85A8.21,8.21,0,0,1,39.45,48.58Z"/><path class="cls-3" d="M27.44,40.73a.71.71,0,0,0-.71-.71h-4a.72.72,0,1,0,0,1.43h4A.71.71,0,0,0,27.44,40.73Z"/><path class="cls-3" d="M56.18,40h-4a.72.72,0,0,0,0,1.43h4a.72.72,0,0,0,0-1.43Z"/><path class="cls-3" d="M49,49.21a.71.71,0,0,0-1,1L50.77,53a.71.71,0,0,0,1-1Z"/><path class="cls-3" d="M30,49.21,27.12,52a.72.72,0,0,0,.51,1.22.7.7,0,0,0,.5-.21L31,50.22a.71.71,0,0,0-1-1Z"/><path class="cls-3" d="M39.45,52.72a.71.71,0,0,0-.71.71v4a.72.72,0,0,0,1.43,0v-4A.71.71,0,0,0,39.45,52.72Z"/><rect class="cls-5" x="306.46" y="31.03" width="39.74" height="18.97" rx="9.45" transform="translate(652.66 81.04) rotate(180)"/><ellipse class="cls-3" cx="341.48" cy="40.45" rx="10.72" ry="10.7"/><path class="cls-6" d="M341.48,51.72a11.27,11.27,0,1,1,11.29-11.27A11.3,11.3,0,0,1,341.48,51.72Zm0-21.4a10.13,10.13,0,1,0,10.15,10.13A10.15,10.15,0,0,0,341.48,30.32Z"/></g></svg>