<svg id="Warstwa_1" data-name="Warstwa 1" xmlns="http://www.w3.org/2000/svg" viewBox="0 0 100 100"><defs><style>.cls-1{fill:#fff;}</style></defs><title>bulb-icon</title><path class="cls-1" d="M65,17.57a22.79,22.79,0,0,0-15-5.57,23.41,23.41,0,0,0-2.47.13A22.22,22.22,0,0,0,27.74,31.47a21,21,0,0,0,3.5,14.28,43.92,43.92,0,0,1,7.3,19.64l.1.78a3.89,3.89,0,0,0,1.11,2.32l.17.17-.19.16a3.09,3.09,0,0,0-1.1,2.38,3,3,0,0,0,.92,2.1l.16.16-.16.16a2.86,2.86,0,0,0,0,4.19l.16.16-.16.16a3.16,3.16,0,0,0,2.2,5.38H44.4l0,.1a5.61,5.61,0,0,0,10.94,0l0-.12H58a3.15,3.15,0,0,0,3.11-3.2,3.07,3.07,0,0,0-.92-2.14L60.08,78l.16-.17a2.87,2.87,0,0,0,0-4.2l-.16-.16.16-.16a3,3,0,0,0,.92-2.1,3.22,3.22,0,0,0-.92-2.2l-.17-.17.08-.16a3.24,3.24,0,0,0,1.2-2.5V65.8c1.6-7.35,3.18-14.07,7-19.47a21.41,21.41,0,0,0,4-12.43A21.72,21.72,0,0,0,65,17.57ZM53.66,83.76a3.8,3.8,0,0,1-3.75,2.8,3.87,3.87,0,0,1-3.75-2.78l-.09-.27h7.67ZM58,81.91H41.85a1.61,1.61,0,0,1,0-3.21H58a1.61,1.61,0,0,1,1.5,1.6A1.64,1.64,0,0,1,58,81.91ZM58,77.1H41.85a1.61,1.61,0,0,1,0-3.21H58a1.61,1.61,0,0,1,0,3.21Zm-17.7-6.42a1.62,1.62,0,0,1,1.5-1.61H58a1.61,1.61,0,0,1,0,3.21H41.85A1.61,1.61,0,0,1,40.35,70.68ZM67.07,45.41c-4,5.72-5.72,12.71-7.32,20.21V66c0,1.22-.92,1.47-2.19,1.47H42.64c-1.23,0-2.15-.29-2.15-1.45v-.71c-1.6-7-3.33-13.83-7.64-20.29a20.38,20.38,0,0,1-3.34-13.31,20.41,20.41,0,0,1,18.24-18,18.78,18.78,0,0,1,2.36-.1A20.69,20.69,0,0,1,63.9,18.8,20.16,20.16,0,0,1,70.7,33.9,19.14,19.14,0,0,1,67.07,45.41ZM44.8,19.33c-.29,0-.69-.05-.77-.36-.15-.45.05-.65.53-.81a6.6,6.6,0,0,1,1.93-.44h.15a.78.78,0,0,1,.77.61c.07.45-.22.74-.7.82a9.86,9.86,0,0,1-1.67.19Zm-3.1.13a1,1,0,0,1,.74.33.77.77,0,0,1-.31,1.06,13.68,13.68,0,0,0-5.58,6.28.86.86,0,0,1-.78.46c-.17,0-.22,0-.23,0l-.09-.06a.71.71,0,0,1-.44-.38.76.76,0,0,1,0-.59,14.6,14.6,0,0,1,6.28-7h0A.82.82,0,0,1,41.7,19.45Z"/></svg>