<svg width="62" height="85" viewBox="0 0 62 85" xmlns="http://www.w3.org/2000/svg"><title>CES_logo</title><defs><linearGradient x1="90.394%" y1="106.689%" x2="5.586%" y2="-8.709%" id="a"><stop stop-color="#BCBEC0" offset="0%"/><stop stop-color="#CDCFD1" offset="5.207%"/><stop stop-color="#DDDEE0" offset="11.92%"/><stop stop-color="#E9E9EA" offset="19.74%"/><stop stop-color="#EFF0F0" offset="29.59%"/><stop stop-color="#F1F2F2" offset="48.06%"/><stop stop-color="#DEDFE1" offset="62.99%"/><stop stop-color="#C5C7C9" offset="86.64%"/><stop stop-color="#BCBEC0" offset="100%"/></linearGradient><linearGradient x1="121.324%" y1="94.364%" x2="36.497%" y2="39.735%" id="b"><stop stop-color="#BCBEC0" offset="0%"/><stop stop-color="#CDCFD1" offset="5.207%"/><stop stop-color="#DDDEE0" offset="11.92%"/><stop stop-color="#E9E9EA" offset="19.74%"/><stop stop-color="#EFF0F0" offset="29.59%"/><stop stop-color="#F1F2F2" offset="48.06%"/><stop stop-color="#DEDFE1" offset="62.99%"/><stop stop-color="#C5C7C9" offset="86.64%"/><stop stop-color="#BCBEC0" offset="100%"/></linearGradient><linearGradient x1="121.779%" y1="85.975%" x2="22.006%" y2="33.434%" id="c"><stop stop-color="#44C8F5" offset="0%"/><stop stop-color="#36B0DE" offset="5.561%"/><stop stop-color="#0F8DBB" offset="18.85%"/><stop stop-color="#00729F" offset="32.77%"/><stop stop-color="#005F8B" offset="47.26%"/><stop stop-color="#00527D" offset="62.59%"/><stop stop-color="#004B75" offset="79.3%"/><stop stop-color="#004973" offset="100%"/></linearGradient><linearGradient x1="115.165%" y1="74.437%" x2="23.13%" y2="-16.583%" id="d"><stop stop-color="#44C8F5" offset="0%"/><stop stop-color="#36B0DE" offset="5.561%"/><stop stop-color="#0F8DBB" offset="18.85%"/><stop stop-color="#00729F" offset="32.77%"/><stop stop-color="#005F8B" offset="47.26%"/><stop stop-color="#00527D" offset="62.59%"/><stop stop-color="#004B75" offset="79.3%"/><stop stop-color="#004973" offset="100%"/></linearGradient><linearGradient x1="122.821%" y1="237.766%" x2="-44.309%" y2="-101.121%" id="e"><stop stop-color="#FFF" offset="0%"/><stop stop-color="#DCDCDC" offset="22.07%"/><stop stop-color="#838384" offset="70.69%"/><stop stop-color="#4A4B4C" offset="100%"/></linearGradient><linearGradient x1="-69.668%" y1="42.528%" x2="3690.939%" y2="274.843%" id="f"><stop stop-color="#BCBEC0" offset="0%"/><stop stop-color="#CCCDCF" offset="16.65%"/><stop stop-color="#F1F2F2" offset="48.06%"/><stop stop-color="#D1D2D4" offset="80.83%"/><stop stop-color="#BCBEC0" offset="100%"/></linearGradient><linearGradient x1="-69.506%" y1="23.537%" x2="981.98%" y2="256.539%" id="g"><stop stop-color="#BCBEC0" offset="0%"/><stop stop-color="#CCCDCF" offset="16.65%"/><stop stop-color="#F1F2F2" offset="48.06%"/><stop stop-color="#D1D2D4" offset="80.83%"/><stop stop-color="#BCBEC0" offset="100%"/></linearGradient><linearGradient x1="-189.841%" y1="-3.099%" x2="861.644%" y2="229.903%" id="h"><stop stop-color="#BCBEC0" offset="0%"/><stop stop-color="#CCCDCF" offset="16.65%"/><stop stop-color="#F1F2F2" offset="48.06%"/><stop stop-color="#D1D2D4" offset="80.83%"/><stop stop-color="#BCBEC0" offset="100%"/></linearGradient><linearGradient x1="-262.18%" y1="-27.513%" x2="643.349%" y2="197.501%" id="i"><stop stop-color="#BCBEC0" offset="0%"/><stop stop-color="#CCCDCF" offset="16.65%"/><stop stop-color="#F1F2F2" offset="48.06%"/><stop stop-color="#D1D2D4" offset="80.83%"/><stop stop-color="#BCBEC0" offset="100%"/></linearGradient><linearGradient x1="-358.19%" y1="-60.192%" x2="542.237%" y2="172.811%" id="j"><stop stop-color="#BCBEC0" offset="0%"/><stop stop-color="#CCCDCF" offset="16.65%"/><stop stop-color="#F1F2F2" offset="48.06%"/><stop stop-color="#D1D2D4" offset="80.83%"/><stop stop-color="#BCBEC0" offset="100%"/></linearGradient><linearGradient x1="-435.648%" y1="-74.207%" x2="437.717%" y2="158.108%" id="k"><stop stop-color="#BCBEC0" offset="0%"/><stop stop-color="#CCCDCF" offset="16.65%"/><stop stop-color="#F1F2F2" offset="48.06%"/><stop stop-color="#D1D2D4" offset="80.83%"/><stop stop-color="#BCBEC0" offset="100%"/></linearGradient><linearGradient x1="-667.979%" y1="-104.375%" x2="441.923%" y2="128.627%" id="l"><stop stop-color="#BCBEC0" offset="0%"/><stop stop-color="#CCCDCF" offset="16.65%"/><stop stop-color="#F1F2F2" offset="48.06%"/><stop stop-color="#D1D2D4" offset="80.83%"/><stop stop-color="#BCBEC0" offset="100%"/></linearGradient><linearGradient x1="-2656.162%" y1="-117.286%" x2="1104.445%" y2="115.029%" id="m"><stop stop-color="#BCBEC0" offset="0%"/><stop stop-color="#CCCDCF" offset="16.65%"/><stop stop-color="#F1F2F2" offset="48.06%"/><stop stop-color="#D1D2D4" offset="80.83%"/><stop stop-color="#BCBEC0" offset="100%"/></linearGradient><linearGradient x1="-678.011%" y1="-130.858%" x2="227.518%" y2="94.155%" id="n"><stop stop-color="#BCBEC0" offset="0%"/><stop stop-color="#CCCDCF" offset="16.65%"/><stop stop-color="#F1F2F2" offset="48.06%"/><stop stop-color="#D1D2D4" offset="80.83%"/><stop stop-color="#BCBEC0" offset="100%"/></linearGradient><linearGradient x1="-918.001%" y1="-164.483%" x2="133.484%" y2="68.519%" id="o"><stop stop-color="#BCBEC0" offset="0%"/><stop stop-color="#CCCDCF" offset="16.65%"/><stop stop-color="#F1F2F2" offset="48.06%"/><stop stop-color="#D1D2D4" offset="80.83%"/><stop stop-color="#BCBEC0" offset="100%"/></linearGradient><linearGradient x1="-175.168%" y1="-5.243%" x2="698.197%" y2="227.071%" id="p"><stop stop-color="#BCBEC0" offset="0%"/><stop stop-color="#CCCDCF" offset="16.65%"/><stop stop-color="#F1F2F2" offset="48.06%"/><stop stop-color="#D1D2D4" offset="80.83%"/><stop stop-color="#BCBEC0" offset="100%"/></linearGradient><linearGradient x1="-206.439%" y1="-41.846%" x2="465.099%" y2="191.156%" id="q"><stop stop-color="#BCBEC0" offset="0%"/><stop stop-color="#CCCDCF" offset="16.65%"/><stop stop-color="#F1F2F2" offset="48.06%"/><stop stop-color="#D1D2D4" offset="80.83%"/><stop stop-color="#BCBEC0" offset="100%"/></linearGradient><linearGradient x1="-394.895%" y1="-63.671%" x2="478.47%" y2="168.644%" id="r"><stop stop-color="#BCBEC0" offset="0%"/><stop stop-color="#CCCDCF" offset="16.65%"/><stop stop-color="#F1F2F2" offset="48.06%"/><stop stop-color="#D1D2D4" offset="80.83%"/><stop stop-color="#BCBEC0" offset="100%"/></linearGradient><linearGradient x1="-652.012%" y1="-86.828%" x2="481.505%" y2="142.11%" id="s"><stop stop-color="#BCBEC0" offset="0%"/><stop stop-color="#CCCDCF" offset="16.65%"/><stop stop-color="#F1F2F2" offset="48.06%"/><stop stop-color="#D1D2D4" offset="80.83%"/><stop stop-color="#BCBEC0" offset="100%"/></linearGradient><linearGradient x1="-709.593%" y1="-108.099%" x2="345.363%" y2="117.559%" id="t"><stop stop-color="#BCBEC0" offset="0%"/><stop stop-color="#CCCDCF" offset="16.65%"/><stop stop-color="#F1F2F2" offset="48.06%"/><stop stop-color="#D1D2D4" offset="80.83%"/><stop stop-color="#BCBEC0" offset="100%"/></linearGradient><linearGradient x1="-1068.986%" y1="-132.545%" x2="308.823%" y2="93.113%" id="u"><stop stop-color="#BCBEC0" offset="0%"/><stop stop-color="#CCCDCF" offset="16.65%"/><stop stop-color="#F1F2F2" offset="48.06%"/><stop stop-color="#D1D2D4" offset="80.83%"/><stop stop-color="#BCBEC0" offset="100%"/></linearGradient></defs><g fill="none" fill-rule="evenodd"><path d="M25.139 59.32L.125 54.93v21.612c0 4.264 2.167 6.43 6.43 6.43h46.82c4.264 0 6.43-2.166 6.43-6.43V58.43l-34.666.888z" fill="url(#a)" transform="translate(1 1)"/><path d="M59.806 58.43V6.515c0-4.264-2.167-6.43-6.431-6.43H6.569C2.306.083.14 2.25.14 6.513V54.93l25 4.388 34.667-.888z" fill="url(#b)" transform="translate(1 1)"/><path d="M59.806 58.43V6.515c0-4.264-2.167-6.43-6.431-6.43H6.569C2.306.083.14 2.25.14 6.513V54.93l25 4.388 34.667-.888z" fill="url(#c)" transform="translate(1 1)"/><path fill="url(#d)" d="M59.875 67.25v-9.903L25.139 59.32z" transform="translate(1 1)"/><path fill="url(#e)" d="M.125 53.57v7.166l25.014-1.417z" transform="translate(1 1)"/><path d="M60.833 77.542c0 4.264-2.166 6.43-6.43 6.43H7.597c-4.264 0-6.43-2.166-6.43-6.43V7.514c0-4.264 2.166-6.43 6.43-6.43h46.82c4.264 0 6.43 2.166 6.43 6.43v70.028h-.014z" stroke="#D0D1D3" stroke-width="1.5"/><g><path fill="url(#f)" d="M.083.111h1.181v4.708H.083z" transform="translate(8.639 40.444)"/><path fill="url(#g)" d="M5.5 2.986L3.611.111H2.417v4.695h1.152v-2.82l1.959 2.82h1.11V.11H5.5z" transform="translate(8.639 40.444)"/><path fill="url(#h)" d="M8.944 1.986l1.973 2.82h1.11V.11H10.89v2.875L9 .111H7.806v4.695h1.138z" transform="translate(8.639 40.444)"/><path d="M15.403 4.889c1.36 0 2.458-1 2.458-2.43 0-1.431-1.097-2.431-2.458-2.431-1.361 0-2.445 1-2.445 2.43 0 1.43 1.084 2.43 2.445 2.43zm0-3.792c.722 0 1.236.542 1.236 1.375 0 .834-.514 1.375-1.236 1.375-.709 0-1.236-.541-1.236-1.375 0-.833.527-1.375 1.236-1.375z" fill="url(#i)" fill-rule="nonzero" transform="translate(8.639 40.444)"/><path fill="url(#j)" d="M21.292 4.806L23.042.11h-1.25l-1.195 3.5-1.222-3.5h-1.264l1.75 4.695z" transform="translate(8.639 40.444)"/><path d="M26.556 4.806h1.291L26.014.097h-1.417l-1.833 4.709h1.25l.32-.89h1.902l.32.89zm-1.862-1.848l.612-1.666.597 1.666h-1.209z" fill="url(#k)" fill-rule="nonzero" transform="translate(8.639 40.444)"/><path fill="url(#l)" d="M30.264 4.806V1.153h1.417V.11h-4v1.042h1.416v3.653z" transform="translate(8.639 40.444)"/><path fill="url(#m)" d="M32.472.111h1.181v4.708h-1.181z" transform="translate(8.639 40.444)"/><path d="M37.028.028c-1.361 0-2.445 1-2.445 2.43 0 1.43 1.084 2.43 2.445 2.43 1.36 0 2.458-1 2.458-2.43 0-1.43-1.083-2.43-2.458-2.43zm0 3.805c-.709 0-1.236-.541-1.236-1.375 0-.833.527-1.375 1.236-1.375.722 0 1.236.542 1.236 1.375 0 .834-.514 1.375-1.236 1.375z" fill="url(#n)" fill-rule="nonzero" transform="translate(8.639 40.444)"/><path fill="url(#o)" d="M43.5.111v2.875L41.611.111h-1.194v4.695h1.152v-2.82l1.959 2.82h1.11V.11z" transform="translate(8.639 40.444)"/><path d="M8.944 6.639l-1.833 4.708h1.25l.32-.889h1.902l.32.89h1.291l-1.833-4.71H8.944zm.098 2.847l.61-1.667.598 1.667H9.042z" fill="url(#p)" fill-rule="nonzero" transform="translate(8.639 40.444)"/><path fill="url(#q)" d="M17 9.972l-.82-3.333H15l-.806 3.333-.736-3.333h-1.18l1.11 4.694h1.445l.736-3.041.737 3.041h1.458l1.125-4.694h-1.153z" transform="translate(8.639 40.444)"/><path d="M20.792 6.639l-1.834 4.708h1.25l.32-.889h1.903l.319.89h1.292l-1.834-4.71h-1.416zm.097 2.847L21.5 7.82l.597 1.667H20.89z" fill="url(#r)" fill-rule="nonzero" transform="translate(8.639 40.444)"/><path d="M28.222 8.194c0-1.125-.805-1.625-2.014-1.625-.486 0-1.11.042-1.486.098v4.68h1.167v-1.5h.347l1.014 1.5h1.389l-1.264-1.764c.458-.25.847-.722.847-1.389zm-2.041.681h-.292V7.597c.07-.014.236-.014.32-.014.444 0 .805.167.805.64.014.485-.333.652-.833.652z" fill="url(#s)" fill-rule="nonzero" transform="translate(8.639 40.444)"/><path d="M30.889 6.556c-.583 0-1.222.069-1.57.125v4.61c.362.084.987.112 1.542.112 1.556 0 2.667-.75 2.667-2.459 0-1.583-1.07-2.388-2.64-2.388zM31 10.375a5.42 5.42 0 0 1-.5-.028v-2.68c.139-.014.333-.028.486-.028.75 0 1.333.403 1.333 1.292-.013.986-.541 1.444-1.319 1.444z" fill="url(#t)" fill-rule="nonzero" transform="translate(8.639 40.444)"/><path d="M36.097 8.472c-.5-.125-.764-.222-.764-.528 0-.222.18-.375.528-.375.486 0 .889.195 1.25.487V6.903a2.369 2.369 0 0 0-1.292-.347c-.93 0-1.625.527-1.625 1.458 0 .778.362 1.222 1.334 1.472.472.125.722.222.722.5 0 .32-.306.417-.667.417-.527 0-.944-.222-1.291-.486v1.152c.305.195.777.334 1.305.334 1 0 1.82-.445 1.82-1.459-.028-.777-.361-1.222-1.32-1.472z" fill="url(#u)" transform="translate(8.639 40.444)"/></g><g fill="#00A0DC"><path d="M20.07 78.972h.36v-2.208h-.36v-.347h1.138v.36h-.375v.904h1.5v-.903h-.36v-.361h1.138v.36h-.361v2.21h.361v.36h-1.139v-.36h.375v-.96h-1.5v.96h.375v.36h-1.139v-.375z"/><path d="M23.639 77.875c0-.861.625-1.514 1.5-1.514.861 0 1.472.667 1.472 1.514 0 .861-.625 1.514-1.5 1.514-.861 0-1.472-.667-1.472-1.514zm2.555 0c0-.653-.444-1.139-1.069-1.139s-1.07.486-1.07 1.139.445 1.139 1.07 1.139 1.07-.486 1.07-1.139z" fill-rule="nonzero"/><path d="M27.889 77.125v1.847h.375v.361h-1.125v-.36h.361v-2.21h-.361v-.346h.708l1.584 2.055v-1.708h-.375v-.347h1.11v.36h-.347v2.57h-.222z"/><path d="M30.653 77.875c0-.861.625-1.514 1.5-1.514.86 0 1.472.667 1.472 1.514 0 .861-.625 1.514-1.5 1.514-.861 0-1.472-.667-1.472-1.514zm2.555 0c0-.653-.444-1.139-1.07-1.139-.624 0-1.069.486-1.069 1.139s.445 1.139 1.07 1.139 1.07-.486 1.07-1.139zM34.153 78.972h.36v-2.208h-.36v-.347h1.125c.653 0 1.097.305 1.097.86 0 .39-.25.681-.597.806l.541.903h.348v.361h-.611l-.667-1.166c-.056 0-.111.013-.167.013-.11 0-.222 0-.291-.013v.805h.375v.361h-1.14v-.375h-.013zm1.805-1.68c0-.348-.277-.514-.708-.514h-.333v1.055c.07 0 .18.014.32.014.416-.014.721-.208.721-.555z" fill-rule="nonzero"/><path d="M37.014 78.972h.361v-2.208h-.361v-.347h2.153v.764h-.39v-.403h-1v.903h.931v.347h-.93v.958h1v-.403h.389v.764h-2.153zM39.722 78.972h.361v-2.208h-.36v-.347h2.152v.764h-.389v-.403h-1v.903h.93v.347h-.93v.958h1v-.403h.389v.764h-2.153z"/></g><g><path fill="#44C8F5" d="M32.57 13.083l.638 3.098-7.5.944-.68-6.347z"/><path fill="#00A0DC" d="M26.903 29.889l-1.195-12.764-15.791 1.986 9.055 15.722L39.208 32z"/><path fill="#DEE21E" d="M52.083 10.583L49.64 30.556l-3.014-.445.611-12.57-14.667-4.458-.208-1.027z"/><path fill="#0081BE" d="M35.68 28.306L33.209 16.18l-7.5.944 1.195 12.764L39.223 32l-.376-3.18z"/><path fill="#44C8F5" d="M38.847 28.82l.375 3.18 7.25 1.236.153-3.125z"/><path fill="#48BD9D" d="M32.57 13.083l3.11 15.223 10.945 1.805.611-12.57z"/><path d="M43.194 18.417c.125 0 .237.041.334.139a.451.451 0 0 1 .139.333c0 .139-.042.25-.14.333a.451.451 0 0 1-.333.14.451.451 0 0 1-.333-.14.451.451 0 0 1-.139-.333c0-.139.042-.25.14-.333a.513.513 0 0 1 .332-.14zm.542.472a.526.526 0 0 0-.167-.389.526.526 0 0 0-.388-.167.526.526 0 0 0-.39.167.513.513 0 0 0-.152.389.546.546 0 0 0 .542.555.526.526 0 0 0 .388-.166.485.485 0 0 0 .167-.39zm-.403-.111c0 .041-.014.083-.055.097-.028.014-.056.014-.097.014h-.098v-.222h.084c.055 0 .097.014.125.027.027 0 .041.042.041.084zm-.36-.195v.611h.11v-.236h.084c.055 0 .097.014.11.014.042.028.056.07.056.14v.082h.098v-.125a.257.257 0 0 0-.028-.097.117.117 0 0 0-.097-.055c.041 0 .069-.014.083-.028.042-.028.055-.07.055-.125 0-.083-.027-.125-.097-.153a.453.453 0 0 0-.166-.028h-.209z" fill="#FFF" fill-rule="nonzero"/><g fill="#FFF"><path d="M25.375 21.889c-.736-.736-1.833-1.208-3.153-1.208-2.083 0-3.444 1.541-3.444 3.75 0 2.277 1.472 3.75 3.541 3.75 1.32 0 2.278-.39 3.25-1.181v2.542c-1.069.639-2.18.86-3.347.86-3.61 0-5.972-2.444-5.972-5.971 0-3.542 2.444-5.973 5.972-5.973 1.167 0 2.222.236 3.153.778v2.653zM34.333 28.042v2.152h-7.486V18.653h7.361v2.153h-4.93v2.527h4.528v2.125h-4.528v2.584h5.055zM35.444 27.111c.875.667 1.848 1.18 3.125 1.18.987 0 1.862-.347 1.862-1.305 0-.875-.723-1.208-1.931-1.555-2.32-.64-3.264-1.612-3.264-3.556 0-2.194 1.708-3.417 3.847-3.417 1.306 0 2.25.334 3.07.861v2.431c-.917-.736-1.847-1.18-2.986-1.18-.986 0-1.542.486-1.542 1.208 0 .82.667 1.153 2 1.514 2.32.666 3.208 1.694 3.208 3.639 0 2.416-1.902 3.486-4.277 3.472-1.264 0-2.39-.347-3.125-.834v-2.458h.013z"/></g></g><g fill="#00A0DC"><path d="M24.556 72.917v1.541h-5.612v-1.291c1.89-1.625 3.542-3.028 3.542-4.361 0-.764-.472-1.125-1.222-1.125-.778 0-1.583.486-2.125.972v-1.68c.611-.556 1.5-.904 2.583-.904 1.459 0 2.625.834 2.625 2.459s-1.375 3.097-3.125 4.389h3.334z"/><path d="M28.625 66.056c1.958 0 3.222 1.763 3.222 4.277 0 2.486-1.264 4.25-3.222 4.25s-3.236-1.764-3.236-4.25c0-2.5 1.278-4.277 3.236-4.277zm0 7.055c.889 0 1.486-.972 1.486-2.764 0-1.82-.597-2.791-1.486-2.791-.903 0-1.486.972-1.486 2.791 0 1.792.583 2.764 1.486 2.764z" fill-rule="nonzero"/><path d="M32.583 66.611l3.278-.542v8.375h-1.736v-6.458l-1.542.195z"/><path d="M38.625 74.458l1.292-2.11.597-.917c-.195.152-.486.236-.778.236-1.375 0-2.68-.945-2.68-2.723 0-1.61 1.18-2.875 3.055-2.875 1.833 0 2.945 1.264 2.945 2.875 0 1.098-.584 2.153-1 2.862l-1.612 2.652h-1.819zm1.458-6.958c-.764 0-1.36.528-1.36 1.403s.596 1.403 1.36 1.403c.75 0 1.334-.528 1.334-1.403s-.598-1.403-1.334-1.403z" fill-rule="nonzero"/></g></g></svg>