<svg id="al-decrease" xmlns="http://www.w3.org/2000/svg" viewBox="0 0 36 36" width="36" height="36"><style type="text/css"> #al-decrease .st0{fill:#FFFFFF;} #al-decrease .st1{fill:none;stroke:#FFFFFF;stroke-linecap:round;stroke-miterlimit:10;} </style> <g> <path class="st0" d="M18,24.2c-3.3,0-6-2.7-6-6s2.7-6,6-6s6,2.7,6,6S21.3,24.2,18,24.2z M18,13.4c-2.7,0-4.9,2.2-4.9,4.9 s2.2,4.9,4.9,4.9s4.9-2.2,4.9-4.9S20.7,13.4,18,13.4z"/> <line class="st1" x1="18" y1="5.7" x2="18" y2="7.4"/> <line class="st1" x1="18" y1="28.6" x2="18" y2="30.3"/> <line class="st1" x1="5.7" y1="18" x2="7.4" y2="18"/> <line class="st1" x1="28.6" y1="18" x2="30.3" y2="18"/> <line class="st1" x1="9.3" y1="26.7" x2="10.5" y2="25.5"/> <line class="st1" x1="25.5" y1="10.5" x2="26.7" y2="9.3"/> <line class="st1" x1="26.7" y1="26.7" x2="25.5" y2="25.5"/> <line class="st1" x1="10.5" y1="10.5" x2="9.3" y2="9.3"/> </g> </svg>