<svg id="Layer_1" data-name="Layer 1" xmlns="http://www.w3.org/2000/svg" width="233.8" height="177.5" viewBox="0 0 233.8 177.5">
  <title>Artboard 1</title>
  <line x1="149.4" y1="123.3" x2="149.4" y2="123.3" style="fill: none;stroke: #000;stroke-linecap: round;stroke-linejoin: round;stroke-width: 0.36000001430511475px"/>
  <polyline points="149 123.3 149 123.3 148.9 123.3 148.9 123.3" style="fill: none;stroke: #000;stroke-linecap: round;stroke-linejoin: round;stroke-width: 0.36000001430511475px"/>
  <line x1="148.8" y1="123.3" x2="148.8" y2="123.3" style="fill: none;stroke: #000;stroke-linecap: round;stroke-linejoin: round;stroke-width: 0.36000001430511475px"/>
  <line x1="151.3" y1="107.2" x2="151.3" y2="107.2" style="fill: none;stroke: #000;stroke-linecap: round;stroke-linejoin: round;stroke-width: 0.36000001430511475px"/>
  <polyline points="151.4 107.2 151.4 107.2 151.5 107.2 151.5 107.2" style="fill: none;stroke: #000;stroke-linecap: round;stroke-linejoin: round;stroke-width: 0.36000001430511475px"/>
  <line x1="195.9" y1="67.4" x2="195.6" y2="67" style="fill: none;stroke: #000;stroke-linecap: round;stroke-linejoin: round;stroke-width: 0.36000001430511475px"/>
  <path d="M148.6,123.1H126l-.5.1c-14.3,1.1-14.3,21.5,0,22.6l.5.1h48.2c14.8-.7,15.2-21.4.5-22.7l-.5-.1H151.6" style="fill: none;stroke: #000;stroke-linecap: round;stroke-linejoin: round;stroke-width: 0.36000001430511475px"/>
  <path d="M149.5,123.3h2.1v-.1l.1-.1.1-.1-.3-.3a2,2,0,0,0-2.5,0l-.3.3.1.1v.1l.1.1" style="fill: none;stroke: #000;stroke-linecap: round;stroke-linejoin: round;stroke-width: 0.36000001430511475px"/>
  <path d="M195.4,98.2l.2-.1a25.37,25.37,0,0,0,0-31.1h-.2" style="fill: none;stroke: #000;stroke-linecap: round;stroke-linejoin: round;stroke-width: 0.36000001430511475px"/>
  <path d="M195.6,98.2l.6-.8a25.55,25.55,0,0,0,.1-29.5l-.6-.8" style="fill: none;stroke: #000;stroke-linecap: round;stroke-linejoin: round;stroke-width: 0.36000001430511475px"/>
  <path d="M148.5,107.7l.3.3a2.18,2.18,0,0,0,3-.3v-.1h-.1l-.1-.2-.1-.1v-.1h-.1v-.1" style="fill: none;stroke: #000;stroke-linecap: round;stroke-linejoin: round;stroke-width: 0.36000001430511475px"/>
  <path d="M151.8,107.7h24a25.22,25.22,0,0,0,19.4-9.2v-.1h.1v-.1a25.12,25.12,0,0,0,0-31.5v-.1h-.1v-.1l-.8-1-1-1-1-.9a22.81,22.81,0,0,0-7.1-4.4l-1.3-.5-1.3-.4-1.4-.4-1.3-.2-1.4-.2-1.4-.1-1.3-.1H25.2l-1.1.1-1.1.1-1.2.1-1.1.2A24.92,24.92,0,0,0,3,71l-.5,1.1L2,73.3l-.4,1.2a25.08,25.08,0,0,0,15.7,31.8,23.45,23.45,0,0,0,7,1.3l1.1.1H148.7l.1-.1v-.1l.1-.2h.1v-.1h2.1" style="fill: none;stroke: #000;stroke-linecap: round;stroke-linejoin: round;stroke-width: 0.36000001430511475px"/>
  <line x1="151" y1="107.2" x2="151.3" y2="107.2" style="fill: none;stroke: #000;stroke-linecap: round;stroke-linejoin: round;stroke-width: 0.36000001430511475px"/>
  <line x1="149.3" y1="123.3" x2="149.1" y2="123.3" style="fill: none;stroke: #000;stroke-linecap: round;stroke-linejoin: round;stroke-width: 0.36000001430511475px"/>
  <polygon points="0.1 7.3 8.7 9.4 8.7 5.1 0.1 7.3" style="fill: #696969"/>
  <polygon points="0.1 7.3 8.7 9.4 8.7 5.1 0.1 7.3" style="fill: none;stroke: #696969;stroke-linecap: round;stroke-linejoin: round;stroke-width: 0.05999999865889549px"/>
  <polygon points="200.9 7.3 192.4 5.1 192.4 9.4 200.9 7.3" style="fill: #696969"/>
  <polygon points="200.9 7.3 192.4 5.1 192.4 9.4 200.9 7.3" style="fill: none;stroke: #696969;stroke-linecap: round;stroke-linejoin: round;stroke-width: 0.05999999865889549px"/>
  <polygon points="220.8 107.7 222.9 99.2 218.7 99.2 220.8 107.7" style="fill: #696969"/>
  <polygon points="220.8 107.7 222.9 99.2 218.7 99.2 220.8 107.7" style="fill: none;stroke: #696969;stroke-linecap: round;stroke-linejoin: round;stroke-width: 0.05999999865889549px"/>
  <polygon points="220.8 145.8 222.9 137.3 218.7 137.3 220.8 145.8" style="fill: #696969"/>
  <polygon points="220.8 122.8 218.7 131.3 222.9 131.3 220.8 122.8" style="fill: #696969"/>
  <polygon points="220.8 57.5 218.7 66 222.9 66 220.8 57.5" style="fill: #696969"/>
  <polygon points="220.8 57.5 218.7 66 222.9 66 220.8 57.5" style="fill: none;stroke: #696969;stroke-linecap: round;stroke-linejoin: round;stroke-width: 0.05999999865889549px"/>
  <polygon points="0.1 7.3 8.7 9.4 8.7 5.1 0.1 7.3" style="fill: #696969"/>
  <polygon points="0.1 7.3 8.7 9.4 8.7 5.1 0.1 7.3" style="fill: none;stroke: #696969;stroke-linecap: round;stroke-linejoin: round;stroke-width: 0.05999999865889549px"/>
  <polygon points="200.9 7.3 192.4 5.1 192.4 9.4 200.9 7.3" style="fill: #696969"/>
  <polygon points="200.9 7.3 192.4 5.1 192.4 9.4 200.9 7.3" style="fill: none;stroke: #696969;stroke-linecap: round;stroke-linejoin: round;stroke-width: 0.05999999865889549px"/>
  <line x1="0.1" y1="81.1" x2="0.1" y2="4.4" style="fill: none;stroke: #696969;stroke-linecap: round;stroke-linejoin: round;stroke-width: 0.05999999865889549px"/>
  <line x1="200.9" y1="81.3" x2="200.9" y2="4.4" style="fill: none;stroke: #696969;stroke-linecap: round;stroke-linejoin: round;stroke-width: 0.05999999865889549px"/>
  <line x1="0.1" y1="7.3" x2="200.9" y2="7.3" style="fill: none;stroke: #696969;stroke-linecap: round;stroke-linejoin: round;stroke-width: 0.05999999865889549px"/>
  <line x1="177.3" y1="57.5" x2="223.6" y2="57.5" style="fill: none;stroke: #696969;stroke-linecap: round;stroke-linejoin: round;stroke-width: 0.05999999865889549px"/>
  <line x1="177.3" y1="123" x2="223.6" y2="123" style="fill: none;stroke: #696969;stroke-linecap: round;stroke-linejoin: round;stroke-width: 0.05999999865889549px"/>
  <line x1="177.3" y1="107.7" x2="223.6" y2="107.7" style="fill: none;stroke: #696969;stroke-linecap: round;stroke-linejoin: round;stroke-width: 0.05999999865889549px"/>
  <line x1="177.3" y1="145.8" x2="223.6" y2="145.8" style="fill: none;stroke: #696969;stroke-linecap: round;stroke-linejoin: round;stroke-width: 0.05999999865889549px"/>
  <line x1="220.8" y1="107.7" x2="220.8" y2="57.5" style="fill: none;stroke: #696969;stroke-linecap: round;stroke-linejoin: round;stroke-width: 0.05999999865889549px"/>
  <line x1="220.8" y1="145.8" x2="220.8" y2="123" style="fill: none;stroke: #696969;stroke-linecap: round;stroke-linejoin: round;stroke-width: 0.05999999865889549px"/>
  <polygon points="114.9 175.4 123.4 177.5 123.4 173.2 114.9 175.4" style="fill: #696969"/>
  <polygon points="185.8 175.3 177.3 173.2 177.3 177.5 185.8 175.3" style="fill: #696969"/>
  <line x1="114.9" y1="175.4" x2="185.6" y2="175.4" style="fill: none;stroke: #696969;stroke-linecap: round;stroke-linejoin: round;stroke-width: 0.05999999865889549px"/>
  <line x1="0.1" y1="81.1" x2="0.1" y2="4.4" style="fill: none;stroke: #696969;stroke-linecap: round;stroke-linejoin: round;stroke-width: 0.05999999865889549px"/>
  <line x1="200.9" y1="81.3" x2="200.9" y2="4.4" style="fill: none;stroke: #696969;stroke-linecap: round;stroke-linejoin: round;stroke-width: 0.05999999865889549px"/>
  <line x1="185.6" y1="175.4" x2="185.6" y2="134.3" style="fill: none;stroke: #696969;stroke-linecap: round;stroke-linejoin: round;stroke-width: 0.05999999865889549px"/>
  <line x1="114.8" y1="175.4" x2="114.8" y2="134.3" style="fill: none;stroke: #696969;stroke-linecap: round;stroke-linejoin: round;stroke-width: 0.05999999865889549px"/>
  <line x1="0.1" y1="7.3" x2="200.9" y2="7.3" style="fill: none;stroke: #696969;stroke-linecap: round;stroke-linejoin: round;stroke-width: 0.05999999865889549px"/>
  <g style="opacity: 0.5">
    <path d="M88,78.3v.9H83.8v2.5h3.6v.9H83.8v3.6h-1V78.3Z"/>
    <path d="M89.9,78.3v7.8h-1V78.3Z"/>
    <path d="M94.2,78.3h1.1a.75.75,0,0,1,.5.1.76.76,0,0,1,.4.2,4.35,4.35,0,0,1,.7.6,1.69,1.69,0,0,1,.3,1,2,2,0,0,1-.3,1.1,2.18,2.18,0,0,1-.9.7h0a1.9,1.9,0,0,1,1.1.7,1.92,1.92,0,0,1,.4,1.2,1.08,1.08,0,0,1-.2.8,1.79,1.79,0,0,1-.5.7,2.18,2.18,0,0,1-.8.5,3.55,3.55,0,0,1-1,.2H91.2V78.3Zm.3,3.4a3.08,3.08,0,0,0,1.3-.3,1.09,1.09,0,0,0,.4-.9,1.7,1.7,0,0,0-.1-.7.78.78,0,0,0-.4-.4c-.2-.1-.3-.1-.5-.2H92.5v2.5Zm.6,3.6a1.5,1.5,0,0,0,1.1-.4,1.28,1.28,0,0,0,.4-1,1.27,1.27,0,0,0-.1-.6.78.78,0,0,0-.4-.4c-.2-.1-.3-.2-.5-.2s-.4-.1-.6-.1H92.6v2.7Z"/>
    <path d="M102,78.3l3.1,7.8h-1.2l-.9-2.4H99.7l-.9,2.4H97.7l3.1-7.8Zm.7,4.6-1.3-3.7h0l-1.3,3.7Z"/>
    <path d="M109.2,78.3a3,3,0,0,1,1.8.6,1.72,1.72,0,0,1,.6,1.5,2.38,2.38,0,0,1-.3,1.2,1.45,1.45,0,0,1-1,.7h0a1.42,1.42,0,0,1,.6.2c.1.1.3.2.3.4a.76.76,0,0,1,.2.5c0,.2.1.4.1.6v.6a1.27,1.27,0,0,0,.1.6,4.33,4.33,0,0,0,.1.5c.1.2.1.3.2.5h-1.2c-.1-.1-.1-.2-.2-.3V84.8a1.27,1.27,0,0,0-.1-.6,4.33,4.33,0,0,0-.1-.5.52.52,0,0,0-.2-.4,1.38,1.38,0,0,0-.4-.3,1.27,1.27,0,0,0-.6-.1h-2.6v3.4h-1V78.5h3.7Zm.2,3.5a1.42,1.42,0,0,0,.6-.2c.2-.1.3-.3.4-.4a1.85,1.85,0,0,0,.2-.7,1.69,1.69,0,0,0-.3-1,1.5,1.5,0,0,0-1.1-.4h-2.6v2.8h2.2A1.27,1.27,0,0,0,109.4,81.8Z"/>
    <path d="M112.6,80.7a5.39,5.39,0,0,1,.7-1.3,2.73,2.73,0,0,1,1.2-.9,3.82,3.82,0,0,1,3.3,0,2.73,2.73,0,0,1,1.2.9,3.29,3.29,0,0,1,.7,1.3,5.45,5.45,0,0,1,0,3.1,5.39,5.39,0,0,1-.7,1.3,2.73,2.73,0,0,1-1.2.9,4.69,4.69,0,0,1-3.3,0,2.73,2.73,0,0,1-1.2-.9,3.29,3.29,0,0,1-.7-1.3A5.45,5.45,0,0,1,112.6,80.7Zm1,2.7a3.13,3.13,0,0,0,.5,1,1.78,1.78,0,0,0,.8.7,2.75,2.75,0,0,0,2.5,0,2.7,2.7,0,0,0,.8-.7,3.13,3.13,0,0,0,.5-1,4.48,4.48,0,0,0,0-2.3,3.13,3.13,0,0,0-.5-1,1.78,1.78,0,0,0-.8-.7,2.75,2.75,0,0,0-2.5,0,2.7,2.7,0,0,0-.8.7,3.13,3.13,0,0,0-.5,1A4.48,4.48,0,0,0,113.6,83.4Z"/>
  </g>
  <g>
    <path d="M96.71,5H94V4.61l1.1-1.1a8.6,8.6,0,0,0,.66-.73A1.8,1.8,0,0,0,96,2.36a1.32,1.32,0,0,0,.08-.44.71.71,0,0,0-.2-.53.76.76,0,0,0-.57-.2,1.37,1.37,0,0,0-.49.09,1.73,1.73,0,0,0-.52.31L94,1.26A1.91,1.91,0,0,1,95.28.78a1.28,1.28,0,0,1,.92.31,1,1,0,0,1,.33.81,1.54,1.54,0,0,1-.22.78,5.05,5.05,0,0,1-.83,1l-.92.9v0h2.15Z" style="fill: #696969"/>
    <path d="M97.46,4.72a.4.4,0,0,1,.09-.29.29.29,0,0,1,.25-.1.3.3,0,0,1,.25.1.37.37,0,0,1,.1.29.36.36,0,0,1-.1.28.32.32,0,0,1-.25.1A.37.37,0,0,1,97.55,5,.4.4,0,0,1,97.46,4.72Z" style="fill: #696969"/>
    <path d="M99.4,5l1.73-3.74H98.85V.84h2.78v.38L99.92,5Z" style="fill: #696969"/>
    <path d="M105,2.63c0,1.63-.63,2.45-1.9,2.45a1.76,1.76,0,0,1-.52-.06V4.61a1.62,1.62,0,0,0,.52.08,1.27,1.27,0,0,0,1-.43,2.16,2.16,0,0,0,.38-1.3h0a1,1,0,0,1-.42.36,1.37,1.37,0,0,1-.58.13,1.14,1.14,0,0,1-.88-.34,1.23,1.23,0,0,1-.33-.92,1.42,1.42,0,0,1,.36-1,1.3,1.3,0,0,1,1-.38,1.35,1.35,0,0,1,.75.22,1.46,1.46,0,0,1,.49.64A2.7,2.7,0,0,1,105,2.63Zm-1.41-1.44a.8.8,0,0,0-.63.26,1.1,1.1,0,0,0-.22.73,1,1,0,0,0,.2.65.79.79,0,0,0,.63.24A1.13,1.13,0,0,0,104,3a.88.88,0,0,0,.34-.29.62.62,0,0,0,.13-.38,1.31,1.31,0,0,0-.12-.56,1,1,0,0,0-.33-.39A.81.81,0,0,0,103.55,1.19Z" style="fill: #696969"/>
    <path d="M107.25,1a.33.33,0,0,1,.08-.24.29.29,0,0,1,.2-.07.27.27,0,0,1,.2.07.31.31,0,0,1,.08.24.29.29,0,0,1-.08.24.28.28,0,0,1-.2.08.3.3,0,0,1-.2-.08A.33.33,0,0,1,107.25,1Zm.52,4h-.48V1.89h.48Z" style="fill: #696969"/>
    <path d="M110.92,5V3a.81.81,0,0,0-.18-.57.72.72,0,0,0-.54-.19.89.89,0,0,0-.72.27,1.31,1.31,0,0,0-.23.88V5h-.48V1.89h.39l.08.43h0a.9.9,0,0,1,.41-.36,1.24,1.24,0,0,1,.58-.13,1.19,1.19,0,0,1,.85.27,1.19,1.19,0,0,1,.29.88V5Z" style="fill: #696969"/>
  </g>
  <g>
    <path d="M145.36,169.68a3,3,0,0,1-.34,1.61,1.16,1.16,0,0,1-1.05.54,1.12,1.12,0,0,1-1-.55,2.92,2.92,0,0,1-.35-1.6,3,3,0,0,1,.34-1.62,1.14,1.14,0,0,1,1-.53,1.15,1.15,0,0,1,1,.55A3,3,0,0,1,145.36,169.68Zm-2.28,0a3.08,3.08,0,0,0,.21,1.32.77.77,0,0,0,1.37,0,4.25,4.25,0,0,0,0-2.64.77.77,0,0,0-1.37,0A3.13,3.13,0,0,0,143.08,169.68Z" style="fill: #696969"/>
    <path d="M146.08,171.47a.4.4,0,0,1,.09-.29.3.3,0,0,1,.25-.1.33.33,0,0,1,.26.1.4.4,0,0,1,.09.29.39.39,0,0,1-.09.28.38.38,0,0,1-.5,0A.4.4,0,0,1,146.08,171.47Z" style="fill: #696969"/>
    <path d="M150.24,169.38c0,1.63-.63,2.45-1.9,2.45a1.81,1.81,0,0,1-.52-.06v-.41a1.62,1.62,0,0,0,.52.08,1.27,1.27,0,0,0,1-.43,2.16,2.16,0,0,0,.38-1.3h0a1,1,0,0,1-.42.36,1.24,1.24,0,0,1-.58.13,1.17,1.17,0,0,1-.88-.33,1.27,1.27,0,0,1-.33-.93,1.42,1.42,0,0,1,.36-1,1.3,1.3,0,0,1,1-.38,1.35,1.35,0,0,1,.75.22,1.46,1.46,0,0,1,.49.64A2.7,2.7,0,0,1,150.24,169.38Zm-1.41-1.44a.8.8,0,0,0-.63.26,1.1,1.1,0,0,0-.22.73,1,1,0,0,0,.2.65.79.79,0,0,0,.63.24,1.13,1.13,0,0,0,.48-.11.88.88,0,0,0,.34-.29.62.62,0,0,0,.13-.38,1.26,1.26,0,0,0-.12-.55.94.94,0,0,0-.33-.4A.81.81,0,0,0,148.83,167.94Z" style="fill: #696969"/>
    <path d="M152.22,167.53a1.43,1.43,0,0,1,.91.27.89.89,0,0,1,.33.73.91.91,0,0,1-.19.57,1.71,1.71,0,0,1-.61.46,2,2,0,0,1,.72.51,1,1,0,0,1,.21.62,1.05,1.05,0,0,1-.36.83,1.5,1.5,0,0,1-1,.31,1.56,1.56,0,0,1-1-.3,1,1,0,0,1-.36-.82,1.23,1.23,0,0,1,.87-1.12,1.61,1.61,0,0,1-.56-.48,1,1,0,0,1-.17-.58.9.9,0,0,1,.33-.73A1.4,1.4,0,0,1,152.22,167.53Zm-.9,3.19a.65.65,0,0,0,.24.53,1,1,0,0,0,.67.19,1,1,0,0,0,.66-.2.69.69,0,0,0,0-1,2.39,2.39,0,0,0-.77-.42,1.62,1.62,0,0,0-.62.41A.75.75,0,0,0,151.32,170.72Zm.89-2.8a.89.89,0,0,0-.56.17.6.6,0,0,0-.2.46.68.68,0,0,0,.17.45,1.9,1.9,0,0,0,.62.38,1.56,1.56,0,0,0,.58-.37.71.71,0,0,0,.17-.46.56.56,0,0,0-.21-.46A.86.86,0,0,0,152.21,167.92Z" style="fill: #696969"/>
    <path d="M155.88,167.79a.33.33,0,0,1,.08-.24.27.27,0,0,1,.2-.07.29.29,0,0,1,.2.07.35.35,0,0,1,.08.24.33.33,0,0,1-.08.24.3.3,0,0,1-.2.08.28.28,0,0,1-.2-.08A.33.33,0,0,1,155.88,167.79Zm.51,4h-.47v-3.13h.47Z" style="fill: #696969"/>
    <path d="M159.54,171.77v-2a.87.87,0,0,0-.17-.58.74.74,0,0,0-.55-.18.88.88,0,0,0-.72.26,1.36,1.36,0,0,0-.23.88v1.64h-.47v-3.13h.38l.08.43h0a1,1,0,0,1,.41-.36,1.28,1.28,0,0,1,.59-.13,1,1,0,0,1,1.14,1.15v2Z" style="fill: #696969"/>
  </g>
  <g>
    <path d="M214.61,86.7a3,3,0,0,1,1.61.34,1.14,1.14,0,0,1,.54,1,1.17,1.17,0,0,1-.55,1,3,3,0,0,1-1.6.35,3,3,0,0,1-1.62-.34,1.26,1.26,0,0,1,0-2.07A3,3,0,0,1,214.61,86.7Zm0,2.28a2.91,2.91,0,0,0,1.32-.22.76.76,0,0,0,0-1.36,4.07,4.07,0,0,0-2.64,0,.76.76,0,0,0,0,1.36A3,3,0,0,0,214.61,89Z" style="fill: #696969"/>
    <path d="M216.4,86a.4.4,0,0,1-.29-.09.29.29,0,0,1-.1-.25.3.3,0,0,1,.1-.25.37.37,0,0,1,.29-.1.36.36,0,0,1,.28.1.32.32,0,0,1,.1.25.37.37,0,0,1-.09.25A.4.4,0,0,1,216.4,86Z" style="fill: #696969"/>
    <path d="M216.7,84,213,82.3v2.28h-.44V81.8h.38l3.8,1.71Z" style="fill: #696969"/>
    <path d="M212.72,79.52a.33.33,0,0,1-.24-.08.27.27,0,0,1-.07-.2.31.31,0,0,1,.07-.2.35.35,0,0,1,.24-.08A.33.33,0,0,1,213,79a.32.32,0,0,1,.08.2.28.28,0,0,1-.08.2A.33.33,0,0,1,212.72,79.52Zm4-.51v.47h-3.13V79Z" style="fill: #696969"/>
    <path d="M216.7,75.86h-2a.86.86,0,0,0-.57.17.75.75,0,0,0-.19.55.89.89,0,0,0,.27.72,1.36,1.36,0,0,0,.88.23h1.64V78h-3.13v-.38l.43-.08v0a1,1,0,0,1-.36-.41,1.28,1.28,0,0,1-.13-.59,1,1,0,0,1,1.15-1.13h2Z" style="fill: #696969"/>
  </g>
  <g>
    <path d="M214.61,140.73a3,3,0,0,1,1.61.34,1.16,1.16,0,0,1,.54,1.05,1.14,1.14,0,0,1-.55,1,3,3,0,0,1-1.6.35,3,3,0,0,1-1.62-.34,1.12,1.12,0,0,1-.53-1,1.15,1.15,0,0,1,.55-1A3,3,0,0,1,214.61,140.73Zm0,2.28a3.08,3.08,0,0,0,1.32-.21.77.77,0,0,0,0-1.37,4.25,4.25,0,0,0-2.64,0,.77.77,0,0,0,0,1.37A3.13,3.13,0,0,0,214.61,143Z" style="fill: #696969"/>
    <path d="M216.4,140a.4.4,0,0,1-.29-.09.3.3,0,0,1-.1-.25.33.33,0,0,1,.1-.26.4.4,0,0,1,.29-.09.39.39,0,0,1,.28.09.38.38,0,0,1,0,.5A.4.4,0,0,1,216.4,140Z" style="fill: #696969"/>
    <path d="M213.51,136a1,1,0,0,1,.65.22,1.13,1.13,0,0,1,.34.64h0a1.21,1.21,0,0,1,.32-.75,1,1,0,0,1,.68-.24,1.12,1.12,0,0,1,.92.41,1.93,1.93,0,0,1,.32,1.18,3.86,3.86,0,0,1,0,.61,2.07,2.07,0,0,1-.18.53h-.45a2.27,2.27,0,0,0,.2-.57,2.49,2.49,0,0,0,.07-.59q0-1.08-.84-1.08c-.51,0-.76.4-.76,1.2V138h-.41v-.42a1.2,1.2,0,0,0-.22-.77.7.7,0,0,0-.6-.29.6.6,0,0,0-.48.21.9.9,0,0,0-.17.57,1.81,1.81,0,0,0,.07.52,2.19,2.19,0,0,0,.28.55l-.32.24a2,2,0,0,1-.32-.59,2.12,2.12,0,0,1-.12-.71,1.46,1.46,0,0,1,.28-.94A.93.93,0,0,1,213.51,136Z" style="fill: #696969"/>
    <path d="M216.7,133.5V134h-3l-.7,0,.13.13.55.68-.32.25-.86-1.11v-.39Z" style="fill: #696969"/>
    <path d="M212.72,130.21a.33.33,0,0,1-.24-.08.27.27,0,0,1-.07-.2.29.29,0,0,1,.07-.2.35.35,0,0,1,.24-.08.33.33,0,0,1,.24.08.3.3,0,0,1,.08.2.28.28,0,0,1-.08.2A.33.33,0,0,1,212.72,130.21Zm4-.51v.47h-3.13v-.47Z" style="fill: #696969"/>
    <path d="M216.7,126.55h-2a.86.86,0,0,0-.57.17.75.75,0,0,0-.19.55.89.89,0,0,0,.27.72,1.36,1.36,0,0,0,.88.23h1.64v.47h-3.13v-.39l.43-.07v0a1,1,0,0,1-.36-.41,1.28,1.28,0,0,1-.13-.59,1,1,0,0,1,1.15-1.14h2Z" style="fill: #696969"/>
  </g>
</svg>
