<svg id="Layer_1" data-name="Layer 1" xmlns="http://www.w3.org/2000/svg" width="228.6" height="55.8" viewBox="0 0 228.6 55.8">
  <title>Artboard 1</title>
  <polyline points="20.5 0.7 22.7 0.3 23.8 0.2 24.8 0.2" style="fill: none;stroke: #000;stroke-linecap: round;stroke-linejoin: round;stroke-width: 0.36000001430511475px"/>
  <path d="M4.9,10.9l.7-1A24.45,24.45,0,0,1,19.3.9L20.5.7" style="fill: none;stroke: #000;stroke-linecap: round;stroke-linejoin: round;stroke-width: 0.36000001430511475px"/>
  <line x1="0.7" y1="24.4" x2="0.7" y2="23.2" style="fill: none;stroke: #000;stroke-linecap: round;stroke-linejoin: round;stroke-width: 0.36000001430511475px"/>
  <polyline points="185.2 2 187.3 3 188.3 3.6 189.4 4.3 190.4 4.9 191.3 5.6 192.2 6.4 193.1 7.3 193.9 8.1 194.7 9 195.5 10 196.1 10.9 196.8 11.9 197.4 13 197.9 14 198.5 15.1 198.9 16.2 199.6 18.5 199.9 19.6 200.3 22 200.4 23.2 200.5 24.4" style="fill: none;stroke: #000;stroke-linecap: round;stroke-linejoin: round;stroke-width: 0.36000001430511475px"/>
  <polyline points="175.8 0.2 177 0.2 178.2 0.3 179.4 0.4 180.6 0.7" style="fill: none;stroke: #000;stroke-linecap: round;stroke-linejoin: round;stroke-width: 0.36000001430511475px"/>
  <polyline points="196.8 47 196.6 47 196.4 47 196.3 47.1 196 47.5 195.8 47.7 195.7 48 195.6 48.3 195.6 48.7" style="fill: none;stroke: #000;stroke-linecap: round;stroke-linejoin: round;stroke-width: 0.36000001430511475px"/>
  <polyline points="124.1 52.9 124.2 52.9 124.3 53 124.3 53" style="fill: none;stroke: #000;stroke-linecap: round;stroke-linejoin: round;stroke-width: 0.36000001430511475px"/>
  <path d="M171.8,51.5l-1.3.4a85.05,85.05,0,0,1-42.2,2l-1.4-.3" style="fill: none;stroke: #000;stroke-linecap: round;stroke-linejoin: round;stroke-width: 0.36000001430511475px"/>
  <path d="M160.6,51.5l-1.9.4a89.17,89.17,0,0,1-26.3,0l-1.9-.4" style="fill: none;stroke: #000;stroke-linecap: round;stroke-linejoin: round;stroke-width: 0.36000001430511475px"/>
  <polyline points="126.9 53.6 125.6 53.3 124.3 53" style="fill: none;stroke: #000;stroke-linecap: round;stroke-linejoin: round;stroke-width: 0.36000001430511475px"/>
  <line x1="124" y1="52.9" x2="124" y2="51.5" style="fill: none;stroke: #000;stroke-linecap: round;stroke-linejoin: round;stroke-width: 0.36000001430511475px"/>
  <line x1="200.9" y1="50.1" x2="195.6" y2="50.1" style="fill: none;stroke: #000;stroke-linecap: round;stroke-linejoin: round;stroke-width: 0.36000001430511475px"/>
  <line x1="200.9" y1="48.7" x2="200.9" y2="50.1" style="fill: none;stroke: #000;stroke-linecap: round;stroke-linejoin: round;stroke-width: 0.36000001430511475px"/>
  <polyline points="195.6 50.1 195.6 48.7 200.9 48.7" style="fill: none;stroke: #000;stroke-linecap: round;stroke-linejoin: round;stroke-width: 0.36000001430511475px"/>
  <polyline points="196.8 47 200.9 47 200.9 48.7" style="fill: none;stroke: #000;stroke-linecap: round;stroke-linejoin: round;stroke-width: 0.36000001430511475px"/>
  <line x1="195.2" y1="48.7" x2="195.6" y2="48.7" style="fill: none;stroke: #000;stroke-linecap: round;stroke-linejoin: round;stroke-width: 0.36000001430511475px"/>
  <line x1="196" y1="47" x2="196.7" y2="47" style="fill: none;stroke: #000;stroke-linecap: round;stroke-linejoin: round;stroke-width: 0.36000001430511475px"/>
  <line x1="195.6" y1="50.1" x2="195.2" y2="50.1" style="fill: none;stroke: #000;stroke-linecap: round;stroke-linejoin: round;stroke-width: 0.36000001430511475px"/>
  <line x1="23.2" y1="51.5" x2="28.8" y2="51.5" style="fill: none;stroke: #000;stroke-linecap: round;stroke-linejoin: round;stroke-width: 0.36000001430511475px"/>
  <line x1="23.2" y1="50.1" x2="23.2" y2="51.5" style="fill: none;stroke: #000;stroke-linecap: round;stroke-linejoin: round;stroke-width: 0.36000001430511475px"/>
  <line x1="173.4" y1="51.5" x2="179.1" y2="51.5" style="fill: none;stroke: #000;stroke-linecap: round;stroke-linejoin: round;stroke-width: 0.36000001430511475px"/>
  <line x1="173.4" y1="51.5" x2="28.8" y2="51.5" style="fill: none;stroke: #000;stroke-linecap: round;stroke-linejoin: round;stroke-width: 0.36000001430511475px"/>
  <line x1="179.1" y1="51.5" x2="179.1" y2="50.1" style="fill: none;stroke: #000;stroke-linecap: round;stroke-linejoin: round;stroke-width: 0.36000001430511475px"/>
  <path d="M151.6,25.3h0a1.07,1.07,0,0,0-.2-.6l-.2-.1" style="fill: none;stroke: #000;stroke-linecap: round;stroke-linejoin: round;stroke-width: 0.36000001430511475px"/>
  <line x1="25.3" y1="0.2" x2="24.8" y2="0.2" style="fill: none;stroke: #000;stroke-linecap: round;stroke-linejoin: round;stroke-width: 0.36000001430511475px"/>
  <line x1="25.3" y1="0.2" x2="175.8" y2="0.2" style="fill: none;stroke: #000;stroke-linecap: round;stroke-linejoin: round;stroke-width: 0.36000001430511475px"/>
  <line x1="0.2" y1="50.1" x2="0.6" y2="24.4" style="fill: none;stroke: #000;stroke-linecap: round;stroke-linejoin: round;stroke-width: 0.36000001430511475px"/>
  <line x1="25.3" y1="50.1" x2="0.2" y2="50.1" style="fill: none;stroke: #000;stroke-linecap: round;stroke-linejoin: round;stroke-width: 0.36000001430511475px"/>
  <line x1="150.2" y1="50.1" x2="148.5" y2="50.1" style="fill: none;stroke: #000;stroke-linecap: round;stroke-linejoin: round;stroke-width: 0.36000001430511475px"/>
  <path d="M195.2,48.5v-.1a1.54,1.54,0,0,1,1-1.5l.2-.1" style="fill: none;stroke: #000;stroke-linecap: round;stroke-linejoin: round;stroke-width: 0.36000001430511475px"/>
  <line x1="195.2" y1="50.1" x2="195.2" y2="48.5" style="fill: none;stroke: #000;stroke-linecap: round;stroke-linejoin: round;stroke-width: 0.36000001430511475px"/>
  <line x1="175.9" y1="50.1" x2="195.2" y2="50.1" style="fill: none;stroke: #000;stroke-linecap: round;stroke-linejoin: round;stroke-width: 0.36000001430511475px"/>
  <line x1="200.8" y1="46.8" x2="200.5" y2="24.4" style="fill: none;stroke: #000;stroke-linecap: round;stroke-linejoin: round;stroke-width: 0.36000001430511475px"/>
  <line x1="196.5" y1="46.8" x2="200.8" y2="46.8" style="fill: none;stroke: #000;stroke-linecap: round;stroke-linejoin: round;stroke-width: 0.36000001430511475px"/>
  <line x1="25.3" y1="50.1" x2="148.5" y2="50.1" style="fill: none;stroke: #000;stroke-linecap: round;stroke-linejoin: round;stroke-width: 0.36000001430511475px"/>
  <line x1="151.8" y1="50.1" x2="175.9" y2="50.1" style="fill: none;stroke: #000;stroke-linecap: round;stroke-linejoin: round;stroke-width: 0.36000001430511475px"/>
  <polyline points="150.2 24.4 150.6 24.4 151.1 24.5" style="fill: none;stroke: #000;stroke-linecap: round;stroke-linejoin: round;stroke-width: 0.36000001430511475px"/>
  <polyline points="148.5 50.1 148.6 45.4 148.6 40.7 148.7 27.7 148.7 26.5 148.7 25.3" style="fill: none;stroke: #000;stroke-linecap: round;stroke-linejoin: round;stroke-width: 0.36000001430511475px"/>
  <polyline points="151.8 50.1 151.8 46 151.7 37.7 151.6 29.5 151.6 27.4 151.6 25.3" style="fill: none;stroke: #000;stroke-linecap: round;stroke-linejoin: round;stroke-width: 0.36000001430511475px"/>
  <line x1="150.2" y1="50.1" x2="151.8" y2="50.1" style="fill: none;stroke: #000;stroke-linecap: round;stroke-linejoin: round;stroke-width: 0.36000001430511475px"/>
  <path d="M150.2,24.4h-.5a1.22,1.22,0,0,0-1,.6v.2" style="fill: none;stroke: #000;stroke-linecap: round;stroke-linejoin: round;stroke-width: 0.36000001430511475px"/>
  <path d="M.7,23.2l.1-.7a28.85,28.85,0,0,1,3.8-11l.4-.6" style="fill: none;stroke: #000;stroke-linecap: round;stroke-linejoin: round;stroke-width: 0.36000001430511475px"/>
  <path d="M180.6.7l.5.1c1.2.2,2.4.7,3.6,1l.5.2" style="fill: none;stroke: #000;stroke-linecap: round;stroke-linejoin: round;stroke-width: 0.36000001430511475px"/>
  <polygon points="225.7 50 227.8 41.6 223.6 41.6 225.7 50" style="fill: #696969"/>
  <polygon points="225.7 50 227.8 41.6 223.6 41.6 225.7 50" style="fill: none;stroke: #696969;stroke-linecap: round;stroke-linejoin: round;stroke-width: 0.05999999865889549px"/>
  <polygon points="225.7 0.3 223.6 8.8 227.8 8.8 225.7 0.3" style="fill: #696969"/>
  <polygon points="225.7 0.3 223.6 8.8 227.8 8.8 225.7 0.3" style="fill: none;stroke: #696969;stroke-linecap: round;stroke-linejoin: round;stroke-width: 0.05999999865889549px"/>
  <line x1="161.7" y1="0.3" x2="228.5" y2="0.3" style="fill: none;stroke: #696969;stroke-linecap: round;stroke-linejoin: round;stroke-width: 0.05999999865889549px"/>
  <line x1="184.4" y1="50" x2="228.5" y2="50" style="fill: none;stroke: #696969;stroke-linecap: round;stroke-linejoin: round;stroke-width: 0.05999999865889549px"/>
  <line x1="225.7" y1="50" x2="225.7" y2="0.3" style="fill: none;stroke: #696969;stroke-linecap: round;stroke-linejoin: round;stroke-width: 0.05999999865889549px"/>
  <g>
    <path d="M221.35,31.65A3,3,0,0,1,223,32,1.16,1.16,0,0,1,223.5,33a1.13,1.13,0,0,1-.55,1,3.93,3.93,0,0,1-3.22,0,1.14,1.14,0,0,1-.53-1,1.15,1.15,0,0,1,.55-1A3,3,0,0,1,221.35,31.65Zm0,2.28a3.08,3.08,0,0,0,1.32-.21.77.77,0,0,0,0-1.37,4.07,4.07,0,0,0-2.64,0,.72.72,0,0,0-.42.69.73.73,0,0,0,.41.68A3.13,3.13,0,0,0,221.35,33.93Z" style="fill: #696969"/>
    <path d="M223.14,30.92a.46.46,0,0,1-.29-.08.3.3,0,0,1-.1-.25.33.33,0,0,1,.1-.26.4.4,0,0,1,.29-.09.39.39,0,0,1,.28.09.33.33,0,0,1,.1.26.36.36,0,0,1-.09.24A.39.39,0,0,1,223.14,30.92Z" style="fill: #696969"/>
    <path d="M221.66,29.47a3,3,0,0,1-1.85-.48,1.71,1.71,0,0,1-.61-1.42,1.78,1.78,0,0,1,.06-.51h.41a1.61,1.61,0,0,0-.07.51,1.27,1.27,0,0,0,.41,1,2.11,2.11,0,0,0,1.32.39v0a1.09,1.09,0,0,1-.49-1,1.14,1.14,0,0,1,.34-.88,1.26,1.26,0,0,1,.92-.33,1.38,1.38,0,0,1,1,.36,1.26,1.26,0,0,1,.38,1,1.24,1.24,0,0,1-.49,1A2.17,2.17,0,0,1,221.66,29.47Zm1.43-1.41a.79.79,0,0,0-.25-.63,1.15,1.15,0,0,0-.74-.22,1,1,0,0,0-.65.21.78.78,0,0,0-.24.62,1,1,0,0,0,.11.47.81.81,0,0,0,.29.34A.63.63,0,0,0,222,29a1.41,1.41,0,0,0,.54-.11,1,1,0,0,0,.41-.33A.8.8,0,0,0,223.09,28.06Z" style="fill: #696969"/>
    <path d="M221.05,23.43c1.63,0,2.45.63,2.45,1.89a1.88,1.88,0,0,1-.06.53H223a1.67,1.67,0,0,0,.08-.52,1.29,1.29,0,0,0-.43-1,2.14,2.14,0,0,0-1.3-.38v0a1,1,0,0,1,.36.41,1.28,1.28,0,0,1,.13.59,1.18,1.18,0,0,1-.33.88,1.27,1.27,0,0,1-.93.32,1.44,1.44,0,0,1-1-.36,1.27,1.27,0,0,1-.38-1,1.32,1.32,0,0,1,.22-.74,1.39,1.39,0,0,1,.64-.49A2.5,2.5,0,0,1,221.05,23.43Zm-1.44,1.4a.8.8,0,0,0,.26.63,1.1,1.1,0,0,0,.73.23.94.94,0,0,0,.65-.21.79.79,0,0,0,.24-.63,1,1,0,0,0-.11-.47.91.91,0,0,0-.29-.35.68.68,0,0,0-.38-.12,1.26,1.26,0,0,0-.55.11.94.94,0,0,0-.4.33A.81.81,0,0,0,219.61,24.83Z" style="fill: #696969"/>
    <path d="M219.46,21.13a.33.33,0,0,1-.24-.08.27.27,0,0,1-.07-.2.29.29,0,0,1,.07-.2.36.36,0,0,1,.24-.08.33.33,0,0,1,.24.08.3.3,0,0,1,.08.2.28.28,0,0,1-.08.2A.33.33,0,0,1,219.46,21.13Zm4-.51v.47h-3.13v-.47Z" style="fill: #696969"/>
    <path d="M223.44,17.47h-2a.87.87,0,0,0-.58.17.74.74,0,0,0-.18.55.91.91,0,0,0,.26.72,1.36,1.36,0,0,0,.88.23h1.64v.47h-3.13v-.39l.43-.07v0a.88.88,0,0,1-.36-.4,1.28,1.28,0,0,1-.13-.59A1,1,0,0,1,221.4,17h2Z" style="fill: #696969"/>
  </g>
</svg>
