<svg version="1.1" xmlns="http://www.w3.org/2000/svg" viewBox="0 0 78.9 78.9" width="78.9" height="78.9" style="enable-background:new 0 0 78.9 78.9;" xml:space="preserve"><style type="text/css">.st0{fill:#7E7E7E;}</style><path class="st0" d="M48.3,21.3c0,2-0.1,3.9-0.1,5.8c-0.1,0.1-0.2,0-0.3,0h-3.7c-0.4,0-0.7,0-1.1,0.1l-0.3,0.1c-0.5,0.2-0.8,0.5-1,1c-0.1,0.3-0.2,0.7-0.2,1c0,0.2,0,0.3,0,0.5c0,1.4,0,2.7,0,4.1c0,0.1,0,0.2,0,0.3h0.2h6.5c0,0.7,0,1.4-0.1,2.1c0,0.7-0.1,1.4-0.1,2.1s-0.1,1.4-0.1,2.1h-0.2H42c-0.1,0-0.2,0-0.4,0c0,0.4,0,0.8,0,1.1s0,0.8,0,1.1v14.9h-0.2h-6.4c0,0,0-0.1,0-0.1c0-0.1,0-0.2,0-0.3c0-5.4,0-10.9,0-16.3c0-0.1,0-0.2,0-0.4c-0.1,0-0.2,0-0.4,0h-4.1c0-0.1,0-0.1,0-0.2c0-0.3,0-0.5,0-0.8c0-1.7,0-3.3,0-5v-0.3c0.1,0,0.2,0,0.3,0h4.2c0-0.1,0-0.1,0-0.2c0-0.4,0-0.8,0-1.2c0-1.2,0-2.3,0-3.5c0-0.5,0-1,0.1-1.5c0.3-2.7,2.1-5,4.7-6c0.8-0.3,1.6-0.5,2.4-0.6c1-0.1,2-0.1,3.1-0.1l1.7,0.1C47.4,21.2,47.9,21.2,48.3,21.3z"/></svg>
