<svg id="Layer_1" data-name="Layer 1" xmlns="http://www.w3.org/2000/svg" width="203.5" height="230.2" viewBox="0 0 203.5 230.2">
  <title>Artboard 1</title>
  <path d="M.3,128.4v-2.3l.1-2.3a101.59,101.59,0,0,1,99.1-97h4.6a101.52,101.52,0,0,1,99.1,97l.1,2.3v2.3" style="fill: none;stroke: #000;stroke-linecap: round;stroke-linejoin: round;stroke-width: 0.5400000214576721px"/>
  <path d="M.3,128.4v2.2l.1,2.3a101.59,101.59,0,0,0,99.1,97h4.6a101.59,101.59,0,0,0,99.1-97l.1-2.3v-2.2" style="fill: none;stroke: #000;stroke-linecap: round;stroke-linejoin: round;stroke-width: 0.5400000214576721px"/>
  <polygon points="0.3 10.7 8.8 12.8 8.8 8.6 0.3 10.7" style="fill: #696969"/>
  <polygon points="0.3 10.7 8.8 12.8 8.8 8.6 0.3 10.7" style="fill: none;stroke: #696969;stroke-linecap: round;stroke-linejoin: round;stroke-width: 0.05999999865889549px"/>
  <polygon points="203.3 10.7 194.8 8.6 194.8 12.8 203.3 10.7" style="fill: #696969"/>
  <polygon points="203.3 10.7 194.8 8.6 194.8 12.8 203.3 10.7" style="fill: none;stroke: #696969;stroke-linecap: round;stroke-linejoin: round;stroke-width: 0.05999999865889549px"/>
  <line x1="0.3" y1="127" x2="0.3" y2="5.8" style="fill: none;stroke: #696969;stroke-linecap: round;stroke-linejoin: round;stroke-width: 0.36000001430511475px"/>
  <line x1="203.3" y1="127" x2="203.3" y2="5.8" style="fill: none;stroke: #696969;stroke-linecap: round;stroke-linejoin: round;stroke-width: 0.36000001430511475px"/>
  <line x1="0.3" y1="10.7" x2="203.3" y2="10.7" style="fill: none;stroke: #696969;stroke-linecap: round;stroke-linejoin: round;stroke-width: 0.36000001430511475px"/>
  <polygon points="89.6 134 92.3 134 92.3 134.8 90.6 134.8 90.6 135.8 92.2 135.8 92.2 136.6 90.6 136.6 90.6 138.4 89.6 138.4 89.6 134" style="fill: none;stroke: #000;stroke-miterlimit: 10;stroke-width: 0.20000000298023224px"/>
  <polygon points="94.6 134 94.6 138.4 93.6 138.4 93.6 134 94.6 134" style="fill: none;stroke: #000;stroke-miterlimit: 10;stroke-width: 0.20000000298023224px"/>
  <path d="M96.9,137.7h.4c.5,0,.9-.2.9-.6s-.4-.6-.9-.6H97v1.2Zm0-2h.3c.5,0,.8-.2.8-.5s-.3-.5-.7-.5h-.4Zm-1-1.7c.3,0,.8-.1,1.3-.1a2.77,2.77,0,0,1,1.3.3,1.05,1.05,0,0,1,.5.9,1,1,0,0,1-.7.9h0a1.17,1.17,0,0,1,.9,1.1,1.05,1.05,0,0,1-.5.9,2.54,2.54,0,0,1-1.7.4,4.1,4.1,0,0,1-1.1-.1V134Z" style="fill: none;stroke: #000;stroke-miterlimit: 10;stroke-width: 0.20000000298023224px"/>
  <path d="M102.5,136.5l-.3-.9a2.92,2.92,0,0,1-.2-.9h0c-.1.3-.1.6-.2.9l-.3.9Zm-1.1.8-.3,1.1h-1l1.4-4.4h1.3l1.4,4.4h-1.1l-.3-1.1Z" style="fill: none;stroke: #000;stroke-miterlimit: 10;stroke-width: 0.20000000298023224px"/>
  <path d="M106.2,135.9h.4c.5,0,.8-.3.8-.6a.67.67,0,0,0-.7-.6h-.5v1.2Zm-1-1.9a5.7,5.7,0,0,1,1.3-.1,3.19,3.19,0,0,1,1.4.3,1.09,1.09,0,0,1,.4.9,1.17,1.17,0,0,1-.8,1.1h0a.87.87,0,0,1,.6.8,6.47,6.47,0,0,0,.4,1.3h-1a1.93,1.93,0,0,1-.3-1c-.1-.6-.3-.7-.7-.7h-.3v1.7h-1Z" style="fill: none;stroke: #000;stroke-miterlimit: 10;stroke-width: 0.20000000298023224px"/>
  <path d="M110.4,136.2c0,.9.4,1.5,1.1,1.5s1.1-.6,1.1-1.5-.4-1.5-1.1-1.5S110.4,135.3,110.4,136.2Zm3.2,0a2.11,2.11,0,0,1-1.8,2.3h-.4a2.05,2.05,0,0,1-2.1-2.1v-.2a2.22,2.22,0,0,1,2.1-2.3h.1a2.09,2.09,0,0,1,2.1,2Z" style="fill: none;stroke: #000;stroke-miterlimit: 10;stroke-width: 0.20000000298023224px"/>
  <path d="M89.8,142.3a1.42,1.42,0,0,0,.6.2c.4,0,.6-.2.6-.5s-.1-.4-.5-.5a.85.85,0,0,1-.7-.8c.1-.4.5-.8.9-.7a1.27,1.27,0,0,1,.6.1l-.1.3a.75.75,0,0,0-.5-.1c-.4,0-.5.2-.5.4s.2.4.5.5c.5.2.7.4.7.8s-.3.8-1,.8a1.85,1.85,0,0,1-.7-.2Z" style="fill: none;stroke: #000;stroke-miterlimit: 10;stroke-width: 0.20000000298023224px"/>
  <path d="M94.6,142.7v-1.2l-.9-1.6h.4l.4.8.3.6h0l.3-.6.4-.8h.4l-.9,1.6v1.2Z" style="fill: none;stroke: #000;stroke-miterlimit: 10;stroke-width: 0.20000000298023224px"/>
  <path d="M98.2,142.3a1.42,1.42,0,0,0,.6.2c.4,0,.6-.2.6-.5s-.1-.4-.5-.5a.85.85,0,0,1-.7-.8c.1-.4.5-.8.9-.7a1.27,1.27,0,0,1,.6.1l-.1.3a.75.75,0,0,0-.5-.1c-.4,0-.5.2-.5.4s.2.4.5.5c.5.2.7.4.7.8s-.3.8-1,.8a1.85,1.85,0,0,1-.7-.2Z" style="fill: none;stroke: #000;stroke-miterlimit: 10;stroke-width: 0.20000000298023224px"/>
  <polygon points="102.9 140.3 102 140.3 102 140 104.1 140 104.1 140.3 103.2 140.3 103.2 142.7 102.9 142.7 102.9 140.3" style="fill: none;stroke: #000;stroke-miterlimit: 10;stroke-width: 0.20000000298023224px"/>
  <polygon points="107.9 141.5 106.8 141.5 106.8 142.4 108 142.4 108 142.7 106.5 142.7 106.5 140 108 140 108 140.3 106.8 140.3 106.8 141.2 107.9 141.2 107.9 141.5" style="fill: none;stroke: #000;stroke-miterlimit: 10;stroke-width: 0.20000000298023224px"/>
  <path d="M112.9,141.5v-1.2h0c-.1.3-.2.7-.3,1l-.5,1.3h-.3l-.4-1.3c-.1-.4-.2-.7-.3-1.1h0a4.87,4.87,0,0,1-.1,1.2l-.1,1.2h-.4l.2-2.7h.4l.5,1.3.3.9h0l.3-.9.5-1.3h.4l.2,2.7H113l-.1-1.1Z" style="fill: none;stroke: #000;stroke-miterlimit: 10;stroke-width: 0.20000000298023224px"/>
  <polygon points="114 132.6 89.4 132.6 89.4 131.8 114 131.8 114 132.6" style="fill: none;stroke: #000;stroke-miterlimit: 10;stroke-width: 0.20000000298023224px"/>
  <path d="M102.9,128.5h-2.4V121h1.9a2.67,2.67,0,0,1,.7,1.4c-.1,1.8-2.1,2.1-2.5,2.1h0C105.4,126.2,102.9,128.5,102.9,128.5Zm6.1-4.4a2.53,2.53,0,0,0,1.2-2.4c-.2-2.4-3.2-2.4-3.2-2.4H93.3V121h4.4v2.8H94.6v1.7h3.1v4.7H103a3.12,3.12,0,0,0,3.2-3V127a3,3,0,0,0-1.8-3,2.57,2.57,0,0,0,1-3.1H107a1.73,1.73,0,0,1,.7,1.6,2.38,2.38,0,0,1-2.4,2h0c4,.9,3.9,5.6,3.9,5.6h2.5c-.3-5.1-2.7-6-2.7-6Z" style="fill: none;stroke: #000;stroke-miterlimit: 10;stroke-width: 0.20000000298023224px"/>
  <polygon points="113.9 118.9 109.9 117.1 110.1 113.6 107.3 113.5 107.2 115.9 102.1 113.7 102.1 113.7 102.1 113.7 102.1 113.7 102.1 113.7 89.8 117.8 90.2 119 102 115 113.4 120 113.9 118.9" style="fill: none;stroke: #000;stroke-miterlimit: 10;stroke-width: 0.20000000298023224px"/>
  <g>
    <path d="M95.35,8.37H90.77V7.68l1.84-1.84a12.68,12.68,0,0,0,1.1-1.21,2.87,2.87,0,0,0,.4-.71,2,2,0,0,0,.14-.74,1.17,1.17,0,0,0-.34-.88A1.3,1.3,0,0,0,93,2a2.48,2.48,0,0,0-.82.14,3.48,3.48,0,0,0-.87.52l-.42-.54a3.23,3.23,0,0,1,2.1-.8,2.23,2.23,0,0,1,1.54.5,1.76,1.76,0,0,1,.56,1.36,2.68,2.68,0,0,1-.37,1.31,8.54,8.54,0,0,1-1.4,1.64L91.77,7.59v0h3.58Z" style="fill: #696969"/>
    <path d="M96.6,7.86a.69.69,0,0,1,.15-.48.54.54,0,0,1,.42-.17.56.56,0,0,1,.43.17.69.69,0,0,1,.15.48.69.69,0,0,1-.15.48.57.57,0,0,1-.43.16.59.59,0,0,1-.41-.15A.67.67,0,0,1,96.6,7.86Z" style="fill: #696969"/>
    <path d="M101.27,1.29a2.4,2.4,0,0,1,1.51.44A1.5,1.5,0,0,1,103.34,3a1.55,1.55,0,0,1-.32.94,3,3,0,0,1-1,.77,3.56,3.56,0,0,1,1.2.85,1.62,1.62,0,0,1,.36,1A1.7,1.7,0,0,1,103,7.94a2.43,2.43,0,0,1-1.66.52A2.62,2.62,0,0,1,99.58,8,1.68,1.68,0,0,1,99,6.59a2.07,2.07,0,0,1,1.46-1.87,2.8,2.8,0,0,1-1-.8,1.73,1.73,0,0,1-.29-1,1.49,1.49,0,0,1,.56-1.21A2.36,2.36,0,0,1,101.27,1.29ZM99.76,6.61a1.08,1.08,0,0,0,.4.89,1.73,1.73,0,0,0,1.11.32,1.62,1.62,0,0,0,1.11-.34,1.11,1.11,0,0,0,.4-.91,1.16,1.16,0,0,0-.37-.83,3.81,3.81,0,0,0-1.3-.69,2.66,2.66,0,0,0-1,.67A1.28,1.28,0,0,0,99.76,6.61Zm1.5-4.68a1.43,1.43,0,0,0-.94.29A.94.94,0,0,0,100,3a1.13,1.13,0,0,0,.28.76,3,3,0,0,0,1,.63,2.57,2.57,0,0,0,1-.62,1.13,1.13,0,0,0,.28-.77.93.93,0,0,0-.34-.76A1.46,1.46,0,0,0,101.26,1.93Z" style="fill: #696969"/>
    <path d="M107.38,1.72a.54.54,0,0,1,.13-.4.51.51,0,0,1,.66,0,.5.5,0,0,1,.14.4.5.5,0,0,1-.14.4.48.48,0,0,1-.66,0A.54.54,0,0,1,107.38,1.72Zm.86,6.65h-.8V3.14h.8Z" style="fill: #696969"/>
    <path d="M113.49,8.37V5a1.38,1.38,0,0,0-.29-1,1.18,1.18,0,0,0-.91-.32,1.48,1.48,0,0,0-1.2.45,2.19,2.19,0,0,0-.38,1.46V8.37h-.8V3.14h.65l.13.71h0a1.69,1.69,0,0,1,.69-.6,2.22,2.22,0,0,1,1-.21,2,2,0,0,1,1.43.46A2,2,0,0,1,114.28,5V8.37Z" style="fill: #696969"/>
  </g>
</svg>
