<svg xmlns="http://www.w3.org/2000/svg" width="38.9" height="38.9" viewBox="0 0 38.9 38.9"><defs><clipPath id="a" transform="translate(-278 -391.87)"><path fill="none" d="M278 391.89h38.88v38.98H278z"/></clipPath></defs><title>globe-langselector</title><path d="M28.34 8.65v.29l-.43.09-.06.61h.52l.69-.07.36-.42-.38-.15-.21-.24-.31-.5-.15-.71-.59.12-.16.25v.28l.28.19zm0 0" fill="#0090ff"/><path d="M27.85 8.89V8.5l-.34-.15-.48.11-.36.57v.37h.41zm0 0M18 10.53l-.11.27h-.51v.27h.12v.13h.32l.2-.12.05-.25h.25l.1-.21h-.23zm0 0" fill="#0090ff"/><g clip-path="url(#a)" fill="#0090ff"><path d="M16.65 11v.26h.37V11l-.22-.18zm0 0"/><path d="M38.89 19.25c0-.57 0-1.14-.09-1.69a19.37 19.37 0 0 0-1.29-5.3l-.15-.37a19.5 19.5 0 0 0-3.65-5.64l-.3-.32c-.29-.3-.58-.59-.89-.87a19.41 19.41 0 0 0-26.25.08 19.78 19.78 0 0 0-2.22 2.43A19.44 19.44 0 1 0 38.35 24c.09-.38.17-.77.24-1.16a19.51 19.51 0 0 0 .3-3.4v-.2zm-3.66-7.77l.11-.13c.15.29.29.58.42.88h-.53zm-2.81-3.4v-.87c.3.32.6.66.88 1l-.35.52h-1.22l-.08-.25zM9 5.92h.39v-.13H10v.28l-.18.24H9zm.63.87l.42-.07a1.64 1.64 0 0 1 0 .39l-.88.05-.17-.2zm26.89 7.72H35.1l-.87-.64-.91.09v.56H33l-.31-.22-1.58-.4v-1l-2 .16-.62.34H27.3l-1 .54v1l-2 1.42.16.61h.4l-.11.58-.28.11v1.51l1.7 1.95H27V21h1.34l.38-.35h.76l.41.41 1.11.07-.15 1.5 1.25 2.21-.66 1.26v.59l.52.52v1.43l.68.91v1.19h.59A17.84 17.84 0 0 1 3 12.46v-.56l.64-.77c.22-.42.46-.83.71-1.23v.32l-.74.9c-.23.43-.45.87-.64 1.33v1l.74.36v1.41l.71 1.21.58.09.07-.41-.68-1.06-.13-1h.4l.17 1.05 1 1.44-.26.46.63 1 1.56.38v-.25l.62.09-.06.44.49.09.75.21 1.07 1.22 1.37.1.13 1.11-.93.65v1l-.14.61 1.35 1.69.11.58s.49.13.55.13 1.1.79 1.1.79v3.06l.37.1-.25 1.41.63.83-.11 1.39.82 1.45 1.06.92h1.06l.1-.34-.78-.66v-.32l.14-.4v-.41h-.53l-.26-.33.44-.43.06-.32-.49-.14v-.3l.7-.11 1.06-.51.36-.65 1.11-1.43-.25-1.11.34-.59h1l.69-.54.22-2.15.76-1 .14-.62-.7-.23-.46-.75h-1.57l-1.25-.47-.06-.89-.42-.73h-1.12l-.65-1-.58-.29v.31l-1.05.06-.39-.54-1.1-.22-.91 1-1.42-.24-.11-1.6-1-.18.42-.79-.12-.45-1.36.91-.86-.11-.31-.67.18-.69.48-.87 1.09-.55h2.1v.64l.76.36-.06-1.1.54-.55 1.1-.72.08-.51 1.1-1.14 1.16-.64-.1-.09.79-.74.29.08.13.17.3-.33h.08-.33l-.33-.11v-.32l.18-.15h.39l.18.08.16.31h.24l.55-.08.08-.27.31.08v.29l-.29.2v.32l1 .3h.23v-.43l-.79-.36v-.21l.65-.22v-.62l-.68-.41V7.43l-.93.46h-.34l.09-.8-1.27-.3-.53.4V8.4l-.95.3-.38.79-.41.07v-1l-.89-.12-.44-.29-.18-.66 1.59-.93.78-.24.08.52h.43v-.27l.45-.06v-.09l-.2-.08v-.28h.56l.34-.35.1-.11 1.17-.15.52.44-1.36.72 1.73.41.23-.58h.75l.27-.5-.53-.14v-.64l-1.68-.74-1.16.13-.65.34v.83l-.68-.1-.11-.46.66-.59-1.19-.06-.34.11-.15.4.44.08-.09.44h-.76l-.12.29h-1.1a2.8 2.8 0 0 0-.07-.62h.86l.66-.64-.36-.18-.47.46h-.79l-.47-.65h-1l-1.06.79h1l.09.28-.25.23h1.07l.16.39h-1.2l-.06-.3-.75-.17-.4-.22H9a17.81 17.81 0 0 1 22.27 1l-.21.38-.82.33-.35.38.08.44.42.06.26.64.73-.3.12.86h-.22l-.6-.09-.67.11-.64.91-.93.15-.13.79.39.09-.11.51-.92-.18-.84.18-.18.46.14 1 .49.23H28.67l.17-.45.88-1.13.57.12.57-.51.11.4 1.39.94-.17.23h-.63l.24.34.39.09.45-.19v-.55l.2-.1-.16-.17-.93-.52-.25-.69h.77l.25.25.67.57v.69l.69.73.26-1 .48-.26.09.83.47.51h.93q.27.69.48 1.41zM10.66 8.83l.46-.22.42.1-.14.57-.46.14zm2.48 1.34v.37H12l-.4-.11.1-.26.51-.21h.7v.17zm.49.51v.35l-.27.17-.33.06v-.59zm-.3-.14v-.41l.37.33zm.17.86v.35l-.25.25h-.57l.09-.39h.27l.05-.13zm-1.41-.71h.59l-.75 1.06-.31-.17.07-.45zm2.41.59v.35h-.57l-.16-.23v-.32zm-.52-.48l.16-.17.27.17-.22.18zm22.84 4.61l.06-.06.07.3zm0 0"/></g><path d="M3 11.91v.56c.2-.46.41-.9.64-1.33zm0 0" fill="#0090ff"/></svg>