<svg width="75" height="56" viewBox="0 0 75 56" xmlns="http://www.w3.org/2000/svg"><title>haptic_icon</title><g stroke="#518EBB" stroke-width="1.5" fill="none" fill-rule="evenodd" stroke-linecap="round"><path d="M34.733 53.327l-8.504 1.492a3.054 3.054 0 0 1-3.524-2.49l-5.18-29.366"/><path d="M17.619 23.398l-.082-.435-2.608-14.565a3.077 3.077 0 0 1 2.49-3.523L39.62.928a3.077 3.077 0 0 1 3.524 2.49l2.948 16.55"/><path d="M38.41 1.175a2.208 2.208 0 0 0-1.786 2.56 2.197 2.197 0 0 1-1.785 2.55L23.974 8.221a2.35 2.35 0 0 1-2.678-1.762 2.35 2.35 0 0 0-2.679-1.773"/><path d="M44.952 34.122l-10.771-9.984a2.93 2.93 0 0 0-3.982 4.3l13.085 12.145a6.131 6.131 0 0 1 2.044 3.523" stroke-linejoin="round"/><path d="M45.328 44.083a8.387 8.387 0 0 0-.951-2.35h-.294c-4.475.377-7.94 0-9.15 3.936l-.176.575a.928.928 0 0 0 .775 1.175l4.863.54c1.725.197 3.409.66 4.992 1.374l1.174.552a14.835 14.835 0 0 0 6.637 1.304l4.992-.188a3.63 3.63 0 0 1 2.596.952l1.28 1.174M46.679 35.72l-3.876-3.595a2.938 2.938 0 1 1 3.993-4.31l4.699 4.393-2.162-1.997a2.938 2.938 0 0 1 3.994-4.311l3.054 2.796-.352-.33a3.007 3.007 0 0 1-.693-3.523 2.948 2.948 0 0 1 4.569-.846l3.007 2.796 3.148 2.901a11.276 11.276 0 0 1 3.465 6.578l.387 2.56c.093.635.4 1.22.87 1.657l2.725 2.525M31.432 34.392l-.622-.129a7.682 7.682 0 0 1-3.524-1.867 7.788 7.788 0 0 1 10.571-11.418 7.576 7.576 0 0 1 1.621 2.126c.187.345.34.707.459 1.081" stroke-linejoin="round"/><path d="M9.056 11.605c.34 2.126-2.279 2.537-1.938 4.698.34 2.162 2.937 1.715 3.277 3.83.34 2.114-2.278 2.537-1.95 4.698.33 2.161 2.949 1.645 3.301 3.759.352 2.114-2.279 2.537-1.95 4.698.33 2.162 2.948 1.715 3.29 3.841M2.854 12.92c.33 2.103-2.278 2.514-1.938 4.699.34 2.185 2.937 1.715 3.277 3.841.341 2.126-2.278 2.525-1.95 4.698.33 2.173 2.949 1.715 3.29 3.841"/></g></svg>