<?xml version="1.0" encoding="utf-8"?>
<!-- Generator: Adobe Illustrator 22.1.0, SVG Export Plug-In . SVG Version: 6.00 Build 0)  -->
<svg version="1.1" id="Warstwa_2" xmlns="http://www.w3.org/2000/svg" xmlns:xlink="http://www.w3.org/1999/xlink" x="0px" y="0px"
	 viewBox="0 0 70 70" style="enable-background:new 0 0 70 70;" xml:space="preserve">
<style type="text/css">
	.st0{opacity:0.25;fill:#FFFFFF;enable-background:new    ;}
	.st1{fill:#FFFFFF;}
</style>
<g>
	<circle id="Elipsa_6" class="st0" cx="35" cy="35" r="31.9"/>
	<path class="st1" d="M46.2,42.6l-8-8l8-8c0.8-0.8,0.8-2,0-2.8c-0.8-0.8-2-0.8-2.8,0l-8,8l-8-8c-0.8-0.8-2-0.8-2.8,0c0,0,0,0,0,0
		c-0.8,0.8-0.8,2,0,2.8l8,8l-8,8c-0.8,0.8-0.8,2,0,2.8c0.8,0.8,2,0.8,2.8,0l8-8l8,8c0.8,0.8,2,0.8,2.8,0C47,44.6,47,43.3,46.2,42.6z
		"/>
</g>
</svg>
