<?xml version="1.0" encoding="utf-8"?>
<!-- Generator: Adobe Illustrator 22.1.0, SVG Export Plug-In . SVG Version: 6.00 Build 0)  -->
<svg version="1.1" xmlns="http://www.w3.org/2000/svg" xmlns:xlink="http://www.w3.org/1999/xlink" x="0px" y="0px"
	 viewBox="0 0 70 70" style="enable-background:new 0 0 70 70;" xml:space="preserve">
<style type="text/css">
	.st0{fill:#FFFFFF;}
	.st1{fill:none;stroke:#FFFFFF;stroke-width:1.1931;stroke-miterlimit:10;}
</style>
<g id="Warstwa_1">
	<g>
		<g>
			<path class="st0" d="M53.2,55.8l0.8,0.8c11.9-11.9,11.9-31.3,0-43.2l-0.8,0.8C64.6,25.7,64.6,44.4,53.2,55.8z"/>
			<path class="st0" d="M49.1,48.6c7.5-7.5,7.5-19.7,0-27.3l-0.8,0.8c7.1,7.1,7.1,18.6,0,25.7L49.1,48.6z"/>
			<path class="st0" d="M44.2,29.4l-0.8,0.8c1.3,1.3,2.1,3.1,2.1,4.9s-0.7,3.6-2.1,4.9l0.8,0.8c1.5-1.5,2.4-3.5,2.4-5.7
				S45.7,30.9,44.2,29.4z"/>
		</g>
		<g>
			<path class="st0" d="M16.8,14.2l-0.8-0.8c-11.9,11.9-11.9,31.3,0,43.2l0.8-0.8C5.4,44.3,5.4,25.6,16.8,14.2z"/>
			<path class="st0" d="M20.9,21.4c-7.5,7.5-7.5,19.7,0,27.3l0.8-0.8c-7.1-7.1-7.1-18.6,0-25.7L20.9,21.4z"/>
			<path class="st0" d="M25.8,40.6l0.8-0.8c-1.3-1.3-2.1-3.1-2.1-4.9s0.7-3.6,2.1-4.9l-0.8-0.8c-1.5,1.5-2.4,3.5-2.4,5.7
				S24.2,39.1,25.8,40.6z"/>
		</g>
		<circle class="st1" cx="35" cy="35" r="5.4"/>
	</g>
</g>
<g id="Warstwa_2">
</g>
<g id="Warstwa_3">
</g>
<g id="Warstwa_4">
</g>
</svg>
