<?xml version="1.0" encoding="utf-8"?>
<!-- Generator: Adobe Illustrator 22.1.0, SVG Export Plug-In . SVG Version: 6.00 Build 0)  -->
<svg version="1.1" id="Warstwa_1" xmlns="http://www.w3.org/2000/svg" xmlns:xlink="http://www.w3.org/1999/xlink" x="0px" y="0px"
	 viewBox="0 0 70 70" style="enable-background:new 0 0 70 70;" xml:space="preserve">
<style type="text/css">
	.st0{fill:#FFFFFF;}
</style>
<g id="Warstwa_1_1_">
</g>
<g id="Warstwa_2_1_">
</g>
<g id="Warstwa_4">
</g>
<path class="st0" d="M43.5,16.6c-2.3-2-5.4-3.2-8.5-3.2c-0.5,0-0.9,0-1.4,0.1c-5.8,0.6-10.5,5.2-11.2,11c-0.3,2.9,0.3,5.6,2,8.1
	c2.4,3.6,3.8,7.4,4.2,11.2l0.1,0.4c0,0.5,0.3,1,0.6,1.3l0.1,0.1l-0.1,0.1c-0.4,0.3-0.6,0.8-0.6,1.4c0,0.4,0.2,0.9,0.5,1.2l0.1,0.1
	l-0.1,0.1c-0.3,0.3-0.5,0.8-0.5,1.2c0,0.4,0.2,0.9,0.5,1.2l0.1,0.1L29.1,51c-0.3,0.3-0.5,0.8-0.5,1.2c0,1,0.8,1.8,1.8,1.8h1.5l0,0.1
	c0.3,1.5,1.6,2.5,3.1,2.5s2.8-1,3.1-2.5l0-0.1h1.5c1,0,1.8-0.8,1.8-1.8c0-0.4-0.2-0.9-0.5-1.2l-0.1-0.1l0.1-0.1
	c0.3-0.3,0.5-0.8,0.5-1.2c0-0.4-0.2-0.9-0.5-1.2l-0.1-0.1l0.1-0.1c0.3-0.3,0.5-0.8,0.5-1.2c0-0.4-0.2-0.9-0.5-1.2l-0.1-0.1l0-0.1
	c0.4-0.4,0.7-0.9,0.7-1.4V44c0.9-4.2,1.8-8,4-11.1c1.5-2.1,2.3-4.5,2.3-7.1C47.7,22.3,46.2,18.9,43.5,16.6z M37.1,54.2
	c-0.2,0.9-1.1,1.6-2.1,1.6c-1,0-1.8-0.6-2.1-1.6l-0.1-0.2h4.4L37.1,54.2z M39.5,53.1h-9.2c-0.5,0-0.9-0.4-0.9-0.9s0.4-0.9,0.9-0.9
	h9.2c0.5,0,0.9,0.4,0.9,0.9C40.4,52.7,40,53.1,39.5,53.1z M39.6,50.4h-9.2c-0.5,0-0.9-0.4-0.9-0.9s0.4-0.9,0.9-0.9h9.2
	c0.5,0,0.9,0.4,0.9,0.9S40,50.4,39.6,50.4z M29.5,46.8c0-0.5,0.4-0.9,0.9-0.9h9.2c0.5,0,0.9,0.4,0.9,0.9s-0.4,0.9-0.9,0.9h-9.2
	C29.9,47.7,29.5,47.2,29.5,46.8z M44.7,32.4c-2.3,3.3-3.3,7.2-4.2,11.5v0.2c0,0.7-0.5,0.8-1.2,0.8h-8.5c-0.7,0-1.2-0.2-1.2-0.8v-0.4
	c-0.9-4-1.9-7.9-4.3-11.5c-1.5-2.3-2.2-4.9-1.9-7.6c0.6-5.4,4.9-9.6,10.4-10.2c0.5-0.1,0.9-0.1,1.3-0.1c2.9,0,5.6,1,7.8,2.9
	c2.5,2.2,3.9,5.3,3.9,8.6C46.8,28.2,46.1,30.4,44.7,32.4z M32,17.6c-0.2,0-0.4,0-0.4-0.2c-0.1-0.3,0-0.4,0.3-0.5
	c0.4-0.1,0.7-0.2,1.1-0.2h0c0,0,0.1,0,0.1,0c0.2,0,0.4,0.2,0.4,0.3c0,0.3-0.1,0.4-0.4,0.5c-0.3,0.1-0.6,0.1-0.9,0.1H32z M30.3,17.6
	c0.2,0,0.3,0.1,0.4,0.2c0.1,0.2,0,0.5-0.2,0.6c-1.4,0.9-2.6,2.1-3.2,3.6c-0.1,0.2-0.3,0.3-0.4,0.3c-0.1,0-0.1,0-0.1,0l-0.1,0
	c-0.1,0-0.2-0.1-0.3-0.2c0-0.1,0-0.2,0-0.3c0.7-1.7,2-3.1,3.6-4l0,0C30.1,17.7,30.2,17.6,30.3,17.6z"/>
</svg>
