<?xml version="1.0" encoding="utf-8"?>
<!-- Generator: Adobe Illustrator 22.1.0, SVG Export Plug-In . SVG Version: 6.00 Build 0)  -->
<svg version="1.1" id="Warstwa_1" xmlns="http://www.w3.org/2000/svg" xmlns:xlink="http://www.w3.org/1999/xlink" x="0px" y="0px"
	 viewBox="0 0 70 70" style="enable-background:new 0 0 70 70;" xml:space="preserve">
<style type="text/css">
	.st0{fill:#FFFFFF;}
</style>
<g id="Warstwa_1_1_">
</g>
<g id="Warstwa_2_1_">
</g>
<g id="Warstwa_4">
</g>
<g transform="translate(0,-952.36218)">
	<path class="st0" d="M53.5,965.8C53.4,965.8,53.4,965.8,53.5,965.8l-25.2,9.6c-0.2,0.1-0.3,0.3-0.3,0.5v24
		c-1.2-1.4-3.2-2.1-5.5-1.8c-3.6,0.5-6.5,3.2-6.5,6.3c0,3.1,3,5.1,6.5,4.6s6.5-3.2,6.5-6.3c0-0.4,0-18.9,0-18.9l24.1-9.2v18.3
		c-1.2-1.4-3.2-2.1-5.5-1.8c-3.6,0.5-6.5,3.2-6.5,6.3s3,5.1,6.5,4.6c3.6-0.5,6.5-3.2,6.5-6.3c0-0.6,0-29.3,0-29.3
		C54.1,966,53.8,965.7,53.5,965.8z M53.1,967v6.5L29,982.6v-6.5L53.1,967z M48.1,991.9c2.8-0.1,4.9,1.5,4.9,3.8
		c0,2.4-2.4,4.8-5.5,5.2c-3.1,0.4-5.5-1.3-5.5-3.7c0-2.4,2.4-4.8,5.5-5.2C47.7,991.9,47.9,991.9,48.1,991.9z M23,998.9
		c2.8-0.1,4.9,1.5,4.9,3.8c0,2.4-2.4,4.8-5.5,5.2c-3.1,0.4-5.5-1.3-5.5-3.7c0-2.4,2.4-4.8,5.5-5.2C22.6,999,22.8,998.9,23,998.9z"/>
</g>
</svg>
