<?xml version="1.0" encoding="utf-8"?>
<!-- Generator: Adobe Illustrator 22.1.0, SVG Export Plug-In . SVG Version: 6.00 Build 0)  -->
<svg version="1.1" xmlns="http://www.w3.org/2000/svg" xmlns:xlink="http://www.w3.org/1999/xlink" x="0px" y="0px"
	 viewBox="0 0 70 70" style="enable-background:new 0 0 70 70;" xml:space="preserve">
<style type="text/css">
	.st0{fill:#FFFFFF;}
</style>
<g id="Warstwa_1">
</g>
<g id="Warstwa_2">
	<g>
		<path class="st0" d="M47.4,50.5H23.3c-8.6,0-15.5-7-15.5-15.5s7-15.5,15.5-15.5h24.1c8.6,0,15.5,7,15.5,15.5S55.9,50.5,47.4,50.5z
			 M23.3,20.9c-7.8,0-14.1,6.3-14.1,14.1s6.3,14.1,14.1,14.1h24.1c7.8,0,14.1-6.3,14.1-14.1s-6.3-14.1-14.1-14.1H23.3z"/>
		<path class="st0" d="M46.5,46.8c-6.6,0-11.9-5.4-11.9-11.9s5.4-11.9,11.9-11.9s11.9,5.4,11.9,11.9S53.1,46.8,46.5,46.8z
			 M46.5,24.3C40.7,24.3,36,29,36,34.8s4.7,10.5,10.5,10.5S57,40.6,57,34.8S52.3,24.3,46.5,24.3z"/>
	</g>
</g>
<g id="Warstwa_3">
</g>
<g id="Warstwa_4">
</g>
</svg>
