<?xml version="1.0" encoding="utf-8"?>
<!-- Generator: Adobe Illustrator 22.1.0, SVG Export Plug-In . SVG Version: 6.00 Build 0)  -->
<svg version="1.1" id="Warstwa_1" xmlns="http://www.w3.org/2000/svg" xmlns:xlink="http://www.w3.org/1999/xlink" x="0px" y="0px"
	 viewBox="0 0 70 70" style="enable-background:new 0 0 70 70;" xml:space="preserve">
<style type="text/css">
	.st0{fill:#FFFFFF;}
</style>
<g id="Warstwa_1_1_">
</g>
<g id="Warstwa_2_1_">
</g>
<g id="Warstwa_4">
</g>
<g>
	<path class="st0" d="M35,28.7c-3.2,0-5.8,2.6-5.8,5.8s2.6,5.8,5.8,5.8c3.2,0,5.8-2.6,5.8-5.8S38.2,28.7,35,28.7z M35,39.7
		c-2.8,0-5.1-2.3-5.1-5.1c0-2.8,2.3-5.1,5.1-5.1c2.8,0,5.1,2.3,5.1,5.1C40.1,37.4,37.8,39.7,35,39.7z"/>
	<path class="st0" d="M54.5,29.1c0-1.2-1-2.2-2.2-2.2H42l0,0c-1.9-1.7-4.4-2.7-7-2.7c-2.6,0-5.1,1-7,2.7l0,0H17.7
		c-1.2,0-2.2,1-2.2,2.2V40c0,1.2,1,2.2,2.2,2.2h1.5v3.3c0,0.2,0.2,0.3,0.3,0.3h5c0.2,0,0.3-0.2,0.3-0.3v-3.3H28l0,0
		c1.9,1.7,4.4,2.7,7,2.7s5.1-1,7-2.7l0,0h3.1v3.3c0,0.2,0.2,0.3,0.3,0.3h5c0.2,0,0.3-0.2,0.3-0.3v-3.3h1.5c1.2,0,2.2-1,2.2-2.2V29.1
		z M24.2,45.1h-4.3v-3h4.3V45.1z M17.7,41.5c-0.8,0-1.5-0.7-1.5-1.5V29.1c0-0.8,0.7-1.5,1.5-1.5h9.6l-0.2,0.2
		c-1.6,1.9-2.5,4.3-2.5,6.8c0,2.5,0.9,4.9,2.5,6.8l0.2,0.2H17.7z M35,44.2c-5.3,0-9.7-4.3-9.7-9.7s4.3-9.7,9.7-9.7
		c5.3,0,9.7,4.3,9.7,9.7S40.3,44.2,35,44.2z M50.2,45.1h-4.3v-3h4.3V45.1z M53.8,40c0,0.8-0.7,1.5-1.5,1.5h-9.6l0.2-0.2
		c1.6-1.9,2.5-4.3,2.5-6.8c0-2.5-0.9-4.9-2.5-6.8l-0.2-0.2h9.6c0.8,0,1.5,0.7,1.5,1.5V40z"/>
</g>
</svg>
