<?xml version="1.0" encoding="utf-8"?>
<!-- Generator: Adobe Illustrator 22.1.0, SVG Export Plug-In . SVG Version: 6.00 Build 0)  -->
<svg version="1.1" xmlns="http://www.w3.org/2000/svg" xmlns:xlink="http://www.w3.org/1999/xlink" x="0px" y="0px"
	 viewBox="0 0 70 70" style="enable-background:new 0 0 70 70;" xml:space="preserve">
<style type="text/css">
	.st0{display:none;}
	.st1{fill:#FFFFFF;}
</style>
<g id="Warstwa_1" class="st0">
</g>
<g id="Warstwa_2" class="st0">
</g>
<g id="Warstwa_3" class="st0">
</g>
<g id="Warstwa_4">
	<g>
		<g>
			<path class="st1" d="M61.7,27.7l1-1c-15.2-15.2-40.1-15.2-55.3,0l1,1C23.1,13,47,13,61.7,27.7z"/>
			<path class="st1" d="M52.5,32.9c-9.6-9.6-25.3-9.6-34.9,0l1,1c9.1-9.1,23.9-9.1,32.9,0L52.5,32.9z"/>
			<path class="st1" d="M27.8,39.1l1,1c1.7-1.7,3.9-2.6,6.3-2.6c2.4,0,4.6,0.9,6.3,2.6l1-1c-1.9-1.9-4.5-3-7.3-3
				C32.3,36.1,29.7,37.2,27.8,39.1z"/>
		</g>
		<path class="st1" d="M35,54.7c-2.6,0-4.7-2.1-4.7-4.7s2.1-4.7,4.7-4.7c2.6,0,4.7,2.1,4.7,4.7S37.6,54.7,35,54.7z M35,46.8
			c-1.8,0-3.2,1.4-3.2,3.2c0,1.8,1.4,3.2,3.2,3.2c1.8,0,3.2-1.4,3.2-3.2C38.2,48.2,36.7,46.8,35,46.8z"/>
	</g>
</g>
</svg>
