<?xml version="1.0" encoding="utf-8"?>
<!-- Generator: Adobe Illustrator 22.1.0, SVG Export Plug-In . SVG Version: 6.00 Build 0)  -->
<svg version="1.1" xmlns="http://www.w3.org/2000/svg" xmlns:xlink="http://www.w3.org/1999/xlink" x="0px" y="0px"
	 viewBox="0 0 70 70" style="enable-background:new 0 0 70 70;" xml:space="preserve">
<style type="text/css">
	.st0{fill:#FFFFFF;}
</style>
<g id="Warstwa_1">
</g>
<g id="Warstwa_2">
</g>
<g id="Warstwa_3">
	<g>
		<path class="st0" d="M48.3,56.6c-3.4,0-6.2-2.8-6.2-6.2c0-1,0.2-1.9,0.6-2.7l-15.9-9.2c-1.1,1.6-3,2.7-5.1,2.7
			c-3.4,0-6.2-2.8-6.2-6.2c0-3.4,2.8-6.2,6.2-6.2c2.1,0,4,1.1,5.1,2.7l15.9-9.2c-0.4-0.8-0.6-1.7-0.6-2.7c0-3.4,2.8-6.2,6.2-6.2
			s6.2,2.8,6.2,6.2s-2.8,6.2-6.2,6.2c-2.1,0-4-1.1-5.1-2.7l-15.9,9.2c0.4,0.8,0.6,1.7,0.6,2.7c0,1-0.2,1.9-0.6,2.7l15.9,9.2
			c1.1-1.6,3-2.7,5.1-2.7c3.4,0,6.2,2.8,6.2,6.2S51.8,56.6,48.3,56.6z M48.3,45.1c-2.9,0-5.3,2.4-5.3,5.3s2.4,5.3,5.3,5.3
			s5.3-2.4,5.3-5.3S51.2,45.1,48.3,45.1z M21.7,29.7c-2.9,0-5.3,2.4-5.3,5.3s2.4,5.3,5.3,5.3s5.3-2.4,5.3-5.3S24.6,29.7,21.7,29.7z
			 M48.3,14.3c-2.9,0-5.3,2.4-5.3,5.3s2.4,5.3,5.3,5.3s5.3-2.4,5.3-5.3S51.2,14.3,48.3,14.3z"/>
	</g>
</g>
<g id="Warstwa_4">
</g>
</svg>
