<svg xmlns="http://www.w3.org/2000/svg" width="70" height="70" viewBox="0 0 70 70"><defs><style>.a{fill:none;stroke:#0090ff;stroke-linecap:round;stroke-linejoin:round}</style></defs><title>icon</title><path class="a" d="M41.51 30.63h-13m27.7-1.14a1.14 1.14 0 1 1-1.14 1.14 1.14 1.14 0 0 1 1.14-1.14zm-5.69 0a1.14 1.14 0 1 1-1.14 1.14 1.14 1.14 0 0 1 1.14-1.14zM62 28.35l-4.89 31.08C57 60.3 55.42 62 54.54 62H15.47c-.88 0-2.43-1.67-2.57-2.57L8 28.28C7.64 26.53 8.09 25 9.94 25h49.88c2.06 0 2.56 1.42 2.16 3.31zM34 23.6a6.82 6.82 0 0 0-12.78 0m-4.25 0a10.9 10.9 0 0 1 21.28 0m10.72 0a6.82 6.82 0 0 0-10.44-3.11M36 17.2a10.9 10.9 0 0 1 17.11 6.4m-40.57 0V12.34A4.35 4.35 0 0 1 16.93 8h36.21a4.33 4.33 0 0 1 3.06 1.28 4.33 4.33 0 0 1 1.28 3.06V23.6"/></svg>