<svg xmlns="http://www.w3.org/2000/svg" width="70" height="70" viewBox="0 0 70 70"><defs><style>.a,.c{fill:none}.a,.c,.d{stroke:#0090ff;stroke-miterlimit:10}.b,.d{fill:#0090ff}.c{stroke-width:.75px}.d{stroke-width:.25px}</style></defs><title>icon</title><path class="a" d="M43.65 45.53H26.11a.88.88 0 0 0-.88.91 18.94 18.94 0 0 0 3 9.91 5 5 0 0 0 4.1 2.14h5a5 5 0 0 0 4.1-2.14 18.94 18.94 0 0 0 3-9.91.88.88 0 0 0-.78-.91z"/><path class="a" d="M47 48.49h-2.65a19.09 19.09 0 0 1-2 6.44h2.91c2.58 0 3.22-5 3.22-5A1.49 1.49 0 0 0 47 48.49zM23.84 25h22.24v1.1A11.12 11.12 0 0 1 35 37.22 11.12 11.12 0 0 1 23.84 26.1V25z"/><path class="b" d="M32.57 43h4.79a2.78 2.78 0 0 0 3-2.52v-3.06h-.77v3.06a2 2 0 0 1-2.21 1.75h-4.81a2 2 0 0 1-2.21-1.75v-3.22h-.77v3.22A2.78 2.78 0 0 0 32.57 43z"/><path class="b" d="M29.97 39.45h9.98v.77h-9.98z"/><path class="c" d="M39.95 38.87h1.85v1.94h-1.85z"/><path class="c" d="M41.8 38.39h6.94v2.9H41.8z"/><path class="d" d="M60.33 57.74V24.68c0-.73 0-1.47-.1-2.2A15.21 15.21 0 0 0 45 8.72H25A15.36 15.36 0 0 0 9.76 22.51c-.06.7-.09 1.4-.09 2.11v33.12a3.55 3.55 0 0 0 3.55 3.55h43.57a3.55 3.55 0 0 0 3.54-3.55zm-8.2 2.77H18.06V25.23l.25.07a2.61 2.61 0 0 0 .71.1h31.89a2.58 2.58 0 0 0 1-.18l.26-.1zm1-38.11a.39.39 0 0 0-.39.39 1.84 1.84 0 0 1-1.84 1.84H19a1.84 1.84 0 0 1-1.84-1.84.39.39 0 0 0-.77 0 2.58 2.58 0 0 0 .82 1.89l.06.06v35.77h-4.06a2.78 2.78 0 0 1-2.77-2.77V24.61c0-.68 0-1.36.09-2A14.59 14.59 0 0 1 25 9.5h19.94a14.45 14.45 0 0 1 14.52 13.06c.07.7.1 1.42.1 2.13v33.05a2.78 2.78 0 0 1-2.77 2.77H52.9V24.46a2.58 2.58 0 0 0 .58-1.63.39.39 0 0 0-.35-.42z"/><circle class="c" cx="24.21" cy="19.02" r="1.71"/><circle class="c" cx="30.69" cy="19.02" r="1.71"/><circle class="c" cx="37.16" cy="19.02" r="1.71"/><circle class="c" cx="43.64" cy="19.02" r="1.71"/></svg>