<svg xmlns="http://www.w3.org/2000/svg" width="89" height="52" viewBox="0 0 89 52"><defs><style>.a{fill:#0090ff;}.b{fill:none;stroke:#0090ff;stroke-miterlimit:10;}</style></defs><title>icon_winlaptop</title><path class="a" d="M75.5,52.5v-38A.47.47,0,0,0,75,14H15a.47.47,0,0,0-.5.5v38a.47.47,0,0,0,.5.5H75A.47.47,0,0,0,75.5,52.5Zm-1-.5h-59V15h59Z" transform="translate(-0.5 -9)"/><path class="a" d="M88,55.9H79.5V11.5A2.48,2.48,0,0,0,77,9H13a2.48,2.48,0,0,0-2.5,2.5V55.9H2A1.54,1.54,0,0,0,.5,57.4v1.1C.5,59.7,7.9,61,8,61H82c.1,0,7.5-1.3,7.5-2.5V57.4A1.54,1.54,0,0,0,88,55.9ZM11.5,11.5A1.54,1.54,0,0,1,13,10H77a1.54,1.54,0,0,1,1.5,1.5V55.9H54a.76.76,0,0,0-.4.2c-.1.1-.1.2-.1.4v.1a.47.47,0,0,1-.5.5H37a.47.47,0,0,1-.5-.5v-.1a.6.6,0,0,0-.1-.4.52.52,0,0,0-.4-.2H11.5Zm77,46.8A36.89,36.89,0,0,1,82,60H8a36.89,36.89,0,0,1-6.5-1.7v-.9a.47.47,0,0,1,.5-.5h8.8c.1,0,.1.1.2.1s.2,0,.2-.1H35.5A1.6,1.6,0,0,0,36.9,58h16a1.39,1.39,0,0,0,1.4-1.1H78.7c.1,0,.1.1.2.1s.2,0,.2-.1H88a.47.47,0,0,1,.5.5Z" transform="translate(-0.5 -9)"/><path class="b" d="M44.63,25.68V33.8a.17.17,0,0,0,.17.17H55.94a.17.17,0,0,0,.17-.17V24.06a.17.17,0,0,0-.2-.17L44.78,25.51a.17.17,0,0,0-.15.17Zm0,0M42.41,44.37a.17.17,0,0,0,.17-.17v-8a.17.17,0,0,0-.17-.17H34.07a.17.17,0,0,0-.17.17v6.86a.17.17,0,0,0,.15.17l8.34,1.14Zm0,0M34.07,34h8.34a.17.17,0,0,0,.17-.17V25.88a.17.17,0,0,0-.06-.13.17.17,0,0,0-.14,0L34,26.85a.17.17,0,0,0-.15.17V33.8a.17.17,0,0,0,.17.17Zm0,0M55.94,46.11a.17.17,0,0,0,.17-.17V36.2a.17.17,0,0,0-.17-.17H44.8a.17.17,0,0,0-.17.17v8.18a.17.17,0,0,0,.15.17l11.13,1.57Zm0,0" transform="translate(-0.5 -9)"/></svg>