<svg xmlns="http://www.w3.org/2000/svg" width="70" height="70" viewBox="0 0 70 70"><defs><style>.a,.c{fill:none;stroke:#0090ff;stroke-miterlimit:10}.b{fill:#0090ff}.c{stroke-linecap:round}</style></defs><title>icon</title><path class="a" d="M58 43.92h-2.25v-6.55H58c.58 0 1.05.66 1.05 1.48v3.59c.04.82-.43 1.48-1.05 1.48z"/><path class="b" d="M51 28.73H15.55a.49.49 0 1 1 0-1H51a.49.49 0 1 1 0 1zM29.59 22.19a.4.4 0 0 1-.39-.33l-.09-.6a.4.4 0 1 1 .78-.12l.09.6a.4.4 0 0 1-.33.45zM23.83 21.43a.39.39 0 0 1-.19 0l-.54-.29a.4.4 0 1 1 .38-.69l.54.29a.4.4 0 0 1-.19.74zM21.44 15.47a.4.4 0 0 1-.24-.71l.48-.38a.4.4 0 1 1 .49.62l-.48.38a.39.39 0 0 1-.25.09zM35.46 21.41a.4.4 0 0 1-.35-.21l-.28-.54a.4.4 0 0 1 .7-.37l.28.54a.4.4 0 0 1-.35.58zM32.11 18.17a.4.4 0 0 1-.35-.58l.28-.54a.4.4 0 1 1 .7.37l-.28.54a.4.4 0 0 1-.35.21zM28.33 14.94a.4.4 0 0 1-.35-.58l.28-.54a.4.4 0 1 1 .7.37l-.28.54a.4.4 0 0 1-.35.21zM42.56 16.48a.39.39 0 0 1-.33-.18l-.34-.51a.4.4 0 1 1 .66-.44l.34.51a.4.4 0 0 1-.33.61zM41.43 22.46a.4.4 0 0 1-.36-.57l.26-.55a.4.4 0 1 1 .71.34l-.26.55a.4.4 0 0 1-.35.23zM36.92 14.67a.4.4 0 0 1-.36-.57l.26-.55a.4.4 0 0 1 .71.34l-.26.55a.4.4 0 0 1-.35.23z"/><path class="c" d="M47.65 14.67H19a2 2 0 0 0-2.18 1.72v1.94a3.16 3.16 0 0 0 .85 2.12 2.5 2.5 0 0 1 1.37 2l.16 5.77h28.27l.16-5.77a2.5 2.5 0 0 1 1.37-2 3.16 3.16 0 0 0 .85-2.12v-1.95a2 2 0 0 0-2.2-1.71z"/><path class="a" d="M52.78 22.42h-5.16l-.16 5.77H19.19L19 22.42h-5.12a3 3 0 0 0-3 3v30a2.32 2.32 0 0 0 2.32 2.32h40.22a2.32 2.32 0 0 0 2.32-2.32v-30a3 3 0 0 0-2.96-3z"/><path class="c" d="M47.65 12.25H19A2 2 0 0 0 16.82 14v1.94a2.21 2.21 0 0 0 0 .26A2.07 2.07 0 0 1 19 14.67h28.65a2.07 2.07 0 0 1 2.16 1.5 2.22 2.22 0 0 0 0-.26V14a2 2 0 0 0-2.16-1.75z"/><path class="b" d="M29.59 25.39a.4.4 0 0 1-.39-.33l-.09-.6a.4.4 0 1 1 .78-.12l.09.6a.4.4 0 0 1-.33.45zM23.83 24.63a.39.39 0 0 1-.19 0l-.54-.29a.4.4 0 1 1 .38-.69l.54.29a.4.4 0 0 1-.19.74zM21.44 18.68a.4.4 0 0 1-.24-.68l.48-.38a.4.4 0 1 1 .49.62l-.48.38a.39.39 0 0 1-.25.06zM35.46 24.61a.4.4 0 0 1-.35-.21l-.28-.54a.4.4 0 0 1 .7-.37l.28.54a.4.4 0 0 1-.35.58zM32.11 21.38a.4.4 0 0 1-.35-.58l.28-.54a.4.4 0 1 1 .7.37l-.28.54a.4.4 0 0 1-.35.21zM28.33 18.15a.4.4 0 0 1-.35-.58l.28-.54a.4.4 0 1 1 .7.37l-.28.54a.4.4 0 0 1-.35.21zM42.56 19.69a.39.39 0 0 1-.33-.18L41.9 19a.4.4 0 1 1 .66-.44l.34.51a.4.4 0 0 1-.33.61zM41.43 25.67a.4.4 0 0 1-.36-.57l.26-.55a.4.4 0 0 1 .71.34l-.26.55a.4.4 0 0 1-.35.23zM36.92 17.88a.4.4 0 0 1-.36-.57l.26-.55a.4.4 0 1 1 .71.34l-.26.55a.4.4 0 0 1-.35.23zM33.33 46.59a.4.4 0 0 1-.4-.4v-.64a.4.4 0 1 1 .79 0v.64a.4.4 0 0 1-.39.4zM35.91 47.62a.4.4 0 0 1-.28-.68l.46-.46a.4.4 0 0 1 .56.56l-.46.46a.39.39 0 0 1-.28.12zM30.75 47.62a.39.39 0 0 1-.28-.12L30 47a.4.4 0 1 1 .56-.56l.46.46a.4.4 0 0 1-.28.68z"/><circle class="a" cx="33.33" cy="50.48" r="2.39" transform="rotate(-4.79 33.336 50.494)"/><path class="b" d="M33.63 50.65a.4.4 0 0 1-.3-.65l1.24-1.46a.4.4 0 1 1 .6.51l-1.24 1.46a.4.4 0 0 1-.3.14z"/></svg>