<svg xmlns="http://www.w3.org/2000/svg" width="70" height="70" viewBox="0 0 70 70"><defs><style>.a{fill:#0090ff}</style></defs><title>icon</title><path class="a" d="M44.82 48.94a3.33 3.33 0 0 0-1.66-2.39l.09-.12-.09.12.09-.12-.09.12a2.19 2.19 0 0 1-.47-3.7 3.33 3.33 0 0 0 1-2.73.48.48 0 0 0-.48-.43h-.06a.49.49 0 0 0-.42.55 2.38 2.38 0 0 1-.79 2 3.15 3.15 0 0 0 .65 5.12 2.2 2.2 0 0 1 .47 3.7 3.33 3.33 0 0 0-1 2.73.49.49 0 0 0 1-.12 2.38 2.38 0 0 1 .79-2 3.33 3.33 0 0 0 .97-2.73zM39.28 18h1.44a.49.49 0 0 0 0-1h-1.44a.49.49 0 1 0 0 1zM29.08 48.94a3.33 3.33 0 0 0-1.66-2.39l.09-.12-.09.12.09-.12-.09.12a2.19 2.19 0 0 1-.47-3.7 3.33 3.33 0 0 0 1-2.73.49.49 0 0 0-.48-.43h-.06a.49.49 0 0 0-.42.55 2.38 2.38 0 0 1-.79 2 3.15 3.15 0 0 0 .65 5.12 2.2 2.2 0 0 1 .47 3.7 3.33 3.33 0 0 0-1 2.73.49.49 0 0 0 1-.12 2.38 2.38 0 0 1 .79-2 3.33 3.33 0 0 0 .97-2.73zM37 52.86a2.75 2.75 0 0 0-1.44-2c-.57-.39-.92-.65-1-1.3a1.82 1.82 0 0 1 .51-1.56 2.74 2.74 0 0 0 .77-2.31.49.49 0 0 0-.2-.32.48.48 0 0 0-.28-.09h-.08a.49.49 0 0 0-.41.56 1.82 1.82 0 0 1-.57 1.55 2.78 2.78 0 0 0-.77 2.31 2.75 2.75 0 0 0 1.44 2c.57.39.92.65 1 1.3a1.83 1.83 0 0 1-.57 1.55 2.75 2.75 0 0 0-.77 2.31.49.49 0 1 0 1-.15 1.83 1.83 0 0 1 .57-1.55 2.75 2.75 0 0 0 .8-2.3zM34.3 18h1.44a.49.49 0 0 0 0-1H34.3a.49.49 0 0 0 0 1zM7.96 27.28h54.08v.98H7.96z"/><path class="a" d="M6.61 37.35h56.78a2.94 2.94 0 0 0 2.94-2.94V15.65a2.94 2.94 0 0 0-2.94-2.94H6.61a2.94 2.94 0 0 0-2.94 2.94v18.76a2.94 2.94 0 0 0 2.94 2.94zm-2-21.7a2 2 0 0 1 2-2h56.78a2 2 0 0 1 2 2v18.76a2 2 0 0 1-2 2H6.61a2 2 0 0 1-2-2z"/><path class="a" d="M7.96 31.74h54.08v.98H7.96zM29.28 18h1.44a.49.49 0 0 0 0-1h-1.44a.49.49 0 0 0 0 1z"/></svg>