<svg xmlns="http://www.w3.org/2000/svg" width="70" height="70" viewBox="0 0 70 70"><defs><style>.a{fill:#0090ff}</style></defs><title>icon</title><path class="a" d="M66.49 13.83a1.17 1.17 0 0 0-1.16-1.17H4.67a1.17 1.17 0 0 0-1.16 1.17v35.9a1.17 1.17 0 0 0 1.16 1.16h60.66a1.17 1.17 0 0 0 1.16-1.16zm-.85 35.9a.31.31 0 0 1-.31.31H4.67a.31.31 0 0 1-.31-.31v-35.9a.31.31 0 0 1 .31-.31h60.66a.31.31 0 0 1 .31.31z"/><path class="a" d="M6.82 15.49v32.58h56.36V15.49zm55.55 31.77H7.63v-31h54.74zM31.39 50v7.21h7.21V50zm6.36 6.36h-5.51v-5.47h5.51z"/><path class="a" d="M50 56.41H20a.46.46 0 1 0 0 .92h30a.46.46 0 1 0 0-.92z"/></svg>