<svg xmlns="http://www.w3.org/2000/svg" width="89" height="52" viewBox="0 0 89 52"><defs><style>.a{fill:#0090ff;}.b{fill:none;stroke:#0090ff;stroke-linecap:round;stroke-miterlimit:10;}</style></defs><title>icon_maclaptop</title><path class="a" d="M75.5,52.5v-38A.47.47,0,0,0,75,14H15a.47.47,0,0,0-.5.5v38a.47.47,0,0,0,.5.5H75A.47.47,0,0,0,75.5,52.5Zm-1-.5h-59V15h59Z" transform="translate(-0.5 -9)"/><path class="a" d="M88,55.9H79.5V11.5A2.48,2.48,0,0,0,77,9H13a2.48,2.48,0,0,0-2.5,2.5V55.9H2A1.54,1.54,0,0,0,.5,57.4v1.1C.5,59.7,7.9,61,8,61H82c.1,0,7.5-1.3,7.5-2.5V57.4A1.54,1.54,0,0,0,88,55.9ZM11.5,11.5A1.54,1.54,0,0,1,13,10H77a1.54,1.54,0,0,1,1.5,1.5V55.9H54a.76.76,0,0,0-.4.2c-.1.1-.1.2-.1.4v.1a.47.47,0,0,1-.5.5H37a.47.47,0,0,1-.5-.5v-.1a.6.6,0,0,0-.1-.4.52.52,0,0,0-.4-.2H11.5Zm77,46.8A36.89,36.89,0,0,1,82,60H8a36.89,36.89,0,0,1-6.5-1.7v-.9a.47.47,0,0,1,.5-.5h8.8c.1,0,.1.1.2.1s.2,0,.2-.1H35.5A1.6,1.6,0,0,0,36.9,58h16a1.39,1.39,0,0,0,1.4-1.1H78.7c.1,0,.1.1.2.1s.2,0,.2-.1H88a.47.47,0,0,1,.5.5Z" transform="translate(-0.5 -9)"/><path class="b" d="M50.11,35.1C49.6,32.52,52,31,52,31a4.69,4.69,0,0,0-2.56-1.73,4.45,4.45,0,0,0-3.21.42,3.58,3.58,0,0,1-1.2.33c-1.16,0-2-1.22-4.21-.67a5.2,5.2,0,0,0-3.41,4.23A11.48,11.48,0,0,0,39,40.42c1.2,2.07,2.43,2.85,3.29,2.87s1.74-.62,2.79-.78,1.69.38,2.71.67,1.38,0,2.56-1,2.25-3.87,2.25-3.87a4.15,4.15,0,0,1-2.5-3.23Zm0,0" transform="translate(-0.5 -9)"/><path class="b" d="M47.84,26.66a3.52,3.52,0,0,0,.75-2.95,5.47,5.47,0,0,0-2.66,1.39A4,4,0,0,0,45,28a5,5,0,0,0,2.8-1.31Zm0,0" transform="translate(-0.5 -9)"/></svg>