<svg id="Warstwa_1" data-name="Warstwa 1" xmlns="http://www.w3.org/2000/svg" width="27.67" height="27.67" viewBox="0 0 27.67 27.67"><defs><style>.cls-1{fill:#444;stroke:#444;stroke-miterlimit:10;stroke-width:0.57px;}</style></defs><title>iconwallet</title><path class="cls-1" d="M25.7,12.14h-.63V7.87a1.77,1.77,0,0,0-1.74-1.79h-.48V3.23a1.71,1.71,0,0,0-1.63-1.79h-.11l-18,4.64h0A1.78,1.78,0,0,0,1.44,7.87V24.44a1.77,1.77,0,0,0,1.74,1.79H23.33a1.78,1.78,0,0,0,1.79-1.79V20.06h.58a.5.5,0,0,0,.53-.53V12.67a.53.53,0,0,0-.53-.53Zm-4.38-9.7a.78.78,0,0,1,.53.79V6.08H7.29Zm2.75,22a.77.77,0,0,1-.74.79H3.18a.77.77,0,0,1-.74-.79V7.87a.77.77,0,0,1,.74-.79H23.27a.77.77,0,0,1,.74.79v4.27H18.79a4,4,0,0,0,0,7.92h5.28Zm1.1-5.39H18.79a2.9,2.9,0,1,1,0-5.79h6.38Zm0,0"/><path class="cls-1" d="M18.21,16.21a.52.52,0,0,0,.53.52h.47a.53.53,0,1,0,0-1.05h-.47a.5.5,0,0,0-.53.53Zm0,0"/></svg>