<?xml version="1.0" encoding="utf-8"?>
<!-- Generator: Adobe Illustrator 21.0.0, SVG Export Plug-In . SVG Version: 6.00 Build 0)  -->
<svg version="1.1" id="Warstwa_1" xmlns="http://www.w3.org/2000/svg" xmlns:xlink="http://www.w3.org/1999/xlink" x="0px" y="0px"
	 viewBox="0 0 85 85" style="enable-background:new 0 0 85 85;" xml:space="preserve">
<style type="text/css">
	.st0{fill:#0090FF;}
</style>
<g>
	<path class="st0" d="M41.4,6.6l0,37.6c0,0.3,0.1,0.6,0.3,0.8c0.2,0.2,0.5,0.3,0.8,0.3c0.3,0,0.6-0.1,0.8-0.3
		c0.2-0.2,0.3-0.5,0.3-0.8V6.6c0-0.6-0.5-1.1-1.1-1.1c0,0,0,0,0,0c0,0-0.1,0-0.1,0h0C41.8,5.6,41.4,6.1,41.4,6.6z"/>
	<path class="st0" d="M63.7,22c-0.2-0.2-0.5-0.3-0.8-0.3c-0.3,0-0.6,0.2-0.8,0.4c-0.4,0.5-0.3,1.2,0.1,1.6C69.1,29.6,73,38,73,46.8
		c0,16.7-13.6,30.4-30.4,30.5h-0.1C25.7,77.3,12,63.6,12,46.8c0-8.8,3.9-17.2,10.7-23.1c0.5-0.4,0.6-1.1,0.2-1.6
		c-0.2-0.3-0.6-0.5-1-0.4l0,0c-0.2,0-0.5,0.1-0.7,0.3C14,28.3,9.8,37.3,9.8,46.8c0,17.9,14.5,32.5,32.4,32.7l0.2,0h0.1
		c18,0,32.7-14.7,32.7-32.7C75.2,37.3,71,28.3,63.7,22z"/>
</g>
</svg>
