<svg xmlns="http://www.w3.org/2000/svg" width="52.13" height="52.13" viewBox="0 0 52.13 52.13"><defs><style>.a{fill:#0090ff;stroke:#0090ff;stroke-miterlimit:10;stroke-width:0.25px;}</style></defs><title>icon_phonecall</title><path class="a" d="M49.49,19.92a1,1,0,1,1-1-1A1,1,0,0,1,49.49,19.92ZM24.2,21.52c2,1.86,3.48,4.3,3.48,5.55a6.29,6.29,0,0,1-1.41,3.71c-1.36,2-2.53,3.77,3.58,9.88,3.2,3.19,5.49,4.68,7.21,4.68a4.8,4.8,0,0,0,2.67-1.11,6.28,6.28,0,0,1,3.7-1.41c1.25,0,3.68,1.53,5.55,3.48,2.24,2.35,6.41,6.72.59,12.55a8.66,8.66,0,0,1-6.14,2.54C32.53,61.38,9.12,38,9.12,27.07a8.64,8.64,0,0,1,2.53-6.13c2-2,3.93-3,5.89-3C20.11,18,22.26,19.68,24.2,21.52Zm2.38,5.55c0-.74-1.19-2.9-3.14-4.75-1.65-1.58-3.61-3.26-5.9-3.26-1.66,0-3.33.87-5.12,2.65h0a7.56,7.56,0,0,0-2.21,5.36c0,4.62,5,12.63,12.77,20.4S38.78,60.29,43.43,60.29a7.56,7.56,0,0,0,5.36-2.22c4.67-4.67,2.26-8-.61-11-1.86-1.94-4-3.14-4.75-3.14a5.33,5.33,0,0,0-3.1,1.22,5.78,5.78,0,0,1-3.28,1.29c-2.06,0-4.53-1.54-8-5-6.28-6.28-5.55-8.54-3.71-11.26A5.33,5.33,0,0,0,26.58,27.07ZM54.11,18.9a1,1,0,1,0,1,1A1,1,0,0,0,54.11,18.9Zm-10.26,1a1,1,0,1,0-1,1A1,1,0,0,0,43.85,19.92ZM61,20.38c0,6-5.62,10.87-12.54,10.87a14.28,14.28,0,0,1-3.61-.46l-.17,0-5.54,3.74a.55.55,0,0,1-.85-.55l1.1-6-.15-.14a10.09,10.09,0,0,1-3.33-7.38c0-6,5.63-10.87,12.54-10.87S61,14.38,61,20.38Zm-1.1,0c0-5.39-5.13-9.78-11.44-9.78S37,15,37,20.37a9.06,9.06,0,0,0,3.34,6.9.55.55,0,0,1,.18.51l-.92,5.06,4.67-3.16a.55.55,0,0,1,.46-.07,13.17,13.17,0,0,0,3.71.53C54.77,30.15,59.91,25.77,59.91,20.37Z" transform="translate(-8.99 -9.38)"/></svg>