<svg id="Warstwa_1" data-name="Warstwa 1" xmlns="http://www.w3.org/2000/svg" width="27.49" height="27.49" viewBox="0 0 27.49 27.49"><defs><style>.cls-1{fill:#444;}</style></defs><title>iconpin</title><path class="cls-1" d="M13.75,13.54a3.46,3.46,0,1,1,3.46-3.46A3.46,3.46,0,0,1,13.75,13.54Zm0-5.5a2,2,0,1,0,2,2A2,2,0,0,0,13.75,8Z"/><path class="cls-1" d="M13.75,25.89l-.56-.7C12.87,24.77,5.25,15,5.25,10.54a8.5,8.5,0,0,1,17,0c0,4.49-7.62,14.23-7.95,14.65Zm0-22.43a7.09,7.09,0,0,0-7.09,7.08c0,3.07,4.69,9.88,7.09,13.05,2.39-3.17,7.08-10,7.08-13A7.09,7.09,0,0,0,13.75,3.46Z"/></svg>