<?xml version="1.0" encoding="utf-8"?>
<!-- Generator: Adobe Illustrator 21.0.0, SVG Export Plug-In . SVG Version: 6.00 Build 0)  -->
<svg version="1.1" id="Warstwa_1" xmlns="http://www.w3.org/2000/svg" xmlns:xlink="http://www.w3.org/1999/xlink" x="0px" y="0px"
	 viewBox="0 0 85 85" style="enable-background:new 0 0 85 85;" xml:space="preserve">
<style type="text/css">
	.st0{fill:#0090FF;}
</style>
<path class="st0" d="M30.3,82.4c0.3,0.2,0.7,0.1,0.9-0.2l33.5-48.1c0.2-0.2,0.1-0.4,0-0.7c-0.1-0.2-0.3-0.3-0.6-0.3H45.4l8.9-29.8
	c0.1-0.2,0-0.5-0.2-0.8c-0.1-0.2-0.3,0-0.5,0c0,0-0.1,0.3-0.1,0.3h0c-0.2,0-0.4-0.2-0.5,0L20.2,50.3c-0.2,0.2-0.1,0.6,0,0.8
	c0.1,0.3,0.4,0.5,0.6,0.5H39l-9.1,30.1C29.8,82,30,82.3,30.3,82.4z M40.7,50.8c0.1-0.2,0-0.4-0.2-0.6C40.4,50,40.2,50,40,50H22.3
	l0.3-0.5L51.5,7.4l-7.8,26.1c-0.1,0.2,0,0.6,0.1,0.8c0.2,0.2,0.4,0.5,0.6,0.5h18.3L62.5,35L32.7,77.5L40.7,50.8z"/>
</svg>
