<svg xmlns="http://www.w3.org/2000/svg" viewBox="0 0 70 70" width="70" height="70"><style>.st0{fill:none;stroke:#0090ff;stroke-linecap:round;stroke-linejoin:round;stroke-miterlimit:10}</style><path class="st0" d="M15.4 35.8L9.8 54.4c-.1.4-.2.8-.2 1.2 0 2.2 1.8 4.1 4.1 4.1 1.4 0 2.6-.7 3.4-1.8l16.3-23.3M54.4 39.2l-12.9-5.1v-18L54.4 11z"/><path class="st0" d="M41.5 34.1l-24.4 1.7c-6.2.4-11.5-4.5-11.5-10.7 0-6.2 5.3-11.2 11.5-10.7l24.4 1.7"/><circle class="st0" cx="17.2" cy="25.1" r="6.4"/><path class="st0" d="M62 21.3h-2.5M64.6 16.1h-5.1M64.6 34.1h-5.1M62 28.9h-2.5"/></svg>