<svg xmlns="http://www.w3.org/2000/svg" viewBox="0 0 70 70" width="70" height="70"><style>.st0{fill:#0090ff}.st1{fill:none;stroke:#0090ff;stroke-miterlimit:10}</style><path class="st0" d="M34.4 18.138h-.1c-.2.1-.4.3-.4.6v8.9h-5.1c-1.9-2.1-4.7-3.3-7.7-3.3-5.9 0-10.6 4.8-10.6 10.6v15.6c0 2.5 2 4.5 4.5 4.5 1.3 0 2.8-.7 3.8-1.9 0 0 9.7-10.6 10.1-11h11.4c.3.4 10.1 11 10.1 11 1 1.1 2.4 1.9 3.8 1.9 2.5 0 4.5-2 4.5-4.5v-15.6c0-5.9-4.8-10.6-10.6-10.6-3 0-5.8 1.3-7.7 3.3h-5.1v-8.9c-.4-.3-.6-.6-.9-.6zm-13.4 7.3c2.8 0 5.3 1.2 7.1 3.2.1.1.3.2.4.2h11.8c.2 0 .3-.1.4-.2 1.7-1.9 4.3-3.2 7.1-3.2 5.2 0 9.5 4.2 9.5 9.5s-4.2 9.5-9.5 9.5c-2.8 0-5.3-1.2-7.1-3.2-.1-.1-.3-.2-.4-.2H28.5c-.2 0-.3.1-.4.2-1.7 1.9-4.3 3.2-7.1 3.2-5.2 0-9.5-4.2-9.5-9.5s4.2-9.5 9.5-9.5zm-9.5 14.2c1.7 3.5 5.3 5.9 9.5 5.9 1.2 0 2.4-.2 3.5-.6l-6.7 7.5c-.8.9-2 1.5-2.9 1.5-1.9 0-3.3-1.5-3.3-3.3v-11zm45.8 0v10.9c0 1.9-1.5 3.3-3.3 3.3-.9 0-2.1-.6-2.9-1.5l-6.7-7.5c1.1.4 2.3.6 3.5.6 4 .1 7.6-2.3 9.4-5.8z"/><path class="st0" d="M20 30h1v9h-1z"/><path class="st0" d="M16 34h9v1h-9z"/><circle class="st1" cx="48.5" cy="31.5" r="1.5"/><circle class="st1" cx="52.5" cy="35.5" r="1.5"/><circle class="st1" cx="44.5" cy="35.5" r="1.5"/><circle class="st1" cx="48.5" cy="39.5" r="1.5"/></svg>