<svg xmlns="http://www.w3.org/2000/svg" width="70" height="70" viewBox="0 0 70 70"><defs><style>.a{fill:none;stroke:#0090ff;stroke-miterlimit:10}.b{fill:#0090ff}</style></defs><title>icon</title><path class="a" d="M44 29L20.3 54.84c-1.57 1.71-4 2-5.42.73l-1.59-1.45c-7.31-6.7-9.07-16.67-1-25.43l4.38-4.78c8-8.76 20.45-10.42 27.76-3.73 2.26 2.12 2.08 6.06-.43 8.82z"/><path class="a" d="M15.66 43.7a.69.69 0 0 1-1 0 6.6 6.6 0 0 1 .13-8.78l5.84-6.37a6.6 6.6 0 0 1 8.74-.89.69.69 0 0 1 .1 1zM59.19 39.49c3.52 3.22 4.81 7.51 3 9.51s-6.19 1.07-9.74-2.15-2.59-5.41-.73-7.44 3.96-3.14 7.47.08z"/><path class="b" d="M54.92 48.66l.84.77c-1.59 1-4.63.13-7.14-2.18-1.27-1.17-1.88-2.21-1.86-3.19a3.4 3.4 0 0 1 .9-2.06l3 2.79a3.94 3.94 0 0 1-.64-2.11l-1.65-1.51a3.24 3.24 0 0 1 2.23-1.1 2.56 2.56 0 0 1 .46 0c.16-.21.34-.43.53-.64a3.62 3.62 0 0 0-3.78 1.18l-7.65-7-.76.83 7.65 7A4.21 4.21 0 0 0 46 44.05c0 1.21.67 2.44 2.11 3.76a9.57 9.57 0 0 0 6 2.79 3.41 3.41 0 0 0 2.6-1 11.67 11.67 0 0 1-1.79-.94z"/><path class="b" d="M41.835 31.112l.764-.833 19.965 18.295-.763.833z"/><path class="a" d="M23.86 18.38a24.79 24.79 0 0 1 7.92-2.28 3.41 3.41 0 0 0-4.22-2.34l-2.78.8A1.94 1.94 0 0 0 23.45 17z"/><path class="b" d="M12.7 53.92a.38.38 0 0 1-.28-.63l3.17-3.47a.38.38 0 0 1 .56.51L13 53.8a.37.37 0 0 1-.3.12zM11 51.95a.38.38 0 0 1-.28-.63l2-2.23a.38.38 0 0 1 .56.51l-2 2.23a.37.37 0 0 1-.28.12zM14.82 55.76a.38.38 0 0 1-.28-.63l4.9-5.29a.38.38 0 0 1 .55.51l-4.9 5.29a.37.37 0 0 1-.27.12z"/></svg>