<svg id="Warstwa_1" data-name="Warstwa 1" xmlns="http://www.w3.org/2000/svg" viewBox="0 0 51 56"><defs><style>.cls-1{fill:#0090ff;}</style></defs><title>plugins_icon</title><path class="cls-1" d="M44,13.21,28.87,4.47a7,7,0,0,0-7,0l-15,8.74A6.89,6.89,0,0,0,3.5,19.27V36.75A6.89,6.89,0,0,0,6.86,42.8l15.07,8.74a7.06,7.06,0,0,0,7,0L44,42.81a7,7,0,0,0,3.48-6.06V19.27A7,7,0,0,0,44,13.21ZM24.5,46.57v3.17A1.31,1.31,0,0,1,23.21,51a5,5,0,0,1-.87-.43l-15-8.74A5.81,5.81,0,0,1,4.5,36.75V19.27a2.66,2.66,0,0,0,.09-.55,1,1,0,0,1,1.52-.84l15.35,9.41a6.55,6.55,0,0,1,3,5.72Zm.87-19.4a6.69,6.69,0,0,1-3.46-1L6,16.54a.77.77,0,0,1-.15-1.21L6,15.11a5.85,5.85,0,0,1,1.24-1L22.42,5.41a6,6,0,0,1,5.91,0l15.14,8.74a5.85,5.85,0,0,1,1.23,1,1,1,0,0,1-.2,1.6L28.83,26.2A6.69,6.69,0,0,1,25.37,27.17ZM46.5,36.75a6,6,0,0,1-3,5.11L28.34,50.6c-.11.07-.59.21-1.05.37a1.36,1.36,0,0,1-1.79-1.23V33a6.92,6.92,0,0,1,3.43-5.72l15.84-9.49a1.1,1.1,0,0,1,1.67.74,3,3,0,0,1,.07.73Z"/></svg>