<svg xmlns="http://www.w3.org/2000/svg" width="66.67" height="48.79" viewBox="0 0 66.67 48.79"><defs><style>.a{fill:#0090ff;}</style></defs><title>icon_forum</title><path class="a" d="M3.72,45A4.46,4.46,0,0,1,5.5,42.59c.35-.21,2.34-1,4.11-1.63,2.2-.85,4.54-1.7,5.46-2.2a4.26,4.26,0,0,0,1.77-2.91,5,5,0,0,0,0-1.06,2.12,2.12,0,0,0-.28-.57l-.07-.07-.35-.35a11.28,11.28,0,0,1-2.41-4.4c-.64-2.41-1.13-7.16,1-10.07a6.84,6.84,0,0,1,5.53-2.48h.21a10.61,10.61,0,0,1,3.19.64c.14-.43.28-.85.43-1.35a11.62,11.62,0,0,0-2.91-.71v-.07H19.54v.07a7.71,7.71,0,0,0-6,3c-3,4.11-1.42,10.57-1.28,11.28a13.13,13.13,0,0,0,2.77,5l.35.35a.07.07,0,0,0,.07.07v.5a2.6,2.6,0,0,1-1.06,1.84c-.78.43-3.19,1.35-5.25,2.13-2.41.92-3.9,1.49-4.4,1.77a5.92,5.92,0,0,0-2.34,3.12c-.57,1.42-.78,7.87-.78,8.08v.14l.07.07c.21.57,1.42,2.06,8.65,2.77,0-.28.07-.78.14-1.42-5.53-.5-7.09-1.49-7.45-1.77C3.16,51.31,3.37,46,3.72,45Z" transform="translate(-1.67 -10.6)"/><path class="a" d="M57.62,55.07c-.21-3.4-.43-7-.85-8.23a6.63,6.63,0,0,0-2.55-3.47,46.62,46.62,0,0,0-5.39-2.2c-2.77-1.06-5.6-2.13-6.67-2.69s-1.77-3.12-1.7-4a2.83,2.83,0,0,1,.71-.92,15.75,15.75,0,0,0,3.26-6c.85-3.12,1.49-9.5-1.42-13.47-1.63-2.2-4.26-3.4-7.66-3.55H35c-3.4.14-6,1.28-7.66,3.55-2.91,3.9-2.27,10.28-1.42,13.47A15.63,15.63,0,0,0,29,33.44h0l.07.07h0a6.41,6.41,0,0,1,.71.92c.28.92-.78,3.4-1.77,4a51.5,51.5,0,0,1-6.74,2.69A56.87,56.87,0,0,0,16,43.23a6,6,0,0,0-2.55,3.47c-.43,1.21-.64,4.89-.85,8.3a1.77,1.77,0,0,1-.07.71v.35l.21.21c.78.71,4.68,3.12,22.41,3.12C52.66,59.4,56.7,57,57.48,56.2l.28-.21v-.35C57.62,55.64,57.62,55.42,57.62,55.07Zm-22.55,3c-15.82,0-20.21-2-21.13-2.62v-.35c.07-1.7.35-6.74.78-7.87a4.61,4.61,0,0,1,2.06-2.77c.43-.28,3.19-1.35,5.11-2.06a73.88,73.88,0,0,0,6.88-2.77c1.42-.85,3-4,2.34-5.67a5.2,5.2,0,0,0-1-1.42h0a15.09,15.09,0,0,1-2.91-5.32c-.78-2.91-1.42-8.72,1.21-12.27,1.35-1.84,3.62-2.84,6.6-3h.28c3,.07,5.18,1.06,6.53,3,2.62,3.47,2,9.36,1.21,12.27a14.47,14.47,0,0,1-2.91,5.32c-.71.78-1.06,1.21-1.06,1.84,0,1.06.78,4.26,2.48,5.25,1.21.64,4.11,1.77,7,2.84,1.84.71,4.61,1.7,5,2a4.9,4.9,0,0,1,2.06,2.77c.43,1.13.64,6.17.78,7.8v.35C55.21,56.21,50.82,58.12,35.07,58.12Z" transform="translate(-1.67 -10.6)"/><path class="a" d="M68.33,52.23c0-.14-.21-6.6-.78-8.09A5.84,5.84,0,0,0,65.21,41a26.52,26.52,0,0,0-4.4-1.77,54.79,54.79,0,0,1-5.25-2.13,2.87,2.87,0,0,1-1.06-1.84v-.5l.07-.07.35-.35a13.54,13.54,0,0,0,2.77-5c.21-.71,1.77-7.16-1.28-11.28a7.93,7.93,0,0,0-6-3v-.07H48.83V15a9.23,9.23,0,0,0-2.91.71,7.47,7.47,0,0,1,.43,1.35,7.55,7.55,0,0,1,3.19-.64h.21a6.84,6.84,0,0,1,5.53,2.48c2.13,2.91,1.63,7.73,1,10.07a11.28,11.28,0,0,1-2.41,4.4l-.35.35-.07.07a2.14,2.14,0,0,0-.28.57,2.57,2.57,0,0,0,0,1.06,3.81,3.81,0,0,0,1.77,2.91c.92.5,3.19,1.35,5.46,2.2,1.77.64,3.76,1.42,4.11,1.63a4.47,4.47,0,0,1,1.77,2.41c.35,1,.57,6.31.64,7.45-.35.28-1.91,1.28-7.45,1.84.07.57.07,1.06.14,1.42,7.23-.71,8.44-2.27,8.65-2.77l.07-.14Z" transform="translate(-1.67 -10.6)"/></svg>