<svg id="Warstwa_1" data-name="Warstwa 1" xmlns="http://www.w3.org/2000/svg" width="48" height="48" viewBox="0 0 48 48"><defs><style>.cls-1{fill:#444;}</style></defs><title>icontime</title><path class="cls-1" d="M24,47A23,23,0,1,1,47,24,23,23,0,0,1,24,47ZM24,4A20,20,0,1,0,44,24,20,20,0,0,0,24,4Z"/><path class="cls-1" d="M24.33,23.69a1.26,1.26,0,0,1-1.26-1.27V7.12a1.27,1.27,0,0,1,2.53,0v15.3A1.27,1.27,0,0,1,24.33,23.69Z"/><path class="cls-1" d="M24.33,42.81a1.26,1.26,0,0,1-1.26-1.27V39.63a1.27,1.27,0,1,1,2.53,0v1.91A1.27,1.27,0,0,1,24.33,42.81Z"/><path class="cls-1" d="M41.54,25.6H39.63a1.27,1.27,0,1,1,0-2.53h1.91a1.27,1.27,0,1,1,0,2.53Z"/><path class="cls-1" d="M9,25.6H7.12a1.27,1.27,0,0,1,0-2.53H9A1.27,1.27,0,0,1,9,25.6Z"/><path class="cls-1" d="M35.15,14.78a1.26,1.26,0,0,1-.9-.37,1.27,1.27,0,0,1,0-1.79l1.36-1.35a1.27,1.27,0,0,1,1.79,1.79l-1.35,1.35A1.27,1.27,0,0,1,35.15,14.78Z"/><path class="cls-1" d="M12.16,37.77a1.27,1.27,0,0,1-.89-2.16l1.35-1.36a1.27,1.27,0,1,1,1.79,1.8L13.06,37.4A1.26,1.26,0,0,1,12.16,37.77Z"/><path class="cls-1" d="M36.5,37.77a1.23,1.23,0,0,1-.89-.37l-1.36-1.35a1.27,1.27,0,0,1,1.8-1.8l1.35,1.36a1.27,1.27,0,0,1-.9,2.16Z"/><path class="cls-1" d="M13.52,14.78a1.26,1.26,0,0,1-.9-.37l-1.35-1.35a1.27,1.27,0,1,1,1.79-1.79l1.35,1.35a1.26,1.26,0,0,1,0,1.79A1.23,1.23,0,0,1,13.52,14.78Z"/><path class="cls-1" d="M24.33,27.51a3.18,3.18,0,1,1,3.18-3.18A3.18,3.18,0,0,1,24.33,27.51Zm0-3.82a.65.65,0,1,0,.65.64A.64.64,0,0,0,24.33,23.69Z"/><path class="cls-1" d="M17.34,32.59a1.27,1.27,0,0,1-.9-2.16l5.66-5.66a1.27,1.27,0,0,1,1.79,1.8l-5.65,5.65A1.27,1.27,0,0,1,17.34,32.59Z"/></svg>