<svg xmlns="http://www.w3.org/2000/svg" width="40.1" height="42.67" viewBox="0 0 40.1 42.67"><defs><style>.a{fill:#0090ff;}</style></defs><title>icon_manuals</title><path class="a" d="M20.18,40.51H36.87a.61.61,0,0,0,0-1.22H20.18a.6.6,0,0,0-.61.61A.62.62,0,0,0,20.18,40.51Zm0-10.24h22a.61.61,0,0,0,0-1.22h-22a.6.6,0,0,0-.61.61A.66.66,0,0,0,20.18,30.27Zm0,5.1h18.3a.61.61,0,0,0,0-1.22H20.18a.6.6,0,0,0-.61.61A.62.62,0,0,0,20.18,35.37ZM32.82,45.61a.61.61,0,0,0,0-1.22H20.18a.61.61,0,0,0,0,1.22Zm22.18-7v-.13a2.16,2.16,0,0,0-.57-1.44,1.1,1.1,0,0,0-1.57,0L50.34,39.6c-.35.35-.39.39-.7.39H47.11s0-.09,0-.13a10.13,10.13,0,0,1-.22-1.22v-.35a2.37,2.37,0,0,1,.44-.57l3.4-3.4a1.05,1.05,0,0,0,.31-.78,1.32,1.32,0,0,0-.44-1,1.93,1.93,0,0,0-1.09-.44c-.09,0-.13,0-.22,0a7.47,7.47,0,0,0-2.4-.13V22l-9.07-8.32H16.91a2,2,0,0,0-2,2V50.32a2,2,0,0,0,2,2H30.59c0,.09,0,.13,0,.22a1.35,1.35,0,0,0,.39,1l2.48,2.48a1.37,1.37,0,0,0,1.92,0L39,52.28h5.84a2,2,0,0,0,2-2V46.09a9.18,9.18,0,0,0,1.09.09h0A7.09,7.09,0,0,0,53,44.09,6.53,6.53,0,0,0,55,38.64ZM47.9,45a7,7,0,0,1-2.31-.44l-.39-.17L34.47,55.11c-.09,0-.13.09-.17,0l-2.48-2.48s0,0,0-.09,0,0,0-.09L42.58,41.69l-.17-.39a6,6,0,0,1,1.26-6.49,5.51,5.51,0,0,1,3.92-1.74,4.5,4.5,0,0,1,1.31.17,1.89,1.89,0,0,1,.22,0,1.21,1.21,0,0,1,.52.17v0l-3.31,3.36a2,2,0,0,0-.78,1.7,9.07,9.07,0,0,0,.26,1.57,1.24,1.24,0,0,0,1.18,1H49.6a1.94,1.94,0,0,0,1.57-.74L53.61,38a3.26,3.26,0,0,1,.17.7v.13a5.29,5.29,0,0,1-1.7,4.45A5.8,5.8,0,0,1,47.9,45ZM38.4,15.89l6.49,6H39.18a.73.73,0,0,1-.74-.74V15.89ZM16.13,50.36V15.67a.73.73,0,0,1,.74-.74H37.13v6.19a2,2,0,0,0,2,2H45.5v9.15a7.26,7.26,0,0,0-4.45,9.2L31.42,51.1H16.91A.77.77,0,0,1,16.13,50.36Zm29.46,0a.73.73,0,0,1-.74.74H40.23l5.32-5.32h.09v4.58Z" transform="translate(-14.95 -13.67)"/></svg>