<svg xmlns="http://www.w3.org/2000/svg" viewBox="0 0 70 70" width="70" height="70"><style>.st0{fill:#0090ff}</style><path class="st0" d="M35 26.2c-4.5 0-8.2 3.7-8.2 8.2s3.7 8.2 8.2 8.2 8.2-3.7 8.2-8.2-3.7-8.2-8.2-8.2zm0 15.3c-4 0-7.2-3.2-7.2-7.2s3.2-7.2 7.2-7.2 7.2 3.2 7.2 7.2-3.2 7.2-7.2 7.2c0 .1 0 .1 0 0z"/><path class="st0" d="M62.3 26.7c0-1.7-1.3-3-3-3H44.9c-5.5-5.1-14-5.1-19.6 0H10.9c-1.7-.1-3.1 1.1-3.2 2.8V42c0 1.7 1.4 3 3 3h2.1v4.6c0 .3.2.5.5.5h7c.3 0 .5-.2.5-.5V45h4.4c5.6 5.1 14 5.1 19.6 0h4.4v4.6c0 .3.2.5.5.5h7c.3 0 .5-.2.5-.5V45h2.2c1.7 0 3-1.4 3-3l-.1-15.3zM19.8 49.2h-6.1V45h6.1v4.2zm-9.1-5.1c-1.1 0-2.1-.9-2.1-2V26.7c0-1.1.9-2.1 2-2.1h13.5l-.1.3c-4.7 5.4-4.7 13.5 0 19l.2.3-13.5-.1zM35 47.9c-7.5 0-13.6-6.1-13.6-13.6S27.5 20.7 35 20.7s13.6 6.1 13.6 13.6c0 7.6-6.1 13.6-13.6 13.6zm21.2 1.3h-6.1V45h6.1v4.2zm5.2-7.2c0 1.1-.9 2.1-2 2.1H45.8l.2-.3c4.7-5.4 4.7-13.5 0-19l-.2-.3h13.5c1.1 0 2.1.9 2.1 2V42z"/></svg>