<svg xmlns="http://www.w3.org/2000/svg" width="55" height="38.5" viewBox="0 0 55 38.5"><defs><style>.a{fill:none;stroke:#0090ff;stroke-linecap:round;stroke-linejoin:round;}</style></defs><title>icon_chatbubbles</title><path class="a" d="M39.89,24.25H12.53A4.8,4.8,0,0,0,8,28.64V43.5c0,2.24,2.3,3.75,4.53,3.75H15v6.5l6.19-6.5H39.89A3.86,3.86,0,0,0,44,43.5V28.64A4.41,4.41,0,0,0,39.89,24.25Z" transform="translate(-7.5 -15.75)"/><path class="a" d="M46.5,39.25h2.31L55,45.75v-6.5h2.47c2.24,0,4.53-1.52,4.53-3.75V20.64a4.8,4.8,0,0,0-4.53-4.39H30.11A4.41,4.41,0,0,0,26,20.64v1.11" transform="translate(-7.5 -15.75)"/></svg>