<svg xmlns="http://www.w3.org/2000/svg" width="64.63" height="50.52" viewBox="0 0 64.63 50.52"><defs><style>.a{fill:#0090ff;}</style></defs><title>icon_patent</title><path class="a" d="M76.82,37.24V6A5.26,5.26,0,0,0,71.56.74H17.44A5.26,5.26,0,0,0,12.18,6V37.24a5.26,5.26,0,0,0,5.25,5.25H56.17l-1.8,4.57a1,1,0,0,0,1.19,1.41l3.76-.8,2.21,3.14a1,1,0,0,0,.86.44h.13a1,1,0,0,0,.85-.66l1.49-3.8,1.49,3.8a1,1,0,0,0,.85.66h.13a1,1,0,0,0,.86-.44l2.21-3.14,3.76.8a1,1,0,0,0,1.19-1.41l-1.93-4.91A5.23,5.23,0,0,0,76.82,37.24Zm-12,2.33a6,6,0,1,1,6-6A6,6,0,0,1,64.86,39.57ZM62.13,48l-1.49-2.11a1,1,0,0,0-1.07-.42L57,46l2.5-6.37a8,8,0,0,0,5.09,2Zm8-2.53a1,1,0,0,0-1.07.42L67.59,48,66,43.93l1-2.57a8.06,8.06,0,0,0,3.19-1.72L72.68,46Zm4.58-8.25a3.14,3.14,0,0,1-2.08,3l-.93-2.37a8.08,8.08,0,1,0-13.71,0L57,40.4H17.44a3.16,3.16,0,0,1-3.16-3.16V6a3.16,3.16,0,0,1,3.16-3.16H71.56A3.16,3.16,0,0,1,74.72,6Z" transform="translate(-12.18 -0.74)"/><path class="a" d="M67.5,8.88h-46a1,1,0,1,0,0,2.09h46a1,1,0,1,0,0-2.09Z" transform="translate(-12.18 -0.74)"/><path class="a" d="M67.5,16.67h-46a1,1,0,1,0,0,2.09h46a1,1,0,1,0,0-2.09Z" transform="translate(-12.18 -0.74)"/><path class="a" d="M52.08,24.47H21.5a1,1,0,1,0,0,2.09H52.08a1,1,0,0,0,0-2.09Z" transform="translate(-12.18 -0.74)"/><path class="a" d="M52.08,32.26H21.5a1,1,0,1,0,0,2.09H52.08a1,1,0,0,0,0-2.09Z" transform="translate(-12.18 -0.74)"/></svg>