<svg xmlns="http://www.w3.org/2000/svg" width="43.5" height="36.42" viewBox="0 0 43.5 36.42"><defs><style>.a{fill:#0090ff;}.b{fill:none;stroke:#0090ff;stroke-miterlimit:10;}</style></defs><title>icon_videotuts</title><path class="a" d="M15.78,16.79a2.53,2.53,0,0,0-2.53,2.53V44.61a2.53,2.53,0,0,0,2.53,2.53H31V52.2h-2a.51.51,0,1,0,0,1H41.07a.51.51,0,1,0,0-1H39V47.14H54.22a2.53,2.53,0,0,0,2.53-2.53V19.32a2.53,2.53,0,0,0-2.53-2.53Zm0,1H54.22a1.5,1.5,0,0,1,1.52,1.52V40.06H14.26V19.32A1.5,1.5,0,0,1,15.78,17.8ZM14.26,41.07H55.74v3.54a1.5,1.5,0,0,1-1.52,1.52H15.78a1.5,1.5,0,0,1-1.52-1.52ZM35,42.59a1,1,0,1,0,1,1A1,1,0,0,0,35,42.59Zm-3,4.55H38V52.2H32Z" transform="translate(-13.25 -16.79)"/><path class="b" d="M30.35,29.73V25a1.19,1.19,0,0,1,1.79-1l4.13,2.39L40.4,28.7a1.19,1.19,0,0,1,0,2.07l-4.13,2.39-4.13,2.39a1.19,1.19,0,0,1-1.79-1Z" transform="translate(-13.25 -16.79)"/></svg>