<svg xmlns="http://www.w3.org/2000/svg" width="70" height="70" viewBox="0 0 70 70"><defs><style>.a{fill:#0090ff}</style></defs><title>icon</title><path class="a" d="M22.12 53.24h6.28v.28a6.68 6.68 0 0 0 4.34 5.58 6.65 6.65 0 0 0 2.28.4 6.66 6.66 0 0 0 6.62-6v-.28h12.12a3.76 3.76 0 0 0 3.72-3 5 5 0 0 0-2.13-4.57 8.51 8.51 0 0 1-2.94-3.83l-.07-.21a46.57 46.57 0 0 1-1.49-7.28c-1-6.39-2.08-13.6-8.62-16.67h-.07a19.46 19.46 0 0 0-3.47-1l-.38-.08.16-.35a3.85 3.85 0 0 0 .36-1.6 4.1 4.1 0 0 0-4.1-4.1 4.1 4.1 0 0 0-4.1 4.1A3.86 3.86 0 0 0 31 16.2l.16.36-.38.08a18.5 18.5 0 0 0-2.88.8c-7 2.89-8 10.33-8.86 16.89a46.44 46.44 0 0 1-1.33 7.27v.08a8.51 8.51 0 0 1-3 4 5 5 0 0 0-2.14 4.57A3.67 3.67 0 0 0 14.92 53a3.83 3.83 0 0 0 1.31.23h5.33a.56.56 0 0 0 .18 0h.2zm18.34.35a5.46 5.46 0 0 1-10.81 0v-.35H40.5zM21.84 52.1h-5.6a2.58 2.58 0 0 1-2.54-2 3.8 3.8 0 0 1 1.61-3.37 9.76 9.76 0 0 0 3.44-4.54 1 1 0 0 0 .07-.16 46.74 46.74 0 0 0 1.39-7.53c.86-6.54 1.75-13.31 8.13-15.93a19.17 19.17 0 0 1 3-.8 1.22 1.22 0 0 0 .94-.69 1.2 1.2 0 0 0-.12-1.14 2.69 2.69 0 0 1-.36-1.3 2.9 2.9 0 0 1 5.81 0 2.71 2.71 0 0 1-.35 1.28 1.22 1.22 0 0 0-.11 1.08 1.17 1.17 0 0 0 .69.63l.23.06a20 20 0 0 1 3.62 1c6 2.8 7 9.38 8 15.76A47.47 47.47 0 0 0 51.2 42v.07a9.61 9.61 0 0 0 3.46 4.58 3.81 3.81 0 0 1 1.61 3.38 2.58 2.58 0 0 1-2.54 2H21.94z"/></svg>