<svg xmlns="http://www.w3.org/2000/svg" width="43.5" height="36.42" viewBox="0 0 43.5 36.42"><defs><style>.a{fill:#0090ff;}</style></defs><title>icon_elearning</title><path class="a" d="M15.78,16.79a2.53,2.53,0,0,0-2.53,2.53V44.61a2.53,2.53,0,0,0,2.53,2.53H31V52.2h-2a.51.51,0,1,0,0,1H41.07a.51.51,0,1,0,0-1H39V47.14H54.22a2.53,2.53,0,0,0,2.53-2.53V19.32a2.53,2.53,0,0,0-2.53-2.53Zm0,1H54.22a1.5,1.5,0,0,1,1.52,1.52V40.06H14.26V19.32A1.5,1.5,0,0,1,15.78,17.8Zm19,2.56L20.65,25.93a.53.53,0,0,0,0,.93l4.77,1.88a.55.55,0,0,0,0,.19V34a1.9,1.9,0,0,0,.92,1.45,7.78,7.78,0,0,0,2.09,1.06,20.29,20.29,0,0,0,6.61,1,20.29,20.29,0,0,0,6.61-1,7.78,7.78,0,0,0,2.09-1.06A1.9,1.9,0,0,0,44.61,34V28.93a.56.56,0,0,0,0-.19l3.07-1.22v3.07a1,1,0,0,0-.51.87,1,1,0,0,0,2,0,1,1,0,0,0-.51-.87V27.13l.7-.27a.53.53,0,0,0,0-.93L35.19,20.36A.54.54,0,0,0,34.81,20.36Zm.19,1,12.79,5L35,31.41l-12.79-5Zm-8.6,7.75,8.41,3.3a.51.51,0,0,0,.38,0l8.41-3.3V34c0,.1-.13.35-.52.65a6.87,6.87,0,0,1-1.8.9,19.42,19.42,0,0,1-6.28,1,19.42,19.42,0,0,1-6.28-1,6.87,6.87,0,0,1-1.8-.9c-.4-.3-.52-.55-.52-.65ZM14.26,41.07H55.74v3.54a1.5,1.5,0,0,1-1.52,1.52H15.78a1.5,1.5,0,0,1-1.52-1.52ZM35,42.59a1,1,0,1,0,1,1A1,1,0,0,0,35,42.59Zm-3,4.55H38V52.2H32Z" transform="translate(-13.25 -16.79)"/></svg>