<svg xmlns="http://www.w3.org/2000/svg" viewBox="0 0 70 70" width="70" height="70"><style>.st0{fill:none;stroke:#0090ff;stroke-linecap:round;stroke-linejoin:round;stroke-miterlimit:10}</style><path class="st0" d="M41.1 46.7l6.2 14.7c.7 1.7-.5 3.6-2.4 3.6H19.2c-1.8 0-3.1-1.9-2.4-3.6L23 46.7M41.1 46.7h-18l-7.7-35.8h33.4zM17.9 10.9c0-2.8 2.3-5.1 5.1-5.1h18c2.8 0 5.1 2.3 5.1 5.1"/><circle class="st0" cx="32.1" cy="55.9" r="3.9"/><path class="st0" d="M47.1 18.6H54l-5.2 18h-5.5M20.9 36.6h4.7M19.9 31.5h3.2M18.7 26.3h6.9M17.9 21.2h5.2"/></svg>