<?xml version="1.0" encoding="UTF-8"?>
<svg width="21px" height="42px" viewBox="0 0 21 42" version="1.1" xmlns="http://www.w3.org/2000/svg" xmlns:xlink="http://www.w3.org/1999/xlink">
    <!-- Generator: Sketch 52.2 (67145) - http://www.bohemiancoding.com/sketch -->
    <title>energy-safety-icon</title>
    <desc>Created with Sketch.</desc>
    <g id="web" stroke="none" stroke-width="1" fill="none" fill-rule="evenodd">
        <g id="Home" transform="translate(-712.000000, -4764.000000)" fill-rule="nonzero" stroke="#FFFFFF">
            <g id="Use-Case'y" transform="translate(0.000000, 2771.000000)">
                <g id="case-copy-3" transform="translate(150.000000, 1824.000000)">
                    <g id="energy-safety-icon" transform="translate(563.000000, 170.000000)">
                        <path d="M18.3129582,13.4505544 L11.3629582,13.4505544 L16.0729582,1.00055435 C16.1781864,0.779213647 16.1599926,0.518959144 16.0249917,0.314412286 C15.8899907,0.109865428 15.6578457,-0.00918126106 15.4129582,0.000554350432 L6.60295822,0.000554350432 C6.28720751,-0.00227446913 6.00865275,0.206641595 5.92295822,0.51055435 L0.622958221,19.0205544 C0.559311925,19.2339603 0.601005705,19.4649171 0.735253468,19.6425979 C0.869501232,19.8202788 1.0802827,19.9234804 1.30295822,19.9205544 L7.09295822,19.9205544 L0.042958221,39.0205544 C-0.0777207683,39.3494101 0.0632696452,39.7168397 0.372958221,39.8805544 C0.474576909,39.9342935 0.588011617,39.9617928 0.702958221,39.9605544 C0.933948385,39.9623787 1.15096693,39.8501278 1.28295822,39.6605544 L18.8929582,14.5905544 C19.0483457,14.3756198 19.0689163,14.0913258 18.9460894,13.8562606 C18.8232625,13.6211953 18.5781353,13.4757344 18.3129582,13.4805544 L18.3129582,13.4505544 Z" id="Path"></path>
                    </g>
                </g>
            </g>
        </g>
    </g>
</svg>