<svg xmlns="http://www.w3.org/2000/svg" viewBox="0 0 70 70" width="70" height="70"><style>.st0{fill:#0090ff}</style><path class="st0" d="M61.7 36.9h1.1c0-16.7-13.6-30.2-30.3-30.3v1.1c16.1.1 29.1 13.1 29.2 29.2z"/><path class="st0" d="M53.8 34.8c0-10.5-8.6-19.1-19.1-19.1v1.1c10 0 18 8.1 18 18h1.1zM36.9 24.6v1.1c1.8 0 3.6.7 4.9 2 1.3 1.3 2 3.1 2 4.9h1.1c0-4.4-3.5-7.9-7.8-8h-.2zM7.7 32.5h-1c0 16.7 13.6 30.2 30.3 30.3v-1.1C20.8 61.6 7.8 48.6 7.7 32.5z"/><path class="st0" d="M15.6 34.6c0 10.6 8.6 19.1 19.1 19.1v-1.1c-10 0-18-8.1-18-18h-1.1zM32.6 44.8v-1.1c-1.8 0-3.5-.7-4.8-2-1.3-1.3-2-3.1-2-4.9h-1.1c-.1 4.4 3.4 7.9 7.9 8-.1 0 0 0 0 0z"/><ellipse transform="rotate(-45.001 34.91 34.548)" class="st0" cx="34.9" cy="34.5" rx="3.1" ry="3.1"/></svg>