<svg xmlns="http://www.w3.org/2000/svg" viewBox="0 0 70 70" width="70" height="70"><style>.st0,.st1{fill:#0090ff;stroke:#0090ff;stroke-width:.4;stroke-miterlimit:10}.st1{fill:none;stroke-width:1.4}</style><path class="st0" d="M62 7.3H42.6c-2.1 0-3.8 1.7-3.8 3.8v47.1c0 2.1 1.7 3.8 3.8 3.8H62c2.1 0 3.8-1.7 3.8-3.8V11.1c0-2.1-1.7-3.7-3.8-3.8zm3.2 51c0 1.7-1.4 3.1-3.1 3.1H42.6c-1.7 0-3.1-1.4-3.1-3.1V11.1c0-1.7 1.4-3.1 3.1-3.1H62c1.7 0 3.1 1.4 3.1 3.1v47.2z"/><path class="st0" d="M41.2 13.6c-.2 0-.3.1-.3.3v41.6c0 .2.1.3.3.3h22.2c.2 0 .3-.1.3-.3V13.9c0-.2-.1-.3-.3-.3H41.2zm21.9 41.6H41.6V14.3h21.6l-.1 40.9zM52.3 56.9c-1 0-1.7.8-1.7 1.7 0 1 .8 1.7 1.7 1.7 1 0 1.7-.8 1.7-1.7.1-.9-.7-1.7-1.7-1.7zm0 2.8c-.6 0-1-.5-1-1 0-.6.5-1 1-1s1 .5 1 1c.1.5-.4.9-1 1zM50.2 11.5h4.2c.2 0 .3-.2.3-.3 0-.2-.2-.3-.3-.3h-4.2c-.2 0-.3.1-.3.3-.1.1.1.3.3.3zM6.6 16.9c-.2 0-.3.1-.3.3v38.1c0 .2.1.3.3.3h21c.2 0 .3-.1.3-.3V17.2c0-.2-.1-.3-.3-.3h-21zM27.2 55H6.9V17.5h20.3V55zM12.1 14.3h4.6c.2 0 .4-.1.4-.3s-.2-.3-.4-.3h-4.6c-.2 0-.4.1-.4.3s.2.3.4.3z"/><path class="st1" d="M14.5 57.4h4.9c.6 0 1.1.5 1.1 1.1 0 .6-.5 1.1-1.1 1.1h-4.9c-.6 0-1.1-.5-1.1-1.1 0-.6.5-1.1 1.1-1.1z"/><circle class="st0" cx="20.4" cy="14" r=".5"/><circle class="st0" cx="22.7" cy="14" r=".5"/><path class="st1" d="M11.4 10.4h11.4c3.9 0 7.1 3.2 7.1 7.1V55c0 3.9-3.2 7.1-7.1 7.1H11.4c-3.9 0-7.1-3.2-7.1-7.1V17.5c0-3.9 3.2-7.1 7.1-7.1z"/></svg>