<svg id="al-increase" xmlns="http://www.w3.org/2000/svg" viewBox="0 0 36 36" width="36" height="36"> <style type="text/css"> #al-increase .st0{fill:#FFFFFF;} #al-increase .st1{fill:none;stroke:#FFFFFF;stroke-linecap:round;stroke-miterlimit:10;} </style> <g> <path class="st0" d="M17.7,24.2c-3.3,0-6-2.7-6-6s2.7-6,6-6s6,2.7,6,6S21,24.2,17.7,24.2z M17.7,13.4c-2.7,0-4.9,2.2-4.9,4.9 s2.2,4.9,4.9,4.9s4.9-2.2,4.9-4.9S20.4,13.4,17.7,13.4z"/> <line class="st1" x1="18" y1="2.7" x2="18" y2="7.4"/> <line class="st1" x1="18" y1="28.5" x2="18" y2="33.3"/> <line class="st1" x1="10.3" y1="4.7" x2="12.7" y2="8.8"/> <line class="st1" x1="23.3" y1="27.1" x2="25.7" y2="31.3"/> <line class="st1" x1="4.7" y1="10.3" x2="8.8" y2="12.7"/> <line class="st1" x1="27.1" y1="23.3" x2="31.3" y2="25.7"/> <line class="st1" x1="2.7" y1="18" x2="7.4" y2="18"/> <line class="st1" x1="28.5" y1="18" x2="33.3" y2="18"/> <line class="st1" x1="4.7" y1="25.7" x2="8.8" y2="23.3"/> <line class="st1" x1="27.1" y1="12.7" x2="31.3" y2="10.3"/> <line class="st1" x1="10.3" y1="31.3" x2="12.7" y2="27.2"/> <line class="st1" x1="23.3" y1="8.9" x2="25.7" y2="4.7"/> </g> </svg>