<svg id="Layer_1" xmlns="http://www.w3.org/2000/svg" viewBox="0 0 78.9 78.9"><style>.st0{fill:#7e7f7f}</style><title>instagram</title><path class="st0" d="M39.5 22.6c5.5 0 6.1 0 8.3.1 5.6.3 8.2 2.9 8.4 8.4.1 2.2.1 2.8.1 8.3 0 5.5 0 6.1-.1 8.3-.3 5.5-2.9 8.2-8.4 8.4-2.2.1-2.8.1-8.3.1-5.5 0-6.1 0-8.3-.1-5.6-.3-8.2-2.9-8.4-8.4-.1-2.2-.1-2.8-.1-8.3 0-5.5 0-6.1.1-8.3.3-5.5 2.9-8.2 8.4-8.4 2.1-.1 2.8-.1 8.3-.1zm0-3.7c-5.6 0-6.3 0-8.5.1-7.5.3-11.6 4.5-12 12-.1 2.2-.1 2.9-.1 8.5s0 6.3.1 8.5c.3 7.5 4.5 11.6 12 12 2.2.1 2.9.1 8.5.1s6.3 0 8.5-.1c7.5-.3 11.6-4.5 12-12v-8.5c0-5.5 0-6.3-.1-8.5-.3-7.5-4.5-11.6-12-12-2.2-.1-2.9-.1-8.4-.1zm0 10c-5.8 0-10.6 4.7-10.6 10.6S33.6 50 39.5 50 50 45.3 50 39.5c0-5.9-4.7-10.6-10.5-10.6zm0 17.4c-3.8 0-6.9-3.1-6.9-6.9 0-3.8 3.1-6.9 6.9-6.9s6.9 3.1 6.9 6.9c-.1 3.8-3.2 6.9-6.9 6.9zM50.4 26c-1.4 0-2.5 1.1-2.5 2.5S49 31 50.4 31s2.5-1.1 2.5-2.5-1.1-2.5-2.5-2.5z"/></svg>