<svg xmlns="http://www.w3.org/2000/svg" width="830" height="830" viewBox="0 0 830 830"><defs><style>.cls-1{fill:#4d4d4d}.cls-2{fill:#0090ff}.cls-3{fill:#309dde}.cls-4{fill:none}</style></defs><title>indeximg</title><g id="fibaro"><path class="cls-1" d="M315.44 694h-77.57a11 11 0 1 1 0-22h77.57zm-77.57-16.49a5.69 5.69 0 0 0-5.59 5.5 5.62 5.62 0 0 0 5.59 5.5H310v-11z"/><path class="cls-1" d="M240.5 781.84h-2.74a11 11 0 0 1-11-11.08V683h5.49a5.48 5.48 0 0 0 5.5 5.44h2.74zm-8.24-89.35v78.27a5.63 5.63 0 0 0 2.74 4.84v-82a11 11 0 0 1-2.74-1.11z"/><path class="cls-1" d="M315.44 781.84h-80.43v-5.5h74.94v-82.38h-74.94v-5.49h80.43v93.37z"/><path class="cls-1" d="M270.37 707.96h32.33v5.49h-32.33zM249.26 707.96h14.33v5.49h-14.33zM296.07 719.28h6.63v5.49h-6.63zM249.26 719.28h40.03v5.49h-40.03zM280.6 731.34h22.1v5.49h-22.1zM249.26 731.34h24.56v5.49h-24.56zM142.31 708.29h30.57v5.49h-30.57zM154.87 697.99h30.57v5.49h-30.57zM130.51 687.69h32.77v5.49h-32.77zM627.37 739.68h30.57v5.49h-30.57zM639.93 729.38h30.57v5.49h-30.57zM615.57 719.08h32.77v5.49h-32.77zM515.25 458.43h31.98v5.49h-31.98zM558.85 448.13h4.27v5.49h-4.27zM535.24 448.13h18.12v5.49h-18.12zM526.31 437.83h14.52v5.49h-14.52zM132.56 235.79h17.85v5.49h-17.85zM190.74 225.38h4.99v5.49h-4.99zM165.52 225.38h19.72v5.49h-19.72zM175.42 246.19h24.44v5.49h-24.44zM161.4 246.19h8.52v5.49h-8.52zM416.52 202h-25.37l12.69-25.36zM400 196.51h7.59l-3.79-7.59zM401.24 818.65h-25.37l12.68-25.37zm-16.48-5.49h7.59l-3.8-7.59zM598.46 435H573.1l12.68-25.36zM582 429.51h7.59l-3.8-7.59zM413.43 319.64a15.38 15.38 0 0 1-4.62-.72l1.68-5.23a9.72 9.72 0 0 0 5.94 0l1.7 5.22a15.21 15.21 0 0 1-4.7.73zm-12.18-6.17a15 15 0 0 1-2.92-8.85h5.49a9.45 9.45 0 0 0 1.86 5.62zm24.42-.07l-4.45-3.23a9.56 9.56 0 0 0 1.82-5.64l4.61-.12h.89a15.09 15.09 0 0 1-2.87 8.99zm-20.06-14.46l-4.46-3.2a15.2 15.2 0 0 1 7.5-5.54l1.74 5.21a9.68 9.68 0 0 0-4.78 3.53zm15.54-.14a9.66 9.66 0 0 0-4.83-3.44l1.65-5.24a15.22 15.22 0 0 1 7.59 5.4zM81.33 240a16.24 16.24 0 0 1-5-.79L78 234a11.06 11.06 0 0 0 6.78 0l1.71 5.23a16.48 16.48 0 0 1-5.16.77zm-13.28-6.73a16.34 16.34 0 0 1-3.2-9.66h5.5a10.87 10.87 0 0 0 2.12 6.39zm26.62-.08L90.23 230a11 11 0 0 0 2.09-6.45l4-.12 1.47.05a16.34 16.34 0 0 1-3.12 9.72zM72.4 217.14l-4.47-3.2a16.61 16.61 0 0 1 8.18-6l1.74 5.21a11 11 0 0 0-5.45 3.99zm17.75-.14a11 11 0 0 0-5.52-3.93l1.65-5.24a16.37 16.37 0 0 1 8.28 5.89zM454.65 824.14a16.48 16.48 0 0 1-5-.78l1.68-5.23a11.13 11.13 0 0 0 6.78 0l1.71 5.22a16.53 16.53 0 0 1-5.17.79zm-13.29-6.73a16.32 16.32 0 0 1-3.19-9.65h5.49a10.92 10.92 0 0 0 2.13 6.43zm26.63-.07l-4.44-3.23a10.93 10.93 0 0 0 2.08-6.45l5.5-.16v.16a16.39 16.39 0 0 1-3.13 9.68zm-22.28-16.07l-4.46-3.2a16.56 16.56 0 0 1 8.18-6l1.73 5.21a11.17 11.17 0 0 0-5.45 3.99zm17.76-.16a11.11 11.11 0 0 0-5.53-3.93l1.65-5.24a16.59 16.59 0 0 1 8.28 5.89zM202.07 354.79h24.37v5.49h-24.37zM192.06 342.04h24.37v5.49h-24.37zM209.73 329.3h26.13v5.49h-26.13zM601.03 201.79h13.21v5.49h-13.21zM595.6 188.74h13.21v5.49H595.6zM609.26 305.67l-9.38-9.38 9.38-9.37 9.38 9.37zm-1.61-9.38l1.61 1.61 1.61-1.61-1.61-1.6zM215.41 425.1l-9.41-9.38 9.37-9.37 9.38 9.37zm-1.61-9.38l1.61 1.61 1.61-1.61-1.61-1.61zM770 220.57a9.61 9.61 0 1 1 9.61-9.61 9.63 9.63 0 0 1-9.61 9.61zm0-13.73a4.12 4.12 0 1 0 4.12 4.12 4.12 4.12 0 0 0-4.12-4.12zM352.08 29.74a9.61 9.61 0 1 1 9.61-9.61 9.62 9.62 0 0 1-9.61 9.61zm0-13.73a4.12 4.12 0 1 0 4.12 4.12 4.13 4.13 0 0 0-4.12-4.13zM207.09 697.31a9.62 9.62 0 1 1 9.61-9.62 9.63 9.63 0 0 1-9.61 9.62zm0-13.74a4.12 4.12 0 1 0 4.12 4.12 4.13 4.13 0 0 0-4.12-4.12zM240.33 522.69a9.62 9.62 0 1 1 9.62-9.62 9.63 9.63 0 0 1-9.62 9.62zm0-13.74a4.12 4.12 0 1 0 4.12 4.12 4.13 4.13 0 0 0-4.12-4.07zM35.14 523.48a6.87 6.87 0 1 1 6.86-6.87 6.88 6.88 0 0 1-6.86 6.87zm0-8.24a1.38 1.38 0 1 0 1.37 1.37 1.38 1.38 0 0 0-1.37-1.37zM620.54 413.49a6.87 6.87 0 1 1 6.86-6.86 6.87 6.87 0 0 1-6.86 6.86zm0-8.24a1.38 1.38 0 1 0 1.37 1.38 1.38 1.38 0 0 0-1.37-1.38zM455.88 216.09a6.87 6.87 0 1 1 6.87-6.87 6.88 6.88 0 0 1-6.87 6.87zm0-8.24a1.37 1.37 0 1 0 1.37 1.37 1.37 1.37 0 0 0-1.37-1.37zM227.16 268.69a6.87 6.87 0 1 1 6.87-6.86 6.87 6.87 0 0 1-6.87 6.86zm0-8.24a1.38 1.38 0 1 0 1.38 1.38 1.38 1.38 0 0 0-1.38-1.38zM803.84 549.53a6.87 6.87 0 1 1 6.86-6.87 6.88 6.88 0 0 1-6.86 6.87zm0-8.24a1.38 1.38 0 1 0 1.37 1.37 1.38 1.38 0 0 0-1.37-1.37zM441.29 92.22h30.57v5.49h-30.57zM467.59 84.66h30.57v5.49h-30.57zM415.76 77.11h32.77v5.49h-32.77zM373.27 686.28h30.57v5.49h-30.57zM399.56 678.04h30.57v5.49h-30.57zM347.74 669.8h32.77v5.49h-32.77zM757.15 283.06h27.46v5.49h-27.46zM776.37 272.65h27.46v5.49h-27.46zM772.25 293.46h41.2v5.49h-41.2zM298.13 481.01h19.1v5.49h-19.1zM322.73 481.01h8.36v5.49h-8.36zM284.4 470.61h21.97v5.49H284.4zM269.29 491.41h7.35v5.49h-7.35zM282.14 491.41h28.35v5.49h-28.35z"/><path class="cls-1" transform="rotate(-45 197.29 742.54)" d="M191.47 739.79h11.65v5.49h-11.65z"/><path class="cls-1" transform="rotate(-45 197.29 742.54)" d="M194.55 736.71h5.49v11.65h-5.49z"/><path class="cls-1" d="M522.54 32.02h15.53v5.49h-15.53z"/><path class="cls-1" d="M527.56 27h5.49v15.54h-5.49zM457.27 667.83h15.53v5.49h-15.53z"/><path class="cls-1" d="M462.29 662.81h5.49v15.53h-5.49zM16.38 457.06h15.54v5.49H16.38z"/><path class="cls-1" d="M21.41 452.03h5.49v15.54h-5.49zM281.44 182.64h13.73v5.49h-13.73z"/><path class="cls-1" d="M285.56 178.52h5.49v13.73h-5.49z"/><path class="cls-1" transform="rotate(-45 574.978 572.936)" d="M567.21 570.2h15.54v5.49h-15.54z"/><path class="cls-1" transform="rotate(-45 574.978 572.936)" d="M572.23 565.17h5.49v15.54h-5.49z"/><path class="cls-1" transform="rotate(-45 357.663 299.031)" d="M351.83 296.29h11.65v5.49h-11.65z"/><path class="cls-1" transform="rotate(-45 357.663 299.031)" d="M354.91 293.21h5.49v11.65h-5.49z"/><path class="cls-1" transform="rotate(-45 197.368 86.038)" d="M189.6 83.29h15.54v5.49H189.6z"/><path class="cls-1" transform="rotate(-45 197.368 86.038)" d="M194.63 78.27h5.49v15.54h-5.49z"/><path class="cls-1" transform="rotate(-45 434.261 259.893)" d="M426.5 257.15h15.54v5.49H426.5z"/><path class="cls-1" transform="rotate(-45 434.261 259.893)" d="M431.52 252.12h5.49v15.54h-5.49z"/><path class="cls-1" d="M191.12 192h-70v-50.15a3.06 3.06 0 0 1 3-3.05H147a3 3 0 0 1 2.16.9l7.43 7.42 31.47.09a3.06 3.06 0 0 1 3.05 3.05zm-67.26-2.75h64.52v-39a.3.3 0 0 0-.31-.3h-31.25a3 3 0 0 1-2.17-.9l-7.42-7.42-23-.09a.31.31 0 0 0-.31.3z"/><path class="cls-1" d="M192.5 193.38h-72.76v-51.52a4.43 4.43 0 0 1 4.43-4.42H147a4.43 4.43 0 0 1 3.14 1.29l7.11 7.12h30.81a4.43 4.43 0 0 1 4.43 4.42zm-67.27-5.49H187v-36.55h-30.18a4.4 4.4 0 0 1-3.14-1.3l-7.11-7.11h-21.31zm32.34-41.74z"/><path class="cls-1" transform="rotate(-45 270.8 67.621)" d="M264.97 64.87h11.65v5.49h-11.65z"/><path class="cls-1" d="M379.32 153.56H366v-5.5h13.31a6.14 6.14 0 0 0 6.14-6.13V51.4a6.14 6.14 0 0 0-6.14-6.13H244.18a6.14 6.14 0 0 0-6.13 6.13v90.53a6.14 6.14 0 0 0 6.13 6.13h62.48v5.5h-62.48a11.65 11.65 0 0 1-11.63-11.63V51.4a11.64 11.64 0 0 1 11.63-11.62h135.14A11.63 11.63 0 0 1 391 51.4v90.53a11.64 11.64 0 0 1-11.68 11.63z"/><path class="cls-1" d="M382.46 102.47h-11.61V90.86h11.61zM376.34 97h.66v-.62h-.62zM242.64 87.11h5.49v19.11h-5.49z"/><path class="cls-1" transform="rotate(-45 279.588 76.55)" d="M262.12 73.8h34.96v5.49h-34.96z"/><path class="cls-1" d="M366.9 143.36h-5.49V55.47H259.49v82.39h49.91v5.5H254V49.98h112.9v93.38zM322.62 169.21a2.75 2.75 0 0 1-2.75-2.75v-14.85a2.75 2.75 0 1 1 5.49 0v14.85a2.75 2.75 0 0 1-2.74 2.75z"/><path class="cls-1" d="M328.07 195.43h-5.49v-6.24c-5.76-3.69-11.88-10.53-11.88-19v-18.38c0-4.23 3.19-7.78 7.1-7.9a6.83 6.83 0 0 1 2.07.24V128.8a7.34 7.34 0 1 1 14.66 0v9.41a7 7 0 0 1 1.84-.24 7.23 7.23 0 0 1 5.75 2.93 7.06 7.06 0 0 1 3.41-.88 7.33 7.33 0 0 1 6.76 4.72 6.87 6.87 0 0 1 2.41-.43A7.53 7.53 0 0 1 362 152v18.16c0 9-2.63 15.36-7.8 19v6.28h-5.5v-7.8a2.73 2.73 0 0 1 1.41-2.39c4.3-2.41 6.39-7.34 6.39-15.07V152a1.87 1.87 0 1 0-3.67 0 2.75 2.75 0 1 1-5.49 0v-4.29a1.87 1.87 0 1 0-3.68 0 2.75 2.75 0 1 1-5.49 0v-2.05a1.87 1.87 0 1 0-3.67 0 2.75 2.75 0 1 1-5.49 0V128.8a1.87 1.87 0 1 0-3.68 0v22.81a2.75 2.75 0 0 1-5.49 0 2.38 2.38 0 0 0-.69-1.72 1.48 1.48 0 0 0-1.2-.49c-1 0-1.78 1.16-1.78 2.41v18.36c0 6.37 5.25 12.16 10.47 15.07a2.75 2.75 0 0 1 1.4 2.39z"/><path class="cls-1" d="M331.78 158.44a2.74 2.74 0 0 1-2.74-2.75v-10a2.75 2.75 0 0 1 5.49 0v10a2.75 2.75 0 0 1-2.75 2.75zM350.11 158.44a2.75 2.75 0 0 1-2.74-2.75V152a2.75 2.75 0 0 1 5.49 0v3.68a2.75 2.75 0 0 1-2.75 2.76zM341 158.44a2.75 2.75 0 0 1-2.75-2.75v-8a2.75 2.75 0 1 1 5.49 0v8a2.75 2.75 0 0 1-2.74 2.75zM560.49 705.41a6.17 6.17 0 1 1 6.17-6.17 6.18 6.18 0 0 1-6.17 6.17zm0-6.85a.69.69 0 0 0-.68.68c0 .75 1.36.75 1.36 0a.68.68 0 0 0-.68-.68zM551.26 728.16a6.17 6.17 0 1 1 6.18-6.17 6.18 6.18 0 0 1-6.18 6.17zm0-6.85a.68.68 0 0 0-.67.68c0 .75 1.35.75 1.35 0a.68.68 0 0 0-.68-.68zM539.57 744.46a6.17 6.17 0 1 1 6.17-6.17 6.18 6.18 0 0 1-6.17 6.17zm0-6.85a.67.67 0 0 0-.68.68c0 .75 1.36.75 1.36 0a.67.67 0 0 0-.68-.68zM528 760a6.17 6.17 0 1 1 6.17-6.17A6.18 6.18 0 0 1 528 760zm0-6.85a.68.68 0 0 0-.68.68c0 .75 1.36.75 1.36 0a.67.67 0 0 0-.68-.68zM517.48 704.5a6.17 6.17 0 1 1 6.17-6.17 6.17 6.17 0 0 1-6.17 6.17zm0-6.85a.67.67 0 0 0-.68.68c0 .75 1.36.75 1.36 0a.68.68 0 0 0-.68-.68zM573.42 763a6.18 6.18 0 1 1 6.18-6.17 6.18 6.18 0 0 1-6.18 6.17zm0-6.85a.67.67 0 0 0-.67.68c0 .75 1.35.75 1.35 0a.67.67 0 0 0-.68-.72zM560.23 777.24a6.18 6.18 0 1 1 6.17-6.17 6.17 6.17 0 0 1-6.17 6.17zm0-6.85a.67.67 0 0 0-.68.68c0 .75 1.36.75 1.36 0a.68.68 0 0 0-.68-.68zM532.08 776.68a6.17 6.17 0 1 1 6.17-6.17 6.18 6.18 0 0 1-6.17 6.17zm0-6.85a.68.68 0 0 0-.68.68c0 .75 1.36.75 1.36 0a.67.67 0 0 0-.68-.68zM502.22 775.77a6.18 6.18 0 1 1 6.17-6.18 6.18 6.18 0 0 1-6.17 6.18zm0-6.86a.68.68 0 0 0-.68.68c0 .75 1.35.75 1.35 0a.68.68 0 0 0-.67-.68zM554.47 759.61a6.17 6.17 0 1 1 6.17-6.17 6.17 6.17 0 0 1-6.17 6.17zm0-6.85a.68.68 0 0 0-.68.68c0 .75 1.36.75 1.36 0a.69.69 0 0 0-.68-.68zM505.83 717.38a6.18 6.18 0 1 1 6.17-6.17 6.18 6.18 0 0 1-6.17 6.17zm0-6.85a.68.68 0 0 0-.68.68c0 .75 1.36.75 1.36 0a.67.67 0 0 0-.68-.68zM525.7 731.59a6.18 6.18 0 1 1 6.17-6.17 6.17 6.17 0 0 1-6.17 6.17zm0-6.85a.67.67 0 0 0-.68.68c0 .75 1.36.75 1.36 0a.68.68 0 0 0-.68-.68z"/><path class="cls-1" d="M484.66 735.54h51.49v5.49h-51.49zM514.05 701.08h-17.18v-21.59h5.49v16.09h11.69v5.5zM557.75 684.97h5.49v10.85h-5.49zM580.04 724.74h-25.35v-5.5h19.86v-39.75h5.49v45.25zM557.22 750.02h-5.5v-15.16h42.54v5.49h-37.04v9.67zM504.96 766.17h-5.49v-6.64h-14.81v-5.49h20.3v12.13zM508.58 730.39h-23.92v-5.49h18.42v-10.27h5.5v15.76zM517.48 789.1h-5.49v-38.02h12.56v5.5h-7.07v32.52zM546.48 789.1h-5.49v-15.85h-5.48v-5.49h10.97v21.34zM528.44 721.99h-5.49v-13.85h15.98v-28.65h5.5v34.14h-15.99v8.36zM594.26 772.34h-23.58v-12.13h5.49v6.64h18.09v5.49zM557.48 774.49h5.49v14.61h-5.49zM591.53 732.12h-5.49v-44.41h-3.26v-5.49h8.75v49.9z"/><path class="cls-1" d="M492.88 722.17h-5.49v-39.95h6.74v5.49h-1.25v34.46zM591.53 786.36h-25.82v-5.49h20.33v-5.79h5.49v11.28zM509.26 786.36h-21.88l.11-24.02 5.5.02-.09 18.51h16.36v5.49zM520.22 780.87h18.04v5.49h-18.04zM549.22 780.87h5.53v5.49h-5.53zM586.04 743.09h5.49v21.03h-5.49zM505.09 682.22h31.11v5.49h-31.11zM565.98 682.22h5.84v5.49h-5.84zM547.16 682.22h7.85v5.49h-7.85zM487.39 743.77h5.49v7.62h-5.49zM681.41 229.75L676.59 218l-6.14-1.31-9.21 8.81-13.51-7.8 3-12.38-4.21-4.67-12.61 1.72-6.35-14.25 9.72-8.23-.66-6.25-11.22-6 3.25-15.26 12.7-.95 3.14-5.44-5.49-11.53L650.58 124l10.83 6.7 5.74-2.55 2.27-12.54 15.52-1.61 4.82 11.79 6.15 1.31 9.2-8.81 13.51 7.8-3 12.37 4.21 4.67 12.62-1.72 6.34 14.26-9.79 8.23.66 6.25 11.22 6-3.25 15.26-12.7.94-3.14 5.44 5.53 11.48-11.59 10.44-10.79-6.71-5.74 2.56-2.27 12.53zm-12.66-19.07l11.82 2.52 4.37 10.66 7.32-.77 2-11.34 11.05-4.91 9.8 6.06 5.47-4.93-5-10.38 6-10.47 11.49-.85 1.53-7.21-10.15-5.45-1.26-12 8.79-7.44-3-6.73-11.32 1.56-8.09-9 2.74-11.19-6.38-3.68-8.32 8-11.83-2.51-4.37-10.67-7.32.77L672 132l-11 4.92-9.81-6.06-5.47 4.93 5 10.37-6.05 10.48-11.49.85-1.53 7.2 10.15 5.46 1.27 12-8.8 7.45 3 6.72 11.41-1.55 8.09 9-2.72 11.23 6.37 3.68z"/><path class="cls-1" d="M683.18 199.34a27.47 27.47 0 1 1 27.46-27.46 27.5 27.5 0 0 1-27.46 27.46zm0-49.43a22 22 0 1 0 22 22 22 22 0 0 0-22-22z"/><path class="cls-1" transform="rotate(-36 657.535 136.509)" d="M652.9 133.77h9.19v5.49h-9.19z"/><path class="cls-1" transform="rotate(-72 641.598 158.375)" d="M637.02 155.63h9.19v5.49h-9.19z"/><path class="cls-1" transform="rotate(-17.99 641.719 185.408)" d="M638.86 180.79h5.49v9.19h-5.49z"/><path class="cls-1" transform="rotate(-54 657.445 207.237)" d="M654.74 202.64h5.49v9.19h-5.49z"/><path class="cls-1" d="M678.58 212.83h9.19v5.49h-9.19z"/><path class="cls-1" transform="rotate(-36 708.917 207.238)" d="M704.27 204.49h9.19v5.49h-9.19z"/><path class="cls-1" transform="rotate(-72 724.73 185.39)" d="M720.15 182.64h9.19v5.49h-9.19z"/><path class="cls-1" transform="rotate(-18.01 724.715 158.383)" d="M721.99 153.78h5.49v9.19h-5.49z"/><path class="cls-1" transform="rotate(-54 708.911 136.504)" d="M706.12 131.93h5.49v9.19h-5.49z"/><path class="cls-1" d="M678.58 125.43h9.19v5.49h-9.19zM687.82 683.43h27.46v5.49h-27.46zM687.82 697.16h27.46v5.49h-27.46z"/><path class="cls-1" d="M691.94 679.31h5.49v27.46h-5.49zM705.67 679.31h5.49v27.46h-5.49z"/><path class="cls-1" transform="rotate(-45 289.08 635.929)" d="M286.36 622.21h5.49v27.46h-5.49z"/><path class="cls-1" transform="rotate(-45 279.373 645.64)" d="M276.65 631.92h5.49v27.46h-5.49z"/><path class="cls-1" transform="rotate(-45 279.387 635.944)" d="M265.66 633.2h27.46v5.49h-27.46z"/><path class="cls-1" transform="rotate(-45 289.098 645.652)" d="M275.37 642.91h27.46v5.49h-27.46z"/><path class="cls-1" d="M352.08 815.71a8.49 8.49 0 0 1-8.48-8.47v-50a21 21 0 0 1-6.36-34.05l.8-.81h9.09v11.92l2.3 4.44h5.3l2.3-4.44v-11.97h9.09l.8.81a21 21 0 0 1-6.36 34.05v50a8.49 8.49 0 0 1-8.48 8.52zm-11.71-87.89a15.51 15.51 0 0 0 .75 21.12 15.3 15.3 0 0 0 6.09 3.75l1.89.63v53.92a3 3 0 0 0 6 0v-53.92l1.89-.63a15.5 15.5 0 0 0 6.84-24.87h-1.27v7.77l-4.45 8.59h-12l-4.45-8.59v-7.77zM233.63 185.85h-16.48v-16.48h16.48zm-11-5.49h5.5v-5.49h-5.5zM478.82 325.24h-16.48v-16.48h16.48zm-11-5.49h5.49v-5.49h-5.49zM544.15 502.15h-16.48v-16.48h16.48zm-11-5.49h5.49v-5.49h-5.49zM547.74 296.1h-36.21a16.67 16.67 0 0 1-16.66-16.66v-36.21a16.67 16.67 0 0 1 16.66-16.66h36.21a16.68 16.68 0 0 1 16.66 16.66v36.21a16.68 16.68 0 0 1-16.66 16.66zm-36.21-64a11.18 11.18 0 0 0-11.17 11.17v36.21a11.18 11.18 0 0 0 11.17 11.17h36.21a11.18 11.18 0 0 0 11.17-11.17v-36.25a11.18 11.18 0 0 0-11.17-11.17z"/><path class="cls-1" d="M550.4 255.71h-5.49v-9.65h-9.66v-5.5h15.15v15.15zM524.01 282.11h-15.15v-15.15h5.5v9.65h9.65v5.5zM502.87 202.33h5.49v17.26h-5.49zM550.9 202.33h5.49v17.26h-5.49zM534.89 202.33h5.49v17.26h-5.49zM518.88 202.33h5.49v17.26h-5.49zM502.87 303.16h5.49v17.27h-5.49zM550.9 303.16h5.49v17.27h-5.49zM534.89 303.16h5.49v17.27h-5.49zM518.88 303.16h5.49v17.27h-5.49zM571.42 234.57h17.26v5.49h-17.26zM571.42 282.6h17.26v5.49h-17.26zM571.42 266.59h17.26v5.49h-17.26zM571.42 250.58h17.26v5.49h-17.26zM470.58 234.57h17.26v5.49h-17.26zM470.58 282.6h17.26v5.49h-17.26zM470.58 266.59h17.26v5.49h-17.26zM470.58 250.58h17.26v5.49h-17.26zM53.2 451.03h5.49v24.72H53.2zM109.91 451.03h5.49v24.72h-5.49zM121.13 451.03h5.49v24.72h-5.49zM211.81 451.03h5.49v24.72h-5.49zM223.02 451.03h5.49v24.72h-5.49zM155.09 451.03h5.49v24.72h-5.49zM72.93 475.74a8.52 8.52 0 0 1-8.52-8.51v-7.69a8.52 8.52 0 0 1 17 0v7.69a8.52 8.52 0 0 1-8.48 8.51zm0-19.22a3 3 0 0 0-3 3v7.69a3 3 0 0 0 6 0v-7.69a3 3 0 0 0-3-3zM95.68 475.74a8.52 8.52 0 0 1-8.52-8.51v-7.69a8.52 8.52 0 0 1 17 0v7.69a8.52 8.52 0 0 1-8.48 8.51zm0-19.22a3 3 0 0 0-3 3v7.69a3 3 0 0 0 6 0v-7.69a3 3 0 0 0-3-3zM140.85 475.74a8.52 8.52 0 0 1-8.51-8.51v-7.69a8.52 8.52 0 0 1 17 0v7.69a8.52 8.52 0 0 1-8.49 8.51zm0-19.22a3 3 0 0 0-3 3v7.69a3 3 0 0 0 6 0v-7.69a3 3 0 0 0-3-3zM197.57 475.74a8.52 8.52 0 0 1-8.51-8.51v-7.69a8.51 8.51 0 0 1 17 0v7.69a8.52 8.52 0 0 1-8.49 8.51zm0-19.22a3 3 0 0 0-3 3v7.69a3 3 0 0 0 6 0v-7.69a3 3 0 0 0-3-3zM174.82 475.74a8.52 8.52 0 0 1-8.51-8.51v-7.69a8.51 8.51 0 0 1 17 0v7.69a8.52 8.52 0 0 1-8.49 8.51zm0-19.22a3 3 0 0 0-3 3v7.69a3 3 0 0 0 6 0v-7.69a3 3 0 0 0-3-3zM635.09 255.96h5.49v24.72h-5.49zM691.8 255.96h5.49v24.72h-5.49zM703.02 255.96h5.49v24.72h-5.49zM654.82 280.67a8.52 8.52 0 0 1-8.51-8.51v-7.69a8.51 8.51 0 1 1 17 0v7.69a8.52 8.52 0 0 1-8.49 8.51zm0-19.22a3 3 0 0 0-3 3v7.69a3 3 0 1 0 6 0v-7.69a3 3 0 0 0-3-3zM677.57 280.67a8.52 8.52 0 0 1-8.52-8.51v-7.69a8.52 8.52 0 0 1 17 0v7.69a8.52 8.52 0 0 1-8.48 8.51zm0-19.22a3 3 0 0 0-3 3v7.69a3 3 0 1 0 6 0v-7.69a3 3 0 0 0-3-3zM722.75 280.67a8.52 8.52 0 0 1-8.51-8.51v-7.69a8.51 8.51 0 0 1 17 0v7.69a8.52 8.52 0 0 1-8.49 8.51zm0-19.22a3 3 0 0 0-3 3v7.69a3 3 0 1 0 6 0v-7.69a3 3 0 0 0-3-3zM424.83 136.29h5.49v24.72h-5.49zM481.55 136.29h5.49v24.72h-5.49zM492.76 136.29h5.49v24.72h-5.49zM583.44 136.29h5.49v24.72h-5.49zM526.73 136.29h5.49v24.72h-5.49zM444.56 161a8.52 8.52 0 0 1-8.51-8.52v-7.68a8.52 8.52 0 1 1 17 0v7.68a8.53 8.53 0 0 1-8.49 8.52zm0-19.23a3 3 0 0 0-3 3v7.68a3 3 0 1 0 6 0v-7.68a3 3 0 0 0-3-2.99zM467.31 161a8.52 8.52 0 0 1-8.51-8.52v-7.68a8.52 8.52 0 1 1 17 0v7.68a8.53 8.53 0 0 1-8.49 8.52zm0-19.23a3 3 0 0 0-3 3v7.68a3 3 0 1 0 6 0v-7.68a3 3 0 0 0-3-2.99zM512.49 161a8.52 8.52 0 0 1-8.51-8.52v-7.68a8.52 8.52 0 1 1 17 0v7.68a8.53 8.53 0 0 1-8.49 8.52zm0-19.23a3 3 0 0 0-3 3v7.68a3 3 0 1 0 6 0v-7.68a3 3 0 0 0-3-2.99zM569.21 161a8.53 8.53 0 0 1-8.52-8.52v-7.68a8.52 8.52 0 1 1 17 0v7.68a8.52 8.52 0 0 1-8.48 8.52zm0-19.23a3 3 0 0 0-3 3v7.68a3 3 0 1 0 6 0v-7.68a3 3 0 0 0-3-2.99zM546.46 161a8.53 8.53 0 0 1-8.52-8.52v-7.68a8.52 8.52 0 1 1 17 0v7.68a8.52 8.52 0 0 1-8.48 8.52zm0-19.23a3 3 0 0 0-3 3v7.68a3 3 0 1 0 6 0v-7.68a3 3 0 0 0-3-2.99zM692.71 502.24h5.49v21.97h-5.49zM702.33 502.24h5.49v21.97h-5.49zM780.05 502.24h5.49v21.97h-5.49zM731.44 502.24h5.49v21.97h-5.49zM719.63 524.22a7.71 7.71 0 0 1-7.69-7.7v-6.59a7.69 7.69 0 0 1 15.38 0v6.59a7.71 7.71 0 0 1-7.69 7.7zm0-16.48a2.2 2.2 0 0 0-2.2 2.19v6.59a2.2 2.2 0 0 0 4.4 0v-6.59a2.2 2.2 0 0 0-2.2-2.19zM768.24 524.22a7.71 7.71 0 0 1-7.69-7.7v-6.59a7.69 7.69 0 1 1 15.38 0v6.59a7.71 7.71 0 0 1-7.69 7.7zm0-16.48a2.2 2.2 0 0 0-2.2 2.19v6.59a2.2 2.2 0 0 0 4.4 0v-6.59a2.19 2.19 0 0 0-2.2-2.19zM748.74 524.22a7.71 7.71 0 0 1-7.69-7.7v-6.59a7.69 7.69 0 1 1 15.38 0v6.59a7.71 7.71 0 0 1-7.69 7.7zm0-16.48a2.2 2.2 0 0 0-2.2 2.19v6.59a2.2 2.2 0 0 0 4.4 0v-6.59a2.2 2.2 0 0 0-2.2-2.19zM531.86 624.27v-5.5a4.2 4.2 0 0 0 4.19-4.19V531.3a4.2 4.2 0 0 0-4.19-4.19H314.44a4.2 4.2 0 0 0-4.19 4.19v83.28a4.2 4.2 0 0 0 4.19 4.19v5.5a9.7 9.7 0 0 1-9.69-9.69V531.3a9.7 9.7 0 0 1 9.69-9.68h217.42a9.7 9.7 0 0 1 9.69 9.68v83.28a9.7 9.7 0 0 1-9.69 9.69z"/><path class="cls-1" d="M376.33 618.77h93.64v5.49h-93.64zM319.17 534.9h207.97v5.49H319.17zM384.63 591.41h14.02v5.49h-14.02zM427.46 591.41h14.01v5.49h-14.01zM406.21 591.41h14.02v5.49h-14.02zM449.05 591.41h14.01v5.49h-14.01zM368.88 577.33h8.52v5.49h-8.52zM470.29 577.33h8.52v5.49h-8.52zM384.63 577.33h14.02v5.49h-14.02zM427.46 577.33h14.01v5.49h-14.01zM406.21 577.33h14.02v5.49h-14.02zM449.05 577.33h14.01v5.49h-14.01zM384.63 605.49h14.02v5.49h-14.02zM406.21 605.49h35.26v5.49h-35.26zM449.05 605.49h14.01v5.49h-14.01zM341.8 563.25h14.01v5.49H341.8zM320.55 563.25h14.02v5.49h-14.02zM384.63 563.25h14.02v5.49h-14.02zM363.39 563.25h14.02v5.49h-14.02zM427.46 563.25h14.01v5.49h-14.01zM406.21 563.25h14.02v5.49h-14.02zM470.29 563.25h14.01v5.49h-14.01zM449.05 563.25h14.01v5.49h-14.01zM513.12 563.25h14.02v5.49h-14.02zM491.88 563.25h14.01v5.49h-14.01zM341.8 549.17h14.01v5.49H341.8zM320.55 549.17h14.02v5.49h-14.02zM384.63 549.17h14.02v5.49h-14.02zM363.39 549.17h14.02v5.49h-14.02zM427.46 549.17h14.01v5.49h-14.01zM406.21 549.17h14.02v5.49h-14.02zM470.29 549.17h14.01v5.49h-14.01zM449.05 549.17h14.01v5.49h-14.01zM513.12 549.17h14.02v5.49h-14.02zM491.88 549.17h14.01v5.49h-14.01zM335.98 265.26h30.57v5.49h-30.57zM348.54 252.3h30.57v5.49h-30.57zM324.18 239.35h32.77v5.49h-32.77zM350.5 224.06h23.72v5.49H350.5zM382.46 224.06h8.83v5.49h-8.83zM778.16 636.12c2.24 3.13 1.79 5.36 1.19 6.41s-1.93 2.83-5.81 2.83H723c-3.87 0-5.36-1.79-5.81-2.83s-1-3.28 1.19-6.41l7.45-9.83a41.42 41.42 0 1 1 63.78-34.87 41.76 41.76 0 0 1-18.93 34.87zm-29.95-6.25a38.45 38.45 0 1 0-38.44-38.45 38.45 38.45 0 0 0 38.44 38.45zm27.56 8l-7.59-10.13a41 41 0 0 1-20 5.07 42.43 42.43 0 0 1-19.82-4.92l-7.44 10c-1.05 1.34-1.5 2.54-1.05 3.28s1.49 1.19 3.28 1.19h50.36c1.64 0 2.84-.45 3.28-1.19s.03-1.92-1.02-3.26zm-27.56-29.2a17.21 17.21 0 1 1 17.29-17.29 17.29 17.29 0 0 1-17.29 17.33zm0-3a14.24 14.24 0 1 0-14.31-14.31 14.31 14.31 0 0 0 14.31 14.37zm0-6.71a7.53 7.53 0 1 1 0-15 7.52 7.52 0 0 1 7.61 7.45 7.64 7.64 0 0 1-7.61 7.59zm0-3a4.55 4.55 0 1 0-4.61-4.62 4.65 4.65 0 0 0 4.61 4.66zm14.3-25.18a3.86 3.86 0 0 1 3.89-3.78 4 4 0 0 1 3.87 3.88 3.85 3.85 0 0 1-3.87 3.87 3.77 3.77 0 0 1-3.89-3.89zm3 0a.79.79 0 0 0 .9.89.85.85 0 0 0 .88-.89 1 1 0 0 0-.88-.9.86.86 0 0 0-.91.98z"/><path class="cls-1" d="M773.54 646.92H723c-5.21 0-6.86-2.89-7.24-3.78s-1.6-3.78 1.35-7.92l6.48-8.55a43 43 0 1 1 67.58-35.25 43.19 43.19 0 0 1-18.26 35.23l6.49 8.57c3 4.13 1.88 7 1.28 8.08-.28.7-1.93 3.62-7.14 3.62zm-44.68-17l-6.67 8.93a3.65 3.65 0 0 0-.9 1.68 4.29 4.29 0 0 0 1.89.3h50.36a3.06 3.06 0 0 0 1.94-.43c-.08.09-.17-.54-.93-1.52l-6.82-9.09a42.52 42.52 0 0 1-19.52 4.62 43.67 43.67 0 0 1-19.35-4.5zm19.35-75.38a36.89 36.89 0 1 0 36.89 36.89 36.92 36.92 0 0 0-36.89-36.9zM728 626l.45.24-.43-.25zm20.17-15.72a18.77 18.77 0 1 1 18.85-18.84 18.86 18.86 0 0 1-18.81 18.82zm0-31.44A12.68 12.68 0 1 0 761 591.42a12.69 12.69 0 0 0-12.79-12.6zm0 21.76a9.09 9.09 0 1 1 9.16-9.16 9.17 9.17 0 0 1-9.12 9.14zm0-12.07a3.07 3.07 0 0 0-3.06 2.91 3.06 3.06 0 1 0 6.12 0 3.07 3.07 0 0 0-3.02-2.93zm18.18-12.22a5.31 5.31 0 0 1-5.43-5.43 5.44 5.44 0 0 1 5.43-5.44 5.5 5.5 0 0 1 5.43 5.44 5.37 5.37 0 0 1-5.39 5.41zm-.67-5.43a.62.62 0 0 0 .67.66.72.72 0 0 0 .67-.66.82.82 0 0 0-.66-.67.72.72 0 0 0-.67.67zM704.49 417.58v32.73c0 .1-.1.1-.1.2v.38a5.16 5.16 0 0 1-.18 1 5.55 5.55 0 0 1-3.62 3.62c-.58.09-1.05.19-1.71.28h-42a2.27 2.27 0 0 1-.86-.19 5.66 5.66 0 0 1-4-3.14 5.77 5.77 0 0 1-.57-2.66v-32.03a7.53 7.53 0 0 0-.09-1.42c-.1-.48-.2-1-.29-1.43-.1-.29-.1-.48-.19-.76l-.76-4.19c0-.29-.09-.48-.09-.76-.11-.47-.2-.95-.29-1.43s-.19-.85-.29-1.33-.19-.86-.28-1.33c-.1-.19-.1-.48-.19-.67a1.08 1.08 0 0 1 .47-.09c.2 0 .38-.1.58-.1l6.75-1.14c.76-.09 1.61-.28 2.47-.38l29.88-5c.86-.19 1.62-.29 2.48-.48a4.53 4.53 0 0 0 1.14-.19c.47-.09 1-.09 1.42-.19l2.48-.48c.66-.09 1.23-.28 1.81-.38 1-.19 2.09-.47 3.13-.66h.2c.09.47.18.95.28 1.52s.19 1.05.28 1.52l.1.57c.19.86.38 1.81.48 2.67.09.47.19 1 .28 1.52s.19.95.29 1.52h.09c.2 1.24.38 2.38.67 3.62 0 .28.09.48 0 .67a.94.94 0 0 1-.57.94 1.33 1.33 0 0 1-.67.19l-1.71.29-1.72.29-4 .66c-.76.19-1.52.29-2.28.48l-2 .28c-.57.1-1.24.19-1.91.29a12.78 12.78 0 0 1-1.9.38c-1.33.19-2.76.48-4.09.67-.85.19-1.81.28-2.76.47-.67.1-1.43.19-2.19.29l-7.8 1c-.66.1-1.43.19-2.19.29-.38 0-.76.09-1.14.09s-1 .1-1.33.19h-.19l-.48.19.48.19h37.2a1.33 1.33 0 0 1 .67.2.84.84 0 0 1 .57.57.72.72 0 0 1 .19.38.17.17 0 0 0 .05.28zm-51.19-2.19l.1-.09.09-.1c2.18-3.71 4.28-7.13 6.38-10.56l.18-.28-.38.09h-.09l-6.28 1.05c-.29.09-.57.09-.86.19s-.57.09-.86.09l-.28.1v.19c.48 2 .86 4.09 1.24 6.09l.57 3s0 .1.09.1zm49.29 7.05v-4.57h-48.91s-.1 0-.1.09h-.18V450a6.65 6.65 0 0 0 .18 1.33 3.76 3.76 0 0 0 2.29 2.38 5.55 5.55 0 0 0 1.71.38h1.62c1.43 0 2.94 0 4.47-.1h9.89c2.2 0 4.38 0 6.67.1h18a5.39 5.39 0 0 0 1.71-.29 3.59 3.59 0 0 0 2.19-1.71 5.28 5.28 0 0 0 .38-1.42c0-.19.1-.48.1-.86v-27.4zM661 406.93c-.58 1-1.14 2-1.72 2.94s-1 1.62-1.52 2.48-.95 1.62-1.43 2.38l-.09.1v.17l-.1.09.19.09h.19l1.9-.28c1.15-.09 2.29-.29 3.43-.48.28 0 .28-.09.38-.19l.1-.09c.76-1.33 1.62-2.67 2.38-4s1.62-2.66 2.47-4l.38-.76a21.6 21.6 0 0 0 1.24-2 .09.09 0 0 1 .09-.1v-.09l.19-.29h-.57l-1.33.29a7.11 7.11 0 0 0-1.43.19c-.76.09-1.71.28-2.66.47-.1 0-.19.09-.29.19v.1a29.08 29.08 0 0 1-1.8 2.79zm8.27.09c-.95 1.43-1.81 2.85-2.66 4.28-.48.76-1 1.53-1.33 2.29h-.1v.47l1.33-.19 4.57-.57v-.09h.1c1-1.81 2.09-3.53 3.13-5.24 1.34-2.09 2.58-4.19 3.91-6.37v-.29l-.38.1c-1.91.28-3.81.66-5.71.95h-.09l-.11.29c-.93 1.42-1.79 2.94-2.65 4.35zm9.23-1.62c-1 1.43-1.81 3-2.66 4.38-.38.57-.76 1.14-1.05 1.62a8.82 8.82 0 0 1-.57 1c0 .09-.09.09-.09.19l-.2.29h.29c.57-.1 1.14-.1 1.62-.19s.85-.1 1.24-.2.56-.09.85-.09l1.91-.29h.09V412c1.52-2.48 3-5 4.57-7.42.85-1.52 1.81-2.95 2.66-4.38 0-.1 0-.1.1-.19v-.19H687c-.19 0-.28.09-.38.09h-.38l-4.57.86h-.09c-.19 0-.29 0-.38.19v.1c-.97 1.39-1.83 2.94-2.69 4.34zm8.28-.28c-1.14 1.81-2.19 3.62-3.23 5.33a1.62 1.62 0 0 1-.29.38c-.09.19-.19.28-.28.47s0 .19 0 .29h.19c.94-.19 1.9-.29 2.85-.48s2-.28 3-.47l7.32-12.09.1-.28H696c-.28.09-.48.09-.76.19a4.54 4.54 0 0 0-1.23.19l-1.15.19c-.19 0-.47.09-.76.09-.47.1-1 .19-1.52.29a.52.52 0 0 0-.48.28c-1.1 1.91-2.26 3.72-3.31 5.62zm5.33 4.66l-.09.28 2.85-.47c2.38-.38 4.85-.85 7.23-1.24.1 0 .1-.09.19-.09v-.38a12.91 12.91 0 0 1-.38-1.91l-.47-2.37c-.1-.38-.2-.86-.29-1.34s-.19-1-.29-1.61c-.19-1-.38-2-.57-2.95l-.09-.29-.2.1a.36.36 0 0 0-.28.09h-.19l-.09.1s-7.23 11.89-7.32 12.08z"/><path class="cls-1" d="M698.68 457H657.1a3.7 3.7 0 0 1-1.54-.3A6.58 6.58 0 0 1 651 453a6.82 6.82 0 0 1-.69-3.16v-32.07a6 6 0 0 0-.07-1.2l-.28-1.43a2 2 0 0 1-.11-.39l-.09-.38-.76-4.19 1.1-.59-1.14.23a2.84 2.84 0 0 1-.07-.61l-.22-.95c-.13-.59-.24-1.09-.33-1.58l-.26-1.22a1.9 1.9 0 0 1-.08-.46l-.52-1 1-.56a2.13 2.13 0 0 1 1-.22 1.64 1.64 0 0 1 .58-.1l6.56-1.12c.38-.05.74-.11 1.1-.18s.95-.16 1.43-.21l29.82-5 1.2-.23c.39-.07.79-.14 1.21-.23a5 5 0 0 0 1.11-.18 8.38 8.38 0 0 1 .87-.13c.2 0 .41 0 .61-.07l2.49-.48c.38-.06.69-.13 1-.2s.57-.14.85-.19l1.21-.26c.63-.14 1.29-.29 1.92-.4h1.3l.95 4.59a26.34 26.34 0 0 1 .49 2.73l.27 1.43c0 .19.08.38.11.57l.25 1c.19 1.21.37 2.32.65 3.54v.38a2 2 0 0 1 0 .76 2.12 2.12 0 0 1-1.22 1.78 2.42 2.42 0 0 1-1.18.31l-7.23 1.23c-.31.08-.7.15-1.1.23s-.72.13-1.08.22l-2.13.31-1.61.24-.29.05a12.89 12.89 0 0 1-1.91.38c-.64.09-1.31.2-2 .32s-1.41.24-2.1.34c-.39.09-.9.17-1.43.26-.37.05-.73.11-1.1.18h22a2.49 2.49 0 0 1 1.2.32 1.79 1.79 0 0 1 1.06 1 2 2 0 0 1 .32.74l-.1 33.82a5.62 5.62 0 0 1-.21 1.26 6.7 6.7 0 0 1-4.36 4.47l-.62.13-1.37.17zm-32-4.14h6.84c2.21 0 4.41 0 6.71.09h17.94a4.27 4.27 0 0 0 1.34-.22 2.52 2.52 0 0 0 1.55-1.18 6.48 6.48 0 0 0 .24-1.05 1.27 1.27 0 0 1 0-.29 3.43 3.43 0 0 0 0-.38V419l-46.86.09V450a4.24 4.24 0 0 0 .12.88 2.6 2.6 0 0 0 1.63 1.75 4.53 4.53 0 0 0 1.27.29h1.62c1.36 0 2.89 0 4.4-.09zm-14.05-36.06h.37l-.41-.33zm2-1.18l-.1.18-.4.44-.49.46h10.48l-1.83-.74 1.76-.71v-1.65l-.67 1.14-.19.25a1.58 1.58 0 0 1-1.3.62c-1.11.2-2.22.38-3.33.47l-2.47.29zm6.78-2.14l-.1.09 1 .68-.31-.25-.71-.41zm.6-5.91c-.56 1-1.12 2-1.69 2.91-.23.42-.52.86-.8 1.3s-.48.75-.7 1.14l-.51.84c1.12-.09 2.15-.26 3.19-.44.34-.59.7-1.18 1.06-1.77s.8-1.31 1.17-2 .89-1.42 1.3-2.1.79-1.3 1.2-2l.32-.65a4.45 4.45 0 0 0 .32-.48c-.32 0-.58.1-.85.15-.71.09-1.49.24-2.29.4a25.8 25.8 0 0 1-1.73 2.7zm-.12 5.7zm15.65-.87l.11.7h.25zm-4.69-9c-.63 1-1.23 2-1.81 3l-.76 1.26c-.93 1.42-1.78 2.83-2.62 4.24l-.45.71 3.3-.52c.94-1.6 1.87-3.13 2.8-4.66s1.89-3 2.81-4.55l-.92.16zm8.29 8.87v.31l.72-.11h.06l-.06-.71a1.38 1.38 0 0 1 0-.6zm-28.43-5.47c.31 1.44.6 2.95.87 4.43l.23 1.18c1.3-2.19 2.6-4.35 3.92-6.49l-4.21.7a2 2 0 0 1-.42.09zm29.35-5c-.66 1-1.28 2.05-1.88 3.08l-.66 1.11c-.72 1.07-1.38 2.19-2 3.29l-.62 1-.67 1h.16a3.17 3.17 0 0 0 .46-.07h.29a6.59 6.59 0 0 1 .85-.09l1.23-.2 4.35-7.05c.49-.89 1.05-1.78 1.61-2.67zm8.9 7.81l-.85 1.41.41-.06zm.05-9.34l-.84 1.4c-.8 1.31-1.59 2.61-2.33 3.95v.06a91.38 91.38 0 0 0-2 3.32l-.62 1 .66-.12c.5-.1 1-.17 1.53-.25l.92-.14 5.93-9.78-1.11.19a5.78 5.78 0 0 1-1 .11zm8.54-.51l-5.27 8.69.44-.07c1.17-.19 2.36-.4 3.55-.61l2.73-.47c-.08-.4-.15-.8-.21-1.22l-.46-2.32c-.09-.32-.19-.82-.28-1.32zm-36.3 5.24zm16.14-4.51v1.12c.23-.36.45-.72.68-1.07l.06-.16zm11.46-.17zm.32-.34l-.06.1zm-2.73-1v1l.68-1.13zm9.21-1.63l-.14 1.27.88-1.44a3.75 3.75 0 0 0-.39.09zM682.89 557.13h-16.48v-16.48h16.48zm-11-5.49h5.49v-5.49h-5.49zM645.6 659l6.1 1v6.1l-6.1 1a13.36 13.36 0 0 1-1.42 3.43l3.62 5-4.27 4.28-5.06-3.5a18.64 18.64 0 0 1-3.44 1.42l-1 6h-6.1l-1-6a14.81 14.81 0 0 1-3.44-1.42l-5.05 3.5-4.29-4.28 3.57-5a12.24 12.24 0 0 1-1.42-3.43l-6-1V660l6-1a13.33 13.33 0 0 1 1.42-3.5l-3.5-5 4.28-4.28 5 3.57a14.41 14.41 0 0 1 3.44-1.43l1-6H634l1 6.1a14.14 14.14 0 0 1 3.44 1.42l5-3.63 4.28 4.28-3.56 5.06a13.29 13.29 0 0 1 1.44 3.41zm4.87 2l-5.84-1-.13-.38a13.61 13.61 0 0 0-1.56-3.77l-.19-.32 3.37-4.93-2.79-2.79-4.8 3.44-.32-.19a14.57 14.57 0 0 0-3.83-1.56l-.39-.13-1-5.84h-4l-1 5.84-.39.06a13.18 13.18 0 0 0-3.83 1.63l-.33.19-4.8-3.44-2.85 2.79 3.37 4.87-.19.32a13.41 13.41 0 0 0-1.63 3.83l-.06.38-5.83 1v4l5.77 1 .12.39a15.29 15.29 0 0 0 1.56 3.83l.26.32-3.44 4.8 2.86 2.85 4.8-3.44.32.27a14.74 14.74 0 0 0 3.83 1.55l.39.07 1 5.83h4l1-5.83.39-.07a15.7 15.7 0 0 0 3.83-1.62l.32-.2 4.87 3.38 2.85-2.79-3.5-4.8.19-.39a13.55 13.55 0 0 0 1.56-3.76l.13-.39 5.84-1zm-12.2 2.08a7.3 7.3 0 1 1-7.27-7.28 7.25 7.25 0 0 1 7.27 7.33zm-1.23-.07a6.07 6.07 0 1 0-6 6.1 6.06 6.06 0 0 0 5.96-6.05z"/><path class="cls-1" d="M635 685h-8.1l-1-6.28a16.33 16.33 0 0 1-2.33-1l-5.27 3.65-5.68-5.66 3.71-5.19a14.4 14.4 0 0 1-1-2.35l-6.28-1.08V659l6.29-1a14.06 14.06 0 0 1 1-2.39l-3.65-5.2 5.67-5.68 5.21 3.73a15.69 15.69 0 0 1 2.32-1l1-6.28H635l1.09 6.34a16.11 16.11 0 0 1 2.32 1l5.2-3.78 5.68 5.68-3.71 5.27a14.76 14.76 0 0 1 1 2.32l6.34 1v8.08l-6.34 1.08a14.44 14.44 0 0 1-1 2.33l3.78 5.2-5.68 5.67-5.28-3.65a19.89 19.89 0 0 1-2.32.95zm-5.05-3.56H632l1-5.69 1.2-.2a14.46 14.46 0 0 0 3.42-1.47l1-.59 4.7 3.26 1.44-1.41-3.33-4.56.52-1a13 13 0 0 0 1.47-3.52l.38-1.13 5.55-1V662l-5.55-.93-.35-1.05a13 13 0 0 0-1.46-3.53l-.58-1 3.25-4.75-1.41-1.4-4.61 3.3-1-.57a13.23 13.23 0 0 0-3.52-1.43l-1.14-.39-1-5.55h-2l-1 5.68-1.21.2a12.43 12.43 0 0 0-3.41 1.47l-1 .59-4.62-3.31-1.45 1.42 3.24 4.68-.59 1a12.33 12.33 0 0 0-1.48 3.49l-.18 1.13-5.69.95v2.05l5.5 1 .34 1.06a14.39 14.39 0 0 0 1.46 3.6l.72.86-3.38 4.72 1.45 1.45 4.73-3.38 1 .83a13.53 13.53 0 0 0 3.36 1.32l1.12.2zm1.09-9.86a8.47 8.47 0 1 1 8.43-8.43 8.48 8.48 0 0 1-8.47 8.41zm0-13.37a4.9 4.9 0 1 0 4.86 4.87 4.91 4.91 0 0 0-4.9-4.89zM619.43 614.82l7.49 1.19v7.5l-7.49 1.28a16.58 16.58 0 0 1-1.75 4.22l4.46 6.14-5.26 5.26-6.22-4.3a23 23 0 0 1-4.23 1.75l-1.28 7.42h-7.49l-1.19-7.42a17.92 17.92 0 0 1-4.23-1.75l-6.22 4.3-5.27-5.26 4.39-6.14a15.29 15.29 0 0 1-1.75-4.22l-7.39-1.28V616l7.42-1.19a16.82 16.82 0 0 1 1.75-4.31l-4.3-6.14 5.26-5.26 6.14 4.39a17.94 17.94 0 0 1 4.23-1.76l1.19-7.41h7.49l1.28 7.49a17.94 17.94 0 0 1 4.23 1.75l6.13-4.46 5.27 5.26-4.38 6.22a16.65 16.65 0 0 1 1.72 4.24zm6 2.47l-7.17-1.2-.17-.47a16.54 16.54 0 0 0-1.91-4.63l-.24-.4 4.15-6.05-3.43-3.44-5.9 4.23-.4-.24a17.87 17.87 0 0 0-4.71-1.91l-.48-.16-1.27-7.18H599l-1.2 7.18-.48.07a16.62 16.62 0 0 0-4.7 2l-.4.24-5.9-4.23-3.51 3.44 4.14 6-.24.4a16.66 16.66 0 0 0-2 4.71l-.08.47-7.17 1.2v4.94l7.09 1.28.16.48a18.33 18.33 0 0 0 1.92 4.7l.31.4-4.22 5.9 3.51 3.51 5.9-4.23.4.33a18.12 18.12 0 0 0 4.7 1.9l.48.09 1.19 7.17h5l1.27-7.17.48-.09a18.43 18.43 0 0 0 4.71-2l.4-.24 6 4.15 3.51-3.43-4.31-5.9.24-.48a16.73 16.73 0 0 0 1.91-4.62l.17-.48 7.17-1.28zm-15 2.55a9 9 0 1 1-8.93-9 8.91 8.91 0 0 1 8.92 9zm-1.51-.08a7.46 7.46 0 1 0-7.42 7.5 7.45 7.45 0 0 0 7.41-7.5z"/><path class="cls-1" d="M606.14 646.44h-9.47l-1.24-7.66a20.31 20.31 0 0 1-3.12-1.3l-6.43 4.45-6.65-6.65 4.52-6.33a16 16 0 0 1-1.28-3.14l-7.67-1.32V615l7.67-1.24a16.87 16.87 0 0 1 1.3-3.2l-4.45-6.34 6.65-6.66 6.35 4.54a19 19 0 0 1 3.11-1.29l1.24-7.67h9.47l1.32 7.75a19 19 0 0 1 3.12 1.28l6.33-4.61 6.67 6.66-4.53 6.42a17.41 17.41 0 0 1 1.3 3.12l7.74 1.24v9.47l-7.74 1.32a17.81 17.81 0 0 1-1.29 3.12l4.61 6.35-6.67 6.67-6.44-4.46a24.38 24.38 0 0 1-3.11 1.28zm-6.22-3.84h3l1.24-7 1.29-.23a17.21 17.21 0 0 0 4.3-1.84l1-.63 5.81 4 2.1-2-4.14-5.66.56-1.12a15.42 15.42 0 0 0 1.83-4.38l.41-1.22 6.89-1.22v-3l-6.88-1.15L617 616a15.82 15.82 0 0 0-1.81-4.4l-.63-1.05 4-5.88-2-2-5.71 4.09-1-.62a16.76 16.76 0 0 0-4.4-1.79l-1.23-.41-1.32-6.94H600l-1.17 7-1.31.21a15 15 0 0 0-4.28 1.84l-1.07.63-5.72-4.1-2.11 2.06 4 5.79-.62 1a15.46 15.46 0 0 0-1.87 4.38l-.19 1.22-7 1.17v3l6.82 1.22.37 1.15a17.56 17.56 0 0 0 1.82 4.48l.77.94-4.17 5.81 2.11 2.11 5.83-4.17 1.09.89a17.37 17.37 0 0 0 4.24 1.68l1.22.22zm1.56-12.66a10.14 10.14 0 1 1 10.11-10.1 10.15 10.15 0 0 1-10.11 10.1zm0-16.43a6.29 6.29 0 1 0 6.26 6.25 6.3 6.3 0 0 0-6.26-6.25zM455.38 767.43h-5.49v-21l.64-.77A23.49 23.49 0 1 0 413 717.61l-4.57-3a29 29 0 1 1 47 33.87zM186.17 662.68c-.59-6.43-6.53-11.74-14.76-13.23a1.8 1.8 0 0 0-1.57.5l-3 3-3-3a1.87 1.87 0 0 0-1.58-.5c-8.23 1.49-14.17 6.84-14.76 13.23a1.8 1.8 0 0 0 1.26 1.89 66.89 66.89 0 0 0 36.09 0 1.8 1.8 0 0 0 1.32-1.89zm-19.3.81a59.31 59.31 0 0 1-15.48-1.89c1.12-3.87 5.22-7.15 10.62-8.41l3.55 3.55a1.78 1.78 0 0 0 1.26.54 1.69 1.69 0 0 0 1.26-.54l3.56-3.55c5.39 1.26 9.49 4.5 10.61 8.41a59.75 59.75 0 0 1-15.38 1.89z"/><path class="cls-1" d="M166.87 667.63a62.9 62.9 0 0 1-18.22-2.5 2.39 2.39 0 0 1-1.67-2.51c.61-6.68 6.74-12.21 15.24-13.74a2.46 2.46 0 0 1 2.09.66l2.56 2.55 2.55-2.55a2.37 2.37 0 0 1 2.08-.66c8.52 1.53 14.64 7.06 15.25 13.75a2.39 2.39 0 0 1-1.66 2.5 62.51 62.51 0 0 1-18.22 2.5zM162.6 650h-.18c-8 1.44-13.71 6.54-14.27 12.71A1.22 1.22 0 0 0 149 664a66.49 66.49 0 0 0 35.73 0 1.21 1.21 0 0 0 .85-1.26c-.56-6.17-6.3-11.27-14.28-12.71a1.24 1.24 0 0 0-1.06.33l-3.38 3.38-3.39-3.38a1.28 1.28 0 0 0-.87-.36zm4.27 14.06a60.25 60.25 0 0 1-15.64-1.91l-.57-.16.17-.57c1.2-4.13 5.43-7.51 11-8.82l.32-.07 3.78 3.78a1.2 1.2 0 0 0 1.67 0l3.81-3.81.32.07c5.63 1.31 9.86 4.69 11 8.82l.17.57-.57.16a60.69 60.69 0 0 1-15.46 1.96zm-14.73-2.88a63.91 63.91 0 0 0 29.37 0c-1.26-3.4-4.9-6.17-9.69-7.37l-3.33 3.33a2.42 2.42 0 0 1-3.34 0l-3.32-3.33c-4.71 1.19-8.42 4.04-9.69 7.39zM156.56 636a10.31 10.31 0 1 0 10.31-10.31A10.31 10.31 0 0 0 156.56 636zm10.31 6.7a6.71 6.71 0 1 1 6.7-6.7 6.72 6.72 0 0 1-6.7 6.72z"/><path class="cls-1" d="M166.87 646.9a10.89 10.89 0 1 1 10.88-10.9 10.89 10.89 0 0 1-10.88 10.9zm0-20.6a9.72 9.72 0 1 0 9.72 9.72 9.73 9.73 0 0 0-9.72-9.72zm0 17a7.29 7.29 0 1 1 7.28-7.29 7.3 7.3 0 0 1-7.28 7.3zm0-13.41A6.12 6.12 0 1 0 173 636a6.13 6.13 0 0 0-6.13-6.1zM219.41 642c-.54-6-6.09-11-13.78-12.36a1.7 1.7 0 0 0-1.47.46l-2.78 2.78-2.77-2.78a1.75 1.75 0 0 0-1.47-.46c-7.69 1.39-13.24 6.39-13.79 12.36a1.69 1.69 0 0 0 1.18 1.76 62.61 62.61 0 0 0 33.7 0 1.68 1.68 0 0 0 1.18-1.76zm-18 .75a55.73 55.73 0 0 1-14.49-1.75c1.06-3.62 4.88-6.68 9.92-7.86l3.32 3.32a1.65 1.65 0 0 0 1.18.5 1.59 1.59 0 0 0 1.18-.5l3.32-3.32c5 1.18 8.86 4.2 9.91 7.86a56.26 56.26 0 0 1-14.37 1.77z"/><path class="cls-1" d="M201.38 646.68a58.75 58.75 0 0 1-17-2.34 2.28 2.28 0 0 1-1.59-2.39c.57-6.25 6.31-11.43 14.26-12.86a2.3 2.3 0 0 1 2 .62l2.36 2.36 2.36-2.36a2.3 2.3 0 0 1 2-.63c8 1.44 13.7 6.62 14.27 12.88a2.26 2.26 0 0 1-1.57 2.38 58.6 58.6 0 0 1-17.09 2.34zm-4-16.46h-.16c-7.43 1.34-12.78 6.09-13.31 11.83a1.12 1.12 0 0 0 .78 1.16 57.77 57.77 0 0 0 16.67 2.28 57.05 57.05 0 0 0 16.68-2.29 1.1 1.1 0 0 0 .77-1.14c-.52-5.74-5.87-10.49-13.31-11.83a1.1 1.1 0 0 0-1 .3l-3.19 3.18-3.18-3.18a1.17 1.17 0 0 0-.73-.31zm4 13.14a56.15 56.15 0 0 1-14.61-1.79l-.57-.16.16-.57c1.13-3.87 5.09-7 10.35-8.26l.32-.08 3.55 3.56a1.1 1.1 0 0 0 1.5 0l3.57-3.59.32.08c5.27 1.23 9.23 4.4 10.35 8.27l.16.57-.57.15a56.63 56.63 0 0 1-14.53 1.82zm-13.7-2.76a59.52 59.52 0 0 0 27.33 0c-1.19-3.13-4.56-5.69-9-6.81l-3.09 3.09a2.29 2.29 0 0 1-3.18 0l-3.09-3.09c-4.35 1.1-7.78 3.72-8.97 6.81zM191.76 616.88a9.63 9.63 0 1 0 9.62-9.63 9.62 9.62 0 0 0-9.62 9.63zm9.62 6.26a6.26 6.26 0 1 1 6.26-6.26 6.28 6.28 0 0 1-6.26 6.26z"/><path class="cls-1" d="M201.38 627.09a10.21 10.21 0 1 1 10.21-10.21 10.22 10.22 0 0 1-10.21 10.21zm0-19.25a9 9 0 1 0 9 9 9 9 0 0 0-9-9zm0 15.89a6.85 6.85 0 1 1 6.85-6.85 6.86 6.86 0 0 1-6.85 6.85zm0-12.53a5.68 5.68 0 1 0 5.68 5.68 5.69 5.69 0 0 0-5.68-5.68z"/><path class="cls-2" d="M148 642c-.55-6-6.09-11-13.78-12.36a1.73 1.73 0 0 0-1.48.46l-2.74 2.8-2.77-2.78a1.75 1.75 0 0 0-1.47-.46c-7.7 1.39-13.24 6.39-13.79 12.36a1.69 1.69 0 0 0 1.18 1.76 62.61 62.61 0 0 0 33.7 0A1.69 1.69 0 0 0 148 642zm-18 .75a55.73 55.73 0 0 1-14.49-1.75c1-3.62 4.88-6.68 9.92-7.86l3.32 3.32a1.65 1.65 0 0 0 1.18.5 1.59 1.59 0 0 0 1.18-.5l3.32-3.32c5 1.18 8.86 4.2 9.91 7.86a56.26 56.26 0 0 1-14.34 1.77z"/><path class="cls-2" d="M130 646.68a58.75 58.75 0 0 1-17-2.34 2.28 2.28 0 0 1-1.59-2.39c.57-6.25 6.3-11.43 14.26-12.86a2.3 2.3 0 0 1 2 .62l2.36 2.36 2.36-2.36a2.3 2.3 0 0 1 2-.63c8 1.44 13.7 6.62 14.27 12.88a2.27 2.27 0 0 1-1.57 2.38 58.6 58.6 0 0 1-17.09 2.34zm-4-16.46h-.17c-7.43 1.34-12.77 6.09-13.3 11.83a1.12 1.12 0 0 0 .78 1.16 57.68 57.68 0 0 0 16.69 2.3 57.05 57.05 0 0 0 16.68-2.29 1.1 1.1 0 0 0 .77-1.14c-.52-5.74-5.87-10.49-13.31-11.83a1.07 1.07 0 0 0-1 .3l-3.14 3.17-3.19-3.18a1.13 1.13 0 0 0-.81-.32zm4 13.14a56.1 56.1 0 0 1-14.61-1.79l-.57-.16.16-.57c1.13-3.87 5.09-7 10.35-8.26l.32-.08 3.54 3.56a1.1 1.1 0 0 0 1.5 0l3.58-3.59.32.08c5.27 1.23 9.23 4.4 10.34 8.27l.17.57-.57.15a56.63 56.63 0 0 1-14.53 1.82zm-13.7-2.76a59.47 59.47 0 0 0 27.32 0c-1.18-3.13-4.55-5.69-9-6.81l-3.09 3.09a2.29 2.29 0 0 1-3.18 0l-3.09-3.09c-4.37 1.1-7.8 3.72-8.99 6.81zM120.35 616.88a9.62 9.62 0 1 0 9.62-9.63 9.62 9.62 0 0 0-9.62 9.63zm9.62 6.26a6.26 6.26 0 1 1 6.26-6.26 6.27 6.27 0 0 1-6.23 6.26z"/><path class="cls-2" d="M130 627.09a10.21 10.21 0 1 1 10.21-10.21A10.22 10.22 0 0 1 130 627.09zm0-19.25a9 9 0 1 0 9 9 9 9 0 0 0-9-9zm0 15.89a6.85 6.85 0 1 1 6.85-6.85 6.86 6.86 0 0 1-6.85 6.85zm0-12.53a5.68 5.68 0 1 0 5.68 5.68 5.69 5.69 0 0 0-5.68-5.68zM686.6 436a4.07 4.07 0 0 1-2.09 3.61l-8.75 5.14a4.12 4.12 0 0 1-2.1.57 4.05 4.05 0 0 1-2.09-.57 4.18 4.18 0 0 1-2.1-3.61v-10.23a4.07 4.07 0 0 1 2.1-3.62 4.14 4.14 0 0 1 4.19 0l8.75 5a4.08 4.08 0 0 1 2.09 3.71zm-1.9 0a2.1 2.1 0 0 0-1.14-1.91s-8.38-4.85-8.76-5.13a2.39 2.39 0 0 0-2.28 0 2.42 2.42 0 0 0-1.14 2v10.18a2.27 2.27 0 0 0 1.14 1.9 2 2 0 0 0 2.28 0l8.76-5.05a2.13 2.13 0 0 0 1.14-1.99z"/><path class="cls-2" d="M673.66 446.05a5 5 0 0 1-5-5v-10.14a5 5 0 0 1 7.44-4.3l8.76 5.05a5 5 0 0 1 0 8.58l-8.75 5.13a4.79 4.79 0 0 1-2.45.68zm0-18.55a3.43 3.43 0 0 0-1.66.5 3.33 3.33 0 0 0-1.7 3v10.18A3.42 3.42 0 0 0 672 444a3.24 3.24 0 0 0 3.42 0l8.75-5.13a3.38 3.38 0 0 0 0-5.88l-8.8-4.99a3.43 3.43 0 0 0-1.71-.5zm.05 16.63a3.19 3.19 0 0 1-3.11-3v-10.22a3.22 3.22 0 0 1 1.46-2.64 3.08 3.08 0 0 1 3.09-.06c.48.33 5.51 3.26 8.8 5.16a2.86 2.86 0 0 1 1.52 2.57 2.91 2.91 0 0 1-1.57 2.7l-8.71 5a2.48 2.48 0 0 1-1.48.49zm-.05-14.73a1.68 1.68 0 0 0-.79.2 1.62 1.62 0 0 0-.71 1.31v10.18a1.5 1.5 0 0 0 .74 1.22 1.25 1.25 0 0 0 1.45.05l8.82-5.09a1.4 1.4 0 0 0 .75-1.33 1.31 1.31 0 0 0-.71-1.2c-2-1.17-8.49-4.92-8.88-5.21a1.73 1.73 0 0 0-.67-.13zM520.41 653.59h-5.5v-8.66a2.73 2.73 0 0 1 1.41-2.39c4.88-2.73 7.25-8.28 7.25-17v-38.3a2.37 2.37 0 1 0-4.68 0 2.75 2.75 0 0 1-5.49 0v-7a2.37 2.37 0 1 0-4.68 0 2.75 2.75 0 1 1-5.49 0 2.37 2.37 0 1 0-4.68 0v5.13a2.75 2.75 0 1 1-5.49 0 2.37 2.37 0 1 0-4.68 0v37.25h-5.49v-37.29a8.06 8.06 0 0 1 7.83-8.25 7.63 7.63 0 0 1 2.74.52 7.88 7.88 0 0 1 7.43-5.64 7.57 7.57 0 0 1 5.08 2 7.59 7.59 0 0 1 5.09-2 8 8 0 0 1 7.79 7.42 7.51 7.51 0 0 1 2.38-.39 8.06 8.06 0 0 1 7.83 8.25v38.32c0 9.93-2.91 17-8.65 20.9z"/><path class="cls-2" d="M491.38 653.59h-5.49v-7.1c-6.36-4-13.17-11.57-13.17-20.93v-18.1c0-4.53 3.4-8.33 7.58-8.47a7.52 7.52 0 0 1 5.55 2.17 8.46 8.46 0 0 1 2.53 6.07h-5.49a3 3 0 0 0-.86-2.13 2.28 2.28 0 0 0-1.55-.62c-1.23 0-2.27 1.4-2.27 3v18.1c0 7.19 5.91 13.71 11.77 17a2.74 2.74 0 0 1 1.41 2.4zM493.06 585.33h5.49v26.44h-5.49zM513.4 587.24h5.49v24.53h-5.49zM503.23 580.2h5.49v31.56h-5.49zM331.38 653.59h-5.49v-7.13c-5.74-3.94-8.65-11-8.65-20.9v-38.32a8.06 8.06 0 0 1 7.83-8.25 7.51 7.51 0 0 1 2.38.39 8 8 0 0 1 7.79-7.42 7.59 7.59 0 0 1 5.09 2 7.55 7.55 0 0 1 5.08-2 7.88 7.88 0 0 1 7.43 5.64 7.63 7.63 0 0 1 2.74-.52 8.06 8.06 0 0 1 7.83 8.25v37.25h-5.49v-37.25a2.37 2.37 0 1 0-4.68 0 2.75 2.75 0 1 1-5.49 0v-5.13a2.37 2.37 0 1 0-4.68 0 2.75 2.75 0 1 1-5.49 0 2.37 2.37 0 1 0-4.68 0v7a2.75 2.75 0 0 1-5.49 0 2.37 2.37 0 1 0-4.68 0v38.32c0 8.7 2.37 14.25 7.25 17a2.73 2.73 0 0 1 1.41 2.39z"/><path class="cls-2" d="M354.92 653.59v-8.65a2.74 2.74 0 0 1 1.41-2.4c5.86-3.28 11.77-9.8 11.77-17v-18.1c0-1.58-1-2.94-2.27-3a2.49 2.49 0 0 0-1.55.62 3 3 0 0 0-.86 2.13h-5.49a8.46 8.46 0 0 1 2.53-6.07A7.59 7.59 0 0 1 366 599c4.18.14 7.59 3.94 7.59 8.47v18.1c0 9.36-6.81 16.91-13.18 20.93v7.1zM347.75 585.33h5.49v26.44h-5.49zM327.41 587.24h5.49v24.53h-5.49zM337.58 580.2h5.49v31.56h-5.49zM432.46 40a25.87 25.87 0 1 1 50.37-8.31 26 26 0 0 1-.71 6l-5.34-1.27a20.65 20.65 0 0 0 .56-4.76 20.38 20.38 0 1 0-39.68 6.55z"/><path class="cls-2" d="M478.06 61h-43.55a16.62 16.62 0 0 1 0-33.24v5.49a11.13 11.13 0 0 0 0 22.26h43.55a7.86 7.86 0 1 0-5.55-13.41l-3.89-3.88A13.34 13.34 0 1 1 478.06 61zM192.5 143.68H187v-12.45l-5.11-5.12h-36.48v7.48h-5.49v-12.97h44.24l8.34 8.34v14.72z"/><path class="cls-2" d="M189.75 132.84h-9.47v-9.47h5.49v3.98h3.98v5.49zM704.16 353.7h-55.85a1.95 1.95 0 1 1 0-3.89H703a13.06 13.06 0 0 0-11.56-19.14 1.95 1.95 0 0 1 0-3.9 17 17 0 0 1 14.32 26 1.93 1.93 0 0 1-1.6.93z"/><path class="cls-2" d="M697.12 331.77H697a2 2 0 0 1-1.8-2.08v-1a13.07 13.07 0 0 0-19.62-11.3 1.95 1.95 0 1 1-2-3.37 17 17 0 0 1 25.46 14.67c0 .42 0 .84-.05 1.25a1.94 1.94 0 0 1-1.87 1.83z"/><path class="cls-2" d="M678 316.24a2 2 0 0 1-1.84-1.31 6.4 6.4 0 0 0-10.16-2.76 6.3 6.3 0 0 0-1.57 2 1.93 1.93 0 0 1-2.61.86 2 2 0 0 1-.87-2.62 10.3 10.3 0 0 1 18.89 1.25 2 2 0 0 1-1.2 2.48 2.05 2.05 0 0 1-.64.1zM629.69 330.44a1.93 1.93 0 0 1-1.87-1.41 12.16 12.16 0 0 1-.46-3.29 12 12 0 0 1 21.66-7 1.95 1.95 0 0 1-3.16 2.27 8.06 8.06 0 0 0-14.6 4.7 8.26 8.26 0 0 0 .3 2.22 1.94 1.94 0 0 1-1.33 2.41 2 2 0 0 1-.54.1z"/><path class="cls-2" d="M643.43 318.57a1.94 1.94 0 0 1-1.73-2.83 17 17 0 0 1 24.11-6.74 1.95 1.95 0 1 1-2.07 3.3 13.07 13.07 0 0 0-18.57 5.18 2 2 0 0 1-1.74 1.09zM685.78 346.39a2.06 2.06 0 0 1-.59-.09 2 2 0 0 1-1.26-2.45 5.14 5.14 0 0 0-4.88-6.69 1.95 1.95 0 1 1 0-3.89 9 9 0 0 1 9 9 9.18 9.18 0 0 1-.43 2.75 2 2 0 0 1-1.84 1.37zM660.83 344.85a2 2 0 0 1-1.38-.57 8.5 8.5 0 0 1 0-12 1.94 1.94 0 0 1 2.75 2.72 4.63 4.63 0 0 0 0 6.52 1.94 1.94 0 0 1 0 2.75 1.92 1.92 0 0 1-1.37.58z"/><path class="cls-2" d="M681.85 337.66a1.91 1.91 0 0 1-1.37-.57 2 2 0 0 1 0-2.76 5.09 5.09 0 0 0 1.49-3.62 2 2 0 0 1 3.9 0 9 9 0 0 1-2.64 6.38 2 2 0 0 1-1.38.57zM675.45 326.54a1.95 1.95 0 0 1-1.37-3.32 10.34 10.34 0 0 1 7.39-3.06 1.95 1.95 0 1 1 0 3.89 6.5 6.5 0 0 0-4.64 1.92 2 2 0 0 1-1.38.57zM674.14 347.47a2 2 0 0 1-.82-3.72 3 3 0 0 0 1.1-.84 1.95 1.95 0 1 1 3 2.48 6.78 6.78 0 0 1-2.47 1.9 2 2 0 0 1-.81.18zM670.92 340.39a1.92 1.92 0 0 1-1.37-.57 8.75 8.75 0 0 1-2.19-8.82 1.95 1.95 0 0 1 3.72 1.15 4.89 4.89 0 0 0 1.22 4.92 1.95 1.95 0 0 1-1.38 3.32zM652.49 329.19a1.87 1.87 0 0 1-.62-.1 1.94 1.94 0 0 1-1.22-2.47 10.46 10.46 0 0 1 13.25-6.55 1.94 1.94 0 1 1-1.25 3.68 6.58 6.58 0 0 0-8.32 4.12 1.94 1.94 0 0 1-1.84 1.32zM642.17 337.66a1.92 1.92 0 0 1-1.52-.74c-2.17-2.71-2-8 .27-9.92a1.95 1.95 0 0 1 2.51 3 4.81 4.81 0 0 0 .26 4.51 2 2 0 0 1-.31 2.74 1.93 1.93 0 0 1-1.21.41zM686.12 344.23a1.95 1.95 0 0 1-1.38-3.32 9 9 0 0 1 11.94-.72 1.94 1.94 0 1 1-2.4 3.06 5.13 5.13 0 0 0-6.79.41 1.91 1.91 0 0 1-1.37.57zM662.8 346.56a2 2 0 0 1-1.52-.73 4.54 4.54 0 0 0-3.54-1.75 8.5 8.5 0 0 1-7.75-5 1.95 1.95 0 0 1 3.55-1.6 4.61 4.61 0 0 0 4.2 2.72 8.41 8.41 0 0 1 6.58 3.21 2 2 0 0 1-.3 2.74 2 2 0 0 1-1.22.41z"/><path class="cls-3" d="M682.78 608.63l8.59 1.37v8.59l-8.59 1.46a19 19 0 0 1-2 4.85l5.11 7-6 6-7.17-4.9a26 26 0 0 1-4.84 2l-1.47 8.5h-8.59l-1.37-8.5a20.46 20.46 0 0 1-4.84-2l-7.13 5-6-6 5-7a17.79 17.79 0 0 1-2-4.85l-8.48-1.56V610l8.51-1.37a19.5 19.5 0 0 1 2-4.94l-4.93-7 6-6 7 5a20.06 20.06 0 0 1 4.84-2l1.37-8.5h8.59l1.47 8.59a19.62 19.62 0 0 1 4.84 2l7-5.12 6 6-5 7.13a19 19 0 0 1 2.09 4.84zm6.85 2.83l-8.22-1.37-.19-.55a19 19 0 0 0-2.19-5.3l-.28-.46 4.76-6.94-3.93-3.94-6.77 4.85-.45-.27a21 21 0 0 0-5.4-2.2l-.55-.18-1.41-8.23h-5.57L658 595.1l-.55.09a18.86 18.86 0 0 0-5.4 2.29l-.45.27-6.77-4.85-4 3.94 4.75 6.85-.28.46a18.94 18.94 0 0 0-2.28 5.39l-.09.55-8.22 1.37v5.67l8.13 1.46.18.55a20.89 20.89 0 0 0 2.2 5.39l.36.46-4.85 6.76 4 4 6.77-4.84.45.37a20.92 20.92 0 0 0 5.4 2.19l.54.1 1.37 8.22H665l1.46-8.22.55-.1a21.41 21.41 0 0 0 5.4-2.29l.45-.27 6.86 4.75 4-3.93-4.97-6.73.28-.55a19.1 19.1 0 0 0 2.19-5.3l.19-.55 8.22-1.46zm-17.18 2.93a10.29 10.29 0 1 1-10.24-10.33 10.22 10.22 0 0 1 10.24 10.33zm-1.74-.1a8.55 8.55 0 1 0-8.5 8.6 8.54 8.54 0 0 0 8.5-8.6z"/><path class="cls-2" d="M667.56 644.91h-10.9l-1.42-8.8a21.52 21.52 0 0 1-3.54-1.48l-7.38 5.11-7.66-7.65 5.19-7.27a18.38 18.38 0 0 1-1.47-3.57l-8.79-1.52v-10.89l8.8-1.42a20.06 20.06 0 0 1 1.47-3.64l-5.1-7.28 7.66-7.67 7.29 5.21a21.15 21.15 0 0 1 3.53-1.47l1.42-8.79h10.9l1.52 8.88a21.32 21.32 0 0 1 3.54 1.46l7.28-5.29 7.66 7.67-5.19 7.37a19 19 0 0 1 1.48 3.55l8.88 1.42v10.9l-8.88 1.51a19.38 19.38 0 0 1-1.47 3.55l5.29 7.28-7.67 7.66-7.38-5.11a27.47 27.47 0 0 1-3.55 1.45zm-7.13-4.46h3.38l1.43-8 1.49-.26a20.51 20.51 0 0 0 4.92-2.11l1.21-.74 6.66 4.63 2.38-2.33-4.74-6.48.65-1.29a18.35 18.35 0 0 0 2.09-5l.47-1.42 7.9-1.4v-3.37l-7.89-1.32-.45-1.32a18.19 18.19 0 0 0-2.06-5l-.74-1.21 4.62-6.74-2.32-2.32-6.54 4.69-1.23-.72a19.43 19.43 0 0 0-5-2l-1.42-.47-1.4-7.89h-3.28l-1.34 8-1.52.24a17.41 17.41 0 0 0-4.9 2.11l-1.23.73-6.56-4.7-2.41 2.24 4.59 6.63-.73 1.21a17.56 17.56 0 0 0-2.13 5l-.22 1.41-8.05 1.35v3.4l7.82 1.4.43 1.33a19.39 19.39 0 0 0 2.08 5.13l.89 1.09-4.78 6.67 2.4 2.38 6.67-4.78 1.27 1a20 20 0 0 0 4.85 1.92l1.41.24zM662.2 626a11.65 11.65 0 1 1 11.61-11.6A11.66 11.66 0 0 1 662.2 626zm0-18.83a7.19 7.19 0 1 0 7.15 7.13 7.19 7.19 0 0 0-7.15-7.14zM136.09 176.97l8.49-9.43-7.42-8.16 1.58-1.48 7.63 8.47 1.18 1.07-9.87 11.02-1.59-1.49z"/><path class="cls-2" d="M137.75 180.13l-3.29-3.09 8.54-9.5-7.48-8.23 3.3-3.08 8.42 9.36 1.95 1.76-11.44 12.78zM154.54 175.91h19.08v2.12h-19.08z"/><path class="cls-2" d="M153.37 174.74h21.42v4.46h-21.42zM432.46 767.43H427v-15l.65-.77a15.62 15.62 0 1 0-27.57-10l-.05.52-1.24 6.51 2.41.35 1.48 10.27a1.92 1.92 0 0 0 1.92 1.92h9.58v6.23h-5.49v-.74h-4.09a7.42 7.42 0 0 1-7.41-7.19l-.88-5.64a3.86 3.86 0 0 1-3.24-4.54l1.52-8a21.11 21.11 0 1 1 37.91 13.06z"/><path class="cls-1" d="M637.55 354.14a1.7 1.7 0 0 1-1.64 1.11h-2.08v17.64a1.73 1.73 0 0 1-1.71 1.7h-13.39a1.68 1.68 0 0 1-1.71-1.7V363h-6.18v9.9a1.72 1.72 0 0 1-1.71 1.7h-13.46a1.73 1.73 0 0 1-1.71-1.7v-17.65h-2.09a1.67 1.67 0 0 1-1.11-3l22-19.42a1.79 1.79 0 0 1 2.23 0l6.47 5.73a1.73 1.73 0 0 1 1-.29h5.73A1.68 1.68 0 0 1 630 340v6l7.07 6.25a1.75 1.75 0 0 1 .48 1.89zm-1.49-.75l-7.58-6.69V340c0-.14-.08-.21-.23-.21h-5.73c-.14 0-.22.07-.22.14l-.37 1L614 334c-.07 0-.22-.08-.29 0l-22 19.41a.28.28 0 0 0-.08.23c.08.07.15.14.22.14h3.65v19.13c0 .14.07.22.15.22h13.46a.2.2 0 0 0 .22-.22V361.5h9.16v11.39a.2.2 0 0 0 .22.22h13.39a.24.24 0 0 0 .22-.22v-19.13h3.57c.08 0 .15-.07.23-.14a.28.28 0 0 0-.06-.23z"/><path class="cls-1" d="M632.12 376h-13.39a3 3 0 0 1-3.08-3.07v-8.54h-3.44v8.54a3.08 3.08 0 0 1-3.08 3.07h-13.46a3.08 3.08 0 0 1-3.07-3.07v-16.31h-.73a3 3 0 0 1-2-5.38l22-19.4a3.17 3.17 0 0 1 4 0l5.9 5.22a3.79 3.79 0 0 1 .77-.08h5.73a3 3 0 0 1 3.07 3.07v5.41l6.61 5.85a3.09 3.09 0 0 1 .91 3.31 3.06 3.06 0 0 1-2.93 2.05h-.72v16.27a3.08 3.08 0 0 1-3.09 3.06zm-12.25-4.21H631V352.4h1.9l-5.77-5.08v-6.17h-3.8l-.77 2.18-8.65-7.66-19 16.73h2v19.35H608v-11.61h11.88zm-5.13-36.84l-.18.16a.9.9 0 0 0 .18-.2z"/><path class="cls-4" d="M403.39 463.28l-2.13 12.78h37.31l-2.13-12.78h-33.05zM385.5 485.7h68.83a6.39 6.39 0 0 0-5.51-3.15H391a6.39 6.39 0 0 0-5.5 3.15zM480.91 360.56h-122a1.34 1.34 0 0 0-1.33 1.33v68.35a1.33 1.33 0 0 0 1.33 1.32h122a1.32 1.32 0 0 0 1.32-1.32v-68.35a1.32 1.32 0 0 0-1.32-1.33z"/><path class="cls-4" d="M487.37 349H352.46a6.4 6.4 0 0 0-6.39 6.4v95a6.4 6.4 0 0 0 6.39 6.39h134.91a6.4 6.4 0 0 0 6.4-6.39v-95a6.41 6.41 0 0 0-6.4-6.4zm1.35 81.21a7.82 7.82 0 0 1-7.81 7.81h-122a7.82 7.82 0 0 1-7.81-7.81v-68.32a7.81 7.81 0 0 1 7.81-7.81h122a7.81 7.81 0 0 1 7.81 7.81v68.35z"/><path class="cls-1" d="M487.37 342.55H352.46a12.9 12.9 0 0 0-12.88 12.88v95a12.9 12.9 0 0 0 12.88 12.88h44.35l-2.13 12.78H391a12.89 12.89 0 0 0-12.87 12.88 3.25 3.25 0 0 0 3.24 3.25h77.09a3.25 3.25 0 0 0 3.24-3.25 12.89 12.89 0 0 0-12.88-12.88h-3.67L443 463.28h44.35a12.9 12.9 0 0 0 12.88-12.88v-95a12.9 12.9 0 0 0-12.86-12.85zm-38.55 140a6.39 6.39 0 0 1 5.51 3.15H385.5a6.39 6.39 0 0 1 5.51-3.15zm-47.56-6.49l2.13-12.78h33.05l2.13 12.78zm92.5-25.66a6.4 6.4 0 0 1-6.39 6.39H352.46a6.4 6.4 0 0 1-6.39-6.39v-95a6.4 6.4 0 0 1 6.39-6.4h134.91a6.41 6.41 0 0 1 6.4 6.4v95z"/><path class="cls-1" d="M480.91 354.08h-122a7.81 7.81 0 0 0-7.81 7.81v68.35a7.82 7.82 0 0 0 7.81 7.81h122a7.82 7.82 0 0 0 7.81-7.81v-68.35a7.81 7.81 0 0 0-7.81-7.81zm1.33 76.16a1.33 1.33 0 0 1-1.33 1.32h-122a1.33 1.33 0 0 1-1.33-1.32v-68.35a1.34 1.34 0 0 1 1.33-1.33h122a1.33 1.33 0 0 1 1.32 1.33v68.35zM40.25 342.06a6.05 6.05 0 0 0-6 6.05v69.61a9.09 9.09 0 0 0 9.08 9.08h115a9.09 9.09 0 0 0 9.08-9.08v-69.61a6.05 6.05 0 0 0-6.05-6.05zm118 90.79h-115a15.15 15.15 0 0 1-15.14-15.13v-69.61A12.12 12.12 0 0 1 40.25 336h121.06a12.12 12.12 0 0 1 12.11 12.11v69.61a15.15 15.15 0 0 1-15.14 15.13z"/><path class="cls-1" d="M76.57 426.8H125v-21.19H76.57zm51.43 6.05H73.54a3 3 0 0 1-3-3v-27.26a3 3 0 0 1 3-3H128a3 3 0 0 1 3 3v27.24a3 3 0 0 1-3 3zM32.54 272.45a16.48 16.48 0 0 0-15.35 22.49l14.56 37.22a6 6 0 0 0 5.64 3.84h126.8a6 6 0 0 0 5.64-3.84l14.56-37.22A16.48 16.48 0 0 0 169 272.45zm131.65 69.61H37.39a12 12 0 0 1-11.28-7.7l-14.56-37.21a22.55 22.55 0 0 1 21-30.76H169a22.55 22.55 0 0 1 21 30.76l-14.56 37.21a12 12 0 0 1-11.28 7.7zM170.39 360.22H31.17a3 3 0 0 1 0-6.06h139.22a3 3 0 0 1 0 6.06M52.36 369.3h-9.08a3 3 0 1 1 0-6.06h9.08a3 3 0 0 1 0 6.06M58.41 381.4H43.28a3 3 0 1 1 0-6h15.13a3 3 0 1 1 0 6M52.36 393.51h-9.08a3 3 0 1 1 0-6.06h9.08a3 3 0 0 1 0 6.06M73.54 393.51h-9.08a3 3 0 0 1 0-6.06h9.08a3 3 0 0 1 0 6.06M115.91 393.51H85.65a3 3 0 1 1 0-6.06h30.26a3 3 0 1 1 0 6.06M158.28 369.3h-9.08a3 3 0 0 1 0-6.06h9.08a3 3 0 1 1 0 6.06M158.28 393.51h-9.08a3 3 0 0 1 0-6.06h9.08a3 3 0 1 1 0 6.06M137.1 393.51H128a3 3 0 0 1 0-6.06h9.08a3 3 0 0 1 0 6.06M158.28 381.4h-15.13a3 3 0 1 1 0-6h15.13a3 3 0 1 1 0 6M67.49 366.27a3 3 0 1 0-3 3 3 3 0 0 0 3-3M79.59 366.27a3 3 0 1 0-3 3 3 3 0 0 0 3-3M91.7 366.27a3 3 0 1 0-3 3 3 3 0 0 0 3-3M103.81 366.27a3 3 0 1 0-3 3 3 3 0 0 0 3-3M115.91 366.27a3 3 0 1 0-3 3 3 3 0 0 0 3-3M128 366.27a3 3 0 1 0-3 3 3 3 0 0 0 3-3M140.12 366.27a3 3 0 1 0-3 3 3 3 0 0 0 3-3M73.54 378.37a3 3 0 1 0-3 3 3 3 0 0 0 3-3M85.65 378.37a3 3 0 1 0-3 3 3 3 0 0 0 3-3M97.75 378.37a3 3 0 1 0-3 3 3 3 0 0 0 3-3M109.86 378.37a3 3 0 1 0-3 3 3 3 0 0 0 3-3M122 378.37a3 3 0 1 0-3 3 3 3 0 0 0 3-3M134.07 378.37a3 3 0 1 0-3 3 3 3 0 0 0 3-3M52.36 351.14h-9.08a3 3 0 1 1 0-6.06h9.08a3 3 0 0 1 0 6.06M158.28 351.14H128a3 3 0 0 1 0-6.06h30.26a3 3 0 1 1 0 6.06M772.38 335.85H785a1.33 1.33 0 0 0 0-2.66h-12.62a1.33 1.33 0 1 0 0 2.66z"/><circle class="cls-1" cx="766.01" cy="334.52" r="1.45"/><circle class="cls-1" cx="778.67" cy="329.02" r="1.09"/><path class="cls-1" d="M807.8 321.56h-58.26a12.21 12.21 0 0 0-12.19 12.2v9.66a1.33 1.33 0 0 0-.9 1.26v6a1.32 1.32 0 0 0 .9 1.25v6.21a1.33 1.33 0 0 0-.9 1.26v10.25a1.32 1.32 0 0 0 .9 1.25v2.35a1.32 1.32 0 0 0-.9 1.26v10.25a1.32 1.32 0 0 0 .9 1.25v91.32a12.21 12.21 0 0 0 12.19 12.2h58.26a12.21 12.21 0 0 0 12.2-12.2V333.76a12.21 12.21 0 0 0-12.2-12.2zm7.77 155.76a7.77 7.77 0 0 1-7.77 7.77h-58.26a7.78 7.78 0 0 1-7.77-7.77V333.76a7.78 7.78 0 0 1 7.77-7.77h58.26a7.77 7.77 0 0 1 7.77 7.77z"/><path class="cls-1" d="M809.39 344H748a.81.81 0 0 0-.81.81v111.31a.81.81 0 0 0 .81.81h61.43a.8.8 0 0 0 .8-.81V344.79a.8.8 0 0 0-.84-.79zm-.81 111.34h-59.81V345.59h59.81v109.73zm-29.91 9a6.57 6.57 0 1 0 6.57 6.56 6.56 6.56 0 0 0-6.57-6.55zm0 11.44a4.88 4.88 0 1 1 4.87-4.88 4.88 4.88 0 0 1-4.87 4.89z"/><path class="cls-1" d="M778.67 479a8.13 8.13 0 1 1 8.13-8.13 8.13 8.13 0 0 1-8.13 8.13zm0-11.44a3.32 3.32 0 1 0 3.31 3.31 3.31 3.31 0 0 0-3.31-3.27zm30.72-9.11H748a2.38 2.38 0 0 1-2.37-2.37V344.79a2.37 2.37 0 0 1 2.37-2.36h61.43a2.36 2.36 0 0 1 2.36 2.36v111.33a2.37 2.37 0 0 1-2.4 2.37zm-59.07-4.73H807V347.15h-56.7zM294.2 247.22c-.62 1-1.22 2-1.71 2.82a33.47 33.47 0 0 0-3.32 7 24.3 24.3 0 0 0-.73 6.61c-.12.86-.12 1.84-.24 2.82v9.8a4.63 4.63 0 0 1-4.66 4.54H281l-3.06 5.88a1.16 1.16 0 0 1-1.1.73h-6.86a1.19 1.19 0 0 1-1.11-.73l-3.06-5.88h-2.69a4.52 4.52 0 0 1-4.53-4.54v-9.8c-.12-1-.12-2-.25-2.82a28.2 28.2 0 0 0-.86-6.61 33.32 33.32 0 0 0-3.18-7c-.61-.86-1.11-1.84-1.84-2.82-6.25-9.68-3.68-18.5-3.43-19.36a12.28 12.28 0 0 1 .61-2l.13-.24A26.45 26.45 0 0 1 259 213.9a24.59 24.59 0 0 1 29.77.73 28 28 0 0 1 8.94 13.23c.16.37 3.11 9.43-3.51 19.36zm1.22-18.75c-3.06-9.8-12.25-16.9-21.93-16.9a24 24 0 0 0-21.43 14.94l-.12.25a16 16 0 0 0-.62 1.71v.13a21.39 21.39 0 0 0 3.19 17.27c.61 1 1.22 2 1.83 2.82a39.32 39.32 0 0 1 3.56 7.6 35.9 35.9 0 0 1 .85 7.22c0 .49.12 1.11.12 1.72h25a8.25 8.25 0 0 0 .12-1.72 28.12 28.12 0 0 1 1-7.22 33.13 33.13 0 0 1 3.43-7.6c.61-.86 1.1-1.72 1.84-2.82a21.7 21.7 0 0 0 3.16-17.4zM274 217a1.21 1.21 0 0 1-1.1 1.22 17 17 0 0 0-14.45 10.66 1.36 1.36 0 0 1-1.23.74h-.37a1.28 1.28 0 0 1-.73-1.59 18.93 18.93 0 0 1 16.65-12.13A1.12 1.12 0 0 1 274 217zm11.76 54.64v-3.92h-24.89v3.92h24.87zm0 4.65v-2.2h-24.89v2.2a2.18 2.18 0 0 0 2.21 2.09h20.58a1.93 1.93 0 0 0 2.08-2.13zm-7.59 4.54h-9.56l2.09 4.16h5.39z"/><path class="cls-1" d="M276.8 288.57h-6.86a2.34 2.34 0 0 1-2.14-1.37l-2.74-5.2h-2a5.7 5.7 0 0 1-5.7-5.7v-9.8c-.05-.34-.08-.82-.11-1.29s-.06-.93-.12-1.35a28 28 0 0 0-.83-6.46 32.77 32.77 0 0 0-3.08-6.74c-.22-.3-.49-.73-.76-1.18s-.61-1-1-1.52a25.43 25.43 0 0 1-3.62-20.37 13 13 0 0 1 .64-2.06l.19-.37a27.54 27.54 0 0 1 9.66-12.17 25.78 25.78 0 0 1 31.17.77 29.48 29.48 0 0 1 9.34 13.81c.32 1 3 10.25-3.69 20.33-.6 1-1.2 1.92-1.68 2.77a32.66 32.66 0 0 0-3.22 6.77 23.1 23.1 0 0 0-.68 6.24c-.06.58-.09 1-.12 1.48s-.06 1-.12 1.48v9.66a5.77 5.77 0 0 1-5.83 5.7h-1.87l-2.73 5.26a2.34 2.34 0 0 1-2.1 1.31zm-17-11.53a3.38 3.38 0 0 0 3.27 2.58h3.4l3.39 6.51 6.93.11 3.46-6.62h3.28a3.51 3.51 0 0 0 2.42-1 3.39 3.39 0 0 1-2.3.86h-20.57a3.41 3.41 0 0 1-3.27-2.48zm27.1-.84a2.93 2.93 0 0 1-.53 2 3.23 3.23 0 0 0 .65-1.93v-9.8c.06-.59.09-1 .12-1.48s.06-1 .13-1.5a26.15 26.15 0 0 1 .56-6 31.51 31.51 0 0 0-.68 6.07 9.06 9.06 0 0 1-.14 1.88l-.18.95-27.13.11h27.2v5.09h-1v1.17l-26.15.11h27.19zm-24.87-1v1a1 1 0 0 0 1 .92h20.58a1.08 1.08 0 0 0 .78-.29.62.62 0 0 0 .14-.5v-1.16zm0-4.79h22.53v-1.58H262zm10.63-60a23.61 23.61 0 0 0-12.95 4.43 25.2 25.2 0 0 0-8.9 11.24l-.19.36a11.57 11.57 0 0 0-.49 1.63 23 23 0 0 0 3.26 18.5 17.59 17.59 0 0 1 1.07 1.63c.25.4.48.79.74 1.15a34.49 34.49 0 0 1 3.36 7.34 29.56 29.56 0 0 1 .9 6.87c.06.38.09.9.13 1.44s0 .85.11 1.28v-1.06a7.72 7.72 0 0 0-.06-.84 7 7 0 0 1-.06-.88 35.44 35.44 0 0 0-.82-6.93 37.35 37.35 0 0 0-3.29-7l-.16-.28c-.53-.73-1.13-1.7-1.73-2.66a22.67 22.67 0 0 1-3.44-18.19v-.23a16.38 16.38 0 0 1 .66-1.86l.2-.35a25.2 25.2 0 0 1 21.67-15.58zM262 264.06h22.86v-.55a29.54 29.54 0 0 1 1-7.58 33 33 0 0 1 3.38-7.55l.14-.26c.4-.57.69-1 1-1.54s.55-.86.88-1.36a20.59 20.59 0 0 0 3-16.34v-.12c-2.93-9.29-11.66-16-20.79-16a22.81 22.81 0 0 0-20.35 14.21l-.15.33a14.17 14.17 0 0 0-.5 1.36l-.06.32a20.5 20.5 0 0 0 3 16.27c.66 1.06 1.23 2 1.81 2.79l.23.4A37.78 37.78 0 0 1 261 256a36.46 36.46 0 0 1 .91 7.51 5.85 5.85 0 0 0 .09.55zm34.63-35.73a23.11 23.11 0 0 1-3.38 18.19c-.32.48-.59.91-.85 1.31l-1 1.54-.07.14a32.07 32.07 0 0 0-3.15 6.94 34.92 34.92 0 0 1 3.37-7c.47-.83 1.09-1.83 1.71-2.82 6.12-9.18 3.71-17.44 3.41-18.35a27 27 0 0 0-8.58-12.69 23.59 23.59 0 0 0-12.54-5c9.39.92 18 8.05 21 17.63zm-19.8 57.79H270l-3.26-6.5H280zm-5.39-2.34h4l.91-1.83h-5.77zm-14.2-53l-.8-.08a2.44 2.44 0 0 1-1.39-3.1 20.07 20.07 0 0 1 17.7-12.87 2 2 0 0 1 1.58.49 2.35 2.35 0 0 1-1.41 4.17 15.66 15.66 0 0 0-13.36 9.91 2.55 2.55 0 0 1-2.36 1.44zm0-2.33A18.43 18.43 0 0 1 272.82 217a17.75 17.75 0 0 0-15.64 11.4zM272.81 217zM332.56 311L300 351.83a1.42 1.42 0 0 1-.93.47c-.12 0-.35-.11-.48-.11a1.11 1.11 0 0 1-.58-1.4l10.41-30h-16.1a1.1 1.1 0 0 1-1.05-.59 1 1 0 0 1 .12-1.29l33-40.82a1.16 1.16 0 0 1 2 1.17l-11.93 29.83h17.2a1.09 1.09 0 0 1 1.05.59 1 1 0 0 1-.15 1.32zm-3.39.47h-16.5a1.2 1.2 0 0 1-1-.58 1.55 1.55 0 0 1-.13-1.06l9.83-24.21-26.71 32.88h15.44a1.22 1.22 0 0 1 .94.58 1.11 1.11 0 0 1 .11 1.06l-8.65 24.91z"/><path class="cls-1" d="M299.11 353.47l-.92-.12-.16-.17a2.24 2.24 0 0 1-1-2.93l9.79-28.25h-14.5a2.23 2.23 0 0 1-2.16-1.4 2.07 2.07 0 0 1 .4-2.47l32.9-40.73a2.46 2.46 0 0 1 3-.67 2.5 2.5 0 0 1 1 3L316.15 308h15.48a2.23 2.23 0 0 1 2.16 1.38 2.09 2.09 0 0 1-.35 2.42L301 352.56a2.7 2.7 0 0 1-1.89.91zm.07-2.35h.05l32.38-40.8zm-2.07-33.79h13a2.33 2.33 0 0 1 1.91 1.1 2.12 2.12 0 0 1 .24 2.09L305.85 339l20.9-26.3h-14.08a2.38 2.38 0 0 1-2-1.12 2.7 2.7 0 0 1-.26-2l6.91-17zm13 2.49l.07.08zm-11.84-.16H310zm23.24-31.43l-9 22h.14zm10 21.86zm-6.29-31.21l-6.55 8.1zM614.49 100.53c-2 5.2-6.57 10.61-11.46 11-.21 0-.43.11-.64.11-1.8 0-4.24-.85-6.26-3.93-1-1.59-.75-3.71-.63-6 .31-4 .63-8.6-4.78-11.46l-.75-.32a8.79 8.79 0 0 1-1.27.85 11 11 0 0 1-1.7.74l.1.11c1.28 1.8 6.8 12.21 1.49 19a13.24 13.24 0 0 1-10.82 5.31c-3.82 0-7.65-1.28-10.83-2.45-5.1-2-10.61-6.57-11-11.46-.21-1.91.32-4.67 3.93-6.9 1.48-1 3.71-.85 5.94-.63 3.93.2 8.39.52 11.26-4.36a11 11 0 0 1-3.72-4.88 23.81 23.81 0 0 1-11.89 3.82 12 12 0 0 1-7.22-2.23c-7.64-5.94-5.31-15.18-2.76-21.65 2-5.09 6.58-10.51 11.46-11 1.91-.1 4.68.32 6.91 3.92 1 1.49.74 3.72.63 6-.32 4-.63 8.38 4.25 11.25a10.7 10.7 0 0 1 6.9-4.14c-1.91-3.39-5.42-12-.85-17.94 5.94-7.74 15.18-5.31 21.55-2.76 5.19 2 10.61 6.58 11.14 11.46.1 1.91-.42 4.57-3.92 6.8-1.59 1.06-3.72.85-6 .74-4-.31-8.6-.63-11.47 4.78l-.31.74a9.93 9.93 0 0 1 .84 1.27 11.26 11.26 0 0 1 1.27 3.62c3.4-1.91 12-5.41 18-.85 7.6 5.91 5.12 15.07 2.61 21.44zM572.77 83a11.13 11.13 0 0 1 .22-4.14c.22-.63.42-1.17.64-1.7-6-3.5-5.63-9.12-5.31-13.26.11-1.91.21-3.72-.32-4.68-1.38-2.12-3-3.18-4.88-3-3.5.31-7.75 4.66-9.77 9.75-3.61 9.24-3 15.19 2.13 19.11 5.94 4.57 15.28-.64 16.45-1.48zm12.11 9.13c-.53 0-1.06.11-1.48.11a8.89 8.89 0 0 1-2.87-.43 11.56 11.56 0 0 1-1.71-.53c-3.5 5.94-9 5.62-13.15 5.3-1.91-.1-3.83-.31-4.78.32-2.12 1.39-3.08 3-2.87 4.89.32 3.39 4.57 7.75 9.66 9.66 9.35 3.71 15.28 3 19.22-2 4.46-5.94-.64-15.28-1.59-16.55zm6.68-8.39a8.23 8.23 0 0 0-.84-6.47 8.86 8.86 0 0 0-5.21-3.93 8.12 8.12 0 0 0-2.23-.32 8.53 8.53 0 0 0-2.11 16.77 8.19 8.19 0 0 0 6.47-.85 8.51 8.51 0 0 0 3.92-5.19zm-3.29-.85a5.09 5.09 0 0 1-5 3.82 5.49 5.49 0 0 1-1.27-.1 5.24 5.24 0 0 1-3.71-6.37 5.62 5.62 0 0 1 2.44-3.18 5 5 0 0 1 3.93-.42 5.06 5.06 0 0 1 3.61 6.26zm-4.13-4.24a2.53 2.53 0 0 0-.86-.1 2.42 2.42 0 0 0-1.48.42 3.06 3.06 0 0 0-1.49 1.8 3 3 0 0 0 2.23 3.71 3 3 0 1 0 1.6-5.83zm-.22-7.65a6.94 6.94 0 0 1 2.13.31 11.09 11.09 0 0 1 4 2v-.11c3.51-6.68 9.34-6.26 13.58-5.94 1.91.11 3.72.21 4.68-.32 2.12-1.38 3.18-3 3-4.88-.32-3.5-4.67-7.75-9.76-9.77-9.24-3.6-15.19-3-19.11 2.13-4.57 5.98.56 15.32 1.48 16.58zm26.54 9.65c-5.94-4.46-15.28.64-16.56 1.59a7.78 7.78 0 0 1-.31 2.13 9.9 9.9 0 0 1-2 3.92l.12.12c6.68 3.39 6.25 9.23 5.93 13.47-.1 1.92-.2 3.83.32 4.78 1.39 2.13 3 3.08 4.89 2.87 3.5-.32 7.75-4.56 9.76-9.66 3.58-9.33 2.95-15.26-2.15-19.2z"/><path class="cls-1" d="M577.77 117.09c-3.84 0-7.67-1.21-11.23-2.52-5.36-2.12-11.32-6.91-11.8-12.46-.2-1.81.1-5.29 4.47-8 1.81-1.15 4.3-1 6.68-.8 3.72.2 7.14.38 9.59-3a12.39 12.39 0 0 1-2.68-3.43 24.59 24.59 0 0 1-11.38 3.29 13.29 13.29 0 0 1-7.9-2.44c-9.36-7.28-4.7-19.14-3.16-23 2.07-5.25 6.84-11.17 12.42-11.77 3.4-.2 6.07 1.32 8 4.47 1.07 1.67 1 3.92.83 6.1v.52c-.29 3.69-.57 7.16 2.84 9.65a11.91 11.91 0 0 1 5.41-3.4c-1.69-3.52-4.74-11.73 0-17.85 7.21-9.41 19-4.69 22.9-3.13 5.29 2 11.27 6.81 11.87 12.42.18 3.27-1.32 5.9-4.46 7.9-1.77 1.18-3.92 1.07-6.19 1h-.54c-3.89-.31-7.86-.61-10.38 4.16a6.82 6.82 0 0 1 .56.91 12.85 12.85 0 0 1 1 2.41c3.5-1.69 11.73-4.75 17.86 0 9.36 7.32 4.68 19 3.13 22.9-2.06 5.33-6.84 11.29-12.44 11.78a4.57 4.57 0 0 1-.75.1c-1.61 0-4.69-.57-7.24-4.45-1.08-1.8-1-3.91-.85-6.15v-.59c.3-3.88.61-7.86-4.16-10.38a7.25 7.25 0 0 1-.9.55 4.12 4.12 0 0 1-.47.25c2.11 3.69 5.78 12.85.75 19.28a14.46 14.46 0 0 1-11.78 5.68zm-14.66-19.45a3.29 3.29 0 0 0-1.57.25c-2.32 1.5-2.45 2.88-2.36 3.78.26 2.69 3.9 6.82 8.91 8.7 8.74 3.47 14.25 3 17.89-1.66 3.95-5.26-.76-14-1.61-15.13l-.13-.23h-.07a8.85 8.85 0 0 1-4-.43 8.59 8.59 0 0 1-.85-.23c-4 5.81-10 5.34-13.73 5.06h-.65c-.6-.07-1.25-.11-1.83-.11zM593.28 88c6.27 3.72 5.81 9.87 5.5 14-.08 1.55-.19 3.47.17 4.12 1.47 2.24 2.86 2.38 3.74 2.28 3-.28 7-4.28 8.81-8.93 3.44-8.91 2.91-14.26-1.75-17.86-4.83-3.62-12.56 0-14.71 1.31a8.85 8.85 0 0 1-.33 1.79 12.28 12.28 0 0 1-1.43 3.29zm-10-13.78a7.33 7.33 0 0 0-7 5.49 7.11 7.11 0 0 0 .69 5.56 7.24 7.24 0 0 0 4.52 3.42 7.12 7.12 0 0 0 5.6-.73 7.43 7.43 0 0 0 3.38-4.51 7.11 7.11 0 0 0-.74-5.55 7.61 7.61 0 0 0-4.51-3.38 6.59 6.59 0 0 0-1.93-.32zM590 88.65l.47.2-.33-.34zM563.62 57.4a2.22 2.22 0 0 0-.37 0c-3 .26-7 4.31-8.81 9-3.41 8.72-2.87 14.2 1.75 17.76 5.15 4 13.69-.52 15-1.51l.3-.22a12.67 12.67 0 0 1 .31-3.88c.12-.35.23-.66.34-.95-5.8-3.9-5.34-9.84-5-13.83.09-1.61.18-3.37-.18-4-1.3-1.99-2.48-2.37-3.34-2.37zm21 12.47a8.11 8.11 0 0 1 1.84.35 13.17 13.17 0 0 1 3.25 1.4c3.92-6.25 10-5.79 14.09-5.48 1.6.08 3.37.18 4-.18 2.32-1.52 2.47-2.86 2.37-3.73-.27-3-4.33-6.95-9-8.81-8.73-3.4-14.2-2.86-17.76 1.75-3.77 4.83-.14 12.56 1.16 14.7zm-1.28 18a6.16 6.16 0 0 1-1.55-.14 6.39 6.39 0 0 1-4.57-7.81 6.79 6.79 0 0 1 3-3.86 6.47 6.47 0 0 1 8.67 2.35 6.26 6.26 0 0 1 .61 4.78 6.26 6.26 0 0 1-6.21 4.7zm0-8.17a1.45 1.45 0 0 0-.79.19 2.1 2.1 0 0 0-1.07 1.19 1.83 1.83 0 0 0 1.39 2.26 1.91 1.91 0 0 0 2.31-1.28 1.88 1.88 0 0 0-1.29-2.29h-.06a1.2 1.2 0 0 0-.54-.05zM588.93 474.9a1.36 1.36 0 0 1-1.35 1.36h-9.31a1.36 1.36 0 0 1 0-2.71h9.31a1.36 1.36 0 0 1 1.35 1.35zm0 12.69a1.36 1.36 0 0 1-1.35 1.35h-9.31a1.28 1.28 0 0 1-1.35-1.35 1.35 1.35 0 0 1 1.35-1.35h9.31a1.45 1.45 0 0 1 1.35 1.35zm0 12.81a1.45 1.45 0 0 1-1.35 1.35h-9.31a1.35 1.35 0 0 1-1.35-1.35 1.27 1.27 0 0 1 1.35-1.34h9.31a1.35 1.35 0 0 1 1.35 1.34zm0 12.69a1.36 1.36 0 0 1-1.35 1.35h-9.31a1.35 1.35 0 0 1 0-2.7h9.31a1.36 1.36 0 0 1 1.35 1.35zm34.14 23.61a15.9 15.9 0 0 1-6.07 12.55 16.38 16.38 0 0 1-9.84 3.37 17.11 17.11 0 0 1-3.78-.4 15.68 15.68 0 0 1-11.6-11.47 15.93 15.93 0 0 1 6.74-17.27V474.9a8.64 8.64 0 0 1 17.27 0v48.58a15.63 15.63 0 0 1 7.28 13.22zm-2.71 0a13 13 0 0 0-6.6-11.34 1.39 1.39 0 0 1-.68-1.21V474.9a5.9 5.9 0 0 0-5.93-5.93 6 6 0 0 0-5.95 5.93v49.25a1.38 1.38 0 0 1-.67 1.21 13.11 13.11 0 0 0 3.47 24.16 13.12 13.12 0 0 0 16.32-12.82zm-8.23 0a5 5 0 0 1-5 5 5.07 5.07 0 0 1-5-5 5.22 5.22 0 0 1 3.65-4.85v-38.73a1.35 1.35 0 0 1 1.35-1.35 1.28 1.28 0 0 1 1.35 1.35V532a4.78 4.78 0 0 1 3.65 4.7zm-2.69 0a2.27 2.27 0 0 0-2.29-2.29 2.37 2.37 0 0 0-2.3 2.29 2.27 2.27 0 0 0 2.3 2.29 2.19 2.19 0 0 0 2.29-2.29zm16-50.86a1.32 1.32 0 0 1 0-1.89l8.56-9.05v-.13c.13 0 .26-.14.4-.27s.27-.13.54-.13.41.13.54.13.26.27.41.27v.13l8.49 8.91a1.63 1.63 0 0 1-.13 2 1.45 1.45 0 0 1-1.89-.14l-7.42-8-7.56 8a1.2 1.2 0 0 1-.94.4 1.33 1.33 0 0 1-.95-.23zm18.76 16.72a1.3 1.3 0 0 1 0 1.89l-8.36 9h-.15a.28.28 0 0 1-.26.27 1.2 1.2 0 0 1-.68.14 1 1 0 0 1-.54-.14c-.13 0-.26-.13-.39-.27l-8.38-9a1.32 1.32 0 0 1 0-1.89 1.3 1.3 0 0 1 1.89 0l7.56 8.1 7.42-8.1a1.3 1.3 0 0 1 1.94 0z"/><path class="cls-1" d="M607.15 553.79a17.68 17.68 0 0 1-4-.44A16.87 16.87 0 0 1 590.63 541a17.18 17.18 0 0 1 6.72-18.16v-48a9.8 9.8 0 0 1 19.6 0v48a16.78 16.78 0 0 1 7.28 13.85 17.07 17.07 0 0 1-6.52 13.47 17.54 17.54 0 0 1-10.56 3.63zm0-86.35a7.57 7.57 0 0 0-7.47 7.46v49.22l-.54.34a14.86 14.86 0 0 0-6.24 16 14.53 14.53 0 0 0 10.74 10.6 15.69 15.69 0 0 0 12.64-2.76 14.73 14.73 0 0 0 5.62-11.62 14.41 14.41 0 0 0-6.73-12.22l-.55-.35V474.9a7.48 7.48 0 0 0-7.47-7.46zm.15 83.63a16 16 0 0 1-3.53-.41 14.27 14.27 0 0 1-3.77-26.31.2.2 0 0 0 .09-.2V474.9a7.2 7.2 0 0 1 7.11-7.1 7.11 7.11 0 0 1 7.1 7.1v49.25c0 .06 0 .14.15.24a14.15 14.15 0 0 1 7.13 12.31 14.32 14.32 0 0 1-5.48 11.3 14 14 0 0 1-8.8 3.07zm-.15-80.94a4.84 4.84 0 0 0-4.78 4.77v49.25a2.54 2.54 0 0 1-1.2 2.19 12 12 0 1 0 13.48 19.83 12 12 0 0 0 4.55-9.47 11.74 11.74 0 0 0-6-10.33 2.59 2.59 0 0 1-1.26-2.22V474.9a4.72 4.72 0 0 0-4.79-4.77zm0 72.73a6.17 6.17 0 0 1-2.52-11.8v-37.94a2.52 2.52 0 0 1 2.52-2.52 2.43 2.43 0 0 1 2.51 2.52v38a5.93 5.93 0 0 1 3.64 5.56 6.16 6.16 0 0 1-6.15 6.18zm-.15-49.74v39.57l-.8.26a4.09 4.09 0 0 0-2.85 3.75 3.94 3.94 0 0 0 3.84 3.83 3.83 3.83 0 0 0 3.81-3.83 3.63 3.63 0 0 0-2.76-3.59l-.88-.22v-39.77zm.19 47a3.43 3.43 0 0 1-3.47-3.46 3.56 3.56 0 0 1 3.47-3.46 3.42 3.42 0 0 1 3.46 3.46 3.35 3.35 0 0 1-3.5 3.5zm0-4.59a1.21 1.21 0 0 0-1.19 1.17 1.11 1.11 0 0 0 1.13 1.13 1 1 0 0 0 1.13-1.13 1.11 1.11 0 0 0-1.11-1.13zm-19.57-20h-9.31a2.52 2.52 0 0 1 0-5h9.31a2.52 2.52 0 0 1 0 5zm-9.31-2.7l-.15.33h9.46l.19-.18c0-.15-.17-.18-.19-.18zm56.53 2.16a2.21 2.21 0 0 1-.9-.18 2 2 0 0 1-.88-.59l-8.38-9a2.47 2.47 0 0 1 0-3.51 2.5 2.5 0 0 1 1.77-.75 2.5 2.5 0 0 1 1.77.75l6.73 7.2 6.56-7.17a2.48 2.48 0 0 1 3.57 0 2.49 2.49 0 0 1 0 3.54l-8.76 9.38a1.35 1.35 0 0 1-.47.22 2.28 2.28 0 0 1-1.05.19zm-8.25-11.69l-.2.28 8.23 8.88v-.21h.32zm8.45 9h.38l8.87-9.77-.83.83a.18.18 0 0 0-.24 0zm-47.42-9.41h-9.31a2.52 2.52 0 0 1-2.51-2.52 2.43 2.43 0 0 1 2.51-2.51h9.31a2.52 2.52 0 0 1 2.52 2.51 2.62 2.62 0 0 1-2.56 2.55zm-9.31-2.7v.37h9.31a.44.44 0 0 0 .18-.2c0-.13-.16-.17-.18-.17zm9.31-10.12h-9.31a2.42 2.42 0 0 1-2.51-2.51 2.52 2.52 0 0 1 2.51-2.52h9.31a2.62 2.62 0 0 1 2.52 2.52 2.51 2.51 0 0 1-2.56 2.54zm0-2.7h-9.29l-.15.34h9.46l.18-.18a.46.46 0 0 0-.26-.13zm38.88-.13a2.38 2.38 0 0 1-1.76-.6 2.48 2.48 0 0 1 0-3.54l8.16-8.68v-.7l1.57-.41a.76.76 0 0 0-.29.05 2.81 2.81 0 0 1 1.46-.06h.5l.19.28h.79v.84l8.17 8.56a2.83 2.83 0 0 1-.14 3.66 2.66 2.66 0 0 1-3.55-.14l-6.59-7.08-6.71 7.06a2.38 2.38 0 0 1-1.86.79zm-.24-2.34l-.71.9.82-.83a.28.28 0 0 0-.17-.04zM635 476l8.26 8.87a.27.27 0 0 0 .34 0s0-.3-.11-.39l-8.51-8.92-.06.09-8.64 9.22h.28zm-1-2.43a.66.66 0 0 0-.21 0zm-46.42 3.82h-9.31a2.52 2.52 0 0 1 0-5h9.31a2.52 2.52 0 1 1 0 5zm-9.31-2.7l-.15.34h9.46l.19-.19c0-.14-.17-.18-.19-.18zM312.5 378.07v48.59a9 9 0 0 1-8.93 8.94H255a9 9 0 0 1-8.94-8.94v-48.59a9 9 0 0 1 8.94-8.92h48.59a9 9 0 0 1 8.91 8.92zm-2.07 0a6.92 6.92 0 0 0-6.86-6.85H255a6.92 6.92 0 0 0-6.86 6.85v48.59a6.92 6.92 0 0 0 6.86 6.86h48.59a6.92 6.92 0 0 0 6.86-6.86zm-6.34 24.3a24.82 24.82 0 1 1-24.82-24.82 24.82 24.82 0 0 1 24.82 24.82zm-2.08 0a22.74 22.74 0 1 0-22.74 22.74A22.74 22.74 0 0 0 302 402.37zm-18.58 8v6.76h-8.31v-6.76a5.78 5.78 0 0 1 8.31 0z"/><path class="cls-1" d="M303.57 436.77H255a10.12 10.12 0 0 1-10.1-10.11v-48.59A10.11 10.11 0 0 1 255 368h48.59a10.11 10.11 0 0 1 10.1 10.09v48.59a10.12 10.12 0 0 1-10.12 10.09zM255 372.39a5.76 5.76 0 0 0-5.69 5.68v48.59a5.77 5.77 0 0 0 5.69 5.69h48.59a5.77 5.77 0 0 0 5.69-5.69v-48.59a5.76 5.76 0 0 0-5.69-5.68zm24.29 56a26 26 0 1 1 26-26 26 26 0 0 1-26.02 25.96zm0-47.55a21.57 21.57 0 1 0 21.58 21.57 21.59 21.59 0 0 0-21.6-21.61zm5.33 37.49H274V410l.24-.32a6.93 6.93 0 0 1 10.17 0l.24.32zm-8.33-2.33h6v-5.12a4.7 4.7 0 0 0-6 0z"/><path class="cls-1" d="M267 391.25h7.06v13.51H267zm2.08 11.43H272v-9.35h-2.9zm15.36-11.43h7.07v13.51h-7.07zm2.08 11.43h2.91v-9.35h-2.91z"/><path class="cls-1" d="M291.92 405.15h-7.85v-14.28h7.85zm-7.07-.78h6.29v-12.73h-6.29zm-10.38.78h-7.84v-14.28h7.84zm-7.06-.78h6.28v-12.73h-6.28zm22.43-1.3h-3.69V393h3.69zm-2.91-.78h2.13v-8.57h-2.13zm-14.53.78h-3.69V393h3.69zm-2.91-.78h2.13v-8.57h-2.13zM542.4 411.53a.93.93 0 0 1-.9-1v-11.2h-.27a15.6 15.6 0 0 1-14.44-15.43v-14.51a1 1 0 0 1 1-1h3.88v-13.63a1 1 0 0 1 1-.89.89.89 0 0 1 .9.89v13.63h17.6v-13.63a1 1 0 0 1 1-.89 1 1 0 0 1 .9.89v13.63h4a.93.93 0 0 1 .91 1v14.52a15.6 15.6 0 0 1-14.35 15.43h-.28v11.2a.93.93 0 0 1-.95.99zm-13.71-41.24v13.62a13.72 13.72 0 0 0 27.43 0v-13.62z"/><path class="cls-1" d="M542.4 412.7a2.09 2.09 0 0 1-2.06-2.16v-10.11a16.8 16.8 0 0 1-14.71-16.52v-14.52a2.15 2.15 0 0 1 2.15-2.16h2.72v-12.47a2.13 2.13 0 0 1 2.16-2.06 2.07 2.07 0 0 1 2.07 2.06v12.47H550v-12.47a2.12 2.12 0 0 1 4.23 0v12.47H557a2.09 2.09 0 0 1 2.07 2.16v14.52a16.78 16.78 0 0 1-14.62 16.52v10.11a2.1 2.1 0 0 1-2.05 2.16zm-12.54-41.24v12.45a12.55 12.55 0 0 0 25.09 0v-12.45zM287 584.29v8.12a1 1 0 0 1-1 1h-54.79a1 1 0 0 1-1-1v-8.12a3.8 3.8 0 0 1 3.81-3.71h1.7v-4.41a3.78 3.78 0 0 1 3.72-3.72h1.7v-15.23a17.45 17.45 0 0 1 34.9 0v15.23h1.7a3.8 3.8 0 0 1 3.82 3.72v4.41h1.7a3.77 3.77 0 0 1 3.74 3.71zm-56.8-24.37a1 1 0 0 1 1-1h5.51a1 1 0 0 1 1 1 1.07 1.07 0 0 1-1 1h-5.51a1 1 0 0 1-1-1zm54.8 24.37a1.75 1.75 0 0 0-1.7-1.7h-49.39a1.76 1.76 0 0 0-1.71 1.7v7.13H285zm-48.33-43.72a1 1 0 0 1 0-1.41 1 1 0 0 1 1.4 0l3.81 3.82a1.07 1.07 0 0 1 0 1.5.91.91 0 0 1-.7.3 1.08 1.08 0 0 1-.7-.3zm1.1 40h41.72v-4.41a1.76 1.76 0 0 0-1.71-1.71h-38.3a1.69 1.69 0 0 0-1.71 1.71zm5.42-8.13H274v-15.22a15.45 15.45 0 0 0-30.89 0zm16.44-26.17a1 1 0 0 1-1 1 9.88 9.88 0 0 0-9.92 9.93 1.08 1.08 0 0 1-1 1 1 1 0 0 1-1-1 11.89 11.89 0 0 1 11.93-11.94 1 1 0 0 1 .94 1.02zm-2-10.42v-5.42a1 1 0 0 1 2 0v5.42a1 1 0 0 1-2 0zm15.74 6.61a1 1 0 0 1 0-1.4l3.92-3.81a1 1 0 0 1 1.4 1.4l-3.91 3.92a1.6 1.6 0 0 1-.7.19 1.08 1.08 0 0 1-.76-.29zm6.12 17.45a1 1 0 0 1 1-1H286a.94.94 0 0 1 1 1 1 1 0 0 1-1 1h-5.52a1.07 1.07 0 0 1-1.04-.99z"/><path class="cls-1" d="M286 594.58h-54.79a2.18 2.18 0 0 1-2.18-2.17v-8.11a4.94 4.94 0 0 1 5-4.89h.54v-3.24a4.94 4.94 0 0 1 4.88-4.88h.55v-14.07a18.62 18.62 0 0 1 37.23 0v14.07h.54a4.93 4.93 0 0 1 5 4.88v3.24h.54a5 5 0 0 1 4.88 4.89v8.11a2.1 2.1 0 0 1-2.19 2.17zm-52.59-4.33h50.41v-6a.6.6 0 0 0-.53-.55h-49.38a.61.61 0 0 0-.54.55zm5.52-10.84h39.38v-3.24a.59.59 0 0 0-.54-.54h-38.3a.52.52 0 0 0-.54.54zm5.41-8.12h28.56v-14.07a14.28 14.28 0 0 0-28.56 0zm41.66-9.2h-5.52a2.23 2.23 0 0 1-2.17-2.17 2.17 2.17 0 0 1 2.17-2.16H286a2.12 2.12 0 0 1 2.17 2.16 2.17 2.17 0 0 1-2.17 2.17zm-49.24 0h-5.51a2.18 2.18 0 0 1-2.18-2.17 2.12 2.12 0 0 1 2.18-2.16h5.51a2.17 2.17 0 0 1 2.17 2.16 2.23 2.23 0 0 1-2.21 2.17zm10.93-2.7a2.17 2.17 0 0 1-2.17-2.17 13.12 13.12 0 0 1 13.1-13.11 2.18 2.18 0 0 1 2.17 2.17 2.1 2.1 0 0 1-2.17 2.17 8.67 8.67 0 0 0-8.76 8.77 2.26 2.26 0 0 1-2.21 2.17zM241.13 546a2.2 2.2 0 0 1-1.54-.66l-3.8-3.9a2.18 2.18 0 0 1-.64-1.52 2.15 2.15 0 0 1 .64-1.53 2.19 2.19 0 0 1 3.06 0l3.8 3.81a2.22 2.22 0 0 1 .65 1.58 2.26 2.26 0 0 1-.65 1.58 2 2 0 0 1-1.52.64zm32.9-2a2.23 2.23 0 0 1-1.54-.65 2.15 2.15 0 0 1 0-3l3.93-3.83a2.16 2.16 0 0 1 3.05 3.07l-4.23 4.13a2.52 2.52 0 0 1-1.24.22zm.12-2.05zM258.58 538a2.17 2.17 0 0 1-2.17-2.17v-5.42a2.12 2.12 0 0 1 2.17-2.17 2.1 2.1 0 0 1 2.17 2.17v5.42a2.18 2.18 0 0 1-2.17 2.17zM120.35 547.41A16.43 16.43 0 1 0 103.92 531a16.45 16.45 0 0 0 16.43 16.41zm0-27.38a11 11 0 1 1-10.95 11A11 11 0 0 1 120.35 520zM75.4 541.93l10.15 10.15a2.74 2.74 0 0 0 1.94.81 2.77 2.77 0 0 0 1.05-.21 2.74 2.74 0 0 0 1.69-2.53v-8.22a8.22 8.22 0 0 0 8.21-8.21v-11a8.22 8.22 0 0 0-8.21-8.22H62.85a8.23 8.23 0 0 0-8.22 8.22v11a8.22 8.22 0 0 0 8.22 8.21zm-15.29-8.21v-11a2.74 2.74 0 0 1 2.74-2.72h27.38a2.74 2.74 0 0 1 2.77 2.77v11a2.74 2.74 0 0 1-2.74 2.74h-2.77a2.74 2.74 0 0 0-2.74 2.74v4.34l-6.28-6.28a2.7 2.7 0 0 0-1.93-.8H62.85a2.74 2.74 0 0 1-2.74-2.79z"/><path class="cls-1" d="M65.58 525.5h21.91v5.48H65.58zM194.29 503.6h-35.6A13.7 13.7 0 0 0 145 517.29v31.58l-14.08 4h-27a13.7 13.7 0 0 0-13.69 13.69v21.91h-11V594h79.41v-5.47h-19.12v-17.41l5.69-2.44a13.67 13.67 0 0 0 13.48 11.59h35.6A13.71 13.71 0 0 0 208 566.58v-49.29a13.71 13.71 0 0 0-13.71-13.69zm-58.59 63.2a2.73 2.73 0 0 0-1.66 2.52v19.17h-10.95v-19.17h2.74v-5.48h-11v5.48h2.74v19.17h-11v-19.17h-5.48v19.17h-5.38v-21.91a8.22 8.22 0 0 1 8.21-8.22h27.38a2.78 2.78 0 0 0 .76-.1l19.16-5.48a2.69 2.69 0 0 0 1.53-1.11l9.1-13.65 4.21 4.21-11.89 16.66zm66.8-.22a8.22 8.22 0 0 1-8.21 8.21h-35.6a8.22 8.22 0 0 1-8.22-8.21h-.35l6.91-3a2.75 2.75 0 0 0 1.15-.93l13.69-19.17a2.72 2.72 0 0 0-.29-3.52l-8.22-8.22a2.79 2.79 0 0 0-2.2-.79 2.74 2.74 0 0 0-2 1.21l-8.68 13v-27.87a8.23 8.23 0 0 1 8.22-8.22h35.6a8.23 8.23 0 0 1 8.21 8.22z"/><path class="cls-1" d="M158.69 517.29h35.6v5.48h-35.6zM172.38 528.24h21.91v5.48h-21.91zM177.86 539.2h16.43v5.48h-16.43zM172.38 550.15h21.91v5.48h-21.91zM164.16 561.1h30.12v5.48h-30.12z"/></g></svg>