<svg id="Warstwa_1" xmlns="http://www.w3.org/2000/svg" viewBox="0 0 260 260"><style>.st0{fill:#fff}</style><title>installer_app_icon</title><g id="Warstwa_2_1_"><g id="Warstwa_1-2"><g id="icons_favicon"><path id="Fill-1" class="st0" d="M131.7 101.9L148 85.5c1.3-1.3 1.6-3.1 1-4.8-8-20.5-4-41.4 10.6-56 13.2-13.2 32.4-18.6 50.6-14.1l-24.1 24.1c-10.8 10.8-10.8 28.4 0 39.2 10.8 10.8 28.4 10.8 39.2 0l24.2-24.2c4.5 18.2-.9 37.4-14.1 50.6-14.6 14.6-35.6 18.6-56 10.6-2.3-.9-4.9.2-5.8 2.6-.9 2.3.2 4.9 2.6 5.8 7.7 3.1 15.9 4.7 24.2 4.7 15.6 0 30.6-6.2 41.5-17.3 17.6-17.6 23-43.9 14-67-.5-1.4-1.8-2.5-3.3-2.8-1.5-.3-3 .2-4.1 1.2l-29.4 29.3c-7.3 7.3-19.1 7.3-26.4 0s-7.3-19.1 0-26.4l29.4-29.4c1.1-1.1 1.5-2.6 1.2-4.1-.3-1.5-1.4-2.7-2.8-3.3-23.1-9.1-49.4-3.6-67 14-16.6 16.6-21.6 39.9-13.7 62.9l-14.4 14.3c-1.8 1.8-1.8 4.6 0 6.4s4.5 1.9 6.3.1"/><path id="Fill-3" class="st0" d="M108.9 177.6L41.5 245c-.1.1-8.7 8.3-18.3 5.3-2.4-.8-4.9.6-5.7 2.9-.8 2.4.6 4.9 2.9 5.7 2.3.7 4.8 1.1 7.2 1.1 11.4 0 19.7-8.2 20.2-8.6l67.4-67.4c1.8-1.8 1.8-4.6 0-6.4-1.7-1.8-4.6-1.8-6.3 0"/><path id="Fill-5" class="st0" d="M98.8 134.7c1.8-1.8 1.8-4.6 0-6.4-1.8-1.7-4.6-1.7-6.4 0L8.6 212.2c-.5.5-12.2 12.4-7.5 27.3.6 1.9 2.3 3.2 4.3 3.2.5 0 .9-.1 1.4-.2 2.4-.7 3.7-3.3 3-5.7-3-9.6 5.2-18.1 5.3-18.2l83.7-83.9z"/><path id="Fill-7" class="st0" d="M164.5 128.3c-.5-.5-1.1-.9-1.8-1.1l-48.2-16.1L66 62.7c-.8-.8-2-1.3-3.2-1.3H32.6L11.1 25.6l11.4-11.4 35.8 21.5v13.8c.2 2.5 2.4 4.3 4.9 4.1 2.2-.2 3.9-1.9 4.1-4.1V33.1c0-1.6-.8-3-2.2-3.9l-41-24.6c-1.8-1.1-4.1-.8-5.5.7L2.2 21.7c-1.5 1.5-1.7 3.7-.7 5.5l24.6 41c.8 1.4 2.3 2.2 3.9 2.2h31l47.9 47.9h.1c.4.4.8.7 1.3.9l.2.1c.1 0 .1.1.2.1l48.2 16.1 81.3 81.2c.1.1 10.1 10.5 7.1 20.1-.7 2.4.6 4.9 3 5.7.4.1.9.2 1.4.2 2 0 3.7-1.3 4.3-3.2 4.7-14.9-8.7-28.6-9.3-29.1l-82.2-82.1z"/><path id="Fill-9" class="st0" d="M233.7 250.3c-9.7 3-20-7-20.1-7.1l-81.3-81.3-7.9-23.6c-.9-2.3-3.5-3.5-5.8-2.6-2.2.8-3.4 3.2-2.7 5.5l8.2 24.6c.2.7.6 1.3 1.1 1.8l82 82.1c.5.5 10.5 10.3 22.6 10.3 2.2 0 4.4-.3 6.5-1 2.4-.8 3.6-3.4 2.8-5.8-.7-2.3-3.1-3.6-5.4-2.9"/><path id="Fill-11" class="st0" d="M226.9 234.5c2.5 0 4.5-2.1 4.5-4.6 0-1.2-.5-2.3-1.3-3.2l-82-82c-1.8-1.8-4.6-1.8-6.4 0-1.8 1.8-1.8 4.6 0 6.4l82 82c.8.9 2 1.4 3.2 1.4"/></g></g></g></svg>