<svg id="icons" xmlns="http://www.w3.org/2000/svg" viewBox="0 0 30 30"><defs><style>.cls-1{fill:#0090ff}</style></defs><title>installer_alerts_icon</title><path class="cls-1" d="M20.5 19.63a.38.38 0 0 1-.37-.37V15.5a.37.37 0 1 1 .75 0v3.75a.38.38 0 0 1-.38.38zM20.5 21.88a.36.36 0 0 1-.26-.11.36.36 0 0 1-.08-.13.31.31 0 0 1 0-.14.39.39 0 0 1 .11-.27.41.41 0 0 1 .53 0 .38.38 0 0 1 .11.27.31.31 0 0 1 0 .14.54.54 0 0 1-.08.13.39.39 0 0 1-.33.11zM14.5 18.88h-11a.38.38 0 0 1-.37-.37V5.5a.38.38 0 0 1 .38-.37h19a.38.38 0 0 1 .38.38v7.35a.38.38 0 0 1-.75 0v-7H3.87v12.27H14.5a.38.38 0 0 1 0 .75z"/><path class="cls-1" d="M13 14.54a.37.37 0 0 1-.25-.1l-9.5-8.66a.37.37 0 1 1 .51-.55L13 13.66l9.25-8.44a.37.37 0 1 1 .51.55l-9.5 8.67a.37.37 0 0 1-.26.1z"/><path class="cls-1" d="M17 14a.37.37 0 0 1-.26-.1l-1.66-1.6a.37.37 0 0 1 .52-.54l1.66 1.6A.38.38 0 0 1 17 14zM3.5 18.88a.38.38 0 0 1-.25-.65l7.13-6.5a.38.38 0 0 1 .51.55l-7.13 6.5a.38.38 0 0 1-.26.1z"/><path class="cls-1" d="M20.5 24.88a6.38 6.38 0 1 1 6.38-6.37 6.38 6.38 0 0 1-6.38 6.37zm0-12a5.63 5.63 0 1 0 5.63 5.63 5.63 5.63 0 0 0-5.63-5.63z"/></svg>