<svg id="icons" xmlns="http://www.w3.org/2000/svg" viewBox="0 0 30 30"><defs><style>.cls-1{fill:#0090ff}</style></defs><title>installer_clients_icon</title><path class="cls-1" d="M22.5 26.88h-15a1.38 1.38 0 0 1-1.37-1.38v-20a.38.38 0 0 1 .75 0v20a.63.63 0 0 0 .63.63h15a.63.63 0 0 0 .63-.62V7.5a.38.38 0 0 1 .75 0v18a1.38 1.38 0 0 1-1.39 1.38z"/><path class="cls-1" d="M23.5 7.88h-15a2.38 2.38 0 0 1 0-4.75h15a.38.38 0 0 1 0 .75h-15a1.63 1.63 0 0 0 0 3.25h15a.38.38 0 0 1 0 .75z"/><path class="cls-1" d="M23.5 5.88h-15a.38.38 0 0 1 0-.75h15a.38.38 0 0 1 0 .75zM15 16.88A2.88 2.88 0 1 1 17.88 14 2.88 2.88 0 0 1 15 16.88zm0-5A2.13 2.13 0 1 0 17.13 14 2.13 2.13 0 0 0 15 11.88z"/><path class="cls-1" d="M19.5 22.88h-9a.38.38 0 0 1-.37-.37V21a4.88 4.88 0 0 1 9.75 0v1.5a.38.38 0 0 1-.38.38zm-8.62-.75h8.25V21a4.13 4.13 0 0 0-8.25 0z"/></svg>