<svg id="icons" xmlns="http://www.w3.org/2000/svg" viewBox="0 0 30 30"><defs><style>.cls-1{fill:#0090ff}</style></defs><title>installer_hc_icon</title><path class="cls-1" d="M5.51 12.88a.37.37 0 0 1-.25-.1 6.41 6.41 0 0 1 0-9.55.37.37 0 1 1 .51.55 5.66 5.66 0 0 0 0 8.45.37.37 0 0 1-.25.65z"/><path class="cls-1" d="M7 11.49a.37.37 0 0 1-.25-.1 4.55 4.55 0 0 1 0-6.78.37.37 0 0 1 .51.55 3.81 3.81 0 0 0 0 5.68.38.38 0 0 1-.25.65z"/><path class="cls-1" d="M8.5 10.11a.37.37 0 0 1-.25-.1 2.7 2.7 0 0 1 0-4 .37.37 0 1 1 .51.55 2 2 0 0 0 0 2.91.37.37 0 0 1-.25.65zM15.49 12.88a.37.37 0 0 1-.25-.65 5.66 5.66 0 0 0 0-8.45.37.37 0 1 1 .51-.55 6.41 6.41 0 0 1 0 9.55.37.37 0 0 1-.26.1z"/><path class="cls-1" d="M14 11.49a.38.38 0 0 1-.25-.65 3.81 3.81 0 0 0 0-5.68.37.37 0 0 1 .51-.55 4.55 4.55 0 0 1 0 6.78.37.37 0 0 1-.26.1z"/><path class="cls-1" d="M12.5 10.11a.37.37 0 0 1-.25-.65 2 2 0 0 0 0-2.91.37.37 0 1 1 .5-.55 2.7 2.7 0 0 1 0 4 .37.37 0 0 1-.25.11zM10.5 19.88a.38.38 0 0 1-.37-.37V8.5a.38.38 0 0 1 .75 0v11a.38.38 0 0 1-.38.38z"/><path class="cls-1" d="M25.5 26.88h-21a1.38 1.38 0 0 1-1.37-1.38v-5a1.38 1.38 0 0 1 1.37-1.37h21a1.38 1.38 0 0 1 1.38 1.38v5a1.38 1.38 0 0 1-1.38 1.37zm-21-7a.63.63 0 0 0-.62.63v5a.63.63 0 0 0 .63.63h21a.63.63 0 0 0 .63-.62v-5a.63.63 0 0 0-.62-.62z"/><path class="cls-1" d="M23 23.88a.88.88 0 1 1 .88-.87.88.88 0 0 1-.88.87zm0-1a.12.12 0 0 0-.12.13c0 .14.25.14.25 0a.12.12 0 0 0-.13-.13zM20 23.88a.88.88 0 1 1 .88-.87.88.88 0 0 1-.88.87zm0-1a.12.12 0 0 0-.12.13c0 .14.25.14.25 0a.12.12 0 0 0-.13-.13zM17 23.88a.88.88 0 1 1 .88-.87.88.88 0 0 1-.88.87zm0-1a.12.12 0 0 0-.12.13c0 .14.25.14.25 0a.12.12 0 0 0-.13-.13zM14 23.88a.88.88 0 1 1 .88-.87.88.88 0 0 1-.88.87zm0-1a.12.12 0 0 0-.12.13c0 .14.25.14.25 0a.12.12 0 0 0-.13-.13z"/></svg>