<svg id="icons" xmlns="http://www.w3.org/2000/svg" viewBox="0 0 30 30"><defs><style>.cls-1{fill:#0090ff}</style></defs><title>installer_savings_icon</title><path class="cls-1" d="M20.5 16.38A6.38 6.38 0 1 1 26.87 10a6.38 6.38 0 0 1-6.37 6.38zm0-12A5.63 5.63 0 1 0 26.12 10a5.63 5.63 0 0 0-5.62-5.62z"/><path class="cls-1" d="M21 13.71h-1a1.67 1.67 0 0 1-.73-.17 1.83 1.83 0 0 1-.58-.45 2.06 2.06 0 0 1-.38-.65.38.38 0 1 1 .7-.26 1.31 1.31 0 0 0 .24.41 1.1 1.1 0 0 0 .35.27.93.93 0 0 0 .4.14h1a.92.92 0 0 0 .41-.09 1.1 1.1 0 0 0 .35-.27 1.32 1.32 0 0 0 .25-.41 1.5 1.5 0 0 0 0-1 1.32 1.32 0 0 0-.25-.41 1.1 1.1 0 0 0-.35-.27.93.93 0 0 0-.41-.09h-1a1.67 1.67 0 0 1-.73-.17 1.85 1.85 0 0 1-.58-.45 2.06 2.06 0 0 1-.38-.65 2.23 2.23 0 0 1 0-1.56 2 2 0 0 1 .38-.65 1.82 1.82 0 0 1 .59-.45 1.66 1.66 0 0 1 .72-.24h1a1.67 1.67 0 0 1 .73.17 1.83 1.83 0 0 1 .58.45 2.07 2.07 0 0 1 .39.65.38.38 0 1 1-.7.26 1.32 1.32 0 0 0-.25-.41 1.1 1.1 0 0 0-.35-.27A.93.93 0 0 0 21 7h-1a.92.92 0 0 0-.41.09 1.1 1.1 0 0 0-.35.27 1.31 1.31 0 0 0-.24.41 1.49 1.49 0 0 0 0 1 1.32 1.32 0 0 0 .25.42 1.1 1.1 0 0 0 .35.27.93.93 0 0 0 .41.09H21a1.67 1.67 0 0 1 .73.17 1.85 1.85 0 0 1 .58.45 2.07 2.07 0 0 1 .39.65 2.25 2.25 0 0 1 0 1.56 2.07 2.07 0 0 1-.39.65 1.82 1.82 0 0 1-.59.45 1.66 1.66 0 0 1-.72.23z"/><path class="cls-1" d="M20.5 14.38a.38.38 0 0 1-.37-.37V6a.38.38 0 0 1 .75 0v8a.38.38 0 0 1-.38.38zM5.93 26.38a.37.37 0 0 1-.16 0l-2.43-1.2a.38.38 0 0 1-.18-.49l3.35-7.54A.38.38 0 0 1 7 17l2.43 1.16a.38.38 0 0 1 .18.49l-3.34 7.5a.37.37 0 0 1-.21.2zM4 24.66l1.75.83 3-6.86L7 17.81z"/><path class="cls-1" d="M10.48 21.4a.37.37 0 0 1-.17-.71l5-2.62v-.05a2 2 0 0 0-2.41-.41l-3.7 1.95a.38.38 0 1 1-.35-.66l3.7-1.95a2.75 2.75 0 0 1 3.3.56l.39.41a.37.37 0 0 1-.1.59l-5.41 2.85a.37.37 0 0 1-.25.04z"/><path class="cls-1" d="M15.89 25.38H6.37a.38.38 0 0 1 0-.75h9.43l5.95-3.08-.64-.41a2.21 2.21 0 0 0-2.32 0l-3.64 1.74a.37.37 0 0 1-.36 0l-3.33-2.09a.37.37 0 0 1 .4-.63l3.16 2 3.46-1.65a2.93 2.93 0 0 1 3 .1l1.17.75a.37.37 0 0 1 0 .65l-6.6 3.42a.38.38 0 0 1-.16-.05z"/></svg>