<svg id="Warstwa_1" data-name="Warstwa 1" xmlns="http://www.w3.org/2000/svg" width="450.7" height="145" viewBox="0 0 450.7 145">
  <title>Artboard 1</title>
  <g id="Warstwa_2" data-name="Warstwa 2">
    <path d="M321.1,64l.2.1.1.2.1.1v.2m-162-.9.1.2h.2l.1.1h.2m196.8-.8.3.1c2,.2,3.8.5,5.8.8l.4.1m-11.6,3.5h-.1l-.2.1-.1.1m17.5,2.7-.1-.1m-4-7.5.2.1h.6l.2.1m.3-1.2.5.1c8,2.1,24.1,7.5,25.1,18v.5M327.2,59.1h.3a118.11,118.11,0,0,1,20.6.1l.8.1M283.5,80.6v-.5c.7-10.1,16.8-15.9,24.7-17.9l.1-.1" style="fill: none;stroke: #999;stroke-linecap: round;stroke-linejoin: round;stroke-width: 0.36000001430511475px"/>
    <path d="M391.7,80.7v1l-.1.4-.1.5v.1l-.2.5-.1.5-.2.5-.2.5-.1.2-.1.1-.1.1-.1.1-.1.3-.2.2-.1.3-.2.2-.1.1-.1.2-.1.1v.1l-1.9,2.2-.5.5-1,.9-1,.8-.2.1c-9,6.6-22.5,10.9-33.5,12.5l-2.8.4-1,.1a90.88,90.88,0,0,1-29.4-1.6l-1.9-.5h-.2l-.1-.1a88.3,88.3,0,0,1-14.5-4.9l-2.3-1h-.1L299,96l-2.1-1-2-1.1-.4-.2-.4-.2-1.7-1.1-1.7-1.1-.1-.1-.1-.1-1.1-.8-1-.9-.3-.2-.3-.3-1-1.1-.9-1.1h-.1v-.1l-.1-.1-.9-1.5-.3-.5-.2-.5-.2-.5L284,83l-.1-.5-.1-.1v-.1l-.1-.5-.1-.4-.1-.5v-.5m82.3-13.8h.1m-.3-.2h.2v.2M351.9,97.3h-.1m3.3-32.5,2.7.3,2.6.4,2.5.4,2.7.5m.3,2h.7m-11.8-1.5,2.8.3,2.8.3,2.8.4,2.7.5m-11.8-1.7h.2l.1.1.4.1m.5-7.8h.3m3.8.6.4.1m5.7,1.7h.3l.1.2.2.2v.2m-17.3-2.3q.15-.6.6-.6h.1m.1,0,1.4-.1h4.3m-6.5-.6v-.2h.1l.1-.3h.2l.1-.1h.2m1.1.1h.4l.3.1m14.3,2.3.4.3.1.1V61" style="fill: none;stroke: #999;stroke-linecap: round;stroke-linejoin: round;stroke-width: 0.36000001430511475px"/>
    <path d="M354.7,65.1l.1-.2h.1l.1-.1h.1m-7.8-6.5,1.5.2m-2.8.4c.2-.6.5-.6,1-.6h.2m4.8,5.1.1-.2c.4-.6,1.5-.5,2.1-.5h.4l2.9.4,2.9.4,2.9.5,1.4.3,1.5.2.8.2a3.19,3.19,0,0,1,1.6.9l.1.2m-19.9-5.1v-.9m0-.4v-.9M366.1,61v1.1m2.6,4.3.1,3.3m-57.6-9.5,1.3-.1L314,60h2.8m-6,.3h.1m7.6-.6,1.5-.5,1.5-.4,1.5-.3,1.5-.3M316.8,60h.4l.2-.1h.2l.6-.1h.2l.1-.1m-9.7,7.4.1.1v.1l.2.1c1.8.7,4.2.3,6.1.1l.7-.1,1.2-.2,1.1-.3.5-.2.5-.2.4-.2.4-.2.3-.2.2-.2.2-.1.2-.2v-.1l.1-.1v-.1m6.9-6.8h.7l.1.1h.2l.2.2.1.1v.2m-2-.4.3-.1.4-.1" style="fill: none;stroke: #999;stroke-linecap: round;stroke-linejoin: round;stroke-width: 0.36000001430511475px"/>
    <path d="M326.4,57.9h.4l.1.1h.1l.1.2v.1l.1.2m-18.9,2.7V61a.78.78,0,0,1,.4-.4h.1m-2.3,6.7c.1-1.6,3.3-2.8,4.6-3.1l.7-.2.7-.2.8-.2a20.32,20.32,0,0,1,6-.5l.6.1.7.1.5.1.5.1.8.4.3.2.3.3.1.2.1.1v.2l.1.2m3.9-6.6v.9m32.6.4,1.4.3,2.9.9,1.4.5m-42.2,3.6v1.8m42.8-4.8v1.1m-59.6,6.1V67.4" style="fill: none;stroke: #999;stroke-linecap: round;stroke-linejoin: round;stroke-width: 0.36000001430511475px"/>
    <path d="M315.4,65.4l1-.1c1.2,0,2.4-.2,3.5.5l.2.1V66h.1m-10.7,1.5c1.2-1.2,3.3-1.5,4.8-1.9l1-.2m53.6,5.1-.1-.2M284.3,81.7h-.1m5.1,3.5h-.2v-.1m.8.4h-.2m.8.4-.2-.1m.5.3h-.1l-.1-.1m3.1,1.6h-.1m2.1,1h-.1m.3.2-.1-.1m.4.2-.2-.1m7.5,3.2-.1-.1m.7.3H304m2.4.8h-.1m.7.3-.2-.1m16.6,4.1h-.1m.2,0h-.1m9.1.9h-.2m2.1.1H334m3.1.1H337m54-16.8h.1m-6.8,4.5h.1m-1.9,1h.1l.1-.1m-.6.3h.1l.1-.1M308.2,62.3l.1-1.1m62.6,31.1.1-.1m-3.1,1.1h.1m-1.2.4h.1l.1-.1m-7,2h.1m-1.2.3.1-.1m-.5.2h.1m-1.4.3h.2v-.1m-1.4.3h.1l.2-.1m-2.1.5h.2v-.1m-1.7.3h.1m-1.6.2h.3m-4.2.6.1-.1h.2m-3.5.3h.1m-2.1.1h.9m-2.1.1h.3m22.6-35.5-.4-.1m1.4.3-.9-.2m2,.4h-.1m.8,0h-.1v.1h-.2l-.2-.1m-17.4-2.8h.1m1.2.5h-.6l-.6-.2h-.2l-.2-.1h-.1m1.9.3h-.1m1.4.1h-.1m-2.6-.3v-.3M369,70.5h-.1m.2-.1.1-3.2m-3.1,3.4-1.5-.2-1.4-.3-2.9-.4-2.9-.4-2.9-.2m-3.1-1.3-.1-3.3m.5,3h-.2l-.1.1-.1.1v.1m-43.8-5.4h.2l.1-.1h.1l.2-.1m-.2.2h-.4m7.9-.5h-1a26,26,0,0,0-5.6.3l-1,.2M320,61.3l-.2.1a18.44,18.44,0,0,1-4,.6l-.2-.1m12-2.6-1,.2q-2.85.6-5.7,1.5l-1,.3" style="fill: none;stroke: #999;stroke-linecap: round;stroke-linejoin: round;stroke-width: 0.36000001430511475px"/>
    <path d="M327.2,59.2h.6l-.1.1h-.1M314.9,69.7l-1.1.1-1.1.1c-1.7.1-4.5.2-6.1-.5l-.2-.1-.2-.1c-.5-.5-.6-.7-.1-1.4l.3-.3m41.9-6.9-.1-.1v-.1h.5m1.4.5H350m.5.1h-.1m1,0h-.5m5.9,0-1.3-.1h-2.7l-1.3.1m5.9,0h-.6m6.6,1.7-1.4-.5-1.3-.3-1.3-.4-1.4-.4m5.9,1.7h-.1m2,.4h-.1m.4,0h-.2m.5-.2.2.1m-.5-.1h.3m.2-.8h-.1v-.1h-.4m0-.1.4.1h.1M349,59.4h-.2m2.6,8.3-.1-3.4m3.2,4.8-.3-.1c-.7-.1-2.5-.4-2.8-1.2v-.1m17.7,2.5v.2l-.1.1-.4.2-.2.1h-1.2l-.5-.1-.6-.1m3.1-3.6-.1,3.2m-.4-3.7.1.1.1.1h.2v.2h.1V67m-17.9-2.7.1-.1V64h.1l.2-.1h.2m37.7,18.9.1-.1m-.2.1h.1m-17.8,9.1h.1l.2-.1m-1.1.4h.2m-3.5,1.2h.1l.1-.1m-2.4.8h.1m-14.2,3.2h.1m-7.2.8h.2m-2.4.1h.3m-3.9.2h.6m-1.1,0h.5m-.7,0h.1m-.7,0h.2m-.7,0h.3m-1.7,0h1.2m-1.8-.1h.3l.3.1m-.9-.1h.2m-8.4-.7.1.1m-1.3-.2h.2m-.7,0h.1m-1-.2h.4m-.9-.1h.2l.1.1m-.8-.1h.3m-5.4-1.1.1.1m-.9-.2h.2l.1.1m-2.5-.6h.2m-.8-.2.1.1h.1m-.7-.2h.2m-.8-.2h.1l.1.1m-.7-.2h.1m-.7-.2h.1v.1m-1.2-.4h.1m-.7-.2h.1m-1.2-.3h.1m-.6-.2h.1m-1.1-.3h.2m-.4-.1h.1m-.3,0h.1m-1.6-.6.1.1h.2m-1.2-.4h.1l.1.1h.2m-.7-.3.1.1v.1m-.3-.2h.1m-.5-.1h.1l.2.1m-.5-.2h.1l.1.1m-.5-.2h.2m-.5-.1h.2m-.3-.1.1.1m-.4-.2h.1m-.4-.1h.1m-.4-.1h.1l.1.1m-.4-.2h.2m-.5-.1h.2m-.4-.1h.1l.1.1M301,91h.1m-.4-.1h.2m-.4-.1.2.1m-.5-.2h.2m-.4-.1h.2m-.4-.1.1.1m-.6-.3h.1m-.3-.1h.1m-.6-.2h.1m-.3-.1h.1m-.4-.1h.2m-.3-.1h.1m-.4-.1h.1m-.3-.1h.1m-.3-.1h.1m-.6-.2h.1m-.3-.1h.1m-.3-.1h.1m-.6-.2h.1m-.3-.2.1.1m-.4-.2h.1l.1.1m-.4-.2.2.1m-.9-.4.3.1.3.2m-1.2-.7.6.4m-.8-.5.1.1h.1m-1-.4h.1m-.3-.2.1.1m-.3-.2.1.1m-.3-.2.1.1m-.3-.2h.1l.1.1m-.3-.2.1.1m-.3-.1h.1m-.3-.2h.1v.1m-.3-.2.1.1m-.3-.1h.2m-.3-.2.1.1m-.3-.1h.1m-.5-.3.1.1m-.4-.2h.1m-.4-.2h.1l.2.2m-.6-.4.1.1m-.4-.3.1.1M289,85l.1.1m-.4-.2h.1m-3-1.9h.1m-.7-.5.1.1h.1m-.3-.2.1.1m-.3-.2h.2m-.3-.1h.1m-.2-.1h.1m-.5-.3h.1m-.3-.2h.1m-.3-.2h.1m-.5-.6h.1m39.6-15.9.4.2.2.2.1.2.1.1v.2l-.1.2-.1.3-.2.2-.3.3-.3.2-.4.3a21.84,21.84,0,0,1-6.1,2l-.8.2-.8.1M357.4,61l.6.1m-9.8-1.9h.6m0,.2-.2-.1h-.3l-.1-.1m43.4,21.6h.1m-.2.3.1-.1m-.2.1h.1m-.3.3h.1m-.4.3h.1m-.9.7.1-.1m-.3.2.2-.1m-.3.2.1-.1m-.2.2.1-.1m-.5.4.1-.1m-.7.5h.1m-.8.6.1-.2.3-.1m-.7.4.1-.1h.1m-.4.3.2-.2m-.5.3.1-.1h.1m-.4.3.1-.1.1-.1m-.5.3h.1l.1-.1m-.4.3.1-.1m-.4.2h.1v-.1m-.4.3h.1v-.1m-.7.5.1-.1m-.4.3.1-.1v-.1m-.4.3.1-.1m-.4.3.1-.1m-.9.5h.1m-.6.3h.1m-.3.1h.1m-.7.3h.1m-.5.2h.1m-.3.1h.1v-.1m-.3.2h.2m-.4.1h.2m-.4.2.1-.1.1-.1m-1.1.6h.1m-.3.1.1-.1m-.3.2h.1m-.6.2h.1v-.1m-.3.2h.2m-.5.1h.2m-.4.2.1-.1m-.6.3.1-.1m-.6.3h.2m-.4.1h.1v-.1m-.3.2h.1m-.4.1h.1m-.4.2.3-.2m-.6.3h.1m-.6.2h.1m-.4.1h.2m-.4.2.1-.1m-.4.2.2-.1m-1.3.5h.1V91m-.4.2h.2m-.5.1h.3m-.9.3h.1m-.4.1h.1v-.1m-.4.2h.1m-.7.3.3-.2m-.6.3.1-.1m-.7.3h.1v-.1m-.4.2h.1l.1-.1m-.9.3h.1m-.4.1h.2m-.5.2.1-.1h.1m-.9.3.1-.1m-.4.2h.1m-.8.2h.1l.2-.1m-.6.2h.1m-.4.1h.1m-1.2.4.9-.3m-1.6.5.3-.1.3-.1m-.9.3.1-.1h.2m-1,.3.2-.1h.2m-.8.2.2-.1h.1m-1,.3.4-.1m-.8.2.1-.1h.1m-.9.3.2-.1h.2m-.8.2.1-.1h.2m-1.1.3.3-.1h.2m-.9.2.1-.1h.2m-.9.3.3-.1m-.8.1h.2m-.5.2.2-.1m-.3.1h.1m-.4,0h.2m-1,.2.6-.1m-1,.2h.1m-.4.1.1-.1h.1m-1.4.3h.2m-1,.1h.4m-.8.1h.3m-1.1.2.2-.1h.3m-.9.1h.3m-1.1.2h.2l.1-.1m-.6.1h.1m-.2,0h.1m-.5.1h.2m-.3,0h.1m-.8.1h.2l.2-.1m-.8.2h.2m-1,.1h.2l.2-.1m-2.1.3,1-.1m-1.3.1h.1m-1.4.1h.6m-1.4.2.2-.1h.3m-2,.1h.1m-.8.1h.4m-1,0h.3m-.8,0h.3m-1.3.1,1-.1m-5.4.2h-.1M284.5,81.9l-.1-.1m2.3,1.8-.1-.1m.4.2h-.1l-.2-.1m.5.3-.1-.1H287m.4.2h-.1l-.1-.1m3.7,2.2h-.1m1.7.9h-.1m.3.1h-.1m.3.2-.1-.1m14.4,6.1h-.1m.3.1-.1-.1m.6.2h-.2l-.1-.1m.8.3-.5-.1m1,.3-.4-.2m1,.3h-.2l-.1-.1H309m1,.3h-.2l-.3-.2m1.1.3h-.4m.8.2h-.1l-.2-.1m.9.2h-.4m1,.3-.1-.1h-.2m.8.1h-.3m1,.3-.3-.1H313m.9.2-.2-.1h-.1m.9.3-.2-.1h-.2m1.7.4-1.1-.3m1.7.4-.3-.1h-.3m.9.2h-.1l-.2-.1m.9.2H317m.5,0h-.2m5.3,1.1-2.6-.5-2.4-.5m5.5,1h-.2" style="fill: none;stroke: #999;stroke-linecap: round;stroke-linejoin: round;stroke-width: 0.36000001430511475px"/>
    <path d="M323.4,97.3l-.1-.1h-.2m.7.1h-.3m1,.2-.1-.1h-.3l-.1-.1m1,.2h-.4m1.6.1-1-.1m8.8.8h-.4c-1.8-.1-3.5-.2-5.3-.4l-1.9-.2m8.3.6h-.1m2.1.1h-.4M283.7,81h-.1m.5.6-.1-.1m.6.5-.1-.1m.2.2-.1-.1m.9.7-.1-.1m.3.2h-.2m.3.1h-.1m.6.4-.2-.1-.2-.2m.6.4h-.1l-.1-.1m.3.2h-.1m1,.6h-.1V84m.3.2-.1-.1h-.1m.4.3-.1-.1h-.1m.5.3-.1-.1-.2-.1m.6.3-.1-.1h-.2m.5.3-.1-.1-.1-.1m.5.3h-.1l-.1-.1m.8.5-.2-.1m1.7.9H291m.6.3h-.1m.3.2-.1-.1m.3.1h-.1m1.4.8-.3-.2m.6.3-.1-.1h-.2m1.9.9h-.1m1.3.6-.1-.1h-.1m.4.2h-.1V89m.3.2-.1-.1m.4.2-.1-.1h-.1m.4.2h-.1l-.1-.1m.4.2-.1-.1m.3.2-.1-.1m.4.2h-.1l-.1-.1m.6.3-.1-.1m.3.2-.1-.1m.6.3-.2-.1h-.1l-.1-.1m.6.3h-.1m.4.1-.2-.1m.4.2-.1-.1h-.1m.4.2h-.1m.6.2-.1-.1m.6.3-.1-.1m.3.2-.1-.1m.6.3h-.1v-.1m.6.3h-.1m.4.1h-.1l-.1-.1m.5.2h-.1l-.1-.1m.6.3-.1-.1m1.2.4h-.1m.4.2h-.2m.8.2-.1-.1H305m.5.2-.3-.1m.8.3-.2-.1m.5.2h-.2l-.1-.1m.5.2-.1-.1m.4.2-.1-.1h-.2m3.7,1.2-.1-.1m1.1.3H311m.7.2h-.1v-.1m.3.2h-.1m.5.1h-.1m.6.1h-.1v-.1m20.7,3.4-1.1-.1m4.4.2h-1.4m1.8,0h-.4m.5,0h-.1m.5,0h-.2m.4,0h-.2m.4,0h-.1m.6,0H338m2.7-.1-2.2.1m2.4-.1h-.2m1.7-.1-.9.1m1.2-.1h-.2m.8,0H343m1-.1-.1.1h-.2m1.8-.1h-1.3m2.1-.2-.2.1H346m1.3-.1h-.4m1-.1h-.2m1.5-.2H349l-.1.1m.7-.1h-.2m1-.1H350m.8-.1-.1.1h-.1m1.4-.3-.1.1h-.1m.6-.1h-.2m1-.2-.2.1h-.2m.8-.1h-.1m.9-.2-.2.1h-.1m.7-.2h-.1v.1m.9-.2h-.2l-.2.1m.8-.2-.1.1h-.1m1-.2h-.5m.8-.1H357m.5-.1h-.1m.9-.2h-.1l-.1.1m1.4-.3h-.3m.8-.2-.1.1h-.1m.7-.2h-.1m.9-.2-.2.1H361m.7-.2h-.1m.8-.2-.1.1h-.2m.7-.2h-.2m.9-.2-.1.1h-.2m.7-.2h-.1m.8-.2h-.2l-.1.1m2.4-.8h-.1l-.1.1m.8-.3-.2.1m.6-.2h-.1m.7-.2h-.1l-.1.1m.5-.2h-.2m.6-.1-.4.1m.7-.3h-.1v.1m.4-.2-.1.1m.5-.2-.2.1h-.1m.6-.2h-.2l-.1.1m.6-.2h-.1m.4-.1h-.2m.8-.2h-.2m1.1-.4-.2.1m.5-.2h-.2m.5-.1-.2.1m.5-.3-.3.2m.9-.4-.1.1m.4-.2H374m.5-.1h-.2l-.1.1m.8-.3h-.2l-.3.2m.8-.3h-.1m.3-.2-.1.1m.4-.2h-.1v.1m.4-.2-.1.1h-.1m.4-.2-.2.1m.5-.2-.2.1m.8-.4h-.1l-.1.1m.4-.2-.1.1m.3-.2h-.1m.4-.1-.1.1m.3-.2-.2.1m.7-.3-.2.1h-.2m.6-.3-.1.1m.4-.2-.1.1m.6-.3h-.2m.4-.1h-.1l-.1.1m.4-.2h-.1v.1m.3-.2h-.1m.4-.1h-.1l-.1.1m.8-.4-.3.1-.3.2m1.4-.8h-.1m.3-.1-.1.1m.5-.3h-.1v.1m.5-.3-.2.1m.4-.2H383v.1m.3-.2h-.1v.1m.3-.2-.1.1h-.1m.3-.2-.1.1m.3-.2-.1.1m.3-.2-.1.1h-.1m.4-.2h-.1l-.1.1m.3-.2-.1.1m.5-.3-.1.1h-.1m.5-.2h-.2m.5-.2h-.2m.5-.2-.1.1h-.1m.5-.3-.2.1-.1.1m.6-.4-.1.1H386m.5-.2h-.2m.4-.2-.1.1m.4-.2h-.1m.6-.3h-.1m.6-.3h-.1m.7-.5-.1.1-.1.1m.3-.3-.1.1m.4-.3-.1.1-.1.1m.4-.3-.1.1H389m.3-.2-.1.1m.3-.2h-.1m1-.7h-.1l-.1.1m.3-.2-.1.1m.2-.2h-.1m.2-.1-.1.1m.2-.2-.1.1m.2-.2h-.1m.4-.3h-.1m.3-.1h-.1M365.9,67.6v-.5m0,1.3V66.7m0,1.7v-.8m-11.2-2.4v1.7m0-1v1m0-1.3v.3m10.9,2.4V66.4m.3.3-.1-.2-.1-.1h-.1l-2.7-.5-2.5-.4-2.6-.4-2.7-.3v2.1" style="fill: none;stroke: #999;stroke-linecap: round;stroke-linejoin: round;stroke-width: 0.36000001430511475px"/>
    <path d="M355.1,64.8H355l-.2.1-.1.2v.1m-.5,1.5V63.8m11.6,2.7V65.2" style="fill: none;stroke: #999;stroke-linecap: round;stroke-linejoin: round;stroke-width: 0.36000001430511475px"/>
    <path d="M354.7,63.6v.7l.1.7m11.6.7v2.7m-12.2-1.7v-3m-.6,1.8v.9m0-3.1v1.8m.6-1.4.5-.1m-1.1-.5.2.1.2.1.1.2.1.2m.5-.1,2.8.3,2.8.4,2.8.4,2.7.5m-11-2.2-.1.6m11.1,1.6.3.1.1.1.2.1v.2m-.5-1.1-.1.6m1.3,3.1V65.4m-.7.3v2.7" style="fill: none;stroke: #999;stroke-linecap: round;stroke-linejoin: round;stroke-width: 0.36000001430511475px"/>
    <path d="M367.1,65.1h-.3l-.1.1h-.1l-.2.2v.3m.7,2.6-.2-.1-.4.2m-11.7-1.5,2.8.3,2.8.3,2.7.4,2.8.5m-11.8-1.7-.2-.2-.1-.1h-.2m1.7-7.3h.3m.7-.1h.1a12,12,0,0,0,2,.3l.3.1m1,.2-.2-.1h-.3v.1l.1.1.4.1m-12.4-1.5.9.2" style="fill: none;stroke: #999;stroke-linecap: round;stroke-linejoin: round;stroke-width: 0.36000001430511475px"/>
    <path d="M367.1,68.3l-.1.1h-.2v.1h-.7l-.2-.1m1.2-3.3v.3m-1.2-.8.5.2h.1l.2.1h.2l.2.2m-3.7-.9,2.5.4M354.8,63l2.1.2m-3.3-.1a1.49,1.49,0,0,1,.9-.2h.2m-1.1.4v-.2m0,2.4v-.4m1.2,1.8h-.3l-.1-.1-.4-.1-.2-.1-.2-.2m14.6-.8v-.3m-2.5-3.2h.1m-1.9-.2h.3m1.3-.4.1.1h.1v.1h-.1a3.71,3.71,0,0,1-.9-.2l-.2-.1m-5.8-1.7h-.1l-.1.1h-.1l-.1.3-.1.2m6.2,1-1.4-.4-1.4-.5-1.4-.3-1.5-.4" style="fill: none;stroke: #999;stroke-linecap: round;stroke-linejoin: round;stroke-width: 0.36000001430511475px"/>
    <path d="M363.9,61.9l.1-.2.1-.2v-.1l.2-.1h.1m-8.1-1.9-1.4-.1H352l-1.4.1m6,.5v-.2l-.1-.2v-.1h-.2m.3.5.4.1.4.1h.4l.4.2m-9.4-.5h.2l.2.1h.2m1.2-.5h-.5l-.2-.1h-.3v-.1h0m1.3.8v-.2l-.1-.3-.1-.1h-.1m-1-.2,2.9-.1h2.8m.1-.2-1.5-.3-2.8-.4-1.5-.2m5.4,1.1h.1l.1-.1.1-.1h.1m-5.8-.9-.1-.1h.4l.2.1h.5m-1.4.6v-.3l.1-.1.1-.2h.2m1,0,1.4.2,2.9.5,1.4.3m2.4.4,1.5.1,1.4.2,2.8.4.5.2h.3l.3.1h0" style="fill: none;stroke: #999;stroke-linecap: round;stroke-linejoin: round;stroke-width: 0.36000001430511475px"/>
    <path d="M365.5,60.4l-1.5-.3-1.4-.1-1.5-.3-1.4-.1m6,1.4v-.4l-.1-.1-.1-.1" style="fill: none;stroke: #999;stroke-linecap: round;stroke-linejoin: round;stroke-width: 0.36000001430511475px"/>
    <path d="M359.7,59.6h.1l.1.1.1.1m5.5,1.7h.1m-5.9-1.7,1.4.3,2.9.9,1.5.5m-5.7-1.7h-.1m-13.4-.9h.1m.9-.6h-.1m0,.7.1-.7m20.9,7.3.1,3.1c-.4.5-1.1.3-1.6.3l-.4-.1" style="fill: none;stroke: #999;stroke-linecap: round;stroke-linejoin: round;stroke-width: 0.36000001430511475px"/>
    <path d="M368.7,69.1l-.1-.1v-.2l-.2-.1h-.1m-2.1.2-1.4-.3-1.5-.2-2.9-.5-3-.3-2.9-.3m11.7,2.1v-.5m-13.6-1.4h.1m-.3-.1.1.1m2-.2-.4-.1a3.74,3.74,0,0,1-1.6-.7v-.2m1.9,1.5.1-.5m-2-3.6.1-.4V63m-.1,3.4V63.7" style="fill: none;stroke: #999;stroke-linecap: round;stroke-linejoin: round;stroke-width: 0.36000001430511475px"/>
    <path d="M351.9,66.9v-.2l.1-.1h.1v-.1l.3-.1h.1m.1-3.4c.3-.4,1.2-.2,1.6-.3h.4m-2.7.8.1-.1v-.2l.2-.2h.4" style="fill: none;stroke: #999;stroke-linecap: round;stroke-linejoin: round;stroke-width: 0.36000001430511475px"/>
    <path d="M354.5,62.7l3,.3,2.9.4,2.9.5,1.4.3,1.5.3m2,.8.2.1.1.1.1.2v.1m-2.4-1.3h.2c.5.2,1.4.4,1.7.8h.1v.1m-3.4-3.3-.6-.2m-.3,0v.9m-5.7-2.5,1.4.3,1.5.4,1.4.5,1.4.4m-5.7-.7v-.9m-1.6-.4v1m-5.7-.9,1.5-.1h4.2M350,60l-.6-.1m-.2-1.3,1.7.2,1.7.3m-3.4-.5-.1-.1h-.3m.4.7v-.6M365.7,61l.1.5M362,60.4l1.9.3,1.8.3m-18.5-2,1.6.1m-2.5-.2H346m1.2.1-.2-.1h-.6m22.2,6.9.1.8v2.5m0,0-.1.2-.1.1h-.2l-.2.1H368l-.4.1h-.5l-.4-.1-.5-.1m2.5,1.2V69.1m-2.5.3-1.4-.2c-2.9-.6-5.9-.8-8.8-1.2l-1.6-.2m11.8,2.8V69.4m-13.8-2-.1-.1h-.1l-.1-.1-.1-.1-.1-.1v-.1m.7.6h-.1m1.9.3h-.5l-.4-.1-.3-.1h-.3l-.2-.1m1.7,1.5V67.8m-2.5-.9V63.5m-.1,4.9.1-1.5m-.1,1,.1-4.1m16.8,3,.1,3.8M315.2,60l5.2-.9m-1.7.6h-.2m-1.7.3h-.1m.2,0h-.1m-8,7.1.1-.2c.5-1.3,4-2.2,5.2-2.5h.1m-.4-.5h.1V64l.1.4m37.8,3.5v.4m0-.4v.2h-.2m-28.1-9.9h.2c.4,0,.3-.1.8-.1h.1l-.1.1h-.1M316.7,60h-3l-1.5.1-1.4.2m7.9-.6h-.2l-.1.1h-.2l-.6.1h-.2l-.3.1h-.4m7.8-1.8-1.5.3-1.5.3-1.4.4-1.4.5m2.8,4.9v.2l-.1.2-.1.1-.4.4-.2.2-.4.2a6,6,0,0,1-2.2.9l-1.1.3-1.2.3" style="fill: none;stroke: #999;stroke-linecap: round;stroke-linejoin: round;stroke-width: 0.36000001430511475px"/>
    <path d="M313.8,63.9l.6-.1c1.8-.3,4.7-.6,6.5.2l.2.1m-12.9,2.2.1-.2c1-1.2,3.1-1.6,4.5-2l1-.2m2,3.5-.7.1-.7.1a21.58,21.58,0,0,1-4.4.1l-.5-.1-.4-.1-.5-.2-.1-.1-.1-.1-.1-.1-.1-.1-.1-.1-.1-.1v-.1m43.5,1.5.1-.1.1-.1h.1v-.1M328,58.3h-.1m.7.6h.2m20.4,38.7h.2M328.1,58.9h.2m-.4-.6-.3.1h-.3m.7.6-.1-.7m-17.5,2,1.8-.4c3.6-.8,7.2-1.2,10.9-1.7l1.8-.2.4-.1h1.3l-.1.1h-.1l-1.9.4-1.8.4-1.7.5-1.8.5" style="fill: none;stroke: #999;stroke-linecap: round;stroke-linejoin: round;stroke-width: 0.36000001430511475px"/>
    <path d="M326.9,58.6l-.1-.3-.1-.1-.2-.2h-.2m-7.2,1.8-.6.2-.8.1-.9.2h-.6m3.5.1v-.2l-.1-.2-.2-.1h-.1v-.1h-.2m-2.9.5-.9-.1a50.68,50.68,0,0,0-5.5.3l-.9.2" style="fill: none;stroke: #999;stroke-linecap: round;stroke-linejoin: round;stroke-width: 0.36000001430511475px"/>
    <path d="M315.8,60.9v-.3l.1-.2.1-.1h.2m-7.3.4h-.1v-.1h.2l.2-.1.6-.1.6-.1m-1.8.9v-.3l.2-.2h.1m8.9,6.6-.7.2-.8.2c-2.5.4-6,.8-8.4,0l-.4-.1-.2-.2c-1.3-1.3,2.5-2.7,3.2-2.9l.7-.2.7-.2m5.9,3.2.1.2v.1l.2.3" style="fill: none;stroke: #999;stroke-linecap: round;stroke-linejoin: round;stroke-width: 0.36000001430511475px"/>
    <path d="M311.9,64l1.4-.4c2.8-.4,5.7-1,8.5-.1l.3.2.2.2c1.4,1.4-2.4,2.7-3.2,3l-.7.2-.7.2M311.8,64h.1m16.2-5.1H328V59m.6-.1h-.3m.6,0h-.1m.4,0h-.3m-1.7.2.3-.1h.5m-.8-.5H327l-.1.1-1.9.3-1.8.5-1.7.4-1.8.6m7.2-1v-.8m-11.1,2.3h.8l.6-.1.6-.1m-2,.2-.9-.1a24.49,24.49,0,0,0-5.4.3l-.9.1m7.2.7v-1m-7.2.3h-.3m.2,1,.1-1m9.5,6.7-.8.2-2.4.4" style="fill: none;stroke: #999;stroke-linecap: round;stroke-linejoin: round;stroke-width: 0.36000001430511475px"/>
    <path d="M323.3,65.1l-.1.2c-.2,1.1-3.3,2.2-4.1,2.3l-1,.3m5.1-2.9h.1v.1m41.5-3V63m.9-.9h-.9m1.3,0h-.3M350.9,61V60m-.9,0v.9m.9-.9H350m-30.3,1.3v-.9m-1.9.3v1.1m1.9-1.4h-.1l-.2.1-.3.1h-.2l-.6.1h-.5m-2.9,7.8-.8.1-.8.1a24.42,24.42,0,0,1-5.4-.2l-.2-.1-.2-.1-.1-.1-.2-.1L307,68l-.1-.1-.1-.1-.1-.1-.1-.1v-.1l-.1-.1v-.1m8.4,2.4V68.5m-.9-4.1v1.2m7.1-.5c-.3-1.4-4.9-1.1-5.8-.9l-1.3.2m6,1.6-.1-.1c-.9-.7-2.7-.6-3.7-.6l-.8.1-.5.1-.5.1-.5.1-.5.1-.9.2-.8.3-.4.1-.4.2-.3.1-.5.4-.2.2-.2.1-.1.2M132.3,56.3h-.1l-.1-.1H132l-.1-.1m0,0-.3.1M121.5,62a.8.8,0,0,0-.2.9l.1.1m10,5.8h.4M121.5,63l9.9,5.7m.2-12.5L121.5,62m10.7,6.5-.2.2-.2.1M96,65.2l.5-.1a5.73,5.73,0,0,0,4.6-5v-.5m-.2.1h.2" style="fill: none;stroke: #999;stroke-linecap: round;stroke-linejoin: round;stroke-width: 0.36000001430511475px"/>
    <path d="M100.9,59.7v.6a5.74,5.74,0,0,1-5.8,5l-.6-.1m.1-11.1.6-.1a5.58,5.58,0,0,1,5.7,5v.7" style="fill: none;stroke: #999;stroke-linecap: round;stroke-linejoin: round;stroke-width: 0.36000001430511475px"/>
    <path d="M94.4,54.1l.7-.1a5.45,5.45,0,0,1,5.8,5v.7m-11-.6h.3" style="fill: none;stroke: #999;stroke-linecap: round;stroke-linejoin: round;stroke-width: 0.36000001430511475px"/>
    <path d="M100.3,60.1v-.5c-.1-6.4-8.4-7.2-10.1-1.1l-.1.5m10.2,1.1h.5v.1m-6.9,4.9h.2m.2.1.5.1a5.64,5.64,0,0,0,5.9-4.4l.1-.6" style="fill: none;stroke: #999;stroke-linecap: round;stroke-linejoin: round;stroke-width: 0.36000001430511475px"/>
    <path d="M90.2,59.1l-.1.5c.2,6.4,8.5,7.2,10.1,1.1l.1-.5m.5,0v-.5m.3,0v-.5a5.33,5.33,0,0,0-4.3-5l-.5-.2" style="fill: none;stroke: #999;stroke-linecap: round;stroke-linejoin: round;stroke-width: 0.36000001430511475px"/>
    <path d="M89.3,60.6l.1.6a5.87,5.87,0,0,0,6.2,4.6l.5-.1" style="fill: none;stroke: #999;stroke-linecap: round;stroke-linejoin: round;stroke-width: 0.36000001430511475px"/>
    <path d="M96.4,65.6l-.5.1a5.93,5.93,0,0,1-6-4.7l-.1-.5m-.5,0h.4m13.1-4,.3.8.1.7.2.8v.9h.5v-.8m-.6-2.6-.1-.2m-.7-1.2-.2-.3m0,0v-.2m-.5-.5-.4-.5-.4-.3m-.8-.6-.3-.2m-.4-.2-.7-.4m-2.6-.5h-.9l-.5.1h-.4" style="fill: none;stroke: #999;stroke-linecap: round;stroke-linejoin: round;stroke-width: 0.36000001430511475px"/>
    <path d="M93.9,51.4l.7-.1a7.94,7.94,0,0,1,8,4.5l.2.7m47.6,10.1h.2m.2,0-.5-.1m-30.4,43.9-.3.2c-.3.1-.4.3-.8.1h-.2m.5.2.2.1m.1,0,.2-.1.3-.1.3-.1.2-.2-.5-.1m8.8-9h.6m0,.1h-.1m-.2.7h-.6" style="fill: none;stroke: #999;stroke-linecap: round;stroke-linejoin: round;stroke-width: 0.36000001430511475px"/>
    <path d="M90.9,52.6l.7-.4a8.14,8.14,0,0,1,10,1.1l.5.6m.3,11-.6.7a8.39,8.39,0,0,1-11.5.8l-.7-.7m29.5-1-.3-.2-.4-.3-.2-.5-.2-.4m.4-2.3.1-.2.4-.4.2-.1M160.8,67h-.3l-.2.1-.2.2-.2.3v.2m-1,6.4-.2.1a1.69,1.69,0,0,1-2.2-1.3v-.2m0-5v-.2l-.1-.1-.1-.2-.2-.2L156,67l-.2-.1h-2.6c-1.3-.2-3.3.6-4-1l-.1-.2-.1-.2m.3-.7.1-.2.1-.2a1.76,1.76,0,0,1,1.3-.6h2.5l2.5-.1h.3l.1-.1.1-.1.1-.1.1-.2.1-.1V63m.2-5.7.3-.3.3-.3M160,63l.1.1v.2l.1.1.1.1.1.1.3.1h5.6M166,67h-5.2m-56.9-7.8.2.1" style="fill: none;stroke: #999;stroke-linecap: round;stroke-linejoin: round;stroke-width: 0.36000001430511475px"/>
    <path d="M94.1,67.9l.4.1a8.59,8.59,0,0,0,9.4-7.9v-.4m0-.8-.2-1.3-.2-.7-.2-.6m-.1-.2-.3-.6-.4-.6m-.2-.5-.4-.4m-.9-.9-.4-.3-.4-.3m-.3-.2-.4-.2m-.7-.4-.7-.1-.6-.2-.6-.1-.7-.1m39.3,3.9-.1-.4m-.1-.6-.1-.2a2,2,0,0,0-2.1-1.1l-.4.1" style="fill: none;stroke: #999;stroke-linecap: round;stroke-linejoin: round;stroke-width: 0.36000001430511475px"/>
    <path d="M132,53.1l-.1-.1.2-.1a2.76,2.76,0,0,1,2.5.1l.3.2m-15.7,7.2,12.7-7.5M131.6,72l-12.5-7.3m12.6,7.1-.1.2m3.6-2.1v0l.1-.1m-.2,1.3-.2.2a2.66,2.66,0,0,1-3.1.8l-.2-.1m3.6-2.3.1-7.3.2-7.3m24.1,17.6V67.8h.2m0,4.9h-.2m0-4.9v-.2c.1-.5.5-.7,1-.9h.2V67m0-.3h4.9V67m.1-3.1v-.2m0,.2h-5v-.2m-.1.2h-.2l-.2-.1-.2-.2-.2-.3-.1-.2V63m0-.1.1-.1m-.1,0,.1-4.9V58m-.4-1.1-.3-.2-.2-.1-.3-.1h-.3M156,63.9h-.3v-.2m0,.2-2.4.1h-2.5v-.3m0,3.3v-.4h2.4l2.5.1V67m0-.3h.2m3.6,6.4v-.2l.1-.2m-56.2-13-.1.4A8.46,8.46,0,0,1,94.4,68l-.5-.1" style="fill: none;stroke: #999;stroke-linecap: round;stroke-linejoin: round;stroke-width: 0.36000001430511475px"/>
    <path d="M132,53.1l.3-.1h.2a2.08,2.08,0,0,1,1.3.3l.2.1.4.4.2.2.1.2.1.2.1.3V55l.1.3.5-.2m-.3,14.6-.5-.1v.2a2.28,2.28,0,0,1-2.6,2h-.2m3-16.5-.2,7.1-.1,7.2m25,3.1H159v-5l.6.1m1.2-1.1-.6-.1h5.1l.5.1m0-2.8-.5.1h-5l.5-.1m-1-1.1-.6.1.1-5h.6m-3.2,0h-.1m1-1.2.1-.1c.7,0,1.2.1,1.4.8l.1.2m.7.3-.1-.5-.2-.3-.1-.2m-1.1-.4h-.1l-.2.1m-1.5,3.2V61m-.9,2.9-.3.1-2.5.1h-2.6l.5-.1m-.8.1h.3m.5-.1h-.3m-.2,2.5,2.6.1h2.5l.3.1m3.2,6.3v.3l-.2.2m-.6.3-.1.1h-.6m.8.1h.2c.5-.1.8-.2,1-.7l.1-.2M102.8,56.5l-.4.1-.2.1.2.7c2.3,9-9.6,14.2-14.2,5.9l-.3-.7-.1.1-.1.1-.1.1m.3-.4-.2-.7c-2.2-9,9.5-14.3,14.2-5.9l.3.7" style="fill: none;stroke: #999;stroke-linecap: round;stroke-linejoin: round;stroke-width: 0.36000001430511475px"/>
    <path d="M131.6,53.3l.1.2.1.2.2-.1a1.68,1.68,0,0,1,2.3,1.4v.2l.2.1h.2l.2.1.1.1m-16,5,.1.2.1.2,12.6-7.2M119,64.5v-.2l.1-.2.1-.2-.2-.1a1.64,1.64,0,0,1,.1-2.7l.2-.1" style="fill: none;stroke: #999;stroke-linecap: round;stroke-linejoin: round;stroke-width: 0.36000001430511475px"/>
    <path d="M131.2,71.6l.1-.2.2-.3-12.4-7.2m15.5,5.7h-.2l-.2-.1H134l-.1.2a1.64,1.64,0,0,1-2.3,1.3l-.2-.1" style="fill: none;stroke: #999;stroke-linecap: round;stroke-linejoin: round;stroke-width: 0.36000001430511475px"/>
    <path d="M134.3,55.1l-.2,7.3v7.2M159,67.7l.1-.2c.3-.7.3-.7.9-.8l.2-.1m-1.7,6h.2l.1.1h.2m0-5-.4-.1-.1,5m7.3-5.9h.3l.3-.1.4-.3m.2-1.9-.2-.1m-1.2-.3.2.1.1.1.2.1.1.1m.1.1.2.1.1.3m-.5,1.4-.2.1-.2.2h-.4m-5-.7v.6l-.1.1m5.1,0v-.2l.1-.2V66h-2.5l-2.6-.1m-.5-2.8.1.2m.8.6h.1m-.5.1v.2l.1.1v.2h5v-.3l-.1-.2m-6-6.1h-.2l-.2-.1h-.2l-.1,5h.4l.1.1h.1m-2.6-5h.3l.2-.1h.2v-.1l.1-.1v-.2l.1-.1.4-.2h.4l.1.1.2.1v.1l.1.1v.3m.6.1-.1-.2m-2.3-.4h-.1" style="fill: none;stroke: #999;stroke-linecap: round;stroke-linejoin: round;stroke-width: 0.36000001430511475px"/>
    <path d="M156.6,62.9l.1-.1h.5l.1-5m-7,6.3h.1v.5h2.5l2.6-.1-.1-.2V64m-5.1,2.5.1-.2v-.4l-.1-.1H150l-.1-.1v-.1l-.2-.2v-.3l.2-.3.4-.2h.1m-.4,1.9h.3m5.1.1h.1m-.1,0v-.7h-5m6.8,1.7h-.6l-.1.1m0,5h.1v-.1h.5l.1-5m.9,6.2.3-.1.3-.2m.2-.5.1-.1v-.2" style="fill: none;stroke: #999;stroke-linecap: round;stroke-linejoin: round;stroke-width: 0.36000001430511475px"/>
    <path d="M158.5,72.6l-.1.1a.66.66,0,0,1-1.3,0v-.1m-54.4,40.9-.2.1-.3.1H89.5M87.8,97.3l.1-.3.5-.3.3-.2.6-.2h.3l.3-.1,11.5.1h.3l.8.2.3.1m-14.3-36-.1-.7.1-.7c.6-7.6,10.9-8.9,12.9-1.3l.1.7.1.6c.2,7.6-10,10-12.8,2.6l-.2-.6-.1-.6M131,69.3l-10-5.9-.1-.1-.2-.2-.1-.2-.1-.2v-.1l-.1-.2.1-.1v-.1l.1-.2.1-.1.1-.1.1-.1.1-.1.1-.1,10.2-5.9.2-.1.1-.1h.6l.3.1.3.3.1.2.1.2.1.1v.2l-.1,5.8-.1,5.9-.1.2a1,1,0,0,1-.8.9l-.2.1h-.3l-.5-.1m29.3-3.4-.3.1h-.4l-.3.2-.2.2-.2.3-.2.3-.1.3v.3m-3.1-3.1h.3a1.7,1.7,0,0,0,1.4-1.4l.1-.3m-.1,4.8-.1-.3V67l-.2-.3-.3-.3-.2-.2-.3-.2h-.3l-.4-.1m10-1.4.2.1a.71.71,0,0,1-.1,1.4h-.1m-6.8-3.2V63l.1.1v.3l.4.6.1.2h.2l.1.1.2.1.3.1h.4m5.7,1.8.2-.2.2-.2.1-.3.1-.3-.1-.2v-.2m-.3-.4-.1-.1m-.6-.4h-.3m-5,0h-.2" style="fill: none;stroke: #999;stroke-linecap: round;stroke-linejoin: round;stroke-width: 0.36000001430511475px"/>
    <path d="M159.5,63.7l-.3-.3V63m-3.7,3.6h.4m.6,25.3v-.2a1.62,1.62,0,0,1,2.2-1.3l.2.1M157.4,108l-.3-.3-.3-.4m-39,1.6.4-.6m0-12.4-.3-.3m0-1.6a1.6,1.6,0,0,1,2.3-.6l.3.2m14,17.5h-.2a2,2,0,0,1-1.3-.4l-.2-.1m-30,2.6.2-.2m-1.3.7v-.2h-.1m2.4-2.6-.1-5.9-.1-5.9h.2m-.2,0v-.2a2.56,2.56,0,0,0-2.3-2.3h-.2l.1-.1v-.2m-.1.3-11.5-.1h.1v-.3m.1,17.3.1.2m-.1-.2h11.6M89.3,60.6l-.3-.1-.2.1h-.3m13.1-2h-.3l-.1.1h-.1M89.3,60.5l-.1-.4A6.25,6.25,0,0,1,96,53.5l.4.1m25,8.4-.3-.4-.1-.2m0,2,.1-.2.1-.1V63h.1l-.1-.2-.1-.2v-.4l.1-.1.2-.1m9.6,7.3.1-.2.1-.2.1-.1-10-5.8m11.5,5.2h-.5l-.1.1m-.4.5-.2.1-.1-.1h-.2m1.6-12.3h-.4l-.1.1m-.2,11.5v.2m-1-12.8.2.4.1.2h.5M121.4,62l10.2-5.9m28.2,35.8h-.2m.3,14.8-.2-7.4-.1-7.4m-39.2,18.6,5.5-5.6.1.1.1.1-.4.3-.3.3m-4.8,5-.1-.2h-.1m5.5-5.6.3-.2.3-.1h.3m.5.4a1.11,1.11,0,0,0-1.1-.1l-.1.1m6.8,5.6-5.6-5.5m8.2,4.4v-.2l-.1-.3-.2-.3-.2-.1.1-.1.1-.1m-.2.2-5.6-5.6.1-.1.1-.2m-.6-.5V102l.2-.3v-.2m.1,0,.1-.1.2.1-.2.3-.1.1v.1m-.3.2v.2l.2.2v.2l.2.2" style="fill: none;stroke: #999;stroke-linecap: round;stroke-linejoin: round;stroke-width: 0.36000001430511475px"/>
    <path d="M129.3,101.4l5.6-5.6h.1l.2.1-5.6,5.6m3.2-7.9.2-.2a1.4,1.4,0,0,1,1.4-.2l.2.1m-1.7.4-.1-.1m-5.6,5.6,5.6-5.6M126,99.2a1.11,1.11,0,0,0,1.1.1l.1-.1" style="fill: none;stroke: #999;stroke-linecap: round;stroke-linejoin: round;stroke-width: 0.36000001430511475px"/>
    <path d="M126.4,99.7h-.2l-.1-.1-.3-.2.2-.2m-5.5-5.6,4.2,4.2m1,1.1.2.2.1.1m-.2.2-5.6-5.5.3-.3m3.3,7.9-5.6-5.6m5.6,6.8.1-.2v-.2m-.1-.6v-.2m-5.5,6.9,5.5-5.7m-3.6,8.3a1.64,1.64,0,0,1-1.9-.2l-.2-.2m-14.1.3-.5-.1v.7l-.3.6m-.1.3-.4.4c-.3.4-.6.4-1.1.5l-.2.1m-.3,0,.5.1h.3m.6-.2.3-.1m.2-.2.2-.1" style="fill: none;stroke: #999;stroke-linecap: round;stroke-linejoin: round;stroke-width: 0.36000001430511475px"/>
    <path d="M103.3,112.8l.3-.4.2-.2v-.3l.2-.2v-.8m-.2-11.8-.4.1V105l.1,5.8m-2.2-14.2-.5.1.3.1a2.46,2.46,0,0,1,2.2,2.3l.1.2M89.8,96.5l-.4.1h11.4m-12,.1.2-.1m1,16.9-.4-.1h-.5m12,0H89.6m.1-52.9v-.7a6,6,0,0,1,6.2-6.2l.6.1m34.8,15.1h.1M121.5,63h-.2m36.1,27.8.3-.1h.3l.2.1.5.4.1.1.1.3.1.3" style="fill: none;stroke: #999;stroke-linecap: round;stroke-linejoin: round;stroke-width: 0.36000001430511475px"/>
    <path d="M159,91.9h.6v-.1l-.1-.1v-.2l-.2-.2-.1-.3-.2-.1-.2-.2h-.2l-.3-.1M156.6,103v2.8m0,.9h.1m3.2,0h-.6v.1c-.2.7-.6,1.2-1.4,1.1h-.3m.5.2h.8l.1-.1.2-.1.3-.2" style="fill: none;stroke: #999;stroke-linecap: round;stroke-linejoin: round;stroke-width: 0.36000001430511475px"/>
    <path d="M159.5,107.7l.1-.2.2-.3v-.3l.1-.2m-.6,0-.2-7.4-.1-7.4m-39.1,18.5,5.5-5.7.5.2m8.2,6.1.3-.1.3-.1.3-.1.2-.2m.3-.7v-.3m-.5-.9h-.4l.1.2.2.5v.2m0,.4-.1.3-.2.2m-.2.2-.3.1m0,.1h-.8m1.3-2.2-5.8-5.6h.6m-.7-1.6,5.7-5.7.5.1m.4-1-.1-.2c-.1-.6-.4-.8-.9-1.1l-.2-.1m0,0h-.3l-.2.1m-.5.1h.7l.5.2.2.2.1.2.1.3.1.3-.1.5-.3.4m.5.1.2-.3.1-.2.1-.5m-9.5,4.6-.4.2-5.7-5.7h.5m-1.3-.3h.2l.2.1.3.1.1.1" style="fill: none;stroke: #999;stroke-linecap: round;stroke-linejoin: round;stroke-width: 0.36000001430511475px"/>
    <path d="M120.2,93.9l-.3-.2a1.2,1.2,0,0,0-.8-.2l-.2.1m-15.4,17.2-.2.1-.4.1-.1.2a1.65,1.65,0,0,1-1.5,1.7l-.4.1v.2l.1.1v.1h.4m1.7-1,.1-.3" style="fill: none;stroke: #999;stroke-linecap: round;stroke-linejoin: round;stroke-width: 0.36000001430511475px"/>
    <path d="M103.4,99.2h-.2l-.1.1h-.5l.1,5.8.2,5.9m-2.1-14.4-.1.2-.1.2v.2h.4a2,2,0,0,1,1.5,1.6l.1.4" style="fill: none;stroke: #999;stroke-linecap: round;stroke-linejoin: round;stroke-width: 0.36000001430511475px"/>
    <path d="M89.4,96.6l-.1.6,11.4.1" style="fill: none;stroke: #999;stroke-linecap: round;stroke-linejoin: round;stroke-width: 0.36000001430511475px"/>
    <path d="M87,99.1l.4.1v-.4A1.81,1.81,0,0,1,89,97.3l.4-.1m0-.6H89m-1.9,14.3.4.1-.2-11.8" style="fill: none;stroke: #999;stroke-linecap: round;stroke-linejoin: round;stroke-width: 0.36000001430511475px"/>
    <path d="M89.6,113.4l-.1-.3-.1-.1-.4-.1a2,2,0,0,1-1.6-1.6l-.1-.4m13.7,2-11.6.1m2.7-48.5v-.3m.1-9.2v-.2m-.8,9.1v-.3m.1-8v-.3m65,36.6.6.1v-.1l.1-.1c.2-.4.1-.2.5-.4h.2c.2,0,.5.2.5.4v.1l.1.1h.4l.1-.1v-.1" style="fill: none;stroke: #999;stroke-linecap: round;stroke-linejoin: round;stroke-width: 0.36000001430511475px"/>
    <path d="M156.6,106.7l.1.1h.6l-.1-7.4-.1-7.4m2.2,14.7-.2.1-.2.1h-.2v.3c-.3.3,0,.2-.6.4h-.2c-.2,0-.5-.2-.5-.4l-.1-.2v-.1M158.5,93l.2,13.8m-33.3-2.1-.3-.2-.1-.1-5.6,5.8.1.1.2.1h.2m7.5-6-.4.4m5.7,5.6h.2l.2-.2-5.7-5.8m7,6.2.2-.2m.3-.5v-.4m-.3-.9-.1.2-.2.2-.1.2.1.1c.5.6-.4,1.5-1,1l-.1-.1" style="fill: none;stroke: #999;stroke-linecap: round;stroke-linejoin: round;stroke-width: 0.36000001430511475px"/>
    <path d="M128.8,103h-.1v.2l-.2.1-.1.2,5.7,5.7m-5.8-8.1.3.2.1.1m5.7-5.7-.1-.1-.2-.1-.1-.2-5.7,5.8m4.3-7.2.1.1.1.2.2.1.1-.1a.74.74,0,0,1,1,1l-.1.1m-7.6,4.4h.3m-.4.2H126" style="fill: none;stroke: #999;stroke-linecap: round;stroke-linejoin: round;stroke-width: 0.36000001430511475px"/>
    <path d="M127,99.6l.1.2.3.3,5.7-5.8m-13.4-.4-.4.4L125,100l.3-.3v-.1h.1M118,95.7l.3-.3-.1-.1-.1-.1a.62.62,0,0,1,.1-.7l.1-.1.1-.1a.66.66,0,0,1,.6-.1l.2.1m-.5-.7h-.2" style="fill: none;stroke: #999;stroke-linecap: round;stroke-linejoin: round;stroke-width: 0.36000001430511475px"/>
    <path d="M123.6,101.4l.1-.2h.1l.2-.2-5.7-5.7m-.3,13.3.1.2.1.2.2.2,5.6-5.7-.3-.3-.1-.2m-4.2,7.2a.72.72,0,0,1-1.1-.9l.1-.1m-29.8,1.5v-.8m-.1-10.4v-.4l.3-.4.2-.2h.1l.2-.1h.3m10.5,0h.4c.8.2,1,.4,1.1,1.1l.1,5.6.1,5.6c-.1.6-.5,1.2-1.1,1.1h-.3m-10.7,0-.4-.1-.2-.1-.1-.2-.3-.3v-.3l-.1-.1m3.1-46.5v-.3m.1-8.6v-.2M158.5,93V92m-31.1,12.4-.3-.2-.3-.1-.3-.1-.3-.1h-.3l-.4.2-.2.1-.3.2m.4.3.2-.1.2-.1.2-.1h.4m1.9-3.3-.1.1a1.65,1.65,0,0,0-.1,2l.2.2M125,100l.2.2a1.65,1.65,0,0,0,1.9,0l.3-.2" style="fill: none;stroke: #999;stroke-linecap: round;stroke-linejoin: round;stroke-width: 0.36000001430511475px"/>
    <path d="M124,103.5l.1-.2.1-.1.1-.2.1-.1.1-.6-.1-.4v-.3l-.4-.6m4.4,1.2V102l.1-.3.2-.3m-2.1-1.5h-.3m-.3,0h-.2l-.1-.1-.3-.2m-35.7-.7-.1-.2v-.3m-1.1,1.1h.7v-.1l.1-.1.1-.2.2-.1v-.1h.1m-1.2.6.1,10.4" style="fill: none;stroke: #999;stroke-linecap: round;stroke-linejoin: round;stroke-width: 0.36000001430511475px"/>
    <path d="M88.6,110.7h.2l.3-.1h.2v-.1h.1l-.1-5.5-.1-5.6m.5,12.4v-.2l.1-.3v-.1l.1-.1h-.2l-.1-.1-.2-.2v-.3m11.2,1.3v-.2l.1-.3v-.2H89.9m-.2.7h10.6m1.4-1.1-.3-.1h-.1v-.1m.3-11h-.5v-.1m-.7-1v.2l.1.2v.1h.2m-.6-.5H89.6m.1.5h10.8m-10.8.7-.3-.1-.2-.1m.2,11.1h.4m0-.7-.1-10.2m11,11.5h.3m0-.1H90.4l-.2.1h-.3M100.8,99l-.3-.1m-10.8,0H90l.2.1h10.6M90.2,99H90l-.2.1-.1.2v.3m.1,10.2v.7l.1.1v.2l.1.1.2.1h.2m1.9-.3v.3m-.9-12v.4m.1,11.3v.3m.2-12v.4m.1,11.3v.3m.3-11.6V99m8.4.9h.2l.1-.1-.1.1h-.5m-10.1-.1h-.3m.1,10.4.3.1m-.1-10.5.1,10.5m10-10.4v-.3l.1-.2h.1m-10.2,0-.1.4m10.1.1-10.1-.1m10.3,10.5-.1-5.2-.1-5.2m.2,10.4.4-.1h.2m-.5.4-.1-.2v-.1m-10.2,0h10.2m-10.2,0v.2l.1.2m10.1-11.3-10.1-.1-.1.1m10.2,0H90.2M101,110.2l-.1-5.2-.1-5.2" style="fill: none;stroke: #999;stroke-linecap: round;stroke-linejoin: round;stroke-width: 0.36000001430511475px"/>
    <path d="M101,110.2l-.2-5.2V99.8M90.4,110.7h10.2m-10.3,0,10.2-.1m.3-10.8-.1-.3-.1-.1h-.2" style="fill: none;stroke: #999;stroke-linecap: round;stroke-linejoin: round;stroke-width: 0.36000001430511475px"/>
    <path d="M100.8,99.8l-.1-.3-.2-.1h-.1m.6.4h-.2m.2,10.4h.2l-.1-5.2-.1-5.2m0,10.4v.2l-.1.1-.1.1-.2.1" style="fill: none;stroke: #999;stroke-linecap: round;stroke-linejoin: round;stroke-width: 0.36000001430511475px"/>
    <path d="M100.5,110.6h.2l.1-.1.1-.1.1-.2m-.2.4h.2l.2-.2v-.2M101,99.8l-.2-.4h-.1m31.9-5.8-.4-.1.2-.2a2,2,0,0,1,3.1,1.3v.3m-12,7.8.1-.2.1-.2v-.2h-.5v.4l-.1.1-.1.1h.5m11.5,5.4.3.6.2.4v.4M87.2,61.2l.1.5a8.45,8.45,0,0,0,10,6.7l.5-.1" style="fill: none;stroke: #999;stroke-linecap: round;stroke-linejoin: round;stroke-width: 0.36000001430511475px"/>
    <path d="M104.1,59.7v.8c-1.6,10.8-16.2,10.9-17.5,0v-.8H87m79,3.9h-.4l-.3-.2h.2l.3.1.2.1.2.1m.9,1.4v.2M100.9,96h.3l.3.1a3.16,3.16,0,0,1,2.3,1.9l.1.2.1.3.1.4v.3l.1,11.6v.6l-.1.3-.2.6-.5.7m-1.3.8-.7.1m-.3,0-11.3-.1a3.17,3.17,0,0,1-3-3.4l-.1-.4m-.1-10.8.1-.3a2.88,2.88,0,0,1,2.9-2.8l11.3-.1m26,2.8,5.3-5.3m3.3,1.4v.3l-.2.4-.1.4-.3.2-5.3,5.4-.1.1-.1.1-.1.2v.4l.1.1.1.2.1.1,5.4,5.3m.5,1.4v.3l-.1.2a2,2,0,0,1-2.2,1.3l-.2-.1-.5-.2-.2-.2-5.4-5.3-.1-.1-.2-.1-.1-.1h-.4l-.2.1-.1.1-5.5,5.5v.1h-.1v.1h-.1l-.1.1-.1.1m.2-.3-.2.1m0,.1-.3.1h-.3m-.3,0h-.3l-.3-.1-.2-.1-.3-.2m-.2-.2a2.19,2.19,0,0,1-.2-2.2l.2-.2m.1-.2,5.2-5.4m.2-.6v-.3l-.1-.1-5.6-5.6m-.4-1.2v-.2a1.78,1.78,0,0,1,1-1.6l.3-.1m.2,0,.4-.1m1.3.5,5.5,5.6h.1l.2.1h.3l.2-.1h.1l.2-.2m33,7.8v.4a2,2,0,0,1-3.8,0l-.1-.4m-.1-14.5v-.2m0-.4.1-.2m.5-.7.2-.1m2.6.4.2.1m.3.9v.2M86.6,59.7v-.5c1.1-11.2,16.7-11.4,17.5,0v.5m31.2,10.4v.3a2.5,2.5,0,0,1-3.5,2l-.3-.1L125,68.5l-6.5-3.8a2.67,2.67,0,0,1-.2-4.3l.2-.2,13.3-7.6a2.88,2.88,0,0,1,1.6-.3l.4.1.6.2.2.2.5.5.2.2.2.6.1.4v.3m19.5,8.6h.2l.1-.1h.2l.3-.3v-.1l.1-.4.1-4.4.1-.4.1-.3.2-.3.1-.3m.3-.1.2-.2.3-.1.2-.1.3-.1m.1,0h.6m.3.2.3.1.3.3.3.6" style="fill: none;stroke: #999;stroke-linecap: round;stroke-linejoin: round;stroke-width: 0.36000001430511475px"/>
    <path d="M159.9,57.7v5.2l.1.1.1.2.1.1.2.1h4.9m.9.3.2.1a1.45,1.45,0,0,1,.7,1l.1.2m-.1.3v.4a1.93,1.93,0,0,1-1.9,1.5l-2.3.1h-2.3c-.5,0-.9.3-.8.8l-.1,4.5v.2m-.2.8-.2.2m-1.5.7-.3-.1h-.4l-.3-.2-.3-.3m-.1,0-.2-.3-.2-.3-.1-.4V67.8l-.2-.2v-.1l-.2-.1-.1-.1h-.2l-.1-.1-2.3.1h-2.2l-.4-.1-.4-.1m-.5-.3-.2-.1m0-.1-.4-.6-.1-.7.1-.4.1-.3.2-.4.2-.3m1.4-.5h4.5M101.9,96.2l-.3-.1h-.3l-.4-.1" style="fill: none;stroke: #999;stroke-linecap: round;stroke-linejoin: round;stroke-width: 0.36000001430511475px"/>
    <path d="M101.3,96.1l-11.4.1-.3-.1m.3.1h-.3a2.72,2.72,0,0,0-2,1.1l-.2.3M87,99.2h-.4m.5,11.6h-.3m-.1-.7v-5.4l-.1-5.5m1.8,13.9.3.2.4.2.2.1.3.1h.3l.3.1h-.4m.4,0h11.3l-.4.1m2.2-.9-.3.3m-.1.1-.4.2-.4.2m-.7.1h-.3m31.5-20.3L127.2,99l-.3-.2m-.6.3.2.1h.3l.2-.1.2-.1m-7.5-6h-.2m-1.4,3.1-.5.1m-.1-.1-.1-.2-.1-.2-.1-.2-.1-.3m0-.1v-.2m1.3-1.9h.2m.4-.1.3.1.7.2.3.2m-2.2,2.7,5.4,5.4H123m.7.6-.1-.3v-.1l-.1-.2m0,1.2-5.3,5.5-.4-.1m1.5,3.2H119m-1.1-.4-.2-.2m9.2-5.3.4-.1-.2-.1-.3-.1h-.5" style="fill: none;stroke: #999;stroke-linecap: round;stroke-linejoin: round;stroke-width: 0.36000001430511475px"/>
    <path d="M127.3,105.3l5.5,5.4-.5.1m.5-.1.2.2.3.2.4.1h.7m21.9-19.1.1,7.2.2,7.3h-.5l-.2-14.5h.4m.3,14.5.1.3a1.7,1.7,0,0,0,1.7,1.4h.4m1-16.2v7.2l.1,7.3m-1.4-16.3h-.7l-.3.1-.4.2-.3.2-.2.2-.3.8v.3m-.4-.2v-.2m.1-.4.1-.2.1-.2.3-.3m.2-.1.2-.2h.3l.3-.1.3-.1" style="fill: none;stroke: #999;stroke-linecap: round;stroke-linejoin: round;stroke-width: 0.36000001430511475px"/>
    <path d="M157.8,90.1l.2.1a1.28,1.28,0,0,1,1,.4l.3.3m.2.1.1.2v.3l.2.2v.2M98,51l-.7-.1a8.8,8.8,0,0,0-9.1,4.6l-.4.7m31,8.4,6.5,3.8,6.5,3.9h-.4m-13-7.6.4-.1m13,7.7.6.2.3.1h.6l.2-.1m2-17.6-.2,7.6v7.6m-1.5-17.6-.2-.1a2.23,2.23,0,0,0-1.4.3l-.4-.1m.4.2-6.7,3.7-6.7,3.9-.4-.1m.4.1-.3.2a2.46,2.46,0,0,0-.1,3.8l.3.2m39.7-8.3h-.1m-.6.2h-.2m-.3.3h-.1m-.4.8-.1.2m0,.3h-.5m.5-1.3.3-.1m1-.5h.1m.6,0,.1.1m0,0,.2.1m.9,1,.1.3m-3.3.4-.1,4.6-.5-.2m-.4,1h-2.3l-2.3-.1h-.4m4.5,0,.5.1m-4.6-.1h-.1m-.2.1-.4.1-.3.1m-.9,1.2v.8l.1.3.1.3m.2.3.3.2.3.2m.1,0,.3.2h.4l-.3.1m-.8-.2-.2-.1-.3-.2m-.5-.6-.1-.3m.5-2,.3-.2.4-.2.3-.1h.4m.3,3.8h4.2m.8.9.4-.1v-.2a.85.85,0,0,0-.7-.7h-.2m.9.9v4.6h-.4m.8,1.1.2.2.3.3.3.1.4.1m.4,0h.2m1.3-1.7V73l-.2.2v.2l-.1.2m-.2.2-.3.3a1.78,1.78,0,0,1-1,.4h-.2m-1.3-.6h-.1m4.6-6.8h4.6l-.4.1m-4.5,0,.3-.1m4.6,0,.3-.1m-.3-3.4-2.3-.1H161l-.3-.1m-59.2,50.4h.6M119.5,93h-.2m0,0-.3.1a1.77,1.77,0,0,0-1.1,2.8l.2.2m0,12.2-.2.3-.1.1-.1.3v.3m.2,1,.2.2.1.2.6.4.3.1.3.1m.1,0,.3-.1m38.9-54.8-.3-.1m-.1,0-.3.1-.3.1-.3.1-.2.2m-.1,0-.3.6-.1.2m-.1.2v.3m-1,5.4h.2c.5-.2.4-.2.7-.7v-.1m-5.6.7-.2.1m-.7.2-.4.3-.2.2-.1.2-.1.3-.1.2m.2,1.4.2.3m.6.4h.1m6.1,5.6.1.6.1.3.2.2m1.2.7h.4m2.4-7.2h.1l.2-.1" style="fill: none;stroke: #999;stroke-linecap: round;stroke-linejoin: round;stroke-width: 0.36000001430511475px"/>
    <path d="M161,63.5h-.2l-.1-.1M134.2,93.1l-.3-.1-.4.1h-.3l-.3.2-.3.3M132,68.7h-.1m.2-12.5h.1M89.9,59.1l.1-.5a5.52,5.52,0,0,1,3.9-4.3l.5-.1m-.1,11-.4-.1a5.39,5.39,0,0,1-4-5.5v-.5M96.1,54h.2m-2.2-2.6.3-.1m56,15.3-.4-.1m-31,44.4-.4-.1M94.1,67.9h-.2m38.2-14.8.5-.2m25.1,3.8.4-.1M150,64.1l.5-.1m7.3,10-.3-.1" style="fill: none;stroke: #999;stroke-linecap: round;stroke-linejoin: round;stroke-width: 0.36000001430511475px"/>
    <path d="M93.7,67.9l-.3-.1a8.27,8.27,0,0,1-5.5-4.3l-.4-.7-.2-.8a8.54,8.54,0,0,1,5.8-10.4l.8-.2m37.7,1.9.4-.2m-13,7.4,12.6-7.2M119,64.5l-.2-.2a2.25,2.25,0,0,1,0-3.6l.2-.2m12.2,11.1L119,64.5m12.8,7.3-.6-.2m25.4-13.7.2-.5.1-.2.2-.2.2-.2.3-.1m-1,6.2v-5M150,66.5l-.3-.1a1.18,1.18,0,0,1,0-2.1l.3-.1m6.5,8.5v-5m.9,6.1-.3-.1-.2-.1-.2-.3-.1-.1-.1-.3v-.2m-.7-8.7.2-.1.2-.2.2-.1.1-.3.1-.2v-.2m-.1,4.8v-.5l-.3-.3-.3-.3m-59.7-.9.5-.1a6.22,6.22,0,0,0,4.6-6.2l-.1-.6-.1-.6a5.72,5.72,0,0,0-4.2-4.4l-.4-.1m35.3,15.1h.1l.1-.1.1-.1.1-.2v-.1l.1-5.8.1-5.9-.2-.4-.1-.1H132M89,96.7l.3-.1m.2,16.9-.4-.1m68.4-22.7h.3m.3,17.4-.4-.1m-24,2.9-.4-.1m-.1-17.2.4-.1m-15.1.1.4-.1M87,99.1v-.7l.4-.7.3-.4.2-.2.3-.2.6-.2m-1.7,14.2L87,99.1m2.1,14.3-.4-.1a2.51,2.51,0,0,1-1.6-2.1V111m69.4-19.1v-.2l.1-.2.1-.2.2-.2.2-.2.3-.1m-.8,15.9-.1-14.8m1.1,16.1-.3-.2-.2-.2-.2-.2-.1-.2-.2-.5m-23.9,3.7-5.7-5.6m6.3,6-.3-.1-.3-.2m-.1-16.6.3-.2.2-.1m-6.1,6,5.6-5.7M118,95.7l-.2-.2-.1-.3-.1-.2v-.4l.1-.3.1-.2.2-.2.2-.2.3-.1m5.1,7.8L118,95.7m0,12.9,5.6-5.6m-5.1,7.8-.3-.2a1.4,1.4,0,0,1-.4-1.8l.1-.2m9.1-3.8-.2-.2-.2-.1m0-4.6.2-.2.2-.1m-3.4,3.4.2-.2.1-.2v-.9l-.3-.3m-22.8,9.7.2-.1h.1l.2-.2v-.3l-.2-11.1v-.1l-.1-.2-.2-.1-.1-.1M89.9,110.2l-.1-10.4v-.1l.1-.3h.2m.1,11.3-.2-.2-.1-.1v-.2m10.6-10.8h.2m25.6-.3L126,99m.1,6.3.2-.2m-8.6-11-.1.3m0,.9.1.4.1.2m39.7,12.2h.1M133.4,72.6l.1-.1m15.8-8.2-.2.6m11.3,2.4.3-.1m0-3.8h-.2m5.1.2h-1.1m-3.5-.1h-.1m82.9,29.3.8-1.3c3.2-6,3.3-11.8,0-17.9l-.8-1.4" style="fill: none;stroke: #999;stroke-linecap: round;stroke-linejoin: round;stroke-width: 0.36000001430511475px"/>
    <path d="M48.3,81.6v.3l-.1.1v.6c0,.5.1.3.1.7v1.1l.1,1.1V86a59.51,59.51,0,0,0,2.8,15.7l.4,1.1L52,104l.5,1.1c7.2,17.7,25.6,25.5,43.3,28.8l2,.4,2,.3,2.1.3,1,.2c29.3,3.6,60.6-.9,88.5-10.2l1.1-.4,1-.4c15.1-5.4,32.4-13.3,44.2-24.4l1.9-1.9.8-1M48.3,81.6V79.9c1.1-35,25.8-46.7,57-50.5L109,29l1.9-.2c27.6-2,57.4,2.8,83.4,12.1l3.5,1.3,3.5,1.3c13.4,5.5,32.5,14.9,41.4,27.1l.4.5.4.6.4.5M239.4,98c.6-.6,3.4-3.8,4.4-5.2" style="fill: none;stroke: #999;stroke-linecap: round;stroke-linejoin: round;stroke-width: 0.36000001430511475px"/>
    <path d="M135.1,71.1l.1-.2v-1" style="fill: none;stroke: #999;stroke-linecap: round;stroke-linejoin: round;stroke-width: 0.36000001430511475px"/>
    <path d="M308.2,66.3l-.1.1v.3" style="fill: none;stroke: #999;stroke-linecap: round;stroke-linejoin: round;stroke-width: 0.05999999865889549px"/>
  </g>
  <g id="Warstwa_3" data-name="Warstwa 3">
    <path d="M163.5,14.2h82.1" style="fill: none;stroke: #b2b2b2;stroke-linecap: round;stroke-linejoin: round;stroke-width: 0.5px"/>
    <path d="M247.6,14.3,238.7,12v4.4Z" style="fill: #999"/>
    <path d="M238.7,16.5V12l8.9,2.3Zm0-4.5v4.4l8.8-2.2Z" style="fill: #999"/>
    <path d="M127.8,14.4H51.3" style="fill: none;stroke: #b2b2b2;stroke-linecap: round;stroke-linejoin: round;stroke-width: 0.5px"/>
    <path d="M49.3,14.3l8.9,2.3V12.1Z" style="fill: #999"/>
    <path d="M58.2,12.1h0v4.5l-8.9-2.3Zm0,4.5V12.2l-8.8,2.2Z" style="fill: #999"/>
    <path d="M247.6,11V43M49.6,11V43M22.1,27.9H57.3M22.1,136H57.3M25.2,99.2v34.7" style="fill: none;stroke: #b2b2b2;stroke-linecap: round;stroke-linejoin: round;stroke-width: 0.5px"/>
    <path d="M25.1,135.9l2.3-8.9H22.9Z" style="fill: #999"/>
    <path d="M22.9,127h4.5l-2.3,8.9Zm4.5.1H23l2.2,8.8Z" style="fill: #999"/>
    <path d="M25.2,60.5V29.9" style="fill: none;stroke: #b2b2b2;stroke-linecap: round;stroke-linejoin: round;stroke-width: 0.5px"/>
    <path d="M25.2,27.9l-2.3,8.9h4.5Z" style="fill: #999"/>
    <path d="M27.4,36.8H22.9l2.3-8.9Zm-4.4,0h4.4L25.2,28Z" style="fill: #999"/>
    <path d="M424.3,88.5v16.4" style="fill: none;stroke: #b2b2b2;stroke-linecap: round;stroke-linejoin: round;stroke-width: 0.5px"/>
    <path d="M424.3,106.9l2.3-8.9h-4.5Z" style="fill: #999"/>
    <path d="M422.1,98h4.5l-2.3,8.9Zm4.5,0h-4.4l2.2,8.8,2.2-8.8Z" style="fill: #999"/>
    <path d="M424.3,75.1V59.8" style="fill: none;stroke: #b2b2b2;stroke-linecap: round;stroke-linejoin: round;stroke-width: 0.5px"/>
    <path d="M424.4,57.8l-2.3,8.9h4.5Z" style="fill: #999"/>
    <path d="M426.6,66.7h-4.5l2.3-8.9Zm-4.5,0h4.4l-2.2-8.8-2.2,8.8Z" style="fill: #999"/>
    <path d="M429,57.8H377.5M429,106.9H377.5" style="fill: none;stroke: #b2b2b2;stroke-miterlimit: 10;stroke-width: 0.5px"/>
  </g>
  <g>
    <path d="M131.62,17.35v-.59l.76-.74c1.83-1.74,2.65-2.66,2.67-3.74a1.28,1.28,0,0,0-1.42-1.4,2.41,2.41,0,0,0-1.52.61l-.31-.68a3.12,3.12,0,0,1,2-.73A2,2,0,0,1,136,12.16c0,1.32-.95,2.39-2.46,3.84l-.57.53v0h3.21v.8Z" style="fill: #b2b2b2"/>
    <path d="M137.34,16.78a.65.65,0,0,1,.66-.69.69.69,0,0,1,0,1.38A.65.65,0,0,1,137.34,16.78Z" style="fill: #b2b2b2"/>
    <path d="M144.19,10.2v.64l-3.12,6.51h-1l3.1-6.32v0h-3.49v-.8Z" style="fill: #b2b2b2"/>
    <path d="M149.27,10.88a3.27,3.27,0,0,0-.73,0,2.89,2.89,0,0,0-2.48,2.54h0A2.17,2.17,0,0,1,150,15a2.39,2.39,0,0,1-2.37,2.52c-1.53,0-2.53-1.18-2.53-3a4.5,4.5,0,0,1,1.21-3.23,3.88,3.88,0,0,1,2.28-1,4.12,4.12,0,0,1,.71-.06ZM149,15a1.45,1.45,0,0,0-1.47-1.64,1.6,1.6,0,0,0-1.39.88.88.88,0,0,0-.11.43c0,1.18.56,2.05,1.58,2.05C148.43,16.73,149,16,149,15Z" style="fill: #b2b2b2"/>
    <path d="M154.55,10.53a.6.6,0,1,1-1.2,0,.58.58,0,0,1,.6-.6A.57.57,0,0,1,154.55,10.53Zm-1.08,6.82V12h1v5.32Z" style="fill: #b2b2b2"/>
    <path d="M156,13.47c0-.55,0-1,0-1.44h.86l0,.88h0a2,2,0,0,1,1.76-1c.74,0,1.89.44,1.89,2.26v3.18h-1V14.28c0-.86-.32-1.57-1.23-1.57a1.37,1.37,0,0,0-1.3,1,1.25,1.25,0,0,0-.07.45v3.2h-1Z" style="fill: #b2b2b2"/>
  </g>
  <g>
    <path d="M15.42,77.2h0l-1.24.68L14,77.14l1.56-.84h.83v7.15h-.94Z" style="fill: #b2b2b2"/>
    <path d="M19,82.88a.65.65,0,0,1,.66-.69.69.69,0,1,1-.66.69Z" style="fill: #b2b2b2"/>
    <path d="M25.51,77.12H22.78L22.51,79a4,4,0,0,1,.58,0,3.06,3.06,0,0,1,1.54.38,2,2,0,0,1,1,1.84A2.48,2.48,0,0,1,23,83.57a3.49,3.49,0,0,1-1.78-.44l.24-.73a3.29,3.29,0,0,0,1.53.39,1.57,1.57,0,0,0,1.69-1.55c0-.92-.62-1.58-2.05-1.58a8,8,0,0,0-1,.07l.46-3.43h3.42Z" style="fill: #b2b2b2"/>
    <path d="M30.6,76.63a.57.57,0,0,1-.61.6.58.58,0,0,1-.59-.6A.59.59,0,0,1,30,76,.57.57,0,0,1,30.6,76.63Zm-1.08,6.82V78.13h1v5.32Z" style="fill: #b2b2b2"/>
    <path d="M32.1,79.57c0-.55,0-1-.05-1.44h.86L33,79h0a1.94,1.94,0,0,1,1.76-1c.74,0,1.88.44,1.88,2.26v3.18h-1V80.38c0-.85-.32-1.57-1.23-1.57a1.38,1.38,0,0,0-1.3,1,1.53,1.53,0,0,0-.06.45v3.2h-1Z" style="fill: #b2b2b2"/>
  </g>
  <g>
    <path d="M414.63,82.05c0,2.43-.91,3.77-2.49,3.77-1.4,0-2.34-1.31-2.37-3.67s1-3.72,2.49-3.72S414.63,79.77,414.63,82.05Zm-3.89.11c0,1.86.57,2.92,1.45,2.92s1.47-1.16,1.47-3-.45-2.91-1.45-2.91C411.36,79.18,410.74,80.21,410.74,82.16Z" style="fill: #b2b2b2"/>
    <path d="M415.59,85.13a.65.65,0,0,1,.66-.69.69.69,0,0,1,0,1.38A.65.65,0,0,1,415.59,85.13Z" style="fill: #b2b2b2"/>
    <path d="M421.88,79.23a3.23,3.23,0,0,0-.73,0,2.91,2.91,0,0,0-2.49,2.54h0a2.17,2.17,0,0,1,3.88,1.48,2.39,2.39,0,0,1-2.38,2.52c-1.53,0-2.53-1.19-2.53-3a4.54,4.54,0,0,1,1.21-3.23,3.93,3.93,0,0,1,2.29-1,4.12,4.12,0,0,1,.71-.06Zm-.28,4.13a1.45,1.45,0,0,0-1.47-1.64,1.58,1.58,0,0,0-1.39.88.78.78,0,0,0-.11.43c0,1.18.56,2,1.57,2C421,85.08,421.6,84.38,421.6,83.36Z" style="fill: #b2b2b2"/>
    <path d="M428.08,78.55v.64L425,85.7h-1l3.11-6.32v0h-3.5v-.8Z" style="fill: #b2b2b2"/>
    <path d="M432.8,78.88a.6.6,0,1,1-1.2,0,.58.58,0,0,1,.6-.6A.57.57,0,0,1,432.8,78.88Zm-1.08,6.82V80.38h1V85.7Z" style="fill: #b2b2b2"/>
    <path d="M434.29,81.82c0-.55,0-1,0-1.44h.86l.05.88h0a2,2,0,0,1,1.76-1c.74,0,1.89.44,1.89,2.26V85.7h-1V82.63c0-.86-.32-1.57-1.23-1.57a1.37,1.37,0,0,0-1.3,1,1.25,1.25,0,0,0-.07.45v3.2h-1Z" style="fill: #b2b2b2"/>
  </g>
</svg>
