<?xml version="1.0" encoding="utf-8"?>
<!-- Generator: Adobe Illustrator 21.0.0, SVG Export Plug-In . SVG Version: 6.00 Build 0)  -->
<svg version="1.1" id="Warstwa_1" xmlns="http://www.w3.org/2000/svg" xmlns:xlink="http://www.w3.org/1999/xlink" x="0px" y="0px"
	 viewBox="0 0 70 70" style="enable-background:new 0 0 70 70;" xml:space="preserve">
<style type="text/css">
	.st0{stroke:#0090FF;stroke-width:0.6;stroke-miterlimit:10;}
	.st1{fill:none;stroke:#0090FF;stroke-miterlimit:10;}
</style>
<path class="st0" d="M35,19.9c-0.9,1.2-7.8,10.6-7.8,14.5c0,4.3,3.5,7.8,7.8,7.8c4.3,0,7.8-3.5,7.8-7.8C42.8,30.4,35.9,21,35,19.9z
	 M35,41.7c-4,0-7.3-3.3-7.3-7.3c0-1.5,1-4,3.1-7.4c1.6-2.7,3.4-5.2,4.1-6.1l0.1-0.1l0.1,0.1c0.7,0.9,2.5,3.4,4.1,6.1
	c2.1,3.4,3.1,5.9,3.1,7.4C42.3,38.4,39,41.7,35,41.7z"/>
<line class="st1" x1="19.6" y1="35" x2="24.3" y2="35"/>
<line class="st1" x1="45.6" y1="35.2" x2="50.4" y2="35.2"/>
<line class="st1" x1="21.7" y1="26" x2="25.8" y2="28.4"/>
<line class="st1" x1="44.1" y1="28.4" x2="48.3" y2="26"/>
<line class="st1" x1="35" y1="45.3" x2="35" y2="50.1"/>
<line class="st1" x1="40.3" y1="43.9" x2="42.7" y2="48.1"/>
<line class="st1" x1="44.1" y1="40.1" x2="48.3" y2="42.5"/>
<line class="st1" x1="21.7" y1="42.5" x2="25.8" y2="40.1"/>
<line class="st1" x1="27.3" y1="48.1" x2="29.7" y2="43.9"/>
</svg>
