<svg width="31" height="40" viewBox="0 0 31 40" xmlns="http://www.w3.org/2000/svg"><title>apple</title><g fill="#FFF" fill-rule="evenodd"><path d="M25.92 21.654c.041-3.046 1.597-5.858 4.124-7.455-1.605-2.352-4.196-3.79-6.992-3.88-2.989-.322-5.783 1.81-7.292 1.81-1.509 0-3.84-1.78-6.32-1.718-3.268.11-6.24 1.974-7.829 4.908-3.391 6.012-.866 14.862 2.391 19.725 1.629 2.377 3.526 5.046 5.976 4.954 2.45-.092 3.332-1.534 6.26-1.534 2.929 0 3.75 1.534 6.29 1.534s4.244-2.393 5.813-4.801A19.897 19.897 0 0 0 31 29.645c-3.111-1.365-5.116-4.518-5.08-7.991zM20.884 6.36A8.832 8.832 0 0 0 22.937 0a9.13 9.13 0 0 0-5.893 3.016 8.4 8.4 0 0 0-2.1 6.126 7.547 7.547 0 0 0 5.94-2.783z"/></g></svg>