<svg width="36" height="42" viewBox="0 0 36 42" xmlns="http://www.w3.org/2000/svg"><title>android</title><path d="M5 16.58v10.84C5 28.845 3.88 30 2.5 30S0 28.845 0 27.42V16.58C0 15.155 1.12 14 2.5 14S5 15.155 5 16.58zm31 0c0-1.425-1.12-2.58-2.5-2.58S31 15.155 31 16.58v10.84c0 1.425 1.12 2.58 2.5 2.58s2.5-1.155 2.5-2.58V16.58zM6.008 13a8.545 8.545 0 0 1 .288-2.601c.746-2.796 2.849-5.155 5.69-6.555L10.144.607a.401.401 0 0 1 .174-.557.444.444 0 0 1 .585.165l1.866 3.275a13.777 13.777 0 0 1 5.254-1.022c1.87 0 3.64.362 5.218 1.008L25.098.215a.443.443 0 0 1 .585-.165c.21.108.288.357.174.557l-1.834 3.22c2.982 1.457 5.155 3.968 5.813 6.932.075.336.13.676.164 1.022V13H6.008zM22 8a1 1 0 1 0 2 0 1 1 0 0 0-2 0zM12 8a1 1 0 1 0 2 0 1 1 0 0 0-2 0zm-5.868 6H6v16.95c0 1.415 1.194 2.572 2.652 2.572h2.287v5.908c0 1.42 1.187 2.57 2.652 2.57 1.464 0 2.65-1.15 2.652-2.57v-5.908h3.572v5.908c0 1.42 1.189 2.57 2.653 2.57s2.65-1.15 2.652-2.57v-5.908h2.228c1.458 0 2.652-1.157 2.652-2.571V14H6.132z" fill="#FFF" fill-rule="evenodd"/></svg>