<svg width="51" height="52" viewBox="0 0 51 52" xmlns="http://www.w3.org/2000/svg"><title>mic</title><g fill="#FFF" fill-rule="evenodd"><path d="M25.352 50.317C11.805 50.317.785 39.274.785 25.701c0-13.574 11.02-24.618 24.567-24.618 13.546 0 24.566 11.044 24.566 24.618 0 13.573-11.02 24.616-24.566 24.616m0-50.02C11.372.297 0 11.693 0 25.701c0 14.007 11.373 25.402 25.352 25.402 13.978 0 25.351-11.395 25.351-25.402C50.703 11.693 39.33.297 25.352.297"/><path d="M33.176 27.454c0 4.084-3.443 7.406-7.676 7.406-4.233 0-7.676-3.322-7.676-7.406V21H16v6.454c0 4.757 3.777 8.677 8.588 9.121v4.665h-4.104V43h10.032v-1.76h-4.104v-4.665C31.224 36.131 35 32.211 35 27.454V21h-1.824v6.454z"/><path d="M25.5 32c3.038 0 5.5-2.284 5.5-5.102V14.102C31 11.284 28.538 9 25.5 9S20 11.284 20 14.102v12.796C20 29.716 22.462 32 25.5 32"/></g></svg>