<svg id="Layer_1" data-name="Layer 1" xmlns="http://www.w3.org/2000/svg" width="136.64" height="176.07" viewBox="0 0 136.64 176.07">
  <title>Artboard 1</title>
  <line x1="45.57" y1="175.8" x2="68.27" y2="175.8" style="fill: none;stroke: #000;stroke-linecap: round;stroke-linejoin: round;stroke-width: 0.5400000214576721px"/>
  <polyline points="0.27 111.5 0.27 109.7 0.37 107.8 0.67 104.2" style="fill: none;stroke: #000;stroke-linecap: round;stroke-linejoin: round;stroke-width: 0.5400000214576721px"/>
  <line x1="97.27" y1="80.7" x2="97.27" y2="80.7" style="fill: none;stroke: #000;stroke-linecap: round;stroke-linejoin: round;stroke-width: 0.5400000214576721px"/>
  <path d="M.27,111.8l.1,1.6a68,68,0,0,0,44.1,62l1.2.4" style="fill: none;stroke: #000;stroke-linecap: round;stroke-linejoin: round;stroke-width: 0.5400000214576721px"/>
  <line x1="136.37" y1="111.8" x2="136.37" y2="111.5" style="fill: none;stroke: #000;stroke-linecap: round;stroke-linejoin: round;stroke-width: 0.5400000214576721px"/>
  <path d="M130.57,92.7l-.4-1.2c-7.6-27-32.7-46.1-60.7-46.6h-1.2" style="fill: none;stroke: #000;stroke-linecap: round;stroke-linejoin: round;stroke-width: 0.5400000214576721px"/>
  <line x1="107.37" y1="121" x2="107.37" y2="121" style="fill: none;stroke: #000;stroke-linecap: round;stroke-linejoin: round;stroke-width: 0.5400000214576721px"/>
  <line x1="38.87" y1="137.7" x2="38.77" y2="137.7" style="fill: none;stroke: #000;stroke-linecap: round;stroke-linejoin: round;stroke-width: 0.5400000214576721px"/>
  <line x1="97.47" y1="80.9" x2="97.47" y2="80.9" style="fill: none;stroke: #000;stroke-linecap: round;stroke-linejoin: round;stroke-width: 0.5400000214576721px"/>
  <path d="M5.87,92.4l.3-1.1a64.67,64.67,0,0,1,60.9-46.4h1.2" style="fill: none;stroke: #000;stroke-linecap: round;stroke-linejoin: round;stroke-width: 0.5400000214576721px"/>
  <path d="M68.27,175.8H91a68.21,68.21,0,0,0,45.4-62.5v-1.6" style="fill: none;stroke: #000;stroke-linecap: round;stroke-linejoin: round;stroke-width: 0.5400000214576721px"/>
  <path d="M136.37,111.5v-1.8c-.3-6.6-.9-11.2-5.2-16.4l-.5-.6" style="fill: none;stroke: #000;stroke-linecap: round;stroke-linejoin: round;stroke-width: 0.5400000214576721px"/>
  <line x1="0.27" y1="111.5" x2="0.27" y2="111.8" style="fill: none;stroke: #000;stroke-linecap: round;stroke-linejoin: round;stroke-width: 0.5400000214576721px"/>
  <path d="M76.47,149.4l1.8-.4,1.8-.5.9-.3a40.84,40.84,0,0,0,27.9-43.4l-.2-1.9-.3-1.7A41,41,0,0,0,62.77,69l-.9.1-1.8.3-1.8.4-1.8.5A41,41,0,0,0,27.57,113l.1,1,.2,1.8A40.84,40.84,0,0,0,72.77,150l1.8-.2,1.9-.4" style="fill: none;stroke: #000;stroke-linecap: round;stroke-linejoin: round;stroke-width: 0.5400000214576721px"/>
  <line x1="107.27" y1="121.5" x2="107.17" y2="121.6" style="fill: none;stroke: #000;stroke-linecap: round;stroke-linejoin: round;stroke-width: 0.5400000214576721px"/>
  <line x1="38.97" y1="137.9" x2="38.97" y2="137.7" style="fill: none;stroke: #000;stroke-linecap: round;stroke-linejoin: round;stroke-width: 0.5400000214576721px"/>
  <path d="M68.27,169.4H66l-2.3-.1a60.49,60.49,0,0,1-47.1-26.6l-1-1.4-1-1.5c-7.9-12.8-12.3-29.6-9.5-44.6l.3-1.3.4-1.3" style="fill: none;stroke: #000;stroke-linecap: round;stroke-linejoin: round;stroke-width: 0.5400000214576721px"/>
  <path d="M130.67,92.4l.4,1.3.2,1.3c3,14.8-1.6,32-9.4,44.6l-1,1.5-1,1.4a60.24,60.24,0,0,1-47.1,26.6l-2.3.1h-2.3" style="fill: none;stroke: #000;stroke-linecap: round;stroke-linejoin: round;stroke-width: 0.5400000214576721px"/>
  <path d="M.67,104.2l.1-.7a21.11,21.11,0,0,1,4.4-9.9l.5-.6" style="fill: none;stroke: #000;stroke-linecap: round;stroke-linejoin: round;stroke-width: 0.5400000214576721px"/>
  <polygon points="0.77 10.7 9.27 12.8 9.27 8.6 0.77 10.7" style="fill: #696969"/>
  <polygon points="0.77 10.7 9.27 12.8 9.27 8.6 0.77 10.7" style="fill: none;stroke: #696969;stroke-linecap: round;stroke-linejoin: round;stroke-width: 0.05999999865889549px"/>
  <polygon points="135.87 10.7 127.37 8.6 127.37 12.8 135.87 10.7" style="fill: #696969"/>
  <polygon points="135.87 10.7 127.37 8.6 127.37 12.8 135.87 10.7" style="fill: none;stroke: #696969;stroke-linecap: round;stroke-linejoin: round;stroke-width: 0.05999999865889549px"/>
  <line x1="0.67" y1="102.8" x2="0.67" y2="7.8" style="fill: none;stroke: #696969;stroke-linecap: round;stroke-linejoin: round;stroke-width: 0.05999999865889549px"/>
  <line x1="135.87" y1="102.8" x2="135.87" y2="7.8" style="fill: none;stroke: #696969;stroke-linecap: round;stroke-linejoin: round;stroke-width: 0.05999999865889549px"/>
  <line x1="0.67" y1="10.7" x2="135.87" y2="10.7" style="fill: none;stroke: #696969;stroke-linecap: round;stroke-linejoin: round;stroke-width: 0.05999999865889549px"/>
  <g>
    <path d="M57.53,8.46h-.77v-5q0-.62,0-1.17l-.22.21-1.13.93L55,2.91l1.84-1.42h.67Z" style="fill: #696969"/>
    <path d="M60.43,8a.7.7,0,0,1,.15-.49A.5.5,0,0,1,61,7.31a.54.54,0,0,1,.43.16.66.66,0,0,1,.16.49.64.64,0,0,1-.16.47.62.62,0,0,1-.83,0A.64.64,0,0,1,60.43,8Z" style="fill: #696969"/>
    <path d="M65.09,1.39a2.38,2.38,0,0,1,1.51.44,1.47,1.47,0,0,1,.56,1.23,1.57,1.57,0,0,1-.32.94,2.78,2.78,0,0,1-1,.77A3.39,3.39,0,0,1,67,5.62a1.6,1.6,0,0,1,.36,1A1.76,1.76,0,0,1,66.78,8a2.5,2.5,0,0,1-1.66.52,2.71,2.71,0,0,1-1.72-.49,1.7,1.7,0,0,1-.6-1.39,2.06,2.06,0,0,1,1.46-1.86A2.66,2.66,0,0,1,63.32,4a1.62,1.62,0,0,1-.29-1,1.48,1.48,0,0,1,.56-1.21A2.31,2.31,0,0,1,65.09,1.39ZM63.58,6.7a1.09,1.09,0,0,0,.4.89,2.08,2.08,0,0,0,2.23,0,1.14,1.14,0,0,0,.39-.92,1.1,1.1,0,0,0-.37-.82,3.88,3.88,0,0,0-1.3-.7,3,3,0,0,0-1,.68A1.31,1.31,0,0,0,63.58,6.7ZM65.08,2a1.38,1.38,0,0,0-.93.29.93.93,0,0,0-.34.76,1.08,1.08,0,0,0,.28.75,2.92,2.92,0,0,0,1,.63,2.52,2.52,0,0,0,1-.61,1.15,1.15,0,0,0,.29-.77A1,1,0,0,0,66,2.31,1.51,1.51,0,0,0,65.08,2Z" style="fill: #696969"/>
    <path d="M70.68,1.39a2.4,2.4,0,0,1,1.51.44,1.5,1.5,0,0,1,.56,1.23,1.57,1.57,0,0,1-.32.94,3,3,0,0,1-1,.77,3.34,3.34,0,0,1,1.2.85,1.6,1.6,0,0,1,.36,1A1.75,1.75,0,0,1,72.37,8a2.52,2.52,0,0,1-1.66.52A2.69,2.69,0,0,1,69,8.07a1.7,1.7,0,0,1-.6-1.39,2,2,0,0,1,1.46-1.86A2.71,2.71,0,0,1,68.9,4a1.69,1.69,0,0,1-.28-1,1.45,1.45,0,0,1,.56-1.21A2.31,2.31,0,0,1,70.68,1.39ZM69.17,6.7a1.06,1.06,0,0,0,.4.89,1.7,1.7,0,0,0,1.12.32,1.66,1.66,0,0,0,1.1-.33,1.12,1.12,0,0,0,.4-.92,1.1,1.1,0,0,0-.37-.82,3.88,3.88,0,0,0-1.3-.7,2.87,2.87,0,0,0-1,.68A1.31,1.31,0,0,0,69.17,6.7ZM70.67,2a1.43,1.43,0,0,0-.94.29,1,1,0,0,0-.34.76,1.12,1.12,0,0,0,.28.75,3,3,0,0,0,1,.63,2.57,2.57,0,0,0,1-.61A1.14,1.14,0,0,0,72,3.08a1,1,0,0,0-.34-.77A1.51,1.51,0,0,0,70.67,2Z" style="fill: #696969"/>
    <path d="M76.79,1.82a.52.52,0,0,1,.13-.4.48.48,0,0,1,.66,0,.5.5,0,0,1,.14.4.48.48,0,0,1-.14.39.46.46,0,0,1-.66,0A.51.51,0,0,1,76.79,1.82Zm.86,6.64h-.8V3.23h.8Z" style="fill: #696969"/>
    <path d="M82.9,8.46V5.08a1.32,1.32,0,0,0-.29-1,1.17,1.17,0,0,0-.91-.32,1.51,1.51,0,0,0-1.2.44,2.29,2.29,0,0,0-.38,1.47V8.46h-.79V3.23H80L80.1,4h0a1.59,1.59,0,0,1,.68-.6,2.24,2.24,0,0,1,1-.21,2,2,0,0,1,1.42.45,1.94,1.94,0,0,1,.48,1.46V8.46Z" style="fill: #696969"/>
  </g>
</svg>
