<?xml version="1.0" encoding="utf-8"?>
<!-- Generator: Adobe Illustrator 21.0.0, SVG Export Plug-In . SVG Version: 6.00 Build 0)  -->
<svg version="1.1" id="Warstwa_1" xmlns="http://www.w3.org/2000/svg" xmlns:xlink="http://www.w3.org/1999/xlink" x="0px" y="0px"
	 viewBox="0 0 45.7 48.2" style="enable-background:new 0 0 45.7 48.2;" xml:space="preserve">
<style type="text/css">
	.st0{fill:#FFFFFF;}
</style>
<g>
	<g>
		<g>
			<path class="st0" d="M28.5,17.8c-0.3,0-0.6-0.3-0.6-0.6c0-3-2.4-5.4-5.4-5.4c-0.3,0-0.6-0.3-0.6-0.6s0.3-0.6,0.6-0.6
				c3,0,5.4-2.4,5.4-5.4c0-0.3,0.3-0.6,0.6-0.6s0.6,0.3,0.6,0.6c0,3,2.4,5.4,5.4,5.4c0.3,0,0.6,0.3,0.6,0.6s-0.3,0.6-0.6,0.6
				c-3,0-5.4,2.4-5.4,5.4C29.1,17.5,28.8,17.8,28.5,17.8z M25.2,11.1c1.4,0.7,2.6,1.8,3.3,3.3c0.7-1.4,1.8-2.6,3.3-3.3
				c-1.4-0.7-2.6-1.8-3.3-3.3C27.8,9.3,26.6,10.5,25.2,11.1z"/>
			<path class="st0" d="M36.8,25.8c-0.3,0-0.6-0.3-0.6-0.6c0-0.8-0.6-1.4-1.4-1.4c-0.3,0-0.6-0.3-0.6-0.6s0.3-0.6,0.6-0.6
				c0.8,0,1.4-0.6,1.4-1.4c0-0.3,0.3-0.6,0.6-0.6s0.6,0.3,0.6,0.6c0,0.8,0.6,1.4,1.4,1.4c0.3,0,0.6,0.3,0.6,0.6s-0.3,0.6-0.6,0.6
				c-0.8,0-1.4,0.6-1.4,1.4C37.4,25.5,37.2,25.8,36.8,25.8z M36.5,23.1c0.1,0.1,0.3,0.2,0.4,0.4c0.1-0.1,0.2-0.3,0.4-0.4
				c-0.1-0.1-0.3-0.2-0.4-0.4C36.7,22.9,36.6,23,36.5,23.1z"/>
			<path class="st0" d="M37.9,7.6c-0.3,0-0.6-0.3-0.6-0.6c0-1.4-1.2-2.6-2.6-2.6c-0.3,0-0.6-0.3-0.6-0.6s0.3-0.6,0.6-0.6
				c1.4,0,2.6-1.2,2.6-2.6c0-0.3,0.3-0.6,0.6-0.6s0.6,0.3,0.6,0.6c0,1.4,1.2,2.6,2.6,2.6c0.3,0,0.6,0.3,0.6,0.6s-0.3,0.6-0.6,0.6
				c-1.4,0-2.6,1.2-2.6,2.6C38.5,7.3,38.2,7.6,37.9,7.6z M36.7,3.8c0.5,0.3,0.9,0.7,1.2,1.2c0.3-0.5,0.7-0.9,1.2-1.2
				c-0.5-0.3-0.9-0.7-1.2-1.2C37.6,3.1,37.2,3.5,36.7,3.8z"/>
		</g>
		<path class="st0" d="M23.3,48.2C10.5,48.2,0,37.7,0,24.9C0,14.6,6.9,5.4,16.7,2.5c0.3-0.1,0.6,0,0.7,0.3s0.1,0.6-0.2,0.7
			c-4.8,3.7-7.5,9.3-7.5,15.3c0,10.7,8.7,19.5,19.5,19.5c6,0,11.6-2.7,15.3-7.5c0.2-0.2,0.5-0.3,0.7-0.2c0.3,0.1,0.4,0.4,0.3,0.7
			C42.8,41.3,33.6,48.2,23.3,48.2z M14.2,4.8c-7.8,3.5-13,11.4-13,20.2C1.2,37.1,11.1,47,23.3,47c8.7,0,16.6-5.2,20.2-13
			c-3.8,3.6-8.8,5.6-14.2,5.6c-11.4,0-20.7-9.3-20.7-20.7C8.6,13.6,10.6,8.6,14.2,4.8z"/>
	</g>
</g>
</svg>
