<svg id="Warstwa_1" xmlns="http://www.w3.org/2000/svg" viewBox="0 0 64.2 65.2"><style>.st0{fill:#518ebb}</style><title>replay</title><path class="st0" d="M32.7 65.2c14.6.1 27.4-9.6 31.4-23.6.3-1.1-.3-2.2-1.4-2.5s-2.2.3-2.5 1.4c-1.3 4.7-3.8 9-7.3 12.4-11.2 11.2-29.4 11.1-40.5-.1s-11.1-29.4.1-40.5C17.9 7 25.1 4 32.7 4s14.9 3 20.2 8.4c1 1.1 2 2.2 2.9 3.4l-9.3-.1c-1.1 0-2 .9-2 2s.9 2 2 2l16.2.1.7-16.3c.1-1.1-.8-2-1.9-2.1s-2 .8-2.1 1.9l-.5 10.1c-1-1.3-2.1-2.6-3.2-3.8C42.8-3.1 22.1-2.9 9.5 10c-12.4 12.7-12.4 33 0 45.7 6.2 6.1 14.5 9.5 23.2 9.5z"/></svg>