<?xml version="1.0" encoding="utf-8"?>
<!-- Generator: Adobe Illustrator 23.0.3, SVG Export Plug-In . SVG Version: 6.00 Build 0)  -->
<svg version="1.1" id="Warstwa_1" xmlns="http://www.w3.org/2000/svg" xmlns:xlink="http://www.w3.org/1999/xlink" x="0px" y="0px"
	 viewBox="0 0 64.2 65.2" style="enable-background:new 0 0 64.2 65.2;" xml:space="preserve">
<style type="text/css">
	.st0{fill:#0477D0;}
</style>
<title>replay</title>
<path class="st0" d="M32.7,65.2c14.6,0.1,27.4-9.6,31.4-23.6c0.3-1.1-0.3-2.2-1.4-2.5s-2.2,0.3-2.5,1.4c-1.3,4.7-3.8,9-7.3,12.4
	C41.7,64.1,23.5,64,12.4,52.8C1.2,41.6,1.3,23.4,12.5,12.3c5.4-5.3,12.6-8.3,20.2-8.3c7.6,0,14.9,3,20.2,8.4c1,1.1,2,2.2,2.9,3.4
	l-9.3-0.1l0,0c-1.1,0-2,0.9-2,2s0.9,2,2,2l16.2,0.1l0.7-16.3c0.1-1.1-0.8-2-1.9-2.1s-2,0.8-2.1,1.9l-0.5,10.1
	c-1-1.3-2.1-2.6-3.2-3.8C42.8-3.1,22.1-2.9,9.5,10c-12.4,12.7-12.4,33,0,45.7C15.7,61.8,24,65.2,32.7,65.2z"/>
</svg>
