<?xml version="1.0" encoding="utf-8"?>
<!-- Generator: Adobe Illustrator 23.0.3, SVG Export Plug-In . SVG Version: 6.00 Build 0)  -->
<svg version="1.1" id="Layer_1" xmlns="http://www.w3.org/2000/svg" xmlns:xlink="http://www.w3.org/1999/xlink" x="0px" y="0px"
	 viewBox="0 0 18.7 61" style="enable-background:new 0 0 18.7 61;" xml:space="preserve">
<style type="text/css">
	.st0{fill:none;}
	.st1{fill:#444444;}
</style>
<title>Artboard 1</title>
<line class="st0" x1="9.5" y1="0.5" x2="0.5" y2="11.5"/>
<path class="st1" d="M0.5,12c-0.1,0-0.2,0-0.3-0.1c-0.2-0.2-0.2-0.5-0.1-0.7l9-11C9.3,0,9.6-0.1,9.8,0.1c0.2,0.2,0.2,0.5,0.1,0.7
	l-9,11C0.8,11.9,0.7,12,0.5,12z"/>
<line class="st0" x1="18.2" y1="11.5" x2="9.5" y2="0.5"/>
<path class="st1" d="M18.2,12c-0.2,0-0.3-0.1-0.4-0.2l-8.7-11c-0.2-0.2-0.2-0.5,0-0.7c0.2-0.2,0.5-0.2,0.7,0c0,0,0,0,0.1,0.1l8.7,11
	c0.2,0.2,0.1,0.5-0.1,0.7c0,0,0,0,0,0C18.5,12,18.4,12,18.2,12z"/>
<line class="st0" x1="9.2" y1="60.5" x2="18.2" y2="49.5"/>
<path class="st1" d="M9.2,61c-0.1,0-0.2,0-0.3-0.1c-0.2-0.2-0.2-0.5-0.1-0.7c0,0,0,0,0,0l9-11c0.2-0.2,0.5-0.2,0.7-0.1
	c0.2,0.2,0.2,0.5,0.1,0.7l-9,11C9.5,60.9,9.4,61,9.2,61z"/>
<line class="st0" x1="0.5" y1="49.5" x2="9.2" y2="60.5"/>
<path class="st1" d="M9.2,61c-0.2,0-0.3-0.1-0.4-0.2l-8.7-11c-0.2-0.2-0.1-0.5,0.1-0.7c0,0,0,0,0,0c0.2-0.2,0.5-0.1,0.7,0.1l8.7,11
	c0.2,0.2,0.1,0.5-0.1,0.7c0,0,0,0,0,0C9.5,61,9.4,61,9.2,61z"/>
</svg>
