<svg id="Layer_1" data-name="Layer 1" xmlns="http://www.w3.org/2000/svg" width="18.74" height="61" viewBox="0 0 18.74 61"><defs><style>.cls-1{fill:#0090ff;}</style></defs><title>Artboard 1</title><line class="cls-1" x1="9.5" y1="0.5" x2="0.5" y2="11.5"/><path class="cls-1" d="M.5,12a.56.56,0,0,1-.32-.11.52.52,0,0,1-.07-.71l9-11A.52.52,0,0,1,9.82.11a.52.52,0,0,1,.07.71l-9,11A.51.51,0,0,1,.5,12Z"/><line class="cls-1" x1="18.24" y1="11.5" x2="9.5" y2="0.5"/><path class="cls-1" d="M18.24,12a.49.49,0,0,1-.39-.19L9.11.81A.5.5,0,1,1,9.89.19l8.74,11a.49.49,0,0,1-.08.7A.51.51,0,0,1,18.24,12Z"/><line class="cls-1" x1="9.24" y1="60.5" x2="18.24" y2="49.5"/><path class="cls-1" d="M9.24,61a.51.51,0,0,1-.31-.11.5.5,0,0,1-.07-.71l9-11a.5.5,0,0,1,.7-.07.52.52,0,0,1,.07.71l-9,11A.5.5,0,0,1,9.24,61Z"/><line class="cls-1" x1="0.5" y1="49.5" x2="9.24" y2="60.5"/><path class="cls-1" d="M9.24,61a.49.49,0,0,1-.39-.19l-8.74-11a.49.49,0,0,1,.08-.7.5.5,0,0,1,.7.08l8.74,11a.49.49,0,0,1-.08.7A.51.51,0,0,1,9.24,61Z"/></svg>