<svg id="Layer_1" data-name="Layer 1" xmlns="http://www.w3.org/2000/svg" width="18.74" height="61" viewBox="0 0 18.74 61"><defs><style>.cls-1{fill:#0090ff}</style></defs><title>Artboard 1</title><path class="cls-1" d="M9.5.5l-9 11M.5 12a.56.56 0 0 1-.32-.11.52.52 0 0 1-.07-.71l9-11a.52.52 0 0 1 .71-.07.52.52 0 0 1 .07.71l-9 11A.51.51 0 0 1 .5 12zM18.24 11.5L9.5.5"/><path class="cls-1" d="M18.24 12a.49.49 0 0 1-.39-.19L9.11.81a.5.5 0 1 1 .78-.62l8.74 11a.49.49 0 0 1-.08.7.51.51 0 0 1-.31.11zM9.24 60.5l9-11M9.24 61a.51.51 0 0 1-.31-.11.5.5 0 0 1-.07-.71l9-11a.5.5 0 0 1 .7-.07.52.52 0 0 1 .07.71l-9 11a.5.5 0 0 1-.39.18zM.5 49.5l8.74 11"/><path class="cls-1" d="M9.24 61a.49.49 0 0 1-.39-.19l-8.74-11a.49.49 0 0 1 .08-.7.5.5 0 0 1 .7.08l8.74 11a.49.49 0 0 1-.08.7.51.51 0 0 1-.31.11z"/></svg>