<?xml version="1.0" encoding="utf-8"?>
<!-- Generator: Adobe Illustrator 21.0.0, SVG Export Plug-In . SVG Version: 6.00 Build 0)  -->
<svg version="1.1" id="Warstwa_1" xmlns="http://www.w3.org/2000/svg" xmlns:xlink="http://www.w3.org/1999/xlink" x="0px" y="0px"
	 viewBox="0 0 100 127" style="enable-background:new 0 0 100 127;" xml:space="preserve">
<style type="text/css">
	.st0{fill:#0090FF;}
	.st1{display:none;fill:#0090FF;}
	.st2{display:none;}
	.st3{display:inline;fill:#0090FF;}
</style>
<g>
	<path class="st0" d="M72.4,123.9C72.4,123.9,72.4,123.9,72.4,123.9l-10.6-3.8c-0.1,0-0.1,0-0.2,0h-7.4c-0.1,0-0.2,0.1-0.3,0.1
		c-0.1,0.1-0.1,0.2-0.1,0.3v4.3c0,0.6,0.2,1.1,0.6,1.5c0.4,0.4,0.9,0.6,1.5,0.6h15.6c0.8,0,1.4-0.5,1.6-1.2
		C73.4,125,73.1,124.3,72.4,123.9z M72.3,125.5c-0.1,0.2-0.3,0.5-0.7,0.5H56c-0.7,0-1.2-0.6-1.2-1.2V121h6.8l10.4,3.8
		C72.3,125,72.4,125.3,72.3,125.5z"/>
</g>
<g>
	<path class="st1" d="M57.5,24.5H43.2c-2.9,0-5.2,2.3-5.2,5.2v37.2h24.7V29.7C62.7,26.8,60.4,24.5,57.5,24.5z"/>
	<path class="st0" d="M61.5,25.7c-1.1-1.1-2.5-1.7-4-1.7H43.2c-3.1,0-5.7,2.5-5.7,5.7v37.2c0,0.1,0.1,0.2,0.1,0.3
		c0.1,0.1,0.2,0.1,0.3,0.1h24.7c0.3,0,0.5-0.2,0.5-0.5V29.7C63.1,28.2,62.6,26.8,61.5,25.7z M38.5,66.5V29.7c0-2.6,2.1-4.8,4.8-4.8
		h14.2c1.3,0,2.5,0.5,3.4,1.4c0.9,0.9,1.4,2.1,1.4,3.4v36.7H38.5z"/>
</g>
<g>
	<g>
		<path class="st0" d="M38.2,62.7c-0.1-0.1-0.2-0.1-0.3-0.1l-6,0.1c-0.1,0-0.2,0.1-0.3,0.2c-0.1,0.1-0.1,0.2-0.1,0.3
			c0,0,0.2,3.9,0.2,5.6c0,0.7,0.3,1.3,0.7,1.8c0.5,0.5,1.1,0.7,1.8,0.7l0,0h1.5c1.5,0,2.7-1.2,2.7-2.7V63
			C38.3,62.9,38.3,62.7,38.2,62.7z M36.9,69.8c-0.3,0.3-0.8,0.5-1.2,0.5h-1.5c-0.4,0-0.8-0.2-1.1-0.5c-0.3-0.3-0.5-0.7-0.5-1.1
			c0-1.4-0.1-4.1-0.2-5.2l5-0.1v5.1C37.4,69,37.2,69.4,36.9,69.8z"/>
	</g>
</g>
<g>
	<path class="st1" d="M35,28.7L23.9,44.3c-1.2,1.7-1.1,3.7-0.2,5.2L30.1,63h7.7l-6.9-15.8L39,36l8.2-11.5h-4
		C39.9,24.5,36.9,26.1,35,28.7z"/>
	<path class="st0" d="M47.2,24h-4c-3.4,0-6.6,1.6-8.5,4.4L23.5,44c-1.2,1.7-1.3,3.9-0.2,5.7l6.4,13.5c0.1,0.2,0.2,0.3,0.4,0.3h7.7
		c0.2,0,0.3-0.1,0.4-0.2s0.1-0.3,0-0.4l-6.8-15.5l6.9-9.6c0.2-0.2,0.1-0.5-0.1-0.6c-0.2-0.2-0.5-0.1-0.6,0.1l-7,9.9
		c-0.1,0.1-0.1,0.3-0.1,0.5l6.6,15.1h-6.8l-6.3-13.2c0,0,0,0,0-0.1c-0.9-1.5-0.8-3.3,0.2-4.7l11.1-15.6c1.8-2.5,4.7-4,7.8-4h4
		c0.3,0,0.5-0.2,0.5-0.5C47.6,24.2,47.4,24,47.2,24z"/>
</g>
<g>
	<g>
		<path class="st0" d="M68.2,62.6l-6-0.1l0,0c-0.1,0-0.2,0.1-0.3,0.1c-0.1,0.1-0.1,0.2-0.1,0.3v5.6c0,0.7,0.3,1.4,0.8,1.9
			c0.5,0.5,1.2,0.8,1.9,0.8l0,0h1.5c1.4,0,2.5-1.1,2.5-2.5c0-1.7,0.2-5.6,0.2-5.6c0-0.1,0-0.2-0.1-0.3
			C68.4,62.7,68.3,62.6,68.2,62.6z M67.5,68.7c0,0.9-0.7,1.6-1.6,1.6h-1.5c-0.5,0-0.9-0.2-1.2-0.5c-0.3-0.3-0.5-0.8-0.5-1.2v-5.1
			l5,0.1C67.6,64.6,67.5,67.3,67.5,68.7z"/>
	</g>
</g>
<g>
	<path class="st1" d="M65,28.7c-1.9-2.6-4.9-4.2-8.1-4.2h-4L61.8,37l7.3,10.2L62.2,63h7.7l6.4-13.5c0.9-1.5,1-3.5-0.2-5.2L65,28.7z"
		/>
	<path class="st0" d="M65.4,28.4c-2-2.7-5.1-4.4-8.5-4.4h-4c-0.3,0-0.5,0.2-0.5,0.5c0,0.3,0.2,0.5,0.5,0.5h4c3.1,0,6,1.5,7.8,4
		l11.1,15.6c1,1.4,1.1,3.2,0.2,4.7c0,0,0,0,0,0.1l-6.3,13.2h-6.8l6.6-15.1c0.1-0.2,0.1-0.3-0.1-0.5l-6.4-9c-0.2-0.2-0.4-0.3-0.6-0.1
		c-0.2,0.2-0.3,0.4-0.1,0.6l6.2,8.8l-6.8,15.5c-0.1,0.1-0.1,0.3,0,0.4c0.1,0.1,0.2,0.2,0.4,0.2h7.7c0.2,0,0.3-0.1,0.4-0.3l6.4-13.5
		c1.1-1.8,1-4-0.2-5.7L65.4,28.4z"/>
</g>
<g>
	<g class="st2">
		<path class="st3" d="M44.7,12.4c-0.8,0-1.5,0.7-1.5,1.5l0,0c0,0.8,0.7,1.5,1.5,1.5h0.5v-2.9H44.7z"/>
		<path class="st3" d="M45.2,14.9h-0.5c-0.6,0-1-0.5-1-1s0.5-1,1-1h0.5c0.3,0,0.5-0.2,0.5-0.5c0-0.3-0.2-0.5-0.5-0.5h-0.5
			c-1.1,0-1.9,0.9-1.9,1.9s0.9,1.9,1.9,1.9h0.5c0.3,0,0.5-0.2,0.5-0.5C45.7,15.1,45.5,14.9,45.2,14.9z"/>
	</g>
	<path class="st0" d="M52.8,11.3c-0.1-0.2-0.3-0.4-0.6-0.3c-0.2,0.1-0.4,0.3-0.3,0.6l1.2,3.5c0.1,0.2,0,0.4-0.1,0.5h-0.6
		c-0.3,0-0.5,0.2-0.5,0.5c0,0.3,0.2,0.5,0.5,0.5H53c0.3,0,0.6-0.2,0.8-0.4c0.2-0.3,0.3-0.8,0.2-1.3L52.8,11.3z"/>
	<path class="st0" d="M50.2,10.8h-0.6c-0.3,0-0.5,0.2-0.5,0.5c0,0.3,0.2,0.5,0.5,0.5h0.6c0.3,0,0.5-0.2,0.5-0.5
		C50.6,11,50.4,10.8,50.2,10.8z"/>
	<path class="st0" d="M55,10.8h-0.6c-0.3,0-0.5,0.2-0.5,0.5c0,0.3,0.2,0.5,0.5,0.5H55c0.3,0,0.5-0.2,0.5-0.5
		C55.5,11,55.3,10.8,55,10.8z"/>
</g>
<path class="st0" d="M52.6,17.8c-0.3,0.1-0.6,0.2-1,0.2c-0.5,0-0.9-0.1-1.3-0.3c-0.2-0.1-0.5,0-0.6,0.2c-0.1,0.2,0,0.5,0.2,0.6
	c0.5,0.3,1.1,0.4,1.7,0.4c0.5,0,0.9-0.1,1.3-0.2c0.2-0.1,0.4-0.3,0.3-0.6C53.2,17.8,52.9,17.7,52.6,17.8z"/>
<path class="st0" d="M58,8.5c0-1.4-0.6-2.7-1.7-3.5c-0.2,0.2-0.5,0.4-0.7,0.6c0.1,0.1,0.3,0.2,0.4,0.3C56.7,6.6,57,7.5,57,8.5v6.4
	c0,1.7-0.7,3.3-1.9,4.5c-1.2,1.2-2.8,1.9-4.5,1.9c-1.7,0-3.3-0.7-4.5-1.9c-1.2-1.2-1.9-2.8-1.9-4.5v-4.4c0-0.2-0.2-0.5-0.5-0.5
	c0,0.2,0,0.3,0,0.5l-0.2-0.4c-0.1,0.1-0.2,0.2-0.2,0.4v4.4c0,2,0.8,3.8,2.1,5.2c1.4,1.4,3.2,2.1,5.2,2.1c2,0,3.8-0.8,5.2-2.1
	c1.4-1.4,2.1-3.2,2.1-5.2L58,8.5z"/>
<path class="st0" d="M53,21.3V24h-5.5v-3.1c-0.3-0.2-0.6-0.3-0.9-0.6v4.1c0,0.3,0.2,0.5,0.5,0.5h6.4c0.1,0,0.2-0.1,0.3-0.1
	c0.1-0.1,0.1-0.2,0.1-0.3v-3.6C53.6,21.1,53.3,21.2,53,21.3z"/>
<g>
	<path class="st0" d="M44.4,17.7L44.4,17.7c-0.8,0-1.4-0.5-1.6-1.2l-1-4c0,0,0,0,0-0.1c-0.6-1.7-0.6-3.5-0.1-5.3l-0.3-0.5
		c0.8-3.5,4.8-6.3,8.1-6.3h3.5C52.3,0.2,51.4,0,50.4,0h0h-0.1l0,0h0c-0.1,0-0.1,0-0.2,0c-3.2,0.1-6.1,1.8-8,4.4
		C40.4,7,40,10,41,12.7l1,3.9c0.3,1.1,1.3,1.9,2.5,1.9H45C44.7,18.3,44.6,18,44.4,17.7z"/>
	<path class="st0" d="M56.4,18.6h0.1c0.2,0,0.4-0.2,0.5-0.4l0.1-0.9C56.9,17.7,56.7,18.2,56.4,18.6z"/>
	<path class="st0" d="M57,4.1c-0.2,0.3-0.4,0.6-0.6,0.9c0.1,0.3,0.2,0.6,0.3,0.9c0.6,0.7,0.9,1.6,0.9,2.7v4.9L58,9.6c0,0,0,0,0-0.1
		C57.9,7.4,57.6,5.6,57,4.1z"/>
</g>
<path class="st0" d="M57.8,0h-8.1c-3.4,0-7.8,2.7-8.6,6.6c-0.1,0.2,0.1,0.5,0.3,0.5c0.2,0.1,0.5-0.1,0.5-0.3
	c0.7-3.4,4.6-5.9,7.7-5.9h7.7c0,0.8-0.2,2.4-1.3,3.6c-1,1.1-2.5,1.6-4.4,1.6h-3.2c-1.2,0-2.4,0.4-3.4,1.1c-1.1,0.8-1.7,2-1.6,3.2
	c0,0.2,0.2,0.4,0.5,0.4h0c0.3,0,0.5-0.2,0.4-0.5c-0.1-1,0.4-1.8,1.3-2.4c0.8-0.6,1.8-0.9,2.8-0.9h3.2c2.3,0,4-0.6,5.1-1.9
	c1.8-2,1.5-4.6,1.5-4.7C58.2,0.2,58,0,57.8,0z"/>
<g>
	<polygon class="st1" points="38,120.5 45.7,120.5 49.4,66.9 38,66.9 	"/>
	<path class="st0" d="M49.4,66.5H38c-0.3,0-0.5,0.2-0.5,0.5v53.6c0,0.1,0.1,0.2,0.1,0.3c0.1,0.1,0.2,0.1,0.3,0.1h7.7
		c0.2,0,0.5-0.2,0.5-0.4L49.8,67c0-0.1,0-0.2-0.1-0.3C49.6,66.5,49.5,66.5,49.4,66.5z M45.7,120.5L45.7,120.5L45.7,120.5z
		 M45.2,120.1h-6.8V67.4h10.4L45.2,120.1z"/>
</g>
<g>
	<g>
		<polygon class="st1" points="50.6,66.9 54.3,120.5 62,120.5 62,66.9 		"/>
		<path class="st0" d="M62.3,66.6c-0.1-0.1-0.2-0.1-0.3-0.1H50.6c-0.1,0-0.2,0.1-0.3,0.1c-0.1,0.1-0.1,0.2-0.1,0.3l3.8,53.6
			c0,0.2,0.2,0.4,0.5,0.4H62c0.3,0,0.5-0.2,0.5-0.5V66.9C62.5,66.8,62.4,66.7,62.3,66.6z M54.8,120.1l-3.7-52.7h10.4v52.7H54.8z"/>
	</g>
</g>
<g>
	<path class="st1" d="M55.9,124.3l-10.5-3.8H38v4.3c0,0.9,0.8,1.7,1.7,1.7h15.6C56.5,126.5,56.9,124.9,55.9,124.3z"/>
	<path class="st0" d="M56,126.5c-0.5,0-0.9-0.2-1.2-0.5H39.7c-0.7,0-1.2-0.6-1.2-1.2V121h6.8l9,3.3v-1l-8.8-3.2c-0.1,0-0.1,0-0.2,0
		H38c-0.1,0-0.2,0.1-0.3,0.1s-0.1,0.2-0.1,0.3v4.3c0,1.2,1,2.2,2.2,2.2h15.6c0.4,0,0.8-0.2,1.1-0.5L56,126.5z"/>
</g>
</svg>
