<?xml version="1.0" encoding="utf-8"?>
<!-- Generator: Adobe Illustrator 21.0.0, SVG Export Plug-In . SVG Version: 6.00 Build 0)  -->
<svg version="1.1" id="DOG_ICON" xmlns="http://www.w3.org/2000/svg" xmlns:xlink="http://www.w3.org/1999/xlink" x="0px" y="0px"
	 viewBox="0 0 100 127" style="enable-background:new 0 0 100 127;" xml:space="preserve">
<style type="text/css">
	.st0{fill:#0090FF;}
</style>
<path class="st0" d="M29.2,120.7c0,1.6,0.4,3.3,1.2,5.1c0,0.1,0.1,0.1,0.1,0.2c0.1,0.3,0.2,0.6,0.6,0.9c0.1,0.1,0.3,0.1,0.8,0.1
	c0.1,0,0.1,0,0.1,0h2.4c0,0,0.1,0,0.2,0c0.5,0,0.9-0.1,1.1-0.5c0.2-0.4,0.1-1-0.4-1.4c-0.3-0.2-0.6-0.4-0.9-0.5
	c-0.2,0-0.4-0.1-0.6-0.1c0,0,0-0.1,0-0.1c0,0,0-0.1,0-0.2c0-0.3-0.1-0.7-0.1-1c0-2.7,1.6-5.2,4.1-6.3c0.1,0,0.3,0,0.4,0
	c2.3,0.7,4.7,1.1,7.2,1.1h0.1c2.4,0,4.1-0.2,6-0.7c0,0.5,0,0.9,0,1.4c0,2.6,0.9,5.3,2.4,7.5c0.2,0.2,0.4,0.5,0.7,0.6
	c0.1,0,0.3,0.1,0.9,0.1c0.1,0,0.1,0,0.1,0h2.1c0,0,0,0,0.1,0c0.4,0,0.6-0.1,0.8-0.4c0.3-0.5,0.2-0.9-0.3-1.4
	c-0.3-0.2-0.7-0.4-1.1-0.5c-0.2,0-0.4-0.1-0.6-0.1c0,0-0.1,0-0.1,0h0c0,0,0-0.1,0-0.1c-0.4-1-0.6-2-0.6-3c0-2.4,0.4-4.1,1.2-5.7
	c1-0.3,2-0.9,2.8-1.7c0.5-0.5,0.9-1.2,1.2-1.9c0.2-0.4,0.3-0.8,0.4-1.2c0.1-0.4,0.1-0.9,0.1-1.3c0-0.1,0-0.2,0-0.4
	c0-0.4,0-0.8,0-0.8c0-1.9,1.5-3.4,3.4-3.4c0.3,0,0.5,0,0.9,0.1l0.2,0c0,0,0.8,0.1,1.2,0.1c1.4,0,2.6-0.9,3-2.2
	c0.1-0.2,0.1-0.5,0.1-0.7v-0.2c0.2-0.5,0.6-1.8,0-2.5c-0.2-0.2-0.5-0.3-0.8-0.3c-0.2,0-0.4,0-0.5,0.1c0,0,0,0-0.1,0
	c-0.2-0.1-0.3-0.2-0.5-0.3c0,0-0.1-0.1-0.2-0.1c-0.2-0.2-0.3-0.3-0.4-0.5c0-0.2-0.1-0.4-0.2-0.7c-0.7-1.9-2.5-3.1-4.6-3.3
	c-0.2,0-0.5,0-0.6,0c-0.1,0-0.3,0-0.4,0c-0.2-0.1-0.3-0.2-0.5-0.4c-0.1-0.1-0.1-0.1-0.2-0.2c-0.9-0.9-2.1-1.5-3.4-1.8l-0.5,0
	l-0.1,0.5c-0.1,0.4-0.1,0.9-0.1,1.3c0,0.8,0.1,1.5,0.4,2.3c0,0.1,0.1,0.2,0.1,0.3c0,0.1,0.1,0.2,0.1,0.3c0,0,0,0,0,0.1
	c0,0.1,0,0.2,0,0.3c0,0.2-0.1,0.4-0.2,0.7l0,0.1c-0.1,0.3-0.2,0.7-0.2,1c0,0.1,0,0.2-0.1,0.4c-0.2,0.9-0.8,1.8-1.9,2.6l-0.1,0.1
	c-0.1,0-0.1,0.1-0.2,0.1c-0.2,0.1-0.4,0.2-0.6,0.4c-0.3,0.2-1,0.5-1.2,0.6c-0.7,0.1-1.4,0.5-2,0.8c-0.1,0.1-0.2,0.1-0.3,0.2
	c-0.5,0.3-1.2,0.4-1.8,0.6c-0.2,0-0.3,0.1-0.5,0.1c-2.8,0.7-5.8,0.9-8.8,0.4c-2.1-0.3-4.2-0.9-6.1-1.8c-0.1,0-0.1-0.1-0.2-0.1
	c-0.2-0.1-0.4-0.2-0.6-0.2c0,0-0.1,0-0.2,0c-0.7,0-1.1,0.7-1.1,1.3c0,0.1,0,0.3,0.1,0.5c0.1,0.2,0.3,0.3,0.4,0.4
	c0,0,0.1,0.1,0.1,0.1c0.4,0.4,0.8,0.8,1.3,1.1l0,0c0,0-0.1,0.1-0.1,0.1c-1.1,1.1-1.7,2.6-1.7,4.2c0,0.2,0,0.3,0,0.5
	c0,0.4,0.1,0.8,0.2,1.1c0,0.1,0.1,0.3,0.1,0.4c0.1,0.3,0.1,0.6,0.1,1v0.1c0,1.4-0.8,2.7-2.1,3.4c-0.1,0-0.1,0.1-0.2,0.1
	c-0.2,0-0.4,0.1-0.7,0.4c-0.2,0.3-0.4,0.6-0.4,1.1S29.2,120.2,29.2,120.7z M30.2,120.7c0-0.4,0-0.9,0-1.3c0-0.2,0.1-0.4,0.2-0.5
	c0.1-0.1,0.1-0.1,0.3-0.2c0.1,0,0.2-0.1,0.3-0.1c1.6-0.8,2.6-2.5,2.6-4.3c0,0,0,0,0-0.1v0c0-0.4-0.1-0.8-0.2-1.2l0,0
	c0-0.1-0.1-0.2-0.1-0.3c-0.1-0.3-0.1-0.6-0.2-0.9c0-0.1,0-0.3,0-0.4c0-1.3,0.5-2.5,1.4-3.5c0,0,0.1,0,0.1-0.1
	c0.1-0.1,0.4-0.3,0.4-0.8c0-0.4-0.2-0.6-0.4-0.7l0,0c-0.4-0.3-0.8-0.7-1.2-1c0,0-0.1-0.1-0.2-0.1c-0.1-0.1-0.1-0.1-0.2-0.2
	c0,0,0,0,0,0c0-0.1,0.1-0.3,0.1-0.3c0.1,0,0.2,0.1,0.3,0.1c0.1,0,0.2,0.1,0.3,0.1c2,0.9,4.2,1.5,6.4,1.8c3.1,0.4,6.2,0.3,9.2-0.5
	c0.1,0,0.3-0.1,0.5-0.1c0.7-0.2,1.4-0.3,2.1-0.7c0.1-0.1,0.2-0.1,0.4-0.2c0.6-0.3,1.1-0.6,1.8-0.7c0.2,0,1.4-0.7,1.4-0.7
	c0.2-0.1,0.5-0.3,0.6-0.4c0.1,0,0.1-0.1,0.2-0.1l0,0c0,0,0,0,0.1,0c1.3-1,2-2,2.3-3.2c0-0.1,0-0.3,0.1-0.4c0-0.2,0.1-0.4,0.1-0.6
	c0.1,0.2,0.2,0.4,0.4,0.6c0.1,0.1,0.2,0.2,0.4,0.2c0.1,0,0.2,0,0.3-0.1c0.2-0.2,0.2-0.5,0-0.7c-0.3-0.3-0.7-1.3-0.9-1.9
	c0,0,0-0.1,0-0.1s0,0,0-0.1v0c0-0.1-0.1-0.2-0.1-0.3c0-0.1-0.1-0.2-0.1-0.3c-0.2-0.6-0.3-1.3-0.3-1.9c0-0.2,0-0.4,0-0.6
	c0.9,0.3,1.7,0.7,2.3,1.4c0,0,0.1,0.1,0.2,0.2c0.1,0.1,0.2,0.3,0.4,0.4c0,0,1.1,1,1.4,1.3c0.1,0.1,0.2,0.1,0.3,0.1s0.2,0,0.3-0.1
	c0.2-0.2,0.2-0.5,0-0.7c0,0-0.1-0.1-0.2-0.2c1.6,0.1,3,1.1,3.7,2.7c0.1,0.2,0.1,0.4,0.2,0.5v0l0,0c0.1,0.3,0.4,0.6,0.6,0.9
	c0.1,0.1,0.2,0.2,0.3,0.3l0,0l0,0c0.2,0.1,0.3,0.2,0.5,0.3l0,0l0,0c0.1,0,0.2,0,0.3,0c0.2,0,0.3,0,0.4-0.1c0.1,0,0.1,0,0.2,0
	c0,0,0,0,0.1,0c0.1,0.1,0,0.9-0.2,1.5l0,0.1v0.4c0,0,0,0.1-0.1,0.4c-0.3,0.9-1.1,1.5-2.1,1.5c-0.3,0-0.9-0.1-1-0.1l-0.2,0
	c-0.4-0.1-0.7-0.2-1.1-0.2c-0.2,0-0.3,0-0.5,0c0,0,0,0,0,0c0,0-2.8,0.3-3.1-1.1c-0.1-0.3-0.3-0.4-0.6-0.4c-0.3,0.1-0.4,0.3-0.4,0.6
	c0.2,1,1.1,1.5,2,1.7c-1.1,0.8-1.7,2.1-1.7,3.5c0,0,0,0.3,0,0.8l0,0l0,0h0.2h-0.2h0.4l-0.4,0h0h0c0,0.1,0,0.2,0,0.3
	c0,0.4,0,0.8-0.1,1.1c-0.1,0.3-0.2,0.7-0.3,1c-0.2,0.6-0.6,1.1-1,1.6c-0.7,0.7-1.5,1.3-2.5,1.5l-0.2,0l-0.1,0.2
	c-1,1.8-1.5,3.8-1.5,6.4c0,1.1,0.2,2.2,0.6,3.3c0.1,0.2,0.2,0.5,0.5,0.6c0.2,0.1,0.3,0.1,0.4,0.1c0,0,0.1,0,0.1,0c0.1,0,0.3,0,0.5,0
	c0.2,0,0.5,0.2,0.7,0.3l0,0h-2.2c-0.3,0-0.4,0-0.5,0c-0.1,0-0.2-0.2-0.3-0.3c-1.4-2-2.2-4.6-2.2-6.9c0-0.7,0-1.3,0.1-2
	c0-0.1,0.5-3.5,1.4-5.1c0.1-0.2,0-0.5-0.2-0.7s-0.5,0-0.7,0.2c-0.8,1.4-1.3,4.2-1.4,5.1c-1.9,0.6-3.7,0.8-6.2,0.8h-0.1
	c-2,0-4-0.3-5.9-0.8c1.3-0.7,2.8-2.4,2.3-5.7c0-0.3-0.3-0.5-0.5-0.4c-0.3,0-0.5,0.3-0.4,0.5c0.6,4.4-2.7,5.1-3.1,5.2h0l-0.1,0
	c-2.9,1.2-4.8,4.1-4.8,7.3c0,0.4,0,0.8,0.1,1.2c0,0,0,0.1,0,0.1c0,0.2,0.1,0.5,0.2,0.7c0.2,0.2,0.5,0.3,0.7,0.3c0.1,0,0.3,0,0.4,0
	c0.2,0.1,0.4,0.1,0.6,0.3c0,0,0,0,0.1,0.1c-0.1,0-0.2,0-0.2,0h-0.1H32c0,0,0,0-0.1,0c-0.1,0-0.2,0-0.3,0c0,0-0.1-0.2-0.2-0.3
	c0-0.1-0.1-0.2-0.1-0.3C30.6,123.7,30.2,122.1,30.2,120.7z"/>
</svg>
