<svg id="Warstwa_1" xmlns="http://www.w3.org/2000/svg" viewBox="0 0 170.1 198.4"><style>.st0{fill:#696969}.st1,.st2,.st3{fill:none;stroke:#696969;stroke-width:6e-2;stroke-linecap:round;stroke-linejoin:round}.st2,.st3{stroke-width:.3}.st3{stroke:#000;stroke-width:.36}</style><title>Obszar roboczy 1 kopia 2</title><path class="st0" d="M139.1 14.2l-6.6 1.6v-3.3z"/><path class="st1" d="M139.1 14.2l-6.6 1.6v-3.3z"/><path class="st0" d="M21.1 14.2l6.6-1.7v3.3z"/><path class="st2" d="M140.1 73.2V12M21.1 153.8V12M22.3 14.2h117.3"/><path class="st3" d="M27 137.9V149M34.8 123.1l-.4-.3c-3.9-3.8-4-10.1-.2-14l.2-.2.4-.3M34.8 123.1v-14.9M132.3 60.2v.6M96.5 128v-4.2M96.5 108.7v4.3M102.9 104.6h-3.7M105.7 108.7v4.3M105.7 128v-4.2M102.9 132.1h-3.7M139 167.6v1.4M139 118.4v28.2M139 67.8c.1 13.4 0 26.8 0 40.2v10.4M132.2 58.1l-.1-.1-.1-.2h-.1l-.1-.1M132.3 58.5v-.2l-.1-.2M131.8 179.1l.3-.3.1-.1M70.1 82.9v35.5M70.1 72.7v10.2M70.1 153.8v-35.4M70.1 164v-10.2M103 127.6v-2.1M103 121.8v-2.2M103 111.2v-2.1M103 117.1V115M98.4 131.4h-.2c-.5-.1-.9-.4-1.1-.8l-.1-.2M96.8 106.9v-.2c.1-.6.6-1.1 1.2-1.2h.3M21.4 143.5v-.6c.3-2.9 2.7-5.1 5.6-5h43.1M96.2 127.9v-4.1M95.3 127.6v.1l.1.1.2.1M95.3 112.7l.1.1v.1h.1M106.7 112.8h.1M106 108.8v4.1M106.8 109l-.1-.1M106.6 127.9l.1-.1h.1M106.8 124v-.1h-.2M95.8 123.8h-.1M95.7 128h.1M95.7 113h.1M95.8 108.7v.1h-.1M96.2 108.8v4.1M102.9 104.6l.1-.1v-.3M105.7 123.7h.1M106 123.8H105.7v-.1M106 127.9v-4.1M105.7 128h.1l.1-.1h.1M105.8 128.1l-.1-.1M103 132.5v-.3l-.1-.1M99.2 132.5h3.8M99.2 132.1v.4M95.2 123.8l.4.1M95.2 124.3v-.2l.2-.1v-.1h.2M95.3 127.6l-.1-.2M95.2 109.3v-.2l.2-.1.2-.1M95.3 112.7l-.1-.2M95.6 112.8h-.1M95.6 112.8l-.4.1M106.4 113v.1M106.4 123.7v.1M103 104.2h-3.8M99.2 104.6v-.4"/><path class="st3" d="M103 104.4v.1l-.1.1M96.4 123.7l-.9-.3M96.2 123.8H96.5v-.1h-.1M95.6 123.9l.6-.1M95.7 123.8h-.5M95.8 123.7l-.1.1M95.2 123.6l.6.1M95.8 128l-.6.2M95.7 128h.1M95.2 127.9l.5.1M95.6 127.9h-.4M96.2 127.9h-.6M96.4 128.1v-.1h.1-.1l-.1-.1h-.1M95.5 128.3l.9-.2M96.4 108.7l-.9-.3M96.5 108.7h-.1M96.2 108.8H96.5v-.1M95.6 108.9l.6-.1M95.2 108.8l.4.1M95.7 108.8h-.5M95.8 108.7h-.1v.1M95.2 108.5l.6.2M95.8 113.1l-.6.1M95.7 113l.1.1M95.2 112.9l.5.1M96.2 112.9l-.6-.1M96.4 113.1h.1v-.1h-.1v-.1h-.2M95.5 113.3l.9-.2M103 132.5v.1M102.9 132.1l.1.1v.2M99.2 132.4V132.1M99.2 132.6v-.1M106.8 112.9l-.2-.1M106.7 112.8h-.1M106.6 108.9h.1M106.8 127.7v.1M106.6 123.9h.2M95.5 128.3l-.3.5M95.2 123l.3.4M95.5 113.3l-.3.5M95.2 107.9l.3.5M103 104.2l.2-.4M99.2 104.2h3.8M98.9 103.8l.3.4M99.2 132.6l-.3.3M103 132.6h-3.8M103.2 132.9l-.2-.3M106.7 113.3l.1.3M105.8 113.1l.9.2M106 112.9h-.3v.2h.1M106.6 112.8l-.6.1M106.5 113l.3-.1M106.4 113.1v-.1h.1M106.8 113.2l-.4-.1M106.4 108.7l.4-.1M106.5 108.8h-.1v-.1M106.8 108.8h-.3M106.6 108.9h.2M106 108.8l.6.1M105.8 108.7h-.1v.1H106M106.7 108.4l-.9.3M106.8 108.2l-.1.2M106.7 128.3l.1.2M105.8 128.1l.9.2M106 127.9l-.2.1h-.1M106.6 127.9h-.6M106.8 127.9h-.2M106.5 128l.3-.1M106.4 128h.1M106.8 128.2l-.4-.2M106.4 123.7l.4-.1M106.5 123.8h-.1v-.1M106.8 123.8h-.3M106 123.8l.6.1M105.7 123.8H106M106.7 123.4l-.9.3M106.8 123.2l-.1.2M132.6 178.2l1-.8c2.3-2 5.2-4.9 5.4-8.2v-.2M132.6 58.5l1 .8c2.3 2 5.1 4.9 5.4 8.2v.2M132.6 178.2v-.4c-.1-17.5 0-35.1 0-52.6v-6.8M132.6 178.2l-.2.1h-.1M132.6 58.5l-.3-.1"/><path class="st3" d="M132.6 118.4v-2.9c0-18.9-.2-37.8 0-56.6v-.3M132.3 176.6v1.6M132.3 118.4v58.2M132.3 60.8v57.6M132.3 58.5v1.7M139 169v-.1M139 118.4v10c0 13.5.1 26.9 0 40.4v.3M139 67.7v.3c.1 14.9-.1 29.8 0 44.8v5.6M140.5 72v-.6c.1-.9-.4-1.7-1.2-2.1l-.2-.1M140.5 118.4V72M140.5 164.7v-46.3"/><path class="st3" d="M139 167.6l.2-.1c.8-.4 1.3-1.2 1.2-2.1v-.6M131.8 57.7l.1.1M132.3 178.2v.3h-.1v.2M106.8 187.4h1.7c7.8-.5 15.4-3.1 22-7.4l1.3-.9M106.8 187.3v.1M106.8 185.4v.1M106.8 185.3v.1M106.8 185.2v.1M106.8 185.1v.1M106.8 185v.1M106.8 183.5v.1M106.8 183.4v.1M106.8 183v.1M106.8 180.1v.5M106.8 179.5v.6M106.8 178.4v.2M106.8 178.2v.2M106.8 177.8v.1M106.8 177v.1M106.8 176.6v.3M106.8 176.4v.2M106.8 174.8v.1M106.8 174.4v.3M106.8 174.2v.2M106.8 173.5v.2M106.8 173.3v.1M106.8 172.6v.2M106.8 172.4v.1M106.8 171.7v.2M106.8 170.9v.2M106.8 170.6v.2M106.8 170.3v.3M106.8 169.9v.3M106.8 169.8v.1M106.8 169.3v.1M106.8 168.2v.1M106.8 167.8v.2M106.8 167.5v.2M106.8 166v.1M106.8 165.6v.2M106.8 165.3v.2M106.8 164.8v.3M106.8 164.5v.1M106.8 163.5v.1M106.8 162.8v.3M106.8 162.4v.2M106.8 162.1v.3M106.8 161.9v.1M106.8 161.5v.1M106.8 160v.2M106.8 159.7v.2M106.8 159.2v.2M106.8 157.2v.1M106.8 147.3v.1M106.8 146.3v.1M106.8 145.3v.7M106.8 144.5v.8M106.8 144.2v.1M106.8 133.1v.2M106.8 49.3h1.7c7.9.5 15.4 3.1 22 7.4l1.3.9M106.8 49.8v-.1M106.8 50.8v-.1M106.8 51.1V51M106.8 51.5v-.1M106.8 54.1V54M106.8 54.4v-.1M106.8 55.4v-.1M106.8 56.5v-.3M106.8 56.7v-.1M106.8 57.2v-.4M106.8 57.8v-.1M106.8 58.7v-.8M106.8 58.9v-.2M106.8 59.1v-.2M106.8 59.3v-.1M106.8 59.5v-.1M106.8 59.7v-.1M106.8 59.9v-.1M106.8 60.1V60M106.8 60.3v-.1M106.8 60.7v-.2M106.8 61.2V61M106.8 61.4v-.1M106.8 61.8v-.1M106.8 62.1v-.2M106.8 62.3v-.1M106.8 63.2v-.1M106.8 63.5v-.2M106.8 64.2v-.1M106.8 64.5v-.2M106.8 64.7v-.1M106.8 65.5v-.6M106.8 65.8v-.2M106.8 66.1v-.2M106.8 66.6v-.2M106.8 66.9v-.1M106.8 67.2V67M106.8 67.5v-.2M106.8 68v-.1M106.8 68.6v-.1M106.8 69.2v-.4M106.8 69.5v-.3M106.8 70v-.1M106.8 70.3v-.1M106.8 70.7v-.1M106.8 71v-.2M106.8 71.3v-.1M106.8 71.7v-.2M106.8 71.9v-.1M106.8 72.5v-.3M106.8 72.9v-.1M106.8 73.3v-.1M106.8 73.6v-.1M106.8 74.9v-.2M106.8 75.3v-.2M106.8 75.6v-.3M106.8 75.9v-.2M106.8 76.3v-.1M106.8 77.4v-.3M106.8 77.7v-.2M106.8 78.1v-.3M106.8 78.5v-.3M106.8 78.8v-.1M106.8 79.2v-.1M106.8 79.6v-.1M106.8 89.5v-.1M106.8 90.5V90M106.8 91.2v-.4M106.8 92.1V92M106.8 103.6v-.2M106.8 104.6v-.5M106.8 105.7v-.6M106.8 187.1v.2M106.8 185.5v.9M106.8 183.8v1.2M106.8 183.7v.1M106.8 183.6v.1M106.8 182.5v.1M106.8 181.1v.2M106.8 179.4v.1M106.8 179.2v.1M106.8 178.1v.1M106.8 177.6v.1M106.8 175.8v.1M106.8 173.2v.1M106.8 172.2v.1M106.8 171.5v.1M106.8 169.1v.1M106.8 167v.1M106.8 166.6v.1M106.8 166.2v.1M106.8 163.9v.1M106.8 159.4v.1M106.8 158.8v.4M106.8 157.4v1.3M106.8 156.6v.6M106.8 156.1v.1M106.8 146.4v.2M106.8 146.2v.1M106.8 142.5v.1M106.8 136.3v.1M106.8 134.5v.2M106.8 118.4v14.5M106.8 105.7v12.7M106.8 104.6v.5M106.8 103.8v.3M106.8 103.1v.2M106.8 101.6v.7M106.8 92.1v9.4M106.8 91.3v.7M106.8 89.5v.3M106.8 79.4v.1M106.8 79v.1M106.8 76.5v.1M106.8 74.9v.2M106.8 74.5v.1M106.8 74.1v.1M106.8 72.1v.1M106.8 71.7v.1M106.8 70.5v.1M106.8 69.8v.1M106.8 68v.1M106.8 67.6v.1M106.8 64.5v.1M106.8 64.2v.1M106.8 63v.1M106.8 62.4v.1M106.8 62.1v.1M106.8 61.8v.1M106.8 61.5v.1M106.8 59.9v.1M106.8 56.1v.1M106.8 55.9v.1M106.8 55.5v.1M106.8 55.4v.1M106.8 55.2v.1M106.8 54.9v.2M106.8 54.7v.2M106.8 54.2v.1M106.8 54.1v.1M106.8 53.9v.1M106.8 51.2v.1M106.8 49.4v.3M106.8 49.3v.1M95.2 104.4v-.2l.1-.1v-.1l.1-.1h.2l.1-.1M106.8 103.8H95.7M70.1 72.7v-.6c1.1-16.5 21.9-23 35.8-22.8h.9M70.1 164v.6c1.1 16.5 21.9 23 35.8 22.9h.9M95.7 132.9c-.3-.1-.5-.2-.5-.4v-.1M95.7 132.9h11.1M106.8 103.6v.2M106.8 103.3v.1M106.8 102.3v.8M106.8 101.5v.1M106.8 91.2v.1M106.8 90.5v.3M106.8 89.8v.2M106.8 79.9v9.5M106.8 79.6v.3M106.8 79.2v.2M106.8 78.8v.2M106.8 78.5v.2M106.8 78.1v.1M106.8 77.7v.1M106.8 77.4v.1M106.8 77v.1M106.8 76.6v.4M106.8 76.3v.2M106.8 76.1v.1M106.8 75.9v.2M106.8 75.6v.1M106.8 74.6v.1M106.8 74.2v.3M106.8 73.7v.4M106.8 73.6v.1M106.8 73.3v.2M106.8 72.9v.3M106.8 72.5v.3M106.8 71.9v.2M106.8 71.4v.1M106.8 71.3v.1M106.8 71v.2M106.8 70.7v.1M106.8 70.3v.2M106.8 70v.2M106.8 69.7v.1M106.8 69.5v.2M106.8 68.6v.2M106.8 68.4v.1M106.8 68.2v.2M106.8 68.1v.1M106.8 67.7v.2M106.8 67.5v.1M106.8 67.2v.1M106.8 66.9v.1M106.8 66.6v.2M106.8 66.3v.1M106.8 66.1v.2M106.8 65.8v.1M106.8 65.5v.1M106.8 64.7v.2M106.8 63.5v.6M106.8 63.2v.1M106.8 62.8v.2M106.8 62.5v.3M106.8 62.3v.1M106.8 61.6v.1M106.8 61.4v.1M106.8 61.2v.1M106.8 60.9v.1M106.8 60.7v.2M106.8 60.3v.2M106.8 60.1v.1M106.8 59.7v.1M106.8 59.5v.1M106.8 59.3v.1M106.8 59.1v.1M106.8 57.8v.1M106.8 57.5v.2M106.8 57.3v.2M106.8 57.2v.1M106.8 56.7v.1M106.8 56.5v.1M106.8 56v.1M106.8 55.6v.3M106.8 55.1v.1M106.8 54.6v.1M106.8 54.5v.1M106.8 54.4v.1M106.8 53.8v.1M106.8 53.2v.6M106.8 51.5v1.7M106.8 51.3v.1M106.8 51.1v.1M106.8 50.9v.1M106.8 50.8v.1M106.8 49.8v.9M106.8 186.4v.7M106.8 183.3v.1M106.8 183.2v.1M106.8 183.1v.1M106.8 182.9v.1M106.8 182.8v.1M106.8 182.7v.1M106.8 182.6v.1M106.8 182.4v.1M106.8 181.3v1.1M106.8 180.6v.5M106.8 179.3v.1M106.8 179.1v.1M106.8 178.8v.3M106.8 178.7v.1M106.8 178.6v.1M106.8 177.9v.2M106.8 177.7v.1M106.8 177.1v.5M106.8 176.9v.1M106.8 176.2v.2M106.8 175.9v.3M106.8 175.6v.2M106.8 175.3v.3M106.8 175.1v.2M106.8 175v.1M106.8 174.9v.1M106.8 174.7v.1M106.8 173.8v.4M106.8 173.7v.1M106.8 173.4v.1M106.8 172.8v.4M106.8 172.5v.1M106.8 172.3v.1M106.8 172v.2M106.8 171.9v.1M106.8 171.6v.1M106.8 171.2v.3M106.8 171.1v.1M106.8 170.8v.1M106.8 170.2v.1M106.8 169.6v.2M106.8 169.4v.2M106.8 169.2v.1M106.8 168.8v.3M106.8 168.3v.5M106.8 168v.2M106.8 167.7v.1M106.8 167.1v.4M106.8 166.7v.3M106.8 166.3v.3M106.8 166.1v.1M106.8 165.8v.2M106.8 165.5v.1M106.8 165.1v.2M106.8 164.6v.2M106.8 164.4v.1M106.8 164v.4M106.8 163.6v.3M106.8 163.2v.3M106.8 163.1v.1M106.8 162.6v.2M106.8 162v.1M106.8 161.6v.3M106.8 161.2v.3M106.8 160.7v.5M106.8 160.5v.2M106.8 160.2v.3M106.8 159.9v.1M106.8 159.5v.2M106.8 158.7v.1M106.8 157.3v.1M106.8 156.2v.4M106.8 147.4v8.7M106.8 146.6v.7M106.8 146v.2M106.8 144.3v.2M106.8 143.2v1M106.8 142.6v.6M106.8 141.8v.7M106.8 136.4v5.4M106.8 134.7v1.7M106.8 133.3v1.2M106.8 132.9v.2M95.2 104.4v27.9M103 127.6h-.8M102.2 125.5h.8M102.2 119.6h.8M103 111.2h-.8M102.2 109.1h.8M102.2 115h.8M98.4 106.6v-1.2M98.4 131.4v-1.2M96.9 130.4l-.1-.5M98.4 130.2h1.6M98 129.9l.1.1v.1h.1l.2.1M98 106.9l.1-.2.1-.1h.2M100 106.6h-1.6M101.2 125.5h1M102.2 127.6v-2.1M102.2 127.6h-1M101.2 119.6h1M102.2 121.8v-2.2M102.2 121.8h-1M103 121.8h-.8M101.2 109.1h1M102.2 111.2v-2.1M102.2 111.2h-1M101.2 115h1M102.2 117.1V115M102.2 117.1h-1M103 117.1h-.8M101.2 105.4l-1.2 1.2M100 130.2l1.2 1.2M100 106.6v23.6M101.2 131.4h-2.8M98.4 105.4h2.8M98 106.9h-1.2M98 129.9v-23M96.8 129.9H98M101.2 105.4v26M96.8 129.9v-23M106.8 103.8v.1M106.8 132.8v.1M21.4 143.5v.5c.3 2.9 2.7 5.1 5.6 5h43.1M42.7 120.5h1c2.7-.5 4.4-3 3.9-5.7-.4-2.2-2.2-3.8-4.4-4h-1c-2.7.2-4.7 2.6-4.4 5.3.2 2.2 1.8 4 4 4.4h.9"/><path class="st3" d="M42.7 111.9h.6c2 .4 3.4 2.3 3 4.4-.3 1.6-1.7 2.9-3.3 3h-.7c-2-.3-3.4-2.2-3.1-4.3.2-1.5 1.3-2.7 2.7-3h.3l.5-.1M34.8 108.2h35.3M70.1 123.1H34.8"/><path class="st0" d="M71.4 12.6h-4.7v-.7l1.9-1.9c.6-.6 1-1 1.1-1.2.2-.3.3-.5.4-.8.1-.2.1-.5.1-.8 0-.4-.1-.7-.4-.9-.2-.2-.6-.3-1-.3-.3 0-.6.1-.9.2-.3.1-.6.3-.9.6l-.4-.6c.7-.7 1.3-1 2.1-1 .7 0 1.2.2 1.6.6.4.4.6.8.6 1.3s-.1.9-.4 1.3-.8 1-1.4 1.7l-1.6 1.5h3.6l.3 1zM72.6 12.1c0-.2.1-.4.2-.5.1-.1.3-.2.4-.2.2 0 .4.1.5.2.1.1.2.3.2.5s-.1.4-.2.5c-.1.1-.3.2-.5.2s-.3-.1-.4-.2c-.1-.1-.2-.3-.2-.5zM79.8 9.1c0 1.2-.2 2.1-.6 2.8-.4.6-1 1-1.8 1s-1.3-.3-1.7-1c-.4-.7-.6-1.5-.6-2.8s.2-2.2.6-2.8c.4-.6 1-.9 1.7-.9.8-.1 1.3.3 1.7.9.4.7.7 1.5.7 2.8zm-3.9 0c0 1 .1 1.8.4 2.3s.7.7 1.1.7c.6 0 1-.3 1.1-.8.3-.5.4-1.2.4-2.3s-.1-1.8-.4-2.3-.6-.7-1.1-.7c-.6 0-1 .2-1.1.7-.3.6-.4 1.3-.4 2.4zM85.4 9.1c0 1.2-.2 2.1-.6 2.8-.4.6-1 1-1.8 1s-1.3-.3-1.7-1c-.4-.7-.6-1.5-.6-2.8s.2-2.2.6-2.8c.4-.6 1-.9 1.7-.9.9-.1 1.4.3 1.8.9.4.7.6 1.5.6 2.8zm-3.9 0c0 1 .1 1.8.4 2.3s.6.6 1.1.6c.6 0 1-.3 1.1-.8.3-.5.4-1.2.4-2.3s-.1-1.8-.4-2.3c-.2-.4-.6-.6-1.1-.6-.6 0-1 .2-1.1.7-.2.6-.4 1.3-.4 2.4zM89.3 5.8c0-.2 0-.3.1-.4.1-.1.2-.2.4-.2.1 0 .3 0 .4.1s.1.2.1.4 0 .3-.1.4-.2.1-.4.1c-.1 0-.3 0-.4-.1-.1 0-.1-.1-.1-.3zm.9 6.8h-.8V7.3h.8v5.3zM95.5 12.6V9.2c0-.5-.1-.8-.3-1-.2-.2-.5-.3-1-.3-.6 0-1 .2-1.2.5s-.4.8-.4 1.5v2.8h-.8V7.3h.7l.1.7c.2-.3.4-.5.7-.6.3-.2.7-.2 1-.2.7 0 1.1.2 1.4.5s.5.8.5 1.5v3.4h-.7z"/></svg>