<svg id="Warstwa_1" xmlns="http://www.w3.org/2000/svg" viewBox="0 0 170.1 198.4"><style>.st0{fill:none;stroke:#000;stroke-width:.36;stroke-linecap:round;stroke-linejoin:round}.st1{fill:#696969}.st2,.st3{fill:none;stroke:#696969;stroke-width:6e-2;stroke-linecap:round;stroke-linejoin:round}.st3{stroke-width:.3}</style><title>Obszar roboczy 1 kopia</title><path class="st0" d="M48.9 175.9v.7M80.5 64.4v.6l.1.6.1.7.1.3.1.2M42.2 118.4V67.8M42.2 146.6v-28.2M42.2 169v-1.3M49 58.1l.1-.1.1-.2h.1l.1-.1M48.9 58.5v-.2l.1-.1v-.1M49.4 179.1l-.3-.3-.1-.1M102.6 70.4v2.7M80.4 66.6l.1-2M96.6 61.5l.7.5.7.5 1.1 1 .3.3.2.3h.1l.1.1.3.4.6.8.3.4c.7 1.1 1.2 2.3 1.3 3.5v.7M80.5 64.4c.6-7.3 11.2-6.1 15.6-3.2l.5.3"/><path class="st0" d="M80.1 64.8v.8c1 5.2 6.9 9.1 11.8 10.2l1.2.2c3.3.6 8.9.3 9.7-3.9v-.6M111 82.9v35.5M111 72.7v10.2M111 153.8v-35.4M111 164v-10.2M159.8 143.5v-.6c-.3-2.9-2.7-5-5.6-5.1H111M48.6 178.2l-1-.8c-2.2-1.8-5.3-5.1-5.3-8.2v-.2M48.6 58.5l-1 .8c-2.2 1.9-5.3 5.1-5.3 8.2v.2M48.6 178.2l.2.1h.1M48.6 118.4v3c0 18.9.1 37.7 0 56.6v.2M48.6 58.5v.4c.1 17.5 0 35 0 52.6v6.8M48.6 58.5h.2l.1-.1M48.9 60.2v-1.7M48.9 118.4V60.2M48.9 175.9v-57.5M48.9 178.2v-1.6M42.2 118.4V67.7M42.2 169.1v-50.7M42.2 169v-.1M40.7 118.4v46.3M40.7 72v46.4M40.7 72v-.6c-.1-.9.5-1.8 1.3-2.2l.2-.1M42.2 167.6l-.2-.1c-.8-.4-1.3-1.2-1.3-2.1v-.6M74.3 187.3v.1M74.3 186.5v.1M74.3 185.4v.1M74.3 185.2v.2M74.3 185v.2M74.3 183.9v.1M74.3 183.7v.1M74.3 183.5v.1M74.3 183.4v.1M74.3 183.3v.1M74.3 183v.1M74.3 182.9v.1M74.3 182.6v.1M74.3 182.2v.1M74.3 181.8v.1M74.3 181.6v.1M74.3 181.3v.3M74.3 180.9v.1M74.3 180.7v.2M74.3 179.5v1.2M74.3 179.4v.1M74.3 179.1v.2M74.3 178.8v.3M74.3 178.7v.1M74.3 178.4v.2M74.3 178.3v.1M74.3 177.7v.4M74.3 177.5v.1M74.3 177.3v.1M74.3 176.7v.5M74.3 176.4v.1M74.3 176.2v.2M74.3 175.9v.2M74.3 175.6v.2M74.3 175.4v.1M74.3 175.1v.1M74.3 174.7v.2M74.3 174.5v.2M74.3 174.2v.1M74.3 173.3v.5M74.3 172.6v.2M74.3 172.2v.4M74.3 172v.2M74.3 171.7v.2M74.3 171v.6M74.3 170.7v.2M74.3 170.3v.3M74.3 169.6v.6M74.3 169.3v.3M74.3 168.2v.7M74.3 167.9v.2M74.3 167.5v.3M74.3 167.1v.3M74.3 166.7v.3M74.3 166.4v.1M74.3 166v.2M74.3 165.8v.1M74.3 165.1v.4M74.3 164.8v.3M74.3 164.5v.2M74.3 164.1v.3M74.3 163.6v.3M74.3 163.2v.4M74.3 162.9v.2M74.3 162.6v.2M74.3 161.6v.8M74.3 161.2v.4M74.3 160.8v.2M74.3 160.5v.1M74.3 160.1v.2M74.3 159.7v.2M74.3 159v.1M74.3 157.9v.2M74.3 157.6v.1M74.3 157.2v.1M74.3 156.8v.2M74.3 156.4v.2M74.3 155.9v.2M74.3 155.3v.4M74.3 155.1v.2M74.3 154.5v.4M74.3 154v.4M74.3 153.6v.4M74.3 153.2v.4M74.3 152.9v.3M74.3 152.4v.4M74.3 152.1v.2M74.3 151.7v.1M74.3 151.2v.1M74.3 150.8v.2M74.3 150.3v.3M74.3 150v.2M74.3 149.5v.2M74.3 149.1v.2M74.3 148.7v.1M74.3 148.2v.1M74.3 147.8v.1M74.3 147.3v.2M74.3 146.8v.3M74.3 146.5v.1M74.3 145.6v.6M74.3 144.5v.8M74.3 144.2v.2M74.3 143v.5M74.3 142v.4M74.3 141.1v.6M74.3 140.2v.5M74.3 139.3v.4M74.3 138.4v.3M74.3 137.3v.3M74.3 134.3v.2M74.3 133.1v.3M74.3 132.2v.5M74.3 131.1v.5M74.3 50.8v-.1M74.3 51.1V51M74.3 51.4v-.1M74.3 51.5v-.1M74.3 51.7v-.1M74.3 51.9v-.1M74.3 53v-.1M74.3 53.5v-.1M74.3 53.6v-.1M74.3 53.8v-.1M74.3 54v-.1M74.3 54.1V54M74.3 54.4v-.1M74.3 55v-.1M74.3 55.7v-.1M74.3 55.9v-.1M74.3 56.1V56M74.3 56.7v-.5M74.3 57.3v-.5M74.3 57.5v-.2M74.3 57.8v-.3M74.3 58.7v-.9M74.3 58.9v-.2M74.3 59.1v-.2M74.3 59.4v-.2M74.3 59.7v-.3M74.3 59.9v-.2M74.3 60.2V60M74.3 60.5v-.3M74.3 61.3v-.8M74.3 62.1v-.8M74.3 62.4v-.2M74.3 62.7v-.2M74.3 63.3V63M74.3 63.5v-.2M74.3 64.3V64M74.3 64.5v-.2M74.3 64.9v-.3M74.3 65.6v-.7M74.3 65.9v-.3M74.3 66.3v-.4M74.3 66.6v-.3M74.3 67v-.3M74.3 67.3V67M74.3 67.6v-.3M74.3 68v-.3M74.3 68.3v-.2M74.3 68.8v-.4M74.3 69.1v-.3M74.3 69.5v-.3M74.3 69.8v-.3M74.3 70.1v-.2M74.3 70.5v-.3M74.3 71v-.4M74.3 71.4V71M74.3 71.7v-.3M74.3 72.1v-.2M74.3 72.5v-.3M74.3 72.9v-.3M74.3 73.3v-.4M74.3 73.7v-.2M74.3 74.1v-.3M74.3 74.5v-.3M74.3 74.9v-.3M74.3 75.3v-.4M74.3 75.6v-.3M74.3 76.1v-.4M74.3 76.5v-.3M74.3 77.4v-.8M74.3 77.8v-.4M74.3 78.2v-.4M74.3 78.5v-.1M74.3 79v-.3M74.3 79.4v-.3M74.3 79.6v-.1M74.3 80.3V80M74.3 80.7v-.3M74.3 81.6v-.2M74.3 81.9v-.2M74.3 82.5v-.3M74.3 82.9v-.3M74.3 83.3V83M74.3 83.7v-.2M74.3 84v-.1M74.3 84.5v-.2M74.3 89.5v-.1M74.3 90.6v-.8M74.3 91.5v-.7M74.3 92.1v-.4M74.3 103.7v-.3M49.4 57.7l-.1.1"/><path class="st0" d="M48.9 178.2V178.5l.1.1v.1M74.3 187.4h-1.7c-7.9-.5-15.4-3-22-7.4l-1.3-.9M74.3 49.3h-1.7c-7.9.5-15.4 3.1-22 7.4l-1.3.9M93.8 75.6l-.5-.1c-4.7-.6-10.4-3.7-12.2-8.3l-.2-.4M100 74.6l-.3.2c-1.6.7-3.3 1-5 .9h-.9M100 74.6l.3-.2c1.3-.8 2.2-2.3 2.2-3.8v-.3"/><path class="st0" d="M95.7 75h-1.9c-4.5-.5-8.6-2.9-11.4-6.5L82 68l-.2-.5c-1.9-3.7-.6-6.9 3.4-8.1l.6-.1.6-.2h1.2c4.7-.1 9.3 1.8 12.5 5.4l.4.6.4.6c2.6 4 1.8 8-3.2 9.1l-.6.2h-1.4"/><path class="st0" d="M103 71.5v-.3c-.1-.9-.2-1.7-.6-2.5l-.2-.6M82.5 60.5l-.4.2c-1.3.9-2 2.4-2 4v.2"/><path class="st0" d="M91.7 59l-.7-.2-.7-.1-.8-.1c-3.7-.5-8.9.5-9.6 4.9l-.1 1.1c.3 4.8 4.9 8.8 9.1 10.4l1.5.6.7.2c17.6 4.3 15.4-11.6 2.3-16.3l-.8-.2-.9-.3M111 123.5v.2"/><path class="st0" d="M111 72.7v-.6c-1.1-16.4-21.9-23-35.8-22.8h-.9M111 164v.6c-1.2 16.5-21.8 22.9-35.8 22.9h-.9M74.3 49.4v-.1M74.3 49.8v-.4M74.3 49.9v-.1M74.3 50.4v-.5M74.3 50.5v-.1M74.3 50.6v-.1M74.3 50.7v-.1M74.3 50.9v-.1M74.3 51v-.1M74.3 51.3v-.2M74.3 51.6v-.1M74.3 51.8v-.1M74.3 52v-.1M74.3 52.1V52M74.3 52.2v-.1M74.3 52.3v-.1M74.3 52.4v-.1M74.3 52.5v-.1M74.3 52.6v-.1M74.3 52.7v-.1M74.3 52.8v-.1M74.3 52.9v-.1M74.3 53.1V53M74.3 53.2v-.1M74.3 53.4v-.2M74.3 53.7v-.1M74.3 53.9v-.1M74.3 54.2v-.1M74.3 54.3v-.1M74.3 54.5v-.1M74.3 54.6v-.1M74.3 54.9v-.3M74.3 55.5V55M74.3 55.6v-.1M74.3 55.8v-.1M74.3 56v-.1M74.3 56.2v-.1M74.3 56.8v-.1M74.3 59.2v-.1M74.3 60v-.1M74.3 62.2v-.1M74.3 62.5v-.1M74.3 63v-.3M74.3 64v-.5M74.3 64.6v-.1M74.3 66.7v-.1M74.3 67.7v-.1M74.3 68.1V68M74.3 68.4v-.1M74.3 69.2v-.1M74.3 69.9v-.1M74.3 70.2v-.1M74.3 70.6v-.1M74.3 71.9v-.2M74.3 72.2v-.1M74.3 72.6v-.1M74.3 73.5v-.2M74.3 73.8v-.1M74.3 74.2v-.1M74.3 74.6v-.1M74.3 75.7v-.1M74.3 76.2v-.1M74.3 76.6v-.1M74.3 78.4v-.2M74.3 78.7v-.2M74.3 79.1V79M74.3 79.5v-.1M74.3 80v-.4M74.3 80.4v-.1M74.3 81.4v-.7M74.3 81.7v-.1M74.3 82.2v-.3M74.3 82.6v-.1M74.3 83v-.1M74.3 83.5v-.2M74.3 83.9v-.2M74.3 84.3V84M74.3 89v-4.5M74.3 89.4V89M74.3 89.8v-.3M74.3 90.8v-.2M74.3 91.7v-.2M74.3 103.4V92.1M74.3 118.4v-14.7M74.3 131.1v-12.7M74.3 132.2v-.6M74.3 133.1v-.4M74.3 134.3v-.9M74.3 135.3v-.8M74.3 137.3v-2M74.3 138.4v-.8M74.3 139.3v-.6M74.3 140.2v-.5M74.3 141.1v-.4M74.3 142v-.3M74.3 143v-.6M74.3 144.2v-.7M74.3 144.5v-.1M74.3 145.6v-.3M74.3 146.5v-.3M74.3 146.8v-.2M74.3 147.3v-.2M74.3 147.8v-.3M74.3 148.2v-.3M74.3 148.7v-.4M74.3 149.1v-.3M74.3 149.5v-.2M74.3 150v-.3M74.3 150.3v-.1M74.3 150.8v-.2M74.3 151.2v-.2M74.3 151.7v-.4M74.3 152.1v-.3M74.3 152.4v-.1M74.3 152.9v-.1M74.3 154.5v-.1M74.3 155.1v-.2M74.3 155.9v-.2M74.3 156.4v-.3M74.3 156.8v-.2M74.3 157.2v-.2M74.3 157.6v-.3M74.3 157.9v-.2M74.3 159v-.9M74.3 159.4v-.3M74.3 159.7v-.3M74.3 160.1v-.2M74.3 160.5v-.2M74.3 160.8v-.2M74.3 161.2v-.2M74.3 162.6v-.2M74.3 162.9v-.1M74.3 163.2v-.1M74.3 164.1v-.2M74.3 164.5v-.1M74.3 164.8v-.1M74.3 165.8v-.3M74.3 166v-.1M74.3 166.4v-.2M74.3 166.7v-.2M74.3 167.1v-.1M74.3 167.5v-.1M74.3 167.9v-.1M74.3 168.2v-.1M74.3 169.3v-.4M74.3 170.3v-.1M74.3 170.7v-.1M74.3 171v-.1M74.3 171.7v-.1M74.3 172v-.1M74.3 173.3v-.5M74.3 174.2v-.4M74.3 174.4v-.1M74.3 175.1v-.2M74.3 175.4v-.2M74.3 175.6v-.1M74.3 175.9v-.1M74.3 176.2v-.1M74.3 176.7v-.2M74.3 177.3v-.1M74.3 177.5v-.1M74.3 177.7v-.1M74.3 178.3v-.2M74.3 178.7v-.1M74.3 179.4v-.1M74.3 181.1v-.1M74.3 181.3v-.2M74.3 181.8v-.1M74.3 182.1v-.2M74.3 182.2v-.1M74.3 182.5v-.2M74.3 182.6v-.1M74.3 182.8v-.1M74.3 182.9v-.1M74.3 183.2v-.1M74.3 183.3v-.1M74.3 183.7v-.1M74.3 183.9v-.1M74.3 185v-1M74.3 186.5v-1M74.3 186.8v-.2M74.3 186.9v-.1M74.3 187v-.1M74.3 187.1v-.1M74.3 187.3v-.2M159.8 143.5v.5c-.3 2.9-2.7 5-5.6 5.1H111M154.2 149v-11.1M146.3 108.2l.4.3c3.9 3.7 4.1 9.9.3 13.9l-.3.3-.4.3M138.5 120.5h-.9c-2.7-.5-4.4-3-3.9-5.7.4-2.2 2.2-3.8 4.4-4h.8c2.7.3 4.6 2.7 4.4 5.4-.2 2.1-1.8 3.9-3.9 4.3h-.9"/><path class="st0" d="M138.5 119.3h-.8c-2-.4-3.4-2.3-3-4.4.3-1.6 1.7-2.9 3.3-3h.7c2.1.2 3.5 2.1 3.3 4.1-.2 1.6-1.4 2.9-3 3.3h-.5M146.3 108.2H111M146.3 123.1v-14.9M111 123.1h35.3"/><path class="st1" d="M40.7 15.4l7 1.7v-3.5z"/><path class="st2" d="M40.7 15.4l7 1.7v-3.5z"/><path class="st1" d="M111.1 15.4l-7.1-1.8v3.5z"/><path class="st2" d="M111.1 15.4l-7.1-1.8v3.5z"/><path class="st3" d="M40.7 117.2V13M111.1 107V13M40.7 15.4h70.4"/><path class="st1" d="M62.7 7.4l-1.3.7-.2-.7 1.6-.8h.8v7.2h-.9V7.4zM66.4 13.1c0-.4.3-.7.7-.7.4 0 .7.3.7.7 0 .4-.3.7-.7.7-.5 0-.7-.3-.7-.7zM70.7 7.4l-1.3.7-.2-.7 1.6-.8h.8v7.2h-.9V7.4zM74.2 11.9c0-.9.5-1.6 1.4-1.9-.8-.4-1.1-1-1.1-1.6 0-1.1 1-1.9 2.2-1.9 1.4 0 2.1.9 2.1 1.8 0 .6-.3 1.3-1.2 1.7.9.4 1.5 1 1.5 1.9 0 1.3-1.1 2.1-2.5 2.1-1.5-.2-2.4-1.1-2.4-2.1zm3.9 0c0-.9-.6-1.3-1.6-1.6-.8.2-1.3.8-1.3 1.5s.5 1.4 1.4 1.4c.9-.1 1.5-.6 1.5-1.3zm-2.7-3.7c0 .7.5 1.1 1.4 1.3.6-.2 1.1-.7 1.1-1.3 0-.6-.3-1.2-1.2-1.2-.9.1-1.3.6-1.3 1.2zM83.7 6.8c0 .3-.2.6-.6.6-.3 0-.6-.3-.6-.6s.3-.6.6-.6c.4 0 .6.3.6.6zm-1.1 6.9V8.4h1v5.4h-1zM85.2 9.8V8.3h.8l.1.9c.3-.5.9-1 1.8-1 .7 0 1.9.4 1.9 2.3v3.2h-1v-3.1c0-.9-.3-1.6-1.2-1.6-.6 0-1.1.5-1.3 1 0 .1-.1.3-.1.5v3.2h-1V9.8z"/></svg>