<?xml version="1.0" encoding="utf-8"?>
<!-- Generator: Adobe Illustrator 22.0.1, SVG Export Plug-In . SVG Version: 6.00 Build 0)  -->
<svg version="1.1" id="Layer_1" xmlns="http://www.w3.org/2000/svg" xmlns:xlink="http://www.w3.org/1999/xlink" x="0px" y="0px"
	 viewBox="0 0 768 763" style="enable-background:new 0 0 768 763;" xml:space="preserve">
<style type="text/css">
	.st0{fill:#898988;}
	.st1{opacity:0.3;}
	.st2{fill:#1D1D1B;}
</style>
<g>
	<path class="st0" d="M765.7,116.9h-10.9l5.5-34.2L765.7,116.9z M757.7,114.4h5.1l-2.5-15.8L757.7,114.4z"/>
	<path class="st0" d="M760.2,695.9l-5.5-35.5h10.9L760.2,695.9z M757.7,662.9l2.5,16.5l2.5-16.5H757.7z"/>
</g>
<g>
	<path class="st0" d="M1.2,322.9c-0.7,0-1.3-0.6-1.3-1.2v-296c0-0.7,0.6-1.3,1.3-1.3s1.3,0.6,1.3,1.3v296
		C2.5,322.4,1.9,322.9,1.2,322.9z"/>
	<path class="st0" d="M665.2,322.9c-0.7,0-1.2-0.6-1.2-1.2v-296c0-0.7,0.6-1.3,1.2-1.3c0.7,0,1.3,0.6,1.3,1.3v296
		C666.5,322.4,665.9,322.9,665.2,322.9z"/>
	<path class="st0" d="M665.2,34.9H1.2c-0.7,0-1.3-0.6-1.3-1.3s0.6-1.3,1.3-1.3h664c0.7,0,1.3,0.6,1.3,1.3
		C666.5,34.4,665.9,34.9,665.2,34.9z"/>
</g>
<g>
	<path class="st0" d="M768.2,91.9h-427c-0.7,0-1.3-0.6-1.3-1.3c0-0.7,0.6-1.2,1.3-1.2h427c0.7,0,1.2,0.6,1.2,1.2
		C769.5,91.4,768.9,91.9,768.2,91.9z"/>
	<path class="st0" d="M768.2,688.9h-193c-0.7,0-1.2-0.6-1.2-1.2s0.6-1.2,1.2-1.2h193c0.7,0,1.2,0.6,1.2,1.2S768.9,688.9,768.2,688.9
		z"/>
	<path class="st0" d="M760.2,688.9c-0.7,0-1.2-0.6-1.2-1.2v-597c0-0.7,0.6-1.2,1.2-1.2s1.3,0.6,1.3,1.2v597
		C761.5,688.4,760.9,688.9,760.2,688.9z"/>
</g>
<g>
	<path class="st0" d="M665.2,33.7l-26,4v-8 M1.2,33.7l26-4v8"/>
</g>
<path class="st0" d="M93.2,668.9c-0.3,0-0.6-0.1-0.9-0.3c-0.2-0.2-0.3-0.6-0.3-0.9c0-0.3,0.1-0.7,0.3-0.9c0.5-0.4,1.3-0.4,1.8,0
	c0.2,0.3,0.3,0.6,0.3,0.9c0,0.4-0.1,0.7-0.3,0.9C93.8,668.8,93.5,668.9,93.2,668.9z"/>
<path class="st0" d="M573.2,668.9c-0.3,0-0.7-0.1-0.9-0.3s-0.4-0.5-0.4-0.9c0-0.3,0.2-0.7,0.4-0.9c0.5-0.4,1.3-0.4,1.8,0
	c0.2,0.2,0.4,0.6,0.4,0.9c0,0.4-0.2,0.7-0.4,0.9C573.8,668.8,573.5,668.9,573.2,668.9z"/>
<path class="st0" d="M59.2,622c-0.3,0-0.6-0.2-0.9-0.4c-0.2-0.2-0.4-0.6-0.4-0.9c0-0.3,0.2-0.6,0.4-0.9c0.5-0.4,1.3-0.5,1.8,0
	c0.2,0.2,0.3,0.6,0.3,0.9c0,0.3-0.1,0.7-0.3,0.9C59.8,621.8,59.5,622,59.2,622z"/>
<path class="st0" d="M607.2,622c-0.3,0-0.6-0.2-0.9-0.4c-0.2-0.2-0.4-0.6-0.4-0.9c0-0.3,0.2-0.6,0.4-0.9c0.5-0.4,1.3-0.5,1.8,0
	c0.2,0.3,0.3,0.6,0.3,0.9c0,0.3-0.1,0.7-0.3,0.9C607.9,621.8,607.5,622,607.2,622z"/>
<path class="st0" d="M49.2,326.9c-0.7,0-1.3-0.6-1.3-1.2v-1c0-0.2,0-0.4,0.1-0.6l0.9-1.9l1-4.8c0.1-0.7,0.7-1.1,1.5-1
	c0.7,0.1,1.1,0.8,1,1.5l-1,5c0,0.1-0.1,0.2-0.1,0.3l-0.9,1.7v0.7C50.5,326.4,49.9,326.9,49.2,326.9z"/>
<path class="st0" d="M347.2,92c-0.3,0-0.6-0.2-0.9-0.4c-0.2-0.2-0.3-0.6-0.3-0.9s0.1-0.6,0.3-0.9c0.5-0.4,1.3-0.5,1.8,0
	c0.2,0.3,0.3,0.6,0.3,0.9s-0.1,0.7-0.3,0.9C347.8,91.8,347.5,92,347.2,92z"/>
<path class="st0" d="M56.2,222.9c-0.3,0-0.6-0.1-0.9-0.3c-0.2-0.2-0.3-0.6-0.3-0.9s0.1-0.6,0.3-0.9c0.5-0.5,1.3-0.4,1.8,0
	c0.2,0.3,0.4,0.6,0.4,0.9s-0.2,0.6-0.4,0.9C56.9,222.8,56.5,222.9,56.2,222.9z"/>
<path class="st0" d="M319.2,92c-0.3,0-0.7-0.2-0.9-0.4c-0.2-0.2-0.4-0.6-0.4-0.9s0.2-0.6,0.4-0.9c0.4-0.4,1.3-0.5,1.8,0
	c0.2,0.3,0.4,0.6,0.4,0.9s-0.2,0.7-0.4,0.9C319.8,91.8,319.5,92,319.2,92z"/>
<path class="st0" d="M39.2,244.9c-0.3,0-0.6-0.1-0.9-0.3c-0.2-0.3-0.3-0.6-0.3-0.9c0-0.3,0.1-0.7,0.3-0.9c0.5-0.5,1.3-0.4,1.8,0
	c0.2,0.3,0.4,0.6,0.4,0.9c0,0.3-0.2,0.6-0.4,0.9C39.9,244.8,39.5,244.9,39.2,244.9z"/>
<path class="st0" d="M1.2,376c-0.3,0-0.6-0.2-0.9-0.4C0.1,375.3,0,375,0,374.7s0.1-0.7,0.3-0.9c0.5-0.5,1.3-0.4,1.8,0
	c0.2,0.3,0.4,0.6,0.4,0.9s-0.2,0.6-0.4,0.9C1.9,375.8,1.5,376,1.2,376z"/>
<path class="st0" d="M1.2,403c-0.4,0-0.7-0.2-0.9-0.4c-0.2-0.2-0.3-0.5-0.3-0.9c0-0.3,0.1-0.7,0.3-0.9c0.5-0.5,1.3-0.5,1.8,0
	c0.2,0.2,0.4,0.6,0.4,0.9s-0.2,0.6-0.4,0.9C1.9,402.8,1.6,403,1.2,403z"/>
<path class="st0" d="M222.2,108.9c-0.6,0-1.1-0.4-1.2-0.9c-0.2-0.7,0.2-1.4,0.9-1.5l11-3l28-7l29.1-5l29.1-2
	c0.7-0.1,1.3,0.5,1.3,1.2s-0.5,1.3-1.2,1.3l-29,2l-28.9,5l-27.9,7l-11,3C222.4,108.9,222.3,108.9,222.2,108.9z"/>
<path class="st0" d="M56.2,222.9c-0.3,0-0.6-0.1-0.8-0.3c-0.5-0.4-0.6-1.2-0.2-1.8l8-10l23.1-24.1l26.1-22.1l28.1-19.1l29.1-17
	l38.1-17.1c0.6-0.3,1.4,0,1.6,0.7s0,1.4-0.7,1.6l-7,3l-31,14l-28.9,16.9l-27.9,19l-25.8,22l-22.9,23.9l-7.9,9.9
	C57,222.8,56.6,222.9,56.2,222.9z"/>
<path class="st0" d="M641.2,266.9c-0.4,0-0.8-0.2-1-0.6l-18-27l-20.9-26.9l-22.9-23.9l-25.9-21.9l-27.9-18.9l-28.9-17l-37.9-16.9
	c-0.6-0.3-0.9-1-0.7-1.6c0.3-0.6,1-0.9,1.6-0.7l7,3l31,14l29.1,17.1l28.1,19l26.1,22.1l23.1,24.1l21.1,27.1l18.1,27.1
	c0.4,0.6,0.2,1.4-0.4,1.7C641.7,266.9,641.5,266.9,641.2,266.9z"/>
<path class="st0" d="M444.2,108.9c-0.1,0-0.2,0-0.3,0l-11-3l-28-7l-28.9-5l-28.9-2c-0.7,0-1.2-0.6-1.2-1.3c0-0.7,0.6-1.3,1.3-1.2
	l29,2l29.1,5l28.1,7l11,3c0.7,0.2,1.1,0.9,0.9,1.5C445.3,108.6,444.8,108.9,444.2,108.9z"/>
<path class="st0" d="M665.2,605.9c-0.7,0-1.2-0.6-1.2-1.2v-275c0-0.7,0.6-1.2,1.2-1.2c0.7,0,1.3,0.6,1.3,1.2v275
	C666.5,605.4,665.9,605.9,665.2,605.9z"/>
<path class="st0" d="M629.2,666.9c-0.5,0-1-0.3-1.2-0.8c-0.3-0.6,0.1-1.4,0.7-1.6l4.8-1.9l6.8-5.9l4.8-6.8c0.4-0.6,1.2-0.7,1.7-0.3
	c0.6,0.4,0.7,1.2,0.3,1.7l-5,7l-7.2,6.2c-0.1,0.1-0.2,0.2-0.3,0.2l-5,2C629.5,666.9,629.4,666.9,629.2,666.9z"/>
<path class="st0" d="M617.2,668.9h-44c-0.7,0-1.2-0.6-1.2-1.2s0.6-1.2,1.2-1.2h44c0.7,0,1.2,0.6,1.2,1.2S617.9,668.9,617.2,668.9z"
	/>
<path class="st0" d="M665.2,330.9c-0.7,0-1.2-0.6-1.2-1.2v-1c0-0.7,0.6-1.2,1.2-1.2c0.7,0,1.3,0.6,1.3,1.2v1
	C666.5,330.4,665.9,330.9,665.2,330.9z"/>
<path class="st0" d="M658.2,298.9c-0.3,0-0.6-0.1-0.9-0.4l-1-1c-0.5-0.5-0.5-1.3,0-1.8s1.3-0.5,1.8,0l1,1c0.5,0.5,0.5,1.3,0,1.8
	C658.9,298.8,658.5,298.9,658.2,298.9z"/>
<path class="st0" d="M646.2,651.9c-0.2,0-0.4,0-0.6-0.1c-0.6-0.3-0.9-1.1-0.6-1.7l16-32c0.3-0.6,1.1-0.9,1.7-0.6
	c0.6,0.3,0.9,1.1,0.6,1.7l-16,32C647.1,651.7,646.7,651.9,646.2,651.9z"/>
<path class="st0" d="M662.2,619.9c-0.1,0-0.2,0-0.3,0c-0.7-0.2-1.1-0.9-0.9-1.5l2-7l1-6.8c0.1-0.7,0.8-1.2,1.4-1.1
	c0.7,0.1,1.2,0.7,1.1,1.4l-1,7l-2,7.2C663.3,619.6,662.8,619.9,662.2,619.9z"/>
<path class="st0" d="M1.2,375.9c-0.7,0-1.3-0.6-1.3-1.2v-45c0-0.7,0.6-1.2,1.3-1.2s1.3,0.6,1.3,1.2v45
	C2.5,375.4,1.9,375.9,1.2,375.9z"/>
<path class="st0" d="M24.2,267.9c-0.2,0-0.5-0.1-0.7-0.2c-0.6-0.4-0.7-1.1-0.4-1.7l15-23c0.4-0.6,1.2-0.7,1.7-0.4
	c0.6,0.4,0.7,1.1,0.4,1.7l-15,23C25,267.7,24.6,267.9,24.2,267.9z"/>
<path class="st0" d="M8.2,299.9c-0.7,0-1.3-0.6-1.3-1.2v-2c0-0.7,0.6-1.2,1.3-1.2s1.3,0.6,1.3,1.2v2C9.5,299.4,8.9,299.9,8.2,299.9z
	"/>
<path class="st0" d="M1.2,330.9H1.1c-0.7-0.1-1.2-0.7-1.1-1.3l1-12c0.1-0.7,0.6-1.2,1.3-1.1s1.2,0.7,1.1,1.3l-1,12
	C2.4,330.4,1.9,330.9,1.2,330.9z"/>
<path class="st0" d="M49.2,668.9L49.2,668.9l-9.1-1l-8.3-3.1c-0.1,0-0.3-0.1-0.4-0.2l-7-6c-0.1-0.1-0.2-0.2-0.3-0.3l-4-7
	c-0.3-0.6-0.1-1.4,0.5-1.7c0.6-0.4,1.4-0.1,1.7,0.5l3.9,6.8l6.7,5.7l7.8,2.9l8.7,0.9c0.7,0.1,1.2,0.7,1.1,1.4
	C50.4,668.5,49.9,668.9,49.2,668.9z"/>
<path class="st0" d="M1.2,605.9c-0.7,0-1.3-0.6-1.3-1.2v-203c0-0.7,0.6-1.2,1.3-1.2s1.3,0.6,1.3,1.2v203
	C2.5,605.4,1.9,605.9,1.2,605.9z"/>
<path class="st0" d="M93.2,668.9h-44c-0.7,0-1.3-0.6-1.3-1.2s0.6-1.2,1.3-1.2h44c0.7,0,1.2,0.6,1.2,1.2S93.9,668.9,93.2,668.9z"/>
<path class="st0" d="M21.2,651.9c-0.5,0-0.9-0.3-1.1-0.7l-16-32c-0.3-0.6-0.1-1.4,0.6-1.7c0.6-0.3,1.4-0.1,1.7,0.6l16,32
	c0.3,0.6,0.1,1.4-0.6,1.7C21.6,651.9,21.4,651.9,21.2,651.9z"/>
<path class="st0" d="M5.2,619.9c-0.5,0-0.9-0.3-1.1-0.8l-3-7c0-0.1-0.1-0.2-0.1-0.3l-1-7c-0.1-0.7,0.4-1.3,1.1-1.4
	c0.6-0.1,1.3,0.4,1.4,1.1l1,6.8l2.9,6.9c0.3,0.6,0,1.4-0.7,1.6C5.6,619.9,5.4,619.9,5.2,619.9z"/>
<path class="st0" d="M489.2,688.9c-0.7,0-1.2-0.6-1.2-1.2v-20c0-0.7,0.6-1.2,1.2-1.2s1.2,0.6,1.2,1.2v20
	C490.5,688.4,489.9,688.9,489.2,688.9z"/>
<path class="st0" d="M489.2,688.9h-8c-0.7,0-1.2-0.6-1.2-1.2v-20c0-0.7,0.6-1.2,1.2-1.2s1.2,0.6,1.2,1.2v18.8h6.8
	c0.7,0,1.2,0.6,1.2,1.2S489.9,688.9,489.2,688.9z"/>
<path class="st0" d="M411.2,688.9c-0.7,0-1.2-0.6-1.2-1.2v-20c0-0.7,0.6-1.2,1.2-1.2s1.2,0.6,1.2,1.2v20
	C412.5,688.4,411.9,688.9,411.2,688.9z"/>
<path class="st0" d="M419.2,688.9c-0.7,0-1.2-0.6-1.2-1.2v-20c0-0.7,0.6-1.2,1.2-1.2s1.2,0.6,1.2,1.2v20
	C420.5,688.4,419.9,688.9,419.2,688.9z"/>
<path class="st0" d="M419.2,688.9h-8c-0.7,0-1.2-0.6-1.2-1.2s0.6-1.2,1.2-1.2h8c0.7,0,1.2,0.6,1.2,1.2S419.9,688.9,419.2,688.9z"/>
<path class="st0" d="M465.2,688.9c-0.7,0-1.2-0.6-1.2-1.2v-20c0-0.7,0.6-1.2,1.2-1.2s1.2,0.6,1.2,1.2v20
	C466.5,688.4,465.9,688.9,465.2,688.9z"/>
<path class="st0" d="M435.2,688.9c-0.7,0-1.2-0.6-1.2-1.2v-20c0-0.7,0.6-1.2,1.2-1.2s1.2,0.6,1.2,1.2v20
	C436.5,688.4,435.9,688.9,435.2,688.9z"/>
<path class="st0" d="M481.2,688.9h-16c-0.7,0-1.2-0.6-1.2-1.2s0.6-1.2,1.2-1.2h16c0.7,0,1.2,0.6,1.2,1.2S481.9,688.9,481.2,688.9z"
	/>
<path class="st0" d="M465.2,688.9h-46c-0.7,0-1.2-0.6-1.2-1.2s0.6-1.2,1.2-1.2h46c0.7,0,1.2,0.6,1.2,1.2S465.9,688.9,465.2,688.9z"
	/>
<path class="st0" d="M255.2,688.9c-0.7,0-1.3-0.6-1.3-1.2v-20c0-0.7,0.6-1.2,1.3-1.2s1.2,0.6,1.2,1.2v20
	C256.5,688.4,255.9,688.9,255.2,688.9z"/>
<path class="st0" d="M263.2,688.9c-0.7,0-1.2-0.6-1.2-1.2v-20c0-0.7,0.6-1.2,1.2-1.2s1.2,0.6,1.2,1.2v20
	C264.5,688.4,263.9,688.9,263.2,688.9z"/>
<path class="st0" d="M263.2,688.9h-8c-0.7,0-1.3-0.6-1.3-1.2s0.6-1.2,1.3-1.2h8c0.7,0,1.2,0.6,1.2,1.2S263.9,688.9,263.2,688.9z"/>
<path class="st0" d="M333.2,688.9h-8c-0.7,0-1.3-0.6-1.3-1.2s0.6-1.2,1.3-1.2h8c0.7,0,1.2,0.6,1.2,1.2S333.9,688.9,333.2,688.9z"/>
<path class="st0" d="M325.2,688.9c-0.7,0-1.3-0.6-1.3-1.2v-20c0-0.7,0.6-1.2,1.3-1.2c0.7,0,1.2,0.6,1.2,1.2v20
	C326.5,688.4,325.9,688.9,325.2,688.9z"/>
<path class="st0" d="M333.2,688.9c-0.7,0-1.3-0.6-1.3-1.2v-20c0-0.7,0.6-1.2,1.3-1.2c0.7,0,1.2,0.6,1.2,1.2v20
	C334.5,688.4,333.9,688.9,333.2,688.9z"/>
<path class="st0" d="M309.2,688.9c-0.7,0-1.3-0.6-1.3-1.2v-20c0-0.7,0.6-1.2,1.3-1.2c0.7,0,1.2,0.6,1.2,1.2v20
	C310.5,688.4,309.9,688.9,309.2,688.9z"/>
<path class="st0" d="M279.2,688.9c-0.7,0-1.2-0.6-1.2-1.2v-20c0-0.7,0.6-1.2,1.2-1.2s1.2,0.6,1.2,1.2v20
	C280.5,688.4,279.9,688.9,279.2,688.9z"/>
<path class="st0" d="M325.2,688.9h-16c-0.7,0-1.3-0.6-1.3-1.2s0.6-1.2,1.3-1.2h16c0.7,0,1.2,0.6,1.2,1.2S325.9,688.9,325.2,688.9z"
	/>
<path class="st0" d="M309.2,688.9h-46c-0.7,0-1.2-0.6-1.2-1.2s0.6-1.2,1.2-1.2h46c0.7,0,1.2,0.6,1.2,1.2S309.9,688.9,309.2,688.9z"
	/>
<path class="st0" d="M497.2,688.9c-0.7,0-1.2-0.6-1.2-1.2v-20c0-0.7,0.6-1.2,1.2-1.2s1.2,0.6,1.2,1.2v20
	C498.5,688.4,497.9,688.9,497.2,688.9z"/>
<path class="st0" d="M497.2,688.9h-8c-0.7,0-1.2-0.6-1.2-1.2s0.6-1.2,1.2-1.2h8c0.7,0,1.2,0.6,1.2,1.2S497.9,688.9,497.2,688.9z"/>
<path class="st0" d="M489.2,688.9c-0.7,0-1.2-0.6-1.2-1.2v-20c0-0.7,0.6-1.2,1.2-1.2s1.2,0.6,1.2,1.2v20
	C490.5,688.4,489.9,688.9,489.2,688.9z"/>
<path class="st0" d="M559.2,688.9c-0.7,0-1.2-0.6-1.2-1.2v-20c0-0.7,0.6-1.2,1.2-1.2s1.2,0.6,1.2,1.2v20
	C560.5,688.4,559.9,688.9,559.2,688.9z"/>
<path class="st0" d="M567.2,688.9c-0.7,0-1.2-0.6-1.2-1.2v-20c0-0.7,0.6-1.2,1.2-1.2s1.2,0.6,1.2,1.2v20
	C568.5,688.4,567.9,688.9,567.2,688.9z"/>
<path class="st0" d="M567.2,688.9h-8c-0.7,0-1.2-0.6-1.2-1.2s0.6-1.2,1.2-1.2h8c0.7,0,1.2,0.6,1.2,1.2S567.9,688.9,567.2,688.9z"/>
<path class="st0" d="M543.2,688.9c-0.7,0-1.2-0.6-1.2-1.2v-20c0-0.7,0.6-1.2,1.2-1.2s1.2,0.6,1.2,1.2v20
	C544.5,688.4,543.9,688.9,543.2,688.9z"/>
<path class="st0" d="M513.2,688.9c-0.7,0-1.2-0.6-1.2-1.2v-20c0-0.7,0.6-1.2,1.2-1.2s1.2,0.6,1.2,1.2v20
	C514.5,688.4,513.9,688.9,513.2,688.9z"/>
<path class="st0" d="M559.2,688.9h-16c-0.7,0-1.2-0.6-1.2-1.2s0.6-1.2,1.2-1.2h16c0.7,0,1.2,0.6,1.2,1.2S559.9,688.9,559.2,688.9z"
	/>
<path class="st0" d="M543.2,688.9h-46c-0.7,0-1.2-0.6-1.2-1.2s0.6-1.2,1.2-1.2h46c0.7,0,1.2,0.6,1.2,1.2S543.9,688.9,543.2,688.9z"
	/>
<path class="st0" d="M255.2,688.9c-0.7,0-1.3-0.6-1.3-1.2v-20c0-0.7,0.6-1.2,1.3-1.2s1.2,0.6,1.2,1.2v20
	C256.5,688.4,255.9,688.9,255.2,688.9z"/>
<path class="st0" d="M255.2,688.9h-8c-0.7,0-1.3-0.6-1.3-1.2s0.6-1.2,1.3-1.2h8c0.7,0,1.2,0.6,1.2,1.2S255.9,688.9,255.2,688.9z"/>
<path class="st0" d="M247.2,688.9c-0.7,0-1.3-0.6-1.3-1.2v-20c0-0.7,0.6-1.2,1.3-1.2s1.2,0.6,1.2,1.2v20
	C248.5,688.4,247.9,688.9,247.2,688.9z"/>
<path class="st0" d="M177.2,688.9c-0.7,0-1.2-0.6-1.2-1.2v-20c0-0.7,0.6-1.2,1.2-1.2s1.3,0.6,1.3,1.2v20
	C178.5,688.4,177.9,688.9,177.2,688.9z"/>
<path class="st0" d="M185.2,688.9c-0.7,0-1.2-0.6-1.2-1.2v-20c0-0.7,0.6-1.2,1.2-1.2s1.3,0.6,1.3,1.2v20
	C186.5,688.4,185.9,688.9,185.2,688.9z"/>
<path class="st0" d="M185.2,688.9h-8c-0.7,0-1.2-0.6-1.2-1.2s0.6-1.2,1.2-1.2h8c0.7,0,1.3,0.6,1.3,1.2S185.9,688.9,185.2,688.9z"/>
<path class="st0" d="M201.2,688.9c-0.7,0-1.2-0.6-1.2-1.2v-20c0-0.7,0.6-1.2,1.2-1.2s1.3,0.6,1.3,1.2v20
	C202.5,688.4,201.9,688.9,201.2,688.9z"/>
<path class="st0" d="M247.2,688.9h-16c-0.7,0-1.3-0.6-1.3-1.2v-20c0-0.7,0.6-1.2,1.3-1.2s1.2,0.6,1.2,1.2v18.8h14.8
	c0.7,0,1.2,0.6,1.2,1.2S247.9,688.9,247.2,688.9z"/>
<path class="st0" d="M231.2,688.9h-46c-0.7,0-1.2-0.6-1.2-1.2s0.6-1.2,1.2-1.2h46c0.7,0,1.2,0.6,1.2,1.2S231.9,688.9,231.2,688.9z"
	/>
<path class="st0" d="M177.2,688.9h-8c-0.7,0-1.2-0.6-1.2-1.2s0.6-1.2,1.2-1.2h8c0.7,0,1.3,0.6,1.3,1.2S177.9,688.9,177.2,688.9z"/>
<path class="st0" d="M169.2,688.9c-0.7,0-1.2-0.6-1.2-1.2v-20c0-0.7,0.6-1.2,1.2-1.2s1.3,0.6,1.3,1.2v20
	C170.5,688.4,169.9,688.9,169.2,688.9z"/>
<path class="st0" d="M177.2,688.9c-0.7,0-1.2-0.6-1.2-1.2v-20c0-0.7,0.6-1.2,1.2-1.2s1.3,0.6,1.3,1.2v20
	C178.5,688.4,177.9,688.9,177.2,688.9z"/>
<path class="st0" d="M99.2,688.9c-0.7,0-1.3-0.6-1.3-1.2v-20c0-0.7,0.6-1.2,1.3-1.2c0.7,0,1.2,0.6,1.2,1.2v20
	C100.5,688.4,99.9,688.9,99.2,688.9z"/>
<path class="st0" d="M106.2,688.9h-7c-0.7,0-1.3-0.6-1.3-1.2s0.6-1.2,1.3-1.2h5.8v-18.8c0-0.7,0.6-1.2,1.3-1.2s1.3,0.6,1.3,1.2v20
	C107.5,688.4,106.9,688.9,106.2,688.9z"/>
<path class="st0" d="M153.2,688.9c-0.7,0-1.2-0.6-1.2-1.2v-20c0-0.7,0.6-1.2,1.2-1.2s1.3,0.6,1.3,1.2v20
	C154.5,688.4,153.9,688.9,153.2,688.9z"/>
<path class="st0" d="M123.2,688.9c-0.7,0-1.3-0.6-1.3-1.2v-20c0-0.7,0.6-1.2,1.3-1.2c0.7,0,1.2,0.6,1.2,1.2v20
	C124.5,688.4,123.9,688.9,123.2,688.9z"/>
<path class="st0" d="M169.2,688.9h-16c-0.7,0-1.2-0.6-1.2-1.2s0.6-1.2,1.2-1.2h16c0.7,0,1.3,0.6,1.3,1.2S169.9,688.9,169.2,688.9z"
	/>
<path class="st0" d="M153.2,688.9h-47c-0.7,0-1.3-0.6-1.3-1.2s0.6-1.2,1.3-1.2h47c0.7,0,1.3,0.6,1.3,1.2S153.9,688.9,153.2,688.9z"
	/>
<path class="st0" d="M411.2,688.9h-8c-0.7,0-1.2-0.6-1.2-1.2s0.6-1.2,1.2-1.2h6.7v-18.8c0-0.7,0.6-1.2,1.2-1.2s1.2,0.6,1.2,1.2v20
	C412.5,688.4,411.9,688.9,411.2,688.9z"/>
<path class="st0" d="M403.2,688.9c-0.7,0-1.2-0.6-1.2-1.2v-20c0-0.7,0.6-1.2,1.2-1.2s1.2,0.6,1.2,1.2v20
	C404.5,688.4,403.9,688.9,403.2,688.9z"/>
<path class="st0" d="M341.2,688.9c-0.7,0-1.3-0.6-1.3-1.2v-20c0-0.7,0.6-1.2,1.3-1.2c0.7,0,1.2,0.6,1.2,1.2v20
	C342.5,688.4,341.9,688.9,341.2,688.9z"/>
<path class="st0" d="M341.2,688.9h-8c-0.7,0-1.3-0.6-1.3-1.2s0.6-1.2,1.3-1.2h8c0.7,0,1.2,0.6,1.2,1.2S341.9,688.9,341.2,688.9z"/>
<path class="st0" d="M333.2,688.9c-0.7,0-1.3-0.6-1.3-1.2v-20c0-0.7,0.6-1.2,1.3-1.2c0.7,0,1.2,0.6,1.2,1.2v20
	C334.5,688.4,333.9,688.9,333.2,688.9z"/>
<path class="st0" d="M387.2,688.9c-0.7,0-1.2-0.6-1.2-1.2v-20c0-0.7,0.6-1.2,1.2-1.2s1.2,0.6,1.2,1.2v20
	C388.5,688.4,387.9,688.9,387.2,688.9z"/>
<path class="st0" d="M357.2,688.9c-0.7,0-1.3-0.6-1.3-1.2v-20c0-0.7,0.6-1.2,1.3-1.2c0.7,0,1.2,0.6,1.2,1.2v20
	C358.5,688.4,357.9,688.9,357.2,688.9z"/>
<path class="st0" d="M403.2,688.9h-16c-0.7,0-1.2-0.6-1.2-1.2s0.6-1.2,1.2-1.2h16c0.7,0,1.2,0.6,1.2,1.2S403.9,688.9,403.2,688.9z"
	/>
<path class="st0" d="M387.2,688.9h-46c-0.7,0-1.3-0.6-1.3-1.2s0.6-1.2,1.3-1.2h46c0.7,0,1.2,0.6,1.2,1.2S387.9,688.9,387.2,688.9z"
	/>
<path class="st0" d="M607.2,621.9h-548c-0.5,0-0.9-0.3-1.1-0.7l-10-20c-0.1-0.2-0.1-0.4-0.1-0.6v-277c0-0.2,0-0.3,0.1-0.5l3-7
	L68.2,285l20-30l24.1-26.2l26.1-24.1l23.1-16.1l23.1-14l25.1-12.1l26.1-10l26.1-8l32.2-5l32.1-3h14.1l32.1,2l32.2,6h0.1l33,10
	l31.1,13l31.1,17.1l28.1,20.1l26.1,24.1l24.1,26.1l20.1,30.2l17.1,31.1l2.1,7.3l1,6.1v271.2c0,0.2,0,0.4-0.1,0.6l-10,20
	C608.1,621.7,607.7,621.9,607.2,621.9z M60,619.4h546.5l9.5-19V329.7l-1-5.8l-2-6.9l-16.9-30.7l-20-29.9l-23.9-25.8l-25.9-23.9
	l-27.9-19.9l-30.9-16.9L436.6,157l-32.8-9.9l-31.9-6l-31.9-2h-13.9l-31.9,3l-31.9,5l-25.8,8l-25.9,10l-24.9,12L162.8,191l-22.9,16
	L114,230.9l-23.9,25.9l-19.9,29.8l-16.9,30.9l-2.8,6.7v276.5L60,619.4z"/>
<path class="st0" d="M664.2,605.9c-0.7,0-1.2-0.6-1.2-1.2v-275c0-0.7,0.6-1.2,1.2-1.2s1.3,0.6,1.3,1.2v275
	C665.5,605.4,664.9,605.9,664.2,605.9z"/>
<path class="st0" d="M664.2,605.9c-0.3,0-0.7-0.1-0.9-0.3s-0.4-0.6-0.4-0.9s0.2-0.7,0.4-0.9c0.5-0.5,1.3-0.4,1.8,0
	c0.2,0.2,0.3,0.6,0.3,0.9s-0.1,0.6-0.3,0.9C664.8,605.8,664.5,605.9,664.2,605.9z"/>
<path class="st0" d="M2.2,605.9c-0.3,0-0.6-0.1-0.9-0.3C1.1,605.3,1,605,1,604.7s0.1-0.7,0.3-0.9c0.5-0.4,1.3-0.5,1.8,0
	c0.2,0.2,0.3,0.6,0.3,0.9c0,0.4-0.1,0.7-0.3,0.9C2.9,605.8,2.6,605.9,2.2,605.9z"/>
<path class="st0" d="M2.2,605.9c-0.7,0-1.3-0.6-1.3-1.2v-275c0-0.7,0.6-1.2,1.3-1.2s1.3,0.6,1.3,1.2v275
	C3.5,605.4,2.9,605.9,2.2,605.9z"/>
<path class="st0" d="M49.2,667.9h-4c-8.8-1-16.4-5.6-22-13.5l-2.1-4.2c-0.3-0.6-0.1-1.4,0.6-1.7c0.6-0.3,1.4,0,1.7,0.6l2,4
	c5.1,7.1,12.1,11.4,20,12.3h3.9c0.7,0,1.3,0.6,1.3,1.3S49.9,667.9,49.2,667.9z"/>
<path class="st0" d="M618.2,667.9c-0.7,0-1.3-0.6-1.3-1.2s0.6-1.3,1.3-1.3h4c7.4-0.9,15.2-5.7,20-12.5l1.9-3.8
	c0.3-0.6,1.1-0.9,1.7-0.6c0.6,0.3,0.9,1.1,0.6,1.7l-2,4c-5.3,7.5-13.7,12.7-22,13.7L618.2,667.9z"/>
<path class="st0" d="M21.2,650.9c-0.5,0-0.9-0.3-1.1-0.7l-16-32c-0.3-0.6-0.1-1.4,0.6-1.7c0.6-0.3,1.4-0.1,1.7,0.6l16,32
	c0.3,0.6,0.1,1.4-0.6,1.7C21.6,650.9,21.4,650.9,21.2,650.9z"/>
<path class="st0" d="M661.2,618.9h-1c-0.7,0-1.2-0.6-1.2-1.2c0-0.7,0.6-1.3,1.2-1.3h1c0.7,0,1.2,0.6,1.2,1.3
	C662.5,618.4,661.9,618.9,661.2,618.9z"/>
<path class="st0" d="M645.2,650.9c-0.2,0-0.4,0-0.6-0.1c-0.6-0.3-0.9-1.1-0.6-1.7l16-32c0.3-0.6,1.1-0.9,1.7-0.6
	c0.6,0.3,0.9,1.1,0.6,1.7l-16,32C646.1,650.7,645.7,650.9,645.2,650.9z"/>
<path class="st0" d="M617.2,667.9h-568c-0.7,0-1.3-0.6-1.3-1.2s0.6-1.3,1.3-1.3h568c0.7,0,1.2,0.6,1.2,1.3S617.9,667.9,617.2,667.9z
	"/>
<path class="st0" d="M657.2,297.9c-0.4,0-0.9-0.2-1.1-0.7l-10-19l-22-35.9l-12.9-16.9l-13.9-15.9l-15-16l-15.9-13.9l-16-13l-17-13
	l-17.9-10.9l-19-11l-18.9-9l-19.9-8l-19.9-7l-20.9-6l-19.9-4l-20.9-3l-21.9-2l-20.9-1l-20.9,1l-21.9,2l-19.9,3l-21,4l-20.9,6
	l-19.9,7l-20,8l-18.9,9l-18.9,11l-18,11l-34,26l-14.9,13.9l-14.9,15.9l-14,16l-12.9,16.9l-21.9,35.9l-10,18.9
	c-0.3,0.6-1.1,0.9-1.7,0.5c-0.6-0.3-0.8-1.1-0.5-1.7l10-19l22-36.1l13.1-17.1l14-16.1l15-16l15.1-14.1l34.1-26.1l18.1-11.1l19-11
	l19.1-9l20.1-8l20-7l21.1-6l21.1-4l20-3l22.1-2l21-1l21.1,1l22.1,2l21.1,3l20.1,4l21.1,6l20.1,7l20.1,8l19.1,9l19.1,11l18,11
	l17.1,13.1l16,13l16,14l15.1,16.1l14,16l13.1,17.1l22.1,36.1l10,19.1c0.3,0.6,0.1,1.4-0.5,1.7C657.6,297.9,657.4,297.9,657.2,297.9z
	"/>
<path class="st0" d="M664.2,330.9c-0.6,0-1.2-0.5-1.2-1.1l-1-11c-0.1-0.7,0.4-1.3,1.1-1.4c0.6-0.1,1.3,0.4,1.4,1.1l1,11
	c0.1,0.7-0.4,1.3-1.1,1.4C664.3,330.9,664.3,330.9,664.2,330.9z"/>
<path class="st0" d="M657.2,298c-0.3,0-0.6-0.2-0.9-0.4c-0.2-0.2-0.3-0.6-0.3-0.9s0.1-0.7,0.3-0.9c0.5-0.4,1.3-0.5,1.8,0
	c0.2,0.3,0.4,0.6,0.4,0.9s-0.2,0.6-0.4,0.9C657.9,297.8,657.5,298,657.2,298z"/>
<path class="st0" d="M661.2,308.9c-0.5,0-1-0.3-1.2-0.8l-4-11c-0.2-0.6,0.1-1.4,0.7-1.6c0.7-0.2,1.4,0.1,1.6,0.8l4,11
	c0.2,0.6-0.1,1.4-0.7,1.6C661.5,308.9,661.4,308.9,661.2,308.9z"/>
<path class="st0" d="M663.2,319.9c-0.6,0-1.1-0.4-1.2-1l-2-11c-0.1-0.7,0.3-1.3,1-1.5s1.3,0.3,1.5,1l2,11c0.1,0.7-0.3,1.3-1,1.5
	C663.4,319.9,663.3,319.9,663.2,319.9z"/>
<path class="st0" d="M661.2,618.9c-0.2,0-0.4,0-0.6-0.1c-0.6-0.3-0.9-1.1-0.6-1.7l1-2c1.9-3.7,1.9-5.5,1.9-9.4v-2
	c0-0.7,0.6-1.2,1.2-1.2s1.3,0.6,1.3,1.2v2c0,4.1,0,6.3-2.1,10.6l-1,2C662.1,618.7,661.7,618.9,661.2,618.9z"/>
<path class="st0" d="M3.2,319.9c-0.1,0-0.1,0-0.2,0c-0.7-0.1-1.1-0.8-1-1.5l2-11l4-11.2c0.2-0.6,1-1,1.6-0.8s1,1,0.8,1.6l-4,11
	l-1.9,10.8C4.3,319.5,3.8,319.9,3.2,319.9z"/>
<path class="st0" d="M2.2,330.9L2.2,330.9c-0.8-0.1-1.3-0.7-1.2-1.4l1-11c0.1-0.7,0.6-1.2,1.4-1.1c0.7,0.1,1.2,0.7,1.1,1.4l-1,11
	C3.4,330.4,2.9,330.9,2.2,330.9z"/>
<path class="st0" d="M5.2,618.9c-0.7,0-1.3-0.6-1.3-1.2V617L2,613.3c0-0.2,0-0.4,0-0.6V612l-0.9-1.7C1,610,1,609.9,1,609.7v-5
	c0-0.7,0.6-1.2,1.3-1.2s1.3,0.6,1.3,1.2v4.7l0.9,1.7c0.1,0.2,0.1,0.4,0.1,0.6v0.7l1.9,3.7c0.1,0.2,0.1,0.4,0.1,0.6v1
	C6.5,618.4,5.9,618.9,5.2,618.9z"/>
<path class="st0" d="M615.2,319.9c-0.5,0-0.9-0.3-1.1-0.7l-1-2c-0.3-0.6,0-1.4,0.6-1.7c0.6-0.3,1.4,0,1.7,0.6l1,2
	c0.3,0.6,0,1.4-0.6,1.7C615.6,319.9,615.4,319.9,615.2,319.9z"/>
<path class="st0" d="M617.2,330.9c-0.7,0-1.3-0.6-1.3-1.2v-3c0-0.7,0.6-1.2,1.3-1.2s1.2,0.6,1.2,1.2v3
	C618.5,330.4,617.9,330.9,617.2,330.9z"/>
<path class="st0" d="M51.2,319.9c-0.2,0-0.4,0-0.6-0.1c-0.6-0.3-0.9-1.1-0.6-1.7l1-2c0.3-0.6,1.1-0.9,1.7-0.6
	c0.6,0.3,0.9,1.1,0.6,1.7l-1,2C52.1,319.7,51.7,319.9,51.2,319.9z"/>
<path class="st0" d="M30.2,662.9c-0.3,0-0.6-0.1-0.9-0.4l-5-5l-4.2-6.2c-0.4-0.6-0.2-1.3,0.3-1.7c0.6-0.4,1.3-0.2,1.7,0.3l4,6
	l4.8,4.8c0.5,0.5,0.5,1.3,0,1.8C30.9,662.8,30.5,662.9,30.2,662.9z"/>
<path class="st0" d="M21.2,652c-0.3,0-0.6-0.2-0.9-0.4c-0.2-0.2-0.3-0.6-0.3-0.9c0-0.3,0.1-0.6,0.3-0.9c0.5-0.5,1.3-0.5,1.8,0
	c0.2,0.2,0.3,0.6,0.3,0.9c0,0.4-0.1,0.7-0.3,0.9C21.8,651.8,21.5,652,21.2,652z"/>
<path class="st0" d="M21.2,651.9c-0.7,0-1.3-0.6-1.3-1.2v-1c0-0.7,0.6-1.3,1.3-1.3c0.7,0,1.3,0.6,1.3,1.3v1
	C22.5,651.4,21.9,651.9,21.2,651.9z"/>
<path class="st0" d="M49.2,668.9h-3l-6.2-1l-6.2-2.1c-0.1,0-0.2-0.1-0.4-0.2l-4-3c-0.6-0.4-0.7-1.2-0.2-1.7c0.4-0.5,1.2-0.7,1.8-0.2
	l3.8,2.9l5.8,1.9l5.8,1H48c0.1-0.6,0.6-1,1.2-1c0.7,0,1.3,0.6,1.3,1.3v1C50.5,668.4,49.9,668.9,49.2,668.9z"/>
<path class="st0" d="M617.2,668.9c-0.7,0-1.3-0.6-1.3-1.2v-1c0-0.7,0.6-1.3,1.3-1.3s1.2,0.6,1.2,1.3v1
	C618.5,668.4,617.9,668.9,617.2,668.9z"/>
<path class="st0" d="M617.2,668.9h-46c-0.7,0-1.2-0.6-1.2-1.2s0.6-1.2,1.2-1.2h46c0.7,0,1.2,0.6,1.2,1.2S617.9,668.9,617.2,668.9z"
	/>
<path class="st0" d="M571.2,668.9c-0.3,0-0.7-0.1-0.9-0.3s-0.4-0.5-0.4-0.9c0-0.3,0.2-0.7,0.4-0.9c0.5-0.4,1.3-0.4,1.8,0
	c0.2,0.2,0.4,0.6,0.4,0.9c0,0.4-0.2,0.7-0.4,0.9C571.8,668.8,571.5,668.9,571.2,668.9z"/>
<path class="st0" d="M571.2,668.9c-0.3,0-0.7-0.1-0.9-0.3s-0.4-0.5-0.4-0.9c0-0.3,0.2-0.7,0.4-0.9c0.5-0.4,1.3-0.4,1.8,0
	c0.2,0.2,0.4,0.6,0.4,0.9c0,0.4-0.2,0.7-0.4,0.9C571.8,668.8,571.5,668.9,571.2,668.9z"/>
<path class="st0" d="M571.2,668.9h-476c-0.7,0-1.3-0.6-1.3-1.2s0.6-1.2,1.3-1.2h476c0.7,0,1.2,0.6,1.2,1.2S571.9,668.9,571.2,668.9z
	"/>
<path class="st0" d="M95.2,668.9c-0.3,0-0.6-0.1-0.9-0.3c-0.2-0.2-0.3-0.5-0.3-0.9c0-0.3,0.1-0.6,0.3-0.9c0.5-0.4,1.3-0.4,1.8,0
	c0.2,0.2,0.3,0.6,0.3,0.9c0,0.4-0.1,0.7-0.3,0.9C95.8,668.8,95.5,668.9,95.2,668.9z"/>
<path class="st0" d="M95.2,668.9c-0.3,0-0.6-0.1-0.9-0.3c-0.2-0.2-0.3-0.5-0.3-0.9c0-0.3,0.1-0.6,0.3-0.9c0.5-0.4,1.3-0.4,1.8,0
	c0.2,0.2,0.3,0.6,0.3,0.9c0,0.4-0.1,0.7-0.3,0.9C95.8,668.8,95.5,668.9,95.2,668.9z"/>
<path class="st0" d="M95.2,668.9h-46c-0.7,0-1.3-0.6-1.3-1.2s0.6-1.2,1.3-1.2h46c0.7,0,1.2,0.6,1.2,1.2S95.9,668.9,95.2,668.9z"/>
<path class="st0" d="M2.2,330.9h-1c-0.7,0-1.3-0.6-1.3-1.2s0.6-1.2,1.3-1.2h1c0.7,0,1.3,0.6,1.3,1.2S2.9,330.9,2.2,330.9z"/>
<path class="st0" d="M1.2,330.9c-0.7,0-1.3-0.6-1.3-1.2v-1c0-0.7,0.6-1.2,1.3-1.2s1.3,0.6,1.3,1.2v1C2.5,330.4,1.9,330.9,1.2,330.9z
	"/>
<path class="st0" d="M1.2,329.9c-0.3,0-0.7-0.1-0.9-0.3C0.1,329.3,0,329,0,328.7s0.1-0.6,0.3-0.9c0.5-0.4,1.3-0.5,1.8,0
	c0.2,0.2,0.3,0.6,0.3,0.9s-0.1,0.6-0.3,0.9C1.8,329.8,1.5,329.9,1.2,329.9z"/>
<path class="st0" d="M1.2,329.9H1.1c-0.7-0.1-1.2-0.7-1.1-1.4l2-17l5-15.2c0.2-0.5,0.6-0.9,1.2-0.9h1c0.7,0,1.3,0.6,1.3,1.2
	s-0.6,1.2-1.3,1.2H9.1l-4.7,14.1l-1.9,16.8C2.4,329.5,1.9,329.9,1.2,329.9z"/>
<path class="st0" d="M665.2,330.9h-1c-0.7,0-1.2-0.6-1.2-1.2s0.4-1.1,1-1.2l-3-19.6l-1.9-5.8l-2.9-5.8c-0.3-0.6,0-1.4,0.6-1.7
	c0.6-0.3,1.4-0.1,1.7,0.6l3,6l2.1,6.2l3.1,20.2v1.2C666.5,330.4,665.9,330.9,665.2,330.9z"/>
<path class="st0" d="M645.2,651.9c-0.1,0-0.2,0-0.3,0c-0.6-0.1-0.9-0.6-0.9-1.2v-1c0-0.6,0.4-1.1,1-1.2l15.3-28.9
	c-0.2-0.2-0.4-0.5-0.4-0.9v-1c0-0.7,0.6-1.3,1.2-1.3c0.6,0,1.1,0.4,1.2,1c0.4,0.1,0.7,0.3,0.8,0.6c0.2,0.4,0.2,0.8,0,1.2l-17,32
	C646.1,651.7,645.7,651.9,645.2,651.9z"/>
<path class="st0" d="M620.2,668.9h-3c-0.7,0-1.3-0.6-1.3-1.2s0.6-1.2,1.3-1.2h3c0.7,0,1.2,0.6,1.2,1.2S620.9,668.9,620.2,668.9z"/>
<path class="st0" d="M620.2,668.9c-0.6,0-1.1-0.4-1.2-1c-0.1-0.7,0.3-1.3,1-1.4l6-1l5.6-1.9l3.8-2.9l4.9-4.9l3.9-5.8
	c0.4-0.6,1.2-0.7,1.7-0.3c0.6,0.4,0.7,1.2,0.3,1.7l-4,6l-5.1,5.2l-4.1,3.1c-0.1,0.1-0.2,0.1-0.4,0.2l-6,2l-6.2,1.1
	C620.4,668.9,620.3,668.9,620.2,668.9z"/>
<path class="st0" d="M21.2,651.9c-0.5,0-0.9-0.3-1.1-0.7l-16-32c-0.3-0.6-0.1-1.4,0.6-1.7c0.6-0.3,1.4-0.1,1.7,0.6l16,32
	c0.3,0.6,0.1,1.4-0.6,1.7C21.6,651.9,21.4,651.9,21.2,651.9z"/>
<path class="st0" d="M8.2,297.9c-0.2,0-0.4,0-0.6-0.2c-0.6-0.3-0.8-1.1-0.5-1.7l17-31l20.1-30l23.1-28.1l25.1-25.1l28.1-23.1
	l29.1-19.1l32.1-17.1l33.1-13.1c0.6-0.3,1.4,0.1,1.6,0.7c0.3,0.6-0.1,1.4-0.7,1.6l-33,13l-31.9,16.9l-28.9,18.9L94,183.6l-24.9,24.9
	l-22.9,27.9l-19.9,29.9l-17,31C9.1,297.7,8.7,297.9,8.2,297.9z"/>
<path class="st0" d="M215.2,111.9c-0.5,0-1-0.3-1.2-0.9c-0.2-0.7,0.2-1.4,0.8-1.6l36-11l37.1-7l38.2-2c0.7,0,1.3,0.5,1.3,1.2
	s-0.5,1.3-1.2,1.3l-38,2l-36.8,7l-35.9,11C215.5,111.9,215.3,111.9,215.2,111.9z"/>
<path class="st0" d="M333.2,91.9h-7c-0.7,0-1.2-0.6-1.2-1.3c0-0.7,0.6-1.2,1.2-1.2h7c0.7,0,1.2,0.6,1.2,1.2
	C334.5,91.4,333.9,91.9,333.2,91.9z"/>
<path class="st0" d="M340.2,91.9h-7c-0.7,0-1.3-0.6-1.3-1.3c0-0.7,0.6-1.2,1.3-1.2h7c0.7,0,1.3,0.6,1.3,1.2
	C341.5,91.4,340.9,91.9,340.2,91.9z"/>
<path class="st0" d="M451.2,111.9c-0.1,0-0.2,0-0.4-0.1l-36-11l-36.9-7l-37.8-2c-0.7,0-1.2-0.6-1.2-1.3c0-0.7,0.7-1.2,1.3-1.2l38,2
	l37.2,7l36.1,11c0.7,0.2,1,0.9,0.8,1.6C452.3,111.6,451.8,111.9,451.2,111.9z"/>
<path class="st0" d="M657.2,297.9c-0.4,0-0.9-0.2-1.1-0.7l-16-31l-19.9-29.9l-22.9-27.9l-24.9-24.9l-26.9-22.9l-29.9-18.9l-31.9-17
	l-32.9-12.9c-0.6-0.3-1-1-0.7-1.6s1-0.9,1.6-0.7l33,13l32.1,17.1l30.1,19l27.1,23.1l25.1,25.1l23.1,28.1l20.1,30.1l16.1,31.1
	c0.3,0.6,0.1,1.4-0.5,1.7C657.6,297.9,657.4,297.9,657.2,297.9z"/>
<path class="st0" d="M2.2,605.9h-1c-0.7,0-1.3-0.6-1.3-1.2s0.6-1.2,1.3-1.2h1c0.7,0,1.3,0.6,1.3,1.2S2.9,605.9,2.2,605.9z"/>
<path class="st0" d="M1.2,605.9c-0.7,0-1.3-0.6-1.3-1.2v-275c0-0.7,0.6-1.2,1.3-1.2s1.3,0.6,1.3,1.2v275
	C2.5,605.4,1.9,605.9,1.2,605.9z"/>
<path class="st0" d="M665.2,605.9c-0.7,0-1.2-0.6-1.2-1.2v-275c0-0.7,0.6-1.2,1.2-1.2c0.7,0,1.3,0.6,1.3,1.2v275
	C666.5,605.4,665.9,605.9,665.2,605.9z"/>
<path class="st0" d="M665.2,605.9c-0.3,0-0.6-0.1-0.9-0.3c-0.2-0.3-0.4-0.6-0.4-0.9c0-0.4,0.2-0.7,0.4-0.9c0.5-0.5,1.3-0.4,1.8,0
	c0.2,0.2,0.3,0.5,0.3,0.9c0,0.3-0.1,0.6-0.3,0.9C665.8,605.8,665.5,605.9,665.2,605.9z"/>
<path class="st0" d="M665.2,605.9h-1c-0.7,0-1.2-0.6-1.2-1.2s0.6-1.2,1.2-1.2h1c0.7,0,1.3,0.6,1.3,1.2S665.9,605.9,665.2,605.9z"/>
<path class="st0" d="M5.2,619.9c-0.5,0-0.9-0.3-1.1-0.8l-3-7c0-0.1-0.1-0.2-0.1-0.3l-1-7c-0.1-0.7,0.4-1.3,1.1-1.4
	c0.6-0.1,1.3,0.4,1.4,1.1l1,6.8l2.9,6.9c0.3,0.6,0,1.4-0.7,1.6C5.6,619.9,5.4,619.9,5.2,619.9z"/>
<path class="st0" d="M662.2,619.9c-0.1,0-0.2,0-0.3,0c-0.7-0.2-1.1-0.9-0.9-1.5l2-7l1-6.8c0.1-0.7,0.8-1.2,1.4-1.1
	c0.7,0.1,1.2,0.7,1.1,1.4l-1,7l-2,7.2C663.3,619.6,662.8,619.9,662.2,619.9z"/>
<path class="st0" d="M5.2,619.9c-0.7,0-1.3-0.6-1.3-1.2v-1c0-0.7,0.6-1.3,1.3-1.3s1.3,0.6,1.3,1.3v1C6.5,619.4,5.9,619.9,5.2,619.9z
	"/>
<g class="st1">
	<polygon class="st2" points="428.2,278.7 428.2,234.7 395.2,234.7 395.2,261.7 333.2,230.7 186.2,290.7 192.2,306.7 332.2,248.7 
		467.2,317.7 475.2,302.7 	"/>
	<path class="st2" d="M343.2,417.7h-30v-91h23c9,8,8,18,8,18c-1,24-31,26-31,26C373.2,389.7,343.2,417.7,343.2,417.7L343.2,417.7z
		 M417.2,364.7c17-11,14-29,14-29c-2-29-38-30-38-30h-167v21h53v34h-37v21h37v57h64c40-1,39-38,39-38c1-27-22-36-22-36
		c22-15,13-38,13-38h20c9,6,9,19,9,19c-3,24-30,25-30,25c49,11,49,69,49,69h29C446.2,375.7,417.2,364.7,417.2,364.7L417.2,364.7z"/>
	<polygon class="st2" points="477.2,463.7 184.2,463.7 184.2,454.7 477.2,454.7 	"/>
	<polygon class="st2" points="187.2,531.7 198.2,531.7 198.2,509.7 217.2,509.7 217.2,500.7 198.2,500.7 198.2,488.7 220.2,488.7 
		220.2,478.7 187.2,478.7 	"/>
	<polygon class="st2" points="247.2,478.7 235.2,478.7 235.2,531.7 247.2,531.7 	"/>
	<path class="st2" d="M273.2,522.7v-14h10c2,0,4,1,6,2s2,3,2,6c0,1,0,2-1,3c0,1-1,2-2,2c-1,1-2,1-3,1s-2,0-3,0H273.2L273.2,522.7z
		 M273.2,487.7h8c1,0,2,0,3,0s2,0,3,1c1,0,1,1,2,2c0,1,1,2,1,3c0,2-1,4-2,5s-3,1-5,1h-9L273.2,487.7L273.2,487.7z M291.2,530.7
		c2-1,4-1,6-3c2-1,3-3,4-5s2-4,2-7s-1-6-2-8c-2-2-4-4-7-5c2-1,4-3,5-4c1-2,2-4,2-7c0-2,0-4-1-6s-2-3-3-4s-3-2-5-2s-4-1-7-1h-22v52
		h22C286.2,531.7,289.2,530.7,291.2,530.7"/>
	<path class="st2" d="M335.2,491.7L335.2,491.7l7,19h-13L335.2,491.7L335.2,491.7z M325.2,519.7h19l4,12h12l-19-53h-12l-20,52h12
		L325.2,519.7L325.2,519.7z"/>
	<path class="st2" d="M382.2,487.7h10c3,0,5,1,6,2s2,3,2,6s-1,5-2,6s-3,2-6,2h-10V487.7L382.2,487.7z M382.2,510.7h9c3,0,5,1,6,2
		c1,1,2,3,2,6c0,2,1,4,1,7c0,2,1,4,1,6h11c-1-1-1-2-1-3s0-2-1-3c0-1,0-2,0-3s0-2,0-3s0-3-1-4c0-1-1-3-1-4c-1-1-1-2-2-3s-2-1-4-2l0,0
		c3-1,5-3,6-5s2-5,2-8c0-2,0-4-1-6s-2-3-3-5c-1-1-3-2-5-3s-4-1-6-1h-26v52h11v-20H382.2z"/>
	<path class="st2" d="M435.2,498.7c1-2,1-4,2-6s3-3,4-4c2-1,4-1,7-1s5,0,7,1s3,2,4,4s2,4,2,6c1,2,1,4,1,7c0,2,0,4-1,6c-1,2-1,4-2,6
		s-3,3-4,4c-2,1-4,1-7,1s-5,0-7-1s-3-2-4-4s-2-4-2-6c-1-2-1-4-1-6C434.2,502.7,434.2,500.7,435.2,498.7 M429.2,524.7c2,2,5,4,8,6
		c3,1,7,2,11,2s8-1,11-2s6-3,8-6c2-2,4-5,5-9c1-3,2-7,2-11s-1-8-2-11s-3-6-5-9c-2-2-5-4-8-6c-3-1-7-2-11-2s-8,1-11,2s-6,3-8,6
		c-2,2-4,5-5,9c-1,3-2,7-2,11s1,7,2,11C425.2,519.7,427.2,521.7,429.2,524.7"/>
	<path class="st2" d="M206.2,557.7c0-1,0-3-1-4s-2-2-3-3s-3-1-4-1s-3,0-4,1c-1,0-2,1-3,2s-1,2-1,3c0,2,1,3,2,4s2,1,4,2c2,0,3,1,5,1
		s3,1,5,2c1,1,2,2,3,3s1,3,1,4c0,2-1,3-2,5c-1,1-3,2-4,3c-2,1-4,1-6,1s-4,0-6-1s-3-2-4-4s-2-4-2-6h4c0,3,1,5,3,6s4,2,6,2
		c1,0,2,0,3,0s2-1,2-1c1-1,1-1,2-2c0-1,1-2,1-3v-1c0-1-1-2-1-2c-1-1-1-1-2-1s-2-1-3-1s-2-1-3-1c-2,0-4-1-5-2s-3-2-4-3s-1-3-1-4v-1
		c1-5,4-8,12-8c3,0,5,1,6,2c2,1,3,2,3,4c1,1,1,3,1,4H206.2L206.2,557.7z"/>
	<polygon class="st2" points="249.2,580.7 249.2,566.7 237.2,548.7 241.2,548.7 250.2,563.7 260.2,548.7 263.2,548.7 252.2,566.7 
		252.2,580.7 	"/>
	<path class="st2" d="M310.2,557.7c0-1,0-3-1-4s-2-2-3-3s-3-1-4-1s-3,0-4,1c-1,0-2,1-3,2s-1,2-1,3c0,2,1,3,2,4s2,1,4,2c2,0,3,1,5,1
		s3,1,5,2c1,1,2,2,3,3s1,3,1,4c0,2-1,3-2,5c-1,1-3,2-4,3c-2,1-4,1-6,1s-4,0-6-1s-3-2-4-4s-2-4-2-6h3c0,3,1,5,3,6c2,3,4,3,6,3
		c1,0,2,0,3,0s2-1,2-1c1-1,1-1,2-2c0-1,1-2,1-3v-1c0-1-1-2-1-2c-1-1-1-1-2-1s-2-1-3-1s-2-1-3-1c-2,0-4-1-5-2s-3-2-4-3s-1-3-1-4v-1
		c1-5,4-8,12-8c3,0,5,1,6,2c2,1,3,2,3,4c1,1,1,3,1,4h-3V557.7z"/>
	<polygon class="st2" points="352.2,551.7 342.2,551.7 342.2,548.7 366.2,548.7 366.2,551.7 355.2,551.7 355.2,580.7 352.2,580.7 	
		"/>
	<polygon class="st2" points="398.2,565.7 398.2,577.7 416.2,577.7 416.2,580.7 395.2,580.7 395.2,548.7 416.2,548.7 416.2,551.7 
		398.2,551.7 398.2,562.7 414.2,562.7 414.2,565.7 	"/>
	<polygon class="st2" points="457.2,576.7 468.2,548.7 472.2,548.7 472.2,580.7 469.2,580.7 469.2,552.7 459.2,580.7 456.2,580.7 
		446.2,552.7 446.2,580.7 442.2,580.7 442.2,548.7 447.2,548.7 	"/>
</g>
<g>
	<path class="st0" d="M301.9,27.4h-3.3V7.9h-7V5.3c0.9,0,1.8-0.1,2.7-0.2c0.9-0.1,1.7-0.4,2.4-0.8c0.7-0.4,1.3-0.9,1.8-1.6
		c0.5-0.7,0.8-1.5,1-2.5h2.5V27.4z"/>
	<path class="st0" d="M312.8,23.1h4.3v4.3h-4.3V23.1z"/>
	<path class="st0" d="M336.1,7.1c-0.2-1.2-0.6-2.2-1.4-2.9c-0.8-0.7-1.8-1.1-3.1-1.1c-1.4,0-2.5,0.3-3.4,1c-0.9,0.7-1.5,1.5-2,2.6
		c-0.5,1-0.8,2.2-1,3.4s-0.3,2.3-0.3,3.4l0.1,0.1c0.8-1.3,1.7-2.2,2.9-2.7c1.1-0.6,2.4-0.8,3.9-0.8c1.3,0,2.5,0.2,3.5,0.7
		c1,0.4,1.9,1.1,2.6,1.9c0.7,0.8,1.2,1.7,1.6,2.8c0.4,1.1,0.6,2.2,0.6,3.5c0,1-0.2,2-0.5,3.1c-0.3,1.1-0.8,2.1-1.5,2.9
		c-0.7,0.9-1.6,1.6-2.8,2.2c-1.2,0.6-2.6,0.9-4.3,0.9c-2,0-3.6-0.4-4.9-1.2c-1.2-0.8-2.2-1.9-2.8-3.2c-0.7-1.3-1.1-2.7-1.3-4.2
		c-0.2-1.5-0.3-3-0.3-4.4c0-1.9,0.2-3.7,0.5-5.4c0.3-1.7,0.9-3.3,1.6-4.7s1.8-2.4,3.1-3.3c1.3-0.8,2.9-1.2,4.8-1.2
		c2.2,0,4,0.6,5.4,1.8c1.3,1.2,2.1,2.9,2.3,5.1H336.1z M328.8,13.2c-0.7,0.3-1.3,0.8-1.8,1.3c-0.5,0.5-0.8,1.2-1.1,2
		c-0.2,0.8-0.4,1.6-0.4,2.4s0.1,1.6,0.4,2.4c0.3,0.7,0.6,1.4,1.1,1.9c0.5,0.5,1.1,1,1.8,1.3c0.7,0.3,1.5,0.5,2.4,0.5
		c0.9,0,1.6-0.2,2.3-0.5s1.3-0.8,1.7-1.3c0.5-0.6,0.8-1.2,1.1-1.9c0.2-0.7,0.4-1.5,0.4-2.3c0-0.8-0.1-1.6-0.3-2.4
		c-0.2-0.8-0.6-1.4-1-2c-0.5-0.5-1-1-1.7-1.3c-0.7-0.3-1.5-0.5-2.4-0.5S329.5,12.9,328.8,13.2z"/>
	<path class="st0" d="M361,3.4c-1.4,1.4-2.7,3-3.9,4.8c-1.2,1.9-2.3,3.9-3.2,6c-0.9,2.1-1.7,4.3-2.3,6.6c-0.6,2.2-0.9,4.4-1.1,6.6
		H347c0.2-2.3,0.5-4.5,1.1-6.7c0.6-2.2,1.4-4.3,2.3-6.3c0.9-2,2-3.9,3.3-5.7s2.6-3.4,4-4.9h-14.3V0.7H361V3.4z"/>
	<path class="st0" d="M368.7,4h-3.3V0h3.3V4z M365.5,7.5h3.3v19.8h-3.3V7.5z"/>
	<path class="st0" d="M373.8,7.5h3.1v3.1h0.1c0.7-1.2,1.6-2.1,2.7-2.7c1.1-0.6,2.3-0.9,3.8-0.9c1.3,0,2.4,0.2,3.3,0.5
		c0.9,0.4,1.6,0.9,2.1,1.5c0.5,0.6,0.9,1.4,1.1,2.3c0.2,0.9,0.3,1.9,0.3,2.9v13h-3.3V13.9c0-1.2-0.4-2.2-1.1-2.9s-1.7-1.1-2.9-1.1
		c-1,0-1.9,0.2-2.6,0.5c-0.7,0.3-1.3,0.7-1.8,1.3c-0.5,0.6-0.8,1.2-1.1,2c-0.2,0.8-0.4,1.6-0.4,2.5v11.2h-3.3V7.5z"/>
</g>
<g>
	<path class="st0" d="M752.8,428.2v3.3h-19.5v7h-2.6c0-0.9-0.1-1.8-0.2-2.7c-0.1-0.9-0.4-1.7-0.8-2.4c-0.4-0.7-0.9-1.3-1.6-1.8
		c-0.7-0.5-1.5-0.8-2.5-1v-2.5H752.8z"/>
	<path class="st0" d="M748.5,417.4v-4.3h4.3v4.3H748.5z"/>
	<path class="st0" d="M728.9,391.9v11l7.8,1.5l0.1-0.1c-0.7-0.6-1.2-1.3-1.5-2.3c-0.3-0.9-0.5-1.9-0.5-2.8c0-1.2,0.2-2.3,0.6-3.4
		s1-2,1.7-2.8c0.8-0.8,1.8-1.4,2.9-1.9c1.2-0.5,2.5-0.7,4.1-0.7c1.1,0,2.3,0.2,3.4,0.6c1.1,0.4,2,1,2.9,1.8c0.8,0.8,1.5,1.8,2,3
		s0.8,2.6,0.8,4.2c0,1.2-0.2,2.3-0.5,3.3c-0.3,1-0.9,1.9-1.5,2.7s-1.5,1.4-2.5,1.9c-1,0.5-2,0.7-3.3,0.7v-3.3
		c0.7-0.1,1.3-0.2,1.9-0.5c0.6-0.3,1.1-0.7,1.6-1.2c0.4-0.5,0.8-1.1,1-1.8c0.2-0.7,0.4-1.4,0.4-2.2c0-0.8-0.1-1.5-0.4-2.2
		c-0.3-0.7-0.7-1.3-1.2-1.8s-1.2-0.9-2-1.2c-0.8-0.3-1.7-0.5-2.8-0.5c-0.9,0-1.7,0.1-2.5,0.4c-0.8,0.3-1.4,0.7-2,1.2
		c-0.5,0.5-1,1.2-1.3,1.9c-0.3,0.8-0.5,1.6-0.5,2.5c0,1,0.2,2,0.7,2.8c0.5,0.8,1.1,1.6,1.9,2.2l-0.2,2.8l-14.1-2.5v-13.4H728.9z"/>
	<path class="st0" d="M734.7,386.8c-1.6-0.1-3.1-0.5-4.5-1.1s-2.5-1.5-3.4-2.7c-0.9-1.2-1.3-2.9-1.3-5c0-2.1,0.4-3.8,1.3-5
		c0.9-1.2,2-2.1,3.4-2.7c1.4-0.6,2.8-1,4.5-1.1c1.6-0.1,3.2-0.2,4.7-0.2c1,0,2,0,3.1,0.1c1.1,0.1,2.1,0.2,3.1,0.4
		c1,0.2,2,0.5,2.9,0.9c0.9,0.4,1.7,0.9,2.4,1.6c0.7,0.7,1.2,1.5,1.6,2.5c0.4,1,0.6,2.2,0.6,3.6c0,1.4-0.2,2.6-0.6,3.6
		c-0.4,1-1,1.8-1.6,2.5s-1.5,1.2-2.4,1.6c-0.9,0.4-1.9,0.7-2.9,0.9c-1,0.2-2.1,0.3-3.1,0.4c-1.1,0.1-2.1,0.1-3.1,0.1
		C737.9,387,736.4,386.9,734.7,386.8z M742.8,383.5c1.3-0.1,2.5-0.3,3.6-0.6s2-0.9,2.8-1.7c0.8-0.8,1.1-1.8,1.1-3.2
		s-0.4-2.5-1.1-3.2c-0.8-0.8-1.7-1.3-2.8-1.7s-2.3-0.5-3.6-0.6c-1.3-0.1-2.4-0.1-3.4-0.1c-0.7,0-1.4,0-2.2,0c-0.8,0-1.6,0.1-2.4,0.2
		c-0.8,0.1-1.6,0.3-2.4,0.5c-0.8,0.2-1.4,0.5-2,1c-0.6,0.4-1,1-1.4,1.6c-0.4,0.6-0.5,1.4-0.5,2.3s0.2,1.7,0.5,2.3
		c0.4,0.6,0.8,1.2,1.4,1.6c0.6,0.4,1.2,0.7,2,1c0.8,0.2,1.6,0.4,2.4,0.5c0.8,0.1,1.6,0.2,2.4,0.2c0.8,0,1.5,0,2.2,0
		C740.4,383.6,741.5,383.5,742.8,383.5z"/>
	<path class="st0" d="M729.4,361.4v3.3h-4v-3.3H729.4z M732.9,364.7v-3.3h19.8v3.3H732.9z"/>
	<path class="st0" d="M732.9,356.4v-3.1h3.1v-0.1c-1.2-0.7-2.1-1.6-2.7-2.7c-0.6-1.1-0.9-2.3-0.9-3.8c0-1.3,0.2-2.4,0.5-3.3
		c0.4-0.9,0.9-1.6,1.5-2.1c0.6-0.5,1.4-0.9,2.3-1.1c0.9-0.2,1.9-0.3,2.9-0.3h13v3.3h-13.4c-1.2,0-2.2,0.4-2.9,1.1s-1.1,1.7-1.1,2.9
		c0,1,0.2,1.9,0.5,2.6c0.3,0.7,0.7,1.3,1.3,1.8c0.6,0.5,1.2,0.8,2,1.1c0.8,0.2,1.6,0.4,2.5,0.4h11.2v3.3H732.9z"/>
</g>
</svg>
