<svg id="Warstwa_1" xmlns="http://www.w3.org/2000/svg" viewBox="0 0 170.1 198.4"><style>.st0{fill:none;stroke:#000;stroke-width:.36;stroke-linecap:round;stroke-linejoin:round}.st1{fill:#696969}.st2,.st3{fill:none;stroke:#696969;stroke-width:6e-2;stroke-linecap:round;stroke-linejoin:round}.st3{stroke-width:.3}.st4{fill:#c6c6c6}</style><title>Obszar roboczy 1</title><path class="st0" d="M86.1 49.3h3.5l3.6.1c46.8 1.3 61.3 19.6 62 65.5v7c-.7 45.9-15.2 64.1-62 65.5l-3.6.1h-3.5M17.5 103.8l.1-1.7c3.6-42 25.3-52 64.9-52.8H86M86.1 187.5h-3.5c-39.6-.9-61.3-10.8-64.9-52.8l-.1-1.8"/><path class="st0" d="M86.1 178.2h-3.8c-14.3-.4-33.1-3.2-43.4-14.3l-1.6-1.9c-8.2-10.6-10.6-26.7-11-39.8v-3.8M146 118.4v1.9c-1.2 42.6-15.8 56.8-57.9 57.9h-2M86.1 58.5H90c14.4.5 33 3.1 43.4 14.3l1.6 1.9c8.3 10.8 10.5 26.4 11 39.7v3.8"/><path class="st0" d="M130.9 70.4l-.7-.6-1.2-.9-1.3-.9-1.7-1.1M132.7 72l-.1-.1-1.3-1.2M138 79.2l-.7-1.3-.8-1.2-.6-.9-.8-1-1.4-1.7M136.8 118.4v-1.5c-1.3-36.1-13-47.8-49.1-49.1h-1.5M86.1 169.1h3.1c11.7-.4 26.4-2.6 35.5-10.8l1.4-1.4c7.9-8.8 10.3-24 10.6-35.4v-3.1M35.4 118.4v3.2c.4 11.3 2.7 26.8 10.8 35.4l.6.7.7.7c8.7 8 24 10.3 35.3 10.6h3.1M86.1 67.7H83c-11.5.3-26.6 2.7-35.4 10.7l-.7.7-.6.7c-8 8.6-10.4 24.1-10.7 35.3v3.1M73.1 102.6h-3.7M99.1 120.7c-.2 0-.5-.2-.5-.4v-.2M98.6 105.1v15M102.8 104.5h-3.7M92.4 146.1v-5.7M79.8 140.4v-.6c.3-3.4 3.4-6 6.8-5.7 3 .3 5.4 2.7 5.7 5.7v.6M79.9 140.4h-.1"/><path class="st0" d="M92.3 140.4v-.6c-.3-3.4-3.4-5.9-6.8-5.6-2.9.3-5.3 2.6-5.6 5.6v.6M92.4 140.4h-.1M68.8 109.3v-6.2M68.8 111v-1.7M68.8 112.8V111M73.7 103.1v4.4M73.8 109.2v.6c0 .4-.1.6 0 1.1M73.7 107.5c0 .6.1.6 0 1v.6M102.8 120.7h-3.7M103.4 105.1v15M75.1 103v-.2c0-.9-.8-1.7-1.7-1.7h-.2M104.8 105v-.2c0-.9-.8-1.7-1.7-1.7h-.2M93.7 146.1v-5.7M132.5 118.4v2.9c-.3 10.2-2.4 24.8-9.5 32.6l-.6.6-.6.6c-7.9 7.1-22.3 9.2-32.6 9.5h-3M36.7 118.4v3c.5 11.4 2.5 25.8 10.4 34.6l.6.7.7.7c8.8 7.8 23.3 9.9 34.5 10.3h3M86.1 68.9h-3c-11 .3-26.1 2.6-34.6 10.4L47 80.8c-7.8 8.8-9.9 23.3-10.3 34.5v3M135.6 118.4v-3c-.3-11-2.6-26.2-10.4-34.6l-.7-.7-.7-.7c-8.6-7.7-23.5-10-34.6-10.3h-3"/><path class="st0" d="M86.1 167.8h3c11.5-.5 25.6-2.4 34.6-10.4l.7-.7.7-.7c7.7-8.4 10-23.6 10.3-34.5v-3M68.8 103.1v-.3h.1l.1-.2h.4M68.8 103v.1M69.4 102.6l-.1-.1M73.1 102.6h.4l.2.2v.3M73.2 102.5l-.1.1"/><path class="st0" d="M73.8 103c0-.2-.2-.5-.4-.5h-.2M73.7 103.1l.1-.1M73.7 122l.1.1M73.2 122.7l-.1-.1M69.3 122.7l.1-.1M68.8 122.1v-.1M98.6 120.1h-.1M103.4 120.1c0 .4-.2.5-.4.6h-.2M103.5 120.1h-.1M102.8 120.7h.1M102.8 104.5h.4l.2.2v.4M102.9 104.4l-.1.1"/><path class="st0" d="M103.5 105c0-.2-.2-.5-.4-.5h-.2M103.4 105.1l.1-.1M98.6 105.1v-.4l.2-.2H99.1M98.5 105l.1.1M99.1 104.5v-.1M80.5 146.6h-.1M79.8 146.1l.1-.1M92.4 146.1l-.1-.1M91.8 146.6h-.1M73.8 103v19.1M75.1 103h-1.3M75.1 122.1V103M75.1 122.1h-1.3V122.4l-.1.2-.3.1h-.2M73.2 124h.2c.9 0 1.7-.8 1.7-1.7v-.2M73.2 122.7h-3.9M73.2 124v-1.3M69.3 124h3.9M69.3 122.7H69l-.1-.1-.1-.1v-.4M69.3 124v-1.3M67.4 122.1v.2c0 .9.8 1.7 1.7 1.7h.2M68.8 122.1V103M67.4 122.1h1.4M67.4 103v19.1M67.4 103h1.4V102.7l.1-.1.1-.1h.3"/><path class="st0" d="M69.3 101.2h-.2c-.9 0-1.7.8-1.7 1.7v.2M69.3 102.5h3.9M69.3 101.2v1.3M73.2 101.2h-3.9M73.2 102.5v-1.3M103.5 105v15.1M104.8 105h-1.3M104.8 120.1V105M104.8 120.1h-1.3V120.4l-.1.2-.2.1h-.3M102.9 122.1h.2c.9 0 1.7-.8 1.7-1.7v-.2M102.9 120.7h-3.8M102.9 122.1v-1.4M99.1 122.1h3.8M99.1 120.7h-.4l-.2-.2v-.4M99.1 122.1v-1.4M97.1 120.1v.2c0 .9.8 1.7 1.7 1.7h.2M98.5 120.1V105M97.1 120.1h1.4M97.1 105v15.1M97.1 105h1.4v-.4l.2-.1.1-.1h.3"/><path class="st0" d="M99.1 103.1h-.2c-.9 0-1.7.8-1.7 1.7v.2M99.1 104.4h3.8M99.1 103.1v1.3M102.9 103.1h-3.8M102.9 104.4v-1.3M92.4 140.4h1.3M93.7 146.1h-1.3c0 .3-.1.5-.4.5h-.2M91.8 148h.2c.9 0 1.7-.7 1.7-1.7v-.2M91.8 146.6H80.4M91.8 148v-1.4M80.4 148h11.4M80.4 146.6c-.3 0-.5-.1-.5-.4v-.1M80.4 148v-1.4M78.6 146.1v.2c0 .9.8 1.7 1.7 1.7h.2M79.8 146.1v-5.7M78.6 146.1h1.2M78.6 140.4v5.7M78.6 140.4h1.2M93.7 140.4v-.4c-.2-4.2-3.8-7.4-8-7.2-3.9.2-7 3.3-7.2 7.2v.4M135.6 118.4v3.1c-.3 11-2.6 26.1-10.4 34.5l-.6.7-.7.6c-8.4 7.8-23.6 10-34.6 10.4h-3.1M135.6 118.4v-3c-.4-11.2-2.5-25.9-10.4-34.6l-1.3-1.3c-8.7-7.8-23.3-10-34.6-10.4h-3.1"/><path class="st0" d="M86.1 72H89c10.3.3 24.7 2.4 32.6 9.5l.6.6.6.6c7.3 8 9.2 22.3 9.6 32.7v2.8M86.1 68.9h-3C72 69.3 57 71.6 48.5 79.4l-1.4 1.4c-7.7 8.5-10 23.5-10.3 34.5v3"/><path class="st0" d="M39.8 118.4v-2.9c.3-10.2 2.4-24.8 9.5-32.6l.6-.6.6-.6c8-7.3 22.4-9.2 32.7-9.6h2.9M36.7 118.4v3.1c.3 11.1 2.6 26 10.3 34.5l.7.7.7.6c8.3 7.8 23.5 10 34.4 10.4H86"/><path class="st0" d="M86.1 164.7h-2.9c-10.2-.3-24.8-2.3-32.7-9.5l-.6-.6-.6-.6c-7.1-7.9-9.2-22.4-9.5-32.6v-3M73.7 122v-11M73.1 122.6H73.4l.2-.1.1-.2v-.3M69.4 122.6h3.7M68.8 122c0 .4.1.4.4.6h.1M68.8 112.8v9.2M80.5 146.6h11.2M79.9 146v.3l.1.1.1.1v.1h.4M79.9 140.4v5.6M92.3 146v-5.6M91.7 146.6h.4l.1-.2.1-.1V146M155.2 118.4v2.4c-.6 49.6-17 66.1-66.7 66.7h-2.4"/><path class="st0" d="M86.1 179.1h2c42.8-1.2 57.5-15.9 58.7-58.7v-2M155.2 118.4V116c-.6-49.5-17.1-66.1-66.7-66.6h-2.4"/><path class="st0" d="M86.1 57.7h2c42.8 1.2 57.5 15.9 58.7 58.7v1.9M86.1 57.7h-3.9c-13.9.4-31.5 3-42.2 12.7l-.9.8-.8.9c-9.8 10.5-12.5 28.4-12.8 42.2v3.9M86.1 179.1h-3.9c-14.3-.5-31.1-2.8-42.2-12.7l-.9-.8-.8-.9c-9.8-10.8-12.4-28.2-12.8-42.2l-.1-4"/><path class="st0" d="M17.1 118.4v2.4c.5 49.6 17 66.1 66.7 66.7h2.4M17.1 118.4V116c.5-49.5 17.1-66.2 66.7-66.6h2.4M154 97.4l-.2-2M100.4 162.3l1.9-.3"/><path class="st0" d="M26.3 118.4v-1.9c1.1-42.6 15.8-56.8 57.9-57.9h1.9"/><path class="st1" d="M17.1 15.4l7 1.7v-3.5z"/><path class="st2" d="M17.1 15.4l7 1.7v-3.5z"/><path class="st1" d="M155.2 15.4l-7-1.8v3.5z"/><path class="st2" d="M155.2 15.4l-7-1.8v3.5z"/><path class="st3" d="M17.1 117.2V13M155.2 117.2V13M17.1 15.4h138.1"/><path class="st4" d="M76.7 87.7v.9h-2.3v1.2h2v.9h-2v2.1h-1v-5l3.3-.1zM78.6 87.7v5h-1.1v-5h1.1zM81.8 87.7c.2 0 .4 0 .6.1.2 0 .3.1.5.2.1.1.2.2.3.4.1.2.1.4.1.6s0 .4-.2.6c-.1.2-.3.3-.5.4.3.1.5.2.7.5.3.4.3 1 .1 1.5-.1.2-.2.3-.4.5-.2.1-.3.2-.5.3-.2.1-.4.1-.6.1h-2.3v-5l2.2-.2zm-.1 2c.2 0 .3 0 .5-.1.1-.1.2-.3.2-.5 0-.1 0-.2-.1-.3 0-.1-.1-.1-.2-.2-.1 0-.1-.1-.2-.1h-1.3v1.2h1.1zm.1 2.1h.3c.1 0 .2-.1.2-.1l.2-.2c0-.1.1-.2.1-.3 0-.2-.1-.4-.2-.6-.2-.1-.4-.2-.6-.2h-1.1v1.4h1.1zM86.9 87.7l1.8 5h-1.1l-.4-1.1h-1.8l-.4 1.1h-1l1.8-5h1.1zm0 3.1l-.6-1.8-.6 1.8h1.2zM92.1 87.6c.2 0 .4 0 .6.1.3.1.6.4.7.7.1.2.1.4.1.5 0 .3-.1.5-.2.8-.1.2-.3.4-.6.5.1 0 .2.1.3.2.1.1.2.2.2.3.1.1.1.2.1.3v1c0 .1 0 .2.1.3 0 .1.1.2.1.3h-1c-.1-.2-.1-.4-.1-.6s0-.4-.1-.6c0-.2-.1-.4-.2-.6-.2-.1-.4-.2-.6-.2h-1v2h-1.1v-5h2.7zm-.4 2.3c.2 0 .4 0 .5-.2s.2-.3.2-.6c0-.2 0-.4-.2-.5s-.3-.2-.5-.2h-1.1v1.4l1.1.1zM94.4 89.1c.1-.3.3-.6.5-.8.2-.2.5-.4.7-.6.6-.3 1.4-.3 2 0 .3.1.5.3.7.6.2.3.4.5.5.8s.2.7.2 1-.1.7-.2 1-.3.6-.5.8c-.2.2-.5.4-.7.6-.6.3-1.4.3-2 0-.3-.1-.5-.3-.7-.6-.2-.2-.4-.5-.5-.8s-.2-.7-.2-1c.1-.3.1-.7.2-1zm1 1.7c0 .2.1.4.2.5.4.6 1.1.7 1.6.4.1-.1.3-.2.4-.4.1-.2.2-.3.2-.5s.1-.4.1-.6 0-.4-.1-.6c0-.2-.1-.4-.2-.6-.4-.6-1.1-.7-1.6-.4-.1.1-.3.2-.4.4-.1.2-.2.4-.2.6s-.1.4-.1.6c.1.2.1.4.1.6z"/><path class="st1" d="M72.5 13.5v-.6l.7-.7c1.8-1.7 2.5-2.6 2.6-3.6 0-.7-.3-1.3-1.4-1.3-.6 0-1.1.3-1.5.6l-.3-.7c.5-.4 1.1-.7 1.9-.7 1.5 0 2.1 1 2.1 2 0 1.3-.9 2.3-2.4 3.7l-.5.5h3.1v.8h-4.3zM78 12.9c0-.4.3-.7.6-.7s.6.3.6.7c0 .4-.2.7-.6.7-.4 0-.6-.3-.6-.7zM80.3 12.4c.3.2.9.4 1.5.4 1.2 0 1.6-.8 1.6-1.3 0-1-.9-1.4-1.8-1.4h-.5v-.7h.5c.7 0 1.5-.3 1.5-1.2 0-.5-.3-1-1.2-1-.5 0-1.1.2-1.4.5l-.2-.7c.4-.3 1.1-.5 1.8-.5 1.3 0 2 .8 2 1.6 0 .7-.4 1.3-1.3 1.6.8.2 1.5.8 1.5 1.8 0 1.1-.9 2.1-2.5 2.1-.8 0-1.4-.2-1.8-.5l.3-.7zM85.5 13.5v-.6l.7-.7c1.8-1.7 2.5-2.6 2.6-3.6 0-.7-.3-1.3-1.4-1.3-.6 0-1.1.3-1.5.6l-.3-.7c.5-.4 1.1-.7 1.9-.7 1.5 0 2.1 1 2.1 2 0 1.3-.9 2.3-2.4 3.7l-.5.5h3.1v.8h-4.3zM94.5 6.9c0 .3-.2.6-.6.6-.3 0-.6-.3-.6-.6s.2-.6.6-.6c.3 0 .6.3.6.6zm-1.1 6.6V8.3h.9v5.1h-.9zM95.9 9.7V8.3h.8l.1.8c.3-.5.8-1 1.7-1 .7 0 1.8.4 1.8 2.2v3h-.9v-2.9C99.3 9.7 99 9 98.1 9c-.6 0-1.1.4-1.2 1 0 .1-.1.3-.1.4v3.1h-.9V9.7z"/></svg>