<?xml version="1.0" encoding="utf-8"?>
<!-- Generator: Adobe Illustrator 22.0.1, SVG Export Plug-In . SVG Version: 6.00 Build 0)  -->
<svg version="1.1" id="Layer_1" xmlns="http://www.w3.org/2000/svg" xmlns:xlink="http://www.w3.org/1999/xlink" x="0px" y="0px"
	 viewBox="0 0 333.6 763" style="enable-background:new 0 0 333.6 763;" xml:space="preserve">
<style type="text/css">
	.st0{fill:#898988;}
</style>
<g>
	<path class="st0" d="M298.1,680.5v-10.9l35.5,5.5L298.1,680.5z M300.6,672.5v5.1l16.5-2.5L300.6,672.5z"/>
	<path class="st0" d="M34.7,680.5L-0.8,675l35.5-5.5V680.5z M15.6,675l16.5,2.5v-5.1L15.6,675z"/>
	<path class="st0" d="M325.4,683.3c-0.7,0-1.2-0.6-1.2-1.2V503c0-0.7,0.6-1.2,1.2-1.2c0.7,0,1.2,0.6,1.2,1.2v179
		C326.6,682.7,326.1,683.3,325.4,683.3z"/>
	<path class="st0" d="M7.4,683.3c-0.7,0-1.2-0.6-1.2-1.2V533c0-0.7,0.6-1.2,1.2-1.2s1.2,0.6,1.2,1.2v149
		C8.7,682.7,8.1,683.3,7.4,683.3z"/>
	<path class="st0" d="M325.4,676.3H7.4c-0.7,0-1.2-0.6-1.2-1.2s0.6-1.2,1.2-1.2h318c0.7,0,1.2,0.6,1.2,1.2S326.1,676.3,325.4,676.3z
		"/>
	<path class="st0" d="M7.4,675l26-4v8 M325.4,675l-26,4v-8"/>
</g>
<path class="st0" d="M66.4,149.3c-0.7,0-1.2-0.6-1.2-1.2v-30l1-14.1V82.1l1-7.2v-6.8c0-0.1,0-0.3,0.1-0.4l5-15l7.1-11.3l7.1-8.2
	l6.1-6.1l7.2-5.1l9.1-5.1l13.2-4.1l7-2l8.2-1h49.2c0.7,0,1.2,0.6,1.2,1.2c0,0.7-0.6,1.2-1.2,1.2h-49l-7.8,1l-6.8,2l-13,4l-8.8,4.9
	l-7,4.9l-5.8,5.9l-6.9,7.9l-6.9,10.8l-4.8,14.5V75l-1,7.2V104l-1,14.1V148C67.6,148.7,67.1,149.3,66.4,149.3z"/>
<path class="st0" d="M64.4,245.3c-0.7,0-1.2-0.6-1.2-1.2v-24l1-12.1c0.1-0.7,0.7-1.2,1.3-1.1c0.7,0.1,1.2,0.7,1.1,1.3l-1,12v23.9
	C65.7,244.7,65.1,245.3,64.4,245.3z"/>
<path class="st0" d="M65.4,167.3c-0.7,0-1.2-0.6-1.2-1.2v-12c0-28,1.1-58,2-82l1-4.3c0.2-0.7,0.8-1.1,1.5-0.9s1.1,0.8,0.9,1.5l-1,4
	c-0.9,23.8-2,53.7-2,81.7v12C66.6,166.7,66.1,167.3,65.4,167.3z"/>
<path class="st0" d="M7.4,523.3c-0.7,0-1.2-0.6-1.2-1.2v-3c0-0.7,0.6-1.2,1.2-1.2s1.2,0.6,1.2,1.2v3C8.7,522.7,8.1,523.3,7.4,523.3z
	"/>
<path class="st0" d="M46.4,338.3c-0.1,0-0.2,0-0.2,0c-0.7-0.1-1.1-0.8-1-1.5l1-5l1-4.1c0.2-0.7,0.8-1.1,1.5-0.9s1.1,0.8,0.9,1.5
	l-1,4l-1,4.9C47.5,337.9,47,338.3,46.4,338.3z"/>
<path class="st0" d="M64.4,232.3c-0.7,0-1.2-0.6-1.2-1.2v-1c0-0.7,0.6-1.2,1.2-1.2c0.6,0,1.2,0.6,1.2,1.2v1
	C65.7,231.7,65.1,232.3,64.4,232.3z"/>
<path class="st0" d="M7.4,523.3c-0.7,0-1.2-0.6-1.2-1.2v-3c0-0.7,0.6-1.2,1.2-1.2s1.2,0.6,1.2,1.2v3C8.7,522.7,8.1,523.3,7.4,523.3z
	"/>
<path class="st0" d="M279.4,12.3L279.4,12.3l-48-1c-0.7,0-1.2-0.6-1.2-1.3s0.6-1.2,1.2-1.2l0,0l48,1c0.7,0,1.2,0.6,1.2,1.3
	C280.6,11.7,280.1,12.3,279.4,12.3z"/>
<path class="st0" d="M325.4,59.3c-0.6,0-1.2-0.5-1.2-1.1l-1-8l-2-7.9l-2.9-7.7l-4.9-5.8l-5.9-5.9l-5.8-4.8l-6.8-2.9l-7.7-2.9h-7.8
	c-0.7,0-1.2-0.6-1.2-1.2c0-0.7,0.6-1.2,1.2-1.2h8c0.1,0,0.3,0,0.4,0.1l8,3l7.1,3c0.1,0,0.2,0.1,0.3,0.2l6,5l6.1,6.1l5.1,6.1
	c0.1,0.1,0.2,0.2,0.2,0.4l3,8l2,8.1l1,8.1c0.1,0.7-0.4,1.3-1.1,1.4C325.5,59.3,325.4,59.3,325.4,59.3z"/>
<path class="st0" d="M321.4,560.3c-0.3,0-0.6-0.1-0.9-0.4c-0.5-0.5-0.5-1.3,0-1.8l1-1c0.5-0.5,1.3-0.5,1.8,0s0.5,1.3,0,1.8l-1,1
	C322,560.2,321.7,560.3,321.4,560.3z"/>
<path class="st0" d="M231.4,527.3h-129c-0.7,0-1.2-0.6-1.2-1.2s0.6-1.2,1.2-1.2h129c0.7,0,1.2,0.6,1.2,1.2S232.1,527.3,231.4,527.3z
	"/>
<path class="st0" d="M102.4,527.3c0,0-0.1,0-0.2,0c-0.7-0.1-1.2-0.7-1.1-1.4l35-276c0.1-0.7,0.6-1.2,1.4-1.1
	c0.7,0.1,1.2,0.7,1.1,1.4l-35,276C103.6,526.8,103,527.3,102.4,527.3z"/>
<path class="st0" d="M231.4,251.3h-94c-0.7,0-1.2-0.6-1.2-1.2c0-0.7,0.6-1.2,1.2-1.2h94c0.7,0,1.2,0.6,1.2,1.2
	C232.7,250.7,232.1,251.3,231.4,251.3z"/>
<path class="st0" d="M200.4,297.3c-0.7,0-1.2-0.5-1.2-1.2s0.5-1.3,1.2-1.3l31-1l0,0c0.7,0,1.2,0.5,1.2,1.2s-0.5,1.3-1.2,1.3
	L200.4,297.3L200.4,297.3z"/>
<path class="st0" d="M186.4,310.3c-0.7,0-1.2-0.6-1.2-1.2v-4c0-0.3,0.1-0.5,0.3-0.8l3-4l3.1-3.1c0.1-0.1,0.3-0.2,0.4-0.3l5-2
	c0.2-0.1,0.3-0.1,0.5-0.1h3c0.7,0,1.2,0.6,1.2,1.2c0,0.7-0.6,1.2-1.2,1.2h-2.8l-4.5,1.8l-2.8,2.8l-2.6,3.5v3.6
	C187.7,309.7,187.1,310.3,186.4,310.3z"/>
<path class="st0" d="M200.4,323.3c-0.1,0-0.2,0-0.2,0l-5-1c-0.1,0-0.2-0.1-0.3-0.1l-4-2c-0.2-0.1-0.3-0.2-0.4-0.4l-3-4l-2.1-4.2
	c-0.1-0.2-0.1-0.4-0.1-0.6v-2c0-0.7,0.6-1.2,1.2-1.2c0.7,0,1.2,0.6,1.2,1.2v1.7l1.9,3.7l2.7,3.6l3.6,1.8l4.8,1
	c0.7,0.1,1.1,0.8,1,1.5C201.5,322.9,201,323.3,200.4,323.3z"/>
<path class="st0" d="M231.4,527.3c-0.7,0-1.2-0.6-1.2-1.2V324.2l-29.8-1c-0.7,0-1.2-0.6-1.2-1.3c0-0.7,0.6-1.2,1.2-1.2l0,0l31,1
	c0.7,0,1.2,0.6,1.2,1.2v203C232.7,526.7,232.1,527.3,231.4,527.3z"/>
<path class="st0" d="M231.4,296.3c-0.7,0-1.2-0.6-1.2-1.2v-45c0-0.7,0.6-1.2,1.2-1.2c0.7,0,1.2,0.6,1.2,1.2v45
	C232.7,295.7,232.1,296.3,231.4,296.3z"/>
<path class="st0" d="M137.4,251.3c-0.7,0-1.2-0.6-1.2-1.2v-33c0-0.7,0.6-1.2,1.2-1.2s1.2,0.6,1.2,1.2v33
	C138.6,250.7,138.1,251.3,137.4,251.3z"/>
<path class="st0" d="M231.4,251.3c-0.7,0-1.2-0.6-1.2-1.2v-33c0-0.7,0.6-1.2,1.2-1.2c0.7,0,1.2,0.6,1.2,1.2v33
	C232.7,250.7,232.1,251.3,231.4,251.3z"/>
<path class="st0" d="M102.4,541.3c-0.7,0-1.2-0.6-1.2-1.2v-14c0-0.7,0.6-1.2,1.2-1.2s1.2,0.6,1.2,1.2v14
	C103.6,540.7,103.1,541.3,102.4,541.3z"/>
<path class="st0" d="M231.4,541.3c-0.7,0-1.2-0.6-1.2-1.2v-14c0-0.7,0.6-1.2,1.2-1.2c0.7,0,1.2,0.6,1.2,1.2v14
	C232.7,540.7,232.1,541.3,231.4,541.3z"/>
<path class="st0" d="M102.4,527.3h-88c-0.7,0-1.2-0.6-1.2-1.2s0.6-1.2,1.2-1.2h88c0.7,0,1.2,0.6,1.2,1.2S103.1,527.3,102.4,527.3z"
	/>
<path class="st0" d="M14.4,527.3h-6c-0.7,0-1.2-0.6-1.2-1.2s0.6-1.2,1.2-1.2h6c0.7,0,1.2,0.6,1.2,1.2S15.1,527.3,14.4,527.3z"/>
<path class="st0" d="M8.4,527.3h-1c-0.7,0-1.2-0.6-1.2-1.2s0.6-1.2,1.2-1.2h1c0.7,0,1.2,0.6,1.2,1.2S9.1,527.3,8.4,527.3z"/>
<path class="st0" d="M7.4,527.3L7.4,527.3c-0.7,0-1.3-0.6-1.2-1.3l1-29l5-27.2l5-28l7-27.1l7-28l26-98l4-18.9l2-19.9
	c0.1-0.7,0.6-1.2,1.4-1.1c0.7,0.1,1.2,0.7,1.1,1.4l-2,20l-4,19.1l-10,38.1l-16,60l-7,28l-7,27l-5,27.9l-5,27l-1,28.8
	C8.6,526.7,8.1,527.3,7.4,527.3z"/>
<path class="st0" d="M137.4,251.3h-73c-0.7,0-1.2-0.6-1.2-1.2c0-0.7,0.6-1.2,1.2-1.2h73c0.7,0,1.2,0.6,1.2,1.2
	C138.6,250.7,138.1,251.3,137.4,251.3z"/>
<path class="st0" d="M64.4,251.3c-0.7,0-1.2-0.6-1.2-1.2v-3c0-0.7,0.6-1.2,1.2-1.2c0.6,0,1.2,0.6,1.2,1.2v3
	C65.7,250.7,65.1,251.3,64.4,251.3z"/>
<path class="st0" d="M101.4,573.3c-0.7,0-1.2-0.6-1.2-1.2v-14l1-18.1c0-0.7,0.6-1.2,1.3-1.2c0.7,0,1.2,0.6,1.2,1.3l-1,18V572
	C102.6,572.7,102.1,573.3,101.4,573.3z"/>
<path class="st0" d="M231.4,573.3c-0.7,0-1.2-0.6-1.2-1.2v-32c0-0.7,0.6-1.2,1.2-1.2c0.7,0,1.2,0.6,1.2,1.2v32
	C232.7,572.7,232.1,573.3,231.4,573.3z"/>
<path class="st0" d="M186.4,154.3c-0.7,0-1.2-0.6-1.2-1.2v-3c0-0.3,0.1-0.6,0.4-0.9l3-3l3.2-2.2l5.2-2.1c0.1-0.1,0.3-0.1,0.5-0.1h3
	c0.7,0,1.2,0.6,1.2,1.2c0,0.7-0.6,1.2-1.2,1.2h-2.8l-4.8,1.9l-2.8,1.9l-2.4,2.5v2.5C187.7,153.7,187.1,154.3,186.4,154.3z"/>
<path class="st0" d="M200.4,165.3c-0.1,0-0.2,0-0.2,0l-5-1c-0.1,0-0.2-0.1-0.3-0.1l-4-2c-0.1-0.1-0.2-0.1-0.3-0.2l-3-3l-2.2-3.2
	c-0.1-0.2-0.2-0.4-0.2-0.7v-2c0-0.7,0.6-1.2,1.2-1.2c0.7,0,1.2,0.6,1.2,1.2v1.6l1.8,2.7l2.7,2.7l3.7,1.8l4.8,1
	c0.7,0.1,1.1,0.8,1,1.5C201.5,164.9,201,165.3,200.4,165.3z"/>
<path class="st0" d="M231.4,165.3h-31c-0.7,0-1.2-0.6-1.2-1.2c0-0.7,0.6-1.2,1.2-1.2h31c0.7,0,1.2,0.6,1.2,1.2
	C232.7,164.7,232.1,165.3,231.4,165.3z"/>
<path class="st0" d="M200.4,12.3h-14c-0.7,0-1.2-0.6-1.2-1.2c0-0.7,0.6-1.2,1.2-1.2h14c0.7,0,1.2,0.6,1.2,1.2
	C201.6,11.7,201.1,12.3,200.4,12.3z"/>
<path class="st0" d="M200.4,144.3c-0.7,0-1.2-0.5-1.2-1.2s0.5-1.3,1.2-1.3l29.8-1V11.3l-29.7,1l0,0c-0.7,0-1.2-0.5-1.2-1.2
	s0.5-1.3,1.2-1.3l31-1c0.4,0,0.7,0.1,0.9,0.4c0.2,0.2,0.4,0.6,0.4,0.9v132c0,0.7-0.5,1.2-1.2,1.2L200.4,144.3L200.4,144.3z"/>
<path class="st0" d="M231.4,218.3c-0.7,0-1.2-0.6-1.2-1.2v-53c0-0.7,0.6-1.2,1.2-1.2c0.7,0,1.2,0.6,1.2,1.2v53
	C232.7,217.7,232.1,218.3,231.4,218.3z"/>
<path class="st0" d="M64.4,248.3c-0.7,0-1.2-0.6-1.2-1.2v-32c0-0.7,0.6-1.2,1.2-1.2c0.6,0,1.2,0.6,1.2,1.2v32
	C65.7,247.7,65.1,248.3,64.4,248.3z"/>
<path class="st0" d="M65.4,168.3c-0.7,0-1.2-0.6-1.2-1.2v-5c0-0.7,0.6-1.2,1.2-1.2s1.2,0.6,1.2,1.2v5
	C66.6,167.7,66.1,168.3,65.4,168.3z"/>
<path class="st0" d="M65.4,163.3c-0.7,0-1.2-0.6-1.2-1.2v-12c0-0.7,0.6-1.2,1.2-1.2s1.2,0.6,1.2,1.2v12
	C66.6,162.7,66.1,163.3,65.4,163.3z"/>
<path class="st0" d="M231.4,590.3L231.4,590.3l-129-1c-0.7,0-1.2-0.6-1.2-1.3s0.6-1.2,1.2-1.2l0,0l129,1c0.7,0,1.2,0.6,1.2,1.3
	C232.6,589.7,232.1,590.3,231.4,590.3z"/>
<path class="st0" d="M102.4,589.3c-0.7,0-1.2-0.6-1.2-1.2v-0.7l-0.9-1.7c-0.1-0.2-0.1-0.4-0.1-0.6v-13c0-0.7,0.6-1.2,1.2-1.2
	c0.7,0,1.2,0.6,1.2,1.2v12.7l0.9,1.7c0.1,0.2,0.1,0.4,0.1,0.6v1C103.6,588.7,103.1,589.3,102.4,589.3z"/>
<path class="st0" d="M231.4,590.3c-0.7,0-1.2-0.6-1.2-1.2v-17c0-0.7,0.6-1.2,1.2-1.2c0.7,0,1.2,0.6,1.2,1.2v17
	C232.7,589.7,232.1,590.3,231.4,590.3z"/>
<path class="st0" d="M102.4,589.3L102.4,589.3l-18.1-1l-34.2-6L34,576.2l-7.2-4.1c-0.1-0.1-0.2-0.1-0.3-0.2l-10-10l-4.2-6.2
	l-3.1-7.2l-2.1-7.1l-1-15.3c0-0.7,0.5-1.3,1.2-1.3c0.8,0,1.3,0.5,1.3,1.2l1,15l2,6.7l2.9,6.9l3.9,5.8l9.7,9.7L35,574l15.8,5.9
	l33.8,5.9l17.9,1c0.7,0,1.2,0.6,1.2,1.3C103.6,588.8,103.1,589.3,102.4,589.3z"/>
<path class="st0" d="M231.4,148.3c-0.7,0-1.2-0.6-1.2-1.2v-5c0-0.7,0.6-1.2,1.2-1.2c0.7,0,1.2,0.6,1.2,1.2v5
	C232.7,147.7,232.1,148.3,231.4,148.3z"/>
<path class="st0" d="M38.4,365.3c-0.1,0-0.2,0-0.3,0c-0.7-0.2-1-0.9-0.9-1.5l2-7l10-36c0.2-0.7,0.9-1.1,1.5-0.9
	c0.7,0.2,1.1,0.9,0.9,1.5l-12,43C39.4,364.9,38.9,365.3,38.4,365.3z"/>
<path class="st0" d="M7.4,527.3c-0.7,0-1.2-0.6-1.2-1.2v-4c0-0.7,0.6-1.2,1.2-1.2s1.2,0.6,1.2,1.2v4C8.7,526.7,8.1,527.3,7.4,527.3z
	"/>
<path class="st0" d="M8.4,540.3c-0.7,0-1.2-0.6-1.2-1.2v-4l-1-8.9v-14.1l1-4.3c0.2-0.7,0.8-1.1,1.5-0.9s1.1,0.8,0.9,1.5l-1,4v13.7
	l1,8.9v4.1C9.7,539.7,9.1,540.3,8.4,540.3z"/>
<path class="st0" d="M25.4,570.3c-0.2,0-0.5-0.1-0.7-0.2l-3-2c-0.6-0.4-0.7-1.2-0.3-1.7s1.2-0.7,1.7-0.3l3,2
	c0.6,0.4,0.7,1.2,0.3,1.7C26.2,570.1,25.8,570.3,25.4,570.3z"/>
<path class="st0" d="M64.4,248.3c-0.7,0-1.2-0.6-1.2-1.2v-18c0-0.7,0.6-1.2,1.2-1.2c0.6,0,1.2,0.6,1.2,1.2v18
	C65.7,247.7,65.1,248.3,64.4,248.3z"/>
<path class="st0" d="M64.4,223.3c-0.7,0-1.2-0.6-1.2-1.2v-6c0-0.7,0.6-1.2,1.2-1.2c0.6,0,1.2,0.6,1.2,1.2v6
	C65.7,222.7,65.1,223.3,64.4,223.3z"/>
<path class="st0" d="M64.4,216.3c-0.7,0-1.2-0.6-1.2-1.2v-25l1-10.1v-12.9c0-0.7,0.6-1.2,1.2-1.2s1.2,0.6,1.2,1.2v13l-1,10.1v24.9
	C65.7,215.7,65.1,216.3,64.4,216.3z"/>
<path class="st0" d="M64.4,230.3c-0.7,0-1.2-0.6-1.2-1.2v-7c0-0.7,0.6-1.2,1.2-1.2c0.6,0,1.2,0.6,1.2,1.2v7
	C65.7,229.7,65.1,230.3,64.4,230.3z"/>
<path class="st0" d="M113.4,589.3h-11c-0.7,0-1.2-0.6-1.2-1.2s0.6-1.2,1.2-1.2h11c0.7,0,1.2,0.6,1.2,1.2S114.1,589.3,113.4,589.3z"
	/>
<path class="st0" d="M48.4,581.3c-0.2,0-0.3,0-0.5-0.1l-5-2c-0.6-0.3-1-1-0.7-1.6s1-0.9,1.6-0.7l5,2c0.6,0.3,1,1,0.7,1.6
	C49.4,581,48.9,581.3,48.4,581.3z"/>
<path class="st0" d="M250.4,610.3c-0.7,0-1.2-0.6-1.2-1.2v-20c0-0.7,0.6-1.2,1.2-1.2c0.7,0,1.2,0.6,1.2,1.2v20
	C251.6,609.7,251.1,610.3,250.4,610.3z"/>
<path class="st0" d="M250.4,610.3h-137c-0.7,0-1.2-0.6-1.2-1.2s0.6-1.2,1.2-1.2h137c0.7,0,1.2,0.6,1.2,1.2S251.1,610.3,250.4,610.3z
	"/>
<path class="st0" d="M113.4,610.3c-0.7,0-1.2-0.6-1.2-1.2v-21c0-0.7,0.6-1.2,1.2-1.2s1.2,0.6,1.2,1.2v21
	C114.7,609.7,114.1,610.3,113.4,610.3z"/>
<path class="st0" d="M45.4,580.3c-0.1,0-0.1,0-0.2,0l-7-1c-0.7-0.1-1.2-0.7-1.1-1.4c0.1-0.7,0.7-1.2,1.4-1.1l7,1
	c0.7,0.1,1.2,0.7,1.1,1.4C46.5,579.8,46,580.3,45.4,580.3z"/>
<path class="st0" d="M38.4,579.3c-0.7,0-1.2-0.6-1.2-1.2v-2c0-0.7,0.6-1.2,1.2-1.2s1.2,0.6,1.2,1.2v2
	C39.7,578.7,39.1,579.3,38.4,579.3z"/>
<path class="st0" d="M279.4,251.3h-48c-0.7,0-1.2-0.6-1.2-1.2c0-0.7,0.6-1.2,1.2-1.2h48c0.7,0,1.2,0.6,1.2,1.2
	S280.1,251.3,279.4,251.3z"/>
<path class="st0" d="M231.4,251.3c-0.3,0-0.6-0.2-0.9-0.4c-0.2-0.3-0.4-0.6-0.4-0.9c0-0.3,0.2-0.6,0.4-0.9c0.5-0.4,1.3-0.4,1.8,0
	c0.2,0.3,0.4,0.6,0.4,0.9c0,0.3-0.2,0.6-0.4,0.9C232,251.1,231.7,251.3,231.4,251.3z"/>
<path class="st0" d="M231.4,250.3c-0.7,0-1.2-0.6-1.2-1.2v-32c0-0.7,0.6-1.2,1.2-1.2c0.7,0,1.2,0.6,1.2,1.2v32
	C232.7,249.7,232.1,250.3,231.4,250.3z"/>
<path class="st0" d="M231.4,251.3c-0.7,0-1.2-0.6-1.2-1.2v-1c0-0.7,0.6-1.2,1.2-1.2c0.7,0,1.2,0.6,1.2,1.2v1
	C232.7,250.7,232.1,251.3,231.4,251.3z"/>
<path class="st0" d="M231.4,527.3c-0.7,0-1.2-0.5-1.2-1.2s0.5-1.3,1.2-1.3l48-1l0,0c0.7,0,1.2,0.5,1.2,1.2s-0.5,1.3-1.2,1.3
	L231.4,527.3L231.4,527.3z"/>
<path class="st0" d="M231.4,527.3c-0.7,0-1.2-0.6-1.2-1.2V250c0-0.7,0.6-1.2,1.2-1.2c0.7,0,1.2,0.6,1.2,1.2v276
	C232.7,526.7,232.1,527.3,231.4,527.3z"/>
<path class="st0" d="M231.4,534.3c-0.7,0-1.2-0.6-1.2-1.2v-7c0-0.7,0.6-1.2,1.2-1.2c0.7,0,1.2,0.6,1.2,1.2v7
	C232.7,533.7,232.1,534.3,231.4,534.3z"/>
<path class="st0" d="M231.4,541.3c-0.7,0-1.2-0.6-1.2-1.2v-7c0-0.7,0.6-1.2,1.2-1.2c0.7,0,1.2,0.6,1.2,1.2v7
	C232.7,540.7,232.1,541.3,231.4,541.3z"/>
<path class="st0" d="M299.4,526.3c-0.6,0-1.2-0.5-1.2-1.1c-0.1-0.7,0.4-1.3,1.1-1.4l11-1c0.7-0.2,1.3,0.4,1.4,1.1
	c0.1,0.7-0.4,1.3-1.1,1.4l-11,1C299.5,526.3,299.4,526.3,299.4,526.3z"/>
<path class="st0" d="M299.4,526.3h-4c-0.7,0-1.2-0.6-1.2-1.2s0.6-1.2,1.2-1.2h4c0.7,0,1.2,0.6,1.2,1.2S300.1,526.3,299.4,526.3z"/>
<path class="st0" d="M295.4,526.3h-12c-0.7,0-1.2-0.6-1.2-1.2s0.6-1.2,1.2-1.2h12c0.7,0,1.2,0.6,1.2,1.2S296.1,526.3,295.4,526.3z"
	/>
<path class="st0" d="M283.4,526.3h-4c-0.7,0-1.2-0.6-1.2-1.2s0.6-1.2,1.2-1.2h4c0.7,0,1.2,0.6,1.2,1.2S284.1,526.3,283.4,526.3z"/>
<path class="st0" d="M325.4,251.3h-46c-0.7,0-1.2-0.6-1.2-1.2c0-0.7,0.6-1.2,1.2-1.2h46c0.7,0,1.2,0.6,1.2,1.2
	S326.1,251.3,325.4,251.3z"/>
<path class="st0" d="M325.4,523.3c-0.7,0-1.2-0.6-1.2-1.2V250c0-0.7,0.6-1.2,1.2-1.2c0.7,0,1.2,0.6,1.2,1.2v272
	C326.6,522.7,326.1,523.3,325.4,523.3z"/>
<path class="st0" d="M325.4,523.2c-0.3,0-0.7-0.1-0.9-0.3c-0.2-0.2-0.3-0.6-0.3-0.9c0-0.3,0.1-0.7,0.3-0.9c0.5-0.5,1.3-0.5,1.8,0
	c0.2,0.2,0.3,0.6,0.3,0.9c0,0.3-0.1,0.7-0.3,0.9C326,523.1,325.7,523.2,325.4,523.2z"/>
<path class="st0" d="M322.4,524.3c-0.5,0-1-0.3-1.2-0.8c-0.2-0.7,0.1-1.4,0.8-1.6l3-1c0.7-0.3,1.4,0.1,1.6,0.8s-0.1,1.4-0.8,1.6
	l-3,1C322.7,524.3,322.5,524.3,322.4,524.3z"/>
<path class="st0" d="M322.4,524.3h-1c-0.7,0-1.2-0.6-1.2-1.2s0.6-1.2,1.2-1.2h1c0.7,0,1.2,0.6,1.2,1.2S323.1,524.3,322.4,524.3z"/>
<path class="st0" d="M313.4,525.3c-0.6,0-1.2-0.5-1.2-1.1c-0.1-0.7,0.4-1.3,1.1-1.4l8-1c0.8-0.1,1.3,0.4,1.4,1.1
	c0.1,0.7-0.4,1.3-1.1,1.4l-8,1C313.5,525.3,313.4,525.3,313.4,525.3z"/>
<path class="st0" d="M313.4,525.3h-3c-0.7,0-1.2-0.6-1.2-1.2s0.6-1.2,1.2-1.2h3c0.7,0,1.2,0.6,1.2,1.2S314.1,525.3,313.4,525.3z"/>
<path class="st0" d="M325.4,251.3c-0.7,0-1.2-0.6-1.2-1.2v-13c0-0.7,0.6-1.2,1.2-1.2c0.7,0,1.2,0.6,1.2,1.2v13
	C326.6,250.7,326.1,251.3,325.4,251.3z"/>
<path class="st0" d="M325.4,543.3c-0.7,0-1.2-0.6-1.2-1.2v-20c0-0.7,0.6-1.2,1.2-1.2c0.7,0,1.2,0.6,1.2,1.2v20
	C326.6,542.7,326.1,543.3,325.4,543.3z"/>
<path class="st0" d="M231.4,19.3c-0.7,0-1.2-0.6-1.2-1.2v-8c0-0.7,0.6-1.2,1.2-1.2c0.7,0,1.2,0.6,1.2,1.2v8
	C232.7,18.7,232.1,19.3,231.4,19.3z"/>
<path class="st0" d="M231.4,218.3c-0.7,0-1.2-0.6-1.2-1.2V10c0-0.7,0.6-1.2,1.2-1.2c0.7,0,1.2,0.6,1.2,1.2v207
	C232.7,217.7,232.1,218.3,231.4,218.3z"/>
<path class="st0" d="M325.4,67.3c-0.7,0-1.2-0.6-1.2-1.2v-8c0-0.7,0.6-1.2,1.2-1.2c0.7,0,1.2,0.6,1.2,1.2v8
	C326.6,66.7,326.1,67.3,325.4,67.3z"/>
<path class="st0" d="M325.4,96.3c-0.7,0-1.2-0.6-1.2-1.2V66c0-0.7,0.6-1.2,1.2-1.2c0.7,0,1.2,0.6,1.2,1.2v29
	C326.6,95.7,326.1,96.3,325.4,96.3z"/>
<path class="st0" d="M325.4,127.3c-0.7,0-1.2-0.6-1.2-1.2V95c0-0.7,0.6-1.2,1.2-1.2c0.7,0,1.2,0.6,1.2,1.2v31
	C326.6,126.7,326.1,127.3,325.4,127.3z"/>
<path class="st0" d="M325.4,238.3c-0.7,0-1.2-0.6-1.2-1.2V126c0-0.7,0.6-1.2,1.2-1.2c0.7,0,1.2,0.6,1.2,1.2v111
	C326.6,237.7,326.1,238.3,325.4,238.3z"/>
<path class="st0" d="M279.4,590.3h-48c-0.7,0-1.2-0.6-1.2-1.2c0-0.7,0.6-1.2,1.2-1.2h48c0.7,0,1.2,0.6,1.2,1.2
	S280.1,590.3,279.4,590.3z"/>
<path class="st0" d="M231.4,585.3c-0.7,0-1.2-0.6-1.2-1.2v-12c0-0.7,0.6-1.2,1.2-1.2c0.7,0,1.2,0.6,1.2,1.2v12
	C232.7,584.7,232.1,585.3,231.4,585.3z"/>
<path class="st0" d="M231.4,587.3c-0.7,0-1.2-0.6-1.2-1.2v-2c0-0.7,0.6-1.2,1.2-1.2c0.7,0,1.2,0.6,1.2,1.2v2
	C232.7,586.7,232.1,587.3,231.4,587.3z"/>
<path class="st0" d="M231.4,590.3c-0.7,0-1.2-0.6-1.2-1.2v-3c0-0.7,0.6-1.2,1.2-1.2c0.7,0,1.2,0.6,1.2,1.2v3
	C232.7,589.7,232.1,590.3,231.4,590.3z"/>
<path class="st0" d="M231.4,590.3c-0.3,0-0.6-0.2-0.9-0.4c-0.2-0.2-0.4-0.5-0.4-0.9c0-0.3,0.2-0.7,0.4-0.9c0.5-0.5,1.3-0.5,1.8,0
	c0.2,0.2,0.3,0.6,0.3,0.9c0,0.3-0.1,0.7-0.3,0.9C232,590.1,231.7,590.3,231.4,590.3z"/>
<path class="st0" d="M325.4,546.3c-0.7,0-1.2-0.6-1.2-1.2v-3c0-0.7,0.6-1.2,1.2-1.2c0.7,0,1.2,0.6,1.2,1.2v3
	C326.6,545.7,326.1,546.3,325.4,546.3z"/>
<path class="st0" d="M324.4,554.3c0,0-0.1,0-0.2,0c-0.7-0.1-1.2-0.7-1.1-1.4l1-8c0.1-0.7,0.6-1.2,1.4-1.1c0.7,0.1,1.2,0.7,1.1,1.4
	l-1,8C325.6,553.8,325,554.3,324.4,554.3z"/>
<path class="st0" d="M323.4,558.3c-0.1,0-0.2,0-0.3,0c-0.7-0.2-1.1-0.8-0.9-1.5l1-4c0.2-0.7,0.9-1.1,1.5-0.9
	c0.7,0.2,1.1,0.8,0.9,1.5l-1,4C324.5,557.9,323.9,558.3,323.4,558.3z"/>
<path class="st0" d="M321.4,562.3c-0.2,0-0.4,0-0.6-0.1c-0.6-0.3-0.9-1.1-0.6-1.7l2-4c0.3-0.6,1.1-0.9,1.7-0.6
	c0.6,0.3,0.9,1.1,0.6,1.7l-2,4C322.3,562,321.9,562.3,321.4,562.3z"/>
<path class="st0" d="M315.4,572.3c-0.2,0-0.4-0.1-0.6-0.2c-0.6-0.4-0.8-1.1-0.4-1.7l6-10c0.4-0.6,1.1-0.8,1.7-0.4
	c0.6,0.4,0.8,1.1,0.4,1.7l-6,10C316.2,572.1,315.8,572.3,315.4,572.3z"/>
<path class="st0" d="M308.4,579.3c-0.3,0-0.6-0.1-0.8-0.3c-0.5-0.4-0.6-1.2-0.1-1.8l6-7c0.4-0.5,1.2-0.6,1.8-0.1
	c0.5,0.4,0.6,1.2,0.1,1.8l-6,7C309.1,579.1,308.7,579.3,308.4,579.3z"/>
<path class="st0" d="M306.4,580.3c-0.5,0-0.9-0.3-1.1-0.7c-0.3-0.6-0.1-1.4,0.6-1.7l2-1c0.6-0.3,1.4-0.1,1.7,0.6
	c0.3,0.6,0.1,1.4-0.6,1.7l-2,1C306.8,580.2,306.6,580.3,306.4,580.3z"/>
<path class="st0" d="M298.4,585.3c-0.5,0-0.9-0.3-1.1-0.7c-0.3-0.6-0.1-1.4,0.6-1.7l4-2l3.8-2.9c0.6-0.4,1.3-0.3,1.7,0.2
	c0.4,0.6,0.3,1.3-0.2,1.7l-4,3L299,585C298.8,585.2,298.6,585.3,298.4,585.3z"/>
<path class="st0" d="M279.4,590.3c-0.6,0-1.1-0.4-1.2-1c-0.1-0.7,0.3-1.3,1-1.5l10-2l8.8-2.9c0.7-0.3,1.4,0.1,1.6,0.8
	s-0.1,1.4-0.8,1.6l-9,3l-10.1,2.1C279.6,590.3,279.5,590.3,279.4,590.3z"/>
<path class="st0" d="M231.4,19.3c-0.7,0-1.2-0.6-1.2-1.2v-8c0-0.7,0.6-1.2,1.2-1.2c0.7,0,1.2,0.6,1.2,1.2v8
	C232.7,18.7,232.1,19.3,231.4,19.3z"/>
<path class="st0" d="M137.4,218.3c-0.7,0-1.2-0.6-1.2-1.2V11c0-0.7,0.6-1.2,1.2-1.2s1.2,0.6,1.2,1.2v206
	C138.6,217.7,138.1,218.3,137.4,218.3z"/>
<path class="st0" d="M64.4,251.3c-0.3,0-0.7-0.2-0.9-0.4c-0.2-0.3-0.4-0.6-0.4-0.9c0-0.3,0.2-0.7,0.4-0.9c0.5-0.4,1.3-0.5,1.8,0
	c0.2,0.2,0.4,0.6,0.4,0.9c0,0.3-0.2,0.6-0.4,0.9C65,251.1,64.7,251.3,64.4,251.3z"/>
<path class="st0" d="M7.4,527.2c-0.3,0-0.6-0.1-0.9-0.3c-0.2-0.2-0.3-0.6-0.3-0.9s0.1-0.6,0.3-0.9c0.4-0.5,1.3-0.5,1.8,0
	c0.2,0.3,0.4,0.6,0.4,0.9s-0.2,0.6-0.4,0.9C8,527.1,7.7,527.2,7.4,527.2z"/>
<path class="st0" d="M231.4,583.2c-0.3,0-0.6-0.1-0.9-0.3c-0.2-0.2-0.4-0.6-0.4-0.9c0-0.4,0.2-0.7,0.4-0.9c0.4-0.5,1.3-0.5,1.8,0
	c0.2,0.2,0.4,0.5,0.4,0.9c0,0.3-0.2,0.7-0.4,0.9C232.1,583.1,231.7,583.2,231.4,583.2z"/>
<g>
	<path class="st0" d="M121.5,649.8c0.1-1.6,0.5-3.1,1.1-4.5s1.5-2.5,2.7-3.4c1.2-0.9,2.9-1.3,5-1.3c2.1,0,3.8,0.4,5,1.3
		c1.2,0.9,2.1,2,2.7,3.4c0.6,1.4,1,2.8,1.1,4.5c0.1,1.6,0.2,3.2,0.2,4.7c0,1,0,2-0.1,3.1c-0.1,1.1-0.2,2.1-0.4,3.1
		c-0.2,1-0.5,2-0.9,2.9c-0.4,0.9-0.9,1.7-1.6,2.4c-0.7,0.7-1.5,1.2-2.5,1.6c-1,0.4-2.2,0.6-3.6,0.6c-1.4,0-2.6-0.2-3.6-0.6
		c-1-0.4-1.8-1-2.5-1.6s-1.2-1.5-1.6-2.4c-0.4-0.9-0.7-1.9-0.9-2.9c-0.2-1-0.3-2.1-0.4-3.1c-0.1-1.1-0.1-2.1-0.1-3.1
		C121.3,653,121.4,651.5,121.5,649.8z M124.8,657.9c0.1,1.3,0.3,2.5,0.6,3.6s0.9,2,1.7,2.8c0.8,0.8,1.8,1.1,3.2,1.1s2.5-0.4,3.2-1.1
		c0.8-0.8,1.3-1.7,1.7-2.8s0.5-2.3,0.6-3.6c0.1-1.3,0.1-2.4,0.1-3.4c0-0.7,0-1.4,0-2.2c0-0.8-0.1-1.6-0.2-2.4
		c-0.1-0.8-0.3-1.6-0.5-2.4c-0.2-0.8-0.5-1.4-1-2c-0.4-0.6-1-1-1.6-1.4c-0.6-0.4-1.4-0.5-2.3-0.5s-1.7,0.2-2.3,0.5
		c-0.6,0.4-1.2,0.8-1.6,1.4c-0.4,0.6-0.7,1.2-1,2c-0.2,0.8-0.4,1.6-0.5,2.4c-0.1,0.8-0.2,1.6-0.2,2.4c0,0.8,0,1.5,0,2.2
		C124.7,655.5,124.8,656.6,124.8,657.9z"/>
	<path class="st0" d="M144.2,663.6h4.3v4.3h-4.3V663.6z"/>
	<path class="st0" d="M154.8,644.7c0.4-0.9,1-1.6,1.8-2.2c0.7-0.6,1.6-1,2.5-1.3c1-0.3,2-0.5,3-0.5c1.5,0,2.7,0.2,3.8,0.6
		c1,0.4,1.9,0.9,2.5,1.6s1.1,1.4,1.4,2.2c0.3,0.8,0.5,1.7,0.5,2.5c0,1.2-0.3,2.3-1,3.4c-0.7,1-1.6,1.8-2.7,2.3
		c1.6,0.5,2.8,1.3,3.6,2.5c0.8,1.2,1.2,2.6,1.2,4.3c0,1.3-0.2,2.5-0.7,3.5c-0.5,1-1.1,1.9-1.9,2.6c-0.8,0.7-1.8,1.2-2.9,1.6
		c-1.1,0.4-2.3,0.6-3.5,0.6c-1.3,0-2.5-0.2-3.6-0.5c-1.1-0.3-2.1-0.9-2.9-1.6s-1.5-1.6-2-2.6c-0.5-1-0.7-2.2-0.7-3.6
		c0-1.6,0.4-3,1.2-4.2s2-2,3.5-2.6c-1.1-0.5-2.1-1.2-2.8-2.2c-0.7-1-1-2.2-1-3.4C154.1,646.5,154.4,645.5,154.8,644.7z M158.3,664
		c1.1,0.9,2.5,1.4,4.2,1.4c0.8,0,1.6-0.1,2.2-0.4c0.7-0.3,1.3-0.6,1.8-1.1s0.9-1,1.1-1.7c0.3-0.6,0.4-1.3,0.4-2.1
		c0-0.7-0.1-1.4-0.4-2c-0.3-0.6-0.7-1.2-1.2-1.6c-0.5-0.5-1.1-0.8-1.8-1.1c-0.7-0.3-1.4-0.4-2.2-0.4c-0.8,0-1.6,0.1-2.3,0.4
		c-0.7,0.2-1.3,0.6-1.8,1.1c-0.5,0.5-0.9,1-1.2,1.6c-0.3,0.6-0.4,1.4-0.4,2.1C156.6,661.8,157.2,663.1,158.3,664z M158,649.7
		c0.3,0.5,0.6,1,1,1.4c0.4,0.4,0.9,0.6,1.5,0.8c0.6,0.2,1.2,0.3,1.9,0.3c1.3,0,2.4-0.4,3.2-1.1c0.8-0.8,1.3-1.8,1.3-3.2
		s-0.4-2.4-1.3-3.1c-0.9-0.7-1.9-1.1-3.3-1.1c-0.7,0-1.3,0.1-1.9,0.3s-1.1,0.4-1.5,0.8c-0.4,0.4-0.8,0.8-1,1.3
		c-0.3,0.5-0.4,1.1-0.4,1.8C157.6,648.5,157.7,649.1,158,649.7z"/>
	<path class="st0" d="M174.8,649.8c0.1-1.6,0.5-3.1,1.1-4.5s1.5-2.5,2.7-3.4c1.2-0.9,2.9-1.3,5-1.3c2.1,0,3.8,0.4,5,1.3
		c1.2,0.9,2.1,2,2.7,3.4c0.6,1.4,1,2.8,1.1,4.5c0.1,1.6,0.2,3.2,0.2,4.7c0,1,0,2-0.1,3.1c-0.1,1.1-0.2,2.1-0.4,3.1
		c-0.2,1-0.5,2-0.9,2.9c-0.4,0.9-0.9,1.7-1.6,2.4c-0.7,0.7-1.5,1.2-2.5,1.6c-1,0.4-2.2,0.6-3.6,0.6c-1.4,0-2.6-0.2-3.6-0.6
		c-1-0.4-1.8-1-2.5-1.6s-1.2-1.5-1.6-2.4c-0.4-0.9-0.7-1.9-0.9-2.9c-0.2-1-0.3-2.1-0.4-3.1c-0.1-1.1-0.1-2.1-0.1-3.1
		C174.6,653,174.6,651.5,174.8,649.8z M178.1,657.9c0.1,1.3,0.3,2.5,0.6,3.6s0.9,2,1.7,2.8c0.8,0.8,1.8,1.1,3.2,1.1s2.5-0.4,3.2-1.1
		c0.8-0.8,1.3-1.7,1.7-2.8s0.5-2.3,0.6-3.6c0.1-1.3,0.1-2.4,0.1-3.4c0-0.7,0-1.4,0-2.2c0-0.8-0.1-1.6-0.2-2.4
		c-0.1-0.8-0.3-1.6-0.5-2.4c-0.2-0.8-0.5-1.4-1-2c-0.4-0.6-1-1-1.6-1.4c-0.6-0.4-1.4-0.5-2.3-0.5s-1.7,0.2-2.3,0.5
		c-0.6,0.4-1.2,0.8-1.6,1.4c-0.4,0.6-0.7,1.2-1,2c-0.2,0.8-0.4,1.6-0.5,2.4c-0.1,0.8-0.2,1.6-0.2,2.4c0,0.8,0,1.5,0,2.2
		C178,655.5,178,656.6,178.1,657.9z"/>
	<path class="st0" d="M200.1,644.5h-3.3v-4h3.3V644.5z M196.9,648h3.3v19.8h-3.3V648z"/>
	<path class="st0" d="M205.2,648h3.1v3.1h0.1c0.7-1.2,1.6-2.1,2.7-2.7c1.1-0.6,2.3-0.9,3.8-0.9c1.3,0,2.4,0.2,3.3,0.5
		c0.9,0.4,1.6,0.9,2.1,1.5c0.5,0.6,0.9,1.4,1.1,2.3c0.2,0.9,0.3,1.9,0.3,2.9v13h-3.3v-13.4c0-1.2-0.4-2.2-1.1-2.9s-1.7-1.1-2.9-1.1
		c-1,0-1.9,0.2-2.6,0.5c-0.7,0.3-1.3,0.7-1.8,1.3c-0.5,0.6-0.8,1.2-1.1,2c-0.2,0.8-0.4,1.6-0.4,2.5v11.2h-3.3V648z"/>
</g>
</svg>
