<svg xmlns="http://www.w3.org/2000/svg" xmlns:xlink="http://www.w3.org/1999/xlink" viewBox="0 0 905.19 142.12"><defs><style>.cls-1{fill:#fff;}.cls-2{fill:#f9fafb;}.cls-3{fill:url(#linear-gradient);}</style><linearGradient id="linear-gradient" x1="328.2" y1="38.51" x2="259.78" y2="111.87" gradientTransform="translate(-224.28)" gradientUnits="userSpaceOnUse"><stop offset="0" stop-color="#27bdc4"/><stop offset="1" stop-color="#426ab2"/></linearGradient></defs><title>logo_smartthings</title><g id="Warstwa_2" data-name="Warstwa 2"><g id="Logo"><path class="cls-1" d="M220.51,70.67a31.52,31.52,0,0,0-7.64-4.36c-2.81-1.13-5.61-2.13-8.38-3l-6.4-2.07A30.32,30.32,0,0,1,192.75,59a12,12,0,0,1-3.65-2.89,6.14,6.14,0,0,1-1.35-4,8.31,8.31,0,0,1,2.92-6.44c2-1.75,4.79-2.62,8.54-2.62a16.76,16.76,0,0,1,14.84,8.1l12.58-9.79a53.25,53.25,0,0,0-5.22-4.77,30.93,30.93,0,0,0-6.07-3.77A34.88,34.88,0,0,0,208,30.3a40.71,40.71,0,0,0-8.93-.9,32.57,32.57,0,0,0-10.85,1.75A26.78,26.78,0,0,0,179.6,36a22.3,22.3,0,0,0-5.68,7.26,20.11,20.11,0,0,0-2,9A19.31,19.31,0,0,0,174,61.65,20.37,20.37,0,0,0,179.37,68a27.87,27.87,0,0,0,7.48,4.09q4.16,1.53,8.31,2.83c2.18.66,4.29,1.31,6.35,2A32.43,32.43,0,0,1,207,79.11a12.55,12.55,0,0,1,3.82,3,6.41,6.41,0,0,1,1.46,4.25A10.32,10.32,0,0,1,209,93.78q-3.19,3.28-9.27,3.28a19.67,19.67,0,0,1-10.22-2.73,22.71,22.71,0,0,1-7.76-7.88L167.85,97a49.67,49.67,0,0,0,13.27,10.5q7.63,4.22,18.76,4.22a31.94,31.94,0,0,0,12-2.13,27.71,27.71,0,0,0,8.88-5.57,23.83,23.83,0,0,0,5.51-7.91,23.27,23.27,0,0,0,1.91-9.17,19.9,19.9,0,0,0-2.14-9.67A21.3,21.3,0,0,0,220.51,70.67ZM507.6,25.35,492.31,35.81v10H481.07v13.6h11.24V84.13a55.86,55.86,0,0,0,1.29,13.1,18.48,18.48,0,0,0,4.33,8.42,16.8,16.8,0,0,0,8.15,4.56,51,51,0,0,0,12.76,1.34H521V97.28a43.57,43.57,0,0,1-7-.45,6.37,6.37,0,0,1-5.9-5.9A42.67,42.67,0,0,1,507.6,84V59.41H521V45.81H507.6ZM404.32,54.48a25.21,25.21,0,0,0-9.11-6.43,30.25,30.25,0,0,0-12-2.35,34.08,34.08,0,0,0-12.09,2.22,31.06,31.06,0,0,0-17.75,16.79,33.78,33.78,0,0,0-2.76,14,33.09,33.09,0,0,0,2.81,13.92A32,32,0,0,0,360.82,103,33,33,0,0,0,383,111.67a29.18,29.18,0,0,0,12.14-2.53,24.72,24.72,0,0,0,9.22-6.93v9.34h15.17V45.81H404.32ZM403.58,86a20,20,0,0,1-4.1,6.13,18.08,18.08,0,0,1-6.18,4.11,21.51,21.51,0,0,1-15.68,0,19.84,19.84,0,0,1-6.35-4.06,18.54,18.54,0,0,1-4.21-6.12,19,19,0,0,1-1.52-7.55,18.66,18.66,0,0,1,1.52-7.5,18,18,0,0,1,4.21-6,20.24,20.24,0,0,1,6.35-4,21.51,21.51,0,0,1,15.68,0,18.56,18.56,0,0,1,6.18,4.06,19.47,19.47,0,0,1,4.1,6.07,18.17,18.17,0,0,1,1.52,7.39A18.41,18.41,0,0,1,403.58,86Zm60.64-40.2q-12.25,0-16.86,9.78V45.81H432.3v65.74h15.17V76.49q0-8.53,3.43-12.31T461,60.42a16.23,16.23,0,0,1,5.33.73A16.74,16.74,0,0,1,470.06,63l5.73-14.38a23.48,23.48,0,0,0-5.11-2A24.65,24.65,0,0,0,464.22,45.81ZM314.63,45.7a25.89,25.89,0,0,0-12.64,3,24.79,24.79,0,0,0-8.94,8.14,20.56,20.56,0,0,0-8.26-8.25A26.81,26.81,0,0,0,271.7,45.7,24.63,24.63,0,0,0,260.85,48a22.41,22.41,0,0,0-7.92,6.29V45.81H237.87v65.74H253V76c0-5.7,1.41-10,4.22-12.84a14.27,14.27,0,0,1,10.62-4.29q6.86,0,10.34,4t3.48,10.87v37.88h15.4V75.65q0-8.46,4.16-12.63a14,14,0,0,1,10.34-4.18q7.08,0,10.67,4.12t3.6,11.15v37.44h15.51V72.72q0-12.57-6.74-19.8T314.63,45.7Zm214.88-1.58h21.92v67.43h15.28V44.12h22V29.51H529.51ZM897.66,77.63a31.06,31.06,0,0,0-7.47-3.32,77.82,77.82,0,0,0-8.15-2,89.38,89.38,0,0,1-11.24-2.85C868.26,68.59,867,67.11,867,65a5.91,5.91,0,0,1,2.59-4.72q2.58-2,8-2a17.39,17.39,0,0,1,8.31,1.92,14.41,14.41,0,0,1,5.62,5.23l12.93-6.11a27.65,27.65,0,0,0-10.4-10q-6.57-3.66-16.46-3.66a34,34,0,0,0-10.62,1.55,26,26,0,0,0-8.15,4.23,19.76,19.76,0,0,0-5.23,6.16,16.33,16.33,0,0,0,.17,15.43A16.79,16.79,0,0,0,859,78.43a28.15,28.15,0,0,0,7.36,3.27q4.11,1.17,8.38,2,3,.64,5.84,1.18a28.47,28.47,0,0,1,4.89,1.34,12.21,12.21,0,0,1,3.37,1.87,3.48,3.48,0,0,1,1.3,2.79,6.7,6.7,0,0,1-2.81,5.36q-2.82,2.25-8.43,2.25a18.68,18.68,0,0,1-9.44-2.32,16.67,16.67,0,0,1-6.41-6.64l-14,6.32a27.45,27.45,0,0,0,11.13,11.73q7.18,4,18.09,4.06a34.24,34.24,0,0,0,12.14-1.93,25.74,25.74,0,0,0,8.37-5,19.94,19.94,0,0,0,4.89-6.64,17.21,17.21,0,0,0,1.57-6.92,15.08,15.08,0,0,0-2.07-8.2A17.05,17.05,0,0,0,897.66,77.63ZM824.75,55.09a25.67,25.67,0,0,0-9.1-6.86,28.47,28.47,0,0,0-12-2.53,34,34,0,0,0-12.08,2.22,31.34,31.34,0,0,0-10.45,6.44,31.66,31.66,0,0,0-7.31,10.35,33.78,33.78,0,0,0-2.75,14,32.93,32.93,0,0,0,2.81,13.92A31.87,31.87,0,0,0,781.25,103a33,33,0,0,0,22.15,8.67,27.93,27.93,0,0,0,12.25-2.7,25,25,0,0,0,9.21-7.42v7.65a20.54,20.54,0,0,1-1.29,7.19,18,18,0,0,1-3.71,6.07,18.31,18.31,0,0,1-5.9,4.15,18.62,18.62,0,0,1-7.76,1.58q-7.86,0-12.36-3.26a29.2,29.2,0,0,1-8.09-9.89l-13.49,8.2a37.56,37.56,0,0,0,5.4,7.59,33.77,33.77,0,0,0,7.3,6,36.25,36.25,0,0,0,9.39,3.93,44.62,44.62,0,0,0,11.63,1.4,38.6,38.6,0,0,0,14.67-2.6,29.44,29.44,0,0,0,17.08-17.59,37.25,37.25,0,0,0,2.19-12.87V45.81H824.75ZM824,86a20.16,20.16,0,0,1-4.1,6.13,18.22,18.22,0,0,1-6.19,4.11,21.48,21.48,0,0,1-15.67,0,19.73,19.73,0,0,1-6.35-4.06,18.57,18.57,0,0,1-4.22-6.12A19,19,0,0,1,786,78.52a18.65,18.65,0,0,1,1.51-7.5,18,18,0,0,1,4.22-6,20.13,20.13,0,0,1,6.35-4,21.48,21.48,0,0,1,15.67,0,18.7,18.7,0,0,1,6.19,4.06,19.64,19.64,0,0,1,4.1,6.07,18.34,18.34,0,0,1,1.52,7.39A18.57,18.57,0,0,1,824,86ZM633.58,45.7a25.08,25.08,0,0,0-11.29,2.47,24.13,24.13,0,0,0-8.38,6.74V29.46H598.74v82.09H614V76.31a21.93,21.93,0,0,1,1.18-7.47,15.33,15.33,0,0,1,3.25-5.49A14,14,0,0,1,623.35,60a15.55,15.55,0,0,1,6-1.16c5,0,8.65,1.45,11.13,4.34s3.71,6.87,3.71,11.92v36.45h15.5V73.27q0-13-6.91-20.29T633.58,45.7Zm101.6,0a25.26,25.26,0,0,0-11.41,2.49,24.05,24.05,0,0,0-8.26,6.6v-9H700.45v65.74h15.17V76.31q0-8.46,4.44-13a14.79,14.79,0,0,1,11-4.51q7.41,0,11.13,4.34T745.85,75v36.56h15.4V73.27q0-13-6.91-20.29T735.18,45.7Zm-62.83,65.85h15.29V45.81H672.35ZM680,20a9.29,9.29,0,0,0-7,2.64,9.47,9.47,0,0,0-2.59,6.92,9.49,9.49,0,0,0,2.48,6.85Q675.38,39,680,39a9.36,9.36,0,0,0,7-2.59,9.36,9.36,0,0,0,2.53-6.85A9.59,9.59,0,0,0,687,22.6,9.27,9.27,0,0,0,680,20Z"/><path class="cls-2" d="M124.69,15.76C110.18,2.89,91,0,73.05,0H67.36C48.8,0,29.46,3.14,15.76,15.76,2.93,30.28,0,49.53,0,67.45V73c0,18.52,3.14,38,15.76,51.73,14.61,12.92,33.94,15.76,52,15.76h5c18.61,0,38.21-3.1,52-15.76,12.92-14.6,15.76-34,15.76-52v-5C140.45,49.1,137.35,29.5,124.69,15.76Z"/><path class="cls-3" d="M58.66,92.61l-4.27-3-2.3,3.09a13.18,13.18,0,0,0-5.45-1.17,13.37,13.37,0,0,0-10.7,5.32,12.74,12.74,0,0,0,2.93,18A13.39,13.39,0,0,0,57.31,112a12.72,12.72,0,0,0-.94-16.31ZM53,109A8.05,8.05,0,0,1,42,110.67a7.64,7.64,0,0,1-1.75-10.82,8.05,8.05,0,0,1,11.07-1.71A7.64,7.64,0,0,1,53,109ZM93.8,91.49a13.23,13.23,0,0,0-5.46,1.17l-2.29-3.09-4.27,3,2.29,3.08a12.7,12.7,0,0,0-.94,16.3,13.41,13.41,0,0,0,18.44,2.86,12.75,12.75,0,0,0,2.92-18A13.34,13.34,0,0,0,93.8,91.49Zm4.67,19.18A8.05,8.05,0,0,1,87.4,109a7.66,7.66,0,0,1,1.75-10.83,8,8,0,0,1,11.07,1.72A7.64,7.64,0,0,1,98.47,110.67ZM121,56.54a13.15,13.15,0,0,0-12.56-8.92,13.52,13.52,0,0,0-4.08.63,12.92,12.92,0,0,0-9,13.74l-3.71,1.18,1.64,4.91,3.71-1.18a13.22,13.22,0,0,0,11.48,6.55,13.48,13.48,0,0,0,4.08-.64,13,13,0,0,0,7.69-6.42A12.57,12.57,0,0,0,121,56.54Zm-5.5,7.51a7.84,7.84,0,0,1-4.61,3.85,8.19,8.19,0,0,1-2.45.38,7.9,7.9,0,0,1-7.54-5.35,7.74,7.74,0,0,1,5.09-9.77,8.19,8.19,0,0,1,2.45-.38,7.91,7.91,0,0,1,7.54,5.36A7.56,7.56,0,0,1,115.45,64.05ZM88.18,72.66A17.07,17.07,0,0,0,73.39,55.48V46.19a12.68,12.68,0,0,0,10-12.77,13.21,13.21,0,0,0-26.42,0c0,6.24,5.08,11.57,11.1,12.77v9.29c-5.89.86-11.38,4.33-14,9.36l-9-2.85a12.57,12.57,0,0,0-1.35-7.32,13.06,13.06,0,0,0-7.69-6.42,13.47,13.47,0,0,0-4.08-.63,13.14,13.14,0,0,0-12.56,8.92A12.87,12.87,0,0,0,28,72.81a13.48,13.48,0,0,0,4.08.64A13.22,13.22,0,0,0,43.53,66.9l9,2.85a16.49,16.49,0,0,0-.27,2.91,18,18,0,0,0,35.92,0ZM39.59,62.93a7.9,7.9,0,0,1-7.54,5.35,8.19,8.19,0,0,1-2.45-.38,7.72,7.72,0,0,1-5.09-9.76,7.91,7.91,0,0,1,7.54-5.36,8.19,8.19,0,0,1,2.45.38A7.82,7.82,0,0,1,39.11,57,7.56,7.56,0,0,1,39.59,62.93ZM62.3,33.42a7.92,7.92,0,1,1,7.92,7.75A7.85,7.85,0,0,1,62.3,33.42ZM70.22,84A11.36,11.36,0,1,1,81.84,72.66,11.51,11.51,0,0,1,70.22,84Z"/></g></g></svg>