<?xml version="1.0" encoding="utf-8"?>
<!-- Generator: Adobe Illustrator 21.0.0, SVG Export Plug-In . SVG Version: 6.00 Build 0)  -->
<svg version="1.1" id="Warstwa_1" xmlns="http://www.w3.org/2000/svg" xmlns:xlink="http://www.w3.org/1999/xlink" x="0px" y="0px"
	 viewBox="0 0 70 70" style="enable-background:new 0 0 70 70;" xml:space="preserve">
<style type="text/css">
	.st0{fill:#0090FF;}
</style>
<g transform="translate(0,-952.36218)">
	<path class="st0" d="M36.7,969.6c-0.1,0-0.2,0-0.2,0.1l-12.8,8H10.9c-0.3,0-0.5,0.2-0.5,0.5v18.3c0,0.3,0.2,0.5,0.5,0.5h12.8
		l12.8,8c0.3,0.2,0.6,0.1,0.7-0.2c0.1-0.1,0.1-0.2,0.1-0.3v-34.5C37.3,969.8,37.1,969.6,36.7,969.6
		C36.8,969.6,36.7,969.6,36.7,969.6z M36.2,971.1v32.5l-11.9-7.4v-17.7L36.2,971.1z M49.7,973.3c0,0-0.1,0-0.1,0
		c-0.3,0.1-0.5,0.3-0.4,0.6c0,0.1,0.1,0.2,0.2,0.3c3.8,3.1,6.3,7.8,6.3,13.1c0,5.3-2.5,10-6.3,13.1c-0.2,0.2-0.3,0.5-0.1,0.8
		c0.2,0.2,0.5,0.3,0.8,0.1c4.1-3.3,6.7-8.3,6.7-13.9c0-5.6-2.6-10.6-6.7-13.9C50,973.4,49.8,973.3,49.7,973.3z M45.9,977.1
		c-0.3,0-0.5,0.3-0.5,0.6c0,0.2,0.1,0.3,0.3,0.4c2.9,2,4.6,5.4,4.6,9.3c0,3.8-1.7,7.2-4.6,9.2c-0.2,0.2-0.3,0.5-0.1,0.8
		c0.2,0.2,0.5,0.3,0.7,0.1c3.2-2.2,5.1-6,5.1-10.1c0-4.2-1.9-7.9-5.1-10.2C46.1,977.1,46,977.1,45.9,977.1z M11.5,978.7h11.9V996
		H11.5V978.7z M41.5,981.4c-0.3,0-0.5,0.3-0.4,0.6c0,0.1,0.1,0.3,0.2,0.4c1.5,1.1,2.5,3,2.5,5c0,2-1,3.9-2.5,5
		c-0.2,0.2-0.3,0.5-0.1,0.8c0.2,0.2,0.5,0.3,0.8,0.1c1.8-1.3,2.9-3.5,2.9-5.8c0-2.3-1.1-4.5-2.9-5.8
		C41.8,981.4,41.7,981.4,41.5,981.4z"/>
</g>
</svg>
