<svg id="Warstwa_1" data-name="Warstwa 1" xmlns="http://www.w3.org/2000/svg" viewBox="0 0 210 210"><defs><style>.cls-1{fill:#fff;}</style></defs><title>przycisk_scene_projector</title><path class="cls-1" d="M105,206.25A101.25,101.25,0,1,1,206.25,105,101.36,101.36,0,0,1,105,206.25Zm0-200A98.75,98.75,0,1,0,203.75,105,98.86,98.86,0,0,0,105,6.25Z"/><path class="cls-1" d="M105,85.77a17.83,17.83,0,1,0,17.83,17.83A17.85,17.85,0,0,0,105,85.77Zm0,33.57a15.74,15.74,0,1,1,15.74-15.74A15.75,15.75,0,0,1,105,119.34Z"/><path class="cls-1" d="M164.8,86.82a6.65,6.65,0,0,0-6.64-6.64H126.5l-.1-.09a31.74,31.74,0,0,0-42.8,0l-.1.09H51.85a6.65,6.65,0,0,0-6.64,6.64v33.57A6.65,6.65,0,0,0,51.85,127h4.55v10.14a1.1,1.1,0,0,0,1,1H72.83a1.1,1.1,0,0,0,1-1V127h9.58l.1.09a31.85,31.85,0,0,0,42.89,0l.1-.09h9.58v10.14a1.1,1.1,0,0,0,1,1h15.39a1.1,1.1,0,0,0,1-1V127h4.55a6.65,6.65,0,0,0,6.64-6.64Zm-93,49.3H58.49V127H71.78ZM51.85,124.93a4.5,4.5,0,0,1-4.55-4.55V86.82a4.5,4.5,0,0,1,4.55-4.55H81.42l-.5.58a31.76,31.76,0,0,0,0,41.5l.5.58ZM105,133.32a29.72,29.72,0,1,1,29.72-29.72A29.76,29.76,0,0,1,105,133.32Zm46.51,2.8H138.22V127h13.29Zm11.19-15.74a4.5,4.5,0,0,1-4.55,4.55H128.63l.5-.58a31.76,31.76,0,0,0,0-41.5l-.5-.58h29.57a4.5,4.5,0,0,1,4.55,4.55Z"/></svg>