<svg id="Warstwa_1" data-name="Warstwa 1" xmlns="http://www.w3.org/2000/svg" viewBox="0 0 210 210"><defs><style>.cls-1{fill:#fff;}</style></defs><title>przycisk_scene_blinds</title><path class="cls-1" d="M105,206.25A101.25,101.25,0,1,1,206.25,105,101.37,101.37,0,0,1,105,206.25Zm0-200A98.75,98.75,0,1,0,203.75,105,98.86,98.86,0,0,0,105,6.25Z"/><path class="cls-1" d="M146.56,166.12H63.44a3.51,3.51,0,0,1-3.51-3.5V47.85a3.51,3.51,0,0,1,3.51-3.5h83.12a3.51,3.51,0,0,1,3.51,3.5V162.62A3.51,3.51,0,0,1,146.56,166.12ZM63.44,46.35a1.51,1.51,0,0,0-1.51,1.5V162.62a1.51,1.51,0,0,0,1.51,1.5h83.12a1.51,1.51,0,0,0,1.51-1.5V47.85a1.51,1.51,0,0,0-1.51-1.5Z"/><rect class="cls-1" x="104" y="44.88" width="2" height="119.77"/><rect class="cls-1" x="62.06" y="96.33" width="85.87" height="2"/><rect class="cls-1" x="62.06" y="103.11" width="85.87" height="2"/><rect class="cls-1" x="62.06" y="89.55" width="85.87" height="2"/><rect class="cls-1" x="62.06" y="82.77" width="85.87" height="2"/><rect class="cls-1" x="62.06" y="75.99" width="85.87" height="2"/><rect class="cls-1" x="62.06" y="69.21" width="85.87" height="2"/><rect class="cls-1" x="62.06" y="62.43" width="85.87" height="2"/><rect class="cls-1" x="62.06" y="55.65" width="85.87" height="2"/><rect class="cls-1" x="62.06" y="48.87" width="85.87" height="2"/></svg>