<svg id="Warstwa_1" data-name="Warstwa 1" xmlns="http://www.w3.org/2000/svg" viewBox="0 0 210 210"><defs><style>.cls-1{fill:#fff;}</style></defs><title>przycisk_scene_light</title><path class="cls-1" d="M105,206.25A101.25,101.25,0,1,1,206.25,105,101.36,101.36,0,0,1,105,206.25Zm0-200A98.75,98.75,0,1,0,203.75,105,98.86,98.86,0,0,0,105,6.25Z"/><path class="cls-1" d="M128.85,53.32a36.32,36.32,0,0,0-23.94-8.88,37.31,37.31,0,0,0-3.94.21A35.41,35.41,0,0,0,69.53,75.46,33.54,33.54,0,0,0,75.1,98.22c6.62,10.09,10.54,20.62,11.64,31.3l.15,1.24a6.2,6.2,0,0,0,1.77,3.7l.28.28-.3.25a4.93,4.93,0,0,0-1.75,3.79,4.74,4.74,0,0,0,1.46,3.34l.26.26-.26.26a4.55,4.55,0,0,0,0,6.68l.26.26-.26.26a5,5,0,0,0,3.5,8.58h4.21l.05.16a8.94,8.94,0,0,0,17.44,0l.05-.19h4.21a5,5,0,0,0,5-5.1,4.9,4.9,0,0,0-1.46-3.41l-.26-.29.26-.27a4.57,4.57,0,0,0,0-6.69l-.26-.26.26-.26a4.74,4.74,0,0,0,1.46-3.34,5.13,5.13,0,0,0-1.46-3.5l-.27-.27.13-.25a5.17,5.17,0,0,0,1.91-4v-.59c2.56-11.71,5.08-22.43,11.18-31a34.12,34.12,0,0,0,6.43-19.82A34.61,34.61,0,0,0,128.85,53.32Zm-18,105.49a6.05,6.05,0,0,1-6,4.47,6.16,6.16,0,0,1-6-4.43l-.15-.42h12.22Zm6.84-2.95H92a2.56,2.56,0,0,1,0-5.12h25.81a2.57,2.57,0,0,1,2.4,2.56A2.62,2.62,0,0,1,117.67,155.86Zm.16-7.67H92a2.56,2.56,0,0,1,0-5.12h25.81a2.56,2.56,0,0,1,0,5.12ZM89.62,138A2.58,2.58,0,0,1,92,135.4h25.66a2.56,2.56,0,0,1,0,5.12H92A2.57,2.57,0,0,1,89.62,138ZM132.2,97.69c-6.45,9.12-9.11,20.26-11.67,32.21v.59c0,1.95-1.46,2.35-3.49,2.35H93.26c-2,0-3.42-.46-3.42-2.31V129.4c-2.56-11.15-5.31-22-12.18-32.34a32,32,0,0,1,23.74-49.85,29.93,29.93,0,0,1,3.77-.16,33,33,0,0,1,22,8.23A32.13,32.13,0,0,1,138,79.34,30.51,30.51,0,0,1,132.2,97.69ZM96.71,56.12c-.46,0-1.1-.09-1.22-.57-.24-.72.08-1,.85-1.29a10.52,10.52,0,0,1,3.08-.7h0l.23,0a1.25,1.25,0,0,1,1.23,1c.12.72-.35,1.17-1.11,1.3a15.72,15.72,0,0,1-2.66.3Zm-4.93.2a1.53,1.53,0,0,1,1.18.52,1.22,1.22,0,0,1-.5,1.69,21.8,21.8,0,0,0-8.9,10,1.36,1.36,0,0,1-1.24.74c-.27,0-.35,0-.37,0l-.14-.09a1.14,1.14,0,0,1-.7-.6,1.21,1.21,0,0,1,0-.94,23.27,23.27,0,0,1,10-11.09h0A1.31,1.31,0,0,1,91.77,56.31Z"/></svg>