<svg id="Layer_1" data-name="Layer 1" xmlns="http://www.w3.org/2000/svg" width="333.6" height="763" viewBox="0 0 333.6 763">
  <title>Artboard 1</title>
  <g>
    <path d="M298.1,680.5V669.6l35.5,5.5Zm2.5-8v5.1l16.5-2.5Z" style="fill: #898988"/>
    <path d="M34.7,680.5-.8,675l35.5-5.5ZM15.6,675l16.5,2.5v-5.1Z" style="fill: #898988"/>
    <path d="M325.4,683.3a1.22,1.22,0,0,1-1.2-1.2V503a1.2,1.2,0,0,1,2.4,0V682A1.24,1.24,0,0,1,325.4,683.3Z" style="fill: #898988"/>
    <path d="M7.4,683.3a1.22,1.22,0,0,1-1.2-1.2V533a1.22,1.22,0,0,1,1.2-1.2A1.29,1.29,0,0,1,8.6,533V682A1.18,1.18,0,0,1,7.4,683.3Z" style="fill: #898988"/>
    <path d="M325.4,676.3H7.4a1.22,1.22,0,0,1-1.2-1.2,1.29,1.29,0,0,1,1.2-1.2h318a1.2,1.2,0,0,1,0,2.4Z" style="fill: #898988"/>
    <path d="M7.4,675l26-4v8m292-4-26,4v-8" style="fill: #898988"/>
  </g>
  <path d="M66.4,149.3a1.22,1.22,0,0,1-1.2-1.2v-30l1-14.1V82.1l1-7.2V68.1a.6.6,0,0,1,.1-.4l5-15,7.1-11.3,7.1-8.2,6.1-6.1L99.8,22l9.1-5.1,13.2-4.1,7-2,8.2-1h49.2a1.2,1.2,0,0,1,0,2.4h-49l-7.8,1-6.8,2-13,4-8.8,4.9-7,4.9-5.8,5.9-6.9,7.9L74.5,53.6,69.7,68.1V75l-1,7.2V104l-1,14.1V148A1.4,1.4,0,0,1,66.4,149.3Z" style="fill: #898988"/>
  <path d="M64.4,245.3a1.22,1.22,0,0,1-1.2-1.2v-24l1-12.1a1.2,1.2,0,1,1,2.4.2l-1,12v23.9A1.15,1.15,0,0,1,64.4,245.3Z" style="fill: #898988"/>
  <path d="M65.4,167.3a1.22,1.22,0,0,1-1.2-1.2v-12c0-28,1.1-58,2-82l1-4.3a1.24,1.24,0,0,1,2.4.6l-1,4c-.9,23.8-2,53.7-2,81.7v12A1.22,1.22,0,0,1,65.4,167.3Z" style="fill: #898988"/>
  <path d="M7.4,523.3a1.22,1.22,0,0,1-1.2-1.2v-3a1.22,1.22,0,0,1,1.2-1.2,1.29,1.29,0,0,1,1.2,1.2v3A1.15,1.15,0,0,1,7.4,523.3Z" style="fill: #898988"/>
  <path d="M46.4,338.3h-.2a1.27,1.27,0,0,1-1-1.5l1-5,1-4.1a1.24,1.24,0,1,1,2.4.6l-1,4-1,4.9A1.19,1.19,0,0,1,46.4,338.3Z" style="fill: #898988"/>
  <path d="M64.4,232.3a1.22,1.22,0,0,1-1.2-1.2v-1a1.22,1.22,0,0,1,1.2-1.2,1.29,1.29,0,0,1,1.2,1.2v1A1.15,1.15,0,0,1,64.4,232.3Z" style="fill: #898988"/>
  <path d="M7.4,523.3a1.22,1.22,0,0,1-1.2-1.2v-3a1.22,1.22,0,0,1,1.2-1.2,1.29,1.29,0,0,1,1.2,1.2v3A1.15,1.15,0,0,1,7.4,523.3Z" style="fill: #898988"/>
  <path d="M279.4,12.3h0l-48-1a1.24,1.24,0,0,1-1.2-1.3,1.22,1.22,0,0,1,1.2-1.2h0l48,1a1.24,1.24,0,0,1,1.2,1.3A1.22,1.22,0,0,1,279.4,12.3Z" style="fill: #898988"/>
  <path d="M325.4,59.3a1.2,1.2,0,0,1-1.2-1.1l-1-8-2-7.9-2.9-7.7-4.9-5.8-5.9-5.9-5.8-4.8-6.8-2.9-7.7-2.9h-7.8a1.2,1.2,0,1,1,0-2.4h8a.6.6,0,0,1,.4.1l8,3,7.1,3c.1,0,.2.1.3.2l6,5,6.1,6.1,5.1,6.1a.52.52,0,0,1,.2.4l3,8,2,8.1,1,8.1a1.24,1.24,0,0,1-1.1,1.4A.1.1,0,0,0,325.4,59.3Z" style="fill: #898988"/>
  <path d="M321.4,560.3a1.22,1.22,0,0,1-.9-.4,1.27,1.27,0,0,1,0-1.8l1-1a1.27,1.27,0,0,1,1.8,1.8l-1,1A1.22,1.22,0,0,1,321.4,560.3Z" style="fill: #898988"/>
  <path d="M231.4,527.3h-129a1.22,1.22,0,0,1-1.2-1.2,1.29,1.29,0,0,1,1.2-1.2h129a1.2,1.2,0,0,1,0,2.4Z" style="fill: #898988"/>
  <path d="M102.4,527.3h-.2a1.24,1.24,0,0,1-1.1-1.4l35-276a1.19,1.19,0,0,1,1.4-1.1,1.24,1.24,0,0,1,1.1,1.4l-35,276A1.2,1.2,0,0,1,102.4,527.3Z" style="fill: #898988"/>
  <path d="M231.4,251.3h-94a1.2,1.2,0,1,1,0-2.4h94a1.22,1.22,0,0,1,1.2,1.2A1.15,1.15,0,0,1,231.4,251.3Z" style="fill: #898988"/>
  <path d="M200.4,297.3a1.16,1.16,0,0,1-1.2-1.2,1.24,1.24,0,0,1,1.2-1.3l31-1h0a1.16,1.16,0,0,1,1.2,1.2,1.24,1.24,0,0,1-1.2,1.3l-31,1Z" style="fill: #898988"/>
  <path d="M186.4,310.3a1.22,1.22,0,0,1-1.2-1.2v-4a1.33,1.33,0,0,1,.3-.8l3-4,3.1-3.1c.1-.1.3-.2.4-.3l5-2a.9.9,0,0,1,.5-.1h3a1.2,1.2,0,0,1,0,2.4h-2.8l-4.5,1.8-2.8,2.8-2.6,3.5v3.6A1.5,1.5,0,0,1,186.4,310.3Z" style="fill: #898988"/>
  <path d="M200.4,323.3h-.2l-5-1c-.1,0-.2-.1-.3-.1l-4-2a.78.78,0,0,1-.4-.4l-3-4-2.1-4.2a1.27,1.27,0,0,1-.1-.6v-2a1.2,1.2,0,0,1,2.4,0v1.7l1.9,3.7,2.7,3.6,3.6,1.8,4.8,1a1.27,1.27,0,0,1,1,1.5A1.38,1.38,0,0,1,200.4,323.3Z" style="fill: #898988"/>
  <path d="M231.4,527.3a1.22,1.22,0,0,1-1.2-1.2V324.2l-29.8-1a1.24,1.24,0,0,1-1.2-1.3,1.22,1.22,0,0,1,1.2-1.2h0l31,1a1.22,1.22,0,0,1,1.2,1.2v203A1.22,1.22,0,0,1,231.4,527.3Z" style="fill: #898988"/>
  <path d="M231.4,296.3a1.22,1.22,0,0,1-1.2-1.2v-45a1.2,1.2,0,0,1,2.4,0v45A1.15,1.15,0,0,1,231.4,296.3Z" style="fill: #898988"/>
  <path d="M137.4,251.3a1.22,1.22,0,0,1-1.2-1.2v-33a1.22,1.22,0,0,1,1.2-1.2,1.29,1.29,0,0,1,1.2,1.2v33A1.22,1.22,0,0,1,137.4,251.3Z" style="fill: #898988"/>
  <path d="M231.4,251.3a1.22,1.22,0,0,1-1.2-1.2v-33a1.2,1.2,0,1,1,2.4,0v33A1.15,1.15,0,0,1,231.4,251.3Z" style="fill: #898988"/>
  <path d="M102.4,541.3a1.22,1.22,0,0,1-1.2-1.2v-14a1.22,1.22,0,0,1,1.2-1.2,1.29,1.29,0,0,1,1.2,1.2v14A1.22,1.22,0,0,1,102.4,541.3Z" style="fill: #898988"/>
  <path d="M231.4,541.3a1.22,1.22,0,0,1-1.2-1.2v-14a1.2,1.2,0,1,1,2.4,0v14A1.15,1.15,0,0,1,231.4,541.3Z" style="fill: #898988"/>
  <path d="M102.4,527.3h-88a1.22,1.22,0,0,1-1.2-1.2,1.29,1.29,0,0,1,1.2-1.2h88a1.2,1.2,0,0,1,0,2.4Z" style="fill: #898988"/>
  <path d="M14.4,527.3h-6a1.22,1.22,0,0,1-1.2-1.2,1.29,1.29,0,0,1,1.2-1.2h6a1.2,1.2,0,0,1,0,2.4Z" style="fill: #898988"/>
  <path d="M8.4,527.3h-1a1.22,1.22,0,0,1-1.2-1.2,1.29,1.29,0,0,1,1.2-1.2h1a1.2,1.2,0,1,1,0,2.4Z" style="fill: #898988"/>
  <path d="M7.4,527.3h0A1.18,1.18,0,0,1,6.2,526l1-29,5-27.2,5-28,7-27.1,7-28,26-98,4-18.9,2-19.9a1.19,1.19,0,0,1,1.4-1.1,1.24,1.24,0,0,1,1.1,1.4l-2,20-4,19.1-10,38.1-16,60-7,28-7,27-5,27.9-5,27-1,28.8A1.39,1.39,0,0,1,7.4,527.3Z" style="fill: #898988"/>
  <path d="M137.4,251.3h-73a1.2,1.2,0,1,1,0-2.4h73a1.2,1.2,0,1,1,0,2.4Z" style="fill: #898988"/>
  <path d="M64.4,251.3a1.22,1.22,0,0,1-1.2-1.2v-3a1.22,1.22,0,0,1,1.2-1.2,1.29,1.29,0,0,1,1.2,1.2v3A1.15,1.15,0,0,1,64.4,251.3Z" style="fill: #898988"/>
  <path d="M101.4,573.3a1.22,1.22,0,0,1-1.2-1.2v-14l1-18.1a1.25,1.25,0,1,1,2.5.1l-1,18V572A1.4,1.4,0,0,1,101.4,573.3Z" style="fill: #898988"/>
  <path d="M231.4,573.3a1.22,1.22,0,0,1-1.2-1.2v-32a1.2,1.2,0,1,1,2.4,0v32A1.15,1.15,0,0,1,231.4,573.3Z" style="fill: #898988"/>
  <path d="M186.4,154.3a1.22,1.22,0,0,1-1.2-1.2v-3a1.22,1.22,0,0,1,.4-.9l3-3,3.2-2.2,5.2-2.1a.75.75,0,0,1,.5-.1h3a1.2,1.2,0,0,1,0,2.4h-2.8l-4.8,1.9-2.8,1.9-2.4,2.5V153A1.32,1.32,0,0,1,186.4,154.3Z" style="fill: #898988"/>
  <path d="M200.4,165.3h-.2l-5-1c-.1,0-.2-.1-.3-.1l-4-2c-.1-.1-.2-.1-.3-.2l-3-3-2.2-3.2a1.45,1.45,0,0,1-.2-.7v-2a1.2,1.2,0,1,1,2.4,0v1.6l1.8,2.7,2.7,2.7,3.7,1.8,4.8,1a1.27,1.27,0,0,1,1,1.5A1.2,1.2,0,0,1,200.4,165.3Z" style="fill: #898988"/>
  <path d="M231.4,165.3h-31a1.2,1.2,0,0,1,0-2.4h31a1.22,1.22,0,0,1,1.2,1.2A1.15,1.15,0,0,1,231.4,165.3Z" style="fill: #898988"/>
  <path d="M200.4,12.3h-14a1.2,1.2,0,1,1,0-2.4h14a1.2,1.2,0,0,1,0,2.4Z" style="fill: #898988"/>
  <path d="M200.4,144.3a1.16,1.16,0,0,1-1.2-1.2,1.24,1.24,0,0,1,1.2-1.3l29.8-1V11.3l-29.7,1h0a1.16,1.16,0,0,1-1.2-1.2,1.24,1.24,0,0,1,1.2-1.3l31-1a1,1,0,0,1,.9.4,1.49,1.49,0,0,1,.4.9v132a1.16,1.16,0,0,1-1.2,1.2l-31.2,1Z" style="fill: #898988"/>
  <path d="M231.4,218.3a1.22,1.22,0,0,1-1.2-1.2v-53a1.2,1.2,0,0,1,2.4,0v53A1.15,1.15,0,0,1,231.4,218.3Z" style="fill: #898988"/>
  <path d="M64.4,248.3a1.22,1.22,0,0,1-1.2-1.2v-32a1.22,1.22,0,0,1,1.2-1.2,1.29,1.29,0,0,1,1.2,1.2v32A1.15,1.15,0,0,1,64.4,248.3Z" style="fill: #898988"/>
  <path d="M65.4,168.3a1.22,1.22,0,0,1-1.2-1.2v-5a1.22,1.22,0,0,1,1.2-1.2,1.29,1.29,0,0,1,1.2,1.2v5A1.22,1.22,0,0,1,65.4,168.3Z" style="fill: #898988"/>
  <path d="M65.4,163.3a1.22,1.22,0,0,1-1.2-1.2v-12a1.22,1.22,0,0,1,1.2-1.2,1.29,1.29,0,0,1,1.2,1.2v12A1.22,1.22,0,0,1,65.4,163.3Z" style="fill: #898988"/>
  <path d="M231.4,590.3h0l-129-1a1.24,1.24,0,0,1-1.2-1.3,1.22,1.22,0,0,1,1.2-1.2h0l129,1a1.24,1.24,0,0,1,1.2,1.3A1.22,1.22,0,0,1,231.4,590.3Z" style="fill: #898988"/>
  <path d="M102.4,589.3a1.22,1.22,0,0,1-1.2-1.2v-.7l-.9-1.7a1.27,1.27,0,0,1-.1-.6v-13a1.2,1.2,0,1,1,2.4,0v12.7l.9,1.7a1.27,1.27,0,0,1,.1.6v1A1.22,1.22,0,0,1,102.4,589.3Z" style="fill: #898988"/>
  <path d="M231.4,590.3a1.22,1.22,0,0,1-1.2-1.2v-17a1.2,1.2,0,1,1,2.4,0v17A1.15,1.15,0,0,1,231.4,590.3Z" style="fill: #898988"/>
  <path d="M102.4,589.3h0l-18.1-1-34.2-6L34,576.2l-7.2-4.1c-.1-.1-.2-.1-.3-.2l-10-10-4.2-6.2-3.1-7.2-2.1-7.1-1-15.3a1.24,1.24,0,0,1,1.2-1.3A1.18,1.18,0,0,1,8.6,526l1,15,2,6.7,2.9,6.9,3.9,5.8,9.7,9.7L35,574l15.8,5.9,33.8,5.9,17.9,1a1.24,1.24,0,0,1,1.2,1.3A1.3,1.3,0,0,1,102.4,589.3Z" style="fill: #898988"/>
  <path d="M231.4,148.3a1.22,1.22,0,0,1-1.2-1.2v-5a1.2,1.2,0,0,1,2.4,0v5A1.15,1.15,0,0,1,231.4,148.3Z" style="fill: #898988"/>
  <path d="M38.4,365.3h-.3a1.31,1.31,0,0,1-.9-1.5l2-7,10-36a1.24,1.24,0,1,1,2.4.6l-12,43A1.4,1.4,0,0,1,38.4,365.3Z" style="fill: #898988"/>
  <path d="M7.4,527.3a1.22,1.22,0,0,1-1.2-1.2v-4a1.22,1.22,0,0,1,1.2-1.2,1.29,1.29,0,0,1,1.2,1.2v4A1.15,1.15,0,0,1,7.4,527.3Z" style="fill: #898988"/>
  <path d="M8.4,540.3a1.22,1.22,0,0,1-1.2-1.2v-4l-1-8.9V512.1l1-4.3a1.18,1.18,0,0,1,1.5-.9,1.18,1.18,0,0,1,.9,1.5l-1,4v13.7l1,8.9v4.1A1.15,1.15,0,0,1,8.4,540.3Z" style="fill: #898988"/>
  <path d="M25.4,570.3a1.85,1.85,0,0,1-.7-.2l-3-2a1.18,1.18,0,0,1-.3-1.7,1.27,1.27,0,0,1,1.7-.3l3,2a1.18,1.18,0,0,1,.3,1.7A1.23,1.23,0,0,1,25.4,570.3Z" style="fill: #898988"/>
  <path d="M64.4,248.3a1.22,1.22,0,0,1-1.2-1.2v-18a1.22,1.22,0,0,1,1.2-1.2,1.29,1.29,0,0,1,1.2,1.2v18A1.15,1.15,0,0,1,64.4,248.3Z" style="fill: #898988"/>
  <path d="M64.4,223.3a1.22,1.22,0,0,1-1.2-1.2v-6a1.22,1.22,0,0,1,1.2-1.2,1.29,1.29,0,0,1,1.2,1.2v6A1.15,1.15,0,0,1,64.4,223.3Z" style="fill: #898988"/>
  <path d="M64.4,216.3a1.22,1.22,0,0,1-1.2-1.2v-25l1-10.1V167.1a1.22,1.22,0,0,1,1.2-1.2,1.29,1.29,0,0,1,1.2,1.2v13l-1,10.1v24.9A1.15,1.15,0,0,1,64.4,216.3Z" style="fill: #898988"/>
  <path d="M64.4,230.3a1.22,1.22,0,0,1-1.2-1.2v-7a1.22,1.22,0,0,1,1.2-1.2,1.29,1.29,0,0,1,1.2,1.2v7A1.15,1.15,0,0,1,64.4,230.3Z" style="fill: #898988"/>
  <path d="M113.4,589.3h-11a1.22,1.22,0,0,1-1.2-1.2,1.29,1.29,0,0,1,1.2-1.2h11a1.2,1.2,0,0,1,0,2.4Z" style="fill: #898988"/>
  <path d="M48.4,581.3a.9.9,0,0,1-.5-.1l-5-2a1.25,1.25,0,0,1-.7-1.6,1.35,1.35,0,0,1,1.6-.7l5,2a1.25,1.25,0,0,1,.7,1.6A1.08,1.08,0,0,1,48.4,581.3Z" style="fill: #898988"/>
  <path d="M250.4,610.3a1.22,1.22,0,0,1-1.2-1.2v-20a1.2,1.2,0,1,1,2.4,0v20A1.22,1.22,0,0,1,250.4,610.3Z" style="fill: #898988"/>
  <path d="M250.4,610.3h-137a1.22,1.22,0,0,1-1.2-1.2,1.29,1.29,0,0,1,1.2-1.2h137a1.2,1.2,0,0,1,0,2.4Z" style="fill: #898988"/>
  <path d="M113.4,610.3a1.22,1.22,0,0,1-1.2-1.2v-21a1.22,1.22,0,0,1,1.2-1.2,1.29,1.29,0,0,1,1.2,1.2v21A1.15,1.15,0,0,1,113.4,610.3Z" style="fill: #898988"/>
  <path d="M45.4,580.3h-.2l-7-1a1.26,1.26,0,1,1,.3-2.5l7,1a1.24,1.24,0,0,1,1.1,1.4A1.28,1.28,0,0,1,45.4,580.3Z" style="fill: #898988"/>
  <path d="M38.4,579.3a1.22,1.22,0,0,1-1.2-1.2v-2a1.22,1.22,0,0,1,1.2-1.2,1.29,1.29,0,0,1,1.2,1.2v2A1.15,1.15,0,0,1,38.4,579.3Z" style="fill: #898988"/>
  <path d="M279.4,251.3h-48a1.2,1.2,0,1,1,0-2.4h48a1.2,1.2,0,1,1,0,2.4Z" style="fill: #898988"/>
  <path d="M231.4,251.3a1.27,1.27,0,0,1-.9-2.2,1.5,1.5,0,0,1,1.8,0,1.3,1.3,0,0,1-.9,2.2Z" style="fill: #898988"/>
  <path d="M231.4,250.3a1.22,1.22,0,0,1-1.2-1.2v-32a1.2,1.2,0,1,1,2.4,0v32A1.15,1.15,0,0,1,231.4,250.3Z" style="fill: #898988"/>
  <path d="M231.4,251.3a1.22,1.22,0,0,1-1.2-1.2v-1a1.2,1.2,0,0,1,2.4,0v1A1.15,1.15,0,0,1,231.4,251.3Z" style="fill: #898988"/>
  <path d="M231.4,527.3a1.16,1.16,0,0,1-1.2-1.2,1.24,1.24,0,0,1,1.2-1.3l48-1h0a1.16,1.16,0,0,1,1.2,1.2,1.24,1.24,0,0,1-1.2,1.3l-48,1Z" style="fill: #898988"/>
  <path d="M231.4,527.3a1.22,1.22,0,0,1-1.2-1.2V250a1.2,1.2,0,0,1,2.4,0V526A1.18,1.18,0,0,1,231.4,527.3Z" style="fill: #898988"/>
  <path d="M231.4,534.3a1.22,1.22,0,0,1-1.2-1.2v-7a1.2,1.2,0,1,1,2.4,0v7A1.15,1.15,0,0,1,231.4,534.3Z" style="fill: #898988"/>
  <path d="M231.4,541.3a1.22,1.22,0,0,1-1.2-1.2v-7a1.2,1.2,0,1,1,2.4,0v7A1.15,1.15,0,0,1,231.4,541.3Z" style="fill: #898988"/>
  <path d="M299.4,526.3a1.2,1.2,0,0,1-1.2-1.1,1.24,1.24,0,0,1,1.1-1.4l11-1a1.18,1.18,0,0,1,1.4,1.1,1.24,1.24,0,0,1-1.1,1.4l-11,1Z" style="fill: #898988"/>
  <path d="M299.4,526.3h-4a1.22,1.22,0,0,1-1.2-1.2,1.29,1.29,0,0,1,1.2-1.2h4a1.2,1.2,0,1,1,0,2.4Z" style="fill: #898988"/>
  <path d="M295.4,526.3h-12a1.22,1.22,0,0,1-1.2-1.2,1.29,1.29,0,0,1,1.2-1.2h12a1.2,1.2,0,1,1,0,2.4Z" style="fill: #898988"/>
  <path d="M283.4,526.3h-4a1.22,1.22,0,0,1-1.2-1.2,1.29,1.29,0,0,1,1.2-1.2h4a1.2,1.2,0,1,1,0,2.4Z" style="fill: #898988"/>
  <path d="M325.4,251.3h-46a1.2,1.2,0,1,1,0-2.4h46a1.2,1.2,0,1,1,0,2.4Z" style="fill: #898988"/>
  <path d="M325.4,523.3a1.22,1.22,0,0,1-1.2-1.2V250a1.2,1.2,0,0,1,2.4,0V522A1.24,1.24,0,0,1,325.4,523.3Z" style="fill: #898988"/>
  <path d="M325.4,523.2a1.28,1.28,0,0,1-.9-2.1,1.27,1.27,0,0,1,1.8,0,1.5,1.5,0,0,1,0,1.8A1.61,1.61,0,0,1,325.4,523.2Z" style="fill: #898988"/>
  <path d="M322.4,524.3a1.3,1.3,0,0,1-1.2-.8,1.23,1.23,0,0,1,.8-1.6l3-1a1.16,1.16,0,0,1,1.6.8,1.23,1.23,0,0,1-.8,1.6l-3,1Z" style="fill: #898988"/>
  <path d="M322.4,524.3h-1a1.22,1.22,0,0,1-1.2-1.2,1.29,1.29,0,0,1,1.2-1.2h1a1.2,1.2,0,1,1,0,2.4Z" style="fill: #898988"/>
  <path d="M313.4,525.3a1.2,1.2,0,0,1-1.2-1.1,1.24,1.24,0,0,1,1.1-1.4l8-1a1.19,1.19,0,0,1,1.4,1.1,1.24,1.24,0,0,1-1.1,1.4l-8,1Z" style="fill: #898988"/>
  <path d="M313.4,525.3h-3a1.22,1.22,0,0,1-1.2-1.2,1.29,1.29,0,0,1,1.2-1.2h3a1.2,1.2,0,1,1,0,2.4Z" style="fill: #898988"/>
  <path d="M325.4,251.3a1.22,1.22,0,0,1-1.2-1.2v-13a1.2,1.2,0,0,1,2.4,0v13A1.22,1.22,0,0,1,325.4,251.3Z" style="fill: #898988"/>
  <path d="M325.4,543.3a1.22,1.22,0,0,1-1.2-1.2v-20a1.2,1.2,0,1,1,2.4,0v20A1.22,1.22,0,0,1,325.4,543.3Z" style="fill: #898988"/>
  <path d="M231.4,19.3a1.22,1.22,0,0,1-1.2-1.2v-8a1.2,1.2,0,0,1,2.4,0v8A1.15,1.15,0,0,1,231.4,19.3Z" style="fill: #898988"/>
  <path d="M231.4,218.3a1.22,1.22,0,0,1-1.2-1.2V10a1.2,1.2,0,0,1,2.4,0V217A1.18,1.18,0,0,1,231.4,218.3Z" style="fill: #898988"/>
  <path d="M325.4,67.3a1.22,1.22,0,0,1-1.2-1.2v-8a1.2,1.2,0,1,1,2.4,0v8A1.22,1.22,0,0,1,325.4,67.3Z" style="fill: #898988"/>
  <path d="M325.4,96.3a1.22,1.22,0,0,1-1.2-1.2V66a1.2,1.2,0,1,1,2.4,0V95A1.24,1.24,0,0,1,325.4,96.3Z" style="fill: #898988"/>
  <path d="M325.4,127.3a1.22,1.22,0,0,1-1.2-1.2V95a1.2,1.2,0,1,1,2.4,0v31A1.24,1.24,0,0,1,325.4,127.3Z" style="fill: #898988"/>
  <path d="M325.4,238.3a1.22,1.22,0,0,1-1.2-1.2V126a1.2,1.2,0,1,1,2.4,0V237A1.24,1.24,0,0,1,325.4,238.3Z" style="fill: #898988"/>
  <path d="M279.4,590.3h-48a1.2,1.2,0,1,1,0-2.4h48a1.2,1.2,0,0,1,0,2.4Z" style="fill: #898988"/>
  <path d="M231.4,585.3a1.22,1.22,0,0,1-1.2-1.2v-12a1.2,1.2,0,1,1,2.4,0v12A1.15,1.15,0,0,1,231.4,585.3Z" style="fill: #898988"/>
  <path d="M231.4,587.3a1.22,1.22,0,0,1-1.2-1.2v-2a1.2,1.2,0,1,1,2.4,0v2A1.15,1.15,0,0,1,231.4,587.3Z" style="fill: #898988"/>
  <path d="M231.4,590.3a1.22,1.22,0,0,1-1.2-1.2v-3a1.2,1.2,0,1,1,2.4,0v3A1.15,1.15,0,0,1,231.4,590.3Z" style="fill: #898988"/>
  <path d="M231.4,590.3a1.8,1.8,0,0,1-.9-.4,1.27,1.27,0,0,1-.4-.9,1.49,1.49,0,0,1,.4-.9,1.27,1.27,0,0,1,1.8,0,1.5,1.5,0,0,1,0,1.8A1.8,1.8,0,0,1,231.4,590.3Z" style="fill: #898988"/>
  <path d="M325.4,546.3a1.22,1.22,0,0,1-1.2-1.2v-3a1.2,1.2,0,1,1,2.4,0v3A1.22,1.22,0,0,1,325.4,546.3Z" style="fill: #898988"/>
  <path d="M324.4,554.3h-.2a1.24,1.24,0,0,1-1.1-1.4l1-8a1.19,1.19,0,0,1,1.4-1.1,1.24,1.24,0,0,1,1.1,1.4l-1,8A1.2,1.2,0,0,1,324.4,554.3Z" style="fill: #898988"/>
  <path d="M323.4,558.3h-.3a1.18,1.18,0,0,1-.9-1.5l1-4a1.22,1.22,0,0,1,1.5-.9,1.18,1.18,0,0,1,.9,1.5l-1,4A1.29,1.29,0,0,1,323.4,558.3Z" style="fill: #898988"/>
  <path d="M321.4,562.3a1.27,1.27,0,0,1-.6-.1,1.32,1.32,0,0,1-.6-1.7l2-4a1.27,1.27,0,1,1,2.3,1.1l-2,4A1.23,1.23,0,0,1,321.4,562.3Z" style="fill: #898988"/>
  <path d="M315.4,572.3a1.42,1.42,0,0,1-.6-.2,1.19,1.19,0,0,1-.4-1.7l6-10a1.23,1.23,0,1,1,2.1,1.3l-6,10A1.38,1.38,0,0,1,315.4,572.3Z" style="fill: #898988"/>
  <path d="M308.4,579.3a1.14,1.14,0,0,1-.8-.3,1.26,1.26,0,0,1-.1-1.8l6-7a1.27,1.27,0,0,1,1.9,1.7l-6,7A2.11,2.11,0,0,1,308.4,579.3Z" style="fill: #898988"/>
  <path d="M306.4,580.3a1.26,1.26,0,0,1-.5-2.4l2-1a1.27,1.27,0,0,1,1.1,2.3l-2,1C306.8,580.2,306.6,580.3,306.4,580.3Z" style="fill: #898988"/>
  <path d="M298.4,585.3a1.26,1.26,0,0,1-.5-2.4l4-2,3.8-2.9a1.21,1.21,0,0,1,1.5,1.9l-4,3L299,585A.86.86,0,0,1,298.4,585.3Z" style="fill: #898988"/>
  <path d="M279.4,590.3a1.19,1.19,0,0,1-1.2-1,1.33,1.33,0,0,1,1-1.5l10-2,8.8-2.9a1.16,1.16,0,0,1,1.6.8,1.23,1.23,0,0,1-.8,1.6l-9,3-10.1,2.1A.37.37,0,0,0,279.4,590.3Z" style="fill: #898988"/>
  <path d="M231.4,19.3a1.22,1.22,0,0,1-1.2-1.2v-8a1.2,1.2,0,0,1,2.4,0v8A1.15,1.15,0,0,1,231.4,19.3Z" style="fill: #898988"/>
  <path d="M137.4,218.3a1.22,1.22,0,0,1-1.2-1.2V11a1.22,1.22,0,0,1,1.2-1.2,1.29,1.29,0,0,1,1.2,1.2V217A1.24,1.24,0,0,1,137.4,218.3Z" style="fill: #898988"/>
  <path d="M64.4,251.3a1.49,1.49,0,0,1-.9-.4,1.8,1.8,0,0,1-.4-.9,1.49,1.49,0,0,1,.4-.9,1.37,1.37,0,0,1,1.8,0,1.49,1.49,0,0,1,.4.9,1.37,1.37,0,0,1-1.3,1.3Z" style="fill: #898988"/>
  <path d="M7.4,527.2a1.61,1.61,0,0,1-.9-.3,1.4,1.4,0,0,1-.3-.9,1.61,1.61,0,0,1,.3-.9,1.27,1.27,0,0,1,1.8,0,1.21,1.21,0,0,1,0,1.8A1.61,1.61,0,0,1,7.4,527.2Z" style="fill: #898988"/>
  <path d="M231.4,583.2a1.61,1.61,0,0,1-.9-.3,1.49,1.49,0,0,1-.4-.9,1.3,1.3,0,0,1,2.6,0,1.49,1.49,0,0,1-.4.9A1.4,1.4,0,0,1,231.4,583.2Z" style="fill: #898988"/>
  <g>
    <path d="M125.8,650.78a28.83,28.83,0,0,1,.49-5.47,13.94,13.94,0,0,1,1.62-4.46,8.62,8.62,0,0,1,3-3,8.46,8.46,0,0,1,4.5-1.12,9.21,9.21,0,0,1,4.81,1.12,8.12,8.12,0,0,1,2.93,3,13.15,13.15,0,0,1,1.45,4.46,36.38,36.38,0,0,1,.39,5.47,23.8,23.8,0,0,1-.58,5.36,15,15,0,0,1-1.73,4.46,9,9,0,0,1-3,3,8,8,0,0,1-4.3,1.11,9.6,9.6,0,0,1-4.81-1.07,7.67,7.67,0,0,1-2.93-3,13.08,13.08,0,0,1-1.45-4.46A36.25,36.25,0,0,1,125.8,650.78Zm3.36,0a39.44,39.44,0,0,0,.3,5,15.52,15.52,0,0,0,1,4.05,7,7,0,0,0,1.92,2.71,4.93,4.93,0,0,0,5.9,0,7,7,0,0,0,1.92-2.71,15.14,15.14,0,0,0,1-4.05,41,41,0,0,0,0-10.07,15.34,15.34,0,0,0-1-4,6.93,6.93,0,0,0-1.92-2.7,4.45,4.45,0,0,0-3-1,4.75,4.75,0,0,0-2.95.9,6.34,6.34,0,0,0-1.92,2.58,15,15,0,0,0-1,4A41.85,41.85,0,0,0,129.16,650.78Z" style="fill: #898988"/>
    <path d="M150.12,662.36a2.33,2.33,0,0,1,4.66,0,2.07,2.07,0,0,1-.69,1.58,2.45,2.45,0,0,1-3.28,0A2.07,2.07,0,0,1,150.12,662.36Z" style="fill: #898988"/>
    <path d="M160.39,656.88a8.21,8.21,0,0,1,1.37-4.59,8.42,8.42,0,0,1,4.57-3.15v-.29a5.32,5.32,0,0,1-1.58-.63A6.05,6.05,0,0,1,163.3,647a5.65,5.65,0,0,1-1.07-1.7,5.5,5.5,0,0,1-.41-2.13,5.69,5.69,0,0,1,.56-2.47,6.33,6.33,0,0,1,1.55-2.07,7.42,7.42,0,0,1,2.42-1.43,8.78,8.78,0,0,1,3.17-.53,10.81,10.81,0,0,1,3.52.51,7.1,7.1,0,0,1,2.41,1.33,5.33,5.33,0,0,1,1.42,1.9,5.73,5.73,0,0,1,.47,2.27,6.18,6.18,0,0,1-1.17,3.63,6.52,6.52,0,0,1-3.42,2.39V649a9.42,9.42,0,0,1,1.72.51,6.48,6.48,0,0,1,1.95,1.19,7,7,0,0,1,1.57,2.06,6.8,6.8,0,0,1,.66,3.15,9.07,9.07,0,0,1-.72,3.69,8.35,8.35,0,0,1-2,2.8,8,8,0,0,1-2.9,1.74,10.86,10.86,0,0,1-3.54.58,13,13,0,0,1-3.6-.48,7.73,7.73,0,0,1-2.91-1.49,7.07,7.07,0,0,1-1.92-2.5A7.75,7.75,0,0,1,160.39,656.88Zm14.65-.21a9.54,9.54,0,0,0-.38-2.76,6.74,6.74,0,0,0-1.11-2.17,5,5,0,0,0-4-2,4.92,4.92,0,0,0-2.29.52,4.82,4.82,0,0,0-1.74,1.43,6.74,6.74,0,0,0-1.11,2.17,10,10,0,0,0,0,5.52,6.64,6.64,0,0,0,1.11,2.17,4.84,4.84,0,0,0,1.74,1.44,5.08,5.08,0,0,0,6.32-1.44,6.64,6.64,0,0,0,1.11-2.17A9.54,9.54,0,0,0,175,656.67ZM174,643.25a7.69,7.69,0,0,0-.25-2,4.64,4.64,0,0,0-.79-1.66,4,4,0,0,0-1.38-1.14,4.2,4.2,0,0,0-2-.43,4.26,4.26,0,0,0-2,.43,3.81,3.81,0,0,0-1.37,1.14,5,5,0,0,0-.78,1.66,8.41,8.41,0,0,0,0,4,5,5,0,0,0,.78,1.68,3.81,3.81,0,0,0,1.37,1.14,4.26,4.26,0,0,0,2,.43,4.2,4.2,0,0,0,2-.43,4,4,0,0,0,1.38-1.14,4.66,4.66,0,0,0,.79-1.68A7.68,7.68,0,0,0,174,643.25Z" style="fill: #898988"/>
    <path d="M195.88,637.72a2.1,2.1,0,1,1,.61,1.47A2,2,0,0,1,195.88,637.72Zm.57,14.78q0-1.85-.06-3.87c0-1.35-.13-2.61-.27-3.79a8.21,8.21,0,0,0,3.69,0c-.14,1.18-.23,2.44-.27,3.79s-.06,2.64-.06,3.87v4.25q0,1.85.06,3.87c0,1.35.13,2.57.27,3.67-.63-.06-1.24-.09-1.84-.09s-1.22,0-1.85.09c.14-1.1.23-2.32.27-3.67s.06-2.64.06-3.87Z" style="fill: #898988"/>
    <path d="M218.92,648.14a3.87,3.87,0,0,0-3.27-1.58,4.94,4.94,0,0,0-4.2,1.76,8.12,8.12,0,0,0-1.33,4.95v3.48c0,1.23,0,2.52.07,3.87s.12,2.57.26,3.67c-.63-.06-1.24-.09-1.84-.09s-1.22,0-1.84.09c.13-1.1.22-2.32.26-3.67s.06-2.64.06-3.87V652.5q0-1.85-.06-3.87c0-1.35-.13-2.61-.26-3.79a10.62,10.62,0,0,0,1.84.21,3.8,3.8,0,0,0,.72-.07l.92-.14c-.08,1.09-.13,2.19-.13,3.28h.09a8.5,8.5,0,0,1,2.74-2.73,7.22,7.22,0,0,1,3.8-1,8.5,8.5,0,0,1,2.32.33,5.48,5.48,0,0,1,2.11,1.13,5.91,5.91,0,0,1,1.53,2.16,8.85,8.85,0,0,1,.59,3.5c0,1.18,0,2.39-.08,3.63s-.08,2.56-.08,4v2.66c0,.43,0,.86,0,1.29s0,.82.06,1.21a15.68,15.68,0,0,0-1.72-.09,15.16,15.16,0,0,0-1.67.09q.07-2.13.18-4.38c.07-1.51.1-3,.1-4.63v-2.5A7.58,7.58,0,0,0,218.92,648.14Z" style="fill: #898988"/>
  </g>
</svg>
