<svg id="Warstwa_1" data-name="Warstwa 1" xmlns="http://www.w3.org/2000/svg" viewBox="0 0 210 210"><defs><style>.cls-1{fill:#fff;}</style></defs><title>przycisk_scene_audio</title><path class="cls-1" d="M105,206.25A101.25,101.25,0,1,1,206.25,105,101.36,101.36,0,0,1,105,206.25Zm0-200A98.75,98.75,0,1,0,203.75,105,98.86,98.86,0,0,0,105,6.25Z"/><path class="cls-1" d="M139.21,52.73l-.15.08L78.27,75.9a1.25,1.25,0,0,0-.8,1.14v58.09c-2.82-3.38-7.79-5.17-13.37-4.45-8.6,1.12-15.81,7.85-15.81,15.27s7.2,12.29,15.81,11.17,15.81-7.85,15.81-15.27V96.12l58.36-22.19v44.19c-2.82-3.38-7.79-5.17-13.37-4.45-8.6,1.12-15.81,7.85-15.81,15.27s7.2,12.29,15.81,11.17,15.81-7.85,15.81-15.27V53.94A1.27,1.27,0,0,0,139.21,52.73Zm-.95,3V71.35L79.9,93.53V77.88Zm-12,60.3c6.83-.32,12,3.68,12,9.16,0,5.84-5.86,11.56-13.37,12.54s-13.37-3.2-13.37-9,5.86-11.56,13.37-12.54C125.36,116,125.84,116,126.3,116ZM65.5,133c6.83-.32,12,3.68,12,9.16,0,5.84-5.86,11.56-13.37,12.54s-13.37-3.2-13.37-9,5.86-11.56,13.37-12.54C64.57,133.06,65,133,65.5,133Z"/></svg>