<svg id="Layer_1" data-name="Layer 1" xmlns="http://www.w3.org/2000/svg" width="768" height="763" viewBox="0 0 768 763">
  <title>Artboard 1</title>
  <g>
    <path d="M765.7,116.9H754.8l5.5-34.2Zm-8-2.5h5.1l-2.5-15.8Z" style="fill: #898988"/>
    <path d="M760.2,695.9l-5.5-35.5h10.9Zm-2.5-33,2.5,16.5,2.5-16.5Z" style="fill: #898988"/>
  </g>
  <g>
    <path d="M1.2,322.9a1.31,1.31,0,0,1-1.3-1.2V25.7a1.32,1.32,0,0,1,1.3-1.3,1.32,1.32,0,0,1,1.3,1.3v296A1.24,1.24,0,0,1,1.2,322.9Z" style="fill: #898988"/>
    <path d="M665.2,322.9a1.22,1.22,0,0,1-1.2-1.2V25.7a1.31,1.31,0,0,1,1.2-1.3,1.32,1.32,0,0,1,1.3,1.3v296A1.24,1.24,0,0,1,665.2,322.9Z" style="fill: #898988"/>
    <path d="M665.2,34.9H1.2a1.3,1.3,0,1,1,0-2.6h664a1.32,1.32,0,0,1,1.3,1.3A1.26,1.26,0,0,1,665.2,34.9Z" style="fill: #898988"/>
  </g>
  <g>
    <path d="M768.2,91.9h-427a1.32,1.32,0,0,1-1.3-1.3,1.24,1.24,0,0,1,1.3-1.2h427a1.22,1.22,0,0,1,1.2,1.2A1.13,1.13,0,0,1,768.2,91.9Z" style="fill: #898988"/>
    <path d="M768.2,688.9h-193a1.22,1.22,0,0,1-1.2-1.2,1.29,1.29,0,0,1,1.2-1.2h193a1.2,1.2,0,0,1,0,2.4Z" style="fill: #898988"/>
    <path d="M760.2,688.9a1.22,1.22,0,0,1-1.2-1.2V90.7a1.22,1.22,0,0,1,1.2-1.2,1.39,1.39,0,0,1,1.3,1.2v597A1.24,1.24,0,0,1,760.2,688.9Z" style="fill: #898988"/>
  </g>
  <path d="M665.2,33.7l-26,4v-8m-638,4,26-4v8" style="fill: #898988"/>
  <path d="M93.2,668.9a1.61,1.61,0,0,1-.9-.3,1.5,1.5,0,0,1,0-1.8,1.5,1.5,0,0,1,1.8,0,1.61,1.61,0,0,1,.3.9,1.22,1.22,0,0,1-.3.9A1.61,1.61,0,0,1,93.2,668.9Z" style="fill: #898988"/>
  <path d="M573.2,668.9a1.4,1.4,0,0,1-.9-.3,1.27,1.27,0,0,1-.4-.9,1.3,1.3,0,0,1,2.6,0,1.27,1.27,0,0,1-.4.9A1.61,1.61,0,0,1,573.2,668.9Z" style="fill: #898988"/>
  <path d="M59.2,622a1.8,1.8,0,0,1-.9-.4,1.49,1.49,0,0,1-.4-.9,1.8,1.8,0,0,1,.4-.9,1.37,1.37,0,0,1,1.8,0,1.5,1.5,0,0,1,0,1.8A1.8,1.8,0,0,1,59.2,622Z" style="fill: #898988"/>
  <path d="M607.2,622a1.8,1.8,0,0,1-.9-.4,1.49,1.49,0,0,1-.4-.9,1.8,1.8,0,0,1,.4-.9,1.37,1.37,0,0,1,1.8,0,1.61,1.61,0,0,1,.3.9,1.4,1.4,0,0,1-.3.9A1.49,1.49,0,0,1,607.2,622Z" style="fill: #898988"/>
  <path d="M49.2,326.9a1.31,1.31,0,0,1-1.3-1.2v-1a1.27,1.27,0,0,1,.1-.6l.9-1.9,1-4.8a1.22,1.22,0,0,1,1.5-1,1.27,1.27,0,0,1,1,1.5l-1,5c0,.1-.1.2-.1.3l-.9,1.7v.7A1.13,1.13,0,0,1,49.2,326.9Z" style="fill: #898988"/>
  <path d="M347.2,92a1.8,1.8,0,0,1-.9-.4,1.4,1.4,0,0,1-.3-.9,1.61,1.61,0,0,1,.3-.9,1.37,1.37,0,0,1,1.8,0,1.61,1.61,0,0,1,.3.9,1.4,1.4,0,0,1-.3.9A1.8,1.8,0,0,1,347.2,92Z" style="fill: #898988"/>
  <path d="M56.2,222.9a1.61,1.61,0,0,1-.9-.3,1.4,1.4,0,0,1-.3-.9,1.61,1.61,0,0,1,.3-.9,1.37,1.37,0,0,1,1.8,0,1.21,1.21,0,0,1,0,1.8A1.4,1.4,0,0,1,56.2,222.9Z" style="fill: #898988"/>
  <path d="M319.2,92a1.37,1.37,0,0,1-1.3-1.3,1.8,1.8,0,0,1,.4-.9,1.37,1.37,0,0,1,1.8,0,1.8,1.8,0,0,1,.4.9,1.49,1.49,0,0,1-.4.9A1.8,1.8,0,0,1,319.2,92Z" style="fill: #898988"/>
  <path d="M39.2,244.9a1.06,1.06,0,0,1-1.2-1.2,1.4,1.4,0,0,1,.3-.9,1.37,1.37,0,0,1,1.8,0,1.21,1.21,0,0,1,0,1.8A1.4,1.4,0,0,1,39.2,244.9Z" style="fill: #898988"/>
  <path d="M1.2,376a1.8,1.8,0,0,1-.9-.4,1.61,1.61,0,0,1-.3-.9,1.4,1.4,0,0,1,.3-.9,1.37,1.37,0,0,1,1.8,0,1.21,1.21,0,0,1,0,1.8A1.49,1.49,0,0,1,1.2,376Z" style="fill: #898988"/>
  <path d="M1.2,403a1.27,1.27,0,0,1-.9-.4,1.22,1.22,0,0,1-.3-.9,1.4,1.4,0,0,1,.3-.9,1.27,1.27,0,0,1,1.8,0,1.49,1.49,0,0,1,.4.9,1.8,1.8,0,0,1-.4.9A1.27,1.27,0,0,1,1.2,403Z" style="fill: #898988"/>
  <path d="M222.2,108.9a1.2,1.2,0,0,1-1.2-.9,1.15,1.15,0,0,1,.9-1.5l11-3,28-7,29.1-5,29.1-2a1.18,1.18,0,0,1,1.3,1.2,1.24,1.24,0,0,1-1.2,1.3l-29,2-28.9,5-27.9,7-11,3C222.4,108.9,222.3,108.9,222.2,108.9Z" style="fill: #898988"/>
  <path d="M56.2,222.9a1.14,1.14,0,0,1-.8-.3,1.36,1.36,0,0,1-.2-1.8l8-10,23.1-24.1,26.1-22.1,28.1-19.1,29.1-17,38.1-17.1a1.15,1.15,0,0,1,1.6.7,1.18,1.18,0,0,1-.7,1.6l-7,3-31,14-28.9,16.9-27.9,19L88,188.6,65.1,212.5l-7.9,9.9A1,1,0,0,1,56.2,222.9Z" style="fill: #898988"/>
  <path d="M641.2,266.9a1.1,1.1,0,0,1-1-.6l-18-27-20.9-26.9-22.9-23.9-25.9-21.9-27.9-18.9-28.9-17-37.9-16.9a1.23,1.23,0,1,1,.9-2.3l7,3,31,14,29.1,17.1,28.1,19L580,186.7l23.1,24.1,21.1,27.1L642.3,265a1.17,1.17,0,0,1-.4,1.7A.84.84,0,0,1,641.2,266.9Z" style="fill: #898988"/>
  <path d="M444.2,108.9h-.3l-11-3-28-7-28.9-5-28.9-2a1.24,1.24,0,0,1-1.2-1.3,1.18,1.18,0,0,1,1.3-1.2l29,2,29.1,5,28.1,7,11,3a1.22,1.22,0,0,1,.9,1.5A1,1,0,0,1,444.2,108.9Z" style="fill: #898988"/>
  <path d="M665.2,605.9a1.22,1.22,0,0,1-1.2-1.2v-275a1.22,1.22,0,0,1,1.2-1.2,1.31,1.31,0,0,1,1.3,1.2v275A1.24,1.24,0,0,1,665.2,605.9Z" style="fill: #898988"/>
  <path d="M629.2,666.9a1.3,1.3,0,0,1-1.2-.8,1.22,1.22,0,0,1,.7-1.6l4.8-1.9,6.8-5.9,4.8-6.8a1.22,1.22,0,0,1,2,1.4l-5,7-7.2,6.2c-.1.1-.2.2-.3.2l-5,2C629.5,666.9,629.4,666.9,629.2,666.9Z" style="fill: #898988"/>
  <path d="M617.2,668.9h-44a1.22,1.22,0,0,1-1.2-1.2,1.29,1.29,0,0,1,1.2-1.2h44a1.2,1.2,0,0,1,0,2.4Z" style="fill: #898988"/>
  <path d="M665.2,330.9a1.22,1.22,0,0,1-1.2-1.2v-1a1.22,1.22,0,0,1,1.2-1.2,1.31,1.31,0,0,1,1.3,1.2v1A1.24,1.24,0,0,1,665.2,330.9Z" style="fill: #898988"/>
  <path d="M658.2,298.9a1.22,1.22,0,0,1-.9-.4l-1-1a1.27,1.27,0,0,1,1.8-1.8l1,1a1.27,1.27,0,0,1,0,1.8A1.09,1.09,0,0,1,658.2,298.9Z" style="fill: #898988"/>
  <path d="M646.2,651.9a1.27,1.27,0,0,1-.6-.1,1.32,1.32,0,0,1-.6-1.7l16-32a1.27,1.27,0,0,1,2.3,1.1l-16,32A1.08,1.08,0,0,1,646.2,651.9Z" style="fill: #898988"/>
  <path d="M662.2,619.9h-.3a1.22,1.22,0,0,1-.9-1.5l2-7,1-6.8a1.3,1.3,0,0,1,1.4-1.1,1.24,1.24,0,0,1,1.1,1.4l-1,7-2,7.2A1.34,1.34,0,0,1,662.2,619.9Z" style="fill: #898988"/>
  <path d="M1.2,375.9a1.31,1.31,0,0,1-1.3-1.2v-45a1.24,1.24,0,0,1,1.3-1.2,1.31,1.31,0,0,1,1.3,1.2v45A1.24,1.24,0,0,1,1.2,375.9Z" style="fill: #898988"/>
  <path d="M24.2,267.9a1.85,1.85,0,0,1-.7-.2,1.28,1.28,0,0,1-.4-1.7l15-23a1.3,1.3,0,0,1,1.7-.4,1.28,1.28,0,0,1,.4,1.7l-15,23A1.1,1.1,0,0,1,24.2,267.9Z" style="fill: #898988"/>
  <path d="M8.2,299.9a1.31,1.31,0,0,1-1.3-1.2v-2a1.24,1.24,0,0,1,1.3-1.2,1.31,1.31,0,0,1,1.3,1.2v2A1.24,1.24,0,0,1,8.2,299.9Z" style="fill: #898988"/>
  <path d="M1.2,330.9H1.1A1.21,1.21,0,0,1,0,329.6l1-12a1.16,1.16,0,0,1,1.3-1.1,1.21,1.21,0,0,1,1.1,1.3l-1,12A1.13,1.13,0,0,1,1.2,330.9Z" style="fill: #898988"/>
  <path d="M49.2,668.9h-.1l-9-1-8.3-3.1a.76.76,0,0,1-.4-.2l-7-6-.3-.3-4-7a1.28,1.28,0,0,1,.5-1.7,1.2,1.2,0,0,1,1.7.5l3.9,6.8,6.7,5.7,7.8,2.9,8.7.9a1.24,1.24,0,0,1,1.1,1.4A1.22,1.22,0,0,1,49.2,668.9Z" style="fill: #898988"/>
  <path d="M1.2,605.9a1.31,1.31,0,0,1-1.3-1.2v-203a1.24,1.24,0,0,1,1.3-1.2,1.31,1.31,0,0,1,1.3,1.2v203A1.24,1.24,0,0,1,1.2,605.9Z" style="fill: #898988"/>
  <path d="M93.2,668.9h-44a1.2,1.2,0,1,1,0-2.4h44a1.2,1.2,0,0,1,0,2.4Z" style="fill: #898988"/>
  <path d="M21.2,651.9a1.23,1.23,0,0,1-1.1-.7l-16-32a1.23,1.23,0,0,1,.6-1.7,1.23,1.23,0,0,1,1.7.6l16,32a1.23,1.23,0,0,1-.6,1.7A1.27,1.27,0,0,1,21.2,651.9Z" style="fill: #898988"/>
  <path d="M5.2,619.9a1.17,1.17,0,0,1-1.1-.8l-3-7c0-.1-.1-.2-.1-.3l-1-7a1.24,1.24,0,0,1,1.1-1.4,1.3,1.3,0,0,1,1.4,1.1l1,6.8,2.9,6.9a1.15,1.15,0,0,1-.7,1.6A.75.75,0,0,1,5.2,619.9Z" style="fill: #898988"/>
  <path d="M489.2,688.9a1.22,1.22,0,0,1-1.2-1.2v-20a1.22,1.22,0,0,1,1.2-1.2,1.29,1.29,0,0,1,1.2,1.2v20A1.1,1.1,0,0,1,489.2,688.9Z" style="fill: #898988"/>
  <path d="M489.2,688.9h-8a1.22,1.22,0,0,1-1.2-1.2v-20a1.22,1.22,0,0,1,1.2-1.2,1.29,1.29,0,0,1,1.2,1.2v18.8h6.8a1.2,1.2,0,0,1,0,2.4Z" style="fill: #898988"/>
  <path d="M411.2,688.9a1.22,1.22,0,0,1-1.2-1.2v-20a1.22,1.22,0,0,1,1.2-1.2,1.29,1.29,0,0,1,1.2,1.2v20A1.1,1.1,0,0,1,411.2,688.9Z" style="fill: #898988"/>
  <path d="M419.2,688.9a1.22,1.22,0,0,1-1.2-1.2v-20a1.22,1.22,0,0,1,1.2-1.2,1.29,1.29,0,0,1,1.2,1.2v20A1.1,1.1,0,0,1,419.2,688.9Z" style="fill: #898988"/>
  <path d="M419.2,688.9h-8a1.22,1.22,0,0,1-1.2-1.2,1.29,1.29,0,0,1,1.2-1.2h8a1.2,1.2,0,0,1,0,2.4Z" style="fill: #898988"/>
  <path d="M465.2,688.9a1.22,1.22,0,0,1-1.2-1.2v-20a1.22,1.22,0,0,1,1.2-1.2,1.29,1.29,0,0,1,1.2,1.2v20A1.1,1.1,0,0,1,465.2,688.9Z" style="fill: #898988"/>
  <path d="M435.2,688.9a1.22,1.22,0,0,1-1.2-1.2v-20a1.22,1.22,0,0,1,1.2-1.2,1.29,1.29,0,0,1,1.2,1.2v20A1.1,1.1,0,0,1,435.2,688.9Z" style="fill: #898988"/>
  <path d="M481.2,688.9h-16a1.22,1.22,0,0,1-1.2-1.2,1.29,1.29,0,0,1,1.2-1.2h16a1.2,1.2,0,0,1,0,2.4Z" style="fill: #898988"/>
  <path d="M465.2,688.9h-46a1.22,1.22,0,0,1-1.2-1.2,1.29,1.29,0,0,1,1.2-1.2h46a1.2,1.2,0,0,1,0,2.4Z" style="fill: #898988"/>
  <path d="M255.2,688.9a1.31,1.31,0,0,1-1.3-1.2v-20a1.24,1.24,0,0,1,1.3-1.2,1.22,1.22,0,0,1,1.2,1.2v20A1.1,1.1,0,0,1,255.2,688.9Z" style="fill: #898988"/>
  <path d="M263.2,688.9a1.22,1.22,0,0,1-1.2-1.2v-20a1.22,1.22,0,0,1,1.2-1.2,1.29,1.29,0,0,1,1.2,1.2v20A1.1,1.1,0,0,1,263.2,688.9Z" style="fill: #898988"/>
  <path d="M263.2,688.9h-8a1.2,1.2,0,1,1,0-2.4h8a1.2,1.2,0,0,1,0,2.4Z" style="fill: #898988"/>
  <path d="M333.2,688.9h-8a1.2,1.2,0,1,1,0-2.4h8a1.2,1.2,0,0,1,0,2.4Z" style="fill: #898988"/>
  <path d="M325.2,688.9a1.31,1.31,0,0,1-1.3-1.2v-20a1.24,1.24,0,0,1,1.3-1.2,1.22,1.22,0,0,1,1.2,1.2v20A1.1,1.1,0,0,1,325.2,688.9Z" style="fill: #898988"/>
  <path d="M333.2,688.9a1.31,1.31,0,0,1-1.3-1.2v-20a1.24,1.24,0,0,1,1.3-1.2,1.22,1.22,0,0,1,1.2,1.2v20A1.1,1.1,0,0,1,333.2,688.9Z" style="fill: #898988"/>
  <path d="M309.2,688.9a1.31,1.31,0,0,1-1.3-1.2v-20a1.24,1.24,0,0,1,1.3-1.2,1.22,1.22,0,0,1,1.2,1.2v20A1.1,1.1,0,0,1,309.2,688.9Z" style="fill: #898988"/>
  <path d="M279.2,688.9a1.22,1.22,0,0,1-1.2-1.2v-20a1.22,1.22,0,0,1,1.2-1.2,1.29,1.29,0,0,1,1.2,1.2v20A1.1,1.1,0,0,1,279.2,688.9Z" style="fill: #898988"/>
  <path d="M325.2,688.9h-16a1.2,1.2,0,1,1,0-2.4h16a1.2,1.2,0,0,1,0,2.4Z" style="fill: #898988"/>
  <path d="M309.2,688.9h-46a1.22,1.22,0,0,1-1.2-1.2,1.29,1.29,0,0,1,1.2-1.2h46a1.2,1.2,0,0,1,0,2.4Z" style="fill: #898988"/>
  <path d="M497.2,688.9a1.22,1.22,0,0,1-1.2-1.2v-20a1.22,1.22,0,0,1,1.2-1.2,1.29,1.29,0,0,1,1.2,1.2v20A1.1,1.1,0,0,1,497.2,688.9Z" style="fill: #898988"/>
  <path d="M497.2,688.9h-8a1.22,1.22,0,0,1-1.2-1.2,1.29,1.29,0,0,1,1.2-1.2h8a1.2,1.2,0,0,1,0,2.4Z" style="fill: #898988"/>
  <path d="M489.2,688.9a1.22,1.22,0,0,1-1.2-1.2v-20a1.22,1.22,0,0,1,1.2-1.2,1.29,1.29,0,0,1,1.2,1.2v20A1.1,1.1,0,0,1,489.2,688.9Z" style="fill: #898988"/>
  <path d="M559.2,688.9a1.22,1.22,0,0,1-1.2-1.2v-20a1.22,1.22,0,0,1,1.2-1.2,1.29,1.29,0,0,1,1.2,1.2v20A1.1,1.1,0,0,1,559.2,688.9Z" style="fill: #898988"/>
  <path d="M567.2,688.9a1.22,1.22,0,0,1-1.2-1.2v-20a1.22,1.22,0,0,1,1.2-1.2,1.29,1.29,0,0,1,1.2,1.2v20A1.1,1.1,0,0,1,567.2,688.9Z" style="fill: #898988"/>
  <path d="M567.2,688.9h-8a1.22,1.22,0,0,1-1.2-1.2,1.29,1.29,0,0,1,1.2-1.2h8a1.2,1.2,0,0,1,0,2.4Z" style="fill: #898988"/>
  <path d="M543.2,688.9a1.22,1.22,0,0,1-1.2-1.2v-20a1.22,1.22,0,0,1,1.2-1.2,1.29,1.29,0,0,1,1.2,1.2v20A1.1,1.1,0,0,1,543.2,688.9Z" style="fill: #898988"/>
  <path d="M513.2,688.9a1.22,1.22,0,0,1-1.2-1.2v-20a1.22,1.22,0,0,1,1.2-1.2,1.29,1.29,0,0,1,1.2,1.2v20A1.1,1.1,0,0,1,513.2,688.9Z" style="fill: #898988"/>
  <path d="M559.2,688.9h-16a1.22,1.22,0,0,1-1.2-1.2,1.29,1.29,0,0,1,1.2-1.2h16a1.2,1.2,0,0,1,0,2.4Z" style="fill: #898988"/>
  <path d="M543.2,688.9h-46a1.22,1.22,0,0,1-1.2-1.2,1.29,1.29,0,0,1,1.2-1.2h46a1.2,1.2,0,0,1,0,2.4Z" style="fill: #898988"/>
  <path d="M255.2,688.9a1.31,1.31,0,0,1-1.3-1.2v-20a1.24,1.24,0,0,1,1.3-1.2,1.22,1.22,0,0,1,1.2,1.2v20A1.1,1.1,0,0,1,255.2,688.9Z" style="fill: #898988"/>
  <path d="M255.2,688.9h-8a1.2,1.2,0,1,1,0-2.4h8a1.2,1.2,0,0,1,0,2.4Z" style="fill: #898988"/>
  <path d="M247.2,688.9a1.31,1.31,0,0,1-1.3-1.2v-20a1.24,1.24,0,0,1,1.3-1.2,1.22,1.22,0,0,1,1.2,1.2v20A1.1,1.1,0,0,1,247.2,688.9Z" style="fill: #898988"/>
  <path d="M177.2,688.9a1.22,1.22,0,0,1-1.2-1.2v-20a1.22,1.22,0,0,1,1.2-1.2,1.39,1.39,0,0,1,1.3,1.2v20A1.24,1.24,0,0,1,177.2,688.9Z" style="fill: #898988"/>
  <path d="M185.2,688.9a1.22,1.22,0,0,1-1.2-1.2v-20a1.22,1.22,0,0,1,1.2-1.2,1.39,1.39,0,0,1,1.3,1.2v20A1.24,1.24,0,0,1,185.2,688.9Z" style="fill: #898988"/>
  <path d="M185.2,688.9h-8a1.22,1.22,0,0,1-1.2-1.2,1.29,1.29,0,0,1,1.2-1.2h8a1.2,1.2,0,1,1,0,2.4Z" style="fill: #898988"/>
  <path d="M201.2,688.9a1.22,1.22,0,0,1-1.2-1.2v-20a1.22,1.22,0,0,1,1.2-1.2,1.39,1.39,0,0,1,1.3,1.2v20A1.24,1.24,0,0,1,201.2,688.9Z" style="fill: #898988"/>
  <path d="M247.2,688.9h-16a1.31,1.31,0,0,1-1.3-1.2v-20a1.24,1.24,0,0,1,1.3-1.2,1.22,1.22,0,0,1,1.2,1.2v18.8h14.8a1.2,1.2,0,0,1,0,2.4Z" style="fill: #898988"/>
  <path d="M231.2,688.9h-46a1.22,1.22,0,0,1-1.2-1.2,1.29,1.29,0,0,1,1.2-1.2h46a1.2,1.2,0,0,1,0,2.4Z" style="fill: #898988"/>
  <path d="M177.2,688.9h-8a1.22,1.22,0,0,1-1.2-1.2,1.29,1.29,0,0,1,1.2-1.2h8a1.2,1.2,0,1,1,0,2.4Z" style="fill: #898988"/>
  <path d="M169.2,688.9a1.22,1.22,0,0,1-1.2-1.2v-20a1.22,1.22,0,0,1,1.2-1.2,1.39,1.39,0,0,1,1.3,1.2v20A1.24,1.24,0,0,1,169.2,688.9Z" style="fill: #898988"/>
  <path d="M177.2,688.9a1.22,1.22,0,0,1-1.2-1.2v-20a1.22,1.22,0,0,1,1.2-1.2,1.39,1.39,0,0,1,1.3,1.2v20A1.24,1.24,0,0,1,177.2,688.9Z" style="fill: #898988"/>
  <path d="M99.2,688.9a1.31,1.31,0,0,1-1.3-1.2v-20a1.24,1.24,0,0,1,1.3-1.2,1.22,1.22,0,0,1,1.2,1.2v20A1.1,1.1,0,0,1,99.2,688.9Z" style="fill: #898988"/>
  <path d="M106.2,688.9h-7a1.2,1.2,0,1,1,0-2.4H105V667.7a1.24,1.24,0,0,1,1.3-1.2,1.31,1.31,0,0,1,1.3,1.2v20A1.4,1.4,0,0,1,106.2,688.9Z" style="fill: #898988"/>
  <path d="M153.2,688.9a1.22,1.22,0,0,1-1.2-1.2v-20a1.22,1.22,0,0,1,1.2-1.2,1.39,1.39,0,0,1,1.3,1.2v20A1.24,1.24,0,0,1,153.2,688.9Z" style="fill: #898988"/>
  <path d="M123.2,688.9a1.31,1.31,0,0,1-1.3-1.2v-20a1.24,1.24,0,0,1,1.3-1.2,1.22,1.22,0,0,1,1.2,1.2v20A1.1,1.1,0,0,1,123.2,688.9Z" style="fill: #898988"/>
  <path d="M169.2,688.9h-16a1.22,1.22,0,0,1-1.2-1.2,1.29,1.29,0,0,1,1.2-1.2h16a1.2,1.2,0,1,1,0,2.4Z" style="fill: #898988"/>
  <path d="M153.2,688.9h-47a1.2,1.2,0,1,1,0-2.4h47a1.2,1.2,0,1,1,0,2.4Z" style="fill: #898988"/>
  <path d="M411.2,688.9h-8a1.22,1.22,0,0,1-1.2-1.2,1.29,1.29,0,0,1,1.2-1.2h6.7V667.7a1.22,1.22,0,0,1,1.2-1.2,1.29,1.29,0,0,1,1.2,1.2v20C412.5,688.4,411.9,688.9,411.2,688.9Z" style="fill: #898988"/>
  <path d="M403.2,688.9a1.22,1.22,0,0,1-1.2-1.2v-20a1.22,1.22,0,0,1,1.2-1.2,1.29,1.29,0,0,1,1.2,1.2v20A1.1,1.1,0,0,1,403.2,688.9Z" style="fill: #898988"/>
  <path d="M341.2,688.9a1.31,1.31,0,0,1-1.3-1.2v-20a1.24,1.24,0,0,1,1.3-1.2,1.22,1.22,0,0,1,1.2,1.2v20A1.1,1.1,0,0,1,341.2,688.9Z" style="fill: #898988"/>
  <path d="M341.2,688.9h-8a1.2,1.2,0,1,1,0-2.4h8a1.2,1.2,0,0,1,0,2.4Z" style="fill: #898988"/>
  <path d="M333.2,688.9a1.31,1.31,0,0,1-1.3-1.2v-20a1.24,1.24,0,0,1,1.3-1.2,1.22,1.22,0,0,1,1.2,1.2v20A1.1,1.1,0,0,1,333.2,688.9Z" style="fill: #898988"/>
  <path d="M387.2,688.9a1.22,1.22,0,0,1-1.2-1.2v-20a1.22,1.22,0,0,1,1.2-1.2,1.29,1.29,0,0,1,1.2,1.2v20A1.1,1.1,0,0,1,387.2,688.9Z" style="fill: #898988"/>
  <path d="M357.2,688.9a1.31,1.31,0,0,1-1.3-1.2v-20a1.24,1.24,0,0,1,1.3-1.2,1.22,1.22,0,0,1,1.2,1.2v20A1.1,1.1,0,0,1,357.2,688.9Z" style="fill: #898988"/>
  <path d="M403.2,688.9h-16a1.22,1.22,0,0,1-1.2-1.2,1.29,1.29,0,0,1,1.2-1.2h16a1.2,1.2,0,0,1,0,2.4Z" style="fill: #898988"/>
  <path d="M387.2,688.9h-46a1.2,1.2,0,1,1,0-2.4h46a1.2,1.2,0,0,1,0,2.4Z" style="fill: #898988"/>
  <path d="M607.2,621.9H59.2a1.23,1.23,0,0,1-1.1-.7l-10-20a1.27,1.27,0,0,1-.1-.6v-277a.9.9,0,0,1,.1-.5l3-7L68.2,285l20-30,24.1-26.2,26.1-24.1,23.1-16.1,23.1-14,25.1-12.1,26.1-10,26.1-8,32.2-5,32.1-3h14.1l32.1,2,32.2,6h.1l33,10,31.1,13,31.1,17.1L528,204.7l26.1,24.1,24.1,26.1,20.1,30.2,17.1,31.1,2.1,7.3,1,6.1V600.8a1.27,1.27,0,0,1-.1.6l-10,20A1.66,1.66,0,0,1,607.2,621.9ZM60,619.4H606.5l9.5-19V329.7l-1-5.8-2-6.9-16.9-30.7-20-29.9-23.9-25.8-25.9-23.9-27.9-19.9-30.9-16.9L436.6,157l-32.8-9.9-31.9-6-31.9-2H326.1l-31.9,3-31.9,5-25.8,8-25.9,10-24.9,12L162.8,191l-22.9,16L114,230.9,90.1,256.8,70.2,286.6,53.3,317.5l-2.8,6.7V600.7Z" style="fill: #898988"/>
  <path d="M664.2,605.9a1.22,1.22,0,0,1-1.2-1.2v-275a1.22,1.22,0,0,1,1.2-1.2,1.39,1.39,0,0,1,1.3,1.2v275A1.24,1.24,0,0,1,664.2,605.9Z" style="fill: #898988"/>
  <path d="M664.2,605.9a1.4,1.4,0,0,1-.9-.3,1.21,1.21,0,0,1,0-1.8,1.37,1.37,0,0,1,1.8,0,1.4,1.4,0,0,1,.3.9,1.06,1.06,0,0,1-1.2,1.2Z" style="fill: #898988"/>
  <path d="M2.2,605.9a1.61,1.61,0,0,1-.9-.3,1.61,1.61,0,0,1-.3-.9,1.4,1.4,0,0,1,.3-.9,1.37,1.37,0,0,1,1.8,0,1.4,1.4,0,0,1,.3.9,1.22,1.22,0,0,1-.3.9A1.22,1.22,0,0,1,2.2,605.9Z" style="fill: #898988"/>
  <path d="M2.2,605.9a1.31,1.31,0,0,1-1.3-1.2v-275a1.24,1.24,0,0,1,1.3-1.2,1.31,1.31,0,0,1,1.3,1.2v275A1.24,1.24,0,0,1,2.2,605.9Z" style="fill: #898988"/>
  <path d="M49.2,667.9h-4c-8.8-1-16.4-5.6-22-13.5l-2.1-4.2a1.23,1.23,0,0,1,.6-1.7,1.32,1.32,0,0,1,1.7.6l2,4c5.1,7.1,12.1,11.4,20,12.3h3.9a1.25,1.25,0,1,1-.1,2.5Z" style="fill: #898988"/>
  <path d="M618.2,667.9a1.31,1.31,0,0,1-1.3-1.2,1.4,1.4,0,0,1,1.3-1.3h4c7.4-.9,15.2-5.7,20-12.5l1.9-3.8a1.27,1.27,0,1,1,2.3,1.1l-2,4c-5.3,7.5-13.7,12.7-22,13.7Z" style="fill: #898988"/>
  <path d="M21.2,650.9a1.23,1.23,0,0,1-1.1-.7l-16-32a1.23,1.23,0,0,1,.6-1.7,1.23,1.23,0,0,1,1.7.6l16,32a1.23,1.23,0,0,1-.6,1.7A1.27,1.27,0,0,1,21.2,650.9Z" style="fill: #898988"/>
  <path d="M661.2,618.9h-1a1.22,1.22,0,0,1-1.2-1.2,1.31,1.31,0,0,1,1.2-1.3h1a1.24,1.24,0,0,1,1.2,1.3A1.1,1.1,0,0,1,661.2,618.9Z" style="fill: #898988"/>
  <path d="M645.2,650.9a1.27,1.27,0,0,1-.6-.1,1.32,1.32,0,0,1-.6-1.7l16-32a1.27,1.27,0,0,1,2.3,1.1l-16,32A1.08,1.08,0,0,1,645.2,650.9Z" style="fill: #898988"/>
  <path d="M617.2,667.9H49.2a1.31,1.31,0,0,1-1.3-1.2,1.4,1.4,0,0,1,1.3-1.3h568a1.24,1.24,0,0,1,1.2,1.3A1.16,1.16,0,0,1,617.2,667.9Z" style="fill: #898988"/>
  <path d="M657.2,297.9a1.17,1.17,0,0,1-1.1-.7l-10-19-22-35.9-12.9-16.9-13.9-15.9-15-16-15.9-13.9-16-13-17-13-17.9-10.9-19-11-18.9-9-19.9-8-19.9-7-20.9-6-19.9-4-20.9-3-21.9-2-20.9-1-20.9,1-21.9,2-19.9,3-21,4-20.9,6-19.9,7-20,8-18.9,9-18.9,11-18,11-34,26L84.1,193.6,69.2,209.5l-14,16L42.3,242.4,20.4,278.3l-10,18.9a1.2,1.2,0,0,1-1.7.5,1.28,1.28,0,0,1-.5-1.7l10-19,22-36.1,13.1-17.1,14-16.1,15-16,15.1-14.1,34.1-26.1,18.1-11.1,19-11,19.1-9,20.1-8,20-7,21.1-6,21.1-4,20-3,22.1-2,21-1,21.1,1,22.1,2,21.1,3,20.1,4,21.1,6,20.1,7,20.1,8,19.1,9,19.1,11,18,11,17.1,13.1,16,13,16,14,15.1,16.1,14,16,13.1,17.1,22.1,36.1,10,19.1a1.28,1.28,0,0,1-.5,1.7A.83.83,0,0,1,657.2,297.9Z" style="fill: #898988"/>
  <path d="M664.2,330.9a1.2,1.2,0,0,1-1.2-1.1l-1-11a1.24,1.24,0,0,1,1.1-1.4,1.3,1.3,0,0,1,1.4,1.1l1,11a1.24,1.24,0,0,1-1.1,1.4Z" style="fill: #898988"/>
  <path d="M657.2,298a1.8,1.8,0,0,1-.9-.4,1.5,1.5,0,0,1,0-1.8,1.37,1.37,0,0,1,1.8,0,1.21,1.21,0,0,1,0,1.8A1.49,1.49,0,0,1,657.2,298Z" style="fill: #898988"/>
  <path d="M661.2,308.9a1.3,1.3,0,0,1-1.2-.8l-4-11a1.31,1.31,0,0,1,.7-1.6,1.23,1.23,0,0,1,1.6.8l4,11a1.31,1.31,0,0,1-.7,1.6Z" style="fill: #898988"/>
  <path d="M663.2,319.9a1.19,1.19,0,0,1-1.2-1l-2-11a1.33,1.33,0,0,1,1-1.5,1.25,1.25,0,0,1,1.5,1l2,11a1.33,1.33,0,0,1-1,1.5Z" style="fill: #898988"/>
  <path d="M661.2,618.9a1.27,1.27,0,0,1-.6-.1,1.32,1.32,0,0,1-.6-1.7l1-2c1.9-3.7,1.9-5.5,1.9-9.4v-2a1.22,1.22,0,0,1,1.2-1.2,1.39,1.39,0,0,1,1.3,1.2v2c0,4.1,0,6.3-2.1,10.6l-1,2A1.15,1.15,0,0,1,661.2,618.9Z" style="fill: #898988"/>
  <path d="M3.2,319.9H3a1.27,1.27,0,0,1-1-1.5l2-11,4-11.2a1.36,1.36,0,0,1,1.6-.8,1.36,1.36,0,0,1,.8,1.6l-4,11L4.5,318.8A1.36,1.36,0,0,1,3.2,319.9Z" style="fill: #898988"/>
  <path d="M2.2,330.9H2.1A1.24,1.24,0,0,1,1,329.5l1-11a1.19,1.19,0,0,1,1.4-1.1,1.24,1.24,0,0,1,1.1,1.4l-1,11A1.3,1.3,0,0,1,2.2,330.9Z" style="fill: #898988"/>
  <path d="M5.2,618.9a1.31,1.31,0,0,1-1.3-1.2V617L2,613.3V612l-.9-1.7a1.49,1.49,0,0,1-.1-.6v-5a1.24,1.24,0,0,1,1.3-1.2,1.31,1.31,0,0,1,1.3,1.2v4.7l.9,1.7a1.27,1.27,0,0,1,.1.6v.7l1.9,3.7a1.27,1.27,0,0,1,.1.6v1A1.4,1.4,0,0,1,5.2,618.9Z" style="fill: #898988"/>
  <path d="M615.2,319.9a1.23,1.23,0,0,1-1.1-.7l-1-2a1.27,1.27,0,0,1,2.3-1.1l1,2a1.32,1.32,0,0,1-.6,1.7A1.27,1.27,0,0,1,615.2,319.9Z" style="fill: #898988"/>
  <path d="M617.2,330.9a1.31,1.31,0,0,1-1.3-1.2v-3a1.24,1.24,0,0,1,1.3-1.2,1.22,1.22,0,0,1,1.2,1.2v3A1.1,1.1,0,0,1,617.2,330.9Z" style="fill: #898988"/>
  <path d="M51.2,319.9a1.27,1.27,0,0,1-.6-.1,1.32,1.32,0,0,1-.6-1.7l1-2a1.27,1.27,0,1,1,2.3,1.1l-1,2A1.08,1.08,0,0,1,51.2,319.9Z" style="fill: #898988"/>
  <path d="M30.2,662.9a1.22,1.22,0,0,1-.9-.4l-5-5-4.2-6.2a1.22,1.22,0,1,1,2-1.4l4,6,4.8,4.8a1.27,1.27,0,0,1,0,1.8C30.9,662.8,30.5,662.9,30.2,662.9Z" style="fill: #898988"/>
  <path d="M21.2,652a1.8,1.8,0,0,1-.9-.4,1.4,1.4,0,0,1-.3-.9,1.61,1.61,0,0,1,.3-.9,1.27,1.27,0,0,1,1.8,0,1.4,1.4,0,0,1,.3.9,1.22,1.22,0,0,1-.3.9A1.8,1.8,0,0,1,21.2,652Z" style="fill: #898988"/>
  <path d="M21.2,651.9a1.31,1.31,0,0,1-1.3-1.2v-1a1.3,1.3,0,1,1,2.6,0v1A1.24,1.24,0,0,1,21.2,651.9Z" style="fill: #898988"/>
  <path d="M49.2,668.9h-3l-6.2-1-6.2-2.1c-.1,0-.2-.1-.4-.2l-4-3a1.09,1.09,0,0,1-.2-1.7,1.27,1.27,0,0,1,1.8-.2l3.8,2.9,5.8,1.9,5.8,1H48a1.19,1.19,0,0,1,1.2-1,1.32,1.32,0,0,1,1.3,1.3v1A1.23,1.23,0,0,1,49.2,668.9Z" style="fill: #898988"/>
  <path d="M617.2,668.9a1.31,1.31,0,0,1-1.3-1.2v-1a1.32,1.32,0,0,1,1.3-1.3,1.24,1.24,0,0,1,1.2,1.3v1A1.1,1.1,0,0,1,617.2,668.9Z" style="fill: #898988"/>
  <path d="M617.2,668.9h-46a1.22,1.22,0,0,1-1.2-1.2,1.29,1.29,0,0,1,1.2-1.2h46a1.2,1.2,0,0,1,0,2.4Z" style="fill: #898988"/>
  <path d="M571.2,668.9a1.4,1.4,0,0,1-.9-.3,1.27,1.27,0,0,1-.4-.9,1.3,1.3,0,0,1,2.6,0,1.27,1.27,0,0,1-.4.9A1.61,1.61,0,0,1,571.2,668.9Z" style="fill: #898988"/>
  <path d="M571.2,668.9a1.4,1.4,0,0,1-.9-.3,1.27,1.27,0,0,1-.4-.9,1.3,1.3,0,0,1,2.6,0,1.27,1.27,0,0,1-.4.9A1.61,1.61,0,0,1,571.2,668.9Z" style="fill: #898988"/>
  <path d="M571.2,668.9H95.2a1.2,1.2,0,1,1,0-2.4h476a1.2,1.2,0,0,1,0,2.4Z" style="fill: #898988"/>
  <path d="M95.2,668.9a1.61,1.61,0,0,1-.9-.3,1.22,1.22,0,0,1-.3-.9,1.61,1.61,0,0,1,.3-.9,1.5,1.5,0,0,1,1.8,0,1.4,1.4,0,0,1,.3.9,1.22,1.22,0,0,1-.3.9A1.61,1.61,0,0,1,95.2,668.9Z" style="fill: #898988"/>
  <path d="M95.2,668.9a1.61,1.61,0,0,1-.9-.3,1.22,1.22,0,0,1-.3-.9,1.61,1.61,0,0,1,.3-.9,1.5,1.5,0,0,1,1.8,0,1.4,1.4,0,0,1,.3.9,1.22,1.22,0,0,1-.3.9A1.61,1.61,0,0,1,95.2,668.9Z" style="fill: #898988"/>
  <path d="M95.2,668.9h-46a1.2,1.2,0,1,1,0-2.4h46a1.2,1.2,0,0,1,0,2.4Z" style="fill: #898988"/>
  <path d="M2.2,330.9h-1a1.2,1.2,0,1,1,0-2.4h1a1.2,1.2,0,1,1,0,2.4Z" style="fill: #898988"/>
  <path d="M1.2,330.9a1.31,1.31,0,0,1-1.3-1.2v-1a1.24,1.24,0,0,1,1.3-1.2,1.31,1.31,0,0,1,1.3,1.2v1A1.24,1.24,0,0,1,1.2,330.9Z" style="fill: #898988"/>
  <path d="M1.2,329.9a1.4,1.4,0,0,1-.9-.3,1.5,1.5,0,0,1,0-1.8,1.37,1.37,0,0,1,1.8,0,1.4,1.4,0,0,1,.3.9,1.61,1.61,0,0,1-.3.9A1.61,1.61,0,0,1,1.2,329.9Z" style="fill: #898988"/>
  <path d="M1.2,329.9H1.1A1.24,1.24,0,0,1,0,328.5l2-17,5-15.2a1.29,1.29,0,0,1,1.2-.9h1a1.2,1.2,0,1,1,0,2.4H9.1L4.4,311.9,2.5,328.7A1.23,1.23,0,0,1,1.2,329.9Z" style="fill: #898988"/>
  <path d="M665.2,330.9h-1a1.22,1.22,0,0,1-1.2-1.2,1.19,1.19,0,0,1,1-1.2l-3-19.6-1.9-5.8-2.9-5.8a1.32,1.32,0,0,1,.6-1.7,1.23,1.23,0,0,1,1.7.6l3,6,2.1,6.2,3.1,20.2v1.2A1.63,1.63,0,0,1,665.2,330.9Z" style="fill: #898988"/>
  <path d="M645.2,651.9h-.3a1.11,1.11,0,0,1-.9-1.2v-1a1.19,1.19,0,0,1,1-1.2l15.3-28.9a1.27,1.27,0,0,1-.4-.9v-1a1.31,1.31,0,0,1,1.2-1.3,1.19,1.19,0,0,1,1.2,1,1,1,0,0,1,.8.6,1.27,1.27,0,0,1,0,1.2l-17,32C646.1,651.7,645.7,651.9,645.2,651.9Z" style="fill: #898988"/>
  <path d="M620.2,668.9h-3a1.2,1.2,0,1,1,0-2.4h3a1.2,1.2,0,0,1,0,2.4Z" style="fill: #898988"/>
  <path d="M620.2,668.9a1.19,1.19,0,0,1-1.2-1,1.17,1.17,0,0,1,1-1.4l6-1,5.6-1.9,3.8-2.9,4.9-4.9,3.9-5.8a1.22,1.22,0,0,1,2,1.4l-4,6-5.1,5.2-4.1,3.1c-.1.1-.2.1-.4.2l-6,2-6.2,1.1C620.4,668.9,620.3,668.9,620.2,668.9Z" style="fill: #898988"/>
  <path d="M21.2,651.9a1.23,1.23,0,0,1-1.1-.7l-16-32a1.23,1.23,0,0,1,.6-1.7,1.23,1.23,0,0,1,1.7.6l16,32a1.23,1.23,0,0,1-.6,1.7A1.27,1.27,0,0,1,21.2,651.9Z" style="fill: #898988"/>
  <path d="M8.2,297.9a.73.73,0,0,1-.6-.2,1.28,1.28,0,0,1-.5-1.7l17-31,20.1-30,23.1-28.1,25.1-25.1,28.1-23.1,29.1-19.1,32.1-17.1,33.1-13.1a1.23,1.23,0,0,1,.9,2.3l-33,13-31.9,16.9-28.9,18.9L94,183.6,69.1,208.5,46.2,236.4,26.3,266.3l-17,31A1.15,1.15,0,0,1,8.2,297.9Z" style="fill: #898988"/>
  <path d="M215.2,111.9a1.26,1.26,0,0,1-1.2-.9,1.31,1.31,0,0,1,.8-1.6l36-11,37.1-7,38.2-2a1.25,1.25,0,0,1,.1,2.5l-38,2-36.8,7-35.9,11Z" style="fill: #898988"/>
  <path d="M333.2,91.9h-7a1.24,1.24,0,0,1-1.2-1.3,1.22,1.22,0,0,1,1.2-1.2h7a1.22,1.22,0,0,1,1.2,1.2A1.13,1.13,0,0,1,333.2,91.9Z" style="fill: #898988"/>
  <path d="M340.2,91.9h-7a1.32,1.32,0,0,1-1.3-1.3,1.24,1.24,0,0,1,1.3-1.2h7a1.31,1.31,0,0,1,1.3,1.2A1.26,1.26,0,0,1,340.2,91.9Z" style="fill: #898988"/>
  <path d="M451.2,111.9a.76.76,0,0,1-.4-.1l-36-11-36.9-7-37.8-2a1.24,1.24,0,0,1-1.2-1.3,1.3,1.3,0,0,1,1.3-1.2l38,2,37.2,7,36.1,11a1.23,1.23,0,0,1,.8,1.6A1,1,0,0,1,451.2,111.9Z" style="fill: #898988"/>
  <path d="M657.2,297.9a1.17,1.17,0,0,1-1.1-.7l-16-31-19.9-29.9-22.9-27.9-24.9-24.9-26.9-22.9-29.9-18.9-31.9-17-32.9-12.9a1.25,1.25,0,0,1-.7-1.6,1.35,1.35,0,0,1,1.6-.7l33,13,32.1,17.1,30.1,19L574,181.7l25.1,25.1,23.1,28.1L642.3,265l16.1,31.1a1.28,1.28,0,0,1-.5,1.7A2,2,0,0,1,657.2,297.9Z" style="fill: #898988"/>
  <path d="M2.2,605.9h-1a1.2,1.2,0,1,1,0-2.4h1a1.2,1.2,0,1,1,0,2.4Z" style="fill: #898988"/>
  <path d="M1.2,605.9a1.31,1.31,0,0,1-1.3-1.2v-275a1.24,1.24,0,0,1,1.3-1.2,1.31,1.31,0,0,1,1.3,1.2v275A1.24,1.24,0,0,1,1.2,605.9Z" style="fill: #898988"/>
  <path d="M665.2,605.9a1.22,1.22,0,0,1-1.2-1.2v-275a1.22,1.22,0,0,1,1.2-1.2,1.31,1.31,0,0,1,1.3,1.2v275A1.24,1.24,0,0,1,665.2,605.9Z" style="fill: #898988"/>
  <path d="M665.2,605.9a1.61,1.61,0,0,1-.9-.3,1.8,1.8,0,0,1-.4-.9,1.27,1.27,0,0,1,.4-.9,1.37,1.37,0,0,1,1.8,0,1.22,1.22,0,0,1,.3.9,1.06,1.06,0,0,1-1.2,1.2Z" style="fill: #898988"/>
  <path d="M665.2,605.9h-1a1.22,1.22,0,0,1-1.2-1.2,1.29,1.29,0,0,1,1.2-1.2h1a1.2,1.2,0,1,1,0,2.4Z" style="fill: #898988"/>
  <path d="M5.2,619.9a1.17,1.17,0,0,1-1.1-.8l-3-7c0-.1-.1-.2-.1-.3l-1-7a1.24,1.24,0,0,1,1.1-1.4,1.3,1.3,0,0,1,1.4,1.1l1,6.8,2.9,6.9a1.15,1.15,0,0,1-.7,1.6A.75.75,0,0,1,5.2,619.9Z" style="fill: #898988"/>
  <path d="M662.2,619.9h-.3a1.22,1.22,0,0,1-.9-1.5l2-7,1-6.8a1.3,1.3,0,0,1,1.4-1.1,1.24,1.24,0,0,1,1.1,1.4l-1,7-2,7.2A1.34,1.34,0,0,1,662.2,619.9Z" style="fill: #898988"/>
  <path d="M5.2,619.9a1.31,1.31,0,0,1-1.3-1.2v-1a1.3,1.3,0,1,1,2.6,0v1A1.24,1.24,0,0,1,5.2,619.9Z" style="fill: #898988"/>
  <g style="opacity: 0.30000001192092896">
    <polygon points="428.2 278.7 428.2 234.7 395.2 234.7 395.2 261.7 333.2 230.7 186.2 290.7 192.2 306.7 332.2 248.7 467.2 317.7 475.2 302.7 428.2 278.7" style="fill: #1d1d1b"/>
    <path d="M343.2,417.7h-30v-91h23a22.77,22.77,0,0,1,8,18c-1,24-31,26-31,26,60,19,30,47,30,47Zm74-53a30.19,30.19,0,0,0,14-29c-2-29-38-30-38-30h-167v21h53v34h-37v21h37v57h64c40-1,39-38,39-38,1-27-22-36-22-36,22-15,13-38,13-38h20c9,6,9,19,9,19-3,24-30,25-30,25,49,11,49,69,49,69h29c-4-64-33-75-33-75Z" style="fill: #1d1d1b"/>
    <polygon points="477.2 463.7 184.2 463.7 184.2 454.7 477.2 454.7 477.2 463.7" style="fill: #1d1d1b"/>
    <polygon points="187.2 531.7 198.2 531.7 198.2 509.7 217.2 509.7 217.2 500.7 198.2 500.7 198.2 488.7 220.2 488.7 220.2 478.7 187.2 478.7 187.2 531.7" style="fill: #1d1d1b"/>
    <polygon points="247.2 478.7 235.2 478.7 235.2 531.7 247.2 531.7 247.2 478.7" style="fill: #1d1d1b"/>
    <path d="M273.2,522.7v-14h10c2,0,4,1,6,2s2,3,2,6a3.67,3.67,0,0,1-1,3,2.15,2.15,0,0,1-2,2,3.67,3.67,0,0,1-3,1h-12Zm0-35h11a3.67,3.67,0,0,1,3,1c1,0,1,1,2,2,0,1,1,2,1,3a7.64,7.64,0,0,1-2,5c-1,1-3,1-5,1h-9l-1-12Zm18,43c2-1,4-1,6-3,2-1,3-3,4-5a14.45,14.45,0,0,0,2-7,18.84,18.84,0,0,0-2-8c-2-2-4-4-7-5a21.81,21.81,0,0,0,5-4,14.45,14.45,0,0,0,2-7,12.68,12.68,0,0,0-1-6,13.8,13.8,0,0,0-3-4,7.64,7.64,0,0,0-5-2c-2,0-4-1-7-1h-22v52h22c1,1,4,0,6,0" style="fill: #1d1d1b"/>
    <path d="M335.2,491.7h0l7,19h-13l6-19Zm-10,28h19l4,12h12l-19-53h-12l-20,52h12l4-11Z" style="fill: #1d1d1b"/>
    <path d="M382.2,487.7h10a8,8,0,1,1,0,16h-10v-16Zm0,23h9a7.07,7.07,0,0,1,8,8c0,2,1,4,1,7,0,2,1,4,1,6h11a3.67,3.67,0,0,1-1-3,3.67,3.67,0,0,0-1-3v-6c0-1,0-3-1-4,0-1-1-3-1-4-1-1-1-2-2-3s-2-1-4-2h0a10.24,10.24,0,0,0,6-5,18.84,18.84,0,0,0,2-8,12.68,12.68,0,0,0-1-6c-1-2-2-3-3-5a21.86,21.86,0,0,0-5-3,12.68,12.68,0,0,0-6-1h-26v52h11v-20Z" style="fill: #1d1d1b"/>
    <path d="M435.2,498.7c1-2,1-4,2-6s3-3,4-4c2-1,4-1,7-1s5,0,7,1a7.81,7.81,0,0,1,4,4c1,2,2,4,2,6,1,2,1,4,1,7a12.68,12.68,0,0,1-1,6c-1,2-1,4-2,6s-3,3-4,4c-2,1-4,1-7,1s-5,0-7-1a7.81,7.81,0,0,1-4-4c-1-2-2-4-2-6a12.68,12.68,0,0,1-1-6c0-3,0-5,1-7m-6,26a55.47,55.47,0,0,0,8,6,31.25,31.25,0,0,0,22,0,15.55,15.55,0,0,0,8-6,19.34,19.34,0,0,0,5-9,31.25,31.25,0,0,0,0-22c-1-3-3-6-5-9a55.47,55.47,0,0,0-8-6,31.25,31.25,0,0,0-22,0,15.55,15.55,0,0,0-8,6,19.34,19.34,0,0,0-5,9,36,36,0,0,0-2,11c0,4,1,7,2,11s3,6,5,9" style="fill: #1d1d1b"/>
    <path d="M206.2,557.7c0-1,0-3-1-4l-3-3c-1-1-3-1-4-1s-3,0-4,1c-1,0-2,1-3,2a3.67,3.67,0,0,0-1,3,5.2,5.2,0,0,0,2,4c1,1,2,1,4,2,2,0,3,1,5,1s3,1,5,2l3,3c1,1,1,3,1,4,0,2-1,3-2,5-1,1-3,2-4,3a18.5,18.5,0,0,1-12,0,7.81,7.81,0,0,1-4-4c-1-2-2-4-2-6h4q0,4.5,3,6c2,1,4,2,6,2h3a3.49,3.49,0,0,0,2-1l2-2c0-1,1-2,1-3v-1a3.49,3.49,0,0,0-1-2c-1-1-1-1-2-1s-2-1-3-1-2-1-3-1a7.64,7.64,0,0,1-5-2c-1-1-3-2-4-3s-1-3-1-4v-1c1-5,4-8,12-8a8.45,8.45,0,0,1,6,2c2,1,3,2,3,4,1,1,1,3,1,4Z" style="fill: #1d1d1b"/>
    <polygon points="249.2 580.7 249.2 566.7 237.2 548.7 241.2 548.7 250.2 563.7 260.2 548.7 263.2 548.7 252.2 566.7 252.2 580.7 249.2 580.7" style="fill: #1d1d1b"/>
    <path d="M310.2,557.7c0-1,0-3-1-4l-3-3c-1-1-3-1-4-1s-3,0-4,1c-1,0-2,1-3,2a3.67,3.67,0,0,0-1,3,5.2,5.2,0,0,0,2,4c1,1,2,1,4,2,2,0,3,1,5,1s3,1,5,2l3,3c1,1,1,3,1,4,0,2-1,3-2,5-1,1-3,2-4,3a18.5,18.5,0,0,1-12,0,7.81,7.81,0,0,1-4-4c-1-2-2-4-2-6h3q0,4.5,3,6c2,3,4,3,6,3h3a3.49,3.49,0,0,0,2-1l2-2c0-1,1-2,1-3v-1a3.49,3.49,0,0,0-1-2c-1-1-1-1-2-1s-2-1-3-1-2-1-3-1a7.64,7.64,0,0,1-5-2c-1-1-3-2-4-3s-1-3-1-4v-1c1-5,4-8,12-8a8.45,8.45,0,0,1,6,2c2,1,3,2,3,4,1,1,1,3,1,4h-3Z" style="fill: #1d1d1b"/>
    <polygon points="352.2 551.7 342.2 551.7 342.2 548.7 366.2 548.7 366.2 551.7 355.2 551.7 355.2 580.7 352.2 580.7 352.2 551.7" style="fill: #1d1d1b"/>
    <polygon points="398.2 565.7 398.2 577.7 416.2 577.7 416.2 580.7 395.2 580.7 395.2 548.7 416.2 548.7 416.2 551.7 398.2 551.7 398.2 562.7 414.2 562.7 414.2 565.7 398.2 565.7" style="fill: #1d1d1b"/>
    <polygon points="457.2 576.7 468.2 548.7 472.2 548.7 472.2 580.7 469.2 580.7 469.2 552.7 459.2 580.7 456.2 580.7 446.2 552.7 446.2 580.7 442.2 580.7 442.2 548.7 447.2 548.7 457.2 576.7" style="fill: #1d1d1b"/>
  </g>
  <g>
    <path d="M297.34,28.9H294.4V10q0-2.36.15-4.47c-.26.26-.54.52-.86.8s-1.75,1.46-4.32,3.54l-1.6-2.07,7-5.43h2.54Z" style="fill: #898988"/>
    <path d="M308.38,27a2.71,2.71,0,0,1,.56-1.85,2,2,0,0,1,1.59-.62,2.13,2.13,0,0,1,1.64.62,2.62,2.62,0,0,1,.59,1.85,2.53,2.53,0,0,1-.6,1.81,2.37,2.37,0,0,1-3.17.06A2.49,2.49,0,0,1,308.38,27Z" style="fill: #898988"/>
    <path d="M317.65,17.55q0-7.83,3-11.7t9-3.88a12,12,0,0,1,3.24.35V4.91a10.48,10.48,0,0,0-3.2-.45,8.08,8.08,0,0,0-6.52,2.66q-2.25,2.66-2.47,8.36H321q2-3.12,6.32-3.12a7.44,7.44,0,0,1,5.64,2.16A8.15,8.15,0,0,1,335,20.38a9.08,9.08,0,0,1-2.26,6.51,8.06,8.06,0,0,1-6.11,2.37,7.86,7.86,0,0,1-6.54-3.09Q317.65,23.07,317.65,17.55Zm8.91,9.15a5,5,0,0,0,4-1.62,6.93,6.93,0,0,0,1.43-4.7,6,6,0,0,0-1.33-4.14,5,5,0,0,0-4-1.5,6.67,6.67,0,0,0-3,.67,5.53,5.53,0,0,0-2.17,1.85,4.27,4.27,0,0,0-.81,2.45,8.33,8.33,0,0,0,.73,3.49,6.09,6.09,0,0,0,2.06,2.56A5.12,5.12,0,0,0,326.56,26.7Z" style="fill: #898988"/>
    <path d="M342,28.9,353,5.13H338.49V2.35h17.67V4.77L345.3,28.9Z" style="fill: #898988"/>
    <path d="M370.65,3.6a2,2,0,0,1,.51-1.51,1.88,1.88,0,0,1,2.52,0,2,2,0,0,1,.53,1.5,2,2,0,0,1-.53,1.52,1.77,1.77,0,0,1-1.25.5,1.75,1.75,0,0,1-1.27-.5A2,2,0,0,1,370.65,3.6Zm3.27,25.3h-3V9h3Z" style="fill: #898988"/>
    <path d="M393.93,28.9V16a5.2,5.2,0,0,0-1.11-3.64,4.54,4.54,0,0,0-3.47-1.19,5.73,5.73,0,0,0-4.57,1.68q-1.45,1.69-1.46,5.58V28.9h-3V9h2.45l.49,2.72h.15A6.13,6.13,0,0,1,386,9.44a8.46,8.46,0,0,1,3.73-.8,7.55,7.55,0,0,1,5.41,1.73c1.21,1.16,1.81,3,1.81,5.55v13Z" style="fill: #898988"/>
  </g>
  <g>
    <path d="M753.5,418.42v2.94H734.58q-2.36,0-4.47-.15c.26.26.52.54.8.86s1.46,1.75,3.54,4.32l-2.07,1.6L727,421v-2.54Z" style="fill: #898988"/>
    <path d="M751.58,407.38a2.71,2.71,0,0,1-1.85-.56,2,2,0,0,1-.62-1.59,2.13,2.13,0,0,1,.62-1.64,2.62,2.62,0,0,1,1.85-.59,2.53,2.53,0,0,1,1.81.6,2.15,2.15,0,0,1,.64,1.63,2.17,2.17,0,0,1-.57,1.54A2.53,2.53,0,0,1,751.58,407.38Z" style="fill: #898988"/>
    <path d="M737.28,390.13a9.78,9.78,0,0,1,2.08-6.6,7.13,7.13,0,0,1,5.7-2.41,8.22,8.22,0,0,1,6.46,2.62,10.51,10.51,0,0,1,2.34,7.24,13.42,13.42,0,0,1-1.43,6.85h-2.91a10.08,10.08,0,0,0,1.28-3.16,15.56,15.56,0,0,0,.47-3.73,7.44,7.44,0,0,0-1.51-5,5.42,5.42,0,0,0-4.36-1.77q-5.55,0-5.56,6.81a27.32,27.32,0,0,0,.53,4.61l-1,1.56-12.42-1V383h2.78v10.62l8,.68A21.12,21.12,0,0,1,737.28,390.13Z" style="fill: #898988"/>
    <path d="M728.21,366.38a2,2,0,0,1-1.52-.51,1.79,1.79,0,0,1-.48-1.27,1.77,1.77,0,0,1,.49-1.26,2.45,2.45,0,0,1,3,0,1.85,1.85,0,0,1,0,2.53A2,2,0,0,1,728.21,366.38Zm25.29-3.27v3H733.6v-3Z" style="fill: #898988"/>
    <path d="M753.5,343.1H740.63a5.25,5.25,0,0,0-3.64,1.1,4.56,4.56,0,0,0-1.19,3.47,5.75,5.75,0,0,0,1.68,4.58q1.69,1.46,5.58,1.45H753.5v3H733.6v-2.46l2.72-.49v-.14A6.16,6.16,0,0,1,734,351a8.39,8.39,0,0,1-.8-3.72A7.53,7.53,0,0,1,735,341.9c1.16-1.21,3-1.82,5.55-1.82h13Z" style="fill: #898988"/>
  </g>
</svg>
