<svg id="Layer_1" data-name="Layer 1" xmlns="http://www.w3.org/2000/svg" width="494.22" height="180.7" viewBox="0 0 494.22 180.7">
  <title>Artboard 1</title>
  <line x1="89.66" y1="74" x2="89.66" y2="5.4" style="fill: none;stroke: #bbbaba;stroke-miterlimit: 10;stroke-width: 0.699999988079071px"/>
  <polygon points="89.66 1.6 94.16 9.2 85.16 9.2 89.66 1.6" style="fill: #bbbaba"/>
  <line x1="89.66" y1="106.8" x2="89.66" y2="171.6" style="fill: none;stroke: #bababa;stroke-miterlimit: 10;stroke-width: 0.699999988079071px"/>
  <polygon points="89.66 179.2 85.16 171.6 94.16 171.6 89.66 179.2" style="fill: #bababa"/>
  <g style="isolation: isolate">
    <path d="M64.1,96.9H62.52V86.72c0-.84,0-1.64.08-2.4l-.46.43c-.17.15-.94.79-2.32,1.91L59,85.54l3.78-2.92H64.1Z" style="fill: #bbbaba"/>
    <path d="M70,95.87a1.48,1.48,0,0,1,.3-1,1.09,1.09,0,0,1,.85-.33,1.19,1.19,0,0,1,.89.33,1.43,1.43,0,0,1,.31,1,1.34,1.34,0,0,1-.32,1,1.14,1.14,0,0,1-.88.34,1.17,1.17,0,0,1-.82-.3A1.35,1.35,0,0,1,70,95.87Z" style="fill: #bbbaba"/>
    <path d="M79.58,82.42a4.83,4.83,0,0,1,3.1.91,3,3,0,0,1,1.14,2.51,3.16,3.16,0,0,1-.65,1.92,5.81,5.81,0,0,1-2.09,1.58,7.33,7.33,0,0,1,2.47,1.74,3.35,3.35,0,0,1,.73,2.12A3.58,3.58,0,0,1,83,96a5.11,5.11,0,0,1-3.4,1.06,5.45,5.45,0,0,1-3.52-1,3.43,3.43,0,0,1-1.23-2.83q0-2.46,3-3.82A5.5,5.5,0,0,1,76,87.79a3.48,3.48,0,0,1-.59-2,3,3,0,0,1,1.15-2.48A4.78,4.78,0,0,1,79.58,82.42ZM76.5,93.3a2.2,2.2,0,0,0,.81,1.82,3.55,3.55,0,0,0,2.29.66,3.4,3.4,0,0,0,2.27-.69,2.31,2.31,0,0,0,.81-1.87,2.34,2.34,0,0,0-.76-1.69,7.84,7.84,0,0,0-2.66-1.43,5.79,5.79,0,0,0-2.11,1.39A2.63,2.63,0,0,0,76.5,93.3Zm3.06-9.56a2.87,2.87,0,0,0-1.91.58,2,2,0,0,0-.7,1.56,2.28,2.28,0,0,0,.58,1.55,5.94,5.94,0,0,0,2.13,1.29,5.36,5.36,0,0,0,2-1.26,2.39,2.39,0,0,0,.58-1.58,1.92,1.92,0,0,0-.71-1.56A3,3,0,0,0,79.56,83.74Z" style="fill: #bbbaba"/>
    <path d="M92.3,96.9H90.71V86.72c0-.84,0-1.64.08-2.4-.13.14-.29.28-.46.43s-.94.79-2.32,1.91l-.86-1.12,3.78-2.92H92.3Z" style="fill: #bbbaba"/>
    <path d="M103.53,83.3a1.09,1.09,0,0,1,.27-.82,1,1,0,0,1,1.36,0,1,1,0,0,1,.28.81,1.06,1.06,0,0,1-.28.81,1,1,0,0,1-.68.27.93.93,0,0,1-.68-.27A1.1,1.1,0,0,1,103.53,83.3Zm1.75,13.6h-1.62V86.2h1.62Z" style="fill: #bbbaba"/>
    <path d="M116.05,96.9V90a2.79,2.79,0,0,0-.6-2,2.43,2.43,0,0,0-1.87-.64,3.09,3.09,0,0,0-2.46.91,4.57,4.57,0,0,0-.78,3V96.9h-1.62V86.2H110l.26,1.46h.08a3.27,3.27,0,0,1,1.4-1.22,4.52,4.52,0,0,1,2-.44,4.07,4.07,0,0,1,2.91.93,4,4,0,0,1,1,3v7Z" style="fill: #bbbaba"/>
  </g>
  <circle cx="89.16" cy="90.4" r="88.8" style="fill: none;stroke: #bababa;stroke-miterlimit: 10;stroke-width: 0.7200000286102295px"/>
  <rect x="75.66" width="28" height="1.1" style="fill: #bbbaba"/>
  <rect x="75.66" y="179.6" width="28" height="1.1" style="fill: #bbbaba"/>
  <path d="M244.87,29.34l3-1.2c24.4-8.9,52.3-11.3,78.1-9.9l4.1.3,2.4.2,2.4.2c22,2.3,53.8,9.4,69.4,26l1.2,1.3.5.7c6.9,8.9,6.9,18.6-.3,27.3l-.6.8-.7.7-.6.7c-24,24.2-80.3,28.4-111.7,25l-3.4-.4-3.8-.4-3.8-.6c-19.7-2.6-61-13.3-66.5-36.7l-.1-1-.1-.8c-1.2-14.8,14.6-25.2,26.2-30.4l4.3-1.8" style="fill: none;stroke: #bbbaba;stroke-linecap: round;stroke-linejoin: round;stroke-width: 0.7200000286102295px"/>
  <line x1="362.37" y1="97.04" x2="361.77" y2="117.14" style="fill: none;stroke: #bbbaba;stroke-linecap: round;stroke-linejoin: round;stroke-width: 0.7200000286102295px"/>
  <line x1="266.47" y1="117.94" x2="265.77" y2="97.34" style="fill: none;stroke: #bbbaba;stroke-linecap: round;stroke-linejoin: round;stroke-width: 0.7200000286102295px"/>
  <path d="M250.77,111.24l1.8-1.2a115.51,115.51,0,0,1,11.4-6.5l2-1" style="fill: none;stroke: #bbbaba;stroke-linecap: round;stroke-linejoin: round;stroke-width: 0.7200000286102295px"/>
  <path d="M362.27,102.24l2,.9a101.54,101.54,0,0,1,24.6,16.9l1.6,1.5" style="fill: none;stroke: #bbbaba;stroke-linecap: round;stroke-linejoin: round;stroke-width: 0.7200000286102295px"/>
  <path d="M236.37,122.84l1.7-1.6a100.34,100.34,0,0,1,10.7-8.7l1.9-1.3" style="fill: none;stroke: #bbbaba;stroke-linecap: round;stroke-linejoin: round;stroke-width: 0.7200000286102295px"/>
  <path d="M391.07,122.14l.3.4c3,3.3,5.2,7.5,5.2,12v.8" style="fill: none;stroke: #bbbaba;stroke-linecap: round;stroke-linejoin: round;stroke-width: 0.7200000286102295px"/>
  <path d="M229.87,137.24v-.7c-.1-4.5,2.1-8.7,5-12.1l.8-.9" style="fill: none;stroke: #bbbaba;stroke-linecap: round;stroke-linejoin: round;stroke-width: 0.7200000286102295px"/>
  <path d="M396.57,135.64l-.1,1.1-.2,1.1c-6,26.6-66.6,32.4-88.7,31.5l-4.2-.1-4.1-.2c-17-.6-64.3-6.5-69.1-29.7l-.2-1.6" style="fill: none;stroke: #bbbaba;stroke-linecap: round;stroke-linejoin: round;stroke-width: 0.7200000286102295px"/>
  <line x1="362.07" y1="116.84" x2="362.07" y2="116.84" style="fill: none;stroke: #bbbaba;stroke-linecap: round;stroke-linejoin: round;stroke-width: 0.7200000286102295px"/>
  <path d="M266.27,117.44h0l.1.1.1.1v.1l.2.2.2.2.4.4.4.4.1.1.1.1.5.4.5.3a31.71,31.71,0,0,0,8.2,3.7l1.6.5,2,.6,2,.5a143.29,143.29,0,0,0,38.7,3l2.8-.1,2.8-.3,2.8-.3,2.7-.3c7.7-1.1,15.5-2.5,22.8-5.5l1.3-.7.6-.3a23.66,23.66,0,0,0,2.7-1.6l.4-.3.3-.2a17.23,17.23,0,0,0,1.4-1.3v-.1l.1-.1.1-.2.1-.2" style="fill: none;stroke: #bbbaba;stroke-linecap: round;stroke-linejoin: round;stroke-width: 0.7200000286102295px"/>
  <line x1="266.27" y1="117.54" x2="266.27" y2="117.44" style="fill: none;stroke: #bbbaba;stroke-linecap: round;stroke-linejoin: round;stroke-width: 0.7200000286102295px"/>
  <path d="M361.27,97.24l-.4.5-.4.4-.3.3c-14.8,13-78.5,13.5-92.7-.4l-.4-.4" style="fill: none;stroke: #bbbaba;stroke-linecap: round;stroke-linejoin: round;stroke-width: 0.7200000286102295px"/>
  <path d="M392.57,137.74l-.5.6-.5.6-.6.6c-8,8.3-22.4,12.7-33.3,15.3l-1.9.5-2.1.4a222.89,222.89,0,0,1-67.7,2.8l-3.8-.4-3.4-.5-3.4-.5-1.7-.3c-11.8-2.3-26-5.9-35.7-13.4l-.8-.6-.7-.7c-5.7-5.2-6.8-11.6-1.7-17.6l.5-.6.5-.5.6-.6" style="fill: none;stroke: #bbbaba;stroke-linecap: round;stroke-linejoin: round;stroke-width: 0.7200000286102295px"/>
  <path d="M229.87,137.24v1c4,21.1,58.1,27,72.3,26.8l4.5.2H309c19.7,0,40.1-2,58.9-7.8l1.8-.5,1.6-.6c8.1-2.8,22.2-9.1,24.8-18.3l.2-.8.2-.8.1-.9" style="fill: none;stroke: #bbbaba;stroke-linecap: round;stroke-linejoin: round;stroke-width: 0.7200000286102295px"/>
  <path d="M390.37,121.54l.5.5c4.3,4.6,5.6,9.7,2,15.2l-.3.5" style="fill: none;stroke: #bbbaba;stroke-linecap: round;stroke-linejoin: round;stroke-width: 0.7200000286102295px"/>
  <polyline points="265.97 102.74 263.97 103.74 263.07 104.34 262.17 104.94" style="fill: none;stroke: #bbbaba;stroke-linecap: round;stroke-linejoin: round;stroke-width: 0.7200000286102295px"/>
  <path d="M369,117l.4-.4c4.9-6.2-.9-11.1-6.2-14l-.9-.3" style="fill: none;stroke: #bbbaba;stroke-linecap: round;stroke-linejoin: round;stroke-width: 0.7200000286102295px"/>
  <path d="M262.17,104.94l-1,.7c-13.9,11.2,7.8,19.2,16.6,21.2l1.1.3,1.2.3,2.5.5a164.12,164.12,0,0,0,61.3-.2l1.3-.3,1.3-.3c6.9-1.6,15.7-4.2,21.2-8.9l.4-.4.8-.8" style="fill: none;stroke: #bbbaba;stroke-linecap: round;stroke-linejoin: round;stroke-width: 0.7200000286102295px"/>
  <polyline points="361.87 115.34 361.97 115.74 361.97 116.04 361.97 116.44 362.07 116.84" style="fill: none;stroke: #bbbaba;stroke-linecap: round;stroke-linejoin: round;stroke-width: 0.7200000286102295px"/>
  <polyline points="266.27 117.44 266.17 117.14 266.27 116.74 266.27 116.34 266.37 115.94" style="fill: none;stroke: #bbbaba;stroke-linecap: round;stroke-linejoin: round;stroke-width: 0.7200000286102295px"/>
  <line x1="288.17" y1="17.94" x2="484.97" y2="17.94" style="fill: none;stroke: #bbbaba;stroke-linecap: round;stroke-linejoin: round;stroke-width: 0.7200000286102295px"/>
  <line x1="288.17" y1="169.94" x2="484.97" y2="169.94" style="fill: none;stroke: #bbbaba;stroke-linecap: round;stroke-linejoin: round;stroke-width: 0.7200000286102295px"/>
  <line x1="461.47" y1="77.44" x2="461.47" y2="21.74" style="fill: none;stroke: #bbbaba;stroke-miterlimit: 10;stroke-width: 0.699999988079071px"/>
  <polygon points="461.47 18.04 465.97 25.64 456.97 25.64 461.47 18.04" style="fill: #bbbaba"/>
  <line x1="461.47" y1="110.24" x2="461.47" y2="165.94" style="fill: none;stroke: #bababa;stroke-miterlimit: 10;stroke-width: 0.699999988079071px"/>
  <polygon points="461.47 169.64 456.97 162.04 465.97 162.04 461.47 169.64" style="fill: #bababa"/>
  <g style="isolation: isolate">
    <path d="M435.93,100.34h-1.58V90.16c0-.84,0-1.64.08-2.4l-.46.43c-.17.15-.94.79-2.32,1.91L430.79,89l3.78-2.92h1.36Z" style="fill: #bbbaba"/>
    <path d="M441.87,99.3a1.46,1.46,0,0,1,.3-1A1.09,1.09,0,0,1,443,98a1.19,1.19,0,0,1,.89.33,1.42,1.42,0,0,1,.31,1,1.35,1.35,0,0,1-.32,1,1.14,1.14,0,0,1-.88.34,1.17,1.17,0,0,1-.82-.3A1.36,1.36,0,0,1,441.87,99.3Z" style="fill: #bbbaba"/>
    <path d="M452.69,100.34h-1.58V90.16c0-.84,0-1.64.08-2.4l-.46.43c-.17.15-1,.79-2.33,1.91L447.54,89l3.78-2.92h1.37Z" style="fill: #bbbaba"/>
    <path d="M462.85,85.86a4.8,4.8,0,0,1,3.09.91,3,3,0,0,1,1.14,2.51,3.09,3.09,0,0,1-.65,1.92,5.72,5.72,0,0,1-2.09,1.58,7.09,7.09,0,0,1,2.47,1.74,3.29,3.29,0,0,1,.73,2.12,3.55,3.55,0,0,1-1.24,2.84,5.08,5.08,0,0,1-3.39,1.06,5.43,5.43,0,0,1-3.52-1,3.43,3.43,0,0,1-1.23-2.83q0-2.46,3-3.82a5.54,5.54,0,0,1-1.94-1.65,3.48,3.48,0,0,1-.58-2,3,3,0,0,1,1.15-2.48A4.76,4.76,0,0,1,462.85,85.86Zm-3.09,10.88a2.18,2.18,0,0,0,.82,1.82,3.53,3.53,0,0,0,2.29.66,3.37,3.37,0,0,0,2.26-.69,2.31,2.31,0,0,0,.81-1.87,2.29,2.29,0,0,0-.76-1.69,7.74,7.74,0,0,0-2.66-1.43,5.78,5.78,0,0,0-2.1,1.38A2.68,2.68,0,0,0,459.76,96.74Zm3.07-9.56a2.9,2.9,0,0,0-1.92.58,1.94,1.94,0,0,0-.69,1.56,2.23,2.23,0,0,0,.58,1.55,6,6,0,0,0,2.12,1.29,5.27,5.27,0,0,0,2-1.26,2.34,2.34,0,0,0,.58-1.58,1.91,1.91,0,0,0-.7-1.56A3,3,0,0,0,462.83,87.18Z" style="fill: #bbbaba"/>
    <path d="M475.36,86.74a1.09,1.09,0,0,1,.27-.82,1,1,0,0,1,1.36,0,1,1,0,0,1,.28.81,1.06,1.06,0,0,1-.28.81,1,1,0,0,1-.68.27.93.93,0,0,1-.68-.27A1.1,1.1,0,0,1,475.36,86.74Zm1.75,13.6h-1.62V89.64h1.62Z" style="fill: #bbbaba"/>
    <path d="M487.88,100.34V93.42a2.79,2.79,0,0,0-.6-2,2.43,2.43,0,0,0-1.86-.64,3.07,3.07,0,0,0-2.47.91,4.56,4.56,0,0,0-.78,3v5.62h-1.62V89.64h1.32l.26,1.46h.08a3.27,3.27,0,0,1,1.4-1.22,4.52,4.52,0,0,1,2-.44,4.07,4.07,0,0,1,2.91.93,4,4,0,0,1,1,3v7Z" style="fill: #bbbaba"/>
  </g>
</svg>
