<svg id="Warstwa_1" data-name="Warstwa 1" xmlns="http://www.w3.org/2000/svg" viewBox="0 0 100 100"><defs><style>.cls-1{fill:#fff;}</style></defs><title>thermostat-icon</title><path class="cls-1" d="M40,41.32a.7.7,0,1,0-1.4,0V65.79a9.08,9.08,0,1,0,1.4,0Zm7,33.51a7.68,7.68,0,1,1-7.68-7.68A7.69,7.69,0,0,1,47,74.83Z"/><path class="cls-1" d="M45.63,61.59V21.78a6.28,6.28,0,1,0-12.57,0V61.59a14.66,14.66,0,1,0,12.57,0Zm7,13.24A13.26,13.26,0,1,1,34,62.68a.7.7,0,0,0,.42-.64V21.78a4.89,4.89,0,1,1,9.77,0V62a.7.7,0,0,0,.42.64A13.27,13.27,0,0,1,52.61,74.83Z"/><path class="cls-1" d="M25.39,28.06h2.79a.7.7,0,1,0,0-1.4H25.39a.7.7,0,1,0,0,1.4Z"/><path class="cls-1" d="M25.39,33.64h2.79a.7.7,0,1,0,0-1.4H25.39a.7.7,0,1,0,0,1.4Z"/><path class="cls-1" d="M25.39,39.23h2.79a.7.7,0,1,0,0-1.4H25.39a.7.7,0,1,0,0,1.4Z"/><path class="cls-1" d="M25.39,44.81h2.79a.7.7,0,1,0,0-1.4H25.39a.7.7,0,1,0,0,1.4Z"/><path class="cls-1" d="M25.39,50.4h2.79a.7.7,0,0,0,0-1.4H25.39a.7.7,0,1,0,0,1.4Z"/><path class="cls-1" d="M25.39,56h2.79a.7.7,0,1,0,0-1.4H25.39a.7.7,0,1,0,0,1.4Z"/><path class="cls-1" d="M79.13,29.73a.76.76,0,0,0-1.24.43l-.08.6a27.86,27.86,0,0,1-1.13,5.35,7.11,7.11,0,0,1-2.53,3.72,31,31,0,0,0,.33-11.26c-.76-4.39-2.6-7.56-5.31-9.18a.73.73,0,0,0-.49-.1A.77.77,0,0,0,68,20c.16,4.65,0,9.76-2.43,12.75a20.63,20.63,0,0,0-1.49-2.39,7.69,7.69,0,0,0-3.24-2.79.75.75,0,0,0-1,.81c.77,5.82-.15,8-1.26,9.49a14.18,14.18,0,0,1-1,1.16c-.31.35-.62.7-.92,1.09a7.1,7.1,0,0,0-1.39,3.36c-.44,3.12,0,5.59,1.46,7.55,1.69,2.31,4.66,3.78,9.07,4.5a.72.72,0,0,0,.73-.45.74.74,0,0,0-.17-.88,6.75,6.75,0,0,1-1.77-3.43,7.79,7.79,0,0,1-.21-2.07,6.5,6.5,0,0,0,1,1.47,4.43,4.43,0,0,0,4,1.24.74.74,0,0,0,.5-.31.74.74,0,0,0,.13-.57l-.17-.86a33.57,33.57,0,0,1-.64-3.77,6.6,6.6,0,0,1,.25-2.43,6.32,6.32,0,0,1,3.07,3.76c.57,1.93.33,4.39-.7,7.3a.73.73,0,0,0,.13.72.76.76,0,0,0,.58.29h.1a12,12,0,0,0,7.76-4.25,14,14,0,0,0,2.9-7.49C83.93,38.51,82.19,32.7,79.13,29.73ZM74,46.86a8.12,8.12,0,0,0-4.64-5.13.75.75,0,0,0-.29-.06.77.77,0,0,0-.7.46,8.35,8.35,0,0,0-.6,3.95,30.81,30.81,0,0,0,.6,3.48l.09.44a2.65,2.65,0,0,1-1.93-.83A8.81,8.81,0,0,1,65,46.3a.74.74,0,0,0-.62-.44.69.69,0,0,0-.67.31,6.62,6.62,0,0,0-.45,5,10.63,10.63,0,0,0,.92,2.5c-2.94-.74-5-1.91-6.15-3.48s-1.56-3.71-1.16-6.45a5.31,5.31,0,0,1,1.09-2.67c.25-.33.53-.64.81-1s.73-.82,1.09-1.31c1-1.4,2.11-3.69,1.66-9a8.46,8.46,0,0,1,1.43,1.52,19.5,19.5,0,0,1,1.86,3.1.76.76,0,0,0,1.19.24c3.22-3,3.68-8,3.58-13A12.48,12.48,0,0,1,73,28.83,30.23,30.23,0,0,1,72.39,41a.73.73,0,0,0,.19.69.75.75,0,0,0,.7.23c2.16-.55,3.78-2.33,4.81-5.28a24.63,24.63,0,0,0,1-4.56A18.14,18.14,0,0,1,81.9,43.69a12.72,12.72,0,0,1-2.57,6.71,10.26,10.26,0,0,1-5.64,3.42A12.57,12.57,0,0,0,74,46.86Z"/></svg>