<svg id="Warstwa_1" xmlns="http://www.w3.org/2000/svg" viewBox="0 0 85 85"><style>.st0{fill:#0090ff}</style><title>Artboard 1</title><path class="st0" d="M33.8 7.5c-.4 0-.8.4-.8.8v6.3c.1.4.5.8.9.7.4 0 .7-.3.7-.7V8.3c0-.4-.4-.8-.8-.8zM51.2 7.5c-.4 0-.8.4-.8.8v6.3c.1.4.5.8.9.7.4 0 .7-.3.7-.7V8.3c0-.4-.3-.8-.8-.8zM34.2 47.6c.1.9.7 1.7 1.5 2.1l5.7 2.6c-1.7.4-2.8 2.2-2.3 3.9s2.2 2.8 3.9 2.3c1.7-.4 2.8-2.2 2.3-3.9-.3-1.1-1.2-2-2.3-2.3v-1.2l5.6-2.3c1-.4 1.6-1.4 1.6-2.4V44h1.6c.4 0 .8-.4.8-.8v-4.7c0-.4-.3-.8-.8-.8H47c-.4 0-.8.4-.8.8v4.8c0 .4.4.8.8.8h1.6v2.3c0 .4-.2.8-.6.9l-5 2.1V36.7h2.8c.4 0 .8-.4.8-.8 0-.1 0-.2-.1-.3l-3.6-6.1c-.3-.4-.8-.5-1.2-.2-.1.1-.2.1-.2.2l-3.6 6c-.2.4 0 .9.4 1.1.1.1.2.1.3.1h2.8v13.8l-5-2.3c-.3-.1-.5-.4-.6-.7 1.7-.5 2.8-2.2 2.3-3.9-.5-1.7-2.2-2.8-3.9-2.3-1.7.5-2.8 2.2-2.3 3.9.3 1.1 1.2 2 2.3 2.3v.1zm13.7-8.4h3.2v3.2h-3.2v-3.2zm-5.7-7.7l2.2 3.7H40l2.2-3.7zm1.6 23.9c0 .9-.7 1.6-1.6 1.6s-1.6-.7-1.6-1.6c0-.9.7-1.6 1.6-1.6.9 0 1.6.7 1.6 1.6zm-8.9-12.6c.9-.1 1.7.6 1.8 1.5.1.9-.6 1.7-1.5 1.8h-.3c-.9-.1-1.6-.9-1.5-1.8.1-.8.8-1.4 1.5-1.5z"/><path class="st0" d="M63.8 20h-5.4V2c0-.4-.4-.8-.8-.8h-30c-.4 0-.8.4-.8.8v18h-5.5c-.4 0-.8.4-.8.8v27.9c0 10.6 7.4 19.6 17.8 21.7V83c0 .4.4.8.8.8h6.5c.4 0 .8-.4.8-.8V70.5c10.6-1.8 18.3-11 18.3-21.7V20.9c-.1-.5-.4-.8-.9-.9zM28.3 2.9h28.4V20H28.3V2.9zm16.4 79.3h-4.9V70.7c.9.1 1.8.2 2.7.2.7 0 1.5 0 2.2-.1v11.4zM63 48.8c0 11.3-9.2 20.5-20.5 20.5S22 60.1 22 48.8V21.7h41v27.1z"/></svg>