<svg id="Warstwa_1" data-name="Warstwa 1" xmlns="http://www.w3.org/2000/svg" viewBox="0 0 342.56 77.63"><defs><style>.cls-1{fill:#fff;}</style></defs><title>white_arrow</title><path class="cls-1" d="M9.26,35.36A188.21,188.21,0,0,0,53,59.46c43.79,16.8,88.39,15.92,133.52,7.05C239.1,56.17,287,34.62,331.7,5.51c2.65-1.73,5.33-3.4,8-5.08.89-.55,2-1,2.7,0,.8,1.14-.36,1.77-1.15,2.29-22.75,15.06-46,29.17-70.85,40.65a372.73,372.73,0,0,1-66.58,23.56c-30.25,7.52-61,12-92.21,10.1C74.46,74.7,40.32,63.27,9.84,41.54c-.55-.4-.66-1.67-1.79-1-1.43.79-.29,1.67,0,2.48a12.38,12.38,0,0,0,.87,2.21c.75,1.44,0,2.29-1.2,2.68s-2.34-.29-2.3-1.29c.16-3.75-2.65-6-4.23-8.79C-.62,34.63-.23,31.93,3.23,31c7.21-1.9,14.56-3.26,21.87-4.75A2,2,0,0,1,27.65,28c.17,1.53-1.14,1.91-2.26,2.17A106,106,0,0,0,9.26,35.36Z" transform="translate(-0.12 0.16)"/></svg>