<?xml version="1.0" encoding="utf-8"?>
<!-- Generator: Adobe Illustrator 21.0.0, SVG Export Plug-In . SVG Version: 6.00 Build 0)  -->
<svg version="1.1" id="Layer_1" xmlns="http://www.w3.org/2000/svg" xmlns:xlink="http://www.w3.org/1999/xlink" x="0px" y="0px"
	 viewBox="0 0 78.9 78.9" width="78.9" height="78.9" style="enable-background:new 0 0 78.9 78.9;" xml:space="preserve">
<style type="text/css">
	.st0{fill:#7E7E7E;}
</style>
<title>youtube</title>
<path class="st0" d="M60,32.4c-0.4-3.8-2.5-6-6.3-6.2s-7.3-0.3-11-0.3c-3.1,0-6.3,0-9.4,0.1c-2.9,0.1-5.9,0.2-8.8,0.4
	c-2.4,0.1-4.4,1.8-5,4.1c-0.3,1-0.5,2-0.5,3c-0.4,4.7-0.3,9.5,0.1,14.2c0.1,1.6,0.7,3.1,1.7,4.4c1.3,1.3,3.1,2,4.9,1.9
	c4.6,0.2,9.2,0.3,14.4,0.4c4.3-0.1,9.2-0.3,14.2-0.5c2.6,0,4.8-1.9,5.3-4.4c0.2-0.9,0.4-1.8,0.4-2.7C60.5,42,60.4,37.2,60,32.4z
	 M35.9,45.1V34.2c3,1.8,7.2,3.6,10.9,5.5C43.2,41.5,38.9,43.3,35.9,45.1L35.9,45.1z"/>
</svg>
