<svg xmlns="http://www.w3.org/2000/svg" xmlns:xlink="http://www.w3.org/1999/xlink" viewBox="0 0 128 128"><defs><style>.cls-1{isolation:isolate;}.cls-2{mix-blend-mode:multiply;}.cls-3{fill:url(#linear-gradient);}.cls-4{opacity:0.16;}.cls-5{fill:url(#linear-gradient-2);}.cls-6{fill:url(#linear-gradient-3);}</style><linearGradient id="linear-gradient" x1="60" y1="96" x2="60" y2="32" gradientUnits="userSpaceOnUse"><stop offset="0" stop-color="#1f2535"/><stop offset="0.72" stop-color="#475166"/><stop offset="1" stop-color="#3c4557"/></linearGradient><linearGradient id="linear-gradient-2" x1="44.5" y1="79.5" x2="75.5" y2="48.5" gradientUnits="userSpaceOnUse"><stop offset="0" stop-color="#12adb4"/><stop offset="1" stop-color="#d1e946"/></linearGradient><linearGradient id="linear-gradient-3" x1="115.95" y1="78" x2="115.95" y2="50" gradientUnits="userSpaceOnUse"><stop offset="0" stop-color="#9ea8b6"/><stop offset="0.72" stop-color="#d7dce2"/><stop offset="1" stop-color="#adb8c7"/></linearGradient></defs><title>battery-full</title><g class="cls-1"><g id="icons" class="cls-2"><path class="cls-3" d="M108.37,96H11.63a3,3,0,0,1-3-2.75C8.35,89.73,8,81.79,8,64s.35-25.73.64-29.25a3,3,0,0,1,3-2.75h96.74a3,3,0,0,1,3,2.75c.29,3.52.64,11.46.64,29.25s-.35,25.73-.64,29.25A3,3,0,0,1,108.37,96Z"/><g class="cls-4"><path d="M105.92,77l.38,6.51c.1,2.17.17,4.35.26,6.54a.91.91,0,0,1-.87.95H14.28a.84.84,0,0,1-.84-.84.94.94,0,0,1,0-.11L14.21,84l1.23,5.95-1-.95h91.12l-1,.95c.24-2.15.51-4.3.74-6.46Z"/></g><g class="cls-4"><path d="M105.79,44l-1.23-5.95,1,.95H14.44l1-.95c-.24,2.15-.51,4.3-.74,6.46L14.08,51l-.38-6.52c-.1-2.18-.17-4.36-.26-6.54a.91.91,0,0,1,.87-.95h91.41a.84.84,0,0,1,.84.84.93.93,0,0,1,0,.11Z"/></g><polygon class="cls-5" points="93 66 58 52 56 62 27 62 62 76 64 66 93 66"/><path class="cls-6" d="M116,50h-4.09c.06,3.81.09,8.42.09,14s0,10.19-.09,14H116a4,4,0,0,0,4-4V54A4,4,0,0,0,116,50Z"/></g></g></svg>